          <svg xmlns="http://www.w3.org/2000/svg" width="564" height="653" viewBox="0 0 564 653" fill="none">
            <path
              d="M448.798 162.015L448.79 162.006C385.974 96.6127 300.179 87.7285 226.953 123.489C155.163 158.522 115.364 218.134 103.286 297.518C90.8197 379.225 130.823 475.053 215.461 520.704C263.638 546.718 314.524 554.396 367.733 539.608L367.743 539.605L367.752 539.602C401.601 529.481 432.038 510.092 455.713 483.571C462.822 475.964 469.411 467.832 475.998 459.703C478.921 456.096 481.843 452.488 484.811 448.928C491.021 452.031 501.683 459.389 515.074 469.76C528.87 480.445 545.49 494.27 562.985 509.785C563.112 511.915 562.42 513.68 561.354 515.385C560.783 516.297 560.116 517.176 559.412 518.087L559.219 518.337C558.585 519.157 557.926 520.009 557.333 520.894C518.679 576.711 469.144 618.872 404.116 637.864L404.116 637.864C296.131 669.457 197.598 647.99 111.956 574.52C43.2348 515.565 7.24296 438.572 1.71645 347.404L0.718285 347.465L1.71645 347.404C-3.48019 261.837 19.5278 184.707 72.8391 117.97C123.885 54.0714 189.828 15.1872 270.702 4.19945C330.729 -3.93063 384.051 3.55505 431.544 25.2698C478.786 46.869 520.318 82.5729 556.964 131.105L476.963 191.101C474.516 190.89 472.966 189.756 471.652 188.246C470.979 187.472 470.382 186.615 469.751 185.709L469.654 185.569C469 184.631 468.304 183.644 467.496 182.769C464.706 179.736 461.914 176.59 459.119 173.44C455.686 169.571 452.248 165.696 448.798 162.015Z"
              stroke="url(#paint0_linear_6530_12000)" stroke-width="2" />
            <defs>
              <linearGradient id="paint0_linear_6530_12000" x1="282" y1="0" x2="282" y2="653"
                gradientUnits="userSpaceOnUse">
                <stop stop-color="#92E490" />
                <stop offset="0.583398" stop-color="#189115" stop-opacity="0.416602" />
                <stop offset="1" stop-color="#92E490" stop-opacity="0" />
              </linearGradient>
            </defs>
          </svg>