<svg width="74" height="104" viewBox="0 0 74 104" fill="none" xmlns="http://www.w3.org/2000/svg">
<path d="M42.3287 5.65331C34.0576 0.878815 26.5708 0.416333 21.1484 3.53305L21.1417 3.53752C21.1417 3.53752 21.1328 3.54422 21.1261 3.54422L10.4845 9.68829C5.06434 12.8095 1.7041 19.5188 1.7041 29.0678C1.7041 46.9504 13.4873 68.4658 28.5838 78.9621C33.0388 87.2487 39.8889 94.8763 47.5925 99.3201C50.059 100.741 52.4384 101.74 54.6816 102.334L65.3388 96.1833C61.5942 91.4245 58.6808 86.0646 56.8287 80.7271L63.4955 76.8798L63.4866 76.8641C68.9224 73.7497 72.3005 67.0739 72.3005 57.5204C72.3005 38.4246 58.8819 15.209 42.3331 5.65331H42.3287Z" fill="#CBE8CA"/>
<path d="M54.6793 103.864C54.5475 103.864 54.4157 103.849 54.2861 103.813C51.8732 103.174 49.3619 102.108 46.8261 100.645C39.2499 96.2771 32.1898 88.7679 27.4064 80.0076C11.8563 69.0198 0.169189 47.1938 0.169189 29.0655C0.169189 19.2573 3.56072 11.9046 9.71819 8.35664L20.3575 2.2148C20.3865 2.19693 20.4178 2.18129 20.4468 2.16788C20.4468 2.16788 20.4513 2.16789 20.4558 2.16342C26.5395 -1.32865 34.6005 -0.582422 43.095 4.32389C60.0437 14.1097 73.831 37.9733 73.831 57.5181C73.831 67.1989 70.5042 74.4847 64.454 78.0683C64.3937 78.1175 64.3289 78.1644 64.2574 78.2046L58.7031 81.4129C60.5374 86.2723 63.2297 91.0289 66.5407 95.2337C66.8133 95.5823 66.9228 96.0336 66.8401 96.4715C66.7552 96.9094 66.4871 97.287 66.1006 97.5104L55.4434 103.661C55.2089 103.797 54.9452 103.867 54.6771 103.867L54.6793 103.864ZM21.8633 4.89138L11.2509 11.0153C6.0809 13.9935 3.23676 20.4035 3.23676 29.0677C3.23676 46.3985 14.5083 67.3084 29.4574 77.7019C29.6562 77.8404 29.8193 78.0236 29.9333 78.2359C34.4553 86.6454 41.1691 93.8463 48.3588 97.993C50.4478 99.1972 52.501 100.1 54.4738 100.683L63.0643 95.7253C59.7778 91.2613 57.1347 86.2835 55.3809 81.2297C55.1418 80.5349 55.4278 79.7663 56.0646 79.3999L62.5303 75.6666C62.5929 75.6196 62.6555 75.5749 62.727 75.5347C67.9148 72.5632 70.7701 66.1667 70.7701 57.5203C70.7701 38.9518 57.6687 16.2791 41.5668 6.98036C34.0599 2.65047 27.0802 1.88861 21.9192 4.86234C21.9013 4.87128 21.8834 4.88021 21.8678 4.88915L21.8633 4.89138Z" fill="#0D0D0D"/>
<path d="M30.2268 81.8045C33.062 86.4025 36.6144 90.6899 40.5891 94.2155L58.1521 84.0722C57.674 82.9618 57.2182 81.8447 56.8273 80.7276L63.4941 76.8803L63.4852 76.8647C68.921 73.7502 72.2991 67.0744 72.2991 57.5209L30.229 81.8068L30.2268 81.8045Z" fill="#0D0D0D"/>
<path d="M40.5891 95.7478C40.2249 95.7478 39.8607 95.6159 39.5725 95.3635C35.5465 91.7954 31.8645 87.3851 28.922 82.6106C28.7053 82.2576 28.6405 81.8331 28.7411 81.431C28.8438 81.0288 29.103 80.687 29.4605 80.4792L71.5306 56.1956C72.0065 55.9208 72.5873 55.9208 73.0632 56.1956C73.5391 56.4682 73.8296 56.9753 73.8296 57.5227C73.8296 67.2035 70.5028 74.4915 64.4526 78.0752C64.3923 78.1221 64.3275 78.169 64.256 78.2092L58.7107 81.4109C58.9766 82.099 59.2625 82.7849 59.5575 83.4686C59.8658 84.1813 59.591 85.0124 58.9162 85.4034L41.3532 95.5467C41.1141 95.6852 40.8505 95.7522 40.5868 95.7522L40.5891 95.7478ZM32.3783 82.3313C34.8002 86.0223 37.6779 89.4384 40.7901 92.3272L56.2129 83.4194C55.9157 82.6911 55.6342 81.9605 55.3795 81.2321C55.136 80.5351 55.4219 79.7642 56.0609 79.3978L62.5267 75.6645C62.5893 75.6176 62.6518 75.5729 62.7233 75.5327C67.3526 72.8829 70.123 67.5007 70.6682 60.2306L32.3783 82.3291V82.3313Z" fill="#0D0D0D"/>
<path d="M45.4989 84.9973C55.0859 84.7694 61.6411 76.9988 61.6411 63.6696C61.6411 44.5783 48.2224 21.3559 31.6714 11.8025C15.1227 2.24676 1.70178 9.97041 1.70178 29.0662C1.70178 46.9488 13.485 68.4642 28.5815 78.9605C33.0365 87.2471 39.8866 94.8747 47.5901 99.3185C50.0567 100.74 52.4361 101.738 54.6793 102.332C50.4968 97.0195 47.2706 90.9492 45.4989 84.9973Z" fill="white"/>
<path d="M54.6793 103.865C54.5498 103.865 54.4179 103.85 54.2861 103.814C51.8732 103.175 49.3619 102.109 46.8261 100.646C39.2499 96.2778 32.1898 88.7687 27.4064 80.0083C11.8563 69.0205 0.169189 47.1946 0.169189 29.0662C0.169189 19.2692 3.55401 11.9187 9.70031 8.37076C15.8578 4.81391 23.93 5.5646 32.4356 10.4754C49.3843 20.2567 63.1716 44.1203 63.1716 63.6696C63.1716 76.4269 57.1102 85.1023 47.5522 86.3736C49.3418 91.5167 52.2575 96.7805 55.8813 101.383C56.2902 101.899 56.3215 102.623 55.9595 103.173C55.6691 103.61 55.1843 103.863 54.6771 103.863L54.6793 103.865ZM18.2797 9.2287C15.6925 9.2287 13.3153 9.82523 11.2352 11.0272C6.07643 14.0054 3.23676 20.4131 3.23676 29.0684C3.23676 46.3992 14.5083 67.3091 29.4574 77.7026C29.6562 77.8412 29.8193 78.0244 29.9333 78.2366C34.4553 86.6462 41.1691 93.847 48.3588 97.9937C49.0715 98.4048 49.7797 98.7801 50.4835 99.1197C47.6148 94.7407 45.4141 90.0846 44.0311 85.4375C43.8948 84.9795 43.9797 84.4857 44.2612 84.0992C44.5428 83.7149 44.9874 83.4803 45.4655 83.4691C54.4984 83.2546 60.1107 75.6695 60.1107 63.6741C60.1107 45.1011 47.0093 22.4284 30.9074 13.1341C26.4189 10.5424 22.118 9.23093 18.2819 9.23093L18.2797 9.2287Z" fill="#0D0D0D"/>
<path d="M26.7303 52.3908C26.737 50.2952 27.0095 48.9189 27.5368 48.2442C28.0641 47.5739 29.1164 46.9908 30.6893 46.5037C31.6165 46.1731 32.3493 45.657 32.9011 44.9711C33.4597 44.2874 33.7323 43.3177 33.7323 42.0778C33.7323 40.697 33.4217 39.4392 32.7894 38.2885C32.1594 37.1513 31.2568 36.2375 30.0838 35.5673C29.1186 35.0087 28.3121 34.8657 27.6329 35.1361C26.9626 35.4109 26.6275 36.1817 26.6119 37.4552L21.071 34.2513L21.0308 34.0905C20.9906 31.1882 21.8217 29.4612 23.4974 28.8982C25.182 28.3463 27.3782 28.8513 30.0838 30.4107C32.9972 32.0953 35.2806 34.258 36.9406 36.9257C38.6006 39.5844 39.4228 42.3749 39.4317 45.2995C39.4317 47.2075 38.9447 48.6843 37.9706 49.7455C37.0054 50.8068 35.7922 51.4614 34.3377 51.7161C33.5401 51.9641 33.0196 52.3707 32.7738 52.9449C32.5258 53.5124 32.4074 54.4173 32.4074 55.6751L26.7325 52.3908H26.7303ZM32.4454 65.0007L26.7146 61.6963L26.7057 56.0639L32.4454 59.3727V65.0007Z" fill="#0D0D0D"/>
</svg>
