<svg width="72" height="53" viewBox="0 0 72 53" fill="none" xmlns="http://www.w3.org/2000/svg">
<path d="M71.3282 26.6395V15.4715C70.528 13.7757 69.346 12.1345 67.8048 10.5774C64.6951 11.7072 59.9329 11.1798 56.5027 9.1976C55.4593 8.59522 54.6796 7.92238 54.1113 7.2268V2.67368C51.4154 1.78261 48.574 1.10066 45.6393 0.639211C44.8278 2.70778 40.8157 4.28306 35.9625 4.28306C31.1116 4.28079 27.0927 2.70322 26.2835 0.632385C23.3511 1.09383 20.5097 1.7735 17.8114 2.6623V7.23132C17.2454 7.92236 16.4703 8.59069 15.436 9.18853C12.0104 11.1662 7.24587 11.6912 4.13393 10.5592C2.59729 12.1163 1.41978 13.7575 0.619629 15.451V28.7671C0.619629 28.7671 0.628733 28.7694 0.631006 28.7694V36.6118C1.43115 38.3052 2.61319 39.9487 4.15438 41.5036C7.26178 40.3761 12.0263 40.9012 15.4587 42.8834C16.4976 43.4858 17.2795 44.1609 17.8455 44.8542V49.4096C20.5438 50.3007 23.3852 50.9826 26.3176 51.4463C27.1291 49.3778 31.1389 47.7979 35.9943 47.8025C40.8475 47.8025 44.8642 49.38 45.6734 51.4531C48.6058 50.9917 51.4472 50.3098 54.1477 49.4232V44.8565C54.7137 44.1654 55.4866 43.4949 56.5209 42.8993C59.9488 40.9216 64.7133 40.3965 67.823 41.5286C69.3619 39.9692 70.5394 38.3303 71.3395 36.6345V26.6463C71.3395 26.6463 71.3327 26.6463 71.3259 26.644L71.3282 26.6395ZM52.9702 27.7101C52.9702 27.7101 52.9748 27.7124 52.9748 27.7147C52.9498 27.7329 52.9248 27.7533 52.8998 27.7715C52.652 27.9806 52.3792 28.1807 52.1087 28.383C52.0041 28.4603 51.9109 28.5421 51.8018 28.6171C51.3995 28.899 50.9721 29.174 50.5175 29.4354C42.4978 34.0658 29.4863 34.0613 21.4599 29.4263C20.9984 29.1604 20.5688 28.8831 20.1642 28.5989C20.0664 28.5307 19.98 28.4557 19.8846 28.3875C19.5981 28.1784 19.314 27.9647 19.0549 27.7465C19.0299 27.7283 19.0071 27.7101 18.9821 27.6896C18.9844 27.6896 18.9867 27.6874 18.9889 27.6851C18.3684 27.1509 17.8205 26.5963 17.3591 26.0234C18.3456 24.7982 19.6891 23.6457 21.4394 22.6364C29.4591 18.006 42.4683 18.0106 50.497 22.6478C52.2542 23.6616 53.6044 24.8187 54.5933 26.0484C54.1341 26.6213 53.5862 27.1759 52.9657 27.7079L52.9702 27.7101Z" fill="#CBE8CA"/>
<path d="M45.6766 52.0718C45.4243 52.0718 45.1902 51.9195 45.097 51.6763C44.481 50.0987 41.0826 48.4212 35.9976 48.4212C30.9125 48.4212 27.5187 50.0942 26.9027 51.6695C26.7959 51.94 26.5163 52.0991 26.2253 52.0582C23.2657 51.5899 20.381 50.8989 17.6533 49.9987C17.3987 49.9146 17.2259 49.6759 17.2259 49.4054V45.0796C16.6872 44.4636 15.9893 43.9067 15.1528 43.4202C13.082 42.2246 10.4338 41.5403 7.88556 41.5403C6.57396 41.5403 5.36008 41.7313 4.37126 42.0882C4.14622 42.1677 3.88708 42.1132 3.71659 41.9404C2.12766 40.3379 0.900182 38.6307 0.0727563 36.8736C0.0318396 36.7895 0.0113768 36.6986 0.0113768 36.6054V28.8789C0.00455739 28.8403 0 28.8016 0 28.7607V15.4446C0 15.3537 0.0204605 15.2628 0.0591041 15.1787C0.888803 13.4193 2.11175 11.7167 3.69386 10.1118C3.86435 9.93905 4.12349 9.87995 4.35081 9.96405C5.3419 10.3255 6.56031 10.5164 7.87419 10.5164C10.4178 10.5164 13.0638 9.83222 15.1255 8.64109C15.9552 8.16146 16.6463 7.61136 17.1873 6.99534V2.65362C17.1873 2.38311 17.36 2.14444 17.6169 2.06033C20.3492 1.16244 23.2316 0.473666 26.1889 0.00767123C26.4822 -0.0377917 26.7618 0.12588 26.8663 0.396384C27.4824 1.9694 30.8785 3.64699 35.9658 3.65153C41.0485 3.65153 44.4446 1.97849 45.0606 0.405472C45.1674 0.134967 45.4471 -0.0286902 45.738 0.0167727C48.7022 0.485041 51.5891 1.17608 54.31 2.07624C54.5646 2.16035 54.7397 2.39903 54.7397 2.66953V6.99534C55.2807 7.61363 55.9785 8.17054 56.8151 8.65472C58.8859 9.85039 61.5318 10.5369 64.08 10.5369C65.3916 10.5369 66.6055 10.3459 67.592 9.98678C67.8193 9.90722 68.0762 9.96178 68.249 10.1345C69.8402 11.7417 71.0631 13.4465 71.8928 15.2037C71.9338 15.2878 71.9542 15.3787 71.9542 15.4696V26.4716C71.9633 26.5262 71.9656 26.5808 71.9656 26.6399V36.6281C71.9656 36.7213 71.9474 36.8122 71.9065 36.894C71.0768 38.6512 69.8538 40.356 68.2717 41.9609C68.099 42.1336 67.8421 42.1927 67.6148 42.1086C66.6237 41.7495 65.4053 41.5585 64.0914 41.5585C61.5455 41.5585 58.9018 42.2427 56.8378 43.4339C56.0104 43.9112 55.3171 44.4636 54.7761 45.0796V49.4191C54.7761 49.6896 54.6033 49.9283 54.3487 50.0124C51.6187 50.908 48.734 51.599 45.7766 52.065C45.7448 52.0696 45.713 52.0696 45.6789 52.0696L45.6766 52.0718ZM35.9839 47.1732C40.7712 47.1755 44.7674 48.628 46.0312 50.758C48.609 50.3306 51.1277 49.7282 53.5258 48.9667V44.8523C53.5258 44.7068 53.5758 44.5682 53.6668 44.4568C54.3214 43.6566 55.1784 42.9497 56.2104 42.3541C58.4608 41.0562 61.3318 40.3106 64.0891 40.3106C65.3826 40.3106 66.6055 40.4833 67.6511 40.8084C68.965 39.4263 69.997 37.9761 70.7154 36.4894V26.7649C70.7063 26.724 70.7017 26.6808 70.7017 26.6376V15.6128C69.9834 14.1285 68.9491 12.6759 67.6284 11.2916C66.5873 11.6144 65.3689 11.7848 64.0778 11.7848C61.3182 11.7848 58.4426 11.0393 56.1899 9.73674C55.1443 9.13435 54.2828 8.4206 53.6281 7.61818C53.5372 7.50679 53.4894 7.36813 53.4894 7.22265V3.12416C51.0981 2.35811 48.5795 1.75346 45.9949 1.32383C44.7265 3.45377 40.7348 4.90175 35.9703 4.90175C31.1899 4.8972 27.1937 3.44694 25.9298 1.31473C23.3521 1.74208 20.8357 2.34447 18.4352 3.11052V7.22493C18.4352 7.37041 18.3852 7.50907 18.2943 7.62273C17.6396 8.41833 16.7827 9.12755 15.7484 9.72311C13.5002 11.0211 10.6292 11.7644 7.87191 11.7644C6.57622 11.7644 5.35555 11.5962 4.30763 11.2688C2.99375 12.6486 1.96627 14.0989 1.24568 15.5855V28.6471C1.25477 28.688 1.25706 28.7244 1.25706 28.7653V36.4667C1.97764 37.9511 3.01193 39.4036 4.33263 40.7834C5.37373 40.4606 6.59214 40.2901 7.88329 40.2901C10.6452 40.2901 13.5207 41.0357 15.7756 42.3405C16.8213 42.9452 17.6828 43.6566 18.3329 44.4568C18.4239 44.5659 18.4739 44.7069 18.4739 44.8478V48.9485C20.8698 49.7169 23.3861 50.3215 25.9684 50.7489C27.2346 48.6212 31.2217 47.1709 35.9839 47.1709V47.1732ZM36.0044 33.5321C30.4034 33.5321 25.1297 32.2659 21.1471 29.97C20.6697 29.695 20.2265 29.4108 19.8059 29.113C19.7423 29.0721 19.6786 29.0221 19.6173 28.9744C19.2172 28.6766 18.9194 28.4539 18.6512 28.2243C18.6285 28.2061 18.608 28.1833 18.5853 28.1606H18.583C17.926 27.5969 17.3509 27.0127 16.8736 26.4194C16.6894 26.1898 16.6917 25.8647 16.8736 25.6351C17.951 24.294 19.3854 23.1074 21.1289 22.1004C25.0978 19.8091 30.3624 18.5475 35.9544 18.5475C41.5463 18.5475 46.8291 19.8136 50.8094 22.1118C52.562 23.121 53.9986 24.3144 55.0806 25.6624C55.2625 25.8897 55.2648 26.2148 55.0806 26.4421C54.626 27.0104 54.0782 27.5741 53.4485 28.122C53.4235 28.1538 53.394 28.1788 53.3644 28.2038C53.0439 28.4697 52.762 28.6789 52.4802 28.888L52.1642 29.129C51.7414 29.4222 51.3027 29.7063 50.8298 29.9814C46.8609 32.2727 41.5963 33.5343 36.0021 33.5343L36.0044 33.5321ZM19.4604 27.2741C19.7468 27.5105 20.0014 27.6992 20.256 27.8856C20.2606 27.8878 20.3902 27.9856 20.3947 27.9901L20.522 28.0879C20.9152 28.3652 21.3289 28.6311 21.7722 28.8857C25.5684 31.077 30.6216 32.2818 36.0044 32.2818C41.3872 32.2818 46.4245 31.0793 50.207 28.8971C50.6457 28.6425 51.0572 28.3766 51.4459 28.1061L51.7391 27.881C52.0005 27.6878 52.2597 27.4946 52.4984 27.2945C52.5165 27.2741 52.537 27.2536 52.5597 27.2354C53.0144 26.8444 53.4235 26.4466 53.7759 26.0488C52.8348 24.9827 51.6277 24.0212 50.1866 23.1892C46.3927 21.0002 41.3395 19.7931 35.9544 19.7931C30.5693 19.7931 25.5343 20.9956 21.754 23.1801C20.3174 24.0076 19.1172 24.9646 18.1784 26.0238C18.5375 26.4262 18.9444 26.824 19.3968 27.2104C19.4195 27.2309 19.44 27.2513 19.4581 27.2718L19.4604 27.2741Z" fill="#404040"/>
<path d="M56.5261 32.9048C59.954 30.9272 64.7185 30.4044 67.8282 31.5341C69.3671 29.977 70.5446 28.3358 71.3447 26.64C67.7554 26.1718 65.0254 23.8554 65.0208 21.0526C65.0163 18.2499 67.7463 15.9358 71.3311 15.4675C70.5309 13.7718 69.3489 12.1305 67.8077 10.5734C64.6981 11.7032 59.9358 11.1758 56.5056 9.19362C53.0732 7.21371 52.1616 4.46321 54.1143 2.6697C51.4183 1.77863 48.5769 1.09668 45.6423 0.63523C44.8307 2.70379 40.8186 4.27908 35.9655 4.27908C31.1146 4.27681 27.0956 2.69926 26.2864 0.628418C23.354 1.08987 20.5126 1.76954 17.8144 2.65834C19.7761 4.4564 18.8669 7.20691 15.4389 9.18455C12.0133 11.1622 7.2488 11.6873 4.13686 10.5552C2.60022 12.1123 1.42271 13.7536 0.622559 15.4471C4.20959 15.9176 6.94192 18.2317 6.94647 21.0367C6.94874 23.8373 4.22096 26.1536 0.633935 26.6219C1.43408 28.3153 2.61612 29.9588 4.15731 31.5159C7.26471 30.3862 12.0292 30.9113 15.4617 32.8935C18.8919 34.8756 19.8034 37.6239 17.8485 39.4197C20.5467 40.3108 23.3881 40.9927 26.3205 41.4541C27.132 39.3856 31.1418 37.808 35.9973 37.8126C40.8504 37.8126 44.8671 39.3901 45.6764 41.4632C48.6087 41.0018 51.4502 40.3221 54.1507 39.4356C52.1912 37.6375 53.0982 34.887 56.5238 32.9094L56.5261 32.9048ZM21.4628 29.4292C13.434 24.792 13.4249 17.2815 21.4446 12.6511C29.4643 8.0207 42.4735 8.02522 50.5022 12.6602C58.531 17.2951 58.5378 24.8056 50.5204 29.436C42.5008 34.0664 29.4893 34.0619 21.4628 29.4269V29.4292Z" fill="white"/>
<path d="M45.6781 42.0858C45.4257 42.0858 45.1916 41.9289 45.0984 41.688C44.4824 40.1104 41.084 38.4351 35.999 38.4328C30.9139 38.4328 27.5201 40.1059 26.9041 41.6812C26.7973 41.9539 26.5177 42.1153 26.2267 42.0699C23.2671 41.6039 20.3825 40.9128 17.6547 40.0104C17.4456 39.9399 17.2887 39.7649 17.2387 39.5489C17.1933 39.333 17.2637 39.108 17.4274 38.9557C18.0366 38.3965 18.3048 37.7463 18.2275 37.0235C18.0911 35.7914 16.9727 34.4821 15.1542 33.4319C13.0834 32.2362 10.4352 31.5498 7.88698 31.5498C6.57538 31.5498 5.3615 31.7407 4.37268 32.0976C4.14764 32.1817 3.8885 32.1248 3.71801 31.9498C2.12908 30.3472 0.901604 28.6424 0.0741786 26.883C-0.012201 26.7034 -0.00539372 26.4943 0.0900785 26.317C0.185551 26.1419 0.358323 26.0237 0.55836 25.9964C3.90216 25.5645 6.32761 23.4733 6.32761 21.0319C6.32306 18.5905 3.89306 16.5015 0.546983 16.0605C0.351493 16.0355 0.176449 15.9173 0.080977 15.74C-0.0144952 15.5672 -0.0190315 15.3558 0.0628018 15.1763C0.892501 13.4169 2.11545 11.7143 3.69756 10.1094C3.86805 9.93666 4.12719 9.87755 4.35451 9.96166C5.3456 10.3231 6.564 10.514 7.87788 10.514C10.4215 10.514 13.0675 9.82983 15.1292 8.6387C16.9455 7.59078 18.0616 6.28371 18.1957 5.05394C18.2753 4.32653 18.0048 3.67642 17.3933 3.11268C17.2296 2.96265 17.1592 2.73987 17.2046 2.52165C17.2501 2.3057 17.4092 2.13068 17.6183 2.06021C20.3506 1.16231 23.233 0.473544 26.1904 0.00754916C26.4836 -0.0379138 26.7632 0.125758 26.8678 0.396262C27.4838 1.96928 30.8799 3.64686 35.9672 3.65141C41.0499 3.65141 44.446 1.97837 45.062 0.40535C45.1689 0.134845 45.4485 -0.0288123 45.7394 0.0166506C48.7036 0.484919 51.5905 1.17596 54.3115 2.07612C54.5206 2.14432 54.6797 2.31934 54.7274 2.53756C54.7729 2.75579 54.7002 2.97856 54.5388 3.12859C53.9296 3.68778 53.6591 4.34018 53.7386 5.06304C53.875 6.29509 54.998 7.6044 56.8165 8.6546C58.8873 9.85027 61.5333 10.5368 64.0815 10.5368C65.3931 10.5368 66.6069 10.3458 67.5935 9.98666C67.8208 9.9071 68.0776 9.96166 68.2504 10.1344C69.8416 11.7415 71.0646 13.4464 71.8943 15.2035C71.9806 15.3831 71.9738 15.5945 71.8784 15.7673C71.7806 15.9446 71.6101 16.0628 71.4101 16.0878C68.0663 16.5242 65.6408 18.611 65.6431 21.0524C65.6454 23.4937 68.0777 25.585 71.4237 26.0214C71.6215 26.0465 71.7942 26.1647 71.892 26.342C71.9874 26.517 71.9943 26.7284 71.9079 26.908C71.0782 28.6651 69.8553 30.37 68.2731 31.9748C68.1004 32.1476 67.8435 32.2044 67.6162 32.1248C66.6251 31.7634 65.4067 31.5725 64.0928 31.5725C61.5469 31.5725 58.9032 32.2567 56.8392 33.4478C55.023 34.4957 53.9068 35.8005 53.7727 37.0326C53.6932 37.7577 53.9637 38.4124 54.5752 38.9716C54.7388 39.1216 54.8093 39.3466 54.7638 39.5648C54.7161 39.7831 54.5592 39.9558 54.3478 40.0263C51.6178 40.9196 48.7332 41.613 45.7758 42.079C45.744 42.0835 45.7122 42.0881 45.6781 42.0881V42.0858ZM35.9854 37.1849C40.7726 37.1849 44.7688 38.6397 46.0327 40.7696C48.4467 40.3718 50.8063 39.8149 53.0681 39.1216C52.6271 38.451 52.443 37.6963 52.5316 36.8939C52.7112 35.239 54.0205 33.6297 56.2141 32.3635C58.4645 31.0656 61.3355 30.32 64.0928 30.32C65.3862 30.32 66.6092 30.4904 67.6548 30.8155C68.7891 29.6244 69.7098 28.381 70.4031 27.1126C66.8797 26.3556 64.3997 23.9052 64.3951 21.0546C64.3929 18.2018 66.8661 15.7536 70.3894 14.9967C69.6961 13.726 68.7687 12.4849 67.6298 11.2892C66.5887 11.612 65.3703 11.7824 64.0792 11.7824C61.3196 11.7824 58.4441 11.0369 56.1914 9.73434C53.991 8.46365 52.6794 6.85427 52.4975 5.19715C52.4088 4.397 52.593 3.64231 53.0317 2.97628C50.779 2.2807 48.4172 1.72378 45.9963 1.32143C44.7279 3.45137 40.7362 4.89935 35.9717 4.89935C31.1913 4.89481 27.1951 3.44455 25.9312 1.31233C23.5171 1.71241 21.1576 2.26706 18.8981 2.96264C19.3391 3.63095 19.5232 4.3879 19.4346 5.18805C19.255 6.8429 17.9457 8.4523 15.7498 9.71844C13.5017 11.0164 10.6307 11.7597 7.87333 11.7597C6.57764 11.7597 5.35697 11.5915 4.30905 11.2642C3.17703 12.4553 2.25638 13.6964 1.56307 14.9694C5.08645 15.7264 7.56874 18.1791 7.57101 21.0296C7.57101 23.8802 5.09783 26.3283 1.57445 27.083C2.26776 28.356 3.19293 29.5994 4.33405 30.7905C5.37516 30.4677 6.59356 30.2972 7.88471 30.2972C10.6466 30.2972 13.5221 31.0451 15.7771 32.3476C17.9775 33.6183 19.2868 35.2277 19.4709 36.8848C19.5573 37.6827 19.3732 38.4374 18.9345 39.1057C21.194 39.8058 23.5535 40.3605 25.9699 40.7605C27.236 38.6329 31.2231 37.1826 35.9854 37.1826V37.1849ZM36.0058 33.5319C30.4048 33.5319 25.1311 32.2658 21.1485 29.9699C17.0614 27.6104 14.8087 24.4348 14.8087 21.0319C14.8087 17.629 17.0546 14.4648 21.1326 12.1121C25.1015 9.81847 30.3661 8.55914 35.9581 8.55914C41.55 8.55914 46.8328 9.82299 50.8131 12.1211C54.9002 14.4807 57.1529 17.654 57.1529 21.0569C57.1529 24.4553 54.9093 27.624 50.8335 29.979C46.8646 32.2703 41.6 33.5319 36.0058 33.5319ZM35.9581 9.80482C30.5821 9.80482 25.538 11.0073 21.7577 13.1918C18.0821 15.3127 16.0589 18.0973 16.0589 21.0296C16.0589 23.962 18.0889 26.7602 21.7736 28.8879C25.5675 31.0769 30.6207 32.2817 36.0058 32.2817C41.3909 32.2817 46.4259 31.0792 50.2084 28.897C53.8818 26.7739 55.9072 23.9893 55.9049 21.0546C55.9049 18.1154 53.8773 15.3263 50.1925 13.2009C46.3986 11.0096 41.3454 9.80255 35.9604 9.80255L35.9581 9.80482Z" fill="#404040"/>
<path d="M32.1507 9.38843C28.2272 9.81351 24.4788 10.8978 21.4419 12.6504C15.1771 16.267 13.8359 21.6362 17.3616 26.0256C18.3481 24.8004 19.6916 23.6479 21.4419 22.6386C24.4766 20.8883 28.225 19.8017 32.1507 19.3767V9.38843Z" fill="#404040"/>
<path d="M17.3643 26.6486C17.1757 26.6486 16.9961 26.5622 16.8779 26.4167C15.1821 24.3049 14.5161 21.9545 14.9571 19.6155C15.4981 16.7263 17.6326 14.1304 21.1332 12.1118C24.1406 10.3728 27.9277 9.21807 32.0852 8.76798C32.2625 8.74525 32.4376 8.80664 32.5694 8.92484C32.7013 9.04305 32.7763 9.21124 32.7763 9.38855V19.3768C32.7763 19.695 32.5353 19.9632 32.2193 19.9996C28.2322 20.4292 24.6134 21.5317 21.7561 23.182C20.1467 24.1095 18.8305 25.1983 17.8485 26.419C17.7303 26.5667 17.553 26.6508 17.3621 26.6508L17.3643 26.6486ZM31.5283 10.0887C27.8163 10.5706 24.4498 11.6367 21.7583 13.1915C18.6305 14.9987 16.6506 17.3605 16.1846 19.845C15.855 21.5999 16.2755 23.3775 17.4007 25.0255C18.4032 23.9322 19.658 22.9502 21.1332 22.0977C24.0065 20.4383 27.5912 19.3086 31.5283 18.8199V10.0887Z" fill="#404040"/>
<path d="M54.1516 50.0444C53.8061 50.0444 53.5265 49.7648 53.5265 49.4192V39.431C53.5265 39.0855 53.8061 38.8059 54.1516 38.8059C54.4971 38.8059 54.7744 39.0855 54.7744 39.431V49.4192C54.7744 49.7648 54.4949 50.0444 54.1516 50.0444Z" fill="#404040"/>
<path d="M45.6767 52.0723C45.3334 52.0723 45.0538 51.7927 45.0538 51.4494V41.4612C45.0538 41.118 45.3334 40.8384 45.6767 40.8384C46.0199 40.8384 46.3018 41.118 46.3018 41.4612V51.4494C46.3018 51.7927 46.0222 52.0723 45.6767 52.0723Z" fill="#404040"/>
<path d="M67.8273 42.1472C67.4841 42.1472 67.2045 41.8676 67.2045 41.5244V31.5362C67.2045 31.1929 67.4841 30.9133 67.8273 30.9133C68.1706 30.9133 68.4524 31.1929 68.4524 31.5362V41.5244C68.4524 41.8676 68.1728 42.1472 67.8273 42.1472Z" fill="#404040"/>
<path d="M26.3232 52.0646C25.9799 52.0646 25.7003 51.785 25.7003 51.4417V41.4535C25.7003 41.1103 25.9799 40.8307 26.3232 40.8307C26.6664 40.8307 26.9483 41.1103 26.9483 41.4535V51.4417C26.9483 51.785 26.6687 52.0646 26.3232 52.0646Z" fill="#404040"/>
<path d="M17.8495 50.0306C17.504 50.0306 17.2244 49.751 17.2244 49.4055V39.4173C17.2244 39.0718 17.504 38.7922 17.8495 38.7922C18.195 38.7922 18.4746 39.0718 18.4746 39.4173V49.4055C18.4746 49.751 18.195 50.0306 17.8495 50.0306Z" fill="#404040"/>
<path d="M4.15832 42.127C3.81507 42.127 3.5332 41.8474 3.5332 41.5018V31.5159C3.5332 31.1704 3.8128 30.8908 4.15832 30.8908C4.50384 30.8908 4.78343 31.1704 4.78343 31.5159V41.5018C4.78343 41.8474 4.50384 42.127 4.15832 42.127Z" fill="#404040"/>
<path d="M65.0203 21.0544C65.0248 23.8549 67.7549 26.1735 71.3442 26.6418C71.3419 26.6418 71.3373 26.6418 71.3305 26.6395V15.4716C67.7435 15.9398 65.0157 18.2539 65.0203 21.0567V21.0544Z" fill="#404040"/>
<path d="M71.3726 27.267H71.3408C71.3136 27.267 71.2863 27.2647 71.2613 27.2625C67.2878 26.7419 64.4009 24.1323 64.3964 21.0568C64.3941 17.9789 67.2764 15.3693 71.2522 14.8511C71.4295 14.8261 71.609 14.8829 71.7454 15.0034C71.8818 15.1216 71.9569 15.2921 71.9569 15.4716V26.4123C71.9841 26.485 72 26.5623 72 26.6442C72 26.9897 71.7204 27.2693 71.3749 27.2693L71.3726 27.267ZM70.7043 16.2081C67.7288 16.8264 65.6398 18.7859 65.642 21.0545C65.6443 23.3186 67.7333 25.2803 70.7043 25.9031V16.2104V16.2081ZM69.761 24.4733C69.4177 24.4733 69.1359 24.1937 69.1359 23.8482C69.1359 23.5027 69.4155 23.2231 69.761 23.2231C70.1065 23.2231 70.3861 23.5027 70.3861 23.8482C70.3861 24.1937 70.1065 24.4733 69.761 24.4733Z" fill="#404040"/>
<path d="M56.5255 32.9044C53.0999 34.8843 52.1929 37.6348 54.1524 39.4306V44.8498C54.7184 44.1587 55.4912 43.4882 56.5255 42.8926C59.9534 40.915 64.7179 40.3899 67.8276 41.5219V31.5337C64.7179 30.4039 59.9534 30.9268 56.5255 32.9044Z" fill="#CBE8CA"/>
<path d="M54.1525 45.475C54.082 45.475 54.0093 45.4637 53.9411 45.441C53.6933 45.35 53.5274 45.1159 53.5274 44.8522V39.6944C52.7613 38.8966 52.4158 37.9327 52.5295 36.8962C52.7091 35.2413 54.0184 33.632 56.212 32.3658C58.4624 31.0679 61.3334 30.3223 64.0907 30.3223C65.5478 30.3223 66.9139 30.5382 68.0414 30.9497C68.2869 31.0406 68.4529 31.2747 68.4529 31.5361V41.5243C68.4529 41.7289 68.3529 41.9199 68.1869 42.0358C68.021 42.1517 67.8073 42.179 67.6141 42.1085C66.623 41.7494 65.4046 41.5584 64.0907 41.5584C61.5448 41.5584 58.9011 42.2426 56.8371 43.4338C55.9346 43.9543 55.1936 44.5635 54.6344 45.2477C54.5117 45.3932 54.3344 45.475 54.1502 45.475H54.1525ZM64.093 31.5702C61.547 31.5702 58.9034 32.2544 56.8394 33.4456C55.0231 34.4935 53.907 35.7983 53.7729 37.0303C53.6933 37.7555 53.9638 38.4101 54.5753 38.9693C54.7049 39.0898 54.7776 39.2557 54.7776 39.4308V43.3474C55.2095 42.9905 55.6891 42.6563 56.2142 42.354C58.4647 41.0561 61.3356 40.3105 64.093 40.3105C65.2068 40.3105 66.2638 40.4378 67.2049 40.681V31.9885C66.2956 31.7157 65.2295 31.5725 64.093 31.5725V31.5702Z" fill="#404040"/>
<path d="M67.8265 31.5365V41.5247C69.3655 39.9653 70.5429 38.3264 71.3431 36.6306V26.6424C70.5429 28.3382 69.3655 29.9794 67.8265 31.5365Z" fill="#404040"/>
<path d="M67.8265 42.1473C67.7492 42.1473 67.6674 42.1336 67.5901 42.1018C67.3559 42.004 67.2036 41.7767 67.2036 41.5244V31.5362C67.2036 31.3725 67.2673 31.2134 67.3832 31.0975C68.8653 29.5949 70.0064 28.006 70.7793 26.3762C70.902 26.1125 71.193 25.9715 71.4794 26.0352C71.7636 26.0988 71.9659 26.3511 71.9659 26.6421V36.6303C71.9659 36.7235 71.9477 36.8144 71.9068 36.8963C71.0771 38.6534 69.8541 40.3583 68.272 41.9631C68.1515 42.0859 67.9901 42.1495 67.8265 42.1495V42.1473ZM68.4516 31.7908V39.9196C69.3904 38.808 70.1496 37.6601 70.7179 36.4894V29.0016C70.0791 29.9586 69.3222 30.8906 68.4516 31.7931V31.7908Z" fill="#404040"/>
</svg>
