<svg width="72" height="54" viewBox="0 0 72 54" fill="none" xmlns="http://www.w3.org/2000/svg">
<path d="M71.3282 27.6033V16.4353C70.528 14.7395 69.346 13.0983 67.8048 11.5412C64.6951 12.671 59.9329 12.1436 56.5027 10.1614C55.4593 9.55902 54.6796 8.88619 54.1113 8.19061V3.63749C51.4154 2.74641 48.574 2.06447 45.6393 1.60302C44.8278 3.67158 40.8157 5.24687 35.9625 5.24687C31.1116 5.24459 27.0927 3.66703 26.2835 1.59619C23.3511 2.05764 20.5097 2.73731 17.8114 3.62611V8.19513C17.2454 8.88617 16.4703 9.5545 15.436 10.1523C12.0104 12.13 7.24587 12.655 4.13393 11.523C2.59729 13.0801 1.41978 14.7213 0.619629 16.4148V29.7309C0.619629 29.7309 0.628733 29.7332 0.631006 29.7332V37.5756C1.43115 39.2691 2.61319 40.9125 4.15438 42.4674C7.26178 41.3399 12.0263 41.865 15.4587 43.8472C16.4976 44.4496 17.2795 45.1247 17.8455 45.818V50.3734C20.5438 51.2645 23.3852 51.9464 26.3176 52.4101C27.1291 50.3416 31.1389 48.7617 35.9943 48.7663C40.8475 48.7663 44.8642 50.3438 45.6734 52.4169C48.6058 51.9555 51.4472 51.2736 54.1477 50.387V45.8203C54.7137 45.1292 55.4866 44.4587 56.5209 43.8631C59.9488 41.8855 64.7133 41.3604 67.823 42.4924C69.3619 40.933 70.5394 39.2941 71.3395 37.5983V27.6101C71.3395 27.6101 71.3327 27.6101 71.3259 27.6078L71.3282 27.6033ZM52.9702 28.6739C52.9702 28.6739 52.9748 28.6762 52.9748 28.6785C52.9498 28.6967 52.9248 28.7171 52.8998 28.7353C52.652 28.9444 52.3792 29.1445 52.1087 29.3468C52.0041 29.4241 51.9109 29.5059 51.8018 29.5809C51.3995 29.8628 50.9721 30.1378 50.5175 30.3992C42.4978 35.0296 29.4863 35.0251 21.4599 30.3901C20.9984 30.1242 20.5688 29.8469 20.1642 29.5627C20.0664 29.4945 19.98 29.4195 19.8846 29.3513C19.5981 29.1422 19.314 28.9285 19.0549 28.7103C19.0299 28.6921 19.0071 28.6739 18.9821 28.6535C18.9844 28.6535 18.9867 28.6512 18.9889 28.6489C18.3684 28.1147 17.8205 27.5601 17.3591 26.9872C18.3456 25.762 19.6891 24.6095 21.4394 23.6003C29.4591 18.9699 42.4683 18.9744 50.497 23.6116C52.2542 24.6255 53.6044 25.7825 54.5933 27.0123C54.1341 27.5851 53.5862 28.1397 52.9657 28.6717L52.9702 28.6739Z" fill="#92E490"/>
<path d="M45.6766 53.0356C45.4243 53.0356 45.1902 52.8833 45.097 52.64C44.481 51.0625 41.0826 49.3849 35.9976 49.3849C30.9125 49.3849 27.5187 51.0579 26.9027 52.6332C26.7959 52.9037 26.5163 53.0629 26.2253 53.0219C23.2657 52.5537 20.381 51.8626 17.6533 50.9625C17.3987 50.8784 17.2259 50.6397 17.2259 50.3692V46.0434C16.6872 45.4273 15.9893 44.8704 15.1528 44.384C13.082 43.1883 10.4338 42.5041 7.88556 42.5041C6.57396 42.5041 5.36008 42.695 4.37126 43.0519C4.14622 43.1315 3.88708 43.0769 3.71659 42.9042C2.12766 41.3016 0.900182 39.5945 0.0727563 37.8373C0.0318396 37.7532 0.0113768 37.6623 0.0113768 37.5691V29.8427C0.00455739 29.804 0 29.7654 0 29.7245V16.4084C0 16.3174 0.0204605 16.2265 0.0591041 16.1424C0.888803 14.383 2.11175 12.6804 3.69386 11.0756C3.86435 10.9028 4.12349 10.8437 4.35081 10.9278C5.3419 11.2892 6.56031 11.4802 7.87419 11.4802C10.4178 11.4802 13.0638 10.796 15.1255 9.60484C15.9552 9.12521 16.6463 8.57511 17.1873 7.95908V3.61736C17.1873 3.34686 17.36 3.10818 17.6169 3.02407C20.3492 2.12618 23.2316 1.43741 26.1889 0.971416C26.4822 0.925953 26.7618 1.08962 26.8663 1.36013C27.4824 2.93315 30.8785 4.61073 35.9658 4.61528C41.0485 4.61528 44.4446 2.94223 45.0606 1.36922C45.1674 1.09871 45.4471 0.935055 45.738 0.980518C48.7022 1.44879 51.5891 2.13982 54.31 3.03999C54.5646 3.12409 54.7397 3.36277 54.7397 3.63328V7.95908C55.2807 8.57738 55.9785 9.13428 56.8151 9.61846C58.8859 10.8141 61.5318 11.5006 64.08 11.5006C65.3916 11.5006 66.6055 11.3097 67.592 10.9505C67.8193 10.871 68.0762 10.9255 68.249 11.0983C69.8402 12.7054 71.0631 14.4103 71.8928 16.1674C71.9338 16.2515 71.9542 16.3424 71.9542 16.4334V27.4354C71.9633 27.4899 71.9656 27.5445 71.9656 27.6036V37.5918C71.9656 37.685 71.9474 37.7759 71.9065 37.8578C71.0768 39.6149 69.8538 41.3198 68.2717 42.9246C68.099 43.0974 67.8421 43.1565 67.6148 43.0724C66.6237 42.7132 65.4053 42.5223 64.0914 42.5223C61.5455 42.5223 58.9018 43.2065 56.8378 44.3976C56.0104 44.875 55.3171 45.4273 54.7761 46.0434V50.3828C54.7761 50.6533 54.6033 50.892 54.3487 50.9761C51.6187 51.8717 48.734 52.5628 45.7766 53.0288C45.7448 53.0333 45.713 53.0333 45.6789 53.0333L45.6766 53.0356ZM35.9839 48.137C40.7712 48.1392 44.7674 49.5918 46.0312 51.7217C48.609 51.2944 51.1277 50.692 53.5258 49.9305V45.8161C53.5258 45.6706 53.5758 45.5319 53.6668 45.4205C54.3214 44.6204 55.1784 43.9134 56.2104 43.3179C58.4608 42.0199 61.3318 41.2743 64.0891 41.2743C65.3826 41.2743 66.6055 41.4471 67.6511 41.7721C68.965 40.3901 69.997 38.9398 70.7154 37.4532V27.7286C70.7063 27.6877 70.7017 27.6445 70.7017 27.6013V16.5766C69.9834 15.0922 68.9491 13.6397 67.6284 12.2553C66.5873 12.5781 65.3689 12.7486 64.0778 12.7486C61.3182 12.7486 58.4426 12.003 56.1899 10.7005C55.1443 10.0981 54.2828 9.38434 53.6281 8.58192C53.5372 8.47054 53.4894 8.33188 53.4894 8.1864V4.08791C51.0981 3.32186 48.5795 2.7172 45.9949 2.28758C44.7265 4.41752 40.7348 5.8655 35.9703 5.8655C31.1899 5.86095 27.1937 4.41069 25.9298 2.27848C23.3521 2.70583 20.8357 3.30822 18.4352 4.07427V8.18867C18.4352 8.33415 18.3852 8.47282 18.2943 8.58647C17.6396 9.38208 16.7827 10.0913 15.7484 10.6869C13.5002 11.9848 10.6292 12.7281 7.87191 12.7281C6.57622 12.7281 5.35555 12.5599 4.30763 12.2326C2.99375 13.6124 1.96627 15.0626 1.24568 16.5493V29.6108C1.25477 29.6517 1.25706 29.6881 1.25706 29.729V37.4304C1.97764 38.9148 3.01193 40.3673 4.33263 41.7471C5.37373 41.4244 6.59214 41.2539 7.88329 41.2539C10.6452 41.2539 13.5207 41.9995 15.7756 43.3042C16.8213 43.9089 17.6828 44.6204 18.3329 45.4205C18.4239 45.5296 18.4739 45.6706 18.4739 45.8115V49.9123C20.8698 50.6806 23.3861 51.2853 25.9684 51.7126C27.2346 49.5849 31.2217 48.1347 35.9839 48.1347V48.137ZM36.0044 34.4958C30.4034 34.4958 25.1297 33.2296 21.1471 30.9338C20.6697 30.6587 20.2265 30.3746 19.8059 30.0768C19.7423 30.0359 19.6786 29.9859 19.6173 29.9381C19.2172 29.6403 18.9194 29.4176 18.6512 29.188C18.6285 29.1698 18.608 29.1471 18.5853 29.1244H18.583C17.926 28.5606 17.3509 27.9764 16.8736 27.3831C16.6894 27.1535 16.6917 26.8285 16.8736 26.5989C17.951 25.2577 19.3854 24.0711 21.1289 23.0641C25.0978 20.7728 30.3624 19.5112 35.9544 19.5112C41.5463 19.5112 46.8291 20.7774 50.8094 23.0755C52.562 24.0848 53.9986 25.2782 55.0806 26.6262C55.2625 26.8535 55.2648 27.1785 55.0806 27.4058C54.626 27.9741 54.0782 28.5379 53.4485 29.0857C53.4235 29.1175 53.394 29.1425 53.3644 29.1675C53.0439 29.4335 52.762 29.6426 52.4802 29.8517L52.1642 30.0927C51.7414 30.386 51.3027 30.6701 50.8298 30.9451C46.8609 33.2365 41.5963 34.4981 36.0021 34.4981L36.0044 34.4958ZM19.4604 28.2378C19.7468 28.4742 20.0014 28.6629 20.256 28.8493C20.2606 28.8516 20.3902 28.9493 20.3947 28.9539L20.522 29.0516C20.9152 29.3289 21.3289 29.5949 21.7722 29.8495C25.5684 32.0408 30.6216 33.2456 36.0044 33.2456C41.3872 33.2456 46.4245 32.0431 50.207 29.8609C50.6457 29.6063 51.0572 29.3403 51.4459 29.0698L51.7391 28.8448C52.0005 28.6515 52.2597 28.4583 52.4984 28.2583C52.5165 28.2378 52.537 28.2174 52.5597 28.1992C53.0144 27.8082 53.4235 27.4104 53.7759 27.0126C52.8348 25.9465 51.6277 24.985 50.1866 24.153C46.3927 21.9639 41.3395 20.7569 35.9544 20.7569C30.5693 20.7569 25.5343 21.9594 21.754 24.1439C20.3174 24.9713 19.1172 25.9283 18.1784 26.9876C18.5375 27.3899 18.9444 27.7877 19.3968 28.1742C19.4195 28.1946 19.44 28.2151 19.4581 28.2355L19.4604 28.2378Z" fill="#404040"/>
<path d="M56.5261 33.8687C59.954 31.8911 64.7185 31.3682 67.8282 32.498C69.3671 30.9409 70.5446 29.2997 71.3447 27.6039C67.7554 27.1356 65.0254 24.8193 65.0208 22.0165C65.0163 19.2137 67.7463 16.8997 71.3311 16.4314C70.5309 14.7356 69.3489 13.0944 67.8077 11.5373C64.6981 12.6671 59.9358 12.1397 56.5056 10.1575C53.0732 8.17758 52.1616 5.42708 54.1143 3.63357C51.4183 2.74249 48.5769 2.06055 45.6423 1.5991C44.8307 3.66766 40.8186 5.24295 35.9655 5.24295C31.1146 5.24067 27.0956 3.66312 26.2864 1.59229C23.354 2.05373 20.5126 2.7334 17.8144 3.6222C19.7761 5.42026 18.8669 8.17078 15.4389 10.1484C12.0133 12.1261 7.2488 12.6511 4.13686 11.5191C2.60022 13.0762 1.42271 14.7174 0.622559 16.4109C4.20959 16.8815 6.94192 19.1955 6.94647 22.0006C6.94874 24.8011 4.22096 27.1175 0.633935 27.5857C1.43408 29.2792 2.61612 30.9227 4.15731 32.4798C7.26471 31.3501 12.0292 31.8751 15.4617 33.8573C18.8919 35.8395 19.8034 38.5878 17.8485 40.3836C20.5467 41.2746 23.3881 41.9566 26.3205 42.418C27.132 40.3494 31.1418 38.7719 35.9973 38.7764C40.8504 38.7764 44.8671 40.354 45.6764 42.4271C48.6087 41.9657 51.4502 41.286 54.1507 40.3995C52.1912 38.6014 53.0982 35.8509 56.5238 33.8733L56.5261 33.8687ZM21.4628 30.3931C13.434 25.7558 13.4249 18.2454 21.4446 13.615C29.4643 8.98456 42.4735 8.98909 50.5022 13.624C58.531 18.259 58.5378 25.7695 50.5204 30.3999C42.5008 35.0303 29.4893 35.0257 21.4628 30.3908V30.3931Z" fill="white"/>
<path d="M45.6781 43.0497C45.4257 43.0497 45.1916 42.8928 45.0984 42.6519C44.4824 41.0743 41.084 39.399 35.999 39.3967C30.9139 39.3967 27.5201 41.0697 26.9041 42.645C26.7973 42.9178 26.5177 43.0792 26.2267 43.0337C23.2671 42.5677 20.3825 41.8767 17.6547 40.9743C17.4456 40.9038 17.2887 40.7288 17.2387 40.5128C17.1933 40.2969 17.2637 40.0718 17.4274 39.9195C18.0366 39.3603 18.3048 38.7102 18.2275 37.9874C18.0911 36.7553 16.9727 35.446 15.1542 34.3958C13.0834 33.2001 10.4352 32.5136 7.88698 32.5136C6.57538 32.5136 5.3615 32.7045 4.37268 33.0614C4.14764 33.1455 3.8885 33.0887 3.71801 32.9137C2.12908 31.3111 0.901604 29.6063 0.0741786 27.8468C-0.012201 27.6673 -0.00539372 27.4581 0.0900785 27.2808C0.185551 27.1058 0.358323 26.9876 0.55836 26.9603C3.90216 26.5284 6.32761 24.4371 6.32761 21.9958C6.32306 19.5544 3.89306 17.4654 0.546983 17.0244C0.351493 16.9994 0.176449 16.8812 0.080977 16.7039C-0.0144952 16.5311 -0.0190315 16.3197 0.0628018 16.1401C0.892501 14.3807 2.11545 12.6781 3.69756 11.0733C3.86805 10.9005 4.12719 10.8414 4.35451 10.9255C5.3456 11.287 6.564 11.4779 7.87788 11.4779C10.4215 11.4779 13.0675 10.7937 15.1292 9.60256C16.9455 8.55464 18.0616 7.24758 18.1957 6.01781C18.2753 5.2904 18.0048 4.64028 17.3933 4.07654C17.2296 3.92652 17.1592 3.70374 17.2046 3.48552C17.2501 3.26957 17.4092 3.09454 17.6183 3.02407C20.3506 2.12618 23.233 1.43741 26.1904 0.971416C26.4836 0.925953 26.7632 1.08962 26.8678 1.36013C27.4838 2.93315 30.8799 4.61073 35.9672 4.61528C41.0499 4.61528 44.446 2.94223 45.062 1.36922C45.1689 1.09871 45.4485 0.935055 45.7394 0.980518C48.7036 1.44879 51.5905 2.13982 54.3115 3.03999C54.5206 3.10818 54.6797 3.28321 54.7274 3.50143C54.7729 3.71965 54.7002 3.94243 54.5388 4.09246C53.9296 4.65165 53.6591 5.30405 53.7386 6.02691C53.875 7.25895 54.998 8.56827 56.8165 9.61846C58.8873 10.8141 61.5333 11.5006 64.0815 11.5006C65.3931 11.5006 66.6069 11.3097 67.5935 10.9505C67.8208 10.871 68.0776 10.9255 68.2504 11.0983C69.8416 12.7054 71.0646 14.4103 71.8943 16.1674C71.9806 16.347 71.9738 16.5584 71.8784 16.7312C71.7806 16.9085 71.6101 17.0267 71.4101 17.0517C68.0663 17.4881 65.6408 19.5749 65.6431 22.0162C65.6454 24.4576 68.0777 26.5489 71.4237 26.9853C71.6215 27.0103 71.7942 27.1285 71.892 27.3058C71.9874 27.4809 71.9943 27.6923 71.9079 27.8718C71.0782 29.629 69.8553 31.3339 68.2731 32.9387C68.1004 33.1115 67.8435 33.1683 67.6162 33.0887C66.6251 32.7273 65.4067 32.5363 64.0928 32.5363C61.5469 32.5363 58.9032 33.2206 56.8392 34.4117C55.023 35.4596 53.9068 36.7644 53.7727 37.9965C53.6932 38.7216 53.9637 39.3762 54.5752 39.9354C54.7388 40.0855 54.8093 40.3105 54.7638 40.5287C54.7161 40.7469 54.5592 40.9197 54.3478 40.9902C51.6178 41.8835 48.7332 42.5768 45.7758 43.0428C45.744 43.0474 45.7122 43.0519 45.6781 43.0519V43.0497ZM35.9854 38.1487C40.7726 38.1487 44.7688 39.6036 46.0327 41.7335C48.4467 41.3357 50.8063 40.7788 53.0681 40.0855C52.6271 39.4149 52.443 38.6602 52.5316 37.8578C52.7112 36.2029 54.0205 34.5935 56.2141 33.3274C58.4645 32.0294 61.3355 31.2838 64.0928 31.2838C65.3862 31.2838 66.6092 31.4543 67.6548 31.7794C68.7891 30.5882 69.7098 29.3449 70.4031 28.0764C66.8797 27.3195 64.3997 24.869 64.3951 22.0185C64.3929 19.1657 66.8661 16.7175 70.3894 15.9606C69.6961 14.6899 68.7687 13.4487 67.6298 12.2531C66.5887 12.5758 65.3703 12.7463 64.0792 12.7463C61.3196 12.7463 58.4441 12.0007 56.1914 10.6982C53.991 9.42752 52.6794 7.81814 52.4975 6.16102C52.4088 5.36087 52.593 4.60618 53.0317 3.94015C50.779 3.24456 48.4172 2.68765 45.9963 2.2853C44.7279 4.41524 40.7362 5.86322 35.9717 5.86322C31.1913 5.85867 27.1951 4.40841 25.9312 2.2762C23.5171 2.67627 21.1576 3.23092 18.8981 3.92651C19.3391 4.59481 19.5232 5.35177 19.4346 6.15191C19.255 7.80677 17.9457 9.41617 15.7498 10.6823C13.5017 11.9803 10.6307 12.7236 7.87333 12.7236C6.57764 12.7236 5.35697 12.5554 4.30905 12.228C3.17703 13.4192 2.25638 14.6603 1.56307 15.9333C5.08645 16.6902 7.56874 19.143 7.57101 21.9935C7.57101 24.844 5.09783 27.2922 1.57445 28.0469C2.26776 29.3198 3.19293 30.5632 4.33405 31.7544C5.37516 31.4316 6.59356 31.2611 7.88471 31.2611C10.6466 31.2611 13.5221 32.009 15.7771 33.3115C17.9775 34.5822 19.2868 36.1916 19.4709 37.8487C19.5573 38.6466 19.3732 39.4013 18.9345 40.0696C21.194 40.7697 23.5535 41.3243 25.9699 41.7244C27.236 39.5967 31.2231 38.1465 35.9854 38.1465V38.1487ZM36.0058 34.4958C30.4048 34.4958 25.1311 33.2296 21.1485 30.9338C17.0614 28.5742 14.8087 25.3987 14.8087 21.9958C14.8087 18.5929 17.0546 15.4286 21.1326 13.0759C25.1015 10.7823 30.3661 9.52301 35.9581 9.52301C41.55 9.52301 46.8328 10.7869 50.8131 13.085C54.9002 15.4445 57.1529 18.6179 57.1529 22.0208C57.1529 25.4191 54.9093 28.5879 50.8335 30.9429C46.8646 33.2342 41.6 34.4958 36.0058 34.4958ZM35.9581 10.7687C30.5821 10.7687 25.538 11.9712 21.7577 14.1557C18.0821 16.2765 16.0589 19.0611 16.0589 21.9935C16.0589 24.9259 18.0889 27.7241 21.7736 29.8517C25.5675 32.0408 30.6207 33.2456 36.0058 33.2456C41.3909 33.2456 46.4259 32.0431 50.2084 29.8609C53.8818 27.7377 55.9072 24.9531 55.9049 22.0185C55.9049 19.0793 53.8773 16.2902 50.1925 14.1648C46.3986 11.9734 41.3454 10.7664 35.9604 10.7664L35.9581 10.7687Z" fill="#404040"/>
<path d="M32.1507 10.3521C28.2272 10.7771 24.4788 11.8614 21.4419 13.614C15.1771 17.2306 13.8359 22.5998 17.3616 26.9892C18.3481 25.764 19.6916 24.6115 21.4419 23.6022C24.4766 21.8519 28.225 20.7654 32.1507 20.3403V10.3521Z" fill="#404040"/>
<path d="M17.3643 27.6123C17.1757 27.6123 16.9961 27.5259 16.8779 27.3804C15.1821 25.2687 14.5161 22.9183 14.9571 20.5792C15.4981 17.69 17.6326 15.0941 21.1332 13.0755C24.1406 11.3366 27.9277 10.1818 32.0852 9.73173C32.2625 9.709 32.4376 9.77039 32.5694 9.88859C32.7013 10.0068 32.7763 10.175 32.7763 10.3523V20.3405C32.7763 20.6588 32.5353 20.927 32.2193 20.9634C28.2322 21.393 24.6134 22.4955 21.7561 24.1458C20.1467 25.0732 18.8305 26.162 17.8485 27.3827C17.7303 27.5305 17.553 27.6146 17.3621 27.6146L17.3643 27.6123ZM31.5283 11.0524C27.8163 11.5343 24.4498 12.6005 21.7583 14.1553C18.6305 15.9624 16.6506 18.3242 16.1846 20.8088C15.855 22.5636 16.2755 24.3412 17.4007 25.9893C18.4032 24.8959 19.658 23.9139 21.1332 23.0615C24.0065 21.4021 27.5912 20.2723 31.5283 19.7836V11.0524Z" fill="#404040"/>
<path d="M54.1515 51.008C53.806 51.008 53.5264 50.7284 53.5264 50.3829V40.3946C53.5264 40.0491 53.806 39.7695 54.1515 39.7695C54.497 39.7695 54.7743 40.0491 54.7743 40.3946V50.3829C54.7743 50.7284 54.4947 51.008 54.1515 51.008Z" fill="#404040"/>
<path d="M45.6766 53.0361C45.3333 53.0361 45.0537 52.7565 45.0537 52.4133V42.4251C45.0537 42.0818 45.3333 41.8022 45.6766 41.8022C46.0198 41.8022 46.3017 42.0818 46.3017 42.4251V52.4133C46.3017 52.7565 46.0221 53.0361 45.6766 53.0361Z" fill="#404040"/>
<path d="M67.8274 43.1109C67.4842 43.1109 67.2046 42.8313 67.2046 42.488V32.4998C67.2046 32.1565 67.4842 31.877 67.8274 31.877C68.1707 31.877 68.4525 32.1565 68.4525 32.4998V42.488C68.4525 42.8313 68.1729 43.1109 67.8274 43.1109Z" fill="#404040"/>
<path d="M26.323 53.0283C25.9798 53.0283 25.7002 52.7487 25.7002 52.4055V42.4173C25.7002 42.074 25.9798 41.7944 26.323 41.7944C26.6663 41.7944 26.9482 42.074 26.9482 42.4173V52.4055C26.9482 52.7487 26.6686 53.0283 26.323 53.0283Z" fill="#404040"/>
<path d="M17.8495 50.9943C17.504 50.9943 17.2244 50.7147 17.2244 50.3692V40.381C17.2244 40.0355 17.504 39.7559 17.8495 39.7559C18.195 39.7559 18.4746 40.0355 18.4746 40.381V50.3692C18.4746 50.7147 18.195 50.9943 17.8495 50.9943Z" fill="#404040"/>
<path d="M4.15832 43.0906C3.81507 43.0906 3.5332 42.811 3.5332 42.4655V32.4796C3.5332 32.1341 3.8128 31.8545 4.15832 31.8545C4.50384 31.8545 4.78343 32.1341 4.78343 32.4796V42.4655C4.78343 42.811 4.50384 43.0906 4.15832 43.0906Z" fill="#404040"/>
<path d="M65.0205 22.0184C65.0251 24.8189 67.7551 27.1375 71.3444 27.6058C71.3421 27.6058 71.3376 27.6058 71.3308 27.6035V16.4355C67.7437 16.9038 65.016 19.2179 65.0205 22.0207V22.0184Z" fill="#404040"/>
<path d="M71.3728 28.2308H71.341C71.3137 28.2308 71.2864 28.2285 71.2614 28.2263C67.2879 27.7057 64.401 25.0961 64.3965 22.0206C64.3942 18.9427 67.2766 16.3332 71.2523 15.8149C71.4296 15.7899 71.6092 15.8467 71.7456 15.9672C71.8819 16.0854 71.957 16.2559 71.957 16.4354V27.3761C71.9843 27.4488 72.0002 27.5261 72.0002 27.608C72.0002 27.9535 71.7206 28.2331 71.375 28.2331L71.3728 28.2308ZM70.7045 17.1719C67.7289 17.7902 65.6399 19.7497 65.6422 22.0183C65.6444 24.2824 67.7335 26.2441 70.7045 26.8669V17.1742V17.1719ZM69.7611 25.4371C69.4179 25.4371 69.136 25.1575 69.136 24.812C69.136 24.4665 69.4156 24.1869 69.7611 24.1869C70.1066 24.1869 70.3862 24.4665 70.3862 24.812C70.3862 25.1575 70.1066 25.4371 69.7611 25.4371Z" fill="#404040"/>
<path d="M56.5254 33.8683C53.0998 35.8482 52.1928 38.5987 54.1522 40.3945V45.8136C54.7182 45.1226 55.4911 44.452 56.5254 43.8565C59.9533 41.8788 64.7178 41.3538 67.8275 42.4858V32.4976C64.7178 31.3678 59.9533 31.8906 56.5254 33.8683Z" fill="#92E490"/>
<path d="M54.1525 46.4389C54.082 46.4389 54.0093 46.4276 53.9411 46.4048C53.6933 46.3139 53.5274 46.0798 53.5274 45.8161V40.6583C52.7613 39.8604 52.4158 38.8966 52.5295 37.8601C52.7091 36.2052 54.0184 34.5958 56.212 33.3297C58.4624 32.0317 61.3334 31.2861 64.0907 31.2861C65.5478 31.2861 66.9139 31.5021 68.0414 31.9135C68.2869 32.0044 68.4529 32.2386 68.4529 32.5V42.4882C68.4529 42.6928 68.3529 42.8837 68.1869 42.9997C68.021 43.1156 67.8073 43.1429 67.6141 43.0724C66.623 42.7132 65.4046 42.5223 64.0907 42.5223C61.5448 42.5223 58.9011 43.2065 56.8371 44.3976C55.9346 44.9182 55.1936 45.5274 54.6344 46.2116C54.5117 46.3571 54.3344 46.4389 54.1502 46.4389H54.1525ZM64.093 32.5341C61.547 32.5341 58.9034 33.2183 56.8394 34.4094C55.0231 35.4574 53.907 36.7621 53.7729 37.9942C53.6933 38.7193 53.9638 39.374 54.5753 39.9332C54.7049 40.0536 54.7776 40.2196 54.7776 40.3946V44.3113C55.2095 43.9544 55.6891 43.6202 56.2142 43.3179C58.4647 42.0199 61.3356 41.2743 64.093 41.2743C65.2068 41.2743 66.2638 41.4016 67.2049 41.6449V32.9523C66.2956 32.6796 65.2295 32.5364 64.093 32.5364V32.5341Z" fill="#404040"/>
<path d="M67.8267 32.5005V42.4888C69.3656 40.9294 70.5431 39.2904 71.3432 37.5947V27.6064C70.5431 29.3022 69.3656 30.9434 67.8267 32.5005Z" fill="#404040"/>
<path d="M67.8265 43.1111C67.7492 43.1111 67.6674 43.0975 67.5901 43.0656C67.3559 42.9679 67.2036 42.7406 67.2036 42.4883V32.5001C67.2036 32.3364 67.2673 32.1773 67.3832 32.0613C68.8653 30.5588 70.0064 28.9699 70.7793 27.34C70.902 27.0763 71.193 26.9354 71.4794 26.9991C71.7636 27.0627 71.9659 27.315 71.9659 27.606V37.5942C71.9659 37.6874 71.9477 37.7783 71.9068 37.8601C71.0771 39.6173 69.8541 41.3221 68.272 42.927C68.1515 43.0497 67.9901 43.1134 67.8265 43.1134V43.1111ZM68.4516 32.7547V40.8834C69.3904 39.7719 70.1496 38.6239 70.7179 37.4533V29.9655C70.0791 30.9225 69.3222 31.8545 68.4516 32.7569V32.7547Z" fill="#404040"/>
</svg>
