<svg width="188" height="189" viewBox="0 0 188 189" fill="none" xmlns="http://www.w3.org/2000/svg">
<g clip-path="url(#clip0_101_693)">
<path d="M5.0742 105.358C3.83411 105.358 2.59292 105.079 1.62537 104.521C0.576816 103.916 0.00109863 103.072 0.00109863 102.145C0.00109863 101.218 0.576816 100.38 1.62208 99.7764C3.5561 98.6567 6.58573 98.6611 8.52084 99.7797C9.5683 100.383 10.144 101.226 10.144 102.152C10.144 103.078 9.57049 103.919 8.52522 104.521C7.55876 105.079 6.31867 105.358 5.07639 105.358H5.0742ZM5.06544 100.261C4.04973 100.261 3.03511 100.48 2.27879 100.916C1.66696 101.269 1.31562 101.717 1.31562 102.145C1.31562 102.573 1.66805 103.027 2.28208 103.382C3.79689 104.255 6.35369 104.253 7.86522 103.382C8.47706 103.029 8.82621 102.581 8.82621 102.153C8.82621 101.725 8.47487 101.274 7.86194 100.92C7.10453 100.481 6.08554 100.262 5.06544 100.262V100.261Z" fill="#2E2E2E"/>
<path d="M96.9634 188.533C96.6001 188.533 96.3056 188.239 96.3056 187.875L96.3002 180.752C96.3002 180.389 96.5946 180.095 96.958 180.095C97.3214 180.095 97.6158 180.389 97.6158 180.752L97.6213 187.875C97.6213 188.239 97.3268 188.533 96.9634 188.533Z" fill="#2E2E2E"/>
<path d="M103.13 184.975L90.7904 184.972C90.427 184.972 90.1326 184.677 90.1326 184.314C90.1326 183.951 90.427 183.656 90.7904 183.656L103.13 183.659C103.493 183.659 103.788 183.954 103.788 184.317C103.788 184.681 103.493 184.975 103.13 184.975Z" fill="#2E2E2E"/>
<path d="M182.686 73.6174C182.671 73.6174 182.654 73.6174 182.637 73.6152C182.368 73.5945 182.138 73.4117 182.058 73.1534C181.688 71.9581 181.086 70.6228 180.317 69.2941C179.554 67.9686 178.698 66.7789 177.841 65.8496C177.658 65.6504 177.614 65.3593 177.733 65.1163C177.849 64.8722 178.101 64.7332 178.375 64.7474C179.126 64.812 179.876 64.6303 180.56 64.2363C181.236 63.8478 181.768 63.2841 182.093 62.6055C182.209 62.3625 182.472 62.2213 182.735 62.2344C183.005 62.2541 183.235 62.438 183.316 62.6952C183.689 63.8981 184.291 65.2334 185.057 66.5567H185.059C185.825 67.8854 186.683 69.0752 187.537 69.9957C187.721 70.1938 187.764 70.4849 187.647 70.7279C187.531 70.9709 187.27 71.1143 187.005 71.0989C186.253 71.0377 185.496 71.2193 184.815 71.6112C184.139 71.9997 183.607 72.5634 183.28 73.242C183.168 73.4708 182.938 73.6142 182.686 73.6142V73.6174ZM179.667 65.9711C180.292 66.7657 180.899 67.6698 181.455 68.6374C182.015 69.606 182.494 70.5823 182.869 71.5149C183.234 71.1066 183.668 70.7553 184.16 70.4729C184.65 70.1905 185.171 69.9924 185.707 69.8807C185.086 69.0905 184.477 68.1864 183.919 67.2178C183.358 66.2502 182.88 65.2739 182.505 64.337C182.14 64.7453 181.705 65.0966 181.214 65.3779C180.723 65.6603 180.202 65.8595 179.667 65.97V65.9711Z" fill="#2E2E2E"/>
<path d="M73.312 8.43985C73.0855 8.43985 72.8633 8.32164 72.7418 8.1104C72.5601 7.79518 72.6685 7.39349 72.9837 7.2118L79.1557 3.65242C79.4742 3.47292 79.8737 3.57909 80.0554 3.89321C80.2371 4.20843 80.1287 4.61012 79.8135 4.79181L73.6415 8.35119C73.5375 8.41139 73.4237 8.43985 73.312 8.43985Z" fill="#2E2E2E"/>
<path d="M79.4851 12.0003C79.2585 12.0003 79.0374 11.8832 78.9159 11.6709L72.7417 0.987281C72.559 0.673154 72.6662 0.27037 72.9814 0.0886799C73.2879 -0.0930104 73.6962 0.0120635 73.8789 0.329474L80.0531 11.0131C80.237 11.3272 80.1287 11.73 79.8134 11.9117C79.7106 11.9719 79.5978 12.0003 79.484 12.0003H79.4851Z" fill="#2E2E2E"/>
<path d="M154.255 152.017L145.657 147.051V144.165L167.822 131.37L176.418 136.332V139.22L154.255 152.017Z" fill="white"/>
<path d="M154.255 152.675C154.142 152.675 154.027 152.645 153.926 152.587L145.327 147.621C145.124 147.503 144.998 147.285 144.998 147.051V144.166C144.998 143.932 145.122 143.714 145.327 143.596L167.491 130.801C167.694 130.685 167.946 130.685 168.149 130.801L176.745 135.763C176.949 135.881 177.075 136.099 177.075 136.333V139.221C177.075 139.455 176.95 139.673 176.745 139.791L154.582 152.588C154.482 152.646 154.367 152.676 154.253 152.676L154.255 152.675ZM146.314 146.67L154.255 151.257L175.76 138.839V136.712L167.822 132.128L146.315 144.545V146.669L146.314 146.67Z" fill="#2E2E2E"/>
<path d="M154.255 152.017L145.657 147.051V144.165L154.255 149.129V152.017Z" fill="#D0EACF"/>
<path d="M154.255 152.675C154.142 152.675 154.027 152.645 153.926 152.587L145.327 147.621C145.124 147.503 144.998 147.285 144.998 147.051V144.166C144.998 143.932 145.122 143.714 145.327 143.596C145.53 143.48 145.782 143.48 145.985 143.596L154.583 148.559C154.787 148.677 154.913 148.895 154.913 149.129V152.017C154.913 152.251 154.788 152.469 154.583 152.587C154.483 152.645 154.368 152.675 154.254 152.675H154.255ZM146.314 146.67L153.597 150.876V149.509L146.314 145.304V146.67Z" fill="#2E2E2E"/>
<path d="M154.255 149.13L176.418 136.332V139.22L154.255 152.017V149.13Z" fill="#2E2E2E"/>
<path d="M154.255 152.675C154.142 152.675 154.027 152.645 153.926 152.587C153.722 152.469 153.596 152.251 153.596 152.017V149.129C153.596 148.895 153.721 148.677 153.926 148.559L176.089 135.762C176.291 135.646 176.544 135.646 176.746 135.762C176.95 135.88 177.076 136.098 177.076 136.332V139.22C177.076 139.454 176.951 139.672 176.746 139.79L154.583 152.587C154.483 152.645 154.368 152.675 154.254 152.675H154.255ZM154.913 149.509V150.876L175.76 138.839V137.472L154.913 149.509Z" fill="#2E2E2E"/>
<path d="M55.0183 161.595H55.0161C55.0073 159.159 53.3918 156.725 50.1684 154.865C43.7141 151.136 33.2592 151.129 26.8201 154.847C23.5957 156.711 21.99 159.152 21.9999 161.595H21.9977V165.115H21.9999C22.0152 167.548 23.6307 169.978 26.8497 171.835C33.3041 175.564 43.7556 175.571 50.1969 171.853C53.417 169.995 55.0237 167.556 55.0194 165.115V161.595H55.0183Z" fill="#D0EACF"/>
<path d="M38.549 175.28C34.195 175.28 29.8377 174.322 26.5202 172.407C23.1995 170.489 21.3596 167.902 21.3421 165.119L21.3399 161.596C21.33 158.805 23.1601 156.203 26.4907 154.279C33.1016 150.458 43.8695 150.47 50.4968 154.295C53.8241 156.218 55.6629 158.809 55.6739 161.594L55.6761 161.596V165.116C55.6815 167.907 53.8526 170.503 50.5253 172.424C47.2253 174.328 42.8877 175.281 38.549 175.281V175.28ZM38.468 152.716C34.3658 152.716 30.2668 153.616 27.1485 155.419C24.2425 157.098 22.6467 159.291 22.6577 161.593L22.6555 165.116C22.6708 167.407 24.2787 169.594 27.177 171.266C33.4387 174.885 43.6188 174.892 49.8664 171.284C52.769 169.609 54.3648 167.42 54.3594 165.118V161.6C54.3495 159.303 52.7439 157.113 49.839 155.437C46.7021 153.625 42.5823 152.717 38.468 152.717V152.716Z" fill="#2E2E2E"/>
<path d="M55.0161 161.595C55.0074 159.159 53.3919 156.725 50.1685 154.865C49.4133 154.426 48.5924 154.053 47.7408 153.717V173.011C48.6044 172.675 49.4319 172.295 50.1959 171.853C53.4159 169.995 55.0227 167.556 55.0183 165.115V161.595H55.0161Z" fill="#2E2E2E"/>
<path d="M47.7408 173.669C47.6106 173.669 47.4803 173.629 47.3687 173.554C47.1903 173.43 47.083 173.229 47.083 173.011V153.717C47.083 153.499 47.1914 153.295 47.3709 153.174C47.5526 153.05 47.7791 153.025 47.9827 153.105C48.959 153.489 49.7821 153.88 50.5001 154.296C53.8263 156.216 55.6651 158.809 55.675 161.594V161.596L55.6772 165.116C55.6827 167.907 53.8537 170.503 50.5264 172.424C49.7755 172.858 48.9426 173.252 47.9805 173.626C47.9039 173.655 47.8229 173.671 47.7419 173.671L47.7408 173.669ZM48.3986 154.705V172.026C48.9295 171.789 49.4165 171.544 49.8675 171.284C52.7701 169.608 54.3659 167.418 54.3605 165.117L54.3583 161.597C54.3495 159.301 52.7461 157.113 49.8401 155.435C49.4089 155.183 48.9317 154.944 48.3986 154.705Z" fill="#2E2E2E"/>
<path d="M50.1957 168.343C56.6348 164.625 56.6228 158.589 50.1684 154.864C43.714 151.135 33.2591 151.128 26.8201 154.846C20.381 158.564 20.3942 164.599 26.8496 168.325C33.304 172.054 43.7556 172.061 50.1968 168.343H50.1957Z" fill="white"/>
<path d="M38.549 171.77C34.195 171.77 29.8377 170.812 26.5202 168.896C23.1808 166.969 21.342 164.367 21.342 161.573C21.3399 158.786 23.1699 156.196 26.4907 154.277C33.1016 150.459 43.8695 150.469 50.4968 154.294C53.8351 156.222 55.6749 158.824 55.6749 161.618C55.6749 164.412 53.8471 166.995 50.5241 168.914C47.2242 170.817 42.8866 171.771 38.5479 171.771L38.549 171.77ZM38.468 152.715C34.3657 152.715 30.2668 153.615 27.1485 155.417C24.2513 157.09 22.6555 159.275 22.6577 161.572C22.6577 163.877 24.2633 166.074 27.178 167.755C33.4398 171.373 43.6199 171.381 49.8674 167.772C52.7646 166.1 54.3604 163.913 54.3604 161.618C54.3604 159.323 52.7548 157.116 49.8401 155.435C46.7032 153.622 42.5834 152.715 38.4691 152.715H38.468Z" fill="#2E2E2E"/>
<path d="M44.709 165.176C48.1272 163.203 48.1206 160.001 44.6959 158.023C41.27 156.046 35.7241 156.042 32.307 158.014C28.8899 159.987 28.8965 163.192 32.3223 165.166C35.7471 167.144 41.293 167.151 44.709 165.176Z" fill="#D0EACF"/>
<path d="M38.5337 167.3C36.1674 167.3 33.7977 166.779 31.9929 165.737C30.1212 164.657 29.0924 163.183 29.0902 161.585C29.0902 159.991 30.1147 158.519 31.9776 157.443C35.5731 155.375 41.4254 155.379 45.0242 157.453C46.8959 158.535 47.9269 160.01 47.9269 161.607C47.9269 163.204 46.9002 164.67 45.0374 165.746C43.2445 166.782 40.8902 167.298 38.5326 167.298L38.5337 167.3ZM38.4856 157.189C36.3655 157.189 34.2476 157.654 32.6354 158.584C31.1972 159.414 30.4058 160.478 30.4058 161.584C30.4058 162.689 31.2048 163.762 32.6507 164.595C35.8905 166.468 41.1529 166.474 44.3796 164.605C45.8178 163.775 46.6102 162.709 46.6102 161.606C46.6102 160.503 45.8134 159.428 44.3653 158.594C42.7422 157.657 40.6122 157.188 38.4845 157.188L38.4856 157.189Z" fill="#2E2E2E"/>
<path d="M36.2615 156.725C34.8156 156.944 33.4398 157.359 32.307 158.014C28.8899 159.987 28.8965 163.192 32.3223 165.166C33.4529 165.821 34.8222 166.236 36.2615 166.458V156.725Z" fill="#2E2E2E"/>
<path d="M36.2615 167.116C36.2276 167.116 36.1947 167.113 36.1608 167.107C34.5344 166.856 33.1312 166.394 31.994 165.734C30.1223 164.656 29.0935 163.183 29.0913 161.584C29.0913 159.99 30.1158 158.518 31.9787 157.442C33.1213 156.782 34.53 156.321 36.163 156.073C36.36 156.046 36.545 156.103 36.6906 156.225C36.8361 156.35 36.9204 156.532 36.9204 156.724V166.457C36.9204 166.648 36.8361 166.832 36.6906 166.957C36.5702 167.06 36.418 167.115 36.2626 167.115L36.2615 167.116ZM35.6037 157.51C34.4556 157.747 33.4595 158.107 32.6354 158.583C31.1972 159.414 30.4058 160.48 30.4058 161.585C30.4058 162.691 31.2048 163.763 32.6507 164.596C33.4716 165.072 34.4621 165.432 35.6026 165.671V157.511L35.6037 157.51Z" fill="#2E2E2E"/>
<path d="M32.3223 165.166C35.747 167.144 41.293 167.151 44.709 165.176C45.6295 164.645 46.2785 164.021 46.7032 163.364C46.2763 162.696 45.6218 162.068 44.6947 161.534C41.2689 159.556 35.723 159.553 32.3059 161.524C31.3876 162.055 30.7363 162.678 30.3127 163.336C30.7374 164.004 31.3919 164.632 32.3212 165.166H32.3223Z" fill="white"/>
<path d="M38.5337 167.3C36.1674 167.3 33.7977 166.779 31.9929 165.737C31.0166 165.173 30.2635 164.486 29.759 163.689C29.6221 163.473 29.6221 163.195 29.7611 162.979C30.2668 162.192 31.0133 161.511 31.9786 160.955C35.5774 158.882 41.4309 158.888 45.0253 160.963C46.0005 161.526 46.7503 162.214 47.2592 163.009C47.3982 163.227 47.396 163.504 47.257 163.72C46.7459 164.508 46.0005 165.19 45.0385 165.747C43.2456 166.783 40.8913 167.3 38.5337 167.3ZM31.1249 163.337C31.5036 163.809 32.0159 164.23 32.6518 164.595C35.8916 166.468 41.154 166.474 44.3806 164.605C45.0056 164.245 45.5135 163.827 45.8933 163.36C45.5113 162.889 45.0001 162.467 44.3664 162.103C41.1332 160.233 35.8686 160.23 32.6354 162.093C32.0082 162.454 31.5025 162.872 31.1238 163.337H31.1249Z" fill="#2E2E2E"/>
<path d="M130.576 34.1764L118.86 40.9427V66.3487L96.8212 53.6238L85.1022 60.389C85.1022 81.8909 100.215 108.046 118.86 118.808C128.177 124.189 136.591 124.677 142.69 121.15L142.693 121.157L154.377 114.412L154.371 114.403C160.518 110.91 164.336 103.384 164.336 92.603C164.336 71.0978 149.22 44.9432 130.575 34.1753L130.576 34.1764Z" fill="#D0EACF"/>
<path d="M133.89 124.076C129.163 124.076 123.935 122.5 118.532 119.38C99.7359 108.53 84.4443 82.0682 84.4443 60.3912C84.4443 60.157 84.5691 59.9392 84.7738 59.821L96.4928 53.0557C96.6953 52.9375 96.9481 52.9375 97.1506 53.0557L118.203 65.2104V40.9438C118.203 40.7096 118.327 40.4917 118.532 40.3735L130.248 33.6072C130.45 33.489 130.703 33.489 130.906 33.6072C149.703 44.4627 164.994 70.9293 164.994 92.6051C164.994 103.201 161.376 111.119 154.804 114.916C154.774 114.942 154.741 114.965 154.707 114.985L143.022 121.729C142.995 121.746 142.965 121.759 142.934 121.771C140.235 123.311 137.184 124.076 133.89 124.076ZM85.7621 60.7699C85.9384 81.9565 100.865 107.664 119.19 118.241C127.971 123.312 136.199 124.145 142.362 120.583C142.389 120.567 142.419 120.554 142.447 120.542L153.945 113.906C153.976 113.878 154.01 113.854 154.046 113.832C160.257 110.305 163.678 102.766 163.678 92.6051C163.678 71.4743 148.858 45.7006 130.574 34.9381L119.518 41.3236V66.3509C119.518 66.5851 119.393 66.8029 119.189 66.9211C118.986 67.0393 118.733 67.0393 118.531 66.9211L96.8201 54.3867L85.761 60.7699H85.7621Z" fill="#2E2E2E"/>
<path d="M114.399 115.854C115.863 116.925 117.345 117.935 118.862 118.81C128.178 124.191 136.592 124.679 142.691 121.152L142.694 121.159L154.378 114.415L154.372 114.405C160.519 110.912 164.337 103.386 164.337 92.6051C164.337 90.8408 164.198 89.0337 164.001 87.2179L114.399 115.855V115.854Z" fill="#2E2E2E"/>
<path d="M133.89 124.076C129.163 124.076 123.935 122.5 118.532 119.38C117.142 118.578 115.706 117.627 114.01 116.386C113.83 116.253 113.73 116.041 113.742 115.819C113.754 115.597 113.878 115.396 114.07 115.285L163.671 86.6477C163.863 86.5349 164.099 86.5306 164.298 86.6302C164.498 86.7309 164.631 86.9246 164.655 87.1457C164.886 89.2811 164.994 91.017 164.994 92.6041C164.994 103.2 161.376 111.118 154.804 114.915C154.774 114.941 154.741 114.964 154.707 114.984L143.022 121.728C142.995 121.745 142.965 121.758 142.934 121.77C140.235 123.31 137.184 124.075 133.89 124.075V124.076ZM115.609 115.916C116.917 116.845 118.071 117.594 119.19 118.241C127.971 123.312 136.199 124.145 142.362 120.583C142.389 120.567 142.419 120.554 142.447 120.542L153.945 113.906C153.976 113.878 154.01 113.854 154.046 113.832C160.257 110.305 163.678 102.766 163.678 92.6052C163.678 91.3213 163.604 89.9334 163.448 88.296L115.608 115.916H115.609Z" fill="#2E2E2E"/>
<path d="M118.86 40.9437V79.8769L85.1022 60.3912C85.1022 81.893 100.215 108.048 118.86 118.81C137.503 129.576 152.617 120.871 152.617 99.3703C152.617 77.8696 137.503 51.7061 118.86 40.9437Z" fill="white"/>
<path d="M133.954 124.099C129.211 124.099 123.962 122.515 118.532 119.379C99.7359 108.529 84.4443 82.0671 84.4443 60.3901C84.4443 60.1559 84.5691 59.9381 84.7738 59.8198C84.9763 59.7016 85.2291 59.7016 85.4316 59.8198L118.203 78.7364V40.9438C118.203 40.7095 118.327 40.4917 118.532 40.3735C118.735 40.2553 118.987 40.2553 119.19 40.3735C137.984 51.2235 153.275 77.689 153.275 99.3692C153.275 110.005 149.653 117.953 143.073 121.751C140.358 123.32 137.28 124.098 133.954 124.098V124.099ZM85.7742 61.5382C86.3006 82.5738 101.088 107.79 119.19 118.24C128.001 123.326 136.251 124.17 142.415 120.612C148.569 117.059 151.959 109.515 151.959 99.3692C151.959 78.488 137.497 53.082 119.518 42.0985V79.8758C119.518 80.1101 119.393 80.3279 119.189 80.4461C118.986 80.5643 118.733 80.5643 118.531 80.4461L85.7731 61.5382H85.7742Z" fill="#2E2E2E"/>
<path d="M118.861 68.286V40.9427L125.556 37.079V25.487C116.23 20.1052 107.789 19.5908 101.681 23.1141L89.9739 29.8727C83.8599 33.3905 80.0817 40.9438 80.0817 51.6996L113.838 71.1865L118.861 68.2871V68.286Z" fill="#D0EACF"/>
<path d="M113.839 71.8432C113.726 71.8432 113.611 71.8136 113.509 71.7545L79.7533 52.2688C79.5497 52.1517 79.4238 51.9339 79.4238 51.6985C79.4238 41.0478 83.0543 33.0939 89.6455 29.3014L101.353 22.5438C107.942 18.7436 116.653 19.5886 125.885 24.9167C126.089 25.0338 126.215 25.2517 126.215 25.487V37.079C126.215 37.3144 126.09 37.5311 125.885 37.6493L119.519 41.3236V68.2871C119.519 68.5224 119.395 68.7391 119.19 68.8573L114.167 71.7567C114.066 71.8158 113.952 71.8454 113.838 71.8454L113.839 71.8432ZM80.7416 51.3198L113.839 70.4247L118.203 67.9062V40.9427C118.203 40.7085 118.327 40.4907 118.532 40.3725L124.898 36.6982V25.8679C116.214 20.9524 108.097 20.1731 102.01 23.6821L90.3034 30.4408C84.2134 33.9454 80.8259 41.351 80.7416 51.3187V51.3198Z" fill="#2E2E2E"/>
<path d="M113.839 32.2544C95.1959 21.4865 80.0828 30.1967 80.0828 51.6997L113.839 71.1865V32.2544Z" fill="white"/>
<path d="M113.839 71.8432C113.726 71.8432 113.611 71.8136 113.509 71.7545L79.7533 52.2688C79.5497 52.1517 79.4238 51.9339 79.4238 51.6985C79.4238 41.0598 83.0478 33.1092 89.628 29.3112C96.217 25.5067 104.929 26.3494 114.167 31.683C114.371 31.8002 114.497 32.018 114.497 32.2533V71.1843C114.497 71.4185 114.372 71.6363 114.167 71.7545C114.066 71.8136 113.952 71.8432 113.838 71.8432H113.839ZM80.7416 51.3198L113.181 70.0449V32.6353C104.495 27.7154 96.3768 26.9394 90.2869 30.4517C84.2091 33.9607 80.827 41.363 80.7427 51.3209L80.7416 51.3198Z" fill="#2E2E2E"/>
<path d="M118.861 40.9438L125.556 37.079V25.488L113.839 32.2544V71.1853L118.861 68.286V40.9438Z" fill="#2E2E2E"/>
<path d="M113.839 71.8432C113.726 71.8432 113.611 71.8136 113.509 71.7545C113.306 71.6374 113.18 71.4196 113.18 71.1843V32.2544C113.18 32.0202 113.305 31.8024 113.509 31.6841L125.226 24.9178C125.429 24.7996 125.682 24.7996 125.884 24.9178C126.088 25.0349 126.213 25.2527 126.213 25.4881V37.0801C126.213 37.3154 126.089 37.5322 125.884 37.6504L119.518 41.3247V68.2882C119.518 68.5235 119.394 68.7402 119.189 68.8584L114.166 71.7578C114.065 71.8169 113.95 71.8465 113.837 71.8465L113.839 71.8432ZM114.497 32.6331V70.046L118.203 67.9062V40.9427C118.203 40.7085 118.327 40.4906 118.532 40.3724L124.898 36.6981V26.6253L114.497 32.632V32.6331Z" fill="#2E2E2E"/>
<path d="M69.8863 101.784L47.951 89.1191L26.042 101.768V120.765L47.9751 133.429L69.8863 120.779V101.784Z" fill="#D0EACF"/>
<path d="M47.975 134.086C47.8623 134.086 47.7474 134.057 47.6456 133.999L25.7125 121.335C25.5089 121.218 25.3831 121 25.3831 120.765V101.768C25.3831 101.534 25.5078 101.316 25.7125 101.198L47.6215 88.5489C47.824 88.4307 48.0768 88.4307 48.2793 88.5489L70.2146 101.214C70.4182 101.331 70.544 101.548 70.544 101.784V120.778C70.544 121.012 70.4193 121.23 70.2146 121.348L48.3034 133.999C48.2027 134.057 48.0878 134.086 47.9739 134.086H47.975ZM26.6998 120.386L47.975 132.67L69.2284 120.4V102.165L47.951 89.8809L26.6998 102.149V120.386Z" fill="#2E2E2E"/>
<path d="M47.9751 114.432L26.042 101.768L47.951 89.1191L69.8863 101.784L47.9751 114.432Z" fill="white"/>
<path d="M47.975 115.09C47.8623 115.09 47.7474 115.06 47.6456 115.001L25.7125 102.339C25.5089 102.222 25.3831 102.004 25.3831 101.768C25.3831 101.533 25.5078 101.316 25.7125 101.198L47.6215 88.5489C47.824 88.4307 48.0768 88.4307 48.2793 88.5489L70.2146 101.214C70.4182 101.331 70.544 101.548 70.544 101.784C70.544 102.019 70.4193 102.236 70.2146 102.354L48.3034 115.001C48.2027 115.06 48.0878 115.09 47.9739 115.09H47.975ZM27.3576 101.768L47.975 113.671L68.5695 101.784L47.951 89.8787L27.3576 101.768Z" fill="#2E2E2E"/>
<path d="M47.9751 133.429V114.432L69.8863 101.784V120.779L47.9751 133.429Z" fill="#2E2E2E"/>
<path d="M47.9751 134.086C47.8623 134.086 47.7474 134.057 47.6456 133.999C47.442 133.881 47.3162 133.663 47.3162 133.429V114.432C47.3162 114.198 47.4409 113.98 47.6456 113.862L69.5568 101.215C69.7593 101.096 70.0121 101.096 70.2146 101.215C70.4182 101.332 70.5441 101.55 70.5441 101.785V120.779C70.5441 121.013 70.4193 121.231 70.2146 121.349L48.3034 134C48.2027 134.058 48.0878 134.087 47.974 134.087L47.9751 134.086ZM48.6329 114.812V132.289L69.2274 120.399V102.924L48.6329 114.812Z" fill="#2E2E2E"/>
<path d="M97.3029 100.729L75.3676 88.0662L53.4586 100.713V136.595L75.3917 149.258L97.3029 136.608V100.729Z" fill="#D0EACF"/>
<path d="M75.3917 149.915C75.2789 149.915 75.164 149.886 75.0622 149.828L53.1291 137.165C52.9256 137.047 52.7997 136.829 52.7997 136.595V100.713C52.7997 100.479 52.9245 100.261 53.1291 100.143L75.0381 87.4959C75.2406 87.3777 75.4935 87.3777 75.6959 87.4959L97.6312 100.158C97.8348 100.276 97.9607 100.493 97.9607 100.729V136.608C97.9607 136.842 97.8359 137.06 97.6312 137.178L75.72 149.828C75.6193 149.886 75.5044 149.915 75.3906 149.915H75.3917ZM54.1164 136.214L75.3917 148.498L96.6451 136.227V101.107L75.3687 88.8247L54.1175 101.092V136.213L54.1164 136.214Z" fill="#2E2E2E"/>
<path d="M75.3917 113.376L53.4586 100.713L75.3676 88.0662L97.3029 100.729L75.3917 113.376Z" fill="white"/>
<path d="M75.3917 114.035C75.2789 114.035 75.164 114.005 75.0622 113.946L53.1291 101.284C52.9256 101.166 52.7997 100.949 52.7997 100.713C52.7997 100.478 52.9245 100.261 53.1291 100.143L75.0381 87.4959C75.2406 87.3777 75.4935 87.3777 75.6959 87.4959L97.6312 100.158C97.8348 100.276 97.9607 100.493 97.9607 100.729C97.9607 100.964 97.8359 101.181 97.6312 101.299L75.72 113.946C75.6193 114.005 75.5044 114.035 75.3906 114.035H75.3917ZM54.7742 100.713L75.3917 112.616L95.9862 100.729L75.3676 88.8258L54.7742 100.713Z" fill="#2E2E2E"/>
<path d="M75.3917 149.258V113.376L97.3029 100.729V136.608L75.3917 149.258Z" fill="#2E2E2E"/>
<path d="M75.3917 149.915C75.279 149.915 75.164 149.886 75.0622 149.828C74.8587 149.71 74.7328 149.492 74.7328 149.257V113.376C74.7328 113.142 74.8576 112.924 75.0622 112.806L96.9734 100.158C97.1759 100.04 97.4288 100.04 97.6312 100.158C97.8348 100.276 97.9607 100.493 97.9607 100.729V136.608C97.9607 136.842 97.8359 137.06 97.6312 137.178L75.72 149.828C75.6194 149.886 75.5044 149.915 75.3906 149.915H75.3917ZM76.0495 113.756V148.118L96.644 136.228V101.868L76.0495 113.756Z" fill="#2E2E2E"/>
<path d="M124.72 106.004L102.784 93.3417L80.8752 105.991V152.423L102.808 165.085L124.72 152.438V106.004Z" fill="#D0EACF"/>
<path d="M102.808 165.743C102.696 165.743 102.581 165.714 102.479 165.656L80.5458 152.993C80.3422 152.875 80.2163 152.657 80.2163 152.423V105.991C80.2163 105.757 80.3411 105.539 80.5458 105.421L102.455 92.7716C102.657 92.6534 102.91 92.6534 103.113 92.7716L125.048 105.434C125.251 105.551 125.377 105.769 125.377 106.004V152.437C125.377 152.671 125.253 152.889 125.048 153.007L103.137 165.655C103.036 165.713 102.921 165.742 102.807 165.742L102.808 165.743ZM81.533 152.042L102.808 164.326L124.062 152.057V106.384L102.784 94.1015L81.533 106.37V152.042Z" fill="#2E2E2E"/>
<path d="M102.808 118.654L80.8752 105.991L102.784 93.3417L124.72 106.004L102.808 118.654Z" fill="white"/>
<path d="M102.808 119.311C102.696 119.311 102.581 119.282 102.479 119.223L80.5458 106.56C80.3422 106.443 80.2163 106.225 80.2163 105.99C80.2163 105.755 80.3411 105.538 80.5458 105.42L102.455 92.7704C102.657 92.6522 102.91 92.6522 103.113 92.7704L125.048 105.433C125.251 105.55 125.377 105.768 125.377 106.003C125.377 106.238 125.253 106.455 125.048 106.573L103.137 119.223C103.036 119.282 102.921 119.311 102.807 119.311H102.808ZM82.1908 105.99L102.808 117.893L123.403 106.003L102.784 94.1003L82.1908 105.99Z" fill="#2E2E2E"/>
<path d="M102.808 165.085V118.654L124.72 106.004V152.438L102.808 165.085Z" fill="#2E2E2E"/>
<path d="M102.808 165.743C102.696 165.743 102.581 165.714 102.479 165.656C102.275 165.537 102.149 165.32 102.149 165.085V118.654C102.149 118.418 102.274 118.202 102.479 118.083L124.39 105.434C124.593 105.316 124.845 105.316 125.048 105.434C125.251 105.551 125.377 105.769 125.377 106.004V152.437C125.377 152.671 125.253 152.889 125.048 153.007L103.137 165.654C103.036 165.712 102.921 165.742 102.807 165.742L102.808 165.743ZM103.466 119.033V163.946L124.061 152.057V107.144L103.466 119.033Z" fill="#2E2E2E"/>
<path d="M49.5741 70.9183C46.7415 72.5459 42.8275 72.3062 38.5085 69.8118C29.8607 64.8186 22.8471 52.6836 22.8481 42.7071C22.8481 37.7204 24.6048 34.2147 27.4418 32.5838L33.7682 28.9303C33.7682 28.9303 33.7715 28.9303 33.7736 28.9271L33.7791 28.9238C36.6128 27.2995 40.5235 27.5392 44.8447 30.0303C53.4947 35.0235 60.5051 47.1585 60.5051 57.135C60.5051 62.1249 58.7484 65.6274 55.9114 67.2582L49.5741 70.9183Z" fill="#D0EACF"/>
<path d="M45.5102 72.617C43.2467 72.617 40.7534 71.8673 38.1802 70.3809C29.3627 65.2903 22.1892 52.8751 22.1914 42.7071C22.1914 37.6372 23.9405 33.8393 27.1157 32.0125L33.4398 28.3601C33.454 28.3524 33.465 28.3459 33.4792 28.3382C36.6839 26.541 40.818 26.9482 45.1741 29.4601C53.9905 34.5496 61.1629 46.9636 61.1629 57.1339C61.1629 62.2048 59.4138 66.0028 56.2386 67.8285L49.9036 71.4875C49.9036 71.4875 49.9036 71.4875 49.9014 71.4875C48.5901 72.2416 47.1071 72.6159 45.5091 72.6159L45.5102 72.617ZM34.0976 29.4995L27.7713 33.153C25.0207 34.7346 23.5059 38.1276 23.5059 42.7071C23.5037 52.457 30.3828 64.3599 38.8369 69.2415C42.8023 71.5323 46.4985 71.9242 49.2468 70.3481L55.5819 66.6891C58.3325 65.1075 59.8473 61.7145 59.8473 57.135C59.8473 47.3828 52.9693 35.4799 44.5163 30.6006C40.5564 28.3185 36.8667 27.9223 34.1217 29.4863C34.1151 29.4918 34.1064 29.4962 34.0976 29.5006V29.4995Z" fill="#2E2E2E"/>
<path d="M55.9114 67.2582L49.5741 70.9183C46.7415 72.5459 42.8275 72.3062 38.5085 69.8118C36.8262 68.8387 35.2096 67.5942 33.6904 66.1484L59.7356 51.1108C60.2293 53.1564 60.5073 55.1857 60.5051 57.135C60.5051 62.1249 58.7484 65.6274 55.9114 67.2582Z" fill="#2E2E2E"/>
<path d="M45.508 72.617C43.2456 72.617 40.7512 71.8662 38.1791 70.3809C36.4946 69.4068 34.832 68.1426 33.2351 66.6245C33.0863 66.4811 33.0107 66.2764 33.0359 66.0707C33.06 65.8649 33.1804 65.6821 33.3599 65.5792L59.4051 50.5416C59.5835 50.4387 59.8013 50.4234 59.9928 50.5066C60.1844 50.5887 60.3256 50.7562 60.3737 50.9575C60.898 53.1313 61.164 55.2109 61.1618 57.1372C61.1618 62.207 59.4138 66.0039 56.2386 67.8296L49.9025 71.4896C48.5901 72.2449 47.106 72.6192 45.5069 72.6192L45.508 72.617ZM34.7937 66.271C36.1126 67.452 37.4698 68.4502 38.838 69.2415C42.8067 71.5323 46.4996 71.9242 49.2479 70.3481L55.583 66.6891C55.583 66.6891 55.583 66.6891 55.5852 66.6891C58.3335 65.1086 59.8484 61.7156 59.8484 57.1361C59.8505 55.5677 59.6634 53.8876 59.2913 52.1287L34.7948 66.2732L34.7937 66.271Z" fill="#2E2E2E"/>
<path d="M54.17 60.7918C54.1678 70.7684 47.1563 74.805 38.5085 69.8118C29.8607 64.8186 22.8471 52.6836 22.8481 42.7071C22.8503 32.7338 29.8596 28.6972 38.5085 33.6904C47.1585 38.6836 54.17 50.8185 54.17 60.7918Z" fill="white"/>
<path d="M45.5102 72.617C43.2478 72.617 40.7534 71.8673 38.1802 70.3809C29.3627 65.2903 22.1892 52.8752 22.1914 42.7071C22.1936 37.6427 23.9361 33.8469 27.1003 32.0202C30.2722 30.1923 34.4391 30.5798 38.838 33.1202C47.6554 38.2097 54.8289 50.6226 54.8289 60.7907C54.8267 65.8573 53.0842 69.6531 49.9178 71.4809C48.6022 72.2405 47.1147 72.617 45.5102 72.617ZM31.5102 32.2008C30.1322 32.2008 28.868 32.5182 27.757 33.1596C25.0175 34.7423 23.5059 38.132 23.5059 42.706C23.5037 52.456 30.3828 64.3589 38.8369 69.2404C42.8122 71.5367 46.5116 71.9253 49.2589 70.3393C52.0007 68.7567 53.5122 65.3658 53.5122 60.7896C53.5122 51.0408 46.6342 39.1378 38.1791 34.2585C35.8105 32.8914 33.5405 32.1997 31.5102 32.1997V32.2008Z" fill="#2E2E2E"/>
<path d="M51.9678 50.9422C51.7413 50.9422 51.5202 50.824 51.3976 50.6128C51.2159 50.2975 51.3243 49.8958 51.6395 49.7142L57.9757 46.0574C58.2942 45.8757 58.6915 45.984 58.8754 46.2982C59.057 46.6134 58.9487 47.0151 58.6335 47.1968L52.2973 50.8536C52.1922 50.9138 52.0795 50.9422 51.9678 50.9422ZM49.9977 46.771C49.7711 46.771 49.55 46.6528 49.4275 46.4415C49.2458 46.1274 49.3541 45.7246 49.6693 45.5429L56.0055 41.8829C56.3142 41.7023 56.7202 41.8073 56.9052 42.1237C57.0869 42.4378 56.9786 42.8406 56.6633 43.0223L50.3272 46.6823C50.2243 46.7425 50.1115 46.771 49.9977 46.771ZM47.546 42.8745C47.3194 42.8745 47.0983 42.7563 46.9757 42.5451C46.794 42.2298 46.9024 41.8281 47.2176 41.6465L53.5538 37.9897C53.8712 37.8102 54.2685 37.9163 54.4535 38.2305C54.6352 38.5457 54.5268 38.9474 54.2116 39.1291L47.8754 42.7858C47.7704 42.846 47.6576 42.8745 47.546 42.8745ZM44.5897 39.2724C44.3631 39.2724 44.142 39.1542 44.0194 38.943C43.8377 38.6289 43.9461 38.2261 44.2613 38.0444L50.5975 34.3843C50.9062 34.2048 51.3122 34.3077 51.4972 34.6251C51.6789 34.9392 51.5705 35.342 51.2553 35.5237L44.9191 39.1838C44.8162 39.244 44.7035 39.2724 44.5897 39.2724ZM41.015 36.0272C40.7884 36.0272 40.5673 35.909 40.4458 35.6977C40.2619 35.3836 40.3703 34.9808 40.6855 34.7991L47.0206 31.1391C47.3271 30.9585 47.7353 31.0635 47.9181 31.3799C48.102 31.694 47.9936 32.0968 47.6784 32.2785L41.3433 35.9385C41.2404 35.9987 41.1277 36.0272 41.0139 36.0272H41.015ZM36.4826 33.3303C36.256 33.3303 36.0349 33.2121 35.9123 33.0008C35.7306 32.6856 35.839 32.2839 36.1542 32.1022L42.4904 28.4454C42.8078 28.2649 43.2062 28.3721 43.3901 28.6862C43.5718 29.0015 43.4634 29.4031 43.1482 29.5848L36.812 33.2416C36.708 33.3018 36.5942 33.3303 36.4826 33.3303Z" fill="#2E2E2E"/>
<path d="M40.042 56.9227C40.0441 56.2134 39.8668 55.5414 39.5111 54.9044C39.1576 54.2707 38.5293 53.4925 37.6231 52.5709C35.9211 50.9258 34.6591 49.4285 33.8393 48.0779C33.0151 46.7239 32.6069 45.254 32.6036 43.6571C32.6036 42.1937 33.0151 41.2273 33.8371 40.7676C34.658 40.3079 35.7711 40.4009 37.1798 41.0489L37.1831 38.2622L38.9792 39.2976V42.1248C40.3386 43.1284 41.397 44.3521 42.1686 45.7991C42.9381 47.2482 43.3102 48.7707 43.2894 50.3676L43.2653 50.4158L40.042 48.5584C40.042 47.6094 39.8548 46.7732 39.4838 46.0497C39.1116 45.3262 38.5895 44.7713 37.9197 44.3839C37.2104 43.9756 36.6982 43.8902 36.3808 44.1332C36.0634 44.3762 35.908 44.86 35.9047 45.5758C35.9069 46.2511 36.0721 46.8783 36.4103 47.4748C36.7464 48.068 37.3867 48.8692 38.3367 49.8773C40.0113 51.4709 41.2613 52.9616 42.0887 54.3462C42.9195 55.734 43.3332 57.2182 43.3332 58.7976C43.3332 60.377 42.9238 61.2822 42.1062 61.7178C41.2886 62.1567 40.1711 62.0505 38.7548 61.396V63.9626L36.9576 62.9272L36.9598 60.3606C35.5139 59.3766 34.3242 58.1365 33.3938 56.6392C32.4635 55.1419 32.0115 53.4662 32.0421 51.6252L32.0749 51.5672L35.2874 53.4213C35.2852 54.5355 35.5205 55.4637 35.9933 56.2112C36.4651 56.9544 37.0747 57.5444 37.8288 57.98C38.5687 58.4079 39.1226 58.5218 39.4914 58.3127C39.8581 58.107 40.0431 57.6451 40.0452 56.9249L40.042 56.9227Z" fill="#2E2E2E"/>
</g>
<defs>
<clipPath id="clip0_101_693">
<rect width="187.71" height="188.533" fill="white"/>
</clipPath>
</defs>
</svg>
