<svg width="145" height="161" viewBox="0 0 145 161" fill="none" xmlns="http://www.w3.org/2000/svg">
<path d="M4.89182 36.468L40.3336 101.53L52.3757 106.553C62.3063 119.337 74.2344 130.066 86.7332 136.63C91.1278 138.969 95.4081 140.625 99.5173 141.766L104.825 154.151C104.825 154.151 104.825 154.151 104.882 154.151L128.282 138.855C138.155 132.292 143.805 119.28 142.778 101.302C140.78 65.1753 112.929 22.5995 80.6265 6.27693C76.9168 4.39355 73.3212 2.96675 69.8398 1.93945L46.4973 17.1777L60.48 49.9941C60.48 49.9941 60.48 50.0512 60.4229 49.9941L28.3484 21.0015L5.00599 36.2398L4.89182 36.468Z" fill="#CBE8CA"/>
<path d="M105.112 156.492L103.228 155.864L102.886 154.951L97.9777 143.479C93.7543 142.224 89.7021 140.568 85.707 138.457C73.4365 132.008 61.4515 121.563 51.0073 108.266L38.7368 103.186L38.3944 102.501L2.21067 35.7271L3.75164 34.7569L28.1785 18.7767L29.377 19.6328L54.9453 42.747L43.7592 16.608L69.2133 0L70.0122 0.114147C74.0073 1.31266 77.7741 2.79653 81.3697 4.62283C114.186 21.2308 142.551 64.6056 144.605 101.36C145.576 118.938 140.496 132.578 130.166 139.998L129.139 140.74L104.94 156.549L105.112 156.492ZM41.7045 99.9902L53.7468 105.184C64.0769 118.425 75.7766 128.64 87.6476 134.918C91.7568 137.087 95.923 138.742 100.032 139.941L101.059 140.226L101.402 141.253L105.682 151.355L127.084 137.315C136.787 130.923 141.638 118.253 140.725 101.588C138.727 66.1465 111.389 24.2556 79.6574 8.21838C76.5184 6.62036 73.2653 5.3077 70.0122 4.2804L48.7816 18.1489L62.7641 50.9083L60.1389 52.7917L58.8833 51.7644L27.8931 23.742L7.34721 37.1539L41.5904 100.047L41.7045 99.9902Z" fill="#0D0D0D"/>
<path d="M60.7663 87.0356L4.8928 36.5268C4.8928 36.5268 4.89283 36.5268 4.83576 36.5268C2.21045 44.2886 1.41139 53.9338 3.18062 65.4053C8.37418 99.249 34.3991 136.802 63.3346 151.984C96.2081 169.276 121.377 153.296 119.379 116.713C117.382 80.5293 89.5306 38.0107 57.2279 21.6881C53.5182 19.8047 49.9227 18.435 46.4413 17.3506L60.8806 86.9785C60.8806 86.9785 60.8805 87.0356 60.8234 86.9785L60.7663 87.0356Z" fill="white"/>
<path d="M88.2754 161C80.3424 161 71.6104 158.603 62.4218 153.752C32.8585 138.171 6.54824 100.332 1.24054 65.6896C-0.471626 54.5035 0.0991123 44.4588 2.95271 35.898L3.29513 34.9278L5.23556 34.2429L6.14874 34.8707L57.6849 81.4986L44.2729 16.7218L45.9281 15.1238L47.0694 15.4091C50.8361 16.5506 54.5459 18.0345 58.1985 19.8608C91.0149 36.4687 119.38 79.8435 121.434 116.598C122.462 134.975 116.868 149.015 105.739 156.149C100.66 159.402 94.7816 161 88.2754 161ZM5.86336 40.0643C3.97998 47.4266 3.75172 55.7591 5.17852 65.0618C10.315 98.5631 35.7691 135.146 64.3051 150.213C79.6004 158.26 93.5831 159.174 103.571 152.782C113.444 146.447 118.352 133.662 117.382 116.826C115.442 81.3844 88.0471 39.4936 56.315 23.4563C53.918 22.2578 51.521 21.2305 49.0669 20.3173L63.1066 88.0048L60.5385 89.4887L59.4541 88.5184L5.92049 40.0643H5.86336Z" fill="#0D0D0D"/>
<path d="M46.443 17.522L60.8251 87.0358C60.8251 87.0358 60.8251 87.0358 60.8822 87.0358L85.5372 43.661C76.9764 34.4154 67.2741 26.7677 57.1724 21.6312C53.5198 19.8049 49.9814 18.3781 46.5571 17.3508C46.4429 17.3508 46.3858 17.4079 46.3858 17.522H46.443Z" fill="white"/>
<path d="M61.966 89.2048L59.1124 88.8053L58.8841 87.3214L44.2737 16.8375L45.9858 15.1824L47.1842 15.4677C50.8939 16.6092 54.5466 18.036 58.1421 19.8623C68.1297 24.8846 78.1174 32.6464 87.0777 42.2916L88.105 43.376L62.023 89.2048H61.966ZM49.0677 20.2618L61.7377 81.443L83.0826 43.8896C74.693 35.1005 65.4473 27.9665 56.3158 23.3437C53.9188 22.1452 51.5218 21.1179 49.0677 20.2047V20.2618Z" fill="#0D0D0D"/>
<path d="M60.934 86.9208C60.934 86.9208 60.934 87.0349 60.934 86.9779L99.5719 61.6949C95.3486 55.2458 90.6116 49.1961 85.4751 43.6602L60.8771 86.8637L60.934 86.9208Z" fill="#CBE8CA"/>
<path d="M60.8213 89.5455L58.4242 87.3768L59.2233 85.9499L85.191 40.3494L87.0745 42.3469C92.3251 47.997 97.119 54.1608 101.399 60.667L102.484 62.3221L60.8784 89.5455H60.8213ZM85.9329 47.0839L66.6997 80.8705L96.8909 61.1236C93.5807 56.2154 89.8709 51.4784 85.9329 47.0839Z" fill="#0D0D0D"/>
<path d="M99.6304 61.5229L61.0498 86.7488C61.0498 86.7488 61.0498 86.8629 61.0498 86.8059L107.621 75.6197C105.224 70.7686 102.541 66.0316 99.5734 61.5229H99.6304Z" fill="#CBE8CA"/>
<path d="M59.9668 89.2031L58.597 86.0641L60.0238 85.0939L100.26 58.7837L101.344 60.4388C104.312 64.9475 107.051 69.7986 109.505 74.7639L110.647 76.9897L59.9668 89.146V89.2031ZM99.0612 64.3197L71.6096 82.2403L104.768 74.3073C102.999 70.883 101.059 67.5157 99.0612 64.3197Z" fill="#0D0D0D"/>
<path d="M107.854 26.6611L84.4532 41.9739L86.6407 45.3168L110.041 30.004L107.854 26.6611Z" fill="#0D0D0D"/>
<path d="M141.302 108.527L117.888 123.82L120.073 127.165L143.486 111.872L141.302 108.527Z" fill="#0D0D0D"/>
<path d="M141.859 97.4113L118.445 112.704L120.63 116.048L144.043 100.756L141.859 97.4113Z" fill="#0D0D0D"/>
<path d="M19.7908 49.7683L17.6221 46.4581L41.0216 31.1057L43.1904 34.473L19.7908 49.7683Z" fill="#0D0D0D"/>
</svg>
