<svg width="91" height="166" viewBox="0 0 91 166" fill="none" xmlns="http://www.w3.org/2000/svg">
<path d="M3.72718 0.661926L0.666016 2.42915V4.68364C0.666016 29.1636 16.9394 59.5375 30.2589 67.2312L33.32 65.464V64.8555C32.3362 62.981 31.3896 60.9993 30.4897 58.9033C21.474 51.177 10.0127 30.7583 7.9634 11.1487L18.5364 17.2547L21.5976 15.4875C21.5813 14.5712 21.5649 13.648 21.5673 12.7201V12.6991C21.5673 12.1209 21.6186 11.5707 21.7048 11.0461L3.72718 0.661926Z" fill="#CBE8CA"/>
<path d="M30.2573 67.8941C30.143 67.8941 30.0288 67.8638 29.9262 67.8055C16.4552 60.0255 0 29.3696 0 4.68209V2.42993C0 2.19213 0.125895 1.97297 0.333393 1.8564L3.39456 0.0891771C3.60206 -0.0297257 3.85153 -0.0297257 4.05902 0.0891771L22.0367 10.4734C22.2745 10.6109 22.405 10.8814 22.3584 11.1541C22.2838 11.6158 22.2418 12.0587 22.2325 12.5017C22.2535 12.5647 22.2628 12.6323 22.2628 12.7022C22.2628 12.7768 22.2511 12.8444 22.2302 12.912C22.2302 13.784 22.2465 14.6326 22.2628 15.4789C22.2675 15.7191 22.1392 15.9452 21.9317 16.0641L18.8706 17.8313C18.6654 17.9503 18.4136 17.9503 18.2085 17.8313L8.7755 12.3851C11.1302 31.1391 21.9691 50.7301 30.9264 58.4052C31.0033 58.4705 31.0616 58.5544 31.1036 58.6477C31.9779 60.6783 32.9221 62.667 33.9129 64.5508C33.9642 64.6464 33.9876 64.7514 33.9876 64.8586V65.4671C33.9876 65.7049 33.8617 65.924 33.6565 66.0406L30.5953 67.8078C30.4927 67.8661 30.3785 67.8964 30.2643 67.8964L30.2573 67.8941ZM1.32658 2.81229V4.68442C1.32658 28.7564 17.1523 58.5521 30.262 66.4649L32.6563 65.0195C31.7004 63.1916 30.7889 61.2705 29.9402 59.3075C20.6052 51.2174 9.32803 30.6052 7.30202 11.2194C7.27638 10.9723 7.39062 10.7298 7.60045 10.5946C7.81028 10.457 8.07606 10.4524 8.29288 10.5759L18.5349 16.4884L20.9269 15.1082C20.9129 14.3156 20.9013 13.5182 20.9036 12.7185C20.9036 12.2709 20.9292 11.8372 20.9852 11.3943L3.72795 1.42742L1.32892 2.81229H1.32658Z" fill="#0D0D0D"/>
<path d="M18.6437 12.8106C18.5574 13.3375 18.5038 13.8854 18.5038 14.4659V14.4869C18.5038 15.4125 18.5178 16.3357 18.5364 17.2543L4.62478 9.22256C5.49207 29.9023 17.8463 52.4589 27.4332 60.6725C28.3308 62.7685 29.2773 64.7502 30.2589 66.6247V67.2332C16.9394 59.5395 0.666016 29.1656 0.666016 4.6856V2.42877L18.6437 12.813V12.8106Z" fill="white"/>
<path d="M30.2573 67.8934C30.143 67.8934 30.0288 67.8631 29.9262 67.8048C16.4552 60.0248 0 29.3688 0 4.68135V2.42919C0 2.19138 0.125895 1.97223 0.333393 1.85566C0.536227 1.73675 0.790359 1.73675 0.995525 1.85566L18.9732 12.2398C19.2133 12.3774 19.3415 12.6502 19.2949 12.9206C19.2086 13.4522 19.1643 13.9581 19.1643 14.4687C19.1643 15.4106 19.1783 16.3315 19.197 17.2431C19.2016 17.4809 19.0781 17.7047 18.8706 17.8259C18.6631 17.9472 18.4089 17.9495 18.2015 17.8283L5.34831 10.405C6.66324 31.4228 19.141 52.6971 27.8606 60.1693C27.9375 60.2346 28.0005 60.3162 28.0378 60.4118C28.9027 62.4332 29.847 64.4195 30.8425 66.315C30.8914 66.4106 30.9194 66.5155 30.9194 66.6227V67.2312C30.9194 67.4691 30.7935 67.6882 30.5883 67.8048C30.4857 67.8631 30.3715 67.8934 30.2573 67.8934ZM1.32658 3.57625V4.68368C1.32658 27.998 16.1685 56.6792 29.0123 65.6505C28.2663 64.1608 27.5505 62.629 26.8837 61.0739C17.8168 53.2077 4.87269 30.9379 3.96343 9.24862C3.95177 9.00615 4.07533 8.78 4.2805 8.6541C4.488 8.53054 4.74679 8.52587 4.95429 8.64711L17.8517 16.096C17.8424 15.5621 17.8401 15.0259 17.8401 14.4897C17.8401 14.0397 17.8681 13.6037 17.9217 13.1631L1.32658 3.57858V3.57625Z" fill="#0D0D0D"/>
<path d="M85.525 124.603L45.6482 101.582L5.82275 124.577V142.252L45.6972 165.274L85.525 142.28V124.603Z" fill="#CBE8CA"/>
<path d="M45.6972 165.936C45.5806 165.936 45.4687 165.905 45.3661 165.847L5.49172 142.826C5.28655 142.707 5.16064 142.488 5.16064 142.253V124.578C5.16064 124.34 5.28655 124.121 5.49172 124.005L45.3172 101.01C45.5247 100.891 45.7741 100.891 45.9816 101.01L85.8584 124.03C86.0612 124.149 86.1895 124.368 86.1895 124.604V142.281C86.1895 142.516 86.0636 142.738 85.8584 142.854L46.0283 165.849C45.9257 165.91 45.8138 165.938 45.6972 165.938V165.936ZM6.48721 141.868L45.6972 164.506L84.8629 141.894V124.982L45.6482 102.343L6.48721 124.956V141.866V141.868Z" fill="#0D0D0D"/>
<path d="M85.525 124.602L45.6482 101.581L5.82275 124.576L45.6972 147.599L85.525 124.602Z" fill="white"/>
<path d="M45.6972 148.261C45.5806 148.261 45.4687 148.233 45.3661 148.173L5.49172 125.15C5.28655 125.031 5.16064 124.812 5.16064 124.576C5.16064 124.341 5.28655 124.119 5.49172 124.003L45.3172 101.008C45.5247 100.889 45.7741 100.889 45.9816 101.008L85.8584 124.028C86.0612 124.147 86.1895 124.367 86.1895 124.602C86.1895 124.837 86.0636 125.059 85.8584 125.176L46.0283 148.173C45.9257 148.233 45.8138 148.261 45.6972 148.261ZM7.14936 124.576L45.6972 146.835L84.1984 124.602L45.6482 102.346L7.14936 124.576Z" fill="#0D0D0D"/>
<path d="M45.6953 147.599V165.273L85.5231 142.278V124.601L45.6953 147.599Z" fill="#0D0D0D"/>
<path d="M45.6963 165.936C45.5797 165.936 45.4678 165.905 45.3652 165.847C45.1577 165.728 45.0342 165.511 45.0342 165.273V147.599C45.0342 147.363 45.1601 147.144 45.3652 147.025L85.193 124.028C85.4005 123.909 85.65 123.909 85.8575 124.028C86.0603 124.147 86.1886 124.366 86.1886 124.602V142.279C86.1886 142.514 86.0627 142.736 85.8575 142.852L46.0274 165.847C45.9248 165.908 45.8129 165.936 45.6963 165.936ZM46.3584 147.981V164.126L84.862 141.896V125.751L46.3584 147.981Z" fill="#0D0D0D"/>
<path d="M41.2833 157.621L41.281 150.149L10.2427 132.229V139.699L41.2833 157.621Z" fill="white"/>
<path d="M68.8537 124.589C68.8537 118.898 64.3774 115.497 56.9565 111.71L56.9122 111.743C50.4471 108.507 40.8883 108.502 34.4325 111.738L34.3929 111.713C34.1108 111.86 33.845 112.002 33.5652 112.144C33.5419 112.158 33.5139 112.165 33.4906 112.179C33.4766 112.186 33.4696 112.193 33.4557 112.2C26.6059 115.793 22.5073 119.141 22.4956 124.575V124.589C22.5026 128.017 24.7664 131.437 29.2964 134.048C38.354 139.282 53.028 139.282 62.0763 134.06C66.6062 131.446 68.8654 128.017 68.8561 124.592L68.8537 124.589Z" fill="#CBE8CA"/>
<path d="M45.6994 138.634C39.3882 138.634 33.4454 137.207 28.9644 134.619C24.3738 131.973 21.8395 128.41 21.8325 124.589C21.8442 118.732 26.3648 115.168 33.1469 111.61L34.0888 111.123C34.1611 111.083 34.2404 111.062 34.3196 111.053C37.4997 109.502 41.5144 108.651 45.655 108.651C49.7957 108.651 53.829 109.505 57.0208 111.06C57.1024 111.064 57.184 111.083 57.2539 111.12C64.8217 114.981 69.5149 118.581 69.5149 124.589C69.5242 128.415 66.997 131.982 62.404 134.63C57.93 137.211 51.9965 138.634 45.697 138.634H45.6994ZM34.5155 112.393L33.865 112.731C27.2228 116.212 23.1661 119.381 23.1568 124.573C23.1614 127.911 25.4602 131.068 29.6242 133.469C33.907 135.943 39.6143 137.307 45.697 137.307C51.7681 137.307 57.4638 135.948 61.7396 133.481C65.9059 131.077 68.1953 127.918 68.1883 124.587C68.1883 119.276 64.0267 116.077 56.8296 112.389C56.7527 112.384 56.6757 112.365 56.6081 112.33C53.5703 110.808 49.6768 109.971 45.6527 109.971C41.6287 109.971 37.7515 110.806 34.723 112.326C34.6554 112.358 34.5831 112.382 34.5108 112.391L34.5155 112.393Z" fill="#0D0D0D"/>
<path d="M56.9566 111.71L56.9123 111.743C53.6809 110.127 49.6755 109.316 45.6748 109.313C47.7871 109.313 49.9017 110.122 51.6083 111.743L51.6339 111.712C55.5554 115.501 57.9195 118.9 57.9195 124.589C58.7984 126.23 60.3138 130.711 60.8827 134.682C61.2884 134.479 61.6894 134.281 62.0717 134.061C66.6017 131.448 68.8609 128.018 68.8515 124.593C68.8515 118.902 64.3752 115.501 56.9543 111.715L56.9566 111.71Z" fill="#0D0D0D"/>
<path d="M60.9185 135.301C60.8159 135.301 60.7156 135.282 60.634 135.238C60.4452 135.137 60.2586 134.984 60.2283 134.774C59.6641 130.838 58.1604 126.436 57.335 124.9C57.2838 124.804 57.2558 124.697 57.2558 124.588C57.2558 119.204 55.0829 115.996 51.3223 112.334C51.2593 112.306 51.2011 112.271 51.1521 112.224C49.625 110.776 47.6829 109.979 45.6802 109.977H45.6709C45.3049 109.977 45.0088 109.678 45.0088 109.314C45.0088 108.951 45.3072 108.652 45.6709 108.652H45.6826C49.8185 108.657 53.8332 109.51 57.0226 111.061C57.1042 111.065 57.1858 111.084 57.2558 111.121C64.8236 114.982 69.5168 118.582 69.5168 124.59C69.5261 128.416 66.9988 131.983 62.4059 134.631C62.0469 134.839 61.6715 135.025 61.2938 135.214C61.1889 135.268 61.049 135.301 60.9185 135.301ZM58.58 124.424C59.4147 126.063 60.7436 129.924 61.3964 133.676C61.513 133.613 61.6295 133.55 61.7438 133.484C65.91 131.081 68.1995 127.922 68.1925 124.59C68.1925 119.279 64.0309 116.08 56.8338 112.392C56.7568 112.387 56.6822 112.369 56.6146 112.334C55.0059 111.529 53.1618 110.916 51.1824 110.517C51.4295 110.704 51.672 110.902 51.9051 111.114C51.9751 111.142 52.038 111.182 52.0917 111.233C56.0598 115.066 58.5334 118.619 58.58 124.422V124.424Z" fill="#0D0D0D"/>
<path d="M57.8643 126.25C64.5835 122.373 64.5811 116.071 57.8456 112.187C51.1171 108.3 40.2107 108.303 33.4892 112.177C26.7654 116.062 26.7723 122.359 33.5032 126.241C40.234 130.132 51.1405 130.129 57.8643 126.25Z" fill="#CBE8CA"/>
<path d="M45.6905 129.822C40.9717 129.822 36.5233 128.754 33.1708 126.815C29.6993 124.814 27.7875 122.11 27.7852 119.205C27.7852 116.304 29.6922 113.605 33.1567 111.602C36.5047 109.669 40.9437 108.606 45.6579 108.606C50.372 108.606 54.8227 109.674 58.1777 111.611C61.6492 113.614 63.5632 116.318 63.5632 119.223C63.5632 122.128 61.6561 124.823 58.194 126.822C54.8437 128.757 50.4023 129.82 45.6928 129.82L45.6905 129.822ZM45.6555 109.935C41.1722 109.935 36.9687 110.935 33.8166 112.754C30.781 114.507 29.1094 116.799 29.1094 119.207C29.1094 121.618 30.788 123.914 33.8305 125.67C36.9873 127.495 41.1978 128.498 45.6882 128.498C50.1692 128.498 54.3751 127.498 57.5248 125.677C60.5604 123.926 62.232 121.636 62.232 119.226C62.232 116.815 60.5534 114.519 57.5085 112.761C54.3541 110.938 50.1435 109.933 45.6532 109.933L45.6555 109.935Z" fill="#0D0D0D"/>
<path d="M56.5479 115.368H56.5595C53.3631 111.99 52.5051 110.069 52.5075 102.722C52.5051 102.722 52.5051 102.718 52.5051 102.715C52.5051 101.708 51.8337 100.703 50.5024 99.9294C47.833 98.3883 43.5128 98.3906 40.8457 99.9271C39.4538 100.734 38.808 101.797 38.8709 102.848C38.8616 109.91 38.0246 111.925 35.0358 115.13C31.7368 117.991 32.273 121.896 36.6538 124.423C41.6407 127.307 49.7284 127.307 54.7154 124.43C58.9702 121.975 59.574 118.212 56.5502 115.368H56.5479Z" fill="white"/>
<path d="M45.6889 127.25H45.6866C42.1568 127.25 38.8299 126.45 36.3189 124.998C33.9012 123.601 32.4604 121.715 32.2646 119.682C32.092 117.88 32.922 116.085 34.6007 114.63C37.417 111.602 38.1957 109.781 38.2074 102.847C38.1258 101.541 38.9651 100.252 40.5108 99.3522C43.2945 97.7506 48.0553 97.7529 50.8297 99.3522C52.3102 100.21 53.1355 101.376 53.1635 102.644C53.1658 102.668 53.1682 102.693 53.1682 102.719C53.1635 109.862 53.9445 111.637 57.0407 114.908C57.057 114.924 57.0733 114.943 57.0849 114.961C58.5607 116.386 59.2625 118.102 59.0643 119.804C58.8358 121.792 57.4067 123.636 55.0426 125C52.534 126.448 49.2094 127.245 45.6889 127.245V127.25ZM45.6703 99.4385C43.9613 99.4385 42.3643 99.8162 41.1753 100.502C40.0655 101.147 39.4803 101.966 39.5339 102.807C39.5223 110.128 38.5734 112.31 35.5216 115.584C34.104 116.817 33.4536 118.172 33.5865 119.556C33.7404 121.151 34.9457 122.676 36.9834 123.851C39.2985 125.189 42.3876 125.926 45.6889 125.926H45.6912C48.9832 125.926 52.07 125.191 54.3805 123.858C56.3715 122.709 57.5699 121.216 57.7494 119.657C57.9033 118.332 57.3321 117.017 56.0941 115.854C56.0568 115.819 56.0265 115.782 55.9985 115.742C52.7368 112.28 51.8439 110.226 51.8439 102.786C51.8416 102.765 51.8392 102.742 51.8392 102.719C51.8392 101.917 51.2447 101.131 50.1676 100.506C48.9786 99.8209 47.3792 99.4408 45.6726 99.4408L45.6703 99.4385Z" fill="#0D0D0D"/>
<path d="M56.5486 115.369H56.5602C53.3638 111.99 52.5059 110.069 52.5082 102.723C52.5059 102.723 52.5059 102.718 52.5059 102.716C52.5059 101.709 51.8344 100.704 50.5032 99.9299C49.1673 99.1605 47.421 98.7735 45.6748 98.7735C46.6423 98.7735 47.6075 99.1605 48.3466 99.9299C49.0857 100.699 49.454 101.709 49.454 102.716V102.725C49.454 110.065 49.9297 111.993 51.6969 115.369H51.6922C53.3359 118.162 54.6578 124.212 51.6549 125.697C52.7414 125.361 53.7952 124.96 54.7138 124.429C58.9686 121.974 59.5725 118.211 56.5486 115.366V115.369Z" fill="#0D0D0D"/>
<path d="M51.654 126.36C51.3882 126.36 51.141 126.199 51.0385 125.943C50.9102 125.621 51.0501 125.257 51.3602 125.103C51.9314 124.821 52.337 124.287 52.5679 123.52C53.202 121.392 52.3301 117.762 51.1224 115.708C51.1037 115.677 51.0897 115.645 51.0757 115.612C49.2805 112.162 48.791 110.138 48.791 102.724C48.791 101.836 48.4622 101.008 47.8677 100.388C47.2779 99.7747 46.4992 99.4344 45.6738 99.4344C45.3078 99.4344 45.0117 99.1383 45.0117 98.7722C45.0117 98.4062 45.3078 98.1101 45.6738 98.1101C47.6066 98.1101 49.4391 98.5531 50.8333 99.3551C52.3137 100.213 53.1391 101.379 53.1671 102.647C53.1694 102.67 53.1717 102.696 53.1717 102.722C53.1671 109.865 53.9481 111.639 57.0442 114.91C57.0605 114.927 57.0768 114.945 57.0885 114.964C58.5643 116.389 59.2661 118.104 59.0679 119.806C58.8394 121.795 57.4102 123.639 55.0462 125.003C54.1905 125.497 53.1461 125.931 51.8498 126.33C51.7868 126.351 51.7192 126.36 51.6563 126.36H51.654ZM52.2997 115.099C53.4515 117.097 54.6708 121.096 53.8362 123.898C53.8059 123.998 53.7732 124.099 53.7382 124.194C53.9644 124.085 54.1765 123.973 54.3794 123.856C56.3704 122.707 57.5688 121.215 57.7483 119.655C57.9022 118.331 57.331 117.016 56.093 115.852C56.0557 115.817 56.0254 115.78 55.9974 115.74C52.7357 112.278 51.8428 110.224 51.8428 102.785C51.8405 102.764 51.8381 102.74 51.8381 102.717C51.8381 101.915 51.2436 101.129 50.1665 100.504C49.9054 100.353 49.621 100.218 49.3225 100.096C49.8354 100.861 50.1129 101.768 50.1129 102.717C50.1129 109.954 50.5488 111.751 52.2811 115.062C52.2881 115.074 52.2927 115.088 52.2997 115.099Z" fill="#0D0D0D"/>
<path d="M50.5064 105.507C53.1713 103.968 53.1666 101.474 50.4994 99.9303C47.8299 98.3892 43.5098 98.3916 40.8427 99.928C38.1755 101.467 38.1778 103.964 40.8473 105.502C43.5145 107.043 47.8416 107.048 50.5064 105.507Z" fill="#CBE8CA"/>
<path d="M45.6871 107.323C43.7473 107.323 41.9102 106.88 40.5183 106.076C39.0146 105.209 38.1846 104.013 38.1846 102.714C38.1846 101.415 39.0099 100.222 40.516 99.3522C43.2951 97.7528 48.0582 97.7551 50.8326 99.3545C52.3387 100.226 53.1687 101.42 53.1663 102.723C53.1663 104.022 52.341 105.213 50.8396 106.081C49.4547 106.883 47.6222 107.323 45.6871 107.323ZM45.6731 99.4408C43.9642 99.4408 42.3671 99.8184 41.1781 100.504C40.1033 101.124 39.5111 101.91 39.5111 102.716C39.5111 103.523 40.1057 104.309 41.1828 104.931C42.3765 105.621 43.9782 106.001 45.6894 106.001C47.3984 106.001 48.9907 105.624 50.1774 104.938C51.2522 104.318 51.8421 103.535 51.8421 102.73C51.8421 101.921 51.2476 101.133 50.1705 100.511C48.9768 99.8231 47.3797 99.4454 45.6708 99.4454L45.6731 99.4408Z" fill="#0D0D0D"/>
<path d="M54.2882 94.5084C54.2882 89.75 50.4297 85.8915 45.6736 85.8915C40.9151 85.8938 37.0613 89.75 37.0566 94.5084C37.0566 99.2669 40.9151 103.125 45.6736 103.128C50.4344 103.125 54.2882 99.2669 54.2882 94.5084Z" fill="#CBE8CA"/>
<path d="M45.6697 103.79C40.5546 103.785 36.3906 99.621 36.3906 94.5081C36.393 89.3953 40.5569 85.2314 45.6697 85.2291C50.7849 85.2291 54.9488 89.3907 54.9488 94.5081C54.9488 99.6256 50.7872 103.787 45.6697 103.79ZM45.6697 86.5533C41.2866 86.558 37.7196 90.1251 37.7172 94.5081C37.7172 98.8912 41.2843 102.461 45.6697 102.465C50.0551 102.463 53.6222 98.8912 53.6222 94.5081C53.6222 90.1251 50.0551 86.5556 45.6697 86.5556V86.5533Z" fill="#0D0D0D"/>
<path d="M48.1113 86.2852C50.2678 87.8496 51.69 90.3769 51.69 93.2515C51.69 98.0123 47.8338 101.871 43.0754 101.868C42.2221 101.868 41.4177 101.705 40.6367 101.477C42.0566 102.503 43.7888 103.127 45.6703 103.127C50.431 103.125 54.2849 99.2666 54.2849 94.5082C54.2849 90.603 51.669 87.3437 48.1089 86.2852H48.1113Z" fill="#0D0D0D"/>
<path d="M45.6721 103.79C43.73 103.79 41.8556 103.174 40.2515 102.013C39.9904 101.824 39.9042 101.474 40.044 101.185C40.1839 100.896 40.515 100.749 40.8251 100.84C41.676 101.087 42.3895 101.204 43.0772 101.204C47.465 101.204 51.0297 97.6346 51.0297 93.2515C51.0297 90.7266 49.7918 88.3228 47.7214 86.8214C47.4603 86.6326 47.3717 86.2805 47.5163 85.9914C47.6585 85.7023 47.9896 85.5531 48.2996 85.6487C52.2771 86.8307 54.9489 90.3908 54.9489 94.5058C54.9489 99.621 50.7873 103.785 45.6698 103.787L45.6721 103.79ZM44.6509 102.398C44.989 102.442 45.3294 102.465 45.6721 102.465C50.0552 102.463 53.6246 98.8912 53.6246 94.5081C53.6246 92.3003 52.7247 90.2766 51.2139 88.8264C51.9507 90.1717 52.354 91.6918 52.354 93.2515C52.354 97.8328 49.0177 101.649 44.6486 102.398H44.6509Z" fill="#0D0D0D"/>
<path d="M50.5056 91.3709C53.1704 89.8275 53.1657 87.3328 50.4986 85.7918C47.8291 84.253 43.509 84.2507 40.8418 85.7918C38.177 87.3282 38.1769 89.8228 40.8464 91.3639C43.5136 92.905 47.8407 92.905 50.5056 91.3709Z" fill="white"/>
<path d="M45.6848 93.1825C43.7427 93.1825 41.9079 92.7418 40.516 91.9375C39.0122 91.0702 38.1822 89.8742 38.1846 88.5732C38.1846 87.2746 39.0122 86.0833 40.5137 85.216C43.2857 83.6096 48.0488 83.612 50.8302 85.216C52.3363 86.0856 53.164 87.2793 53.1663 88.5802C53.1663 89.8788 52.341 91.0725 50.8396 91.9421C49.45 92.7395 47.6198 93.1801 45.6848 93.1801V93.1825ZM45.6685 85.2999C43.9595 85.2999 42.3648 85.6776 41.1781 86.3654C40.1033 86.9855 39.5111 87.7689 39.5111 88.5756C39.5111 89.3822 40.1033 90.1703 41.1828 90.7928C43.5632 92.166 47.797 92.1683 50.1798 90.7998C51.2522 90.1773 51.8444 89.3916 51.8444 88.5872C51.8444 87.7782 51.2499 86.9925 50.1728 86.3677C48.9791 85.6799 47.3797 85.3022 45.6708 85.3022L45.6685 85.2999Z" fill="#0D0D0D"/>
<path d="M50.4999 85.7912C49.1663 85.0218 47.4201 84.6371 45.6738 84.6371C46.6554 84.6371 47.6346 85.0242 48.3853 85.7912C49.8844 87.3323 49.8844 89.8292 48.3876 91.368C47.6392 92.1374 46.6624 92.522 45.6785 92.522C47.4247 92.522 49.1756 92.135 50.5069 91.3703C53.1717 89.8269 53.167 87.3323 50.4999 85.7912Z" fill="#0D0D0D"/>
<path d="M45.6821 93.1852C45.316 93.1852 45.0199 92.8891 45.0199 92.5231C45.0199 92.1571 45.3137 91.861 45.6821 91.8586C46.526 91.8586 47.321 91.5183 47.9179 90.9051C49.1629 89.6228 49.1605 87.5362 47.9132 86.2516C47.3164 85.6407 46.5214 85.3027 45.6797 85.3003C45.3137 85.3003 45.0176 85.0019 45.0176 84.6359C45.0176 84.2698 45.316 83.9738 45.6797 83.9738H45.6821C47.6218 83.9738 49.4496 84.4144 50.8368 85.2164C52.3429 86.086 53.1706 87.2797 53.1729 88.5807C53.1729 89.8793 52.3476 91.073 50.8461 91.9426C49.452 92.7423 47.6195 93.1829 45.6867 93.1829L45.6821 93.1852ZM49.389 85.9811C50.4288 87.5408 50.4312 89.6205 49.3913 91.1779C49.6711 91.0636 49.9346 90.9354 50.1817 90.7955C51.2542 90.173 51.8463 89.3873 51.8463 88.583C51.8463 87.774 51.2518 86.9883 50.1747 86.3635C49.9299 86.2213 49.6688 86.0954 49.3913 85.9811H49.389Z" fill="#0D0D0D"/>
<path d="M81.2357 23.1275V23.1065C81.2217 17.8584 77.7479 12.6081 70.8049 8.60034C56.9072 0.573234 34.3949 0.575565 20.5183 8.58169C13.5753 12.5941 10.1108 17.8538 10.1225 23.1065H10.1201C10.1201 62.7688 27.853 86.8104 45.6767 86.8151C63.4982 86.8128 81.2287 62.7781 81.2357 23.1298V23.1275Z" fill="#CBE8CA"/>
<path d="M45.6732 87.476C27.8681 87.4736 9.45215 63.3946 9.45215 23.1075C9.45215 23.0842 9.45215 23.0632 9.45682 23.0399C9.47547 17.3326 13.2827 11.996 20.186 8.00688C26.9961 4.07842 36.0351 1.91486 45.6406 1.91486C55.2461 1.91486 64.313 4.08542 71.1347 8.02553C78.0591 12.0239 81.8803 17.3769 81.8943 23.1052C81.8896 63.404 63.4713 87.4736 45.6732 87.476ZM10.7764 23.1728C10.7974 62.5926 28.5279 86.147 45.6732 86.1494C62.8232 86.147 80.563 62.5716 80.57 23.1262C80.556 17.8712 76.9703 12.9239 70.4726 9.17259C63.849 5.34672 55.0292 3.23911 45.6406 3.23911C36.2519 3.23911 27.4578 5.33972 20.8482 9.15394C14.3481 12.9122 10.7717 17.8665 10.7811 23.1029C10.7811 23.1262 10.781 23.1495 10.7764 23.1728Z" fill="#0D0D0D"/>
<path d="M70.828 37.6383C84.7047 29.6228 84.6953 16.6275 70.8 8.60034C56.9024 0.573234 34.3901 0.575565 20.5134 8.58169C6.63675 16.5995 6.65074 29.5995 20.5461 37.615C34.4367 45.6398 56.9536 45.6398 70.8303 37.6406L70.828 37.6383Z" fill="white"/>
<path d="M45.7168 44.2964C36.0903 44.2964 27.035 42.1259 20.2156 38.1858C13.2796 34.185 9.45839 28.8227 9.45606 23.0874C9.45372 17.3591 13.2656 12.0038 20.1853 8.00541C26.9954 4.07696 36.0344 1.91339 45.6398 1.91339C55.2453 1.91339 64.3122 4.08395 71.134 8.02407C78.0723 12.0318 81.8936 17.3987 81.8936 23.1341C81.8936 28.8694 78.0817 34.213 71.162 38.2114C64.3542 42.1352 55.3199 44.2964 45.7191 44.2964H45.7168ZM45.6375 3.23764C36.2605 3.23764 27.4547 5.33826 20.8451 9.15248C14.3521 12.9037 10.778 17.851 10.778 23.0851C10.778 28.3261 14.3661 33.2804 20.8778 37.0364C27.499 40.8622 36.3211 42.9698 45.7168 42.9698C55.0891 42.9698 63.8903 40.8716 70.4975 37.062C76.9906 33.3131 80.567 28.3658 80.567 23.1317C80.567 17.8977 76.9812 12.9317 70.4696 9.17113C63.846 5.34525 55.0262 3.23764 45.6375 3.23764Z" fill="#0D0D0D"/>
<path d="M72.3923 21.3032C72.1778 21.3032 71.9704 21.2006 71.8421 21.0117C70.4549 18.9508 68.3543 17.1043 65.6056 15.5189C64.4678 14.8591 63.1972 14.2413 61.831 13.6864C61.4929 13.5488 61.3297 13.1618 61.4673 12.8238C61.6048 12.4834 61.9965 12.3225 62.3299 12.4601C63.7521 13.0383 65.0786 13.6817 66.2677 14.3742C69.1913 16.0598 71.4364 18.0438 72.9402 20.2727C73.1454 20.5781 73.0638 20.9884 72.7607 21.1936C72.6488 21.2705 72.5182 21.3078 72.3923 21.3078V21.3032Z" fill="#0D0D0D"/>
<path d="M20.0498 34.721C19.8656 34.721 19.6814 34.644 19.5509 34.4925C16.9886 31.5526 15.9278 28.2419 16.4804 24.9196C17.1472 20.9166 20.1943 17.1653 25.0554 14.3559C33.1151 9.70241 45.2152 8.18932 55.8745 10.4928C56.2336 10.5697 56.4597 10.9241 56.3828 11.2808C56.3058 11.6398 55.9468 11.859 55.5947 11.789C45.2362 9.55087 33.5091 11.0057 25.7175 15.503C21.2039 18.1119 18.3875 21.5321 17.7883 25.1365C17.301 28.0554 18.2569 30.9884 20.5487 33.6205C20.7912 33.8956 20.7609 34.313 20.4858 34.5554C20.3599 34.665 20.2037 34.7186 20.0498 34.7186V34.721Z" fill="#0D0D0D"/>
<path d="M81.2367 23.1051C81.2367 23.0631 81.225 23.0165 81.2227 22.9698C81.295 28.2762 77.8421 33.5918 70.8339 37.6369C70.1368 38.0402 69.4047 38.4039 68.6679 38.7653C66.0334 68.9992 55.8824 86.809 45.6777 86.8137C63.4992 86.8114 81.2297 62.7767 81.2367 23.1284V23.1074V23.1051Z" fill="#0D0D0D"/>
<path d="M45.6738 87.4766C45.3078 87.4766 45.0117 87.1805 45.0117 86.8145C45.0117 86.4484 45.3101 86.1523 45.6738 86.1523C54.7174 86.15 65.2905 69.8533 68.0043 38.7101C68.0229 38.4793 68.1651 38.2741 68.3726 38.1715C69.0977 37.8171 69.8158 37.4604 70.4989 37.0664C77.0549 33.2802 80.6266 28.2793 80.5543 22.9823C80.5497 22.6256 80.8294 22.3271 81.1885 22.3108C81.5475 22.2828 81.853 22.5649 81.8786 22.9216C81.8786 22.938 81.8949 23.0895 81.8949 23.1058C81.8902 63.4022 63.472 87.4719 45.6738 87.4766ZM69.2912 39.1974C67.2908 61.5254 60.8911 78.5472 52.7264 84.8351C66.4772 79.7013 78.9666 59.7722 80.4284 29.1559C78.7312 32.5598 75.5837 35.6629 71.1633 38.2135C70.5595 38.5609 69.93 38.8826 69.2912 39.1974Z" fill="#0D0D0D"/>
<path d="M72.3602 40.2928L69.299 42.0601C69.3853 42.6849 69.4342 43.2934 69.4366 43.8739V43.8926C69.4366 44.8228 69.4226 45.7297 69.4063 46.625L83.3179 54.6591C82.8237 65.8803 78.5898 73.3828 73.2695 77.2437C70.0661 78.6658 66.6762 78.9269 63.5731 78.0037L60.5119 79.7709C59.6143 80.8317 58.6677 81.7223 57.6792 82.4521V83.0606C63.2187 86.2593 69.2687 86.1147 74.4445 83.1049L74.4538 83.1142L77.6082 81.291V81.2817C84.8333 77.0245 90.3378 67.1626 90.3378 52.9222V50.67L72.3602 40.2928Z" fill="#CBE8CA"/>
<path d="M66.1297 86.0745C63.1058 86.0745 60.1519 85.2539 57.3472 83.6359C57.142 83.517 57.0161 83.2978 57.0161 83.0623V82.4538C57.0161 82.244 57.1163 82.0458 57.2842 81.9223C58.2401 81.2135 59.154 80.3462 60.0027 79.3437C60.0516 79.2854 60.1099 79.2365 60.1775 79.1992L63.2387 77.4319C63.3949 77.341 63.5837 77.32 63.7586 77.3713C66.7032 78.2479 69.9509 77.9891 72.9957 76.6392C76.2411 74.2682 81.9437 68.2228 82.6315 55.0339L69.0696 47.2003C68.8621 47.0791 68.7339 46.8552 68.7385 46.6128C68.7572 45.7222 68.7712 44.8199 68.7712 43.8943C68.7665 43.3441 68.7222 42.7613 68.6383 42.1528C68.601 41.887 68.7315 41.6235 68.9647 41.4883L72.0259 39.7211C72.2333 39.6022 72.4828 39.6022 72.6903 39.7211L90.6679 50.0983C90.8731 50.2172 90.999 50.4363 90.999 50.6718V52.924C90.999 66.1711 86.1566 76.9517 78.0363 81.7964C78.0059 81.8243 77.971 81.8477 77.9337 81.8686L74.7793 83.6918C74.7443 83.7128 74.707 83.7291 74.6697 83.7431C71.9652 85.2912 69.0906 86.0769 66.1273 86.0769L66.1297 86.0745ZM58.4219 82.7196C63.4905 85.4777 69.1652 85.4054 74.1101 82.5331C74.1474 82.5121 74.1847 82.4958 74.222 82.4818L77.176 80.7752C77.2039 80.7519 77.2343 80.7286 77.2646 80.7099C85.0352 76.1357 89.6724 65.7468 89.6724 52.9193V51.0495L72.3592 41.0547L70.0092 42.4115C70.0651 42.9175 70.0954 43.4071 70.0978 43.8664C70.0978 44.6847 70.0861 45.4727 70.0721 46.2421L83.6457 54.0803C83.8602 54.2039 83.9884 54.437 83.9767 54.6842C83.5198 65.0777 79.8525 73.2773 73.6532 77.777C70.2237 79.325 66.8314 79.5862 63.656 78.7166L60.9376 80.2856C60.1472 81.2065 59.3032 82.0225 58.4196 82.7173L58.4219 82.7196Z" fill="#0D0D0D"/>
<path d="M69.299 42.0591C69.3853 42.6839 69.4342 43.2924 69.4366 43.8729V43.8916C69.4366 44.8218 69.4226 45.7288 69.4063 46.624L83.3179 54.6581C82.4506 74.3331 70.0964 82.626 60.5119 79.77C59.6143 80.8308 58.6677 81.7214 57.6792 82.4511V83.0596C71.0056 90.751 87.2767 79.1731 87.2767 54.6861V52.434L69.299 42.0568V42.0591Z" fill="white"/>
<path d="M66.146 86.0816C63.1174 86.0816 60.1589 85.2586 57.3472 83.6359C57.142 83.517 57.0161 83.2978 57.0161 83.0624V82.4539C57.0161 82.244 57.1163 82.0459 57.2842 81.9223C58.2401 81.2135 59.154 80.3462 60.0027 79.3437C60.1729 79.1432 60.4456 79.0616 60.6974 79.1362C61.8561 79.4813 63.0662 79.6561 64.2925 79.6561C72.7999 79.6561 81.7829 71.1977 82.6339 55.0293L69.0719 47.1957C68.8644 47.0744 68.7362 46.8506 68.7408 46.6081C68.7595 45.7175 68.7735 44.8153 68.7735 43.8897C68.7688 43.3395 68.7245 42.7566 68.6406 42.1481C68.6056 41.8987 68.7175 41.6492 68.9274 41.507C69.1372 41.3671 69.41 41.3554 69.6291 41.4837L87.6068 51.8609C87.8119 51.9798 87.9379 52.1989 87.9379 52.4344V54.6865C87.9379 63.968 85.6507 71.9345 81.3259 77.7327C77.3088 83.1137 71.9186 86.0792 66.1483 86.0792L66.146 86.0816ZM58.4219 82.7196C60.9049 84.0695 63.4998 84.755 66.146 84.755C71.4896 84.755 76.5022 81.9806 80.2628 76.9424C84.4174 71.3772 86.6136 63.6812 86.6136 54.6889V52.8191L70.0838 43.2765C70.0931 43.4794 70.0978 43.6752 70.1024 43.8687C70.1024 44.687 70.0907 45.4751 70.0768 46.2444L83.6504 54.0827C83.8648 54.2063 83.9931 54.4394 83.9814 54.6865C83.2214 71.9484 73.5016 80.9804 64.2948 80.9804C63.0871 80.9804 61.8935 80.8265 60.7394 80.5211C60.0073 81.3464 59.2333 82.0855 58.4243 82.7196H58.4219Z" fill="#0D0D0D"/>
<path d="M73.2631 77.2448C70.062 78.6669 66.6744 78.928 63.569 78.0048L60.5078 79.772C64.6251 80.9984 69.253 80.1544 73.2631 77.2448Z" fill="#0D0D0D"/>
<path d="M64.2735 80.9801C62.9259 80.9801 61.5946 80.7866 60.3194 80.4065C60.0652 80.3319 59.881 80.1128 59.8507 79.8493C59.8181 79.5859 59.9463 79.3294 60.1771 79.1988L63.2383 77.4316C63.3945 77.3407 63.5834 77.3197 63.7582 77.371C66.7051 78.2476 69.9528 77.9912 72.993 76.6413C73.3054 76.506 73.6668 76.6226 73.837 76.9164C74.0072 77.2101 73.9256 77.5855 73.6528 77.7837C70.7665 79.875 67.5235 80.9824 64.2735 80.9824V80.9801ZM62.3057 79.4996C64.0753 79.7794 65.9195 79.6745 67.703 79.2012C66.3321 79.2385 64.9636 79.0753 63.658 78.7162L62.3034 79.4973L62.3057 79.4996Z" fill="#0D0D0D"/>
<path d="M87.2775 52.4365V54.6887C87.2775 68.992 81.7217 78.8819 74.4453 83.1065L74.4546 83.1158L77.609 81.2926V81.2833C84.8341 77.0261 90.3386 67.1642 90.3386 52.9238V50.6716L87.2775 52.4389V52.4365Z" fill="#0D0D0D"/>
<path d="M74.4545 83.7788C74.2587 83.7788 74.0652 83.6926 73.937 83.5294L73.9276 83.52C73.8087 83.3708 73.7598 83.175 73.7948 82.9838C73.8297 82.795 73.9463 82.6294 74.1118 82.5339C81.9408 77.9876 86.6129 67.5801 86.6129 54.6896V52.4374C86.6129 52.202 86.7388 51.9828 86.944 51.8639L90.0052 50.0967C90.2103 49.9778 90.4621 49.9778 90.6673 50.0967C90.8725 50.2156 90.9984 50.4347 90.9984 50.6702V52.9224C90.9984 66.1696 86.156 76.9501 78.0356 81.7948C78.0053 81.8228 77.9703 81.8461 77.933 81.8671L74.7786 83.6902C74.676 83.7509 74.5618 83.7788 74.4475 83.7788H74.4545ZM87.9395 52.8198V54.6896C87.9395 63.5024 85.8016 71.2171 81.9827 76.8218C86.8764 71.3826 89.6764 62.8892 89.6764 52.9224V51.8173L87.9395 52.8198Z" fill="#0D0D0D"/>
</svg>
