<svg width="72" height="72" viewBox="0 0 72 72" fill="none" xmlns="http://www.w3.org/2000/svg">
<rect x="4" y="4" width="64" height="64" rx="28" fill="#F2F4F7"/>
<path d="M48 26.5H24C23.7348 26.5 23.4804 26.6054 23.2929 26.7929C23.1054 26.9804 23 27.2348 23 27.5V44.5C23 45.0304 23.2107 45.5391 23.5858 45.9142C23.9609 46.2893 24.4696 46.5 25 46.5H47C47.5304 46.5 48.0391 46.2893 48.4142 45.9142C48.7893 45.5391 49 45.0304 49 44.5V27.5C49 27.2348 48.8946 26.9804 48.7071 26.7929C48.5196 26.6054 48.2652 26.5 48 26.5ZM45.4287 28.5L36 37.1437L26.5712 28.5H45.4287ZM47 44.5H25V29.7738L35.3237 39.2375C35.5082 39.4069 35.7496 39.5008 36 39.5008C36.2504 39.5008 36.4918 39.4069 36.6763 39.2375L47 29.7738V44.5Z" fill="#404040"/>
<rect x="4" y="4" width="64" height="64" rx="28" stroke="#F9FAFB" stroke-width="8"/>
</svg>
