<svg width="72" height="72" viewBox="0 0 72 72" fill="none" xmlns="http://www.w3.org/2000/svg">
<rect x="4" y="4" width="64" height="64" rx="28" fill="#F2F4F7"/>
<path d="M36 19.75C32.7861 19.75 29.6443 20.703 26.972 22.4886C24.2997 24.2742 22.2169 26.8121 20.987 29.7814C19.757 32.7507 19.4352 36.018 20.0622 39.1702C20.6893 42.3224 22.2369 45.2179 24.5095 47.4905C26.7821 49.7631 29.6776 51.3107 32.8298 51.9378C35.982 52.5648 39.2493 52.243 42.2186 51.013C45.1879 49.7831 47.7258 47.7003 49.5114 45.028C51.297 42.3557 52.25 39.2139 52.25 36C52.2455 31.6916 50.5319 27.561 47.4855 24.5145C44.439 21.4681 40.3084 19.7545 36 19.75ZM37.25 49.6922V39.75H41C41.3315 39.75 41.6495 39.6183 41.8839 39.3839C42.1183 39.1495 42.25 38.8315 42.25 38.5C42.25 38.1685 42.1183 37.8505 41.8839 37.6161C41.6495 37.3817 41.3315 37.25 41 37.25H37.25V33.5C37.25 32.837 37.5134 32.2011 37.9822 31.7322C38.4511 31.2634 39.087 31 39.75 31H42.25C42.5815 31 42.8995 30.8683 43.1339 30.6339C43.3683 30.3995 43.5 30.0815 43.5 29.75C43.5 29.4185 43.3683 29.1005 43.1339 28.8661C42.8995 28.6317 42.5815 28.5 42.25 28.5H39.75C38.4239 28.5 37.1522 29.0268 36.2145 29.9645C35.2768 30.9021 34.75 32.1739 34.75 33.5V37.25H31C30.6685 37.25 30.3505 37.3817 30.1161 37.6161C29.8817 37.8505 29.75 38.1685 29.75 38.5C29.75 38.8315 29.8817 39.1495 30.1161 39.3839C30.3505 39.6183 30.6685 39.75 31 39.75H34.75V49.6922C31.2262 49.3705 27.9621 47.7028 25.6366 45.0359C23.3111 42.369 22.1032 38.9082 22.2642 35.3735C22.4253 31.8387 23.9427 28.5021 26.5011 26.0577C29.0594 23.6132 32.4616 22.2491 36 22.2491C39.5384 22.2491 42.9406 23.6132 45.499 26.0577C48.0573 28.5021 49.5748 31.8387 49.7358 35.3735C49.8968 38.9082 48.6889 42.369 46.3634 45.0359C44.0379 47.7028 40.7738 49.3705 37.25 49.6922Z" fill="#404040"/>
<rect x="4" y="4" width="64" height="64" rx="28" stroke="#F9FAFB" stroke-width="8"/>
</svg>
