<svg width="72" height="72" viewBox="0 0 72 72" fill="none" xmlns="http://www.w3.org/2000/svg">
<rect x="4" y="4" width="64" height="64" rx="28" fill="#F2F4F7"/>
<path d="M47 23.5H25C24.4696 23.5 23.9609 23.7107 23.5858 24.0858C23.2107 24.4609 23 24.9696 23 25.5V47.5C23 48.0304 23.2107 48.5391 23.5858 48.9142C23.9609 49.2893 24.4696 49.5 25 49.5H47C47.5304 49.5 48.0391 49.2893 48.4142 48.9142C48.7893 48.5391 49 48.0304 49 47.5V25.5C49 24.9696 48.7893 24.4609 48.4142 24.0858C48.0391 23.7107 47.5304 23.5 47 23.5ZM47 47.5H25V25.5H47V47.5ZM32 34.5V42.5C32 42.7652 31.8946 43.0196 31.7071 43.2071C31.5196 43.3946 31.2652 43.5 31 43.5C30.7348 43.5 30.4804 43.3946 30.2929 43.2071C30.1054 43.0196 30 42.7652 30 42.5V34.5C30 34.2348 30.1054 33.9804 30.2929 33.7929C30.4804 33.6054 30.7348 33.5 31 33.5C31.2652 33.5 31.5196 33.6054 31.7071 33.7929C31.8946 33.9804 32 34.2348 32 34.5ZM43 38V42.5C43 42.7652 42.8946 43.0196 42.7071 43.2071C42.5196 43.3946 42.2652 43.5 42 43.5C41.7348 43.5 41.4804 43.3946 41.2929 43.2071C41.1054 43.0196 41 42.7652 41 42.5V38C41 37.337 40.7366 36.7011 40.2678 36.2322C39.7989 35.7634 39.163 35.5 38.5 35.5C37.837 35.5 37.2011 35.7634 36.7322 36.2322C36.2634 36.7011 36 37.337 36 38V42.5C36 42.7652 35.8946 43.0196 35.7071 43.2071C35.5196 43.3946 35.2652 43.5 35 43.5C34.7348 43.5 34.4804 43.3946 34.2929 43.2071C34.1054 43.0196 34 42.7652 34 42.5V34.5C34.0012 34.2551 34.0923 34.0191 34.256 33.8369C34.4197 33.6546 34.6446 33.5388 34.888 33.5114C35.1314 33.4839 35.3764 33.5468 35.5765 33.688C35.7767 33.8292 35.918 34.039 35.9738 34.2775C36.6502 33.8186 37.4389 33.5526 38.2552 33.5081C39.0714 33.4637 39.8844 33.6424 40.6067 34.0251C41.329 34.4078 41.9335 34.98 42.3551 35.6803C42.7768 36.3806 42.9997 37.1825 43 38ZM32.5 31C32.5 31.2967 32.412 31.5867 32.2472 31.8334C32.0824 32.08 31.8481 32.2723 31.574 32.3858C31.2999 32.4994 30.9983 32.5291 30.7074 32.4712C30.4164 32.4133 30.1491 32.2704 29.9393 32.0607C29.7296 31.8509 29.5867 31.5836 29.5288 31.2926C29.4709 31.0017 29.5006 30.7001 29.6142 30.426C29.7277 30.1519 29.92 29.9176 30.1666 29.7528C30.4133 29.588 30.7033 29.5 31 29.5C31.3978 29.5 31.7794 29.658 32.0607 29.9393C32.342 30.2206 32.5 30.6022 32.5 31Z" fill="#404040"/>
<rect x="4" y="4" width="64" height="64" rx="28" stroke="#F9FAFB" stroke-width="8"/>
</svg>
