<svg width="48" height="48" viewBox="0 0 48 48" fill="none" xmlns="http://www.w3.org/2000/svg">
<rect width="48" height="48" rx="24" fill="#92E490"/>
<g clip-path="url(#clip0_5415_45528)">
<path d="M18.75 18C17.5633 18 16.4033 18.3519 15.4166 19.0112C14.4299 19.6705 13.6609 20.6075 13.2067 21.7039C12.7526 22.8003 12.6338 24.0067 12.8653 25.1705C13.0968 26.3344 13.6682 27.4035 14.5074 28.2426C15.3465 29.0818 16.4156 29.6532 17.5795 29.8847C18.7433 30.1162 19.9497 29.9974 21.0461 29.5433C22.1425 29.0892 23.0795 28.3201 23.7388 27.3334C24.3981 26.3467 24.75 25.1867 24.75 24C24.7483 22.4092 24.1156 20.8841 22.9907 19.7593C21.8659 18.6344 20.3408 18.0017 18.75 18ZM18.75 28.5C17.86 28.5 16.99 28.2361 16.2499 27.7416C15.5099 27.2471 14.9331 26.5443 14.5925 25.7221C14.252 24.8998 14.1628 23.995 14.3365 23.1221C14.5101 22.2492 14.9387 21.4474 15.568 20.818C16.1974 20.1887 16.9992 19.7601 17.8721 19.5865C18.745 19.4128 19.6498 19.5019 20.4721 19.8425C21.2943 20.1831 21.9971 20.7599 22.4916 21.4999C22.9861 22.24 23.25 23.11 23.25 24C23.2488 25.1931 22.7743 26.337 21.9306 27.1806C21.087 28.0243 19.9431 28.4988 18.75 28.5ZM29.25 18C28.7175 18 27.7125 18.2588 26.97 19.9922C26.5059 21.075 26.25 22.5 26.25 24C26.25 25.5 26.5059 26.925 26.97 28.0078C27.7125 29.7413 28.7175 30 29.25 30C29.7825 30 30.7875 29.7413 31.53 28.0078C31.9941 26.925 32.25 25.5 32.25 24C32.25 22.5 31.9941 21.075 31.53 19.9922C30.7875 18.2588 29.7825 18 29.25 18ZM29.25 28.5C28.7213 28.5 27.75 26.7919 27.75 24C27.75 21.2081 28.7213 19.5 29.25 19.5C29.7788 19.5 30.75 21.2081 30.75 24C30.75 26.7919 29.7788 28.5 29.25 28.5ZM35.25 18.75V29.25C35.25 29.4489 35.171 29.6397 35.0303 29.7803C34.8897 29.921 34.6989 30 34.5 30C34.3011 30 34.1103 29.921 33.9697 29.7803C33.829 29.6397 33.75 29.4489 33.75 29.25V18.75C33.75 18.5511 33.829 18.3603 33.9697 18.2197C34.1103 18.079 34.3011 18 34.5 18C34.6989 18 34.8897 18.079 35.0303 18.2197C35.171 18.3603 35.25 18.5511 35.25 18.75Z" fill="#343330"/>
</g>
<defs>
<clipPath id="clip0_5415_45528">
<rect width="24" height="24" fill="white" transform="translate(12 12)"/>
</clipPath>
</defs>
</svg>
