<svg width="56" height="56" viewBox="0 0 56 56" fill="none" xmlns="http://www.w3.org/2000/svg">
<rect x="4" y="4" width="48" height="48" rx="24" fill="#F2F4F7"/>
<g clip-path="url(#clip0_61_193)">
<path d="M22.75 22C21.5633 22 20.4033 22.3519 19.4166 23.0112C18.4299 23.6705 17.6609 24.6075 17.2067 25.7039C16.7526 26.8003 16.6338 28.0067 16.8653 29.1705C17.0968 30.3344 17.6682 31.4035 18.5074 32.2426C19.3465 33.0818 20.4156 33.6532 21.5795 33.8847C22.7433 34.1162 23.9497 33.9974 25.0461 33.5433C26.1425 33.0892 27.0795 32.3201 27.7388 31.3334C28.3981 30.3467 28.75 29.1867 28.75 28C28.7483 26.4092 28.1156 24.8841 26.9907 23.7593C25.8659 22.6344 24.3408 22.0017 22.75 22ZM22.75 32.5C21.86 32.5 20.99 32.2361 20.2499 31.7416C19.5099 31.2471 18.9331 30.5443 18.5925 29.7221C18.252 28.8998 18.1628 27.995 18.3365 27.1221C18.5101 26.2492 18.9387 25.4474 19.568 24.818C20.1974 24.1887 20.9992 23.7601 21.8721 23.5865C22.745 23.4128 23.6498 23.5019 24.4721 23.8425C25.2943 24.1831 25.9971 24.7599 26.4916 25.4999C26.9861 26.24 27.25 27.11 27.25 28C27.2488 29.1931 26.7743 30.337 25.9306 31.1806C25.087 32.0243 23.9431 32.4988 22.75 32.5ZM33.25 22C32.7175 22 31.7125 22.2588 30.97 23.9922C30.5059 25.075 30.25 26.5 30.25 28C30.25 29.5 30.5059 30.925 30.97 32.0078C31.7125 33.7413 32.7175 34 33.25 34C33.7825 34 34.7875 33.7413 35.53 32.0078C35.9941 30.925 36.25 29.5 36.25 28C36.25 26.5 35.9941 25.075 35.53 23.9922C34.7875 22.2588 33.7825 22 33.25 22ZM33.25 32.5C32.7213 32.5 31.75 30.7919 31.75 28C31.75 25.2081 32.7213 23.5 33.25 23.5C33.7788 23.5 34.75 25.2081 34.75 28C34.75 30.7919 33.7788 32.5 33.25 32.5ZM39.25 22.75V33.25C39.25 33.4489 39.171 33.6397 39.0303 33.7803C38.8897 33.921 38.6989 34 38.5 34C38.3011 34 38.1103 33.921 37.9697 33.7803C37.829 33.6397 37.75 33.4489 37.75 33.25V22.75C37.75 22.5511 37.829 22.3603 37.9697 22.2197C38.1103 22.079 38.3011 22 38.5 22C38.6989 22 38.8897 22.079 39.0303 22.2197C39.171 22.3603 39.25 22.5511 39.25 22.75Z" fill="#343330"/>
</g>
<rect x="4" y="4" width="48" height="48" rx="24" stroke="#F9FAFB" stroke-width="8"/>
<defs>
<clipPath id="clip0_61_193">
<rect width="24" height="24" fill="white" transform="translate(16 16)"/>
</clipPath>
</defs>
</svg>
