<svg width="124" height="143" viewBox="0 0 124 143" fill="none" xmlns="http://www.w3.org/2000/svg">
<path d="M114.452 89.2504L114.402 89.2498L114.398 89.6502C114.265 101.135 110.785 109.632 105.123 114.623C104.235 115.405 101.077 117.658 97.8385 119.839C96.2249 120.925 94.6007 121.987 93.2431 122.83C91.8719 123.682 90.8067 124.289 90.293 124.489L90.292 124.489C88.4631 125.206 87.0851 125.273 85.8818 124.919C84.6638 124.561 83.5715 123.758 82.3394 122.623C81.7971 122.124 81.2316 121.563 80.6219 120.958C78.4796 118.834 75.7908 116.168 71.6386 113.706L71.4344 114.05L71.6386 113.706C59.8927 106.743 49.2976 94.8861 41.6777 81.329C34.0578 67.7718 29.4342 52.552 29.5915 38.8851C29.6475 34.0144 28.2086 31.0021 27.118 28.719C27.0111 28.4952 26.9075 28.2784 26.809 28.0676C26.2546 26.8803 25.892 25.9408 25.9253 24.9993C25.9578 24.0804 26.3734 23.0908 27.5492 21.8324L27.55 21.8315C27.6836 21.6876 27.9732 21.4382 28.4054 21.0973C28.8304 20.7621 29.3736 20.3536 29.998 19.8961C31.2465 18.9815 32.8111 17.8777 34.3863 16.7853C37.5403 14.5981 40.719 12.4689 41.4761 12.0015L41.4761 12.0015L41.4794 11.9994C49.2138 7.11872 60.1897 7.59519 72.4014 14.83C84.1472 21.7931 94.7423 33.6498 102.362 47.2069C109.908 60.6318 114.515 75.6871 114.452 89.2504Z" fill="#CBE8CA" stroke="#0D0D0D" stroke-width="0.800725"/>
<path d="M92.1166 54.0399C100.337 68.6646 104.346 83.8124 104.199 96.4689C104.052 109.138 99.7488 119.224 91.4515 123.888C83.1542 128.552 72.3011 126.985 61.4018 120.526C50.513 114.072 39.6561 102.774 31.4355 88.1493C23.2148 73.5246 19.2061 58.3769 19.3531 45.7203C19.5003 33.0516 23.8033 22.9655 32.1006 18.3015C40.3978 13.6375 51.251 15.2043 62.1503 21.6637C73.0391 28.1169 83.8959 39.4152 92.1166 54.0399Z" fill="#F5FAF4" stroke="#0D0D0D" stroke-width="0.800725"/>
<path d="M68.6377 58.3347L68.9821 58.5389C74.2906 61.6858 78.9077 68.7991 82.1144 77.6114L82.1144 77.6114C84.4943 84.1528 86.1265 91.7261 86.6901 99.4068L86.7242 99.8715L86.3424 99.6452L83.4453 97.9278L83.1362 97.7445L83.107 97.3675C82.5686 90.4008 81.1022 83.6187 78.9851 77.8221L78.9846 77.8206C76.3355 70.524 72.7643 65.0125 68.9337 62.7417L68.933 62.7413C68.6121 62.5503 68.2915 62.3827 67.9728 62.2391C69.6697 65.0823 71.1826 68.3473 72.4694 71.8896C74.8493 78.4308 76.487 86.0073 77.0452 93.6854L77.0789 94.1495L76.6975 93.9234L73.8076 92.2103L73.4984 92.027L73.4693 91.65C72.9308 84.6833 71.4644 77.9012 69.3473 72.1046L69.3469 72.1035C67.8546 67.9995 66.0646 64.4436 64.0954 61.7149C63.1454 61.9017 62.2757 62.2717 61.5062 62.8165C61.9838 63.9337 62.4284 65.0577 62.8387 66.1848L62.8388 66.1849C65.2186 72.726 66.8563 80.3025 67.4199 87.9835L67.454 88.4482L67.0722 88.2219L64.1733 86.5034L63.8644 86.3202L63.835 85.9434C63.293 78.9741 61.8301 72.1942 59.7131 66.3977L59.7126 66.3965C59.5475 65.9422 59.3776 65.4952 59.2043 65.0539C59.0253 65.2855 58.8497 65.5277 58.676 65.782L58.6758 65.7823C56.4618 69.0121 54.853 73.9715 54.1627 80.2094L54.1253 80.547L53.8162 80.3637L50.9173 78.6453L50.5354 78.4189L50.5798 78.0007C51.3131 71.0887 53.0981 65.5413 55.5934 61.89C56.0679 61.1954 56.5842 60.5546 57.1403 59.9702C57.7162 59.3553 58.3456 58.8189 59.0242 58.3645C59.4179 58.0983 59.8307 57.8654 60.2613 57.6665C60.0707 57.5245 59.8791 57.3902 59.6869 57.2639C59.4354 57.0996 59.1833 56.9502 58.9315 56.8162L58.9226 56.8114L58.9136 56.8061L58.8961 56.7958C58.4748 56.5736 58.0556 56.3933 57.6427 56.2567C56.5805 55.9119 55.5663 55.8152 54.6467 55.9713L54.6439 55.9718L54.6439 55.9718C52.5676 56.2908 50.6515 57.7047 49.0364 60.0678L49.0363 60.0679C46.8239 63.2988 45.2134 68.2573 44.5231 74.4951L44.4857 74.8327L44.1766 74.6494L41.2795 72.932L40.8977 72.7057L40.942 72.2875C41.6735 65.3743 43.4603 59.8278 45.9594 56.1787C47.3105 54.1986 48.8795 52.7655 50.6176 51.9552C50.2994 51.7209 49.9787 51.5084 49.6573 51.319L49.6562 51.3184C45.8311 49.0509 42.1786 50.2886 39.3967 54.3577L39.3966 54.3578C37.1843 57.5888 35.5738 62.5472 34.8834 68.785L34.8461 69.1226L34.5369 68.9394L31.6416 67.223L31.2599 66.9967L31.3041 66.5785C32.0356 59.6653 33.8225 54.1189 36.3215 50.4698C36.3215 50.4698 36.3215 50.4697 36.3215 50.4697L36.6202 50.8428L68.6377 58.3347ZM68.6377 58.3347L68.6376 58.339L68.6377 58.3347ZM49.6608 50.9181C50.0959 51.1744 50.5296 51.4712 50.9579 51.8054L49.6608 50.9181ZM49.6608 50.9181C45.6496 48.5402 41.9041 49.8801 39.0979 53.9848L49.6608 50.9181Z" fill="#CBE8CA" stroke="black" stroke-width="0.800725"/>
</svg>
