<svg width="237" height="239" viewBox="0 0 237 239" fill="none" xmlns="http://www.w3.org/2000/svg">
<path d="M31.3725 118.385C30.7614 102.231 36.031 90.584 45.0295 84.7597L45.0218 84.7558L45.1025 84.7045L45.1063 84.7064L53.357 79.4403L53.3529 79.448C62.4115 73.6203 75.2323 73.6911 89.6809 81.0452C118.536 95.732 142.907 133.887 144.128 166.271C144.737 182.438 139.463 194.112 130.434 199.921L122.104 205.234C113.054 211.037 100.239 210.955 85.8174 203.614C56.9699 188.931 32.591 150.773 31.3705 118.389L31.3725 118.385Z" fill="#CBE8CA"/>
<path d="M85.6887 203.815C56.6416 189.03 31.9988 150.484 30.764 117.889C30.1596 101.956 35.1522 89.7099 44.8291 83.39C44.8526 83.373 44.8762 83.3559 44.9018 83.335C44.9332 83.3122 44.9764 83.2857 45.0233 83.2612L53.2379 78.0187C53.281 77.9922 53.3221 77.9695 53.367 77.9488C63.1499 71.7312 76.3858 72.3004 90.6552 79.5632C119.702 94.3477 144.339 132.895 145.576 165.487C146.186 181.51 141.148 193.796 131.376 200.077L123.075 205.372C113.281 211.647 100.002 211.095 85.6946 203.813L85.6887 203.815ZM46.3345 85.2755C46.3031 85.2982 46.2755 85.3229 46.2422 85.3399C37.263 91.1477 32.6292 102.66 33.2003 117.757C34.4099 149.585 58.4664 187.222 86.8294 201.658C100.331 208.53 112.741 209.129 121.766 203.345L130.065 198.053C139.069 192.263 143.712 180.741 143.132 165.615C141.923 133.787 117.87 96.1524 89.5068 81.7162C75.9826 74.8326 63.5628 74.2428 54.5353 80.0502C54.4922 80.0767 54.449 80.1032 54.4021 80.1277L46.3345 85.2755Z" fill="#292E28"/>
<path d="M144.528 156.983C145.051 160.168 145.444 163.327 145.562 166.424C146.19 182.685 140.89 194.422 131.803 200.256L123.42 205.593C114.311 211.421 101.406 211.326 86.8755 203.93C84.0667 202.501 81.3168 200.793 78.611 198.946L144.523 156.985L144.528 156.983Z" fill="#292E28"/>
<path d="M85.9405 204.208C83.3781 202.904 80.6588 201.262 77.618 199.19C77.2861 198.962 77.0894 198.58 77.1007 198.173C77.1137 197.772 77.3276 197.395 77.6736 197.173L143.084 155.445C143.43 155.223 143.863 155.186 144.239 155.348C144.604 155.504 144.879 155.848 144.939 156.249C145.541 159.936 145.871 162.961 145.972 165.767C146.581 181.832 141.529 194.151 131.732 200.45L123.41 205.761C113.592 212.054 100.282 211.503 85.9425 204.204L85.9405 204.208ZM80.5405 198.204C82.892 199.751 85.0446 201.012 87.0823 202.049C100.614 208.937 113.053 209.535 122.1 203.734L130.42 198.427C139.446 192.62 144.103 181.066 143.524 165.901C143.44 163.662 143.207 161.27 142.796 158.481L80.5367 198.202L80.5405 198.204Z" fill="#292E28"/>
<path d="M94.4331 198.515C65.6245 183.857 41.3363 145.623 40.1943 113.13C39.0504 80.6319 61.4842 66.1841 90.2984 80.8503C119.113 95.5165 143.401 133.75 144.543 166.243C145.689 198.738 123.253 213.189 94.4331 198.515Z" fill="white"/>
<path d="M93.3129 198.698L93.2977 198.69C64.286 183.923 39.744 145.317 38.5816 112.627C38.0096 96.4975 43.1085 84.1453 52.9507 77.8371C62.7575 71.5499 76.0165 72.09 90.28 79.3499C119.292 94.1166 143.839 132.73 145.002 165.421C145.576 181.546 140.475 193.903 130.635 200.207C120.83 206.49 107.573 205.956 93.3091 198.696L93.3129 198.698ZM89.1364 81.5121C75.6707 74.6582 63.2765 74.0767 54.2415 79.8663C45.1712 85.6768 40.4757 97.2661 41.016 112.494C42.1491 144.415 66.1127 182.109 94.4297 196.522L94.4565 196.536C107.918 203.388 120.307 203.971 129.344 198.178C138.41 192.365 143.11 180.778 142.567 165.554C141.43 133.63 117.465 95.931 89.1364 81.5121Z" fill="#292E28"/>
<path d="M94.592 181.848C115.271 192.369 131.273 182.185 130.332 159.088C129.395 135.994 111.875 108.733 91.1972 98.2181C70.5201 87.6936 54.5205 97.8833 55.4554 120.972C56.3959 144.068 73.9187 171.326 94.5959 181.85L94.592 181.848ZM93.9155 165.213C81.4639 158.876 70.9148 142.468 70.3484 128.557C69.7859 114.648 79.4182 108.513 91.866 114.849C104.314 121.185 114.873 137.592 115.437 151.507C116.005 165.414 106.367 171.551 93.9155 165.213ZM93.2428 148.581C89.0167 146.43 85.4376 140.861 85.2473 136.141C85.0531 131.419 88.3165 129.333 92.5503 131.487C96.784 133.642 100.352 139.205 100.542 143.925C100.732 148.646 97.4632 150.724 93.2389 148.579L93.2428 148.581Z" fill="#CBE8CA"/>
<path d="M93.466 182.023C72.578 171.391 54.8053 143.775 53.8458 120.458C53.3691 108.889 57.0291 100.033 64.1447 95.5251C71.2388 91.0303 80.8408 91.4557 91.1797 96.7181C112.079 107.356 129.844 134.968 130.794 158.276C131.269 169.848 127.611 178.7 120.499 183.21C113.405 187.705 103.805 187.285 93.4602 182.025L93.466 182.023ZM90.062 98.8591C80.5146 93.9995 71.7784 93.5335 65.445 97.5442C59.0959 101.566 55.8428 109.662 56.2773 120.338C57.2036 142.893 74.3954 169.606 94.5952 179.888C104.131 184.741 112.869 185.204 119.199 181.191C125.548 177.169 128.801 169.073 128.363 158.396C127.44 135.852 110.256 109.142 90.0561 98.8609L90.062 98.8591ZM92.7862 165.48C80.069 159.007 69.251 142.199 68.6715 128.008C68.3781 120.856 70.6624 115.371 75.0992 112.561C79.5261 109.761 85.4763 110.007 91.8616 113.257C104.579 119.73 115.401 136.54 115.98 150.731C116.278 157.876 113.993 163.36 109.554 166.174C105.129 168.981 99.1753 168.732 92.79 165.482L92.7862 165.48ZM90.7265 115.394C85.148 112.555 80.0598 112.266 76.3994 114.58C72.7292 116.905 70.8498 121.633 71.103 127.889C71.6551 141.315 81.8885 157.219 93.9174 163.341C99.4998 166.183 104.59 166.468 108.25 164.153C111.921 161.829 113.8 157.101 113.545 150.848C112.996 137.424 102.759 121.519 90.7265 115.394ZM92.1101 148.939C87.4912 146.588 83.7105 140.708 83.4993 135.556C83.3849 132.836 84.2917 130.717 86.0496 129.605C87.8036 128.491 90.1097 128.562 92.5453 129.802C97.1565 132.149 100.939 138.026 101.158 143.182C101.269 145.9 100.364 148.014 98.606 149.127C96.854 150.237 94.5439 150.173 92.1121 148.936L92.1101 148.939ZM91.4141 131.941C89.7814 131.11 88.3412 130.998 87.3499 131.624C86.3585 132.251 85.8548 133.607 85.9308 135.436C86.1003 139.666 89.4522 144.872 93.2375 146.798C94.8683 147.624 96.3124 147.738 97.2999 147.109C98.2913 146.483 98.7987 145.129 98.7208 143.303C98.5436 139.069 95.1956 133.865 91.4141 131.941Z" fill="#292E28"/>
<path d="M179.022 74.395C171.221 79.307 163.514 91.857 163.461 95.5053C170.943 90.7934 178.428 86.0836 185.906 81.3697C185.954 77.7194 187.423 72.7271 189.98 67.494C182.496 72.2098 186.5 69.6811 179.022 74.395Z" fill="#CBE8CA"/>
<path d="M162.589 95.8142L162.558 95.7987C162.173 95.5877 161.936 95.1764 161.943 94.7339C162.034 90.4698 170.074 77.7983 177.827 72.8305L188.553 65.958C189.012 65.6636 189.616 65.7092 190.01 66.0601C190.413 66.411 190.524 66.996 190.287 67.4812C187.85 72.4658 186.412 77.2701 186.34 80.6569C186.332 81.0649 186.117 81.4449 185.769 81.6652L163.802 95.7483C163.432 95.9818 162.973 96.0099 162.585 95.8123L162.589 95.8142ZM186.463 70.1494L179.118 74.8551C173.024 78.7576 167.283 87.2523 165.201 92.0051L183.94 79.9919C184.112 77.2092 184.979 73.8155 186.459 70.1475L186.463 70.1494Z" fill="#292E28"/>
<path d="M91.0051 141.051C90.8219 140.958 90.6629 140.819 90.5436 140.632C90.1857 140.072 90.3594 139.322 90.9277 138.962L189.25 76.1865C189.816 75.8207 190.569 75.9813 190.927 76.5415C191.285 77.1017 191.114 77.8478 190.543 78.2117L92.2212 140.987C91.841 141.23 91.3754 141.24 91.0051 141.051Z" fill="#292E28"/>
<path d="M168.032 80.1921C160.37 85.0479 159.124 93.4265 162.052 95.1495C169.399 90.4919 176.748 85.84 184.092 81.1901C181.162 79.4709 179.265 76.6556 178.803 73.3834C171.446 78.0409 175.393 75.5462 168.032 80.1921Z" fill="white"/>
<path d="M162.094 95.4141C162.075 95.4045 162.053 95.393 162.03 95.3815C160.762 94.6359 160.058 93.1226 160.039 91.1181C160.01 87.4242 162.433 82.1294 167.915 78.6261L178.486 71.8957C178.831 71.6756 179.264 71.643 179.632 71.8062C180.025 71.9828 180.26 72.3167 180.314 72.7116C180.714 75.6023 182.342 78.0247 184.904 79.5293C185.261 79.7396 185.481 80.1187 185.483 80.5302C185.489 80.9436 185.272 81.3345 184.921 81.5565L163.293 95.3514C162.928 95.5808 162.47 95.6057 162.094 95.4141ZM178.313 74.8142L169.195 80.6231C164.494 83.6227 162.413 88.0274 162.438 91.0606C162.444 91.7986 162.582 92.413 162.826 92.8377L182.135 80.5202C180.308 79.0268 178.984 77.0502 178.315 74.8105L178.313 74.8142Z" fill="#292E28"/>
<path d="M189.272 90.4575C181.542 95.2789 166.833 96.8051 163.449 95.3152C170.862 90.6905 178.276 86.0716 185.685 81.4545C189.069 82.9444 194.272 83.7472 200.135 83.6951C192.713 88.3196 196.695 85.8425 189.276 90.4595L189.272 90.4575Z" fill="#CBE8CA"/>
<path d="M162.598 95.6348C162.225 95.4446 161.976 95.0745 161.94 94.6605C161.907 94.2237 162.124 93.8044 162.5 93.566L163.157 94.5782L162.609 93.4976L184.389 79.9054C184.735 79.6855 185.17 79.6585 185.548 79.8222C188.693 81.2036 193.691 81.9672 199.254 81.9112C199.797 81.9107 200.288 82.2564 200.442 82.7691C200.597 83.2818 200.393 83.8323 199.93 84.1167L189.237 90.7861C181.503 95.6118 166.592 97.4001 162.652 95.6622C162.633 95.6524 162.61 95.6406 162.591 95.6308L162.598 95.6348ZM185.174 82.2568L166.497 93.9108C171.706 94.0805 181.844 92.5641 187.924 88.7674L195.247 84.2004C191.28 83.9565 187.805 83.2902 185.176 82.253L185.174 82.2568Z" fill="#292E28"/>
<path d="M178.672 96.2726C170.973 101.212 162.787 98.8678 162.463 95.5077C169.843 90.7772 177.227 86.0488 184.603 81.3164C184.925 84.6804 186.688 87.5714 189.477 89.3425C182.103 94.0807 186.054 91.548 178.672 96.2726Z" fill="white"/>
<path d="M164.731 98.3725C163.072 97.528 162.082 96.2942 161.947 94.9055C161.907 94.4578 162.118 94.0132 162.506 93.7686L184.25 79.8137C184.603 79.5898 185.046 79.556 185.42 79.7323C185.787 79.9238 186.045 80.2664 186.084 80.68C186.364 83.6358 187.873 86.1274 190.336 87.6927C190.679 87.9106 190.881 88.2871 190.873 88.6909C190.87 89.1024 190.66 89.4806 190.31 89.7007L179.691 96.5145C174.009 100.161 168.08 100.077 164.727 98.3706L164.731 98.3725ZM164.602 95.2487C164.86 95.6007 165.291 95.9499 165.86 96.2391C168.512 97.5891 173.574 97.6257 178.423 94.5152L187.579 88.6423C185.833 87.1052 184.594 85.0776 184.011 82.7935L164.6 95.2524L164.602 95.2487Z" fill="#292E28"/>
<path d="M154.315 50.382C147.285 56.3241 141.546 69.8056 142.067 73.4286C148.814 67.7381 155.556 62.0455 162.294 56.3607C161.769 52.7356 162.45 47.5915 164.184 42.0536C157.443 47.7423 161.052 44.6913 154.315 50.382Z" fill="#CBE8CA"/>
<path d="M141.152 73.7338C140.803 73.5559 140.561 73.2201 140.511 72.8268C139.952 68.6137 146.045 54.9741 153.031 48.969L162.682 40.6781C163.098 40.324 163.711 40.288 164.151 40.5703C164.611 40.8623 164.807 41.4218 164.647 41.9356C162.974 47.2029 162.27 52.1467 162.713 55.5021C162.765 55.9012 162.608 56.3096 162.296 56.5766L142.52 73.5598C142.181 73.8514 141.706 73.9386 141.287 73.783C141.242 73.7653 141.198 73.7476 141.156 73.7261L141.152 73.7338ZM161.229 45.1142L154.623 50.786C149.137 55.5091 144.697 64.6936 143.344 69.6787L160.215 55.1877C159.961 52.4166 160.317 48.9408 161.233 45.1162L161.229 45.1142Z" fill="#292E28"/>
<path d="M76.6055 128.802C76.4753 128.736 76.3496 128.643 76.2475 128.523C75.8109 128.025 75.8651 127.261 76.3788 126.822L164.584 51.0431C165.098 50.6044 165.865 50.652 166.305 51.1517C166.744 51.6551 166.682 52.4158 166.174 52.8526L77.9686 128.632C77.5789 128.965 77.0363 129.017 76.6075 128.798L76.6055 128.802Z" fill="#292E28"/>
<path d="M144.433 57.1997C137.447 63.2538 137.404 71.8769 140.592 73.1635C147.308 67.368 154.009 61.5705 160.721 55.7828C157.523 54.4961 155.207 51.9507 154.267 48.7193C147.548 54.5128 151.15 51.4101 144.435 57.1958L144.433 57.1997Z" fill="white"/>
<path d="M140.43 73.3342C139.115 72.6652 138.267 71.1614 138.05 69.1075C137.694 65.7355 139.087 60.2097 144.21 55.7396L153.84 47.3728C154.153 47.0987 154.58 46.9997 154.975 47.108C155.375 47.2144 155.674 47.5223 155.788 47.9163C156.59 50.7262 158.585 52.9353 161.361 54.0566C161.739 54.2052 162.023 54.5592 162.085 54.9704C162.148 55.3874 161.988 55.8077 161.671 56.0895L141.961 73.2372C141.609 73.5401 141.121 73.6276 140.701 73.4577C140.671 73.4423 140.468 73.3535 140.433 73.3362L140.43 73.3342ZM154.077 50.3335L145.776 57.5502C141.662 61.1404 140.146 65.7805 140.462 68.7913C140.551 69.6501 140.796 70.3498 141.132 70.7884L158.724 55.4808C156.667 54.2629 155.063 52.4868 154.081 50.3354L154.077 50.3335Z" fill="#292E28"/>
<path d="M167.567 64.7965C160.545 70.7534 146.053 74.4155 142.435 73.4037C149.17 67.6938 155.892 61.9817 162.623 56.2796C166.227 57.2795 171.559 57.3419 177.425 56.4335C170.685 62.1511 174.296 59.0885 167.569 64.7926L167.567 64.7965Z" fill="#CBE8CA"/>
<path d="M141.594 73.7288C141.272 73.5647 141.038 73.2712 140.959 72.9165C140.858 72.4827 141.014 72.0295 141.356 71.7384L161.207 54.8259C161.52 54.5593 161.951 54.4636 162.354 54.5769C165.706 55.5083 170.81 55.5401 176.349 54.6653C176.89 54.573 177.426 54.8554 177.659 55.3468C177.894 55.8344 177.767 56.4187 177.353 56.7741L167.653 65.0308C160.642 71.0003 146.017 74.9828 141.828 73.8185C141.746 73.7962 141.668 73.7663 141.594 73.7288ZM162.334 57.0748L145.395 71.4995C150.624 70.9028 160.525 67.8952 166.038 63.2016L172.672 57.5534C168.678 57.8928 165.115 57.7348 162.334 57.0748Z" fill="#292E28"/>
<path d="M159.323 71.0618C152.323 76.9061 143.568 75.6028 142.655 72.3139C149.37 66.7113 156.081 61.1068 162.787 55.5098C163.695 58.8063 165.987 61.443 169.147 62.8582C162.446 68.4631 166.036 65.463 159.323 71.0618Z" fill="white"/>
<path d="M143.583 74.5364C142.309 73.8878 141.475 72.9676 141.182 71.8844C141.058 71.4449 141.207 70.9771 141.559 70.6847L161.244 54.1323C161.565 53.8619 162.042 53.7469 162.453 53.8755C162.863 53.9983 163.211 54.2946 163.317 54.7014C164.047 57.4084 165.832 59.5988 168.345 60.8782L168.815 61.103C169.211 61.2616 169.468 61.6261 169.529 62.0244C169.593 62.4284 169.443 62.8335 169.124 63.1L159.483 71.2097C153.986 75.8329 147.188 76.3712 143.579 74.5344L143.583 74.5364ZM143.929 71.8812C145.613 73.5776 152.243 74.1068 157.856 69.3854L166.171 62.398C164.116 61.0943 162.532 59.2538 161.558 57.0562L143.929 71.8812Z" fill="#292E28"/>
<path d="M194.454 108.377C186.038 111.792 176.356 122.61 175.659 126.139C183.736 122.865 191.802 119.585 199.879 116.311C200.573 112.786 202.884 108.212 206.281 103.582C198.212 106.85 202.531 105.094 194.46 108.375L194.454 108.377Z" fill="#CBE8CA"/>
<path d="M175.78 126.44C175.704 126.401 175.637 126.357 175.573 126.306C175.23 126.031 175.072 125.588 175.163 125.163C175.995 121.038 186.003 110.143 194.388 106.688L205.992 101.912C206.486 101.702 207.062 101.852 207.388 102.266C207.719 102.682 207.725 103.267 207.409 103.702C204.172 108.123 201.947 112.539 201.292 115.805C201.216 116.201 200.941 116.533 200.562 116.688L176.787 126.48C176.452 126.615 176.083 126.599 175.774 126.442L175.78 126.44ZM203.237 105.611L195.287 108.887C188.694 111.604 181.648 118.834 178.795 123.088L199.078 114.736C199.724 112.066 201.162 108.922 203.235 105.615L203.237 105.611Z" fill="#292E28"/>
<path d="M96.9268 158.993C96.6781 158.866 96.4776 158.657 96.3656 158.383C96.114 157.765 96.4158 157.057 97.0423 156.8L204.908 112.345C205.536 112.084 206.242 112.375 206.493 112.992C206.745 113.609 206.443 114.317 205.817 114.575L97.9512 159.03C97.6038 159.173 97.2329 159.148 96.9268 158.993Z" fill="#292E28"/>
<path d="M185.481 112.473C176.94 115.923 174.187 124.044 176.813 126.296C185.007 122.993 193.206 119.697 201.4 116.394C198.766 114.149 197.367 111.001 197.488 107.648C189.284 110.951 193.682 109.184 185.481 112.473Z" fill="white"/>
<path d="M175.902 126.585C175.814 126.54 175.735 126.485 175.66 126.423C174.521 125.449 174.084 123.811 174.425 121.809C175.053 118.12 178.42 113.288 184.529 110.8L196.301 106.03C196.69 105.876 197.114 105.924 197.465 106.155C197.807 106.387 198.002 106.775 197.989 107.187C197.875 110.142 199.078 112.853 201.385 114.821C201.704 115.095 201.854 115.513 201.783 115.924C201.716 116.337 201.434 116.685 201.038 116.844L176.93 126.627C176.593 126.764 176.217 126.745 175.906 126.587L175.902 126.585ZM195.611 108.913L185.456 113.024C180.215 115.154 177.352 119.165 176.835 122.199C176.712 122.93 176.74 123.57 176.905 124.034L198.426 115.303C196.857 113.479 195.877 111.262 195.608 108.911L195.611 108.913Z" fill="#292E28"/>
<path d="M201.888 125.927C193.463 129.4 178.852 128.463 175.837 126.426C183.922 123.097 192.013 119.774 200.099 116.445C203.102 118.475 208.018 120.14 213.737 121.063C205.644 124.388 209.98 122.605 201.888 125.927Z" fill="#CBE8CA"/>
<path d="M175.342 126.955C175.156 126.86 174.994 126.763 174.845 126.663C174.478 126.415 174.281 125.994 174.333 125.557C174.382 125.117 174.668 124.742 175.08 124.574L198.976 114.819C199.354 114.662 199.787 114.701 200.126 114.936C202.959 116.841 207.707 118.431 213.093 119.307C213.621 119.394 214.034 119.82 214.087 120.349C214.145 120.88 213.843 121.387 213.34 121.59L201.672 126.344C193.543 129.667 179.512 129.072 175.344 126.951L175.342 126.955ZM199.294 117.267L178.915 125.588C184.107 126.658 194.404 126.734 200.757 124.138L208.742 120.885C204.945 119.981 201.666 118.728 199.291 117.265L199.294 117.267Z" fill="#292E28"/>
<path d="M192.521 129.386C184.041 132.875 176.372 129.079 176.639 125.699C184.774 122.352 192.897 118.999 201.032 115.651C200.75 119.034 201.981 122.208 204.431 124.478C196.306 127.825 200.653 126.037 192.521 129.386Z" fill="white"/>
<path d="M178.698 129.72C176.315 128.506 174.975 126.706 175.115 124.901C175.147 124.447 175.444 124.051 175.87 123.874L199.836 114.028C200.227 113.872 200.67 113.92 201.009 114.164C201.344 114.407 201.529 114.804 201.498 115.219C201.249 118.188 202.306 120.925 204.464 122.92C204.765 123.199 204.897 123.606 204.823 124.01C204.746 124.412 204.47 124.752 204.09 124.904L192.389 129.714C186.801 132.015 181.652 131.223 178.698 129.72ZM177.679 125.717C178.722 127.86 184.6 130.338 191.482 127.505L201.575 123.355C200.114 121.512 199.246 119.285 199.076 116.924L177.681 125.713L177.679 125.717Z" fill="#292E28"/>
</svg>
