<svg width="600" height="388" viewBox="0 0 600 388" fill="none" xmlns="http://www.w3.org/2000/svg">
<path d="M58.6721 366.005C56.6936 366.005 54.8144 365.551 53.3855 364.725C51.7793 363.8 50.8965 362.509 50.8965 361.087C50.8965 359.666 51.7793 358.382 53.3784 357.46C56.2256 355.811 61.0902 355.811 63.948 357.46C65.5506 358.386 66.4335 359.68 66.4335 361.098C66.4335 362.516 65.5541 363.803 63.9551 364.729C62.5262 365.551 60.6505 366.005 58.6756 366.005H58.6721ZM58.6579 358.198C57.0517 358.198 55.4916 358.566 54.3854 359.205C53.4458 359.744 52.9104 360.431 52.9104 361.087C52.9104 361.743 53.4493 362.435 54.3889 362.977C56.6085 364.257 60.725 364.257 62.941 362.977C63.877 362.438 64.416 361.75 64.416 361.094C64.416 360.439 63.8771 359.747 62.9375 359.205C61.8277 358.563 60.2676 358.194 58.6579 358.194V358.198Z" fill="white"/>
<path d="M99.4721 77.0999C97.4901 77.0999 95.6145 76.646 94.1856 75.8199C92.5794 74.898 91.6965 73.6074 91.6965 72.1892C91.6965 70.7709 92.5759 69.4803 94.182 68.5585C97.0327 66.9133 101.894 66.9097 104.748 68.5585C106.354 69.4874 107.234 70.778 107.234 72.1963C107.234 73.6145 106.354 74.9016 104.752 75.827C103.326 76.6496 101.451 77.1034 99.4757 77.1034L99.4721 77.0999ZM99.4579 69.296C97.8518 69.296 96.2952 69.6647 95.1854 70.3029C94.2458 70.8418 93.7105 71.5297 93.7105 72.1856C93.7105 72.8416 94.2494 73.5294 95.189 74.0719C97.4121 75.359 101.525 75.359 103.745 74.079C104.677 73.5401 105.216 72.8522 105.216 72.1927C105.216 71.5332 104.677 70.8454 103.738 70.2994C102.628 69.6611 101.068 69.2924 99.4615 69.2924L99.4579 69.296Z" fill="white"/>
<path d="M508.649 296.879C506.667 296.879 504.791 296.425 503.362 295.599C501.756 294.674 500.873 293.38 500.873 291.961C500.873 290.543 501.756 289.256 503.359 288.334C506.206 286.685 511.071 286.685 513.925 288.334C515.531 289.26 516.414 290.55 516.414 291.972C516.414 293.394 515.531 294.677 513.928 295.599C512.503 296.422 510.631 296.876 508.649 296.876V296.879ZM508.638 289.072C507.028 289.072 505.476 289.44 504.366 290.079C503.43 290.618 502.894 291.305 502.894 291.961C502.894 292.617 503.433 293.309 504.373 293.851C506.592 295.135 510.705 295.131 512.925 293.851C513.861 293.312 514.396 292.624 514.396 291.968C514.396 291.313 513.857 290.621 512.918 290.079C511.808 289.437 510.248 289.068 508.638 289.068V289.072Z" fill="white"/>
<path d="M463.821 22.2904C461.843 22.2904 459.964 21.8366 458.535 21.0105C456.929 20.0851 456.046 18.7944 456.046 17.3726C456.046 15.9508 456.925 14.6673 458.528 13.7419C461.378 12.0932 466.239 12.0932 469.097 13.7419C470.7 14.6673 471.583 15.9615 471.583 17.3797C471.583 18.798 470.703 20.0851 469.101 21.0069C467.675 21.8295 465.8 22.2833 463.821 22.2833V22.2904ZM463.807 14.4829C462.197 14.4829 460.641 14.8517 459.535 15.4899C458.595 16.0324 458.06 16.7167 458.06 17.3726C458.06 18.0286 458.599 18.72 459.538 19.2625C461.758 20.5424 465.874 20.5424 468.09 19.2625C469.026 18.72 469.562 18.0357 469.562 17.3797C469.562 16.7238 469.023 16.0324 468.083 15.4864C466.973 14.8446 465.413 14.4759 463.807 14.4759V14.4829Z" fill="white"/>
<path d="M69.8062 211.085C69.7318 211.085 69.6573 211.078 69.5828 211.061C65.8032 210.203 60.3819 210.21 56.6625 211.057C56.2512 211.146 55.84 210.983 55.6059 210.639C55.3719 210.295 55.3719 209.848 55.6059 209.504C56.2583 208.547 56.5987 207.412 56.5952 206.221C56.5952 205.019 56.2512 203.884 55.5988 202.927C55.3648 202.583 55.3648 202.133 55.5988 201.792C55.8329 201.448 56.2548 201.282 56.6555 201.377C60.4528 202.243 65.8989 202.211 69.5686 201.385C69.9658 201.292 70.3877 201.459 70.6217 201.799C70.8557 202.143 70.8557 202.59 70.6217 202.934C69.9728 203.891 69.6325 205.029 69.636 206.221C69.636 207.341 69.9338 208.401 70.5012 209.316C70.7174 209.5 70.8557 209.777 70.8557 210.086C70.8557 210.649 70.3912 211.149 69.8239 211.092H69.7991L69.8062 211.085ZM63.0872 208.391C64.8246 208.391 66.4946 208.504 68.0263 208.728C67.7639 207.93 67.6292 207.086 67.6292 206.217C67.6256 205.352 67.7604 204.508 68.0228 203.71C64.9451 204.15 61.2187 204.136 58.2155 203.71C58.4779 204.508 58.6162 205.352 58.6162 206.217C58.6162 207.079 58.485 207.926 58.2191 208.724C59.7366 208.508 61.3853 208.394 63.0872 208.394V208.391Z" fill="white"/>
<path d="M382.29 288.525C382.216 288.525 382.141 288.518 382.067 288.5C378.294 287.646 372.876 287.649 369.146 288.497C368.735 288.589 368.324 288.422 368.09 288.082C367.856 287.738 367.856 287.288 368.09 286.947C368.742 285.993 369.079 284.859 369.075 283.668C369.075 282.466 368.731 281.327 368.079 280.374C367.845 280.03 367.845 279.579 368.079 279.239C368.313 278.895 368.728 278.732 369.136 278.824C371.001 279.246 373.21 279.47 375.521 279.47C377.975 279.47 380.184 279.25 382.056 278.828C382.46 278.736 382.879 278.902 383.109 279.246C383.343 279.59 383.343 280.037 383.109 280.381C382.46 281.331 382.12 282.466 382.12 283.664C382.123 284.781 382.421 285.845 382.985 286.756C383.201 286.94 383.339 287.217 383.339 287.525C383.339 288.093 382.914 288.55 382.308 288.532H382.283L382.29 288.525ZM375.606 285.83C377.319 285.83 378.982 285.944 380.51 286.167C380.248 285.373 380.109 284.526 380.109 283.661C380.109 282.792 380.241 281.948 380.503 281.154C377.383 281.6 373.646 281.572 370.696 281.154C370.958 281.951 371.096 282.795 371.096 283.664C371.096 284.529 370.965 285.373 370.703 286.171C372.227 285.951 373.89 285.838 375.606 285.838V285.83Z" fill="white"/>
<path d="M559.837 100.571C559.762 100.571 559.691 100.564 559.613 100.547C555.848 99.6922 550.42 99.6957 546.697 100.54C546.285 100.628 545.874 100.465 545.64 100.125C545.41 99.7808 545.41 99.3305 545.64 98.9901C546.289 98.0399 546.629 96.9053 546.626 95.7104C546.626 94.5084 546.278 93.3703 545.629 92.4165C545.395 92.0726 545.395 91.6223 545.629 91.2819C545.863 90.938 546.271 90.7713 546.686 90.8671C548.551 91.289 550.76 91.5124 553.072 91.5124C555.525 91.5124 557.734 91.2925 559.606 90.8706C560.014 90.7784 560.429 90.9451 560.663 91.289C560.897 91.6329 560.893 92.0832 560.663 92.4236C560.014 93.3667 559.674 94.5049 559.674 95.7069C559.677 96.8237 559.975 97.891 560.542 98.7951C560.759 98.9795 560.897 99.2561 560.897 99.5645C560.897 100.128 560.447 100.653 559.865 100.571H559.84H559.837ZM553.153 97.8768C554.866 97.8768 556.529 97.9903 558.06 98.2136C557.798 97.4194 557.663 96.5756 557.66 95.7104C557.66 94.8417 557.794 93.9943 558.057 93.2001C554.93 93.6433 551.196 93.6185 548.246 93.2001C548.508 93.9979 548.647 94.8417 548.647 95.7104C548.647 96.5756 548.515 97.4194 548.257 98.2136C549.778 97.9974 551.441 97.8839 553.16 97.8839L553.153 97.8768Z" fill="white"/>
<path d="M263.102 66.5111C263.028 66.5111 262.95 66.504 262.879 66.4863C259.11 65.6318 253.685 65.6318 249.962 66.4828C249.554 66.575 249.14 66.4083 248.906 66.0679C248.675 65.724 248.675 65.2737 248.906 64.9334C249.558 63.9796 249.898 62.845 249.895 61.6536C249.895 60.4517 249.551 59.3135 248.898 58.3597C248.668 58.0158 248.668 57.5655 248.898 57.2251C249.132 56.8812 249.544 56.711 249.955 56.8103C251.82 57.2358 254.029 57.4591 256.341 57.4591C258.794 57.4591 261.003 57.2358 262.875 56.8174C263.276 56.7252 263.701 56.8918 263.932 57.2358C264.166 57.5797 264.162 58.0265 263.932 58.3704C263.283 59.3206 262.939 60.4552 262.946 61.6536C262.946 62.7705 263.248 63.8342 263.808 64.7454C264.024 64.9298 264.162 65.2063 264.162 65.5148C264.162 66.0821 263.762 66.536 263.131 66.5253H263.106L263.102 66.5111ZM256.419 63.8165C258.131 63.8165 259.791 63.9299 261.322 64.1498C261.06 63.3555 260.925 62.5117 260.925 61.643C260.925 60.7743 261.056 59.9304 261.319 59.1362C258.195 59.583 254.462 59.5546 251.512 59.1362C251.774 59.934 251.909 60.7779 251.909 61.643C251.912 62.5081 251.777 63.352 251.515 64.1498C253.04 63.9299 254.703 63.8165 256.422 63.8165H256.419Z" fill="white"/>
<path d="M207.815 387.246C207.259 387.246 206.805 386.796 206.805 386.24L206.798 375.33C206.798 374.773 207.252 374.319 207.805 374.319C208.361 374.319 208.812 374.769 208.812 375.326L208.819 386.236C208.819 386.793 208.369 387.243 207.812 387.243L207.815 387.246Z" fill="white"/>
<path d="M217.261 381.797H198.359C197.802 381.793 197.352 381.339 197.352 380.783C197.352 380.226 197.802 379.776 198.359 379.776L217.261 379.783C217.817 379.783 218.268 380.233 218.268 380.79C218.268 381.346 217.817 381.797 217.261 381.797Z" fill="white"/>
<path d="M589.044 216.542C588.488 216.542 588.034 216.092 588.034 215.535L588.027 204.625C588.027 204.068 588.477 203.615 589.034 203.615C589.59 203.615 590.041 204.065 590.041 204.621L590.048 215.531C590.048 216.088 589.597 216.542 589.041 216.542H589.044Z" fill="white"/>
<path d="M598.493 211.092H579.591C579.034 211.088 578.584 210.635 578.584 210.078C578.584 209.521 579.038 209.071 579.591 209.071L598.493 209.078C599.049 209.078 599.5 209.528 599.5 210.085C599.5 210.642 599.049 211.092 598.493 211.092Z" fill="white"/>
<path d="M338.021 13.5507C337.464 13.5507 337.014 13.1004 337.014 12.5437L337.007 1.6338C337.007 1.07713 337.453 0.623291 338.014 0.623291C338.57 0.623291 339.024 1.07359 339.024 1.63025L339.031 12.5402C339.031 13.0968 338.577 13.5471 338.024 13.5471L338.021 13.5507Z" fill="white"/>
<path d="M347.469 8.10072H328.568C328.011 8.09717 327.561 7.64334 327.561 7.08667C327.561 6.53001 328.011 6.07971 328.568 6.07971H347.469C348.026 6.08326 348.476 6.53709 348.476 7.09376C348.476 7.65042 348.026 8.10072 347.469 8.10072Z" fill="white"/>
<path d="M11.3988 192.357C10.8422 192.357 10.3919 191.907 10.3919 191.35L10.3848 180.436C10.3848 179.88 10.8351 179.429 11.3917 179.429C11.9484 179.429 12.4022 179.88 12.4022 180.436V191.35C12.4058 191.907 11.9555 192.357 11.3953 192.357H11.3988Z" fill="white"/>
<path d="M20.851 186.9L1.94568 186.893C1.38901 186.893 0.938721 186.443 0.938721 185.886C0.938721 185.33 1.39256 184.879 1.94568 184.879H20.851C21.4077 184.883 21.858 185.337 21.858 185.893C21.858 186.45 21.4077 186.9 20.851 186.9Z" fill="white"/>
<g opacity="0.2">
<path d="M285.512 79.4799L397.143 15.0344L508.639 79.409V154.435L397.019 218.88L285.512 154.509V79.4799Z" fill="#0D0D0D"/>
<path d="M397.021 219.886C396.847 219.886 396.673 219.84 396.517 219.751L285.011 155.38C284.702 155.199 284.507 154.866 284.507 154.508V79.4824C284.507 79.1243 284.699 78.7874 285.011 78.6101L396.638 14.1647C396.953 13.9838 397.333 13.9838 397.648 14.1647L509.144 78.5357C509.453 78.7165 509.648 79.0498 509.648 79.4079V154.434C509.648 154.792 509.456 155.125 509.144 155.306L397.524 219.751C397.368 219.84 397.194 219.886 397.021 219.886ZM286.521 153.927L397.021 217.716L507.634 153.856V79.9929L397.145 16.2034L286.525 80.0639V153.927H286.521Z" fill="#0D0D0D"/>
<path d="M397.019 143.854L508.639 79.409L397.143 15.0344L285.512 79.4799L397.019 143.854Z" fill="white"/>
<path d="M397.021 144.86C396.847 144.86 396.673 144.814 396.517 144.726L285.011 80.3546C284.702 80.1738 284.507 79.8405 284.507 79.4824C284.507 79.1243 284.699 78.7874 285.011 78.6101L396.638 14.1647C396.953 13.9838 397.333 13.9838 397.648 14.1647L509.144 78.5357C509.453 78.7165 509.648 79.0498 509.648 79.4079C509.648 79.766 509.456 80.0993 509.144 80.2801L397.524 144.726C397.368 144.814 397.194 144.86 397.021 144.86ZM287.531 79.4824L397.021 142.69L506.623 79.4079L397.141 16.1999L287.531 79.4824Z" fill="#0D0D0D"/>
<path d="M397.019 218.879V143.854L285.512 79.4792V154.508L397.019 218.879Z" fill="#CBE8CA"/>
<path d="M397.021 219.887C396.847 219.887 396.673 219.84 396.517 219.752L285.011 155.381C284.702 155.2 284.507 154.867 284.507 154.509V79.483C284.507 79.1248 284.699 78.788 285.011 78.6107C285.326 78.4299 285.705 78.4299 286.021 78.6107L397.528 142.982C397.84 143.163 398.031 143.496 398.031 143.854V218.88C398.031 219.241 397.84 219.575 397.528 219.752C397.372 219.84 397.198 219.887 397.024 219.887H397.021ZM286.521 153.927L396.014 217.135V144.435L286.521 81.2274V153.927Z" fill="#0D0D0D"/>
</g>
<path d="M164.616 176.107L276.24 111.662L387.736 176.033V224.236L276.119 288.681L164.616 224.31V176.107Z" fill="#0D0D0D"/>
<path d="M276.117 289.692C275.94 289.692 275.77 289.646 275.614 289.557L164.111 225.186C163.799 225.005 163.607 224.672 163.607 224.314V176.111C163.607 175.749 163.799 175.416 164.111 175.239L275.731 110.793C276.043 110.613 276.426 110.613 276.738 110.793L388.234 175.161C388.549 175.342 388.737 175.675 388.737 176.033V224.24C388.737 224.598 388.546 224.931 388.234 225.112L276.614 289.557C276.458 289.646 276.287 289.692 276.11 289.692H276.117ZM165.625 223.733L276.117 287.522L386.727 223.662V176.618L276.238 112.832L165.625 176.696V223.736V223.733Z" fill="#0D0D0D"/>
<path d="M276.119 240.478L387.736 176.033L276.24 111.662L164.616 176.107L276.119 240.478Z" fill="white"/>
<path d="M276.117 241.489C275.94 241.489 275.77 241.443 275.614 241.354L164.111 176.983C163.799 176.803 163.607 176.469 163.607 176.111C163.607 175.753 163.799 175.416 164.111 175.239L275.731 110.793C276.043 110.613 276.426 110.613 276.738 110.793L388.234 175.161C388.549 175.342 388.737 175.675 388.737 176.033C388.737 176.391 388.546 176.728 388.234 176.905L276.614 241.354C276.458 241.443 276.287 241.489 276.11 241.489H276.117ZM166.632 176.111L276.117 239.319L385.72 176.037L276.238 112.832L166.632 176.115V176.111Z" fill="#0D0D0D"/>
<path d="M276.119 288.682V240.479L164.616 176.108V224.311L276.119 288.682Z" fill="#CBE8CA"/>
<path d="M276.117 289.692C275.94 289.692 275.77 289.645 275.614 289.557L164.111 225.186C163.799 225.005 163.607 224.672 163.607 224.314V176.111C163.607 175.749 163.799 175.416 164.111 175.238C164.423 175.058 164.806 175.058 165.118 175.238L276.617 239.609C276.933 239.79 277.121 240.124 277.121 240.482V288.685C277.121 289.043 276.929 289.376 276.617 289.557C276.461 289.645 276.291 289.692 276.114 289.692H276.117ZM165.625 223.732L275.11 286.94V241.063L165.625 177.855V223.732Z" fill="#0D0D0D"/>
<path d="M43.7122 278.081L155.336 213.635L266.832 278.006V294.04L155.212 358.485L43.7122 294.114V278.081Z" fill="#0D0D0D"/>
<path d="M155.211 359.496C155.037 359.496 154.864 359.45 154.708 359.361L43.2044 294.99C42.8924 294.809 42.7009 294.476 42.7009 294.118V278.084C42.7009 277.723 42.8924 277.389 43.2044 277.212L154.828 212.767C155.14 212.586 155.527 212.586 155.835 212.767L267.331 277.138C267.647 277.319 267.835 277.652 267.835 278.01V294.043C267.835 294.405 267.643 294.738 267.331 294.916L155.715 359.361C155.559 359.45 155.385 359.496 155.211 359.496ZM44.7148 293.536L155.211 357.326L265.824 293.462V278.591L155.335 214.802L44.7184 278.666V293.536H44.7148Z" fill="#0D0D0D"/>
<path d="M155.212 342.452L266.832 278.006L155.336 213.635L43.7122 278.081L155.212 342.452Z" fill="white"/>
<path d="M155.211 343.462C155.037 343.462 154.864 343.416 154.708 343.328L43.2044 278.957C42.8924 278.776 42.7009 278.443 42.7009 278.084C42.7009 277.726 42.8924 277.389 43.2044 277.212L154.828 212.767C155.14 212.586 155.527 212.586 155.835 212.767L267.331 277.138C267.647 277.319 267.835 277.652 267.835 278.01C267.835 278.368 267.643 278.705 267.331 278.882L155.715 343.328C155.559 343.416 155.385 343.462 155.211 343.462ZM45.7254 278.081L155.211 341.289L264.814 278.006L155.332 214.798L45.7218 278.081H45.7254Z" fill="#0D0D0D"/>
<path d="M155.212 358.485V342.452L43.7122 278.081V294.114L155.212 358.485Z" fill="#CBE8CA"/>
<path d="M155.211 359.496C155.037 359.496 154.864 359.45 154.708 359.361L43.2044 294.99C42.8924 294.809 42.7009 294.476 42.7009 294.118V278.084C42.7009 277.723 42.8924 277.389 43.2044 277.212C43.5164 277.031 43.8994 277.031 44.2114 277.212L155.715 341.583C156.027 341.764 156.218 342.097 156.218 342.455V358.489C156.218 358.85 156.027 359.184 155.715 359.361C155.559 359.45 155.385 359.496 155.211 359.496ZM44.7148 293.536L154.204 356.744V343.037L44.7148 279.829V293.536Z" fill="#0D0D0D"/>
<g opacity="0.2">
<path d="M436.752 98.526C442.013 95.4901 449.323 94.6904 454.086 96.4258C456.451 94.0304 458.256 91.5186 459.479 88.9214C453.978 88.2032 449.789 84.6432 449.781 80.3495C449.773 76.048 453.958 72.4996 459.463 71.7852C458.232 69.188 456.423 66.6685 454.051 64.277C449.288 66.0085 441.974 65.201 436.717 62.1612C431.453 59.1214 430.055 54.9053 433.048 52.1528C428.91 50.7863 424.546 49.742 420.051 49.0354C418.808 52.2072 412.651 54.6258 405.209 54.6219C397.767 54.618 391.606 52.1994 390.359 49.0199C385.864 49.7265 381.504 50.7707 377.362 52.1334C380.367 54.8898 378.981 59.1098 373.72 62.1457C368.46 65.1816 361.157 65.9852 356.378 64.2499C354.022 66.6374 352.217 69.157 350.994 71.7542C356.495 72.4724 360.684 76.0285 360.695 80.3261C360.695 84.6238 356.51 88.1799 351.013 88.8942C352.24 91.4915 354.053 94.011 356.421 96.3986C361.188 94.6671 368.499 95.4746 373.755 98.5144C379.019 101.554 380.417 105.77 377.424 108.527C381.562 109.893 385.918 110.941 390.422 111.652C391.668 108.476 397.813 106.058 405.263 106.061C412.713 106.061 418.871 108.484 420.117 111.664C424.608 110.957 428.968 109.909 433.107 108.55C430.106 105.794 431.499 101.574 436.752 98.5377V98.526ZM382.96 93.1919C370.649 86.0796 370.638 74.5572 382.937 67.4566C395.239 60.356 415.194 60.3599 427.512 67.4721C439.823 74.5843 439.838 86.1029 427.536 93.2113C415.233 100.316 395.274 100.308 382.96 93.1957V93.1919Z" fill="#0D0D0D"/>
<path d="M420.121 112.75C419.671 112.75 419.259 112.478 419.092 112.051C418.149 109.644 412.717 107.152 405.267 107.148C397.814 107.148 392.394 109.632 391.455 112.039C391.268 112.517 390.779 112.797 390.255 112.727C385.693 112.005 381.264 110.941 377.086 109.559C376.714 109.438 376.434 109.128 376.353 108.743C376.271 108.363 376.399 107.963 376.687 107.699C377.583 106.872 377.979 105.917 377.863 104.857C377.661 103.013 375.964 101.045 373.216 99.4572C370.063 97.6364 366.026 96.5921 362.144 96.5921C360.148 96.5921 358.304 96.8794 356.81 97.4229C356.41 97.5704 355.952 97.4695 355.649 97.1628C353.191 94.6859 351.301 92.0576 350.023 89.3517C349.876 89.0334 349.887 88.6607 350.054 88.3501C350.221 88.0434 350.532 87.8299 350.881 87.7872C355.936 87.1311 359.605 83.9865 359.605 80.3139C359.593 76.6413 355.92 73.4967 350.862 72.8367C350.513 72.7902 350.206 72.5805 350.035 72.2699C349.864 71.9593 349.856 71.5905 350.004 71.2722C351.285 68.5585 353.168 65.9303 355.606 63.465C355.909 63.1545 356.359 63.0535 356.767 63.201C358.273 63.7484 360.125 64.0396 362.124 64.0396C366.003 64.0396 370.032 62.9992 373.181 61.1823C375.926 59.6022 377.61 57.6378 377.812 55.7976C377.929 54.7339 377.529 53.7711 376.624 52.9403C376.337 52.6763 376.209 52.2803 376.291 51.896C376.372 51.5155 376.652 51.205 377.024 51.0807C381.213 49.7025 385.647 48.6427 390.193 47.9284C390.713 47.8546 391.206 48.1341 391.392 48.6155C392.336 51.0186 397.763 53.511 405.217 53.5188C412.671 53.5188 418.09 51.0341 419.03 48.6349C419.216 48.1535 419.709 47.8701 420.226 47.9478C424.78 48.666 429.213 49.7297 433.398 51.1079C433.767 51.2322 434.046 51.5388 434.132 51.9232C434.213 52.3036 434.089 52.7035 433.802 52.9675C432.901 53.7944 432.509 54.7494 432.622 55.8093C432.827 57.6534 434.52 59.6216 437.273 61.2094C440.425 63.0302 444.455 64.0784 448.341 64.0784C450.332 64.0784 452.18 63.7911 453.675 63.2437C454.083 63.0962 454.537 63.1972 454.84 63.5039C457.282 65.973 459.176 68.6012 460.461 71.3188C460.613 71.6371 460.605 72.0098 460.434 72.3204C460.263 72.631 459.956 72.8406 459.607 72.8872C454.548 73.5433 450.884 76.684 450.888 80.3566C450.891 84.0292 454.568 87.1777 459.623 87.8377C459.972 87.8843 460.283 88.0939 460.449 88.4045C460.62 88.7112 460.632 89.0838 460.481 89.4022C459.203 92.112 457.32 94.7402 454.878 97.2132C454.576 97.5199 454.118 97.6209 453.714 97.4772C452.211 96.9298 450.36 96.6426 448.36 96.6426C444.482 96.6426 440.452 97.683 437.304 99.4999C434.567 101.084 432.878 103.048 432.676 104.888C432.556 105.952 432.956 106.911 433.856 107.742C434.143 108.01 434.272 108.406 434.19 108.786C434.109 109.171 433.829 109.481 433.456 109.601C429.256 110.98 424.822 112.039 420.292 112.754C420.233 112.762 420.175 112.765 420.121 112.765V112.75ZM405.24 104.943C412.57 104.943 418.704 107.163 420.734 110.432C424.325 109.834 427.843 109.007 431.22 107.979C430.599 106.965 430.347 105.828 430.479 104.628C430.762 102.043 432.796 99.5387 436.205 97.5704C439.676 95.5672 444.105 94.418 448.36 94.418C450.325 94.418 452.18 94.6743 453.78 95.1596C455.434 93.4126 456.789 91.5956 457.817 89.7438C452.444 88.517 448.682 84.7397 448.679 80.3489C448.675 75.958 452.425 72.1806 457.798 70.9577C456.757 69.0981 455.399 67.2813 453.741 65.5381C452.149 66.0195 450.297 66.2758 448.337 66.2758C444.074 66.2758 439.641 65.1227 436.162 63.1117C432.75 61.1435 430.708 58.6317 430.424 56.0461C430.292 54.8504 430.545 53.7168 431.162 52.7035C427.792 51.6708 424.271 50.8478 420.664 50.246C418.638 53.5071 412.516 55.72 405.221 55.72C397.903 55.7161 391.769 53.4955 389.739 50.2305C386.14 50.8323 382.622 51.6553 379.249 52.6841C379.87 53.6973 380.126 54.8348 379.99 56.0383C379.707 58.6239 377.673 61.128 374.268 63.0924C370.797 65.0956 366.36 66.2447 362.109 66.2447C360.144 66.2447 358.289 65.9924 356.685 65.5032C355.035 67.2463 353.684 69.0632 352.652 70.9189C358.021 72.1457 361.783 75.9231 361.798 80.3139C361.798 84.7086 358.04 88.486 352.671 89.7089C353.704 91.5607 355.062 93.3776 356.724 95.1246C358.32 94.6432 360.168 94.3909 362.128 94.3909C366.387 94.3909 370.824 95.54 374.303 97.551C377.719 99.5232 379.757 102.035 380.045 104.621C380.177 105.816 379.924 106.95 379.307 107.959C382.673 108.992 386.194 109.819 389.805 110.421C391.831 107.16 397.953 104.947 405.233 104.947L405.24 104.943ZM405.279 99.6319C396.661 99.6319 388.543 97.683 382.413 94.1463C376.096 90.497 372.618 85.5821 372.618 80.3061C372.618 75.0302 376.089 70.1347 382.389 66.497C388.5 62.9681 396.602 61.027 405.205 61.027C413.808 61.027 421.942 62.9759 428.068 66.5126C434.384 70.158 437.859 75.0729 437.859 80.3489C437.859 85.6248 434.388 90.5242 428.091 94.1618C421.98 97.6907 413.878 99.6319 405.275 99.6319H405.279ZM405.209 63.2321C396.983 63.2321 389.273 65.0723 383.496 68.4071C377.906 71.6332 374.827 75.8571 374.827 80.3023C374.827 84.7474 377.913 88.9946 383.519 92.2323C389.319 95.5788 397.045 97.4229 405.283 97.4229C413.521 97.4229 421.216 95.5827 426.992 92.2479C432.579 89.0218 435.658 84.794 435.658 80.3489C435.658 75.9037 432.571 71.6604 426.969 68.4227C421.173 65.0762 413.447 63.2321 405.213 63.2321H405.209Z" fill="#0D0D0D"/>
<path d="M462.743 53.0747V34.8864C461.435 32.1262 459.513 29.4552 457.002 26.9123C451.939 28.7525 444.182 27.8945 438.596 24.6684C436.895 23.6862 435.634 22.5914 434.706 21.4578V14.0389C430.307 12.5908 425.684 11.4805 420.905 10.7273C419.581 14.101 413.055 16.6633 405.15 16.6594C397.246 16.6594 390.705 14.0854 389.385 10.7118C384.61 11.4611 379.982 12.5714 375.591 14.0156V21.4578C374.667 22.5797 373.409 23.6707 371.725 24.6412C366.142 27.8635 358.389 28.7137 353.319 26.8735C350.811 29.4125 348.901 32.0835 347.6 34.8399V56.5299C347.6 56.5299 347.608 56.5299 347.616 56.5299V74.722C348.92 77.4823 350.846 80.1532 353.358 82.6922C358.416 80.8559 366.177 81.71 371.763 84.9361C373.456 85.9183 374.729 87.0131 375.657 88.1428V95.5657C380.048 97.0137 384.68 98.1279 389.451 98.8772C390.775 95.5074 397.308 92.9413 405.209 92.9452C413.113 92.9452 419.655 95.5152 420.971 98.8928C425.75 98.1396 430.373 97.0293 434.772 95.589V88.1467C435.688 87.0248 436.954 85.93 438.635 84.9594C444.213 81.7372 451.974 80.887 457.04 82.731C459.544 80.1882 461.466 77.5211 462.767 74.7608V53.0708C462.767 53.0708 462.755 53.0708 462.747 53.0708L462.743 53.0747ZM428.852 57.6324C415.792 65.1717 394.606 65.1678 381.535 57.6169C380.005 56.7356 378.678 55.7884 377.501 54.7906C378.666 53.8007 379.986 52.8611 381.504 51.9837C394.564 44.4445 415.749 44.4484 428.824 51.9993C430.35 52.8806 431.682 53.8317 432.854 54.8256C431.686 55.8155 430.366 56.755 428.852 57.6324Z" fill="#CBE8CA"/>
<path d="M420.964 100.004C420.514 100.004 420.102 99.7279 419.935 99.3009C418.945 96.7619 413.444 94.0599 405.202 94.056C396.956 94.056 391.463 96.7542 390.469 99.2854C390.279 99.7668 389.786 100.054 389.27 99.9726C384.444 99.2116 379.743 98.0819 375.305 96.6144C374.855 96.4669 374.544 96.0437 374.544 95.5662V88.551C373.675 87.5649 372.553 86.672 371.206 85.8917C367.851 83.9506 363.554 82.8442 359.419 82.8442C357.296 82.8442 355.327 83.1508 353.728 83.7293C353.328 83.8768 352.87 83.772 352.563 83.4692C349.97 80.8448 347.967 78.0612 346.608 75.1962C346.538 75.0486 346.503 74.8895 346.503 74.7264V56.8022C346.491 56.7167 346.484 56.6275 346.484 56.5343V34.8443C346.484 34.6812 346.519 34.522 346.588 34.3745C347.943 31.4978 349.943 28.7143 352.521 26.1015C352.819 25.7948 353.281 25.6939 353.685 25.8414C355.292 26.4237 357.268 26.7343 359.396 26.7343C363.523 26.7343 367.813 25.6278 371.159 23.6945C372.483 22.9297 373.597 22.0446 374.475 21.0585V14.0239C374.475 13.5464 374.781 13.1232 375.235 12.9757C379.681 11.5121 384.378 10.3862 389.2 9.62919C389.716 9.54378 390.209 9.83496 390.399 10.3164C391.393 12.8553 396.898 15.5574 405.14 15.5612C413.378 15.5612 418.872 12.867 419.869 10.3319C420.06 9.8505 420.537 9.57097 421.069 9.64474C425.899 10.4057 430.6 11.5354 435.041 12.999C435.495 13.1465 435.802 13.5697 435.802 14.0472V21.0585C436.676 22.0523 437.798 22.9453 439.141 23.7178C442.499 25.655 446.797 26.7692 450.927 26.7692C453.051 26.7692 455.023 26.4625 456.619 25.8802C457.022 25.7327 457.477 25.8336 457.783 26.1403C460.369 28.7569 462.372 31.5405 463.739 34.4134C463.808 34.5609 463.847 34.7239 463.847 34.887V52.885C463.855 52.9471 463.863 53.0131 463.863 53.0791V74.7691C463.863 74.9322 463.828 75.0913 463.758 75.2389C462.411 78.1001 460.412 80.8875 457.818 83.5119C457.515 83.8186 457.061 83.9195 456.654 83.7759C455.05 83.1935 453.074 82.883 450.947 82.883C446.82 82.883 442.53 83.9894 439.18 85.9228C437.848 86.6914 436.738 87.5766 435.868 88.5588V95.5934C435.868 96.0709 435.561 96.4941 435.107 96.6416C430.654 98.1013 425.953 99.2271 421.135 99.9881C421.077 99.9958 421.019 99.9997 420.96 99.9997L420.964 100.004ZM405.179 91.8509C412.967 91.8509 419.477 94.2113 421.589 97.682C425.739 96.991 429.796 96.0204 433.663 94.7936V88.1589C433.663 87.9027 433.752 87.6542 433.911 87.4562C434.983 86.1518 436.384 84.9949 438.073 84.0127C441.75 81.893 446.439 80.6779 450.947 80.6779C453.043 80.6779 455.023 80.9535 456.723 81.4698C458.843 79.2376 460.501 76.9005 461.654 74.5168V53.2693C461.646 53.2072 461.638 53.1412 461.638 53.0752V35.1355C460.466 32.7401 458.804 30.403 456.692 28.1785C454.996 28.6987 453.024 28.9705 450.931 28.9705C446.424 28.9705 441.722 27.7515 438.042 25.624C436.338 24.6418 434.925 23.4771 433.845 22.1572C433.686 21.9592 433.597 21.7146 433.597 21.4583V14.843C429.738 13.6124 425.685 12.6418 421.523 11.9469C419.407 15.4098 412.909 17.7625 405.16 17.7625C397.384 17.7625 390.873 15.4021 388.757 11.9314C384.603 12.6224 380.55 13.593 376.691 14.8198V21.4583C376.691 21.7146 376.598 21.963 376.435 22.161C375.356 23.4693 373.95 24.6262 372.269 25.5968C368.597 27.7204 363.907 28.9355 359.404 28.9355C357.307 28.9355 355.327 28.6599 353.623 28.1397C351.511 30.3642 349.857 32.6974 348.7 35.0889V56.2625C348.712 56.3479 348.716 56.4372 348.716 56.5304V74.4702C349.881 76.8616 351.542 79.1949 353.666 81.4272C355.358 80.9069 357.331 80.6352 359.423 80.6352C363.934 80.6352 368.632 81.8542 372.312 83.9816C374.024 84.9716 375.43 86.1363 376.505 87.4446C376.664 87.6426 376.753 87.891 376.753 88.1434V94.7626C380.612 95.9933 384.665 96.9638 388.819 97.6587C390.935 94.1958 397.43 91.8393 405.179 91.8393V91.8509ZM405.214 64.388C396.075 64.388 387.468 62.3227 380.977 58.5725C379.463 57.7029 378.093 56.7439 376.781 55.6336C376.536 55.424 376.392 55.1173 376.392 54.7912C376.392 54.4651 376.536 54.1584 376.781 53.9487C378.042 52.8772 379.44 51.895 380.946 51.0254C387.426 47.2868 396.013 45.2254 405.136 45.2254C414.26 45.2254 422.882 47.2907 429.369 51.0409C430.868 51.9028 432.277 52.8889 433.562 53.9798C433.81 54.1894 433.95 54.5 433.95 54.8222C433.95 55.1445 433.807 55.4551 433.562 55.6647C432.3 56.7323 430.903 57.7145 429.4 58.5841C422.925 62.3266 414.329 64.3842 405.21 64.3842L405.214 64.388ZM379.257 54.7912C380.146 55.4667 381.078 56.0839 382.08 56.6585C388.245 60.2185 396.46 62.179 405.214 62.179C413.968 62.179 422.152 60.2263 428.298 56.6779C429.28 56.1073 430.212 55.4861 431.089 54.8222C430.2 54.1467 429.268 53.5294 428.271 52.9549C422.106 49.3949 413.891 47.4343 405.136 47.4343C396.382 47.4343 388.198 49.3871 382.053 52.9355C381.067 53.5062 380.131 54.1234 379.257 54.7873V54.7912Z" fill="#0D0D0D"/>
<path d="M438.634 63.2774C444.213 60.0551 451.973 59.2011 457.04 61.0451C459.544 58.51 461.465 55.8352 462.766 53.0749C456.919 52.314 452.47 48.5404 452.47 43.9749C452.463 39.4094 456.9 35.6398 462.747 34.8828C461.438 32.1225 459.517 29.4515 457.005 26.9087C451.942 28.7488 444.186 27.8909 438.599 24.6647C433.009 21.4386 431.526 16.9585 434.709 14.0352C430.311 12.5871 425.687 11.4768 420.908 10.7237C419.584 14.0973 413.058 16.6596 405.154 16.6557C397.249 16.6557 390.708 14.0818 389.388 10.7081C384.613 11.4574 379.985 12.5677 375.594 14.0119C378.786 16.9391 377.306 21.4192 371.728 24.6415C366.145 27.8637 358.392 28.7139 353.322 26.8737C350.814 29.4127 348.904 32.0837 347.604 34.8401C353.442 35.6049 357.888 39.3784 357.903 43.94C357.903 48.5016 353.462 52.2752 347.619 53.0361C348.923 55.7925 350.849 58.4673 353.361 61.0024C358.419 59.1661 366.18 60.0202 371.767 63.2502C377.361 66.4724 378.836 70.9525 375.66 73.8759C380.051 75.3278 384.683 76.442 389.454 77.1913C390.778 73.8215 397.312 71.2515 405.212 71.2553C413.116 71.2553 419.658 73.8293 420.974 77.2029C425.753 76.4537 430.377 75.3434 434.775 73.9031C431.584 70.9759 433.059 66.4958 438.638 63.2735L438.634 63.2774ZM381.534 57.6132C368.455 50.0623 368.443 37.8332 381.503 30.294C394.563 22.7508 415.748 22.7586 428.824 30.3095C441.895 37.8566 441.911 50.0895 428.851 57.6326C415.791 65.1719 394.606 65.168 381.534 57.6171V57.6132Z" fill="white"/>
<path d="M420.967 78.3133C420.517 78.3133 420.105 78.0377 419.938 77.6106C418.933 75.0367 413.148 72.3696 405.205 72.3657C396.963 72.3657 391.466 75.0639 390.472 77.599C390.282 78.0804 389.789 78.3676 389.273 78.2861C384.439 77.5213 379.742 76.3916 375.308 74.928C374.936 74.8038 374.66 74.4971 374.578 74.1127C374.497 73.7323 374.621 73.3324 374.908 73.0684C375.883 72.1755 376.306 71.1389 376.178 69.9898C375.961 68.0099 374.151 65.9057 371.209 64.213C367.851 62.2719 363.553 61.1616 359.418 61.1616C357.295 61.1616 355.33 61.4683 353.731 62.0468C353.331 62.1943 352.873 62.0933 352.566 61.7866C349.977 59.17 347.974 56.3865 346.611 53.5136C346.459 53.1953 346.471 52.8226 346.642 52.512C346.809 52.2015 347.116 51.9918 347.469 51.9452C352.869 51.2425 356.794 47.8766 356.794 43.9439C356.778 40.0112 352.854 36.6415 347.453 35.9349C347.104 35.8883 346.801 35.6787 346.63 35.3681C346.459 35.0575 346.448 34.6887 346.599 34.3703C347.954 31.4936 349.953 28.7101 352.531 26.0973C352.83 25.7906 353.292 25.6897 353.696 25.8372C355.303 26.4195 357.279 26.7301 359.407 26.7301C363.534 26.7301 367.823 25.6237 371.17 23.6903C374.101 21.9977 375.906 19.8935 376.124 17.9175C376.252 16.7645 375.821 15.7279 374.846 14.8311C374.559 14.5671 374.431 14.1672 374.512 13.7868C374.594 13.4024 374.874 13.0958 375.246 12.9715C379.691 11.5079 384.389 10.3821 389.211 9.62504C389.727 9.53963 390.22 9.83078 390.41 10.3122C391.404 12.8512 396.909 15.5532 405.151 15.5571C413.389 15.5571 418.882 12.8628 419.88 10.3277C420.07 9.84633 420.548 9.5668 421.08 9.64056C425.909 10.4015 430.611 11.5312 435.052 12.9948C435.425 13.1152 435.704 13.4257 435.786 13.8101C435.867 14.1944 435.743 14.5904 435.452 14.8544C434.481 15.7473 434.054 16.7839 434.178 17.933C434.396 19.9129 436.209 22.021 439.148 23.7136C442.502 25.6509 446.8 26.7651 450.934 26.7651C453.058 26.7651 455.03 26.4584 456.625 25.876C457.029 25.7285 457.483 25.8295 457.79 26.1362C460.376 28.7528 462.379 31.5364 463.746 34.4092C463.897 34.7314 463.885 35.1002 463.714 35.4147C463.548 35.7253 463.241 35.9349 462.888 35.9815C457.483 36.6803 453.57 40.0462 453.57 43.9789C453.57 47.9116 457.495 51.2813 462.907 51.984C463.256 52.0306 463.563 52.2403 463.734 52.5508C463.905 52.8614 463.912 53.2302 463.765 53.5524C462.41 56.4214 460.415 59.205 457.825 61.8294C457.522 62.1361 457.068 62.2331 456.66 62.0895C455.057 61.5071 453.089 61.1966 450.957 61.1966C446.827 61.1966 442.537 62.303 439.187 64.2402C436.259 65.9329 434.454 68.0371 434.237 70.0131C434.112 71.1661 434.543 72.2066 435.518 73.0995C435.805 73.3635 435.937 73.7595 435.852 74.1438C435.77 74.5282 435.491 74.8387 435.114 74.9591C430.657 76.4227 425.956 77.5446 421.142 78.3017C421.084 78.3094 421.025 78.3172 420.971 78.3172L420.967 78.3133ZM405.182 70.1606C412.97 70.1606 419.48 72.521 421.592 75.9918C425.455 75.3512 429.24 74.466 432.866 73.3518C432.183 72.2687 431.9 71.0535 432.039 69.7685C432.338 67.0471 434.485 64.4033 438.08 62.3263C441.757 60.2027 446.45 58.9876 450.954 58.9876C453.05 58.9876 455.026 59.2593 456.726 59.7796C458.524 57.8889 459.991 55.9167 461.102 53.9057C455.375 52.6363 451.361 48.6337 451.361 43.9789C451.357 39.3279 455.356 35.3254 461.078 34.0559C459.96 32.0371 458.489 30.065 456.691 28.1782C454.995 28.6984 453.023 28.9702 450.93 28.9702C446.423 28.9702 441.722 27.7512 438.041 25.6237C434.431 23.5428 432.28 20.899 431.981 18.1737C431.841 16.8887 432.121 15.6736 432.804 14.5943C429.186 13.4801 425.397 12.5949 421.522 11.9505C419.407 15.4134 412.908 17.7661 405.159 17.7661C397.383 17.7661 390.872 15.4057 388.756 11.9349C384.886 12.5755 381.108 13.4646 377.486 14.5749C378.173 15.658 378.457 16.8732 378.313 18.1621C378.014 20.8835 375.867 23.5312 372.269 25.6043C368.596 27.7279 363.906 28.943 359.403 28.943C357.306 28.943 355.326 28.6674 353.622 28.1472C351.829 30.0339 350.365 32.0022 349.255 34.021C354.969 35.2944 358.984 39.293 358.999 43.9478C358.999 48.6026 354.993 52.6052 349.274 53.8747C350.392 55.8895 351.86 57.8578 353.665 59.7485C355.358 59.2283 357.326 58.9565 359.418 58.9565C363.93 58.9565 368.631 60.1755 372.315 62.303C375.922 64.38 378.072 67.0277 378.371 69.7491C378.515 71.0341 378.232 72.2493 377.552 73.3324C381.167 74.4466 384.948 75.3356 388.822 75.984C390.938 72.5172 397.433 70.1645 405.182 70.1645V70.1606ZM405.217 64.3878C396.078 64.3878 387.471 62.3224 380.98 58.5722C374.295 54.7133 370.611 49.5149 370.615 43.94C370.615 38.3729 374.287 33.1902 380.953 29.339C387.433 25.6004 396.02 23.539 405.143 23.539C414.266 23.539 422.889 25.6043 429.376 29.3545C436.061 33.2135 439.742 38.4079 439.742 43.9827C439.742 49.5576 436.073 54.7365 429.403 58.5877C422.928 62.3263 414.336 64.3878 405.217 64.3878ZM405.139 25.7479C396.397 25.7479 388.197 27.7007 382.056 31.2529C376.1 34.6887 372.82 39.196 372.82 43.94C372.82 48.6919 376.108 53.2108 382.083 56.6621C388.248 60.2221 396.463 62.1826 405.217 62.1826C413.971 62.1826 422.155 60.2299 428.301 56.6815C434.256 53.2419 437.537 48.7346 437.537 43.9866C437.537 39.2387 434.248 34.7159 428.274 31.2684C422.109 27.7123 413.894 25.7518 405.139 25.7518V25.7479Z" fill="#0D0D0D"/>
<path d="M434.771 96.7001C434.161 96.7001 433.665 96.2071 433.665 95.5975V73.9114C433.665 73.3019 434.161 72.8088 434.771 72.8088C435.381 72.8088 435.874 73.3019 435.874 73.9114V95.5975C435.874 96.2071 435.381 96.7001 434.771 96.7001Z" fill="#0D0D0D"/>
<path d="M420.967 100.003C420.358 100.003 419.865 99.5103 419.865 98.9008V77.2107C419.865 76.6012 420.358 76.1082 420.967 76.1082C421.577 76.1082 422.073 76.6012 422.073 77.2107V98.9008C422.073 99.5103 421.577 100.003 420.967 100.003Z" fill="#0D0D0D"/>
<path d="M457.039 83.8426C456.43 83.8426 455.933 83.3496 455.933 82.7401V61.0501C455.933 60.4406 456.43 59.9475 457.039 59.9475C457.649 59.9475 458.142 60.4406 458.142 61.0501V82.7401C458.142 83.3496 457.649 83.8426 457.039 83.8426Z" fill="#0D0D0D"/>
<path d="M389.446 99.988C388.837 99.988 388.344 99.495 388.344 98.8855V77.1993C388.344 76.5898 388.84 76.0968 389.446 76.0968C390.052 76.0968 390.549 76.5898 390.549 77.1993V98.8855C390.549 99.495 390.052 99.988 389.446 99.988Z" fill="#0D0D0D"/>
<path d="M375.652 96.6774C375.042 96.6774 374.545 96.1844 374.545 95.5749V73.8849C374.545 73.2754 375.042 72.7823 375.652 72.7823C376.261 72.7823 376.754 73.2754 376.754 73.8849V95.5749C376.754 96.1844 376.261 96.6774 375.652 96.6774Z" fill="#0D0D0D"/>
<path d="M353.357 83.8035C352.747 83.8035 352.254 83.3104 352.254 82.7009V61.0109C352.254 60.4014 352.747 59.9083 353.357 59.9083C353.966 59.9083 354.459 60.4052 354.459 61.0109V82.7009C354.459 83.3104 353.963 83.8035 353.357 83.8035Z" fill="#0D0D0D"/>
<path d="M452.469 43.9799C452.469 48.5454 456.918 52.3189 462.765 53.0798C462.761 53.0798 462.753 53.0798 462.745 53.0798V34.8916C456.903 35.6486 452.461 39.4221 452.469 43.9838V43.9799Z" fill="#0D0D0D"/>
<path d="M462.815 54.1779C462.815 54.1779 462.78 54.1779 462.761 54.1779C462.714 54.1779 462.664 54.1779 462.617 54.1702C462.617 54.1702 462.617 54.1702 462.613 54.1702C462.613 54.1702 462.602 54.1702 462.598 54.1702C456.087 53.3161 451.359 49.0301 451.359 43.9793C451.355 38.9208 456.08 34.6387 462.598 33.7923C462.905 33.7496 463.231 33.8467 463.471 34.0602C463.708 34.2699 463.848 34.5727 463.848 34.891V52.691C463.895 52.8114 463.918 52.9473 463.918 53.0832C463.918 53.6927 463.425 54.1857 462.815 54.1857V54.1779ZM461.639 36.1916C456.887 37.2126 453.564 40.3494 453.568 43.9754C453.568 47.5937 456.895 50.7383 461.643 51.7632V36.1916H461.639Z" fill="#0D0D0D"/>
<path d="M438.632 63.2783C433.054 66.5005 431.578 70.9806 434.77 73.9078V88.1556C435.686 87.0336 436.951 85.9389 438.632 84.9683C444.211 81.7461 451.972 80.8958 457.038 82.7399V61.0499C451.972 59.2097 444.215 60.0599 438.632 63.2822V63.2783Z" fill="#CBE8CA"/>
<path d="M434.77 89.259C434.645 89.259 434.517 89.2357 434.397 89.193C433.958 89.0377 433.667 88.6223 433.667 88.1564V74.3706C432.413 73.0585 431.854 71.4784 432.044 69.7702C432.343 67.0488 434.49 64.405 438.085 62.328C441.762 60.2044 446.455 58.9893 450.959 58.9893C453.342 58.9893 455.578 59.3425 457.419 60.0142C457.853 60.1733 458.145 60.5888 458.145 61.0507V82.7408C458.145 83.1018 457.97 83.4357 457.675 83.6453C457.38 83.8511 457.003 83.9015 456.662 83.7773C455.058 83.1949 453.082 82.8844 450.955 82.8844C446.828 82.8844 442.538 83.9908 439.188 85.9242C437.728 86.7666 436.528 87.7566 435.628 88.8553C435.41 89.1154 435.096 89.259 434.774 89.259H434.77ZM450.955 61.1944C446.824 61.1944 442.534 62.3008 439.184 64.238C436.257 65.9307 434.451 68.0349 434.234 70.0109C434.11 71.1639 434.541 72.2044 435.515 73.0973C435.744 73.303 435.872 73.602 435.872 73.9087V85.5243C436.54 84.9847 437.278 84.48 438.077 84.0141C441.754 81.8944 446.444 80.6793 450.951 80.6793C452.729 80.6793 454.422 80.8773 455.932 81.2538V61.8505C454.476 61.4234 452.772 61.1983 450.955 61.1983V61.1944Z" fill="#0D0D0D"/>
<path d="M457.037 61.0451V82.7351C459.541 80.1922 461.463 77.5251 462.763 74.7648V53.0748C461.467 55.8351 459.541 58.5061 457.037 61.0451Z" fill="#0D0D0D"/>
<path d="M457.039 83.8417C456.895 83.8417 456.755 83.8145 456.619 83.7602C456.2 83.5894 455.932 83.1856 455.932 82.7392V61.0491C455.932 60.758 456.049 60.4785 456.254 60.2727C458.669 57.8308 460.521 55.2491 461.763 52.6092C461.985 52.1433 462.489 51.8754 463.006 52.0035C463.51 52.1161 463.867 52.5626 463.867 53.0789V74.7689C463.867 74.932 463.832 75.0911 463.763 75.2387C462.415 78.0999 460.416 80.8873 457.823 83.5117C457.613 83.7291 457.326 83.8417 457.039 83.8417ZM458.141 61.4995V79.8857C459.597 78.1426 460.777 76.3451 461.658 74.5166V57.2018C460.657 58.6693 459.484 60.1057 458.141 61.4956V61.4995Z" fill="#0D0D0D"/>
<path d="M422.308 60.5491V43.9642H422.304C422.304 41.4369 420.627 38.9057 417.281 36.9762C410.588 33.1095 399.749 33.1095 393.063 36.9684C389.717 38.8979 388.048 41.4291 388.048 43.9642V60.5296C398.576 64.1673 411.784 64.1712 422.304 60.553L422.308 60.5491Z" fill="#0D0D0D"/>
<path d="M405.214 64.3655C399.042 64.3655 392.981 63.3988 387.69 61.5703C387.244 61.415 386.948 60.9996 386.948 60.5298V43.9644C386.948 40.9052 388.925 38.0828 392.512 36.0136C395.909 34.053 400.4 32.9738 405.16 32.9738C409.92 32.9738 414.427 34.0569 417.832 36.0252C421.376 38.0711 423.356 40.843 423.406 43.844C423.41 43.8828 423.414 43.9255 423.414 43.9644V60.5492C423.414 61.019 423.115 61.4421 422.669 61.5935C417.401 63.4065 411.364 64.3655 405.218 64.3655H405.214ZM389.154 59.734C398.894 62.9019 411.453 62.9096 421.201 59.7572V44.0769C421.198 44.042 421.194 44.0032 421.194 43.9644C421.194 41.736 419.606 39.5968 416.725 37.9353C413.65 36.1611 409.543 35.1828 405.16 35.1828C400.777 35.1828 396.677 36.1572 393.614 37.9275C390.738 39.5852 389.154 41.7321 389.154 43.9683V59.7379V59.734Z" fill="#0D0D0D"/>
<path d="M393.071 50.9539C386.382 47.0911 386.378 40.8291 393.063 36.9701C399.749 33.1112 410.588 33.1112 417.281 36.9779C423.978 40.8407 423.982 47.0989 417.296 50.9617C410.611 54.8206 399.764 54.8167 393.071 50.9539Z" fill="white"/>
<path d="M405.199 54.956C400.428 54.956 395.925 53.8729 392.524 51.9085C388.933 49.8315 386.953 47.0091 386.953 43.9538C386.953 40.8985 388.929 38.0839 392.512 36.0147C395.909 34.0541 400.401 32.9749 405.161 32.9749C409.92 32.9749 414.427 34.058 417.832 36.0263C421.427 38.0994 423.411 40.9256 423.411 43.9771C423.411 47.0285 421.439 49.847 417.852 51.9163C414.458 53.8768 409.963 54.956 405.203 54.956H405.199ZM405.161 35.18C400.781 35.18 396.678 36.1544 393.615 37.9247C390.742 39.5824 389.158 41.7254 389.158 43.9538C389.158 46.1822 390.746 48.3329 393.626 49.9984C396.701 51.7726 400.812 52.751 405.199 52.751C409.586 52.751 413.678 51.7765 416.745 50.0062C419.622 48.3485 421.206 46.2055 421.206 43.9771C421.206 41.7487 419.618 39.5979 416.73 37.9364C413.655 36.1622 409.547 35.1839 405.164 35.1839L405.161 35.18Z" fill="#0D0D0D"/>
</g>
<path d="M118.452 307.47C138.818 319.227 171.881 319.209 192.3 307.42C212.709 295.631 212.755 276.545 192.385 264.787C172.008 253.023 138.952 253.048 118.537 264.833C98.121 276.623 98.0855 295.709 118.452 307.47Z" fill="#0D0D0D"/>
<path d="M155.298 317.284H155.295C141.197 317.284 127.933 314.11 117.949 308.345C107.79 302.481 102.192 294.613 102.192 286.199C102.192 277.785 107.819 269.861 118.034 263.961C128.075 258.164 141.396 254.969 155.536 254.969C169.676 254.969 182.901 258.146 192.889 263.915C203.047 269.779 208.642 277.644 208.642 286.057C208.642 294.5 203.019 302.396 192.804 308.296C182.763 314.093 169.442 317.287 155.298 317.287V317.284ZM155.536 256.987C141.74 256.987 128.781 260.082 119.041 265.709C109.475 271.23 104.206 278.509 104.206 286.199C104.206 293.861 109.446 301.109 118.956 306.597C128.639 312.189 141.545 315.266 155.295 315.266H155.298C169.094 315.266 182.054 312.171 191.794 306.544C201.36 301.02 206.625 293.744 206.625 286.054C206.625 278.392 201.388 271.148 191.879 265.659C182.192 260.064 169.286 256.983 155.536 256.983V256.987Z" fill="#0D0D0D"/>
<path d="M192.965 271.867C198.813 261.742 199.39 252.575 195.601 245.922H195.604L195.573 245.863V245.86L192.08 239.815C188.26 233.141 180.039 229.012 168.323 229.016C144.921 229.016 116.446 245.481 104.718 265.794C98.864 275.93 98.2963 285.113 102.095 291.766L105.622 297.876C109.445 304.529 117.665 308.645 129.36 308.645C152.762 308.645 181.24 292.18 192.965 271.867Z" fill="#0D0D0D"/>
<path d="M129.359 309.521C117.713 309.521 109.015 305.537 104.861 298.311L101.335 292.204C97.2028 284.968 98.1316 275.433 103.957 265.352C115.806 244.832 144.682 228.136 168.322 228.136C179.989 228.136 188.694 232.129 192.841 239.38L196.331 245.422C196.331 245.422 196.349 245.453 196.355 245.468C196.365 245.487 196.374 245.502 196.38 245.521C200.472 252.741 199.531 262.251 193.723 272.307C181.877 292.827 153.005 309.524 129.359 309.524V309.521ZM168.331 229.888C145.238 229.888 117.047 246.19 105.479 266.229C99.9799 275.748 99.0511 284.663 102.856 291.328L106.383 297.434C110.212 304.096 118.371 307.765 129.362 307.765C152.446 307.765 180.64 291.464 192.211 271.425C197.701 261.918 198.636 253.016 194.844 246.354C194.825 246.326 194.81 246.295 194.8 246.264L191.323 240.247C187.496 233.563 179.332 229.885 168.334 229.885L168.331 229.888Z" fill="#0D0D0D"/>
<path d="M108.544 260.12C107.143 261.974 105.832 263.856 104.718 265.791C98.864 275.928 98.2963 285.111 102.095 291.763L105.622 297.873C109.445 304.526 117.665 308.642 129.36 308.642C131.622 308.642 133.939 308.445 136.272 308.148L108.544 260.116V260.12Z" fill="#CBE8CA"/>
<path d="M129.359 309.521C117.713 309.521 109.015 305.537 104.861 298.311L101.335 292.204C97.2028 284.968 98.1316 275.433 103.957 265.352C104.969 263.593 106.244 261.711 107.845 259.591C108.024 259.357 108.33 259.23 108.598 259.243C108.891 259.261 109.157 259.425 109.305 259.681L137.036 307.713C137.184 307.966 137.19 308.277 137.061 308.54C136.928 308.802 136.675 308.984 136.385 309.021C133.719 309.357 131.423 309.521 129.362 309.521H129.359ZM108.45 261.714C107.259 263.346 106.281 264.831 105.476 266.229C99.9768 275.748 99.048 284.662 102.853 291.328L106.38 297.434C110.209 304.096 118.368 307.765 129.359 307.765C131 307.765 132.806 307.657 134.845 307.435L108.45 261.714Z" fill="#0D0D0D"/>
<path d="M125.852 302.567C149.251 302.567 177.732 286.101 189.458 265.788C201.184 245.475 191.723 229.01 168.321 229.01C144.919 229.01 116.444 245.475 104.715 265.788C92.9867 286.101 102.454 302.567 125.852 302.567Z" fill="white"/>
<path d="M125.853 303.442C114.226 303.442 105.53 299.471 101.368 292.26C97.1899 285.027 98.1094 275.47 103.954 265.346C115.803 244.826 144.679 228.13 168.318 228.13C179.945 228.13 188.638 232.101 192.803 239.309C196.978 246.542 196.059 256.101 190.217 266.223C178.368 286.742 149.496 303.439 125.853 303.439V303.442ZM168.321 229.885C145.237 229.885 117.046 246.187 105.478 266.226C99.9608 275.782 99.0413 284.715 102.889 291.383C106.728 298.027 114.88 301.69 125.853 301.69C148.937 301.69 177.131 285.388 188.699 265.349C194.217 255.793 195.136 246.857 191.285 240.189C187.45 233.545 179.294 229.885 168.321 229.885Z" fill="#0D0D0D"/>
<path d="M177.397 265.79C185.787 251.257 179.017 239.479 162.277 239.476C145.537 239.476 125.165 251.257 116.778 265.79C108.385 280.324 115.155 292.099 131.898 292.102C148.638 292.102 169.013 280.321 177.397 265.79ZM128.834 265.79C133.888 257.036 146.154 249.942 156.235 249.945C166.316 249.945 170.392 257.036 165.341 265.79C160.289 274.541 148.021 281.635 137.94 281.635C127.859 281.635 123.779 274.541 128.834 265.79ZM140.893 265.79C142.605 262.822 146.771 260.412 150.19 260.412C153.609 260.412 154.994 262.819 153.279 265.79C151.563 268.759 147.401 271.169 143.978 271.166C140.56 271.166 139.174 268.759 140.89 265.79H140.893Z" fill="#CBE8CA"/>
<path d="M131.898 292.978C123.487 292.978 117.189 290.09 114.168 284.853C111.135 279.599 111.792 272.674 116.019 265.352C124.533 250.602 145.284 238.602 162.277 238.599C170.688 238.599 176.983 241.484 180.007 246.724C183.041 251.978 182.383 258.906 178.156 266.228C169.646 280.975 148.891 292.975 131.895 292.978H131.898ZM162.277 240.355C145.842 240.355 125.773 251.963 117.537 266.228C113.637 272.983 112.977 279.287 115.683 283.974C118.38 288.649 124.138 291.222 131.898 291.222C148.336 291.222 168.408 279.614 176.641 265.349C180.541 258.591 181.198 252.287 178.492 247.6C175.795 242.928 170.037 240.355 162.28 240.352L162.277 240.355ZM137.94 282.511C132.747 282.511 128.843 280.712 126.961 277.445C125.07 274.168 125.468 269.872 128.078 265.349C133.259 256.369 145.892 249.066 156.232 249.066H156.235C161.428 249.066 165.329 250.865 167.214 254.129C169.106 257.406 168.711 261.702 166.103 266.225C160.919 275.205 148.283 282.508 137.943 282.508L137.94 282.511ZM156.232 250.821C146.447 250.821 134.496 257.733 129.596 266.228C127.313 270.184 126.915 273.856 128.479 276.568C130.038 279.271 133.398 280.756 137.94 280.756C147.725 280.756 159.676 273.844 164.582 265.349C166.865 261.393 167.26 257.718 165.696 255.009C164.138 252.309 160.777 250.821 156.235 250.821H156.232ZM143.988 272.042H143.982C142.004 272.042 140.504 271.326 139.754 270.033C139.005 268.734 139.137 267.071 140.134 265.352C142.016 262.09 146.435 259.535 150.193 259.535C152.171 259.535 153.674 260.248 154.421 261.544C155.171 262.843 155.038 264.506 154.044 266.228C152.162 269.487 147.746 272.042 143.991 272.042H143.988ZM150.193 261.288C147.111 261.288 143.198 263.55 141.655 266.225C140.986 267.379 140.853 268.419 141.276 269.153C141.695 269.882 142.655 270.286 143.979 270.286L143.991 271.162V270.286C147.071 270.286 150.98 268.024 152.526 265.349C153.193 264.192 153.328 263.152 152.903 262.417C152.483 261.689 151.52 261.288 150.193 261.288Z" fill="#0D0D0D"/>
<path d="M101.965 201.277C105.218 206.911 113.926 212.715 116.533 212.86C113.413 207.457 110.294 202.057 107.174 196.654C104.57 196.506 101.052 195.321 97.3955 193.362C100.515 198.768 98.8458 195.874 101.965 201.274V201.277Z" fill="#CBE8CA"/>
<path d="M116.534 213.74C116.515 213.74 116.5 213.74 116.481 213.74C113.393 213.568 104.512 207.439 101.207 201.719L96.6374 193.807C96.4399 193.467 96.4923 193.038 96.7669 192.758C97.0385 192.474 97.4612 192.409 97.8099 192.594C101.334 194.483 104.762 195.646 107.221 195.785C107.518 195.8 107.783 195.967 107.931 196.22L117.287 212.426C117.447 212.704 117.444 213.049 117.275 213.324C117.117 213.583 116.83 213.743 116.528 213.743L116.534 213.74ZM99.6027 195.427L102.729 200.842C105.324 205.341 111.264 209.698 114.63 211.324L106.647 197.5C104.632 197.306 102.204 196.59 99.6027 195.43V195.427Z" fill="#0D0D0D"/>
<path d="M147.09 266.667C146.788 266.667 146.492 266.51 146.331 266.229L104.517 193.805C104.273 193.385 104.418 192.848 104.838 192.607C105.261 192.364 105.794 192.512 106.035 192.928L147.846 265.353C148.09 265.772 147.945 266.309 147.525 266.55C147.39 266.63 147.238 266.667 147.087 266.667H147.09Z" fill="#0D0D0D"/>
<path d="M105.983 208.275C109.232 213.897 115.255 215.036 116.607 212.993C113.496 207.605 110.383 202.215 107.273 196.827C105.924 198.87 103.823 200.147 101.428 200.379C104.545 205.773 102.879 202.884 105.983 208.275Z" fill="white"/>
<path d="M114.308 214.817C111.543 214.817 107.661 212.928 105.226 208.716L100.672 200.82C100.524 200.561 100.515 200.246 100.65 199.981C100.786 199.715 101.048 199.536 101.348 199.509C103.492 199.299 105.334 198.175 106.544 196.346C106.711 196.093 107.004 195.941 107.303 195.951C107.609 195.96 107.883 196.127 108.038 196.389L117.372 212.555C117.538 212.842 117.529 213.2 117.344 213.477C116.776 214.341 115.699 214.817 114.311 214.817H114.308ZM102.817 201.027L106.745 207.84C108.818 211.429 112.12 213.061 114.308 213.064C114.792 213.064 115.206 212.981 115.499 212.829L107.167 198.398C105.998 199.691 104.489 200.604 102.817 201.03V201.027Z" fill="#0D0D0D"/>
<path d="M113.878 194.601C117.124 200.22 117.784 210.656 116.603 212.991C113.492 207.604 110.379 202.213 107.268 196.825C108.447 194.49 109.181 190.845 109.32 186.704C112.434 192.095 110.768 189.207 113.878 194.601Z" fill="#CBE8CA"/>
<path d="M116.602 213.867C116.288 213.867 115.998 213.701 115.843 213.429L106.509 197.263C106.361 197.007 106.352 196.692 106.484 196.43C107.595 194.23 108.311 190.675 108.444 186.676C108.456 186.287 108.728 185.951 109.11 185.855C109.493 185.76 109.888 185.929 110.082 186.269L114.637 194.165C117.935 199.88 118.781 210.627 117.383 213.389C117.238 213.676 116.948 213.861 116.624 213.87H116.602V213.867ZM108.259 196.785L116.223 210.578C116.507 206.85 115.714 199.531 113.119 195.038L109.999 189.629C109.697 192.471 109.101 194.937 108.259 196.785Z" fill="#0D0D0D"/>
<path d="M117.719 201.278C120.974 206.913 118.966 212.72 116.531 212.862C113.411 207.459 110.292 202.059 107.172 196.656C109.607 196.508 111.757 195.323 113.149 193.363C116.269 198.769 114.599 195.875 117.719 201.275V201.278Z" fill="white"/>
<path d="M116.534 213.741C116.219 213.741 115.932 213.574 115.775 213.303L106.416 197.097C106.265 196.835 106.258 196.511 106.403 196.242C106.545 195.974 106.82 195.801 107.122 195.782C109.307 195.653 111.192 194.613 112.436 192.86C112.612 192.616 112.889 192.468 113.195 192.49C113.491 192.502 113.763 192.669 113.914 192.928L118.484 200.84C120.866 204.965 120.625 209.239 119.329 211.643C118.635 212.933 117.66 213.676 116.586 213.741C116.568 213.741 116.552 213.741 116.534 213.741ZM108.588 197.347L116.941 211.819C117.237 211.624 117.53 211.276 117.78 210.813C118.811 208.903 118.99 205.243 116.96 201.719L113.019 194.897C111.822 196.134 110.285 196.983 108.588 197.35V197.347Z" fill="#0D0D0D"/>
<path d="M227.523 40.4088L224.47 42.1713V44.4197C224.47 68.8336 240.7 99.1255 253.983 106.798L257.036 105.036V104.429C256.055 102.56 255.111 100.583 254.213 98.4931C245.222 90.7875 233.792 70.424 231.748 50.8673L242.292 56.9568L245.345 55.1944C245.329 54.2806 245.313 53.3598 245.315 52.4344V52.4135C245.315 51.8369 245.366 51.2881 245.452 50.765L227.523 40.4088Z" fill="#CBE8CA"/>
<path d="M253.982 107.459C253.868 107.459 253.754 107.429 253.652 107.371C240.217 99.6121 223.807 69.0389 223.807 44.418V42.1719C223.807 41.9347 223.932 41.7162 224.139 41.5999L227.192 39.8375C227.399 39.7189 227.648 39.7189 227.855 39.8375L245.784 50.1936C246.021 50.3308 246.151 50.6005 246.105 50.8726C246.03 51.3329 245.988 51.7747 245.979 52.2165C246 52.2793 246.009 52.3467 246.009 52.4165C246.009 52.4909 245.998 52.5583 245.977 52.6257C245.977 53.4953 245.993 54.3417 246.009 55.1857C246.014 55.4252 245.886 55.6507 245.679 55.7693L242.626 57.5318C242.422 57.6503 242.171 57.6503 241.966 57.5318L232.558 52.1002C234.907 70.8036 245.716 90.3418 254.65 97.9961C254.726 98.0612 254.784 98.1449 254.826 98.2379C255.698 100.263 256.64 102.246 257.628 104.125C257.679 104.221 257.702 104.325 257.702 104.432V105.039C257.702 105.276 257.577 105.495 257.372 105.611L254.319 107.373C254.217 107.432 254.103 107.462 253.989 107.462L253.982 107.459ZM225.13 42.5532V44.4203C225.13 68.4274 240.913 98.1426 253.987 106.034L256.375 104.593C255.422 102.77 254.512 100.854 253.666 98.8959C244.356 90.8277 233.109 70.2712 231.089 50.9377C231.063 50.6912 231.177 50.4494 231.387 50.3145C231.596 50.1774 231.861 50.1727 232.077 50.2959L242.291 56.1925L244.677 54.816C244.663 54.0255 244.651 53.2303 244.654 52.4327C244.654 51.9863 244.679 51.5538 244.735 51.1121L227.525 41.1721L225.132 42.5532H225.13Z" fill="#0D0D0D"/>
<path d="M242.399 52.5247C242.313 53.0502 242.26 53.5966 242.26 54.1756V54.1965C242.26 55.1196 242.274 56.0403 242.292 56.9564L228.418 48.9463C229.283 69.5703 241.604 92.066 251.165 100.257C252.06 102.348 253.004 104.324 253.983 106.194V106.8C240.699 99.1274 224.47 68.8356 224.47 44.4216V42.1709L242.399 52.5271V52.5247Z" fill="white"/>
<path d="M253.982 107.459C253.868 107.459 253.754 107.429 253.652 107.37C240.217 99.6115 223.806 69.0382 223.806 44.4174V42.1713C223.806 41.9341 223.932 41.7156 224.139 41.5993C224.341 41.4807 224.595 41.4807 224.799 41.5993L242.728 51.9555C242.968 52.0927 243.096 52.3647 243.049 52.6344C242.963 53.1645 242.919 53.6691 242.919 54.1783C242.919 55.1177 242.933 56.0361 242.952 56.9452C242.956 57.1824 242.833 57.4056 242.626 57.5265C242.419 57.6474 242.166 57.6497 241.959 57.5288L229.14 50.1256C230.452 71.0867 242.896 92.3036 251.592 99.7556C251.669 99.8207 251.731 99.9021 251.768 99.9974C252.631 102.013 253.573 103.994 254.566 105.885C254.614 105.98 254.642 106.085 254.642 106.192V106.798C254.642 107.036 254.517 107.254 254.312 107.37C254.21 107.429 254.096 107.459 253.982 107.459ZM225.129 43.3153V44.4197C225.129 67.6711 239.931 96.2749 252.74 105.222C251.996 103.736 251.283 102.209 250.618 100.658C241.575 92.8128 228.666 70.6031 227.759 48.9723C227.748 48.7305 227.871 48.505 228.075 48.3794C228.282 48.2562 228.54 48.2515 228.747 48.3724L241.61 55.8012C241.601 55.2688 241.598 54.734 241.598 54.1992C241.598 53.7505 241.626 53.3157 241.68 52.8762L225.129 43.3176V43.3153Z" fill="#0D0D0D"/>
<path d="M309.1 164.015L269.331 141.056L229.613 163.989V181.616L269.38 204.577L309.1 181.644V164.015Z" fill="#CBE8CA"/>
<path d="M269.381 205.236C269.264 205.236 269.153 205.206 269.05 205.148L229.284 182.189C229.079 182.071 228.953 181.852 228.953 181.617V163.99C228.953 163.753 229.079 163.535 229.284 163.418L269.002 140.486C269.208 140.367 269.457 140.367 269.664 140.486L309.433 163.444C309.636 163.563 309.764 163.781 309.764 164.016V181.645C309.764 181.88 309.638 182.101 309.433 182.217L269.711 205.15C269.608 205.21 269.497 205.238 269.381 205.238V205.236ZM230.276 181.234L269.381 203.811L308.44 181.259V164.393L269.332 141.816L230.276 164.367V181.231V181.234Z" fill="#0D0D0D"/>
<path d="M309.1 164.014L269.331 141.056L229.613 163.988L269.38 186.949L309.1 164.014Z" fill="white"/>
<path d="M269.381 187.61C269.264 187.61 269.153 187.582 269.05 187.521L229.284 164.561C229.079 164.442 228.953 164.224 228.953 163.989C228.953 163.754 229.079 163.533 229.284 163.417L269.002 140.484C269.208 140.365 269.457 140.365 269.664 140.484L309.433 163.442C309.636 163.561 309.764 163.78 309.764 164.014C309.764 164.249 309.638 164.47 309.433 164.586L269.711 187.521C269.608 187.582 269.497 187.61 269.381 187.61ZM230.937 163.989L269.381 186.187L307.778 164.014L269.332 141.819L230.937 163.989Z" fill="#0D0D0D"/>
<path d="M269.378 186.948V204.575L309.099 181.642V164.013L269.378 186.948Z" fill="#0D0D0D"/>
<path d="M269.379 205.236C269.263 205.236 269.151 205.206 269.049 205.148C268.842 205.029 268.719 204.813 268.719 204.576V186.949C268.719 186.714 268.844 186.495 269.049 186.377L308.769 163.442C308.976 163.323 309.225 163.323 309.432 163.442C309.634 163.56 309.762 163.779 309.762 164.014V181.643C309.762 181.878 309.636 182.099 309.432 182.215L269.709 205.148C269.607 205.208 269.495 205.236 269.379 205.236ZM270.039 187.33V203.432L308.439 181.262V165.16L270.039 187.33Z" fill="#0D0D0D"/>
<path d="M264.979 196.944L264.976 189.492L234.022 171.621V179.071L264.979 196.944Z" fill="white"/>
<path d="M292.474 164.002C292.474 158.326 288.01 154.934 280.609 151.158L280.565 151.19C274.118 147.963 264.584 147.958 258.146 151.186L258.107 151.16C257.825 151.307 257.56 151.448 257.281 151.59C257.258 151.604 257.23 151.611 257.207 151.625C257.193 151.632 257.186 151.639 257.172 151.646C250.341 155.229 246.253 158.568 246.241 163.988V164.002C246.248 167.42 248.506 170.831 253.024 173.435C262.057 178.655 276.691 178.655 285.715 173.446C290.233 170.84 292.486 167.42 292.477 164.004L292.474 164.002Z" fill="#CBE8CA"/>
<path d="M269.382 178.008C263.088 178.008 257.162 176.585 252.693 174.004C248.114 171.365 245.587 167.812 245.58 164.002C245.592 158.161 250.1 154.606 256.864 151.058L257.803 150.572C257.875 150.532 257.954 150.511 258.033 150.502C261.205 148.956 265.209 148.107 269.338 148.107C273.468 148.107 277.49 148.958 280.673 150.509C280.755 150.513 280.836 150.532 280.906 150.569C288.453 154.42 293.134 158.01 293.134 164.002C293.143 167.817 290.623 171.375 286.042 174.016C281.58 176.59 275.663 178.008 269.38 178.008H269.382ZM258.229 151.839L257.58 152.176C250.956 155.647 246.91 158.807 246.901 163.985C246.905 167.315 249.198 170.463 253.351 172.858C257.622 175.325 263.314 176.685 269.38 176.685C275.435 176.685 281.115 175.33 285.379 172.87C289.534 170.472 291.818 167.322 291.811 163.999C291.811 158.703 287.66 155.512 280.483 151.834C280.406 151.829 280.329 151.811 280.262 151.776C277.232 150.258 273.349 149.423 269.336 149.423C265.323 149.423 261.456 150.255 258.436 151.771C258.368 151.804 258.296 151.827 258.224 151.836L258.229 151.839Z" fill="#0D0D0D"/>
<path d="M280.609 151.158L280.565 151.19C277.342 149.579 273.347 148.77 269.357 148.767C271.464 148.767 273.573 149.574 275.275 151.19L275.3 151.16C279.211 154.938 281.569 158.328 281.569 164.002C282.446 165.639 283.957 170.107 284.524 174.067C284.929 173.865 285.329 173.667 285.71 173.449C290.228 170.842 292.481 167.422 292.472 164.006C292.472 158.331 288.007 154.938 280.606 151.162L280.609 151.158Z" fill="#0D0D0D"/>
<path d="M284.56 174.684C284.458 174.684 284.358 174.666 284.277 174.622C284.088 174.522 283.902 174.368 283.872 174.159C283.309 170.234 281.81 165.844 280.987 164.312C280.935 164.217 280.908 164.11 280.908 164C280.908 158.632 278.741 155.432 274.99 151.78C274.927 151.752 274.869 151.717 274.82 151.67C273.297 150.226 271.361 149.431 269.363 149.429H269.354C268.989 149.429 268.694 149.131 268.694 148.768C268.694 148.406 268.991 148.108 269.354 148.108H269.366C273.49 148.113 277.494 148.964 280.675 150.51C280.756 150.515 280.838 150.533 280.908 150.57C288.455 154.421 293.135 158.011 293.135 164.003C293.145 167.818 290.624 171.376 286.044 174.017C285.686 174.224 285.311 174.41 284.935 174.598C284.83 174.652 284.691 174.684 284.56 174.684ZM282.228 163.838C283.061 165.472 284.386 169.323 285.037 173.064C285.153 173.001 285.269 172.938 285.383 172.873C289.538 170.476 291.822 167.325 291.815 164.003C291.815 158.706 287.664 155.516 280.487 151.838C280.41 151.833 280.336 151.814 280.268 151.78C278.664 150.977 276.825 150.366 274.851 149.968C275.097 150.154 275.339 150.352 275.571 150.563C275.641 150.591 275.704 150.631 275.757 150.682C279.715 154.505 282.182 158.048 282.228 163.835V163.838Z" fill="#0D0D0D"/>
<path d="M281.515 165.657C288.216 161.791 288.214 155.506 281.497 151.632C274.786 147.756 263.909 147.758 257.206 151.623C250.5 155.497 250.507 161.777 257.22 165.648C263.932 169.529 274.809 169.526 281.515 165.657Z" fill="#CBE8CA"/>
<path d="M269.374 169.22C264.668 169.22 260.232 168.155 256.888 166.221C253.426 164.226 251.519 161.529 251.517 158.631C251.517 155.739 253.419 153.046 256.874 151.049C260.213 149.122 264.64 148.061 269.342 148.061C274.043 148.061 278.482 149.126 281.828 151.059C285.29 153.056 287.199 155.753 287.199 158.65C287.199 161.547 285.297 164.235 281.844 166.228C278.503 168.158 274.073 169.218 269.376 169.218L269.374 169.22ZM269.339 149.387C264.868 149.387 260.676 150.384 257.532 152.198C254.505 153.946 252.838 156.232 252.838 158.634C252.838 161.038 254.512 163.328 257.546 165.079C260.694 166.9 264.894 167.899 269.372 167.899C273.841 167.899 278.035 166.902 281.177 165.086C284.204 163.34 285.871 161.057 285.871 158.652C285.871 156.248 284.197 153.958 281.16 152.205C278.014 150.387 273.815 149.384 269.337 149.384L269.339 149.387Z" fill="#0D0D0D"/>
<path d="M280.202 154.806H280.213C277.026 151.437 276.17 149.521 276.172 142.194C276.17 142.194 276.17 142.19 276.17 142.187C276.17 141.183 275.5 140.181 274.173 139.409C271.51 137.872 267.202 137.874 264.542 139.406C263.154 140.211 262.51 141.271 262.573 142.32C262.563 149.363 261.729 151.372 258.748 154.569C255.458 157.422 255.992 161.316 260.361 163.837C265.335 166.713 273.401 166.713 278.374 163.844C282.618 161.395 283.22 157.642 280.204 154.806H280.202Z" fill="white"/>
<path d="M269.373 166.655H269.37C265.85 166.655 262.532 165.858 260.028 164.409C257.617 163.017 256.18 161.136 255.984 159.108C255.812 157.311 256.64 155.52 258.314 154.07C261.123 151.049 261.9 149.233 261.911 142.318C261.83 141.016 262.667 139.73 264.208 138.833C266.985 137.236 271.733 137.238 274.5 138.833C275.976 139.689 276.799 140.851 276.827 142.116C276.829 142.139 276.832 142.165 276.832 142.19C276.827 149.315 277.606 151.084 280.694 154.346C280.71 154.362 280.726 154.381 280.738 154.4C282.21 155.82 282.91 157.532 282.712 159.229C282.484 161.212 281.059 163.052 278.701 164.412C276.199 165.856 272.884 166.651 269.373 166.651V166.655ZM269.354 138.919C267.65 138.919 266.057 139.296 264.871 139.979C263.764 140.623 263.181 141.439 263.234 142.279C263.223 149.58 262.276 151.756 259.233 155.02C257.819 156.25 257.17 157.601 257.303 158.983C257.456 160.573 258.658 162.094 260.691 163.265C262.999 164.6 266.08 165.335 269.373 165.335H269.375C272.658 165.335 275.736 164.602 278.041 163.272C280.026 162.126 281.221 160.638 281.401 159.083C281.554 157.762 280.984 156.45 279.75 155.29C279.712 155.255 279.682 155.218 279.654 155.179C276.402 151.726 275.511 149.677 275.511 142.258C275.509 142.237 275.506 142.214 275.506 142.19C275.506 141.391 274.913 140.607 273.839 139.984C272.653 139.3 271.058 138.921 269.356 138.921L269.354 138.919Z" fill="#0D0D0D"/>
<path d="M280.203 154.806H280.214C277.026 151.437 276.171 149.521 276.173 142.194C276.171 142.194 276.171 142.19 276.171 142.187C276.171 141.183 275.501 140.181 274.174 139.409C272.841 138.642 271.1 138.256 269.358 138.256C270.323 138.256 271.286 138.642 272.023 139.409C272.76 140.176 273.127 141.183 273.127 142.187V142.197C273.127 149.516 273.602 151.439 275.364 154.806H275.359C276.999 157.591 278.317 163.625 275.322 165.106C276.406 164.771 277.457 164.372 278.373 163.841C282.616 161.393 283.218 157.64 280.203 154.804V154.806Z" fill="#0D0D0D"/>
<path d="M275.321 165.768C275.056 165.768 274.809 165.607 274.707 165.351C274.579 165.03 274.719 164.668 275.028 164.514C275.598 164.233 276.002 163.701 276.232 162.936C276.865 160.813 275.995 157.192 274.791 155.144C274.772 155.114 274.758 155.081 274.744 155.049C272.954 151.607 272.466 149.589 272.466 142.195C272.466 141.309 272.138 140.484 271.545 139.866C270.957 139.254 270.18 138.915 269.357 138.915C268.992 138.915 268.697 138.619 268.697 138.254C268.697 137.889 268.992 137.594 269.357 137.594C271.284 137.594 273.112 138.036 274.502 138.835C275.979 139.691 276.802 140.854 276.83 142.119C276.832 142.142 276.835 142.167 276.835 142.193C276.83 149.317 277.609 151.087 280.697 154.349C280.713 154.365 280.729 154.384 280.741 154.402C282.213 155.823 282.912 157.534 282.715 159.232C282.487 161.215 281.062 163.054 278.704 164.414C277.851 164.907 276.809 165.34 275.516 165.737C275.453 165.758 275.386 165.768 275.323 165.768H275.321ZM275.965 154.537C277.114 156.53 278.33 160.517 277.497 163.312C277.467 163.412 277.434 163.512 277.4 163.607C277.625 163.498 277.837 163.387 278.039 163.27C280.025 162.124 281.22 160.636 281.399 159.08C281.552 157.76 280.983 156.448 279.748 155.288C279.711 155.253 279.68 155.216 279.653 155.177C276.4 151.724 275.509 149.675 275.509 142.256C275.507 142.235 275.505 142.212 275.505 142.188C275.505 141.388 274.912 140.605 273.837 139.982C273.577 139.831 273.293 139.696 272.996 139.575C273.507 140.338 273.784 141.242 273.784 142.188C273.784 149.406 274.219 151.198 275.946 154.5C275.953 154.512 275.958 154.526 275.965 154.537Z" fill="#0D0D0D"/>
<path d="M274.177 144.971C276.835 143.436 276.83 140.949 274.17 139.409C271.508 137.872 267.199 137.875 264.539 139.407C261.879 140.942 261.882 143.432 264.544 144.966C267.204 146.503 271.519 146.508 274.177 144.971Z" fill="#CBE8CA"/>
<path d="M269.371 146.782C267.436 146.782 265.604 146.341 264.216 145.539C262.716 144.674 261.889 143.481 261.889 142.186C261.889 140.891 262.712 139.7 264.214 138.833C266.985 137.238 271.736 137.24 274.503 138.835C276.005 139.705 276.832 140.895 276.83 142.195C276.83 143.49 276.007 144.678 274.51 145.543C273.128 146.343 271.301 146.782 269.371 146.782ZM269.357 138.921C267.653 138.921 266.06 139.298 264.874 139.981C263.802 140.6 263.212 141.383 263.212 142.188C263.212 142.992 263.805 143.776 264.879 144.397C266.069 145.085 267.667 145.464 269.373 145.464C271.078 145.464 272.666 145.087 273.849 144.404C274.921 143.785 275.509 143.004 275.509 142.202C275.509 141.395 274.916 140.609 273.842 139.988C272.652 139.302 271.059 138.926 269.355 138.926L269.357 138.921Z" fill="#0D0D0D"/>
<path d="M277.948 134.001C277.948 129.256 274.1 125.408 269.357 125.408C264.611 125.41 260.768 129.256 260.763 134.001C260.763 138.747 264.611 142.595 269.357 142.597C274.105 142.595 277.948 138.747 277.948 134.001Z" fill="#CBE8CA"/>
<path d="M269.353 143.258C264.252 143.253 260.099 139.1 260.099 134.001C260.101 128.902 264.254 124.75 269.353 124.747C274.455 124.747 278.607 128.898 278.607 134.001C278.607 139.105 274.457 143.255 269.353 143.258ZM269.353 126.068C264.982 126.073 261.424 129.63 261.422 134.001C261.422 138.373 264.98 141.932 269.353 141.937C273.727 141.935 277.284 138.373 277.284 134.001C277.284 129.63 273.727 126.07 269.353 126.07V126.068Z" fill="#0D0D0D"/>
<path d="M271.787 125.801C273.938 127.361 275.356 129.881 275.356 132.748C275.356 137.496 271.51 141.344 266.765 141.342C265.914 141.342 265.112 141.179 264.333 140.951C265.749 141.974 267.476 142.597 269.353 142.597C274.101 142.595 277.944 138.747 277.944 134.001C277.944 130.107 275.335 126.856 271.785 125.801H271.787Z" fill="#0D0D0D"/>
<path d="M269.355 143.258C267.418 143.258 265.549 142.644 263.949 141.486C263.689 141.298 263.603 140.949 263.742 140.661C263.882 140.372 264.212 140.226 264.521 140.316C265.37 140.563 266.081 140.679 266.767 140.679C271.143 140.679 274.698 137.119 274.698 132.748C274.698 130.23 273.464 127.833 271.399 126.335C271.138 126.147 271.05 125.796 271.194 125.508C271.336 125.219 271.666 125.071 271.975 125.166C275.942 126.345 278.607 129.895 278.607 133.999C278.607 139.1 274.456 143.253 269.353 143.255L269.355 143.258ZM268.337 141.87C268.674 141.914 269.013 141.937 269.355 141.937C273.726 141.935 277.286 138.373 277.286 134.001C277.286 131.799 276.389 129.781 274.882 128.335C275.617 129.677 276.019 131.193 276.019 132.748C276.019 137.317 272.692 141.123 268.334 141.87H268.337Z" fill="#0D0D0D"/>
<path d="M274.176 130.873C276.834 129.333 276.829 126.846 274.169 125.309C271.507 123.774 267.199 123.772 264.539 125.309C261.881 126.841 261.881 129.329 264.543 130.866C267.203 132.403 271.519 132.403 274.176 130.873Z" fill="white"/>
<path d="M269.369 132.679C267.432 132.679 265.602 132.24 264.214 131.438C262.714 130.573 261.886 129.38 261.889 128.083C261.889 126.788 262.714 125.599 264.211 124.734C266.976 123.132 271.726 123.135 274.5 124.734C276.002 125.602 276.828 126.792 276.83 128.09C276.83 129.385 276.007 130.575 274.51 131.442C273.124 132.238 271.298 132.677 269.369 132.677V132.679ZM269.352 124.818C267.648 124.818 266.058 125.195 264.874 125.881C263.802 126.499 263.212 127.28 263.212 128.085C263.212 128.889 263.802 129.675 264.879 130.296C267.253 131.666 271.475 131.668 273.851 130.303C274.921 129.682 275.512 128.899 275.512 128.097C275.512 127.29 274.919 126.506 273.845 125.883C272.654 125.197 271.059 124.82 269.355 124.82L269.352 124.818Z" fill="#0D0D0D"/>
<path d="M274.169 125.308C272.839 124.541 271.098 124.157 269.356 124.157C270.335 124.157 271.312 124.543 272.061 125.308C273.556 126.845 273.556 129.336 272.063 130.87C271.317 131.637 270.342 132.021 269.361 132.021C271.103 132.021 272.849 131.635 274.176 130.872C276.834 129.333 276.829 126.845 274.169 125.308Z" fill="#0D0D0D"/>
<path d="M269.365 132.682C269 132.682 268.704 132.387 268.704 132.022C268.704 131.657 268.997 131.362 269.365 131.359C270.206 131.359 270.999 131.02 271.594 130.408C272.836 129.13 272.834 127.049 271.59 125.767C270.994 125.158 270.202 124.821 269.362 124.819C268.997 124.819 268.702 124.521 268.702 124.156C268.702 123.791 269 123.496 269.362 123.496H269.365C271.299 123.496 273.122 123.935 274.505 124.735C276.008 125.602 276.833 126.793 276.835 128.09C276.835 129.385 276.012 130.576 274.515 131.443C273.124 132.241 271.297 132.68 269.369 132.68L269.365 132.682ZM273.062 125.498C274.099 127.053 274.101 129.127 273.064 130.68C273.343 130.566 273.606 130.439 273.852 130.299C274.922 129.678 275.512 128.895 275.512 128.093C275.512 127.286 274.919 126.502 273.845 125.879C273.601 125.737 273.341 125.612 273.064 125.498H273.062Z" fill="#0D0D0D"/>
<path d="M304.823 62.8138V62.7929C304.809 57.559 301.344 52.3228 294.42 48.3259C280.56 40.3204 258.108 40.3227 244.269 48.3073C237.345 52.3088 233.89 57.5543 233.901 62.7929H233.899C233.899 102.348 251.584 126.325 269.36 126.33C287.133 126.327 304.816 102.357 304.823 62.8161V62.8138Z" fill="#CBE8CA"/>
<path d="M269.356 126.989C251.599 126.986 233.233 102.972 233.233 62.7939C233.233 62.7707 233.233 62.7498 233.238 62.7265C233.256 57.0346 237.053 51.7123 243.938 47.734C250.73 43.8162 259.744 41.6584 269.324 41.6584C278.903 41.6584 287.946 43.8231 294.749 47.7526C301.655 51.7402 305.466 57.0788 305.48 62.7916C305.475 102.982 287.107 126.986 269.356 126.989ZM234.554 62.859C234.575 102.172 252.257 125.663 269.356 125.666C286.46 125.663 304.152 102.152 304.159 62.8125C304.145 57.5717 300.569 52.6377 294.089 48.8966C287.483 45.081 278.687 42.9791 269.324 42.9791C259.961 42.9791 251.19 45.0741 244.598 48.878C238.116 52.6261 234.549 57.567 234.558 62.7893C234.558 62.8125 234.558 62.8358 234.554 62.859Z" fill="#0D0D0D"/>
<path d="M294.443 77.2852C308.283 69.2914 308.273 56.3311 294.416 48.3256C280.555 40.3202 258.104 40.3225 244.265 48.307C230.425 56.3032 230.439 69.2681 244.297 77.2619C258.15 85.2651 280.607 85.2651 294.446 77.2875L294.443 77.2852Z" fill="white"/>
<path d="M269.4 83.9254C259.8 83.9254 250.769 81.7607 243.968 77.8312C237.051 73.8413 233.24 68.4935 233.237 62.7736C233.235 57.0608 237.037 51.7199 243.938 47.7323C250.729 43.8145 259.744 41.6567 269.323 41.6567C278.903 41.6567 287.945 43.8214 294.749 47.7509C301.668 51.7478 305.479 57.1003 305.479 62.8201C305.479 68.54 301.678 73.8692 294.777 77.8568C287.987 81.77 278.977 83.9254 269.402 83.9254H269.4ZM269.321 42.9774C259.969 42.9774 251.187 45.0724 244.596 48.8763C238.12 52.6174 234.556 57.5514 234.556 62.7713C234.556 67.9982 238.134 72.9391 244.628 76.6849C251.232 80.5005 260.03 82.6024 269.4 82.6024C278.747 82.6024 287.525 80.5098 294.114 76.7105C300.59 72.9717 304.156 68.0377 304.156 62.8178C304.156 57.5979 300.58 52.6453 294.086 48.8949C287.48 45.0793 278.684 42.9774 269.321 42.9774Z" fill="#0D0D0D"/>
<path d="M296.004 60.9942C295.79 60.9942 295.583 60.8919 295.456 60.7036C294.072 58.6481 291.977 56.8066 289.236 55.2255C288.101 54.5675 286.834 53.9514 285.471 53.398C285.134 53.2608 284.972 52.8748 285.109 52.5377C285.246 52.1982 285.637 52.0378 285.969 52.175C287.387 52.7516 288.71 53.3933 289.896 54.0839C292.812 55.765 295.051 57.7437 296.551 59.9665C296.755 60.2711 296.674 60.6803 296.372 60.8849C296.26 60.9617 296.13 60.9989 296.004 60.9989V60.9942Z" fill="#0D0D0D"/>
<path d="M243.803 74.376C243.619 74.376 243.435 74.2993 243.305 74.1482C240.75 71.2162 239.692 67.9145 240.243 64.6012C240.908 60.6089 243.947 56.8678 248.795 54.066C256.833 49.425 268.9 47.916 279.531 50.2132C279.889 50.29 280.114 50.6434 280.038 50.9991C279.961 51.3572 279.603 51.5758 279.252 51.506C268.921 49.2739 257.226 50.7248 249.455 55.2099C244.954 57.8118 242.145 61.2228 241.547 64.8174C241.061 67.7285 242.015 70.6535 244.3 73.2786C244.542 73.553 244.512 73.9692 244.238 74.211C244.112 74.3202 243.956 74.3737 243.803 74.3737V74.376Z" fill="#0D0D0D"/>
<path d="M304.824 62.7916C304.824 62.7497 304.812 62.7032 304.81 62.6567C304.882 67.9487 301.438 73.2501 294.449 77.2842C293.754 77.6864 293.024 78.0491 292.289 78.4095C289.661 108.562 279.538 126.324 269.361 126.328C287.134 126.326 304.817 102.356 304.824 62.8148V62.7939V62.7916Z" fill="#0D0D0D"/>
<path d="M269.357 126.989C268.992 126.989 268.697 126.694 268.697 126.329C268.697 125.964 268.994 125.668 269.357 125.668C278.376 125.666 288.921 109.413 291.627 78.3542C291.646 78.124 291.787 77.9194 291.994 77.8171C292.718 77.4637 293.434 77.108 294.115 76.715C300.653 72.939 304.215 67.9516 304.143 62.6689C304.139 62.3131 304.418 62.0155 304.776 61.9992C305.134 61.9713 305.438 62.2527 305.464 62.6084C305.464 62.6247 305.48 62.7758 305.48 62.7921C305.476 102.98 287.107 126.984 269.357 126.989ZM292.91 78.8402C290.916 101.108 284.533 118.084 276.39 124.355C290.104 119.235 302.56 99.3595 304.018 68.8258C302.325 72.2205 299.186 75.3153 294.778 77.859C294.175 78.2054 293.548 78.5263 292.91 78.8402Z" fill="#0D0D0D"/>
<path d="M295.973 79.9326L292.92 81.6951C293.006 82.3182 293.055 82.9251 293.057 83.504V83.5226C293.057 84.4504 293.043 85.3548 293.027 86.2477L306.901 94.2601C306.408 105.451 302.185 112.933 296.879 116.784C293.685 118.202 290.304 118.462 287.209 117.542L284.156 119.304C283.261 120.362 282.317 121.25 281.331 121.978V122.585C286.856 125.775 292.89 125.631 298.051 122.629L298.061 122.638L301.207 120.82V120.811C308.412 116.565 313.902 106.73 313.902 92.5279V90.2818L295.973 79.9326Z" fill="#CBE8CA"/>
<path d="M289.759 125.591C286.743 125.591 283.797 124.772 281 123.159C280.795 123.04 280.67 122.821 280.67 122.587V121.98C280.67 121.771 280.77 121.573 280.937 121.45C281.891 120.743 282.802 119.878 283.648 118.878C283.697 118.82 283.755 118.771 283.823 118.734L286.876 116.971C287.031 116.881 287.22 116.86 287.394 116.911C290.331 117.785 293.57 117.527 296.606 116.181C299.843 113.816 305.53 107.787 306.216 94.6339L292.691 86.8214C292.484 86.7005 292.356 86.4773 292.361 86.2355C292.379 85.3473 292.393 84.4474 292.393 83.5244C292.389 82.9756 292.344 82.3944 292.261 81.7875C292.224 81.5224 292.354 81.2597 292.586 81.1248L295.639 79.3624C295.846 79.2438 296.095 79.2438 296.302 79.3624L314.231 89.7116C314.436 89.8301 314.561 90.0487 314.561 90.2835V92.5296C314.561 105.741 309.732 116.492 301.633 121.324C301.603 121.352 301.568 121.375 301.531 121.396L298.385 123.214C298.35 123.235 298.313 123.252 298.276 123.266C295.579 124.809 292.712 125.593 289.757 125.593L289.759 125.591ZM282.072 122.245C287.127 124.995 292.786 124.923 297.718 122.059C297.755 122.038 297.792 122.022 297.829 122.008L300.775 120.306C300.803 120.282 300.833 120.259 300.864 120.241C308.613 115.679 313.238 105.318 313.238 92.525V90.6602L295.972 80.6924L293.628 82.0456C293.684 82.5501 293.714 83.0384 293.716 83.4965C293.716 84.3126 293.705 85.0985 293.691 85.8658L307.228 93.6829C307.442 93.8061 307.569 94.0386 307.558 94.2851C307.102 104.651 303.445 112.828 297.262 117.316C293.842 118.859 290.459 119.12 287.292 118.253L284.581 119.817C283.793 120.736 282.951 121.55 282.07 122.243L282.072 122.245Z" fill="#0D0D0D"/>
<path d="M292.92 81.694C293.006 82.3171 293.055 82.924 293.057 83.5029V83.5215C293.057 84.4493 293.043 85.3537 293.027 86.2466L306.901 94.259C306.036 113.881 293.715 122.151 284.156 119.303C283.261 120.361 282.317 121.249 281.331 121.977V122.584C294.622 130.254 310.849 118.708 310.849 94.2869V92.0408L292.92 81.6917V81.694Z" fill="white"/>
<path d="M289.775 125.598C286.755 125.598 283.804 124.777 281 123.159C280.795 123.04 280.67 122.822 280.67 122.587V121.98C280.67 121.771 280.77 121.573 280.937 121.45C281.891 120.743 282.802 119.878 283.648 118.878C283.818 118.678 284.09 118.597 284.341 118.671C285.497 119.015 286.704 119.19 287.927 119.19C296.411 119.19 305.37 110.754 306.219 94.6294L292.693 86.8169C292.486 86.696 292.358 86.4728 292.363 86.231C292.382 85.3428 292.396 84.4429 292.396 83.5199C292.391 82.9711 292.347 82.3898 292.263 81.783C292.228 81.5342 292.34 81.2854 292.549 81.1436C292.758 81.0041 293.03 80.9924 293.249 81.1203L311.178 91.4695C311.383 91.5881 311.508 91.8067 311.508 92.0415V94.2876C311.508 103.544 309.227 111.489 304.914 117.272C300.908 122.638 295.532 125.596 289.777 125.596L289.775 125.598ZM282.072 122.245C284.548 123.591 287.136 124.275 289.775 124.275C295.104 124.275 300.103 121.508 303.854 116.483C307.997 110.933 310.188 103.258 310.188 94.2899V92.4251L293.702 82.9084C293.712 83.1106 293.716 83.306 293.721 83.4989C293.721 84.3151 293.709 85.101 293.695 85.8683L307.232 93.6854C307.446 93.8086 307.574 94.0411 307.562 94.2876C306.804 111.503 297.111 120.51 287.929 120.51C286.725 120.51 285.534 120.357 284.383 120.052C283.653 120.876 282.881 121.613 282.074 122.245H282.072Z" fill="#0D0D0D"/>
<path d="M296.872 116.785C293.68 118.203 290.301 118.463 287.204 117.543L284.151 119.305C288.258 120.528 292.873 119.686 296.872 116.785Z" fill="#0D0D0D"/>
<path d="M287.907 120.51C286.563 120.51 285.235 120.317 283.963 119.938C283.71 119.863 283.526 119.645 283.496 119.382C283.463 119.119 283.591 118.864 283.822 118.733L286.874 116.971C287.03 116.88 287.219 116.859 287.393 116.91C290.332 117.785 293.571 117.529 296.603 116.183C296.914 116.048 297.275 116.164 297.444 116.457C297.614 116.75 297.533 117.124 297.261 117.322C294.382 119.408 291.148 120.512 287.907 120.512V120.51ZM285.944 119.033C287.709 119.312 289.548 119.208 291.327 118.736C289.96 118.773 288.595 118.61 287.293 118.252L285.942 119.031L285.944 119.033Z" fill="#0D0D0D"/>
<path d="M310.85 92.0432V94.2893C310.85 108.554 305.309 118.417 298.052 122.63L298.061 122.64L301.207 120.821V120.812C308.413 116.566 313.902 106.731 313.902 92.5292V90.2831L310.85 92.0455V92.0432Z" fill="#0D0D0D"/>
<path d="M298.06 123.301C297.865 123.301 297.672 123.215 297.544 123.053L297.535 123.043C297.416 122.895 297.368 122.699 297.402 122.509C297.437 122.32 297.554 122.155 297.719 122.06C305.526 117.526 310.186 107.146 310.186 94.2907V92.0446C310.186 91.8097 310.312 91.5912 310.516 91.4726L313.569 89.7102C313.774 89.5916 314.025 89.5916 314.229 89.7102C314.434 89.8287 314.56 90.0473 314.56 90.2821V92.5282C314.56 105.74 309.73 116.491 301.632 121.323C301.602 121.351 301.567 121.374 301.53 121.395L298.384 123.213C298.281 123.274 298.167 123.301 298.053 123.301H298.06ZM311.509 92.4259V94.2907C311.509 103.08 309.377 110.774 305.568 116.363C310.449 110.939 313.241 102.468 313.241 92.5282V91.4261L311.509 92.4259Z" fill="#0D0D0D"/>
</svg>
