<svg width="600" height="388" viewBox="0 0 600 388" fill="none" xmlns="http://www.w3.org/2000/svg">
<path d="M58.6721 366.005C56.6936 366.005 54.8144 365.551 53.3855 364.725C51.7793 363.8 50.8965 362.509 50.8965 361.087C50.8965 359.665 51.7793 358.382 53.3784 357.46C56.2256 355.811 61.0902 355.811 63.948 357.46C65.5506 358.385 66.4335 359.679 66.4335 361.098C66.4335 362.516 65.5541 363.803 63.9551 364.728C62.5262 365.551 60.6505 366.005 58.6756 366.005H58.6721ZM58.6579 358.197C57.0517 358.197 55.4916 358.566 54.3854 359.204C53.4458 359.743 52.9104 360.431 52.9104 361.087C52.9104 361.743 53.4493 362.434 54.3889 362.977C56.6085 364.257 60.725 364.257 62.941 362.977C63.877 362.438 64.416 361.75 64.416 361.094C64.416 360.438 63.8771 359.747 62.9375 359.204C61.8277 358.563 60.2676 358.194 58.6579 358.194V358.197Z" fill="white"/>
<path d="M99.4724 77.0999C97.4903 77.0999 95.6147 76.646 94.1858 75.8199C92.5796 74.898 91.6968 73.6074 91.6968 72.1892C91.6968 70.7709 92.5761 69.4803 94.1823 68.5585C97.033 66.9133 101.894 66.9097 104.748 68.5585C106.354 69.4874 107.234 70.778 107.234 72.1963C107.234 73.6145 106.354 74.9016 104.752 75.827C103.326 76.6496 101.451 77.1034 99.4759 77.1034L99.4724 77.0999ZM99.4582 69.296C97.852 69.296 96.2955 69.6647 95.1857 70.3029C94.2461 70.8418 93.7107 71.5297 93.7107 72.1856C93.7107 72.8416 94.2496 73.5294 95.1892 74.0719C97.4123 75.359 101.525 75.359 103.745 74.079C104.677 73.5401 105.216 72.8522 105.216 72.1927C105.216 71.5332 104.677 70.8454 103.738 70.2994C102.628 69.6611 101.068 69.2924 99.4617 69.2924L99.4582 69.296Z" fill="white"/>
<path d="M508.649 296.879C506.667 296.879 504.791 296.425 503.363 295.599C501.756 294.674 500.874 293.379 500.874 291.961C500.874 290.543 501.756 289.256 503.359 288.334C506.206 286.685 511.071 286.685 513.925 288.334C515.531 289.259 516.414 290.55 516.414 291.972C516.414 293.394 515.531 294.677 513.929 295.599C512.503 296.422 510.631 296.875 508.649 296.875V296.879ZM508.638 289.071C507.029 289.071 505.476 289.44 504.366 290.078C503.43 290.617 502.895 291.305 502.895 291.961C502.895 292.617 503.433 293.308 504.373 293.851C506.593 295.135 510.706 295.131 512.925 293.851C513.861 293.312 514.397 292.624 514.397 291.968C514.397 291.312 513.858 290.621 512.918 290.078C511.808 289.437 510.248 289.068 508.638 289.068V289.071Z" fill="white"/>
<path d="M463.821 22.2904C461.843 22.2904 459.964 21.8366 458.535 21.0105C456.929 20.0851 456.046 18.7944 456.046 17.3726C456.046 15.9508 456.925 14.6673 458.528 13.7419C461.379 12.0932 466.24 12.0932 469.097 13.7419C470.7 14.6673 471.583 15.9615 471.583 17.3797C471.583 18.798 470.704 20.0851 469.101 21.0069C467.676 21.8295 465.8 22.2833 463.821 22.2833V22.2904ZM463.807 14.4829C462.198 14.4829 460.641 14.8517 459.535 15.4899C458.595 16.0324 458.06 16.7167 458.06 17.3726C458.06 18.0286 458.599 18.72 459.538 19.2625C461.758 20.5424 465.874 20.5424 468.09 19.2625C469.026 18.72 469.562 18.0357 469.562 17.3797C469.562 16.7238 469.023 16.0324 468.083 15.4864C466.974 14.8446 465.413 14.4759 463.807 14.4759V14.4829Z" fill="white"/>
<path d="M69.8067 211.085C69.7322 211.085 69.6578 211.078 69.5833 211.06C65.8037 210.202 60.3824 210.21 56.663 211.057C56.2517 211.146 55.8404 210.982 55.6064 210.639C55.3724 210.295 55.3724 209.848 55.6064 209.504C56.2588 208.547 56.5992 207.412 56.5957 206.221C56.5957 205.019 56.2517 203.884 55.5993 202.927C55.3653 202.583 55.3653 202.133 55.5993 201.792C55.8333 201.448 56.2553 201.282 56.6559 201.377C60.4533 202.242 65.8994 202.211 69.5691 201.384C69.9662 201.292 70.3882 201.459 70.6222 201.799C70.8562 202.143 70.8562 202.59 70.6222 202.934C69.9733 203.891 69.633 205.029 69.6365 206.221C69.6365 207.341 69.9343 208.401 70.5016 209.316C70.7179 209.5 70.8562 209.777 70.8562 210.085C70.8562 210.649 70.3917 211.149 69.8244 211.092H69.7996L69.8067 211.085ZM63.0877 208.391C64.8251 208.391 66.4951 208.504 68.0268 208.727C67.7644 207.93 67.6297 207.086 67.6297 206.217C67.6261 205.352 67.7609 204.508 68.0232 203.71C64.9456 204.15 61.2192 204.136 58.216 203.71C58.4784 204.508 58.6167 205.352 58.6167 206.217C58.6167 207.079 58.4855 207.926 58.2196 208.724C59.7371 208.508 61.3858 208.394 63.0877 208.394V208.391Z" fill="white"/>
<path d="M382.29 288.525C382.216 288.525 382.141 288.518 382.067 288.5C378.294 287.646 372.877 287.649 369.147 288.497C368.735 288.589 368.324 288.422 368.09 288.082C367.856 287.738 367.856 287.287 368.09 286.947C368.742 285.993 369.079 284.859 369.076 283.667C369.076 282.465 368.732 281.327 368.079 280.373C367.845 280.03 367.845 279.579 368.079 279.239C368.313 278.895 368.728 278.732 369.136 278.824C371.001 279.246 373.21 279.469 375.522 279.469C377.975 279.469 380.184 279.249 382.056 278.828C382.46 278.735 382.879 278.902 383.109 279.246C383.343 279.59 383.343 280.037 383.109 280.381C382.46 281.331 382.12 282.465 382.12 283.664C382.124 284.781 382.421 285.844 382.985 286.756C383.201 286.94 383.34 287.216 383.34 287.525C383.34 288.092 382.914 288.55 382.308 288.532H382.283L382.29 288.525ZM375.607 285.83C377.319 285.83 378.982 285.944 380.51 286.167C380.248 285.373 380.11 284.525 380.11 283.66C380.11 282.792 380.241 281.948 380.503 281.153C377.383 281.6 373.646 281.572 370.696 281.153C370.958 281.951 371.097 282.795 371.097 283.664C371.097 284.529 370.965 285.373 370.703 286.171C372.228 285.951 373.891 285.837 375.607 285.837V285.83Z" fill="white"/>
<path d="M559.837 100.571C559.762 100.571 559.692 100.564 559.614 100.547C555.848 99.6922 550.42 99.6957 546.697 100.54C546.286 100.628 545.874 100.465 545.64 100.125C545.41 99.7808 545.41 99.3305 545.64 98.9901C546.289 98.0399 546.629 96.9053 546.626 95.7104C546.626 94.5084 546.278 93.3703 545.63 92.4165C545.396 92.0726 545.396 91.6223 545.63 91.2819C545.864 90.938 546.271 90.7713 546.686 90.8671C548.551 91.289 550.76 91.5124 553.072 91.5124C555.525 91.5124 557.734 91.2925 559.606 90.8706C560.014 90.7784 560.429 90.9451 560.663 91.289C560.897 91.6329 560.894 92.0832 560.663 92.4236C560.014 93.3667 559.674 94.5049 559.674 95.7069C559.677 96.8237 559.975 97.891 560.543 98.7951C560.759 98.9795 560.897 99.2561 560.897 99.5645C560.897 100.128 560.447 100.653 559.865 100.571H559.841H559.837ZM553.153 97.8768C554.866 97.8768 556.529 97.9903 558.061 98.2136C557.798 97.4194 557.663 96.5756 557.66 95.7104C557.66 94.8417 557.795 93.9943 558.057 93.2001C554.93 93.6433 551.196 93.6185 548.246 93.2001C548.509 93.9979 548.647 94.8417 548.647 95.7104C548.647 96.5756 548.516 97.4194 548.257 98.2136C549.778 97.9974 551.441 97.8839 553.161 97.8839L553.153 97.8768Z" fill="white"/>
<path d="M263.103 66.5111C263.028 66.5111 262.95 66.504 262.879 66.4863C259.11 65.6318 253.686 65.6318 249.963 66.4828C249.555 66.575 249.14 66.4083 248.906 66.0679C248.676 65.724 248.676 65.2737 248.906 64.9334C249.558 63.9796 249.899 62.845 249.895 61.6536C249.895 60.4517 249.551 59.3135 248.899 58.3597C248.668 58.0158 248.668 57.5655 248.899 57.2251C249.133 56.8812 249.544 56.711 249.956 56.8103C251.821 57.2358 254.029 57.4591 256.341 57.4591C258.795 57.4591 261.004 57.2358 262.876 56.8174C263.276 56.7252 263.702 56.8918 263.932 57.2358C264.166 57.5797 264.163 58.0265 263.932 58.3704C263.284 59.3206 262.94 60.4552 262.947 61.6536C262.947 62.7705 263.248 63.8342 263.808 64.7454C264.025 64.9298 264.163 65.2063 264.163 65.5148C264.163 66.0821 263.762 66.536 263.131 66.5253H263.106L263.103 66.5111ZM256.419 63.8165C258.132 63.8165 259.791 63.9299 261.323 64.1498C261.06 63.3555 260.926 62.5117 260.926 61.643C260.926 60.7743 261.057 59.9304 261.319 59.1362C258.196 59.583 254.462 59.5546 251.512 59.1362C251.774 59.934 251.909 60.7779 251.909 61.643C251.913 62.5081 251.778 63.352 251.516 64.1498C253.04 63.9299 254.703 63.8165 256.423 63.8165H256.419Z" fill="white"/>
<path d="M207.816 387.246C207.259 387.246 206.805 386.796 206.805 386.239L206.798 375.329C206.798 374.773 207.252 374.319 207.805 374.319C208.362 374.319 208.812 374.769 208.812 375.326L208.819 386.236C208.819 386.792 208.369 387.243 207.812 387.243L207.816 387.246Z" fill="white"/>
<path d="M217.261 381.796H198.359C197.802 381.793 197.352 381.339 197.352 380.782C197.352 380.226 197.802 379.775 198.359 379.775L217.261 379.782C217.817 379.782 218.268 380.233 218.268 380.789C218.268 381.346 217.817 381.796 217.261 381.796Z" fill="white"/>
<path d="M589.045 216.541C588.488 216.541 588.034 216.091 588.034 215.534L588.027 204.624C588.027 204.068 588.478 203.614 589.034 203.614C589.591 203.614 590.041 204.064 590.041 204.621L590.048 215.531C590.048 216.087 589.598 216.541 589.041 216.541H589.045Z" fill="white"/>
<path d="M598.493 211.091H579.591C579.035 211.088 578.584 210.634 578.584 210.077C578.584 209.521 579.038 209.07 579.591 209.07L598.493 209.077C599.05 209.077 599.5 209.528 599.5 210.084C599.5 210.641 599.05 211.091 598.493 211.091Z" fill="white"/>
<path d="M338.022 13.5504C337.465 13.5504 337.015 13.1001 337.015 12.5435L337.008 1.63356C337.008 1.07689 337.455 0.623047 338.015 0.623047C338.571 0.623047 339.025 1.07334 339.025 1.63001L339.032 12.5399C339.032 13.0966 338.579 13.5469 338.025 13.5469L338.022 13.5504Z" fill="white"/>
<path d="M347.47 8.1006H328.568C328.012 8.09705 327.562 7.64321 327.562 7.08655C327.562 6.52988 328.012 6.07959 328.568 6.07959H347.47C348.027 6.08314 348.477 6.53697 348.477 7.09364C348.477 7.6503 348.027 8.1006 347.47 8.1006Z" fill="white"/>
<path d="M11.3993 192.357C10.8426 192.357 10.3923 191.906 10.3923 191.35L10.3853 180.436C10.3853 179.879 10.8356 179.429 11.3922 179.429C11.9489 179.429 12.4027 179.879 12.4027 180.436V191.35C12.4063 191.906 11.956 192.357 11.3958 192.357H11.3993Z" fill="white"/>
<path d="M20.8512 186.9L1.94592 186.893C1.38926 186.893 0.938965 186.443 0.938965 185.886C0.938965 185.329 1.3928 184.879 1.94592 184.879H20.8512C21.4079 184.882 21.8582 185.336 21.8582 185.893C21.8582 186.45 21.4079 186.9 20.8512 186.9Z" fill="white"/>
<g opacity="0.2">
<path d="M285.513 79.4796L397.143 15.0342L508.64 79.4087V154.434L397.019 218.88L285.513 154.509V79.4796Z" fill="#0D0D0D"/>
<path d="M397.021 219.886C396.847 219.886 396.673 219.84 396.517 219.751L285.011 155.38C284.702 155.199 284.507 154.866 284.507 154.508V79.4821C284.507 79.124 284.699 78.7872 285.011 78.6099L396.638 14.1644C396.954 13.9836 397.333 13.9836 397.649 14.1644L509.145 78.5354C509.453 78.7163 509.648 79.0495 509.648 79.4077V154.433C509.648 154.791 509.457 155.125 509.145 155.306L397.524 219.751C397.368 219.84 397.195 219.886 397.021 219.886ZM286.521 153.926L397.021 217.716L507.634 153.855V79.9927L397.145 16.2032L286.525 80.0636V153.926H286.521Z" fill="#0D0D0D"/>
<path d="M397.019 143.854L508.64 79.4087L397.143 15.0342L285.513 79.4796L397.019 143.854Z" fill="white"/>
<path d="M397.021 144.86C396.847 144.86 396.673 144.814 396.517 144.725L285.011 80.3543C284.702 80.1735 284.507 79.8402 284.507 79.4821C284.507 79.124 284.699 78.7872 285.011 78.6099L396.638 14.1644C396.954 13.9836 397.333 13.9836 397.649 14.1644L509.145 78.5354C509.453 78.7163 509.648 79.0495 509.648 79.4076C509.648 79.7658 509.457 80.0991 509.145 80.2799L397.524 144.725C397.368 144.814 397.195 144.86 397.021 144.86ZM287.532 79.4821L397.021 142.69L506.624 79.4076L397.142 16.1996L287.532 79.4821Z" fill="#0D0D0D"/>
<path d="M397.019 218.88V143.854L285.513 79.4795V154.509L397.019 218.88Z" fill="#92E490"/>
<path d="M397.021 219.887C396.847 219.887 396.673 219.84 396.517 219.752L285.011 155.381C284.702 155.2 284.507 154.867 284.507 154.509V79.483C284.507 79.1248 284.699 78.788 285.011 78.6107C285.326 78.4299 285.706 78.4299 286.021 78.6107L397.528 142.982C397.84 143.163 398.031 143.496 398.031 143.854V218.88C398.031 219.241 397.84 219.575 397.528 219.752C397.372 219.84 397.198 219.887 397.025 219.887H397.021ZM286.521 153.927L396.014 217.135V144.435L286.521 81.2274V153.927Z" fill="#0D0D0D"/>
</g>
<path d="M164.616 176.107L276.24 111.662L387.736 176.033V224.236L276.119 288.681L164.616 224.31V176.107Z" fill="#0D0D0D"/>
<path d="M276.118 289.692C275.94 289.692 275.77 289.646 275.614 289.557L164.111 225.186C163.799 225.005 163.607 224.672 163.607 224.314V176.111C163.607 175.749 163.799 175.416 164.111 175.239L275.731 110.793C276.043 110.613 276.426 110.613 276.738 110.793L388.234 175.161C388.55 175.342 388.738 175.675 388.738 176.033V224.239C388.738 224.598 388.546 224.931 388.234 225.112L276.614 289.557C276.458 289.646 276.288 289.692 276.11 289.692H276.118ZM165.625 223.732L276.118 287.522L386.727 223.662V176.618L276.238 112.832L165.625 176.696V223.736V223.732Z" fill="#0D0D0D"/>
<path d="M276.119 240.478L387.736 176.033L276.24 111.662L164.616 176.107L276.119 240.478Z" fill="white"/>
<path d="M276.118 241.489C275.94 241.489 275.77 241.443 275.614 241.354L164.111 176.983C163.799 176.802 163.607 176.469 163.607 176.111C163.607 175.753 163.799 175.416 164.111 175.239L275.731 110.793C276.043 110.613 276.426 110.613 276.738 110.793L388.234 175.161C388.55 175.342 388.738 175.675 388.738 176.033C388.738 176.391 388.546 176.728 388.234 176.905L276.614 241.354C276.458 241.443 276.288 241.489 276.11 241.489H276.118ZM166.632 176.111L276.118 239.319L385.72 176.037L276.238 112.832L166.632 176.115V176.111Z" fill="#0D0D0D"/>
<path d="M276.119 288.682V240.479L164.616 176.108V224.311L276.119 288.682Z" fill="#92E490"/>
<path d="M276.118 289.691C275.94 289.691 275.77 289.645 275.614 289.557L164.111 225.186C163.799 225.005 163.607 224.671 163.607 224.313V176.11C163.607 175.749 163.799 175.415 164.111 175.238C164.423 175.057 164.806 175.057 165.118 175.238L276.617 239.609C276.933 239.79 277.121 240.123 277.121 240.481V288.684C277.121 289.042 276.929 289.376 276.617 289.557C276.461 289.645 276.291 289.691 276.114 289.691H276.118ZM165.625 223.732L275.111 286.94V241.063L165.625 177.855V223.732Z" fill="#0D0D0D"/>
<path d="M43.7124 278.081L155.336 213.635L266.832 278.006V294.04L155.212 358.485L43.7124 294.114V278.081Z" fill="#0D0D0D"/>
<path d="M155.211 359.496C155.038 359.496 154.864 359.449 154.708 359.361L43.2047 294.99C42.8926 294.809 42.7012 294.476 42.7012 294.118V278.084C42.7012 277.723 42.8926 277.389 43.2047 277.212L154.828 212.766C155.14 212.586 155.527 212.586 155.835 212.766L267.331 277.137C267.647 277.318 267.835 277.652 267.835 278.01V294.043C267.835 294.405 267.643 294.738 267.331 294.915L155.715 359.361C155.559 359.449 155.385 359.496 155.211 359.496ZM44.7151 293.536L155.211 357.326L265.824 293.462V278.591L155.335 214.802L44.7186 278.666V293.536H44.7151Z" fill="#0D0D0D"/>
<path d="M155.212 342.452L266.832 278.006L155.336 213.635L43.7124 278.081L155.212 342.452Z" fill="white"/>
<path d="M155.211 343.462C155.038 343.462 154.864 343.416 154.708 343.327L43.2047 278.956C42.8926 278.776 42.7012 278.442 42.7012 278.084C42.7012 277.726 42.8926 277.389 43.2047 277.212L154.828 212.766C155.14 212.586 155.527 212.586 155.835 212.766L267.331 277.138C267.647 277.318 267.835 277.652 267.835 278.01C267.835 278.368 267.643 278.705 267.331 278.882L155.715 343.327C155.559 343.416 155.385 343.462 155.211 343.462ZM45.7256 278.081L155.211 341.289L264.814 278.006L155.332 214.798L45.7221 278.081H45.7256Z" fill="#0D0D0D"/>
<path d="M155.212 358.485V342.451L43.7124 278.08V294.114L155.212 358.485Z" fill="#92E490"/>
<path d="M155.211 359.495C155.038 359.495 154.864 359.449 154.708 359.361L43.2047 294.99C42.8926 294.809 42.7012 294.476 42.7012 294.117V278.084C42.7012 277.722 42.8926 277.389 43.2047 277.212C43.5167 277.031 43.8996 277.031 44.2116 277.212L155.715 341.583C156.027 341.764 156.218 342.097 156.218 342.455V358.488C156.218 358.85 156.027 359.183 155.715 359.361C155.559 359.449 155.385 359.495 155.211 359.495ZM44.7151 293.536L154.204 356.744V343.037L44.7151 279.828V293.536Z" fill="#0D0D0D"/>
<g opacity="0.2">
<path d="M436.753 98.5257C442.013 95.4898 449.323 94.6901 454.087 96.4254C456.451 94.0301 458.256 91.5182 459.479 88.921C453.978 88.2028 449.789 84.6428 449.781 80.3491C449.774 76.0476 453.959 72.4992 459.464 71.7849C458.233 69.1877 456.424 66.6681 454.052 64.2767C449.288 66.0081 441.974 65.2006 436.718 62.1609C431.453 59.1211 430.056 54.905 433.049 52.1525C428.91 50.7859 424.547 49.7416 420.051 49.035C418.809 52.2068 412.652 54.6254 405.209 54.6216C397.767 54.6177 391.606 52.1991 390.36 49.0195C385.864 49.7261 381.505 50.7704 377.362 52.133C380.367 54.8894 378.981 59.1094 373.721 62.1453C368.46 65.1812 361.158 65.9849 356.379 64.2495C354.022 66.6371 352.217 69.1566 350.994 71.7538C356.495 72.472 360.684 76.0282 360.696 80.3258C360.696 84.6234 356.511 88.1796 351.014 88.8939C352.24 91.4911 354.053 94.0106 356.422 96.3982C361.189 94.6667 368.499 95.4743 373.756 98.5141C379.02 101.554 380.418 105.77 377.424 108.526C381.563 109.893 385.919 110.941 390.422 111.652C391.668 108.476 397.814 106.057 405.264 106.061C412.714 106.061 418.871 108.484 420.117 111.663C424.609 110.957 428.969 109.908 433.107 108.55C430.106 105.793 431.5 101.573 436.753 98.5373V98.5257ZM382.96 93.1915C370.65 86.0792 370.638 74.5568 382.937 67.4562C395.24 60.3556 415.195 60.3595 427.513 67.4717C439.823 74.584 439.839 86.1026 427.536 93.2109C415.233 100.315 395.275 100.308 382.96 93.1954V93.1915Z" fill="#0D0D0D"/>
<path d="M420.121 112.749C419.671 112.749 419.259 112.478 419.092 112.051C418.149 109.644 412.718 107.151 405.268 107.147C397.814 107.147 392.394 109.632 391.455 112.039C391.268 112.516 390.779 112.796 390.255 112.726C385.694 112.004 381.264 110.94 377.087 109.558C376.714 109.438 376.434 109.127 376.353 108.743C376.271 108.362 376.399 107.963 376.687 107.699C377.584 106.872 377.98 105.917 377.863 104.857C377.661 103.013 375.965 101.044 373.216 99.4566C370.064 97.6358 366.026 96.5915 362.144 96.5915C360.148 96.5915 358.304 96.8788 356.81 97.4223C356.41 97.5698 355.952 97.4688 355.649 97.1621C353.191 94.6853 351.301 92.057 350.024 89.3511C349.876 89.0328 349.888 88.6601 350.055 88.3495C350.222 88.0428 350.532 87.8293 350.882 87.7866C355.936 87.1305 359.605 83.9859 359.605 80.3133C359.593 76.6407 355.921 73.4961 350.862 72.8361C350.513 72.7895 350.206 72.5799 350.035 72.2693C349.864 71.9587 349.857 71.5899 350.004 71.2716C351.285 68.5579 353.168 65.9296 355.606 63.4644C355.909 63.1539 356.359 63.0529 356.767 63.2004C358.273 63.7478 360.125 64.039 362.125 64.039C366.003 64.039 370.033 62.9986 373.181 61.1817C375.926 59.6016 377.611 57.6372 377.813 55.797C377.929 54.7333 377.529 53.7705 376.625 52.9397C376.337 52.6757 376.209 52.2797 376.291 51.8954C376.372 51.5149 376.652 51.2043 377.024 51.0801C381.213 49.7019 385.647 48.6421 390.193 47.9277C390.713 47.854 391.206 48.1335 391.393 48.6149C392.336 51.018 397.763 53.5104 405.217 53.5182C412.671 53.5182 418.091 51.0335 419.03 48.6343C419.217 48.1529 419.71 47.8695 420.226 47.9472C424.78 48.6654 429.213 49.7291 433.398 51.1073C433.767 51.2315 434.047 51.5382 434.132 51.9226C434.214 52.303 434.089 52.7029 433.802 52.9669C432.901 53.7938 432.509 54.7488 432.622 55.8087C432.828 57.6527 434.52 59.621 437.273 61.2088C440.425 63.0296 444.455 64.0778 448.341 64.0778C450.333 64.0778 452.181 63.7905 453.675 63.2431C454.083 63.0956 454.537 63.1965 454.84 63.5032C457.282 65.9723 459.176 68.6006 460.461 71.3182C460.613 71.6365 460.605 72.0092 460.434 72.3198C460.263 72.6303 459.957 72.84 459.607 72.8866C454.549 73.5427 450.884 76.6834 450.888 80.356C450.892 84.0286 454.568 87.1771 459.623 87.8371C459.972 87.8837 460.283 88.0933 460.45 88.4039C460.621 88.7106 460.632 89.0832 460.481 89.4016C459.204 92.1114 457.321 94.7396 454.879 97.2126C454.576 97.5193 454.118 97.6203 453.714 97.4766C452.212 96.9292 450.36 96.6419 448.36 96.6419C444.482 96.6419 440.452 97.6824 437.304 99.4993C434.567 101.083 432.878 103.048 432.676 104.888C432.556 105.952 432.956 106.91 433.856 107.741C434.144 108.009 434.272 108.405 434.19 108.786C434.109 109.17 433.829 109.48 433.457 109.601C429.256 110.979 424.822 112.039 420.292 112.753C420.234 112.761 420.175 112.765 420.121 112.765V112.749ZM405.241 104.942C412.57 104.942 418.704 107.163 420.735 110.432C424.326 109.834 427.843 109.007 431.22 107.978C430.599 106.965 430.347 105.827 430.479 104.628C430.762 102.042 432.797 99.5381 436.205 97.5698C439.676 95.5666 444.106 94.4174 448.36 94.4174C450.325 94.4174 452.181 94.6737 453.78 95.159C455.434 93.4119 456.789 91.595 457.818 89.7432C452.445 88.5164 448.683 84.739 448.679 80.3482C448.675 75.9574 452.425 72.18 457.798 70.9571C456.758 69.0975 455.399 67.2806 453.741 65.5375C452.15 66.0189 450.298 66.2752 448.337 66.2752C444.074 66.2752 439.641 65.1221 436.162 63.1111C432.75 61.1428 430.708 58.6311 430.425 56.0455C430.293 54.8498 430.545 53.7162 431.162 52.7029C427.792 51.6702 424.271 50.8472 420.665 50.2454C418.638 53.5065 412.516 55.7194 405.221 55.7194C397.903 55.7155 391.769 53.4949 389.739 50.2299C386.14 50.8317 382.623 51.6547 379.249 52.6835C379.87 53.6967 380.126 54.8342 379.991 56.0377C379.707 58.6233 377.673 61.1273 374.268 63.0918C370.797 65.095 366.36 66.2441 362.109 66.2441C360.145 66.2441 358.289 65.9918 356.686 65.5026C355.036 67.2457 353.685 69.0626 352.652 70.9183C358.021 72.1451 361.783 75.9225 361.798 80.3133C361.798 84.708 358.04 88.4854 352.671 89.7083C353.704 91.5601 355.063 93.377 356.724 95.124C358.32 94.6426 360.168 94.3903 362.128 94.3903C366.387 94.3903 370.825 95.5394 374.303 97.5504C377.719 99.5225 379.758 102.034 380.045 104.62C380.177 105.816 379.925 106.949 379.307 107.959C382.673 108.991 386.194 109.818 389.805 110.42C391.831 107.159 397.954 104.946 405.233 104.946L405.241 104.942ZM405.279 99.6313C396.661 99.6313 388.543 97.6824 382.413 94.1457C376.097 90.4964 372.618 85.5815 372.618 80.3055C372.618 75.0296 376.089 70.1341 382.39 66.4964C388.5 62.9675 396.603 61.0264 405.206 61.0264C413.809 61.0264 421.942 62.9753 428.068 66.512C434.384 70.1574 437.859 75.0723 437.859 80.3482C437.859 85.6242 434.388 90.5235 428.091 94.1612C421.981 97.6901 413.878 99.6313 405.275 99.6313H405.279ZM405.209 63.2315C396.983 63.2315 389.273 65.0717 383.496 68.4065C377.906 71.6326 374.827 75.8565 374.827 80.3017C374.827 84.7468 377.914 88.994 383.519 92.2317C389.32 95.5782 397.045 97.4223 405.283 97.4223C413.521 97.4223 421.216 95.5821 426.993 92.2473C432.579 89.0211 435.658 84.7934 435.658 80.3482C435.658 75.9031 432.571 71.6598 426.969 68.422C421.173 65.0756 413.448 63.2315 405.213 63.2315H405.209Z" fill="#0D0D0D"/>
<path d="M462.744 53.0738V34.8856C461.435 32.1253 459.514 29.4543 457.002 26.9115C451.939 28.7516 444.183 27.8937 438.596 24.6675C436.896 23.6853 435.634 22.5905 434.706 21.4569V14.038C430.308 12.5899 425.684 11.4796 420.905 10.7265C419.581 14.1001 413.055 16.6624 405.151 16.6585C397.247 16.6585 390.705 14.0846 389.385 10.7109C384.61 11.4602 379.982 12.5705 375.591 14.0147V21.4569C374.667 22.5789 373.41 23.6698 371.725 24.6404C366.142 27.8626 358.389 28.7128 353.319 26.8727C350.811 29.4116 348.901 32.0826 347.601 34.839V56.529C347.601 56.529 347.608 56.529 347.616 56.529V74.7211C348.921 77.4814 350.846 80.1524 353.358 82.6914C358.416 80.8551 366.177 81.7091 371.764 84.9353C373.456 85.9175 374.73 87.0123 375.657 88.142V95.5648C380.048 97.0129 384.68 98.1271 389.451 98.8764C390.775 95.5066 397.309 92.9404 405.209 92.9443C413.113 92.9443 419.655 95.5144 420.971 98.8919C425.75 98.1387 430.374 97.0284 434.772 95.5881V88.1459C435.688 87.0239 436.954 85.9291 438.635 84.9586C444.214 81.7363 451.974 80.8861 457.041 82.7302C459.545 80.1873 461.466 77.5202 462.767 74.7599V53.0699C462.767 53.0699 462.755 53.0699 462.748 53.0699L462.744 53.0738ZM428.852 57.6316C415.792 65.1708 394.607 65.1669 381.535 57.616C380.006 56.7347 378.678 55.7875 377.502 54.7898C378.666 53.7998 379.986 52.8603 381.504 51.9829C394.564 44.4436 415.749 44.4475 428.825 51.9984C430.35 52.8797 431.682 53.8309 432.854 54.8247C431.686 55.8147 430.366 56.7542 428.852 57.6316Z" fill="#92E490"/>
<path d="M420.964 100.003C420.514 100.003 420.103 99.7273 419.936 99.3003C418.946 96.7613 413.445 94.0593 405.203 94.0554C396.957 94.0554 391.463 96.7536 390.47 99.2848C390.279 99.7662 389.786 100.053 389.27 99.972C384.444 99.211 379.743 98.0813 375.306 96.6138C374.855 96.4663 374.545 96.0431 374.545 95.5656V88.5504C373.675 87.5643 372.553 86.6714 371.206 85.8911C367.852 83.95 363.554 82.8436 359.419 82.8436C357.296 82.8436 355.328 83.1502 353.728 83.7287C353.328 83.8762 352.87 83.7714 352.563 83.4686C349.97 80.8442 347.967 78.0606 346.608 75.1955C346.538 75.048 346.503 74.8889 346.503 74.7258V56.8015C346.492 56.7161 346.484 56.6269 346.484 56.5337V34.8437C346.484 34.6806 346.519 34.5214 346.589 34.3739C347.944 31.4972 349.943 28.7136 352.521 26.1009C352.82 25.7942 353.282 25.6932 353.685 25.8408C355.293 26.4231 357.269 26.7337 359.396 26.7337C363.523 26.7337 367.813 25.6272 371.159 23.6939C372.483 22.9291 373.597 22.044 374.475 21.0579V14.0233C374.475 13.5458 374.781 13.1226 375.236 12.9751C379.681 11.5115 384.378 10.3856 389.2 9.62858C389.716 9.54317 390.209 9.83435 390.4 10.3157C391.394 12.8547 396.899 15.5568 405.14 15.5606C413.379 15.5606 418.872 12.8664 419.87 10.3313C420.06 9.84989 420.537 9.57036 421.069 9.64413C425.899 10.405 430.6 11.5348 435.041 12.9984C435.496 13.1459 435.802 13.569 435.802 14.0466V21.0579C436.676 22.0517 437.798 22.9446 439.141 23.7172C442.499 25.6544 446.797 26.7686 450.927 26.7686C453.051 26.7686 455.023 26.4619 456.619 25.8796C457.023 25.7321 457.477 25.833 457.784 26.1397C460.369 28.7563 462.372 31.5399 463.739 34.4128C463.809 34.5603 463.848 34.7233 463.848 34.8864V52.8844C463.855 52.9465 463.863 53.0125 463.863 53.0785V74.7685C463.863 74.9316 463.828 75.0907 463.758 75.2382C462.411 78.0994 460.412 80.8869 457.818 83.5113C457.516 83.818 457.061 83.9189 456.654 83.7753C455.05 83.1929 453.074 82.8824 450.947 82.8824C446.82 82.8824 442.53 83.9888 439.18 85.9221C437.848 86.6908 436.738 87.576 435.868 88.5582V95.5928C435.868 96.0703 435.562 96.4934 435.107 96.641C430.655 98.1007 425.953 99.2265 421.135 99.9874C421.077 99.9952 421.019 99.9991 420.961 99.9991L420.964 100.003ZM405.179 91.8503C412.967 91.8503 419.478 94.2107 421.589 97.6814C425.74 96.9904 429.797 96.0198 433.663 94.793V88.1583C433.663 87.9021 433.753 87.6536 433.912 87.4556C434.983 86.1512 436.385 84.9943 438.073 84.0121C441.75 81.8924 446.44 80.6773 450.947 80.6773C453.043 80.6773 455.023 80.9529 456.724 81.4692C458.843 79.237 460.501 76.8998 461.654 74.5162V53.2687C461.646 53.2066 461.639 53.1406 461.639 53.0746V35.1349C460.466 32.7395 458.805 30.4024 456.693 28.1779C454.996 28.6981 453.024 28.9699 450.931 28.9699C446.424 28.9699 441.723 27.7509 438.042 25.6234C436.338 24.6412 434.925 23.4765 433.846 22.1565C433.687 21.9585 433.597 21.7139 433.597 21.4577V14.8424C429.738 13.6118 425.685 12.6412 421.523 11.9463C419.408 15.4092 412.909 17.7619 405.16 17.7619C397.384 17.7619 390.873 15.4015 388.757 11.9308C384.603 12.6218 380.55 13.5924 376.692 14.8191V21.4577C376.692 21.7139 376.598 21.9624 376.435 22.1604C375.356 23.4687 373.951 24.6256 372.27 25.5962C368.597 27.7198 363.907 28.9349 359.404 28.9349C357.308 28.9349 355.328 28.6593 353.623 28.1391C351.511 30.3636 349.858 32.6968 348.701 35.0883V56.2619C348.712 56.3473 348.716 56.4366 348.716 56.5298V74.4696C349.881 76.861 351.542 79.1943 353.666 81.4265C355.359 80.9063 357.331 80.6346 359.423 80.6346C363.935 80.6346 368.632 81.8536 372.312 83.981C374.024 84.971 375.43 86.1357 376.505 87.444C376.664 87.642 376.754 87.8904 376.754 88.1428V94.762C380.613 95.9927 384.666 96.9632 388.82 97.6581C390.935 94.1952 397.43 91.8387 405.179 91.8387V91.8503ZM405.214 64.3874C396.075 64.3874 387.469 62.3221 380.977 58.5719C379.463 57.7022 378.093 56.7433 376.781 55.633C376.536 55.4234 376.393 55.1167 376.393 54.7906C376.393 54.4645 376.536 54.1578 376.781 53.9481C378.043 52.8766 379.44 51.8944 380.946 51.0248C387.426 47.2862 396.013 45.2248 405.137 45.2248C414.26 45.2248 422.882 47.2901 429.369 51.0403C430.868 51.9022 432.277 52.8883 433.562 53.9792C433.811 54.1888 433.95 54.4994 433.95 54.8216C433.95 55.1438 433.807 55.4544 433.562 55.6641C432.301 56.7317 430.903 57.7139 429.401 58.5835C422.925 62.3259 414.33 64.3835 405.21 64.3835L405.214 64.3874ZM379.258 54.7906C380.147 55.4661 381.078 56.0833 382.08 56.6579C388.245 60.2179 396.46 62.1784 405.214 62.1784C413.969 62.1784 422.152 60.2257 428.298 56.6773C429.28 56.1066 430.212 55.4855 431.089 54.8216C430.2 54.1461 429.269 53.5288 428.271 52.9542C422.106 49.3942 413.891 47.4337 405.137 47.4337C396.382 47.4337 388.198 49.3865 382.053 52.9349C381.067 53.5056 380.131 54.1228 379.258 54.7867V54.7906Z" fill="#0D0D0D"/>
<path d="M438.634 63.2768C444.213 60.0545 451.973 59.2004 457.04 61.0445C459.544 58.5094 461.465 55.8345 462.766 53.0743C456.919 52.3134 452.47 48.5398 452.47 43.9743C452.463 39.4088 456.9 35.6392 462.747 34.8822C461.438 32.1219 459.517 29.4509 457.005 26.9081C451.942 28.7482 444.186 27.8902 438.599 24.6641C433.009 21.438 431.526 16.9579 434.709 14.0346C430.311 12.5865 425.687 11.4762 420.908 10.723C419.584 14.0967 413.058 16.659 405.154 16.6551C397.249 16.6551 390.708 14.0812 389.388 10.7075C384.613 11.4568 379.985 12.5671 375.594 14.0113C378.786 16.9385 377.306 21.4186 371.728 24.6408C366.145 27.8631 358.392 28.7133 353.322 26.8731C350.814 29.4121 348.904 32.0831 347.604 34.8395C353.442 35.6043 357.888 39.3778 357.903 43.9394C357.903 48.501 353.462 52.2746 347.619 53.0355C348.923 55.7919 350.849 58.4667 353.361 61.0018C358.419 59.1655 366.18 60.0196 371.767 63.2496C377.361 66.4718 378.836 70.9519 375.66 73.8752C380.051 75.3272 384.683 76.4414 389.454 77.1907C390.778 73.8209 397.312 71.2509 405.212 71.2547C413.116 71.2547 419.658 73.8287 420.974 77.2023C425.753 76.4531 430.377 75.3428 434.775 73.9024C431.584 70.9752 433.059 66.4952 438.638 63.2729L438.634 63.2768ZM381.534 57.6126C368.455 50.0616 368.443 37.8326 381.503 30.2933C394.563 22.7502 415.748 22.758 428.824 30.3089C441.895 37.8559 441.911 50.0888 428.851 57.632C415.791 65.1713 394.606 65.1674 381.534 57.6165V57.6126Z" fill="white"/>
<path d="M420.967 78.313C420.517 78.313 420.106 78.0373 419.939 77.6102C418.933 75.0363 413.149 72.3692 405.206 72.3654C396.964 72.3654 391.466 75.0635 390.473 77.5986C390.282 78.08 389.789 78.3673 389.273 78.2858C384.44 77.521 379.742 76.3913 375.309 74.9277C374.936 74.8034 374.66 74.4967 374.579 74.1124C374.497 73.7319 374.621 73.3321 374.909 73.0681C375.883 72.1751 376.306 71.1386 376.178 69.9894C375.961 68.0095 374.152 65.9053 371.209 64.2127C367.851 62.2716 363.553 61.1612 359.419 61.1612C357.295 61.1612 355.331 61.468 353.731 62.0464C353.331 62.1939 352.873 62.093 352.566 61.7863C349.977 59.1697 347.974 56.3861 346.611 53.5133C346.46 53.1949 346.471 52.8223 346.642 52.5117C346.809 52.2011 347.116 51.9914 347.469 51.9448C352.869 51.2421 356.794 47.8763 356.794 43.9436C356.779 40.0109 352.854 36.6411 347.454 35.9345C347.104 35.8879 346.801 35.6783 346.631 35.3677C346.46 35.0572 346.448 34.6883 346.599 34.37C347.954 31.4932 349.954 28.7097 352.532 26.097C352.83 25.7903 353.292 25.6893 353.696 25.8368C355.303 26.4192 357.28 26.7298 359.407 26.7298C363.534 26.7298 367.824 25.6233 371.17 23.69C374.101 21.9973 375.906 19.8932 376.124 17.9171C376.252 16.7641 375.821 15.7275 374.847 14.8307C374.559 14.5667 374.431 14.1669 374.513 13.7864C374.594 13.4021 374.874 13.0954 375.246 12.9712C379.692 11.5076 384.389 10.3817 389.211 9.62468C389.727 9.53927 390.22 9.83042 390.41 10.3118C391.404 12.8508 396.909 15.5528 405.151 15.5567C413.389 15.5567 418.883 12.8625 419.88 10.3274C420.071 9.84596 420.548 9.56643 421.08 9.6402C425.91 10.4011 430.611 11.5308 435.052 12.9944C435.425 13.1148 435.704 13.4254 435.786 13.8097C435.867 14.194 435.743 14.59 435.452 14.854C434.482 15.7469 434.054 16.7835 434.179 17.9326C434.396 19.9126 436.209 22.0206 439.148 23.7133C442.502 25.6505 446.8 26.7647 450.934 26.7647C453.058 26.7647 455.03 26.458 456.626 25.8757C457.029 25.7281 457.484 25.8291 457.79 26.1358C460.376 28.7524 462.379 31.536 463.746 34.4088C463.897 34.7311 463.886 35.0999 463.715 35.4143C463.548 35.7249 463.241 35.9345 462.888 35.9811C457.484 36.6799 453.57 40.0458 453.57 43.9785C453.57 47.9112 457.495 51.281 462.907 51.9836C463.257 52.0302 463.563 52.2399 463.734 52.5505C463.905 52.8611 463.913 53.2299 463.765 53.5521C462.41 56.4211 460.415 59.2046 457.825 61.829C457.523 62.1357 457.068 62.2327 456.661 62.0891C455.057 61.5068 453.089 61.1962 450.958 61.1962C446.827 61.1962 442.537 62.3026 439.187 64.2399C436.26 65.9325 434.454 68.0367 434.237 70.0127C434.113 71.1658 434.544 72.2062 435.518 73.0991C435.805 73.3631 435.937 73.7591 435.852 74.1434C435.77 74.5278 435.491 74.8384 435.114 74.9587C430.658 76.4223 425.956 77.5443 421.142 78.3013C421.084 78.3091 421.026 78.3168 420.971 78.3168L420.967 78.313ZM405.182 70.1603C412.97 70.1603 419.481 72.5207 421.593 75.9914C425.455 75.3508 429.24 74.4657 432.866 73.3515C432.183 72.2683 431.9 71.0532 432.04 69.7682C432.339 67.0467 434.485 64.4029 438.08 62.3259C441.757 60.2023 446.45 58.9872 450.954 58.9872C453.05 58.9872 455.026 59.259 456.727 59.7792C458.524 57.8885 459.992 55.9164 461.102 53.9054C455.376 52.6359 451.361 48.6333 451.361 43.9785C451.358 39.3276 455.356 35.325 461.079 34.0555C459.961 32.0368 458.489 30.0646 456.692 28.1778C454.995 28.6981 453.023 28.9698 450.931 28.9698C446.423 28.9698 441.722 27.7508 438.042 25.6234C434.431 23.5425 432.28 20.8987 431.981 18.1733C431.842 16.8883 432.121 15.6732 432.804 14.5939C429.186 13.4797 425.397 12.5946 421.523 11.9501C419.407 15.4131 412.908 17.7657 405.159 17.7657C397.383 17.7657 390.872 15.4053 388.757 11.9346C384.886 12.5752 381.109 13.4642 377.486 14.5745C378.174 15.6577 378.457 16.8728 378.313 18.1617C378.014 20.8831 375.868 23.5308 372.269 25.6039C368.596 27.7275 363.906 28.9426 359.403 28.9426C357.307 28.9426 355.327 28.667 353.622 28.1468C351.829 30.0336 350.365 32.0019 349.255 34.0206C354.97 35.294 358.984 39.2927 358.999 43.9475C358.999 48.6022 354.993 52.6048 349.274 53.8743C350.392 55.8892 351.86 57.8575 353.665 59.7481C355.358 59.2279 357.326 58.9562 359.419 58.9562C363.93 58.9562 368.631 60.1752 372.315 62.3026C375.922 64.3796 378.073 67.0273 378.372 69.7487C378.515 71.0338 378.232 72.2489 377.552 73.3321C381.167 74.4463 384.948 75.3353 388.823 75.9836C390.938 72.5168 397.433 70.1642 405.182 70.1642V70.1603ZM405.217 64.3874C396.078 64.3874 387.472 62.3221 380.98 58.5718C374.295 54.7129 370.611 49.5146 370.615 43.9397C370.615 38.3726 374.288 33.1898 380.953 29.3386C387.433 25.6 396.02 23.5386 405.144 23.5386C414.267 23.5386 422.889 25.6039 429.376 29.3542C436.062 33.2131 439.742 38.4075 439.742 43.9824C439.742 49.5573 436.073 54.7362 429.404 58.5873C422.928 62.3259 414.337 64.3874 405.217 64.3874ZM405.14 25.7476C396.397 25.7476 388.198 27.7003 382.056 31.2526C376.101 34.6884 372.82 39.1956 372.82 43.9397C372.82 48.6915 376.108 53.2104 382.083 56.6618C388.248 60.2218 396.463 62.1823 405.217 62.1823C413.972 62.1823 422.155 60.2295 428.301 56.6812C434.256 53.2415 437.537 48.7342 437.537 43.9863C437.537 39.2383 434.249 34.7155 428.274 31.2681C422.109 27.712 413.894 25.7514 405.14 25.7514V25.7476Z" fill="#0D0D0D"/>
<path d="M434.771 96.6998C434.162 96.6998 433.665 96.2068 433.665 95.5973V73.9112C433.665 73.3017 434.162 72.8086 434.771 72.8086C435.381 72.8086 435.874 73.3017 435.874 73.9112V95.5973C435.874 96.2068 435.381 96.6998 434.771 96.6998Z" fill="#0D0D0D"/>
<path d="M420.967 100.003C420.358 100.003 419.865 99.51 419.865 98.9005V77.2105C419.865 76.601 420.358 76.1079 420.967 76.1079C421.577 76.1079 422.074 76.601 422.074 77.2105V98.9005C422.074 99.51 421.577 100.003 420.967 100.003Z" fill="#0D0D0D"/>
<path d="M457.039 83.8424C456.43 83.8424 455.933 83.3494 455.933 82.7399V61.0499C455.933 60.4403 456.43 59.9473 457.039 59.9473C457.649 59.9473 458.142 60.4403 458.142 61.0499V82.7399C458.142 83.3494 457.649 83.8424 457.039 83.8424Z" fill="#0D0D0D"/>
<path d="M389.446 99.9874C388.837 99.9874 388.344 99.4944 388.344 98.8849V77.1987C388.344 76.5892 388.841 76.0962 389.446 76.0962C390.052 76.0962 390.549 76.5892 390.549 77.1987V98.8849C390.549 99.4944 390.052 99.9874 389.446 99.9874Z" fill="#0D0D0D"/>
<path d="M375.652 96.6768C375.042 96.6768 374.545 96.1838 374.545 95.5743V73.8843C374.545 73.2748 375.042 72.7817 375.652 72.7817C376.261 72.7817 376.754 73.2748 376.754 73.8843V95.5743C376.754 96.1838 376.261 96.6768 375.652 96.6768Z" fill="#0D0D0D"/>
<path d="M353.357 83.8029C352.747 83.8029 352.254 83.3098 352.254 82.7003V61.0103C352.254 60.4007 352.747 59.9077 353.357 59.9077C353.966 59.9077 354.459 60.4046 354.459 61.0103V82.7003C354.459 83.3098 353.963 83.8029 353.357 83.8029Z" fill="#0D0D0D"/>
<path d="M452.469 43.9799C452.469 48.5454 456.918 52.3189 462.764 53.0798C462.761 53.0798 462.753 53.0798 462.745 53.0798V34.8916C456.902 35.6486 452.461 39.4221 452.469 43.9838V43.9799Z" fill="#0D0D0D"/>
<path d="M462.815 54.1777C462.815 54.1777 462.78 54.1777 462.761 54.1777C462.714 54.1777 462.664 54.1777 462.617 54.1699C462.617 54.1699 462.617 54.1699 462.613 54.1699C462.613 54.1699 462.602 54.1699 462.598 54.1699C456.087 53.3158 451.359 49.0298 451.359 43.9791C451.355 38.9205 456.08 34.6384 462.598 33.7921C462.905 33.7494 463.231 33.8465 463.471 34.06C463.708 34.2696 463.848 34.5725 463.848 34.8908V52.6908C463.895 52.8112 463.918 52.947 463.918 53.0829C463.918 53.6924 463.425 54.1855 462.815 54.1855V54.1777ZM461.639 36.1913C456.887 37.2124 453.564 40.3492 453.568 43.9752C453.568 47.5934 456.895 50.738 461.643 51.7629V36.1913H461.639Z" fill="#0D0D0D"/>
<path d="M438.633 63.2778C433.054 66.5001 431.579 70.9801 434.77 73.9073V88.1551C435.686 87.0331 436.952 85.9384 438.633 84.9678C444.211 81.7456 451.972 80.8954 457.038 82.7394V61.0494C451.972 59.2092 444.215 60.0594 438.633 63.2817V63.2778Z" fill="#92E490"/>
<path d="M434.77 89.2585C434.646 89.2585 434.518 89.2352 434.397 89.1925C433.959 89.0372 433.667 88.6218 433.667 88.156V74.3702C432.413 73.058 431.854 71.4779 432.045 69.7697C432.344 67.0483 434.49 64.4045 438.085 62.3275C441.762 60.2039 446.455 58.9888 450.959 58.9888C453.343 58.9888 455.579 59.3421 457.419 60.0137C457.854 60.1729 458.145 60.5883 458.145 61.0503V82.7403C458.145 83.1013 457.97 83.4352 457.675 83.6448C457.38 83.8506 457.003 83.901 456.662 83.7768C455.058 83.1945 453.082 82.8839 450.955 82.8839C446.828 82.8839 442.538 83.9903 439.188 85.9237C437.728 86.7661 436.529 87.7561 435.628 88.8548C435.411 89.1149 435.096 89.2585 434.774 89.2585H434.77ZM450.955 61.1939C446.824 61.1939 442.534 62.3003 439.184 64.2376C436.257 65.9302 434.452 68.0344 434.234 70.0104C434.11 71.1634 434.541 72.2039 435.515 73.0968C435.744 73.3025 435.873 73.6015 435.873 73.9082V85.5238C436.54 84.9842 437.278 84.4795 438.078 84.0136C441.754 81.8939 446.444 80.6788 450.951 80.6788C452.729 80.6788 454.422 80.8768 455.932 81.2533V61.85C454.476 61.4229 452.772 61.1978 450.955 61.1978V61.1939Z" fill="#0D0D0D"/>
<path d="M457.038 61.0449V82.7349C459.542 80.1921 461.463 77.525 462.764 74.7647V53.0747C461.467 55.835 459.542 58.506 457.038 61.0449Z" fill="#0D0D0D"/>
<path d="M457.039 83.8413C456.895 83.8413 456.756 83.8142 456.62 83.7598C456.2 83.589 455.933 83.1852 455.933 82.7388V61.0488C455.933 60.7576 456.049 60.4781 456.255 60.2723C458.67 57.8304 460.521 55.2487 461.764 52.6088C461.985 52.143 462.49 51.8751 463.006 52.0032C463.511 52.1158 463.868 52.5622 463.868 53.0786V74.7686C463.868 74.9316 463.833 75.0908 463.763 75.2383C462.416 78.0995 460.417 80.887 457.823 83.5114C457.614 83.7288 457.326 83.8413 457.039 83.8413ZM458.142 61.4991V79.8853C459.597 78.1422 460.778 76.3447 461.659 74.5162V57.2015C460.657 58.669 459.485 60.1054 458.142 61.4952V61.4991Z" fill="#0D0D0D"/>
<path d="M422.309 60.5491V43.9642H422.305C422.305 41.4369 420.627 38.9057 417.281 36.9762C410.588 33.1095 399.749 33.1095 393.064 36.9684C389.717 38.8979 388.048 41.4291 388.048 43.9642V60.5296C398.576 64.1673 411.784 64.1712 422.305 60.553L422.309 60.5491Z" fill="#0D0D0D"/>
<path d="M405.215 64.3653C399.042 64.3653 392.982 63.3987 387.69 61.5701C387.244 61.4149 386.949 60.9994 386.949 60.5297V43.9642C386.949 40.905 388.925 38.0827 392.512 36.0134C395.909 34.0529 400.401 32.9736 405.16 32.9736C409.92 32.9736 414.427 34.0568 417.832 36.0251C421.376 38.071 423.356 40.8429 423.407 43.8439C423.411 43.8827 423.415 43.9254 423.415 43.9642V60.5491C423.415 61.0189 423.116 61.442 422.669 61.5934C417.401 63.4064 411.364 64.3653 405.219 64.3653H405.215ZM389.154 59.7339C398.894 62.9018 411.453 62.9095 421.202 59.7571V44.0768C421.198 44.0419 421.194 44.0031 421.194 43.9642C421.194 41.7358 419.606 39.5967 416.725 37.9351C413.651 36.161 409.543 35.1826 405.16 35.1826C400.777 35.1826 396.678 36.1571 393.615 37.9274C390.738 39.5851 389.154 41.732 389.154 43.9681V59.7377V59.7339Z" fill="#0D0D0D"/>
<path d="M393.071 50.9537C386.382 47.0909 386.379 40.8288 393.064 36.9699C399.749 33.111 410.588 33.111 417.281 36.9777C423.978 40.8405 423.982 47.0986 417.297 50.9615C410.611 54.8204 399.764 54.8165 393.071 50.9537Z" fill="white"/>
<path d="M405.2 54.9558C400.428 54.9558 395.925 53.8727 392.524 51.9082C388.933 49.8313 386.953 47.0089 386.953 43.9536C386.953 40.8983 388.929 38.0837 392.512 36.0144C395.909 34.0539 400.401 32.9746 405.161 32.9746C409.92 32.9746 414.428 34.0577 417.832 36.026C421.427 38.0991 423.411 40.9254 423.411 43.9768C423.411 47.0283 421.439 49.8468 417.852 51.916C414.459 53.8765 409.963 54.9558 405.203 54.9558H405.2ZM405.161 35.1797C400.782 35.1797 396.678 36.1542 393.615 37.9245C390.742 39.5822 389.158 41.7252 389.158 43.9536C389.158 46.182 390.746 48.3327 393.627 49.9982C396.701 51.7724 400.813 52.7507 405.2 52.7507C409.587 52.7507 413.678 51.7762 416.745 50.0059C419.622 48.3482 421.206 46.2052 421.206 43.9768C421.206 41.7484 419.618 39.5977 416.73 37.9361C413.655 36.1619 409.548 35.1836 405.165 35.1836L405.161 35.1797Z" fill="#0D0D0D"/>
</g>
<path d="M118.452 307.469C138.818 319.226 171.881 319.209 192.3 307.42C212.709 295.63 212.755 276.544 192.385 264.787C172.009 253.022 138.953 253.047 118.537 264.833C98.1212 276.622 98.0857 295.708 118.452 307.469Z" fill="#0D0D0D"/>
<path d="M155.298 317.283H155.295C141.197 317.283 127.933 314.11 117.949 308.345C107.79 302.48 102.192 294.613 102.192 286.199C102.192 277.785 107.819 269.86 118.034 263.96C128.075 258.163 141.396 254.969 155.536 254.969C169.676 254.969 182.901 258.146 192.889 263.914C203.047 269.779 208.642 277.643 208.642 286.057C208.642 294.499 203.019 302.395 192.804 308.295C182.763 314.092 169.442 317.287 155.298 317.287V317.283ZM155.536 256.986C141.74 256.986 128.781 260.082 119.041 265.708C109.475 271.229 104.206 278.508 104.206 286.199C104.206 293.861 109.446 301.108 118.956 306.597C128.639 312.188 141.545 315.266 155.295 315.266H155.298C169.094 315.266 182.054 312.17 191.794 306.544C201.36 301.019 206.625 293.744 206.625 286.053C206.625 278.391 201.388 271.147 191.879 265.659C182.192 260.064 169.286 256.983 155.536 256.983V256.986Z" fill="#0D0D0D"/>
<path d="M192.966 271.867C198.813 261.743 199.39 252.575 195.601 245.922H195.604L195.573 245.864V245.86L192.08 239.816C188.26 233.141 180.04 229.013 168.323 229.016C144.921 229.016 116.447 245.481 104.718 265.794C98.8643 275.931 98.2965 285.114 102.095 291.766L105.622 297.876C109.445 304.529 117.665 308.645 129.36 308.645C152.762 308.645 181.24 292.18 192.966 271.867Z" fill="#0D0D0D"/>
<path d="M129.359 309.521C117.714 309.521 109.015 305.537 104.862 298.311L101.335 292.204C97.203 284.968 98.1318 275.433 103.958 265.352C115.807 244.832 144.683 228.136 168.322 228.136C179.989 228.136 188.694 232.129 192.841 239.38L196.331 245.422C196.331 245.422 196.35 245.453 196.356 245.468C196.365 245.487 196.374 245.502 196.38 245.521C200.472 252.741 199.531 262.251 193.724 272.307C181.878 292.827 153.005 309.524 129.359 309.524V309.521ZM168.331 229.888C145.238 229.888 117.047 246.19 105.479 266.229C99.9801 275.748 99.0513 284.663 102.856 291.328L106.383 297.434C110.212 304.096 118.371 307.765 129.362 307.765C152.446 307.765 180.64 291.464 192.212 271.425C197.701 261.918 198.636 253.016 194.844 246.354C194.825 246.326 194.81 246.295 194.801 246.264L191.323 240.247C187.497 233.563 179.332 229.885 168.335 229.885L168.331 229.888Z" fill="#0D0D0D"/>
<path d="M108.544 260.119C107.143 261.973 105.832 263.856 104.718 265.79C98.8643 275.927 98.2965 285.11 102.095 291.763L105.622 297.872C109.445 304.525 117.665 308.641 129.36 308.641C131.622 308.641 133.939 308.444 136.272 308.148L108.544 260.116V260.119Z" fill="#92E490"/>
<path d="M129.359 309.52C117.714 309.52 109.015 305.537 104.862 298.31L101.335 292.203C97.203 284.967 98.1318 275.433 103.958 265.352C104.97 263.593 106.244 261.711 107.846 259.591C108.025 259.356 108.33 259.23 108.599 259.242C108.892 259.261 109.157 259.424 109.305 259.68L137.036 307.712C137.184 307.965 137.191 308.277 137.061 308.539C136.928 308.801 136.675 308.983 136.385 309.02C133.719 309.357 131.423 309.52 129.362 309.52H129.359ZM108.45 261.714C107.259 263.346 106.281 264.83 105.476 266.228C99.9771 275.747 99.0483 284.662 102.853 291.327L106.38 297.434C110.209 304.096 118.368 307.765 129.359 307.765C131.001 307.765 132.806 307.657 134.845 307.434L108.45 261.714Z" fill="#0D0D0D"/>
<path d="M125.853 302.566C149.252 302.566 177.733 286.101 189.458 265.788C201.184 245.475 191.723 229.009 168.321 229.009C144.919 229.009 116.444 245.475 104.716 265.788C92.987 286.101 102.454 302.566 125.853 302.566Z" fill="white"/>
<path d="M125.853 303.442C114.226 303.442 105.53 299.471 101.368 292.259C97.1899 285.027 98.1094 275.47 103.954 265.346C115.803 244.826 144.679 228.129 168.318 228.129C179.945 228.129 188.638 232.101 192.803 239.309C196.978 246.542 196.059 256.101 190.217 266.222C178.368 286.742 149.496 303.439 125.853 303.439V303.442ZM168.321 229.885C145.237 229.885 117.046 246.187 105.478 266.225C99.9608 275.782 99.0413 284.715 102.889 291.383C106.728 298.027 114.88 301.689 125.853 301.689C148.937 301.689 177.131 285.388 188.699 265.349C194.217 255.793 195.136 246.857 191.285 240.188C187.45 233.545 179.294 229.885 168.321 229.885Z" fill="#0D0D0D"/>
<path d="M177.397 265.79C185.787 251.257 179.017 239.479 162.277 239.476C145.537 239.476 125.165 251.257 116.778 265.79C108.385 280.324 115.155 292.099 131.898 292.102C148.638 292.102 169.013 280.321 177.397 265.79ZM128.834 265.79C133.888 257.036 146.154 249.942 156.235 249.945C166.316 249.945 170.392 257.036 165.341 265.79C160.29 274.541 148.021 281.635 137.94 281.635C127.859 281.635 123.78 274.541 128.834 265.79ZM140.893 265.79C142.606 262.822 146.771 260.412 150.19 260.412C153.609 260.412 154.995 262.819 153.279 265.79C151.563 268.759 147.401 271.169 143.979 271.166C140.56 271.166 139.174 268.759 140.89 265.79H140.893Z" fill="#92E490"/>
<path d="M131.898 292.978C123.487 292.978 117.189 290.09 114.168 284.853C111.135 279.598 111.792 272.674 116.019 265.352C124.533 250.602 145.284 238.602 162.277 238.599C170.688 238.599 176.983 241.484 180.007 246.723C183.041 251.978 182.383 258.906 178.156 266.228C169.646 280.975 148.891 292.975 131.895 292.978H131.898ZM162.277 240.354C145.842 240.354 125.773 251.963 117.537 266.228C113.637 272.983 112.977 279.287 115.683 283.974C118.38 288.649 124.138 291.222 131.898 291.222C148.336 291.222 168.408 279.614 176.641 265.349C180.541 258.591 181.198 252.287 178.492 247.6C175.795 242.928 170.037 240.354 162.28 240.351L162.277 240.354ZM137.94 282.511C132.747 282.511 128.843 280.712 126.961 277.444C125.07 274.167 125.468 269.872 128.078 265.349C133.259 256.369 145.892 249.065 156.232 249.065H156.235C161.428 249.065 165.329 250.864 167.214 254.129C169.106 257.406 168.711 261.701 166.103 266.225C160.919 275.204 148.283 282.508 137.943 282.508L137.94 282.511ZM156.232 250.821C146.447 250.821 134.496 257.733 129.596 266.228C127.313 270.184 126.915 273.856 128.479 276.568C130.038 279.271 133.398 280.755 137.94 280.755C147.725 280.755 159.676 273.843 164.582 265.349C166.865 261.393 167.26 257.718 165.696 255.008C164.138 252.308 160.777 250.821 156.235 250.821H156.232ZM143.988 272.041H143.982C142.004 272.041 140.504 271.326 139.754 270.033C139.005 268.734 139.137 267.07 140.134 265.352C142.016 262.09 146.435 259.535 150.193 259.535C152.171 259.535 153.674 260.248 154.421 261.544C155.171 262.843 155.038 264.506 154.044 266.228C152.162 269.486 147.746 272.041 143.991 272.041H143.988ZM150.193 261.288C147.111 261.288 143.198 263.55 141.655 266.225C140.986 267.379 140.853 268.419 141.276 269.153C141.695 269.881 142.655 270.286 143.979 270.286L143.991 271.162V270.286C147.071 270.286 150.98 268.024 152.526 265.349C153.193 264.191 153.328 263.152 152.903 262.417C152.483 261.689 151.52 261.288 150.193 261.288Z" fill="#0D0D0D"/>
<path d="M101.965 201.276C105.218 206.911 113.926 212.715 116.533 212.86C113.413 207.457 110.294 202.057 107.174 196.654C104.57 196.506 101.052 195.321 97.3955 193.361C100.515 198.767 98.8458 195.873 101.965 201.273V201.276Z" fill="#92E490"/>
<path d="M116.534 213.74C116.515 213.74 116.5 213.74 116.481 213.74C113.393 213.567 104.512 207.439 101.207 201.718L96.6374 193.806C96.4399 193.467 96.4923 193.038 96.7669 192.757C97.0385 192.473 97.4612 192.409 97.8099 192.594C101.334 194.482 104.762 195.645 107.221 195.784C107.518 195.8 107.783 195.966 107.931 196.219L117.287 212.426C117.447 212.703 117.444 213.049 117.275 213.323C117.117 213.583 116.83 213.743 116.528 213.743L116.534 213.74ZM99.6027 195.426L102.729 200.842C105.324 205.341 111.264 209.698 114.63 211.324L106.647 197.5C104.632 197.306 102.204 196.59 99.6027 195.429V195.426Z" fill="#0D0D0D"/>
<path d="M147.09 266.667C146.788 266.667 146.492 266.509 146.331 266.229L104.517 193.804C104.273 193.385 104.418 192.848 104.838 192.607C105.261 192.363 105.794 192.511 106.035 192.928L147.846 265.352C148.09 265.772 147.945 266.309 147.525 266.55C147.39 266.63 147.238 266.667 147.087 266.667H147.09Z" fill="#0D0D0D"/>
<path d="M105.983 208.275C109.232 213.897 115.255 215.036 116.607 212.993C113.496 207.605 110.383 202.215 107.273 196.827C105.924 198.87 103.823 200.147 101.428 200.379C104.545 205.773 102.879 202.884 105.983 208.275Z" fill="white"/>
<path d="M114.307 214.817C111.543 214.817 107.661 212.928 105.226 208.716L100.672 200.82C100.524 200.561 100.514 200.246 100.65 199.981C100.786 199.715 101.048 199.536 101.348 199.508C103.492 199.299 105.334 198.175 106.544 196.346C106.71 196.093 107.004 195.941 107.303 195.951C107.608 195.96 107.883 196.126 108.037 196.389L117.372 212.555C117.538 212.842 117.529 213.2 117.344 213.477C116.776 214.341 115.699 214.817 114.311 214.817H114.307ZM102.816 201.027L106.744 207.84C108.818 211.428 112.12 213.061 114.307 213.064C114.792 213.064 115.205 212.981 115.499 212.829L107.167 198.398C105.998 199.69 104.489 200.604 102.816 201.03V201.027Z" fill="#0D0D0D"/>
<path d="M113.878 194.6C117.124 200.219 117.785 210.655 116.603 212.991C113.492 207.604 110.379 202.213 107.269 196.825C108.447 194.489 109.182 190.845 109.321 186.704C112.434 192.095 110.768 189.207 113.878 194.6Z" fill="#92E490"/>
<path d="M116.602 213.867C116.288 213.867 115.998 213.7 115.843 213.429L106.509 197.263C106.361 197.007 106.352 196.692 106.484 196.43C107.595 194.23 108.311 190.675 108.444 186.676C108.456 186.287 108.728 185.951 109.11 185.855C109.493 185.759 109.888 185.929 110.082 186.269L114.637 194.165C117.935 199.88 118.781 210.627 117.383 213.389C117.238 213.676 116.948 213.861 116.624 213.87H116.602V213.867ZM108.259 196.785L116.223 210.578C116.507 206.85 115.714 199.531 113.119 195.038L109.999 189.629C109.697 192.471 109.101 194.936 108.259 196.785Z" fill="#0D0D0D"/>
<path d="M117.719 201.278C120.975 206.912 118.966 212.719 116.531 212.861C113.412 207.458 110.292 202.058 107.172 196.655C109.607 196.507 111.758 195.322 113.149 193.363C116.269 198.769 114.6 195.875 117.719 201.275V201.278Z" fill="white"/>
<path d="M116.534 213.741C116.219 213.741 115.932 213.574 115.775 213.302L106.416 197.096C106.265 196.834 106.258 196.51 106.403 196.242C106.545 195.973 106.82 195.8 107.122 195.782C109.307 195.652 111.192 194.612 112.436 192.86C112.612 192.616 112.889 192.468 113.195 192.489C113.491 192.502 113.763 192.668 113.914 192.928L118.484 200.839C120.866 204.965 120.625 209.239 119.329 211.642C118.635 212.932 117.66 213.676 116.586 213.741C116.568 213.741 116.552 213.741 116.534 213.741ZM108.588 197.346L116.941 211.818C117.237 211.624 117.53 211.275 117.78 210.812C118.811 208.902 118.99 205.243 116.96 201.719L113.019 194.896C111.822 196.134 110.285 196.982 108.588 197.349V197.346Z" fill="#0D0D0D"/>
<path d="M227.524 40.4087L224.471 42.1711V44.4196C224.471 68.8335 240.7 99.1254 253.984 106.798L257.037 105.036V104.429C256.055 102.56 255.111 100.583 254.214 98.4929C245.223 90.7874 233.792 70.4239 231.748 50.8672L242.293 56.9567L245.346 55.1942C245.33 54.2805 245.313 53.3597 245.316 52.4343V52.4134C245.316 51.8367 245.367 51.288 245.453 50.7649L227.524 40.4087Z" fill="#92E490"/>
<path d="M253.983 107.459C253.869 107.459 253.755 107.429 253.653 107.371C240.218 99.6121 223.807 69.0389 223.807 44.418V42.1719C223.807 41.9347 223.933 41.7162 224.14 41.5999L227.193 39.8375C227.399 39.7189 227.648 39.7189 227.855 39.8375L245.784 50.1936C246.021 50.3308 246.152 50.6005 246.105 50.8726C246.031 51.3329 245.989 51.7747 245.98 52.2165C246.001 52.2793 246.01 52.3467 246.01 52.4165C246.01 52.4909 245.998 52.5583 245.977 52.6257C245.977 53.4953 245.994 54.3417 246.01 55.1857C246.015 55.4252 245.887 55.6507 245.68 55.7693L242.627 57.5318C242.422 57.6503 242.171 57.6503 241.966 57.5318L232.559 52.1002C234.907 70.8036 245.717 90.3418 254.65 97.9961C254.727 98.0612 254.785 98.1449 254.827 98.2379C255.699 100.263 256.64 102.246 257.629 104.125C257.68 104.221 257.703 104.325 257.703 104.432V105.039C257.703 105.276 257.577 105.495 257.373 105.611L254.32 107.373C254.218 107.432 254.104 107.462 253.99 107.462L253.983 107.459ZM225.13 42.5532V44.4203C225.13 68.4274 240.913 98.1426 253.987 106.034L256.375 104.593C255.422 102.77 254.513 100.854 253.667 98.8959C244.357 90.8277 233.11 70.2712 231.089 50.9377C231.064 50.6912 231.178 50.4494 231.387 50.3145C231.596 50.1774 231.861 50.1727 232.078 50.2959L242.292 56.1925L244.678 54.816C244.664 54.0255 244.652 53.2303 244.654 52.4327C244.654 51.9863 244.68 51.5538 244.736 51.1121L227.525 41.1721L225.132 42.5532H225.13Z" fill="#0D0D0D"/>
<path d="M242.4 52.5247C242.314 53.0502 242.26 53.5966 242.26 54.1756V54.1965C242.26 55.1196 242.274 56.0403 242.293 56.9564L228.419 48.9463C229.284 69.5703 241.605 92.066 251.166 100.257C252.061 102.348 253.005 104.324 253.984 106.194V106.8C240.7 99.1274 224.471 68.8356 224.471 44.4216V42.1709L242.4 52.5271V52.5247Z" fill="white"/>
<path d="M253.983 107.459C253.869 107.459 253.755 107.428 253.653 107.37C240.218 99.6114 223.807 69.0381 223.807 44.4173V42.1712C223.807 41.934 223.933 41.7154 224.14 41.5992C224.342 41.4806 224.595 41.4806 224.8 41.5992L242.729 51.9553C242.969 52.0925 243.096 52.3646 243.05 52.6343C242.964 53.1644 242.92 53.669 242.92 54.1782C242.92 55.1175 242.934 56.036 242.952 56.9451C242.957 57.1823 242.834 57.4055 242.627 57.5264C242.42 57.6473 242.166 57.6496 241.959 57.5287L229.141 50.1255C230.452 71.0866 242.896 92.3034 251.593 99.7555C251.669 99.8206 251.732 99.902 251.769 99.9973C252.632 102.013 253.574 103.994 254.566 105.885C254.615 105.98 254.643 106.085 254.643 106.191V106.798C254.643 107.036 254.518 107.254 254.313 107.37C254.211 107.428 254.097 107.459 253.983 107.459ZM225.13 43.3151V44.4196C225.13 67.6709 239.932 96.2748 252.741 105.222C251.997 103.736 251.283 102.209 250.618 100.658C241.576 92.8127 228.667 70.6029 227.76 48.9722C227.748 48.7304 227.871 48.5048 228.076 48.3793C228.283 48.2561 228.541 48.2514 228.748 48.3723L241.611 55.8011C241.601 55.2687 241.599 54.7339 241.599 54.1991C241.599 53.7504 241.627 53.3156 241.68 52.8761L225.13 43.3175V43.3151Z" fill="#0D0D0D"/>
<path d="M309.1 164.015L269.331 141.056L229.613 163.989V181.616L269.38 204.577L309.1 181.644V164.015Z" fill="#92E490"/>
<path d="M269.381 205.236C269.265 205.236 269.153 205.206 269.051 205.147L229.284 182.189C229.079 182.07 228.954 181.852 228.954 181.617V163.99C228.954 163.753 229.079 163.535 229.284 163.418L269.002 140.485C269.209 140.367 269.457 140.367 269.664 140.485L309.434 163.444C309.636 163.562 309.764 163.781 309.764 164.016V181.645C309.764 181.88 309.638 182.101 309.434 182.217L269.711 205.15C269.609 205.21 269.497 205.238 269.381 205.238V205.236ZM230.277 181.233L269.381 203.811L308.441 181.259V164.392L269.332 141.815L230.277 164.367V181.231V181.233Z" fill="#0D0D0D"/>
<path d="M309.1 164.014L269.331 141.056L229.613 163.988L269.38 186.949L309.1 164.014Z" fill="white"/>
<path d="M269.381 187.61C269.265 187.61 269.153 187.582 269.051 187.521L229.284 164.561C229.079 164.442 228.954 164.224 228.954 163.989C228.954 163.754 229.079 163.533 229.284 163.417L269.002 140.484C269.209 140.365 269.457 140.365 269.664 140.484L309.434 163.442C309.636 163.561 309.764 163.78 309.764 164.014C309.764 164.249 309.638 164.47 309.434 164.586L269.711 187.521C269.609 187.582 269.497 187.61 269.381 187.61ZM230.937 163.989L269.381 186.187L307.778 164.014L269.332 141.819L230.937 163.989Z" fill="#0D0D0D"/>
<path d="M269.379 186.949V204.576L309.099 181.643V164.014L269.379 186.949Z" fill="#0D0D0D"/>
<path d="M269.38 205.236C269.263 205.236 269.152 205.206 269.049 205.148C268.842 205.029 268.719 204.813 268.719 204.576V186.949C268.719 186.714 268.845 186.496 269.049 186.377L308.77 163.442C308.977 163.323 309.225 163.323 309.432 163.442C309.635 163.561 309.763 163.779 309.763 164.014V181.643C309.763 181.878 309.637 182.099 309.432 182.215L269.71 205.148C269.607 205.208 269.496 205.236 269.38 205.236ZM270.04 187.33V203.432L308.44 181.262V165.16L270.04 187.33Z" fill="#0D0D0D"/>
<path d="M264.979 196.944L264.977 189.492L234.022 171.621V179.071L264.979 196.944Z" fill="white"/>
<path d="M292.475 164.002C292.475 158.326 288.01 154.934 280.61 151.158L280.565 151.19C274.118 147.963 264.585 147.958 258.146 151.186L258.107 151.16C257.826 151.307 257.56 151.448 257.281 151.59C257.258 151.604 257.23 151.611 257.207 151.625C257.193 151.632 257.186 151.639 257.172 151.646C250.341 155.229 246.253 158.568 246.242 163.988V164.002C246.249 167.42 248.506 170.831 253.024 173.435C262.057 178.655 276.692 178.655 285.716 173.447C290.233 170.84 292.486 167.42 292.477 164.004L292.475 164.002Z" fill="#92E490"/>
<path d="M269.383 178.008C263.089 178.008 257.162 176.585 252.693 174.004C248.115 171.365 245.588 167.812 245.581 164.002C245.592 158.161 250.101 154.606 256.864 151.058L257.804 150.572C257.876 150.532 257.955 150.511 258.034 150.502C261.205 148.956 265.209 148.107 269.339 148.107C273.468 148.107 277.491 148.958 280.674 150.509C280.755 150.513 280.837 150.532 280.906 150.569C288.454 154.42 293.134 158.01 293.134 164.002C293.144 167.817 290.623 171.375 286.043 174.016C281.581 176.59 275.663 178.008 269.381 178.008H269.383ZM258.229 151.839L257.581 152.176C250.956 155.647 246.911 158.807 246.901 163.985C246.906 167.315 249.198 170.463 253.351 172.858C257.622 175.325 263.314 176.685 269.381 176.685C275.435 176.685 281.116 175.33 285.38 172.87C289.535 170.472 291.818 167.322 291.811 163.999C291.811 158.703 287.661 155.512 280.483 151.834C280.406 151.829 280.33 151.811 280.262 151.776C277.233 150.258 273.35 149.423 269.336 149.423C265.323 149.423 261.457 150.255 258.436 151.771C258.369 151.804 258.297 151.827 258.225 151.836L258.229 151.839Z" fill="#0D0D0D"/>
<path d="M280.61 151.157L280.566 151.19C277.343 149.579 273.348 148.769 269.358 148.767C271.465 148.767 273.574 149.574 275.276 151.19L275.301 151.16C279.212 154.938 281.57 158.328 281.57 164.001C282.447 165.638 283.958 170.107 284.525 174.067C284.93 173.865 285.33 173.667 285.711 173.448C290.229 170.842 292.482 167.422 292.473 164.006C292.473 158.33 288.008 154.938 280.607 151.162L280.61 151.157Z" fill="#0D0D0D"/>
<path d="M284.561 174.684C284.459 174.684 284.359 174.666 284.277 174.621C284.089 174.521 283.903 174.368 283.873 174.159C283.31 170.234 281.81 165.844 280.987 164.312C280.936 164.216 280.908 164.11 280.908 164C280.908 158.631 278.741 155.432 274.991 151.779C274.928 151.751 274.87 151.717 274.821 151.67C273.298 150.226 271.361 149.431 269.364 149.429H269.355C268.99 149.429 268.694 149.131 268.694 148.768C268.694 148.406 268.992 148.108 269.355 148.108H269.366C273.491 148.113 277.495 148.964 280.676 150.51C280.757 150.514 280.839 150.533 280.908 150.57C288.456 154.421 293.136 158.011 293.136 164.003C293.145 167.818 290.625 171.376 286.045 174.017C285.686 174.224 285.312 174.41 284.935 174.598C284.831 174.652 284.691 174.684 284.561 174.684ZM282.229 163.837C283.061 165.472 284.387 169.322 285.038 173.064C285.154 173.001 285.27 172.938 285.384 172.873C289.539 170.476 291.822 167.325 291.815 164.003C291.815 158.706 287.665 155.516 280.487 151.837C280.411 151.833 280.336 151.814 280.269 151.779C278.664 150.977 276.825 150.366 274.851 149.968C275.098 150.154 275.34 150.352 275.572 150.563C275.642 150.591 275.705 150.631 275.758 150.682C279.715 154.504 282.182 158.048 282.229 163.835V163.837Z" fill="#0D0D0D"/>
<path d="M281.516 165.658C288.217 161.791 288.215 155.506 281.497 151.632C274.787 147.756 263.91 147.759 257.207 151.623C250.501 155.497 250.508 161.777 257.22 165.648C263.933 169.529 274.81 169.527 281.516 165.658Z" fill="#92E490"/>
<path d="M269.375 169.22C264.669 169.22 260.232 168.155 256.889 166.221C253.427 164.226 251.52 161.529 251.518 158.632C251.518 155.739 253.42 153.047 256.875 151.049C260.214 149.122 264.641 148.062 269.342 148.062C274.043 148.062 278.482 149.126 281.828 151.059C285.29 153.056 287.199 155.753 287.199 158.65C287.199 161.547 285.297 164.235 281.844 166.228C278.503 168.158 274.074 169.218 269.377 169.218L269.375 169.22ZM269.34 149.387C264.868 149.387 260.676 150.384 257.533 152.198C254.505 153.946 252.838 156.232 252.838 158.634C252.838 161.038 254.512 163.328 257.547 165.079C260.695 166.9 264.894 167.9 269.372 167.9C273.841 167.9 278.036 166.902 281.177 165.086C284.204 163.34 285.871 161.057 285.871 158.653C285.871 156.248 284.197 153.958 281.161 152.205C278.015 150.387 273.816 149.385 269.337 149.385L269.34 149.387Z" fill="#0D0D0D"/>
<path d="M280.202 154.806H280.214C277.026 151.436 276.171 149.52 276.173 142.194C276.171 142.194 276.171 142.189 276.171 142.187C276.171 141.183 275.501 140.18 274.173 139.408C271.511 137.872 267.202 137.874 264.543 139.406C263.154 140.211 262.51 141.271 262.573 142.32C262.564 149.362 261.729 151.371 258.748 154.568C255.458 157.421 255.993 161.316 260.362 163.836C265.335 166.713 273.401 166.713 278.375 163.843C282.618 161.395 283.22 157.642 280.205 154.806H280.202Z" fill="white"/>
<path d="M269.373 166.655H269.371C265.85 166.655 262.532 165.858 260.028 164.409C257.617 163.017 256.18 161.136 255.985 159.108C255.813 157.311 256.64 155.52 258.315 154.07C261.123 151.049 261.9 149.233 261.911 142.318C261.83 141.016 262.667 139.73 264.209 138.833C266.985 137.236 271.733 137.238 274.5 138.833C275.976 139.689 276.799 140.851 276.827 142.116C276.83 142.139 276.832 142.165 276.832 142.19C276.827 149.315 277.606 151.084 280.694 154.346C280.71 154.362 280.726 154.381 280.738 154.4C282.21 155.82 282.91 157.532 282.712 159.229C282.484 161.212 281.059 163.052 278.701 164.412C276.199 165.856 272.884 166.651 269.373 166.651V166.655ZM269.354 138.919C267.65 138.919 266.057 139.296 264.871 139.979C263.765 140.623 263.181 141.439 263.234 142.279C263.223 149.58 262.277 151.756 259.233 155.02C257.819 156.25 257.171 157.601 257.303 158.983C257.457 160.573 258.659 162.094 260.691 163.265C263 164.6 266.08 165.335 269.373 165.335H269.375C272.658 165.335 275.737 164.602 278.041 163.272C280.027 162.126 281.222 160.638 281.401 159.083C281.554 157.762 280.985 156.45 279.75 155.29C279.713 155.255 279.683 155.218 279.655 155.179C276.402 151.726 275.511 149.677 275.511 142.258C275.509 142.237 275.507 142.214 275.507 142.19C275.507 141.391 274.914 140.607 273.839 139.984C272.654 139.3 271.059 138.921 269.357 138.921L269.354 138.919Z" fill="#0D0D0D"/>
<path d="M280.203 154.806H280.214C277.027 151.437 276.171 149.521 276.173 142.194C276.171 142.194 276.171 142.189 276.171 142.187C276.171 141.183 275.501 140.181 274.174 139.409C272.841 138.641 271.1 138.255 269.358 138.255C270.323 138.255 271.286 138.641 272.023 139.409C272.76 140.176 273.127 141.183 273.127 142.187V142.196C273.127 149.516 273.602 151.439 275.364 154.806H275.36C276.999 157.591 278.317 163.625 275.322 165.106C276.406 164.771 277.457 164.371 278.373 163.841C282.616 161.393 283.219 157.64 280.203 154.803V154.806Z" fill="#0D0D0D"/>
<path d="M275.321 165.767C275.056 165.767 274.81 165.607 274.707 165.351C274.579 165.03 274.719 164.668 275.028 164.514C275.598 164.233 276.002 163.7 276.233 162.935C276.865 160.813 275.995 157.192 274.791 155.144C274.772 155.114 274.758 155.081 274.744 155.049C272.954 151.607 272.466 149.589 272.466 142.195C272.466 141.309 272.138 140.484 271.545 139.865C270.957 139.254 270.18 138.914 269.357 138.914C268.992 138.914 268.697 138.619 268.697 138.254C268.697 137.889 268.992 137.594 269.357 137.594C271.285 137.594 273.112 138.036 274.503 138.835C275.979 139.691 276.802 140.854 276.83 142.118C276.832 142.142 276.835 142.167 276.835 142.193C276.83 149.317 277.609 151.087 280.697 154.349C280.713 154.365 280.729 154.384 280.741 154.402C282.213 155.823 282.913 157.534 282.715 159.231C282.487 161.215 281.062 163.054 278.704 164.414C277.851 164.907 276.809 165.34 275.516 165.737C275.454 165.758 275.386 165.767 275.323 165.767H275.321ZM275.965 154.537C277.114 156.53 278.33 160.517 277.497 163.312C277.467 163.412 277.435 163.512 277.4 163.607C277.625 163.498 277.837 163.386 278.039 163.27C280.025 162.124 281.22 160.636 281.399 159.08C281.552 157.76 280.983 156.448 279.748 155.288C279.711 155.253 279.681 155.216 279.653 155.176C276.4 151.724 275.509 149.675 275.509 142.256C275.507 142.235 275.505 142.211 275.505 142.188C275.505 141.388 274.912 140.605 273.838 139.982C273.577 139.831 273.294 139.696 272.996 139.575C273.507 140.337 273.784 141.242 273.784 142.188C273.784 149.405 274.219 151.198 275.947 154.5C275.954 154.511 275.958 154.525 275.965 154.537Z" fill="#0D0D0D"/>
<path d="M274.178 144.971C276.835 143.437 276.831 140.949 274.171 139.409C271.508 137.873 267.2 137.875 264.54 139.407C261.88 140.942 261.882 143.432 264.545 144.967C267.204 146.503 271.52 146.508 274.178 144.971Z" fill="#92E490"/>
<path d="M269.371 146.782C267.437 146.782 265.605 146.341 264.217 145.539C262.717 144.674 261.889 143.481 261.889 142.186C261.889 140.891 262.712 139.7 264.214 138.833C266.986 137.238 271.736 137.24 274.503 138.835C276.005 139.705 276.833 140.895 276.83 142.195C276.83 143.49 276.007 144.678 274.51 145.543C273.129 146.343 271.301 146.782 269.371 146.782ZM269.357 138.921C267.653 138.921 266.06 139.298 264.875 139.981C263.803 140.6 263.212 141.383 263.212 142.188C263.212 142.992 263.805 143.776 264.879 144.397C266.07 145.085 267.667 145.464 269.374 145.464C271.078 145.464 272.666 145.087 273.85 144.404C274.922 143.785 275.51 143.004 275.51 142.202C275.51 141.395 274.917 140.609 273.843 139.988C272.652 139.302 271.059 138.926 269.355 138.926L269.357 138.921Z" fill="#0D0D0D"/>
<path d="M277.949 134.002C277.949 129.256 274.101 125.408 269.357 125.408C264.612 125.411 260.768 129.256 260.764 134.002C260.764 138.748 264.612 142.596 269.357 142.598C274.105 142.596 277.949 138.748 277.949 134.002Z" fill="#92E490"/>
<path d="M269.354 143.258C264.252 143.253 260.1 139.101 260.1 134.002C260.102 128.903 264.255 124.75 269.354 124.748C274.455 124.748 278.608 128.898 278.608 134.002C278.608 139.105 274.457 143.256 269.354 143.258ZM269.354 126.068C264.982 126.073 261.425 129.63 261.423 134.002C261.423 138.373 264.98 141.933 269.354 141.937C273.727 141.935 277.285 138.373 277.285 134.002C277.285 129.63 273.727 126.071 269.354 126.071V126.068Z" fill="#0D0D0D"/>
<path d="M271.788 125.801C273.939 127.361 275.357 129.881 275.357 132.748C275.357 137.496 271.511 141.344 266.766 141.342C265.915 141.342 265.112 141.179 264.333 140.951C265.75 141.974 267.477 142.598 269.353 142.598C274.101 142.595 277.945 138.747 277.945 134.002C277.945 130.107 275.336 126.856 271.786 125.801H271.788Z" fill="#0D0D0D"/>
<path d="M269.355 143.258C267.419 143.258 265.549 142.644 263.95 141.486C263.689 141.298 263.603 140.949 263.743 140.661C263.882 140.372 264.212 140.226 264.522 140.317C265.37 140.563 266.082 140.679 266.768 140.679C271.143 140.679 274.699 137.119 274.699 132.748C274.699 130.23 273.464 127.833 271.399 126.336C271.139 126.147 271.051 125.796 271.195 125.508C271.336 125.219 271.667 125.071 271.976 125.166C275.943 126.345 278.607 129.895 278.607 133.999C278.607 139.1 274.457 143.253 269.353 143.256L269.355 143.258ZM268.337 141.87C268.674 141.914 269.014 141.937 269.355 141.937C273.727 141.935 277.287 138.373 277.287 134.001C277.287 131.8 276.389 129.781 274.882 128.335C275.617 129.677 276.019 131.193 276.019 132.748C276.019 137.317 272.692 141.123 268.335 141.87H268.337Z" fill="#0D0D0D"/>
<path d="M274.177 130.873C276.834 129.333 276.83 126.845 274.17 125.309C271.507 123.774 267.199 123.772 264.539 125.309C261.881 126.841 261.881 129.329 264.544 130.866C267.204 132.403 271.519 132.403 274.177 130.873Z" fill="white"/>
<path d="M269.369 132.679C267.432 132.679 265.602 132.24 264.214 131.438C262.715 130.573 261.887 129.38 261.889 128.083C261.889 126.787 262.715 125.599 264.212 124.734C266.977 123.132 271.727 123.135 274.501 124.734C276.003 125.602 276.828 126.792 276.83 128.09C276.83 129.385 276.007 130.575 274.51 131.442C273.124 132.238 271.299 132.677 269.369 132.677V132.679ZM269.353 124.818C267.649 124.818 266.058 125.195 264.875 125.881C263.803 126.499 263.212 127.28 263.212 128.085C263.212 128.889 263.803 129.675 264.879 130.296C267.253 131.666 271.476 131.668 273.852 130.303C274.922 129.682 275.512 128.899 275.512 128.096C275.512 127.29 274.919 126.506 273.845 125.883C272.655 125.197 271.06 124.82 269.355 124.82L269.353 124.818Z" fill="#0D0D0D"/>
<path d="M274.17 125.308C272.84 124.541 271.099 124.157 269.357 124.157C270.336 124.157 271.313 124.543 272.062 125.308C273.557 126.845 273.557 129.335 272.064 130.87C271.318 131.637 270.343 132.021 269.362 132.021C271.104 132.021 272.85 131.635 274.177 130.872C276.835 129.333 276.83 126.845 274.17 125.308Z" fill="#0D0D0D"/>
<path d="M269.365 132.682C269 132.682 268.705 132.387 268.705 132.022C268.705 131.657 268.998 131.362 269.365 131.359C270.207 131.359 271 131.02 271.595 130.408C272.837 129.129 272.834 127.048 271.59 125.767C270.995 125.158 270.202 124.821 269.363 124.819C268.998 124.819 268.703 124.521 268.703 124.156C268.703 123.791 269 123.496 269.363 123.496H269.365C271.3 123.496 273.123 123.935 274.506 124.735C276.008 125.602 276.834 126.793 276.836 128.09C276.836 129.385 276.013 130.576 274.515 131.443C273.125 132.24 271.297 132.68 269.37 132.68L269.365 132.682ZM273.062 125.498C274.099 127.053 274.102 129.127 273.065 130.68C273.344 130.566 273.606 130.438 273.853 130.299C274.922 129.678 275.513 128.895 275.513 128.092C275.513 127.286 274.92 126.502 273.846 125.879C273.602 125.737 273.341 125.611 273.065 125.498H273.062Z" fill="#0D0D0D"/>
<path d="M304.824 62.8138V62.7929C304.81 57.559 301.345 52.3228 294.421 48.3259C280.561 40.3204 258.109 40.3227 244.27 48.3073C237.346 52.3088 233.891 57.5543 233.902 62.7929H233.9C233.9 102.348 251.585 126.325 269.361 126.33C287.134 126.327 304.817 102.357 304.824 62.8161V62.8138Z" fill="#92E490"/>
<path d="M269.357 126.988C251.6 126.986 233.234 102.972 233.234 62.7937C233.234 62.7704 233.234 62.7495 233.239 62.7263C233.257 57.0343 237.054 51.7121 243.939 47.7338C250.731 43.8159 259.745 41.6582 269.325 41.6582C278.904 41.6582 287.947 43.8229 294.75 47.7524C301.656 51.74 305.467 57.0785 305.481 62.7914C305.476 102.981 287.107 126.986 269.357 126.988ZM234.555 62.8588C234.575 102.172 252.258 125.663 269.357 125.665C286.461 125.663 304.153 102.151 304.16 62.8123C304.146 57.5714 300.57 52.6375 294.09 48.8964C287.484 45.0808 278.688 42.9789 269.325 42.9789C259.961 42.9789 251.191 45.0738 244.599 48.8778C238.117 52.6259 234.55 57.5668 234.559 62.789C234.559 62.8123 234.559 62.8355 234.555 62.8588Z" fill="#0D0D0D"/>
<path d="M294.444 77.2854C308.283 69.2916 308.274 56.3313 294.416 48.3259C280.556 40.3204 258.104 40.3227 244.265 48.3073C230.426 56.3034 230.44 69.2684 244.298 77.2622C258.151 85.2653 280.607 85.2653 294.446 77.2878L294.444 77.2854Z" fill="white"/>
<path d="M269.401 83.9254C259.8 83.9254 250.769 81.7607 243.968 77.8312C237.051 73.8413 233.24 68.4935 233.238 62.7736C233.235 57.0608 237.037 51.7199 243.938 47.7323C250.73 43.8145 259.744 41.6567 269.324 41.6567C278.903 41.6567 287.946 43.8214 294.749 47.7509C301.669 51.7478 305.48 57.1003 305.48 62.8201C305.48 68.54 301.678 73.8692 294.777 77.8568C287.988 81.77 278.978 83.9254 269.403 83.9254H269.401ZM269.322 42.9774C259.97 42.9774 251.188 45.0724 244.596 48.8763C238.121 52.6174 234.556 57.5514 234.556 62.7713C234.556 67.9982 238.135 72.9391 244.629 76.6849C251.232 80.5005 260.03 82.6024 269.401 82.6024C278.748 82.6024 287.525 80.5098 294.115 76.7105C300.59 72.9717 304.157 68.0377 304.157 62.8178C304.157 57.5979 300.581 52.6453 294.087 48.8949C287.481 45.0793 278.685 42.9774 269.322 42.9774Z" fill="#0D0D0D"/>
<path d="M296.005 60.9942C295.791 60.9942 295.584 60.8919 295.456 60.7036C294.073 58.6481 291.978 56.8066 289.236 55.2255C288.102 54.5675 286.834 53.9514 285.472 53.398C285.135 53.2608 284.972 52.8748 285.109 52.5377C285.246 52.1982 285.637 52.0378 285.97 52.175C287.388 52.7516 288.711 53.3933 289.897 54.0839C292.812 55.765 295.052 57.7437 296.551 59.9665C296.756 60.2711 296.674 60.6803 296.372 60.8849C296.261 60.9617 296.13 60.9989 296.005 60.9989V60.9942Z" fill="#0D0D0D"/>
<path d="M243.803 74.3758C243.619 74.3758 243.436 74.2991 243.305 74.1479C240.75 71.2159 239.692 67.9142 240.243 64.6009C240.908 60.6087 243.947 56.8675 248.795 54.0657C256.833 49.4248 268.9 47.9157 279.531 50.213C279.889 50.2897 280.115 50.6431 280.038 50.9989C279.961 51.357 279.603 51.5755 279.252 51.5058C268.921 49.2736 257.226 50.7245 249.455 55.2097C244.954 57.8115 242.145 61.2225 241.548 64.8172C241.062 67.7282 242.015 70.6533 244.301 73.2783C244.542 73.5527 244.512 73.9689 244.238 74.2107C244.112 74.32 243.956 74.3735 243.803 74.3735V74.3758Z" fill="#0D0D0D"/>
<path d="M304.824 62.7911C304.824 62.7493 304.812 62.7028 304.81 62.6562C304.882 67.9483 301.438 73.2496 294.449 77.2837C293.754 77.6859 293.024 78.0487 292.289 78.409C289.662 108.561 279.538 126.323 269.361 126.328C287.134 126.325 304.817 102.356 304.824 62.8144V62.7934V62.7911Z" fill="#0D0D0D"/>
<path d="M269.357 126.989C268.992 126.989 268.697 126.694 268.697 126.329C268.697 125.963 268.994 125.668 269.357 125.668C278.376 125.666 288.921 109.413 291.627 78.354C291.646 78.1238 291.788 77.9192 291.995 77.8169C292.718 77.4635 293.434 77.1077 294.115 76.7148C300.653 72.9388 304.216 67.9513 304.143 62.6686C304.139 62.3129 304.418 62.0153 304.776 61.999C305.134 61.9711 305.439 62.2524 305.464 62.6082C305.464 62.6244 305.48 62.7756 305.48 62.7919C305.476 102.98 287.107 126.984 269.357 126.989ZM292.911 78.8399C290.916 101.108 284.533 118.084 276.391 124.354C290.104 119.235 302.56 99.3593 304.018 68.8256C302.325 72.2203 299.186 75.315 294.778 77.8587C294.176 78.2052 293.548 78.5261 292.911 78.8399Z" fill="#0D0D0D"/>
<path d="M295.973 79.9326L292.92 81.6951C293.006 82.3182 293.055 82.9251 293.057 83.504V83.5226C293.057 84.4504 293.043 85.3548 293.027 86.2477L306.901 94.2601C306.408 105.451 302.186 112.933 296.88 116.784C293.685 118.202 290.304 118.462 287.209 117.542L284.157 119.304C283.261 120.362 282.317 121.25 281.332 121.978V122.585C286.856 125.775 292.89 125.631 298.052 122.629L298.061 122.638L301.207 120.82V120.811C308.412 116.565 313.902 106.73 313.902 92.5279V90.2818L295.973 79.9326Z" fill="#92E490"/>
<path d="M289.759 125.591C286.744 125.591 283.798 124.772 281.001 123.159C280.796 123.04 280.67 122.821 280.67 122.587V121.98C280.67 121.771 280.77 121.573 280.938 121.45C281.891 120.743 282.803 119.878 283.649 118.878C283.698 118.82 283.756 118.771 283.823 118.734L286.876 116.971C287.032 116.881 287.22 116.86 287.395 116.911C290.331 117.785 293.57 117.527 296.607 116.181C299.843 113.816 305.531 107.787 306.217 94.6339L292.691 86.8214C292.484 86.7005 292.357 86.4773 292.361 86.2355C292.38 85.3473 292.394 84.4474 292.394 83.5244C292.389 82.9756 292.345 82.3944 292.261 81.7875C292.224 81.5224 292.354 81.2597 292.587 81.1248L295.64 79.3624C295.847 79.2438 296.095 79.2438 296.302 79.3624L314.231 89.7116C314.436 89.8301 314.562 90.0487 314.562 90.2835V92.5296C314.562 105.741 309.732 116.492 301.634 121.324C301.604 121.352 301.569 121.375 301.532 121.396L298.386 123.214C298.351 123.235 298.314 123.252 298.276 123.266C295.579 124.809 292.712 125.593 289.757 125.593L289.759 125.591ZM282.072 122.245C287.127 124.995 292.787 124.923 297.718 122.059C297.756 122.038 297.793 122.022 297.83 122.008L300.776 120.306C300.804 120.282 300.834 120.259 300.864 120.241C308.614 115.679 313.239 105.318 313.239 92.525V90.6602L295.972 80.6924L293.628 82.0456C293.684 82.5501 293.714 83.0384 293.717 83.4965C293.717 84.3126 293.705 85.0985 293.691 85.8658L307.228 93.6829C307.442 93.8061 307.57 94.0386 307.558 94.2851C307.103 104.651 303.445 112.828 297.263 117.316C293.842 118.859 290.459 119.12 287.292 118.253L284.581 119.817C283.793 120.736 282.951 121.55 282.07 122.243L282.072 122.245Z" fill="#0D0D0D"/>
<path d="M292.92 81.6942C293.006 82.3174 293.055 82.9242 293.057 83.5032V83.5218C293.057 84.4495 293.043 85.354 293.027 86.2468L306.901 94.2593C306.036 113.881 293.715 122.152 284.157 119.303C283.261 120.361 282.317 121.249 281.332 121.977V122.584C294.622 130.255 310.849 118.708 310.849 94.2872V92.0411L292.92 81.6919V81.6942Z" fill="white"/>
<path d="M289.776 125.598C286.755 125.598 283.805 124.777 281.001 123.159C280.796 123.04 280.67 122.822 280.67 122.587V121.98C280.67 121.771 280.77 121.573 280.938 121.45C281.891 120.743 282.803 119.878 283.649 118.878C283.819 118.678 284.091 118.597 284.342 118.671C285.497 119.015 286.704 119.19 287.927 119.19C296.412 119.19 305.37 110.754 306.219 94.6294L292.694 86.8169C292.487 86.696 292.359 86.4728 292.364 86.231C292.382 85.3428 292.396 84.4429 292.396 83.5199C292.391 82.9711 292.347 82.3898 292.264 81.783C292.229 81.5342 292.34 81.2854 292.55 81.1436C292.759 81.0041 293.031 80.9924 293.249 81.1203L311.179 91.4695C311.383 91.5881 311.509 91.8067 311.509 92.0415V94.2876C311.509 103.544 309.228 111.489 304.915 117.272C300.908 122.638 295.533 125.596 289.778 125.596L289.776 125.598ZM282.072 122.245C284.549 123.591 287.137 124.275 289.776 124.275C295.105 124.275 300.104 121.508 303.854 116.483C307.998 110.933 310.188 103.258 310.188 94.2899V92.4251L293.703 82.9084C293.712 83.1106 293.717 83.306 293.721 83.4989C293.721 84.3151 293.71 85.101 293.696 85.8683L307.233 93.6854C307.447 93.8086 307.575 94.0411 307.563 94.2876C306.805 111.503 297.111 120.51 287.929 120.51C286.725 120.51 285.535 120.357 284.384 120.052C283.654 120.876 282.882 121.613 282.075 122.245H282.072Z" fill="#0D0D0D"/>
<path d="M296.872 116.785C293.68 118.203 290.301 118.463 287.204 117.543L284.151 119.305C288.258 120.528 292.873 119.686 296.872 116.785Z" fill="#0D0D0D"/>
<path d="M287.907 120.51C286.563 120.51 285.235 120.317 283.964 119.938C283.71 119.864 283.526 119.645 283.496 119.382C283.464 119.119 283.592 118.864 283.822 118.733L286.875 116.971C287.03 116.88 287.219 116.859 287.393 116.911C290.332 117.785 293.571 117.529 296.603 116.183C296.915 116.048 297.275 116.164 297.445 116.457C297.614 116.75 297.533 117.124 297.261 117.322C294.383 119.408 291.148 120.512 287.907 120.512V120.51ZM285.945 119.033C287.709 119.312 289.549 119.208 291.327 118.736C289.96 118.773 288.595 118.61 287.293 118.252L285.942 119.031L285.945 119.033Z" fill="#0D0D0D"/>
<path d="M310.85 92.0433V94.2894C310.85 108.554 305.309 118.417 298.053 122.631L298.062 122.64L301.208 120.822V120.812C308.414 116.567 313.903 106.731 313.903 92.5293V90.2832L310.85 92.0457V92.0433Z" fill="#0D0D0D"/>
<path d="M298.061 123.301C297.866 123.301 297.673 123.215 297.545 123.052L297.536 123.043C297.417 122.894 297.368 122.699 297.403 122.508C297.438 122.32 297.554 122.155 297.719 122.06C305.527 117.526 310.187 107.146 310.187 94.2905V92.0445C310.187 91.8096 310.312 91.5911 310.517 91.4725L313.57 89.71C313.774 89.5914 314.026 89.5914 314.23 89.71C314.435 89.8286 314.56 90.0472 314.56 90.282V92.5281C314.56 105.74 309.731 116.491 301.633 121.323C301.602 121.35 301.567 121.374 301.53 121.395L298.384 123.213C298.282 123.273 298.168 123.301 298.054 123.301H298.061ZM311.51 92.4258V94.2905C311.51 103.08 309.378 110.773 305.569 116.363C310.449 110.939 313.242 102.468 313.242 92.5281V91.426L311.51 92.4258Z" fill="#0D0D0D"/>
</svg>
