<svg width="48" height="48" viewBox="0 0 48 48" fill="none" xmlns="http://www.w3.org/2000/svg">
<rect width="48" height="48" rx="24" fill="#92E490"/>
<path d="M24 14.25C18.624 14.25 14.25 18.624 14.25 24C14.25 29.376 18.624 33.75 24 33.75C29.376 33.75 33.75 29.376 33.75 24C33.75 18.624 29.376 14.25 24 14.25ZM24 15.75C28.5487 15.75 32.25 19.4513 32.25 24C32.25 28.5487 28.5487 32.25 24 32.25C19.4513 32.25 15.75 28.5487 15.75 24C15.75 19.4513 19.4513 15.75 24 15.75ZM21.75 20.25V28.5H23.25V25.5H25.125C26.5732 25.5 27.75 24.3232 27.75 22.875C27.75 21.4268 26.5732 20.25 25.125 20.25H21.75ZM23.25 21.75H25.125C25.7452 21.75 26.25 22.2548 26.25 22.875C26.25 23.4952 25.7452 24 25.125 24H23.25V21.75Z" fill="black"/>
</svg>
