<svg width="56" height="56" viewBox="0 0 56 56" fill="none" xmlns="http://www.w3.org/2000/svg">
<rect x="4" y="4" width="48" height="48" rx="24" fill="#F2F4F7"/>
<path d="M28 18.25C22.624 18.25 18.25 22.624 18.25 28C18.25 33.376 22.624 37.75 28 37.75C33.376 37.75 37.75 33.376 37.75 28C37.75 22.624 33.376 18.25 28 18.25ZM28 19.75C32.5487 19.75 36.25 23.4513 36.25 28C36.25 32.5487 32.5487 36.25 28 36.25C23.4513 36.25 19.75 32.5487 19.75 28C19.75 23.4513 23.4513 19.75 28 19.75ZM25.75 24.25V32.5H27.25V29.5H29.125C30.5732 29.5 31.75 28.3232 31.75 26.875C31.75 25.4268 30.5732 24.25 29.125 24.25H25.75ZM27.25 25.75H29.125C29.7452 25.75 30.25 26.2548 30.25 26.875C30.25 27.4952 29.7452 28 29.125 28H27.25V25.75Z" fill="black"/>
<rect x="4" y="4" width="48" height="48" rx="24" stroke="#F9FAFB" stroke-width="8"/>
</svg>
