<svg width="120" height="117" viewBox="0 0 120 117" fill="none" xmlns="http://www.w3.org/2000/svg">
<g opacity="0.1">
<path d="M108.103 54.3575C104.244 52.129 99.75 50.4034 94.7404 49.2279C89.9041 48.094 84.7997 47.5196 79.5659 47.5184C74.3321 47.5184 69.2346 48.094 64.411 49.2291C59.4176 50.4045 54.9419 52.129 51.1087 54.3575C47.2743 56.5859 44.3102 59.1854 42.2982 62.0819C40.3545 64.8802 39.378 67.8345 39.3953 70.8674C39.4138 73.8992 40.4227 76.8546 42.3965 79.6517C43.975 81.8894 46.1233 83.948 48.7951 85.7961L43.4411 88.9076L42.9569 88.6279C42.2509 88.2199 41.0975 88.2199 40.3972 88.6279L1.70007 111.12C0.99745 111.528 1.00323 112.197 1.70816 112.603L7.91154 116.185C8.61762 116.593 9.76862 116.593 10.4712 116.185L49.1684 93.6928C49.8699 93.2848 49.8652 92.6167 49.1603 92.2099L48.6761 91.9301L54.0301 88.8186C57.2289 90.3605 60.7882 91.5973 64.6549 92.5046C69.4912 93.6396 74.5967 94.2152 79.8294 94.2152C85.0632 94.2152 90.1606 93.6396 94.9853 92.5057C99.9788 91.3303 104.456 89.6046 108.29 87.3762C112.123 85.1477 115.086 82.5494 117.098 79.6529C119.04 76.8535 120.017 73.898 120 70.8662C119.983 67.8357 118.973 64.879 116.999 62.0796C114.956 59.1819 111.963 56.5848 108.103 54.3552V54.3575Z" fill="black"/>
</g>
<path d="M52.4811 59.2176C46.4187 62.7417 43.3829 67.3627 43.369 71.9907L43.391 64.0559C43.4048 59.428 46.4407 54.8069 52.5031 51.2828C58.1356 48.0083 65.4137 46.2457 72.8258 45.9949C72.8189 48.6394 72.8108 51.284 72.8039 53.9297C65.3917 54.1805 58.1148 55.9443 52.4811 59.2176Z" fill="#B7B7B7"/>
<path d="M72.8038 53.9296C72.8108 51.285 72.8189 48.6405 72.8258 45.9948C81.471 45.7012 90.2988 47.465 96.9136 51.2839C103.095 54.8531 106.183 59.5504 106.168 64.2396L106.146 72.1744C106.16 67.4852 103.073 62.789 96.8916 59.2187C90.2768 55.3986 81.449 53.636 72.8038 53.9296Z" fill="#B7B7B7"/>
<path d="M111.4 64.2537L111.378 72.1885C111.37 74.9047 110.482 77.555 108.74 80.0643L108.762 72.1295C110.504 69.619 111.391 66.9699 111.4 64.2537Z" fill="#B7B7B7"/>
<path opacity="0.3" d="M106.169 64.2374L106.147 72.1722C106.135 76.8013 103.1 81.4223 97.0375 84.9464C84.8318 92.0409 64.91 92.0409 52.6269 84.9476C46.4444 81.3772 43.3577 76.6811 43.3704 71.993L43.3924 64.0582C43.3796 68.7474 46.4663 73.4436 52.6489 77.0128C64.932 84.105 84.8538 84.105 97.0594 77.0116C103.122 73.4875 106.157 68.8665 106.169 64.2374Z" fill="#39C3F2"/>
<path d="M38.139 71.9803L38.161 64.0455C38.161 64.0791 38.161 64.1126 38.161 64.1472C38.1772 66.9016 39.0947 69.5877 40.8883 72.1294C42.3235 74.1625 44.2719 76.0338 46.6999 77.7133C47.4164 78.2091 48.1733 78.6876 48.9718 79.1488C49.7704 79.61 50.599 80.0469 51.4564 80.4607C54.3628 81.8615 57.5974 82.9838 61.1105 83.808C65.5053 84.839 70.144 85.3625 74.8982 85.3625C79.6536 85.3625 84.2853 84.839 88.6698 83.8091C93.2079 82.7423 97.2745 81.1738 100.759 79.1476C104.242 77.1238 106.934 74.7636 108.761 72.1306L108.739 80.0654C106.912 82.6984 104.219 85.0586 100.737 87.0824C97.2526 89.1074 93.1859 90.6759 88.6478 91.7439C84.2634 92.7749 79.6316 93.2973 74.8763 93.2973C70.122 93.2973 65.4834 92.7737 61.0885 91.7427C57.5754 90.9186 54.3397 89.7963 51.4345 88.3955C50.577 87.9828 49.7484 87.5448 48.9499 87.0836C48.1513 86.6224 47.3933 86.1439 46.6779 85.648C44.25 83.9686 42.3004 82.0973 40.8663 80.0642C39.0716 77.5214 38.1552 74.8364 38.139 72.082C38.139 72.0485 38.139 72.015 38.139 71.9803Z" fill="#B7B7B7"/>
<path d="M42.8977 85.5106L42.8804 91.692L39.1743 89.5514L39.1917 83.37L42.8977 85.5106Z" fill="#4D4C4D"/>
<path d="M50.3928 81.168L50.3755 87.3494L42.8801 91.6918L42.8975 85.5104L50.3928 81.168Z" fill="#3A3A3B"/>
<path d="M50.3927 81.1682L42.8974 85.5107L39.1913 83.3701L46.6855 79.0276C47.2437 79.4136 47.8342 79.787 48.4559 80.1453C49.0776 80.5047 49.7236 80.8457 50.3916 81.167L50.3927 81.1682Z" fill="#4D4C4D"/>
<path d="M108.762 72.1317C106.935 74.7647 104.242 77.1249 100.76 79.1488C97.2754 81.1738 93.2088 82.7423 88.6707 83.8103C84.2862 84.8413 79.6545 85.3637 74.8991 85.3637C70.1449 85.3637 65.5062 84.8401 61.1114 83.8091C57.5983 82.985 54.3626 81.8627 51.4573 80.4618C50.5999 80.0492 49.7713 79.6111 48.9727 79.15C48.1742 78.6888 47.4161 78.2103 46.7008 77.7144C44.2728 76.035 42.3233 74.1637 40.8892 72.1306C39.0945 69.5878 38.1781 66.9028 38.1619 64.1484C38.148 61.3929 39.0344 58.7079 40.8002 56.1662C42.6284 53.5344 45.3221 51.173 48.8063 49.1469C52.2894 47.123 56.3549 45.5557 60.893 44.4877C65.2751 43.4567 69.9091 42.9331 74.6634 42.9331C79.4188 42.9331 84.0563 43.4555 88.4523 44.4865C93.0031 45.5534 97.0871 47.1218 100.593 49.1469C104.098 51.1707 106.819 53.5309 108.676 56.1639C110.469 58.7068 111.387 61.3929 111.402 64.1473C111.418 66.9016 110.529 69.5878 108.765 72.1306L108.762 72.1317ZM52.6488 77.014C64.9319 84.1062 84.8536 84.1062 97.0593 77.0128C109.262 69.9206 109.197 58.3785 96.9149 51.2851C84.6295 44.1906 64.7077 44.1907 52.5043 51.284C40.2987 58.3785 40.3645 69.9195 52.6488 77.014Z" fill="#EAEAE9"/>
<path d="M44.1042 86.1151L44.0822 94.0499C44.0822 94.2926 43.9227 94.5354 43.6061 94.7191L43.628 86.7843C43.9447 86.6006 44.103 86.3578 44.1042 86.1151Z" fill="#A1BAA1"/>
<path d="M-0.000244141 111.222L0.021713 103.287C0.021713 103.533 0.182345 103.78 0.505919 103.966L0.483962 111.9C0.160388 111.713 -0.000244141 111.468 -0.000244141 111.222Z" fill="#A1BAA1"/>
<path d="M43.6292 86.7842L43.6061 94.7178L8.44629 115.155L8.46825 107.22L43.6292 86.7842Z" fill="#A1BAA1"/>
<path d="M6.14169 107.22L6.11973 115.155L0.483765 111.9L0.506877 103.967L6.14169 107.22Z" fill="#A1BAA1"/>
<path d="M8.46822 107.221L8.44626 115.155C7.80836 115.526 6.76137 115.525 6.12 115.155L6.14195 107.221C6.78332 107.59 7.83031 107.592 8.46822 107.221Z" fill="#A1BAA1"/>
<path d="M43.6211 85.4365C44.2625 85.8063 44.2659 86.4143 43.6292 86.7842L8.4694 107.22C7.8315 107.591 6.7845 107.59 6.14313 107.22L0.507165 103.966C-0.135361 103.595 -0.138828 102.989 0.499075 102.618L35.6589 82.1816C36.2956 81.8118 37.3426 81.8106 37.9851 82.1816L38.4254 82.4359L43.182 85.1833L43.6211 85.4365Z" fill="white"/>
<path d="M75.0671 49.9709C74.1657 49.4473 72.8772 49.668 71.1981 50.6378C67.7219 52.6454 65.9885 55.7003 66.0001 59.8058C66.0058 61.7915 66.4612 63.0745 67.3637 63.6547C67.3914 63.6721 67.4192 63.6894 67.4469 63.7056L75.3479 68.2977C75.3202 68.2816 75.2924 68.2642 75.2647 68.2469C74.3621 67.6666 73.9068 66.3837 73.901 64.3979C73.8895 60.2924 75.6229 57.2376 79.099 55.2299C80.7782 54.2601 82.0678 54.0394 82.9681 54.563L75.0671 49.9709Z" fill="#0D0D0D"/>
<path d="M79.0991 55.2311C80.8024 54.2475 82.1048 54.0336 83.0074 54.5873C83.9099 55.1432 84.3629 56.3973 84.3687 58.3553C84.3745 60.2855 83.9226 62.0794 83.0166 63.7311C82.1083 65.3874 80.814 66.6969 79.1349 67.6678C77.4546 68.6376 76.1649 68.8329 75.2647 68.2492C74.3622 67.669 73.9068 66.386 73.9011 64.4003C73.8895 60.2948 75.6229 57.2399 79.0991 55.2322V55.2311Z" fill="#CBE8CA"/>
<path d="M75.5788 53.2951L67.6778 48.7018L67.6697 46.0942L75.5707 50.6875L75.5788 53.2951Z" fill="#0D0D0D"/>
<path d="M79.1076 10.016L87.0086 14.6081C88.036 15.2045 88.5525 16.5083 88.5583 18.5137C88.5641 20.4717 88.1608 22.3938 87.3484 24.2767C86.536 26.163 84.724 29.1982 81.9181 33.3777C79.5572 36.8637 77.907 39.8746 76.9686 42.4024C76.0268 44.9348 75.5622 47.695 75.5703 50.6863L67.6693 46.0941C67.6612 43.1029 68.1258 40.3427 69.0676 37.8103C70.0071 35.2825 71.6573 32.2715 74.0171 28.7856C76.823 24.6061 78.635 21.5708 79.4474 19.6845C80.2598 17.8017 80.6631 15.8795 80.6573 13.9215C80.6516 11.9162 80.135 10.6136 79.1076 10.016Z" fill="#0D0D0D"/>
<path d="M85.3875 0.828164L93.2885 5.42029C93.0296 5.27003 92.7546 5.13942 92.4645 5.02846L84.5624 0.435181C84.8524 0.546141 85.1275 0.67675 85.3863 0.827008L85.3875 0.828164Z" fill="white"/>
<path d="M68.9998 26.4612L61.0988 21.8679L58.0977 16.4136L65.9998 21.0057L68.9998 26.4612Z" fill="#0D0D0D"/>
<path d="M66.0001 21.0056L58.0991 16.4135C62.8915 10.5673 68.0305 6.06189 73.5186 2.8926C78.1549 0.215687 81.8368 -0.603798 84.564 0.436451L92.465 5.02857C89.7377 3.98832 86.0548 4.80781 81.4184 7.48472C75.9304 10.654 70.7913 15.1594 65.999 21.0056H66.0001Z" fill="#0D0D0D"/>
<path d="M92.4647 5.02861C95.192 6.06886 96.5626 8.88332 96.5753 13.4789C96.581 15.5166 96.3257 17.4816 95.8102 19.3725C95.2948 21.2634 94.5113 23.2341 93.4632 25.2811C92.415 27.3316 90.6042 30.2547 88.0341 34.0516C85.8395 37.3075 84.3696 39.8041 83.6288 41.5391C82.8881 43.274 82.5206 45.2412 82.5275 47.443L82.5333 49.2773L75.5788 53.2939L75.5718 50.6863C75.5637 47.695 76.0283 44.9349 76.9701 42.4025C77.9097 39.8746 79.5599 36.8637 81.9197 33.3777C84.7255 29.1982 86.5375 26.163 87.3499 24.2767C88.1623 22.3938 88.5657 20.4717 88.5599 18.5137C88.5529 16.2321 87.885 14.8601 86.5572 14.4024C85.2294 13.9435 83.3238 14.4325 80.8403 15.8669C78.5926 17.1649 76.5114 18.7345 74.5976 20.5734C72.6839 22.4146 70.8176 24.3761 69.001 26.4612L66.001 21.0057C70.7922 15.1595 75.9324 10.6541 81.4204 7.48476C86.0568 4.80785 89.7386 3.98836 92.467 5.02861H92.4647Z" fill="#CBE8CA"/>
</svg>
