<svg width="56" height="56" viewBox="0 0 56 56" fill="none" xmlns="http://www.w3.org/2000/svg">
<rect x="4" y="4" width="48" height="48" rx="24" fill="#F2F4F7"/>
<path d="M39.25 25.7499C39.2498 25.175 39.0845 24.6123 38.7737 24.1287C38.4629 23.6451 38.0197 23.2609 37.4968 23.022C36.9739 22.7831 36.3933 22.6994 35.8243 22.781C35.2552 22.8626 34.7215 23.1059 34.2868 23.4821C32.7165 22.6477 30.8406 22.1434 28.8812 22.0262L29.3678 19.104L31.029 19.359C31.1133 19.883 31.3801 20.3604 31.7823 20.7067C32.1845 21.0531 32.6962 21.246 33.227 21.2516C33.7577 21.2571 34.2733 21.0749 34.6827 20.737C35.092 20.3992 35.3688 19.9275 35.464 19.4053C35.5592 18.8832 35.4667 18.3442 35.203 17.8836C34.9392 17.423 34.5211 17.0705 34.0226 16.8883C33.524 16.7062 32.9771 16.7062 32.4786 16.8883C31.98 17.0703 31.5619 17.4228 31.2981 17.8834L28.8606 17.5084C28.6656 17.4783 28.4666 17.5263 28.3067 17.6419C28.1468 17.7576 28.039 17.9316 28.0065 18.1262L27.3625 22.0149C25.315 22.1031 23.3481 22.6131 21.7131 23.4821C21.116 22.9777 20.3456 22.7263 19.5659 22.7813C18.7862 22.8363 18.0588 23.1935 17.5385 23.7767C17.0181 24.36 16.746 25.1233 16.7799 25.9042C16.8139 26.6851 17.1513 27.4219 17.7203 27.9577C17.5744 28.4588 17.5003 28.9781 17.5 29.4999C17.5 31.5559 18.625 33.4702 20.679 34.8896C22.645 36.2499 25.2446 36.9999 28 36.9999C30.7553 36.9999 33.355 36.2499 35.3209 34.8896C37.375 33.4702 38.5 31.5559 38.5 29.4999C38.4996 28.9781 38.4255 28.4588 38.2796 27.9577C38.5846 27.6763 38.8282 27.335 38.9952 26.9551C39.1621 26.5752 39.2489 26.1649 39.25 25.7499ZM33.25 18.2499C33.3983 18.2499 33.5433 18.2939 33.6666 18.3763C33.79 18.4587 33.8861 18.5759 33.9429 18.7129C33.9996 18.85 34.0145 19.0008 33.9855 19.1463C33.9566 19.2917 33.8852 19.4254 33.7803 19.5303C33.6754 19.6352 33.5418 19.7066 33.3963 19.7355C33.2508 19.7645 33.1 19.7496 32.9629 19.6928C32.8259 19.6361 32.7088 19.5399 32.6264 19.4166C32.5439 19.2933 32.5 19.1483 32.5 18.9999C32.5 18.801 32.579 18.6103 32.7196 18.4696C32.8603 18.329 33.051 18.2499 33.25 18.2499ZM37.0121 27.0418C36.856 27.1343 36.7387 27.2803 36.682 27.4527C36.6253 27.6251 36.633 27.8122 36.7037 27.9793C36.8985 28.4627 36.9991 28.9788 37 29.4999C37 31.0496 36.1009 32.5252 34.4687 33.6559C32.7503 34.8437 30.4534 35.4999 28 35.4999C25.5465 35.4999 23.2496 34.8437 21.5312 33.6559C19.899 32.5252 19 31.0496 19 29.4999C19.0012 28.9805 19.1011 28.4661 19.2943 27.984C19.3652 27.8171 19.3732 27.6301 19.3168 27.4578C19.2605 27.2854 19.1436 27.1393 18.9878 27.0465C18.797 26.9328 18.6339 26.7781 18.5101 26.5936C18.3864 26.4091 18.3052 26.1995 18.2724 25.9798C18.2396 25.7601 18.2559 25.5359 18.3203 25.3233C18.3847 25.1108 18.4955 24.9151 18.6446 24.7506C18.7938 24.586 18.9777 24.4567 19.183 24.3718C19.3882 24.287 19.6098 24.2488 19.8316 24.26C20.0534 24.2712 20.27 24.3316 20.4657 24.4367C20.6614 24.5418 20.8312 24.689 20.9631 24.8677C21.0719 25.0172 21.2321 25.1212 21.4129 25.1598C21.5937 25.1984 21.7824 25.1688 21.9428 25.0768L21.9765 25.0562C23.6359 24.0531 25.7734 23.4999 28 23.4999C30.2246 23.4999 32.3621 24.0531 34.0215 25.0562L34.0609 25.0796C34.221 25.1698 34.4087 25.198 34.5882 25.1589C34.7678 25.1199 34.9267 25.0163 35.035 24.8677C35.166 24.6875 35.3356 24.5387 35.5313 24.4322C35.727 24.3257 35.9441 24.2642 36.1666 24.252C36.3891 24.2399 36.6115 24.2775 36.8177 24.3621C37.0238 24.4467 37.2085 24.5762 37.3584 24.7411C37.5082 24.906 37.6195 25.1023 37.684 25.3156C37.7485 25.5289 37.7647 25.7539 37.7313 25.9742C37.698 26.1946 37.616 26.4047 37.4912 26.5894C37.3665 26.774 37.2022 26.9286 37.0103 27.0418H37.0121ZM24.25 29.4999C23.9533 29.4999 23.6633 29.412 23.4166 29.2471C23.1699 29.0823 22.9777 28.8481 22.8641 28.574C22.7506 28.2999 22.7209 27.9983 22.7788 27.7073C22.8367 27.4163 22.9795 27.1491 23.1893 26.9393C23.3991 26.7295 23.6664 26.5866 23.9573 26.5288C24.2483 26.4709 24.5499 26.5006 24.824 26.6141C25.0981 26.7276 25.3323 26.9199 25.4972 27.1666C25.662 27.4133 25.75 27.7033 25.75 27.9999C25.75 28.3978 25.5919 28.7793 25.3106 29.0606C25.0293 29.3419 24.6478 29.4999 24.25 29.4999ZM33.25 27.9999C33.25 28.2966 33.162 28.5866 32.9972 28.8333C32.8323 29.08 32.5981 29.2722 32.324 29.3858C32.0499 29.4993 31.7483 29.529 31.4573 29.4711C31.1664 29.4132 30.8991 29.2704 30.6893 29.0606C30.4795 28.8508 30.3367 28.5835 30.2788 28.2926C30.2209 28.0016 30.2506 27.7 30.3641 27.4259C30.4777 27.1518 30.6699 26.9176 30.9166 26.7527C31.1633 26.5879 31.4533 26.4999 31.75 26.4999C32.1478 26.4999 32.5293 26.658 32.8106 26.9393C33.0919 27.2206 33.25 27.6021 33.25 27.9999ZM31.6628 32.1484C31.709 32.2354 31.7376 32.3307 31.7469 32.4288C31.7563 32.5269 31.7462 32.6259 31.7173 32.7201C31.6884 32.8143 31.6412 32.9018 31.5785 32.9778C31.5157 33.0538 31.4386 33.1166 31.3515 33.1627C30.3195 33.7112 29.1687 33.998 28 33.998C26.8313 33.998 25.6804 33.7112 24.6484 33.1627C24.5614 33.1166 24.4843 33.0537 24.4215 32.9778C24.3588 32.9018 24.3116 32.8142 24.2827 32.72C24.2538 32.6258 24.2437 32.5269 24.2531 32.4288C24.2624 32.3307 24.291 32.2354 24.3371 32.1484C24.3833 32.0613 24.4462 31.9842 24.5221 31.9215C24.5981 31.8587 24.6857 31.8116 24.7799 31.7827C24.8741 31.7538 24.973 31.7437 25.0711 31.753C25.1692 31.7624 25.2645 31.791 25.3515 31.8371C26.167 32.2707 27.0764 32.4974 28 32.4974C28.9235 32.4974 29.8329 32.2707 30.6484 31.8371C30.7354 31.7909 30.8307 31.7623 30.9288 31.753C31.0269 31.7436 31.1259 31.7536 31.2201 31.7826C31.3143 31.8115 31.4019 31.8586 31.4778 31.9214C31.5538 31.9842 31.6166 32.0613 31.6628 32.1484Z" fill="#343330"/>
<rect x="4" y="4" width="48" height="48" rx="24" stroke="#F9FAFB" stroke-width="8"/>
</svg>
