<svg width="48" height="48" viewBox="0 0 48 48" fill="none" xmlns="http://www.w3.org/2000/svg">
<rect width="48" height="48" rx="24" fill="#92E490"/>
<path d="M35.2502 21.7502C35.2501 21.1753 35.0848 20.6125 34.7739 20.1289C34.4631 19.6453 34.0199 19.2612 33.497 19.0222C32.9741 18.7833 32.3936 18.6997 31.8245 18.7812C31.2554 18.8628 30.7218 19.1062 30.2871 19.4824C28.7168 18.648 26.8408 18.1436 24.8815 18.0264L25.368 15.1042L27.0293 15.3592C27.1135 15.8833 27.3804 16.3606 27.7826 16.707C28.1848 17.0533 28.6965 17.2463 29.2272 17.2518C29.758 17.2574 30.2736 17.0751 30.6829 16.7373C31.0923 16.3994 31.369 15.9277 31.4642 15.4056C31.5594 14.8834 31.467 14.3444 31.2032 13.8838C30.9394 13.4232 30.5213 13.0707 30.0228 12.8886C29.5243 12.7064 28.9774 12.7064 28.4788 12.8885C27.9803 13.0706 27.5621 13.4231 27.2983 13.8836L24.8608 13.5086C24.6658 13.4785 24.4668 13.5265 24.307 13.6422C24.1471 13.7578 24.0392 13.9318 24.0068 14.1264L23.3627 18.0152C21.3152 18.1033 19.3483 18.6133 17.7133 19.4824C17.1162 18.978 16.3459 18.7265 15.5662 18.7815C14.7865 18.8365 14.0591 19.1937 13.5387 19.777C13.0184 20.3602 12.7462 21.1235 12.7802 21.9044C12.8141 22.6853 13.1515 23.4221 13.7205 23.958C13.5747 24.4591 13.5005 24.9783 13.5002 25.5002C13.5002 27.5561 14.6252 29.4705 16.6793 30.8899C18.6452 32.2502 21.2449 33.0002 24.0002 33.0002C26.7555 33.0002 29.3552 32.2502 31.3211 30.8899C33.3752 29.4705 34.5002 27.5561 34.5002 25.5002C34.4999 24.9783 34.4257 24.4591 34.2799 23.958C34.5849 23.6766 34.8284 23.3352 34.9954 22.9553C35.1624 22.5754 35.2491 22.1651 35.2502 21.7502ZM29.2502 14.2502C29.3985 14.2502 29.5435 14.2942 29.6669 14.3766C29.7902 14.459 29.8863 14.5761 29.9431 14.7132C29.9999 14.8502 30.0147 15.001 29.9858 15.1465C29.9569 15.292 29.8854 15.4256 29.7805 15.5305C29.6756 15.6354 29.542 15.7068 29.3965 15.7358C29.251 15.7647 29.1002 15.7499 28.9632 15.6931C28.8261 15.6363 28.709 15.5402 28.6266 15.4169C28.5442 15.2935 28.5002 15.1485 28.5002 15.0002C28.5002 14.8013 28.5792 14.6105 28.7199 14.4698C28.8605 14.3292 29.0513 14.2502 29.2502 14.2502ZM33.0124 23.0421C32.8563 23.1346 32.739 23.2805 32.6822 23.4529C32.6255 23.6253 32.6332 23.8124 32.704 23.9796C32.8988 24.4629 32.9993 24.979 33.0002 25.5002C33.0002 27.0499 32.1011 28.5255 30.469 29.6561C28.7505 30.8439 26.4536 31.5002 24.0002 31.5002C21.5468 31.5002 19.2499 30.8439 17.5315 29.6561C15.8993 28.5255 15.0002 27.0499 15.0002 25.5002C15.0015 24.9808 15.1014 24.4664 15.2946 23.9842C15.3655 23.8173 15.3735 23.6304 15.3171 23.458C15.2607 23.2856 15.1438 23.1395 14.988 23.0467C14.7972 22.933 14.6341 22.7783 14.5104 22.5938C14.3867 22.4094 14.3055 22.1997 14.2726 21.9801C14.2398 21.7604 14.2562 21.5362 14.3205 21.3236C14.3849 21.111 14.4957 20.9154 14.6449 20.7508C14.7941 20.5863 14.9779 20.4569 15.1832 20.3721C15.3885 20.2872 15.61 20.249 15.8319 20.2603C16.0537 20.2715 16.2703 20.3318 16.4659 20.4369C16.6616 20.542 16.8315 20.6892 16.9633 20.868C17.0721 21.0175 17.2323 21.1215 17.4132 21.1601C17.594 21.1987 17.7827 21.1691 17.943 21.0771L17.9768 21.0564C19.6361 20.0533 21.7736 19.5002 24.0002 19.5002C26.2249 19.5002 28.3624 20.0533 30.0218 21.0564L30.0611 21.0799C30.2213 21.17 30.4089 21.1982 30.5885 21.1592C30.768 21.1201 30.927 21.0165 31.0352 20.868C31.1662 20.6878 31.3358 20.539 31.5315 20.4325C31.7273 20.326 31.9443 20.2644 32.1668 20.2523C32.3893 20.2402 32.6117 20.2778 32.8179 20.3624C33.0241 20.447 33.2088 20.5764 33.3586 20.7414C33.5085 20.9063 33.6197 21.1025 33.6842 21.3158C33.7487 21.5291 33.7649 21.7541 33.7316 21.9745C33.6982 22.1948 33.6162 22.4049 33.4915 22.5896C33.3668 22.7743 33.2025 22.9288 33.0105 23.0421H33.0124ZM20.2502 25.5002C19.9535 25.5002 19.6635 25.4122 19.4168 25.2474C19.1702 25.0826 18.9779 24.8483 18.8644 24.5742C18.7509 24.3001 18.7211 23.9985 18.779 23.7075C18.8369 23.4166 18.9798 23.1493 19.1895 22.9395C19.3993 22.7297 19.6666 22.5869 19.9576 22.529C20.2485 22.4711 20.5501 22.5008 20.8242 22.6144C21.0983 22.7279 21.3326 22.9202 21.4974 23.1668C21.6622 23.4135 21.7502 23.7035 21.7502 24.0002C21.7502 24.398 21.5922 24.7795 21.3109 25.0608C21.0296 25.3421 20.648 25.5002 20.2502 25.5002ZM29.2502 24.0002C29.2502 24.2969 29.1622 24.5869 28.9974 24.8335C28.8326 25.0802 28.5983 25.2725 28.3242 25.386C28.0501 25.4995 27.7485 25.5292 27.4576 25.4714C27.1666 25.4135 26.8993 25.2706 26.6895 25.0608C26.4798 24.8511 26.3369 24.5838 26.279 24.2928C26.2211 24.0018 26.2509 23.7002 26.3644 23.4262C26.4779 23.1521 26.6702 22.9178 26.9168 22.753C27.1635 22.5882 27.4535 22.5002 27.7502 22.5002C28.148 22.5002 28.5296 22.6582 28.8109 22.9395C29.0922 23.2208 29.2502 23.6024 29.2502 24.0002ZM27.663 28.1486C27.7092 28.2357 27.7378 28.3309 27.7472 28.429C27.7565 28.5271 27.7465 28.6261 27.7176 28.7203C27.6887 28.8145 27.6415 28.9021 27.5787 28.978C27.516 29.054 27.4388 29.1169 27.3518 29.163C26.3197 29.7114 25.1689 29.9983 24.0002 29.9983C22.8315 29.9983 21.6807 29.7114 20.6486 29.163C20.5616 29.1168 20.4845 29.054 20.4218 28.978C20.359 28.902 20.3118 28.8145 20.2829 28.7203C20.254 28.6261 20.244 28.5271 20.2533 28.429C20.2627 28.3309 20.2912 28.2357 20.3374 28.1486C20.3836 28.0616 20.4464 27.9845 20.5224 27.9217C20.5983 27.859 20.6859 27.8118 20.7801 27.7829C20.8743 27.754 20.9733 27.7439 21.0714 27.7533C21.1694 27.7626 21.2647 27.7912 21.3518 27.8374C22.1672 28.2709 23.0767 28.4976 24.0002 28.4976C24.9237 28.4976 25.8332 28.2709 26.6486 27.8374C26.7357 27.7912 26.831 27.7626 26.9291 27.7532C27.0271 27.7438 27.1261 27.7539 27.2203 27.7828C27.3145 27.8117 27.4021 27.8589 27.4781 27.9217C27.554 27.9844 27.6169 28.0615 27.663 28.1486Z" fill="#343330"/>
</svg>
