<svg width="183" height="232" viewBox="0 0 183 232" fill="none" xmlns="http://www.w3.org/2000/svg">
<path d="M181.145 214.059L37.3112 130.079V14.2169L181.145 98.1863V214.059Z" fill="#D0EACF"/>
<path d="M181.145 215.596C180.882 215.596 180.619 215.528 180.385 215.391L36.5528 131.41C36.0823 131.136 35.7927 130.626 35.7927 130.078V14.2172C35.7927 13.6687 36.0823 13.1591 36.5528 12.8848C37.0249 12.6089 37.6025 12.6089 38.0746 12.8848L181.906 96.8559C182.379 97.1302 182.667 97.6398 182.667 98.1883V214.059C182.667 214.607 182.377 215.117 181.906 215.393C181.67 215.528 181.409 215.598 181.146 215.598L181.145 215.596ZM38.833 129.192L179.623 211.394V99.0754L38.833 16.8803V129.192Z" fill="#404040"/>
<path d="M153.045 230.458L9.21275 146.487L9.20773 30.6163L153.041 114.596L153.045 230.458Z" fill="#D0EACF"/>
<path d="M153.045 231.997C152.782 231.997 152.521 231.929 152.285 231.792L8.45259 147.819C7.98048 147.545 7.69252 147.035 7.69252 146.487L7.68918 30.6164C7.68918 30.0679 7.9788 29.5583 8.44924 29.284C8.92136 29.008 9.49894 29.008 9.97106 29.284L153.803 113.264C154.275 113.538 154.563 114.047 154.563 114.596L154.566 230.458C154.566 231.007 154.277 231.516 153.806 231.792C153.57 231.928 153.309 231.997 153.046 231.997H153.045ZM10.7328 145.6L151.523 227.795L151.519 115.483L10.7294 33.2795L10.7328 145.6Z" fill="#404040"/>
<path d="M9.20871 30.6163L9.21205 85.0666C9.2087 96.3657 17.0739 110.113 26.779 115.776L135.479 179.243C145.184 184.906 153.042 180.345 153.042 169.044V114.594L9.20871 30.6163Z" fill="#404040"/>
<path d="M143.347 183.223C140.67 183.223 137.735 182.336 134.718 180.576L26.0186 117.108C15.9083 111.208 7.68819 96.8347 7.69154 85.0666L7.6882 30.6164C7.6882 30.0679 7.97783 29.5583 8.44827 29.284C8.92038 29.008 9.49797 29.008 9.97008 29.284L153.802 113.264C154.274 113.538 154.562 114.047 154.562 114.596V169.046C154.562 175.073 152.473 179.612 148.677 181.828C147.079 182.761 145.279 183.225 143.345 183.225L143.347 183.223ZM10.7301 33.2795L10.7335 85.0666C10.7301 95.8561 18.2689 109.033 27.5404 114.445L136.24 177.912C140.451 180.372 144.333 180.818 147.156 179.164C149.97 177.52 151.52 173.927 151.52 169.046V115.483L10.7301 33.2795Z" fill="#404040"/>
<path d="M175.963 86.6758L175.966 86.6673L32.2819 2.77749L32.2702 2.79781C29.0943 0.874558 24.6779 1.10311 19.7743 3.96767C10.0625 9.63922 2.18723 23.4016 2.18723 34.7227L2.19057 85.064C2.18722 96.3682 10.0574 110.119 19.7491 115.778L128.461 179.249C138.157 184.909 146.019 180.343 146.019 169.044V118.699L181.145 98.1916C181.145 92.5082 179.164 88.5262 175.965 86.6792L175.963 86.6758Z" fill="white"/>
<path d="M136.319 183.226C133.643 183.226 130.712 182.339 127.7 180.579L18.9887 117.109C8.88181 111.209 0.665047 96.8318 0.670069 85.0621L0.666718 34.7208C0.666718 22.9358 8.89687 8.5436 19.0138 2.63503C24.1384 -0.361582 29.0236 -0.811921 32.8072 1.33311C32.8859 1.36358 32.9662 1.40083 33.0433 1.44485L176.73 85.3364C176.78 85.3652 176.827 85.3956 176.872 85.4312C180.61 87.6761 182.666 92.1981 182.666 98.1879C182.666 98.7365 182.376 99.2461 181.906 99.5203L147.541 119.584V169.042C147.541 175.07 145.45 179.609 141.653 181.827C140.054 182.76 138.254 183.226 136.319 183.226ZM27.5805 3.08367C25.4543 3.08367 23.0552 3.8269 20.5323 5.3015C11.2541 10.7191 3.70698 23.9194 3.70698 34.7242L3.71034 85.0655C3.70699 95.8567 11.2424 109.037 20.5088 114.448L129.22 177.918C133.427 180.375 137.3 180.818 140.131 179.166C142.947 177.522 144.497 173.926 144.497 169.043V118.699C144.497 118.15 144.787 117.641 145.257 117.366L179.604 97.3127C179.428 92.8398 177.883 89.5553 175.208 88.0147C175.157 87.9842 175.109 87.9538 175.064 87.9199L31.7458 4.24338C31.6571 4.21121 31.5717 4.16889 31.488 4.11979C30.3428 3.42735 29.0236 3.08367 27.5805 3.08367Z" fill="#404040"/>
<path d="M82.2255 162.741C82.2289 167.972 78.5943 170.075 74.1092 167.468C69.6174 164.84 65.9812 158.488 65.9812 153.257L65.9845 132.292C65.9812 127.061 69.6208 124.946 74.1092 127.562C78.5926 130.186 82.2255 136.547 82.2289 141.761L82.2255 162.743V162.741Z" fill="white"/>
<path d="M77.7434 170.131C76.3656 170.131 74.8723 169.684 73.3504 168.802C68.3631 165.884 64.4607 159.057 64.4607 153.257L64.464 132.293C64.4623 129.196 65.5723 126.84 67.593 125.658C69.6204 124.471 72.207 124.676 74.8672 126.23C79.8445 129.142 83.7453 135.963 83.7503 141.76L83.747 162.743C83.7486 165.838 82.6404 168.191 80.623 169.369C79.7541 169.877 78.7814 170.133 77.7434 170.133V170.131ZM70.4759 127.981C69.9653 127.981 69.5049 128.092 69.1182 128.319C68.0936 128.919 67.506 130.366 67.5076 132.289L67.5043 153.255C67.5043 157.899 70.8794 163.799 74.8739 166.136C76.528 167.097 78.0682 167.307 79.0995 166.706C80.1375 166.1 80.7084 164.692 80.705 162.743L80.7084 141.76C80.705 137.118 77.3333 131.223 73.3471 128.893C72.3141 128.291 71.323 127.982 70.4759 127.982V127.981Z" fill="#404040"/>
<path d="M163.605 87.9442C173.314 82.276 181.144 86.8793 181.144 98.1902L146.018 118.698C146.022 107.382 153.892 93.6157 163.605 87.9442Z" fill="#404040"/>
<path d="M146.018 120.236C145.755 120.236 145.494 120.169 145.258 120.03C144.786 119.755 144.498 119.246 144.498 118.697C144.501 106.911 152.733 92.5168 162.845 86.6116C168.021 83.5862 172.97 83.1444 176.767 85.3622C180.571 87.5834 182.665 92.1393 182.665 98.1901C182.665 98.7386 182.376 99.2482 181.905 99.5225L146.78 120.03C146.544 120.169 146.282 120.236 146.02 120.236H146.018ZM164.365 89.2764C155.867 94.2386 148.817 105.739 147.695 115.943L179.605 97.3131C179.429 92.8554 177.897 89.5744 175.245 88.0287C172.433 86.378 168.562 86.8266 164.365 89.2764Z" fill="#404040"/>
<path d="M181.145 98.1846V98.188L153.043 114.598L153.046 230.457C161.296 219.595 168.783 215.689 181.145 214.053V98.1846Z" fill="#404040"/>
<path d="M153.046 231.998C152.882 231.998 152.718 231.97 152.557 231.919C151.941 231.707 151.526 231.118 151.526 230.461L151.522 114.603C151.522 114.054 151.812 113.544 152.282 113.27L180.385 96.8599C180.857 96.5839 181.438 96.5856 181.905 96.8582C182.377 97.1324 182.665 97.6386 182.665 98.1889V214.059C182.665 214.833 182.099 215.485 181.342 215.585C168.81 217.239 161.974 221.233 154.251 231.399C153.958 231.783 153.508 232 153.046 232V231.998ZM154.562 115.49L154.566 226.147C161.525 218.096 168.575 214.383 179.623 212.72V100.85L154.562 115.488V115.49Z" fill="#404040"/>
<path d="M125.037 74.4682C122.797 74.4682 120.981 72.6313 120.981 70.366V60.3875C120.981 50.5799 113.867 38.1415 105.446 33.2267L73.83 14.773C70.4833 12.8142 67.433 12.3672 65.4508 13.5168C63.482 14.668 62.3519 17.5478 62.3519 21.4214V31.3983C62.3519 33.6635 60.5355 35.5004 58.2955 35.5004C56.0554 35.5004 54.239 33.6635 54.239 31.3983V21.4214C54.239 14.4361 56.782 9.10653 61.396 6.41296C66.0217 3.71094 71.8762 4.1545 77.8865 7.66917L109.501 26.1212C120.487 32.5343 129.092 47.5867 129.092 60.3875V70.366C129.092 72.6313 127.276 74.4682 125.036 74.4682H125.037Z" fill="#404040"/>
<path d="M140.452 97.4809C140.195 97.4809 139.933 97.4149 139.694 97.2744L15.8749 24.9833C15.1483 24.5584 14.8989 23.6171 15.3191 22.8823C15.7393 22.1492 16.6651 21.8936 17.3967 22.3202L141.214 94.6113C141.941 95.0363 142.19 95.9776 141.77 96.7123C141.489 97.205 140.978 97.4809 140.451 97.4809H140.452Z" fill="#404040"/>
</svg>
