<svg width="246" height="241" viewBox="0 0 246 241" fill="none" xmlns="http://www.w3.org/2000/svg">
<path d="M93.8481 1.75722L93.8482 1.75729L124.966 17.6009C127.54 18.9123 128.834 21.4177 128.437 23.8488C127.815 27.6608 129.887 31.32 133.447 33.1321C133.447 33.1321 133.447 33.1322 133.447 33.1322L243.65 89.2432L206.173 235.896L55.8819 159.433L80.8664 6.36014L81.9864 6.93038C81.9864 6.93041 81.9865 6.93043 81.9865 6.93046C85.1306 8.53157 89.4032 6.92526 89.9959 3.29039C90.2147 1.94865 92.1027 0.86834 93.8481 1.75722Z" fill="white" stroke="#0D0D0D" stroke-width="2.8855"/>
<path d="M54.2882 16.6426V160.243L207.124 238L219.86 101.191L54.2882 16.6426Z" fill="#F5FAF4" stroke="#0D0D0D" stroke-width="2.8855" stroke-miterlimit="10" stroke-linecap="round"/>
<path d="M63.7962 113.998L55.8103 28.3689L207.992 104.932L206.106 217.004L70.6276 148.531L63.7962 113.998Z" fill="#A1BAA1" stroke="#0D0D0D" stroke-width="2.8855"/>
<path d="M54.2861 160.239L41.5499 23.6709L207.122 108.382V237.996L54.2861 160.239Z" fill="white" stroke="#0D0D0D" stroke-width="2.8855" stroke-miterlimit="10" stroke-linecap="round"/>
<path d="M52.3138 123.669L44.3289 38.0405L196.585 114.642L204.79 233.448L59.1477 158.21L52.3138 123.669Z" fill="#A1BAA1" stroke="#0D0D0D" stroke-width="2.8855"/>
<path d="M54.2695 160.24L28.796 31.4893L194.369 114.79L207.105 237.998L54.2695 160.24Z" fill="white" stroke="#0D0D0D" stroke-width="2.8855" stroke-miterlimit="10" stroke-linecap="round"/>
<path d="M62.5491 164.033L39.7443 48.7695L187.972 123.345L202.777 234.559L62.5491 164.033Z" fill="#F5FAF4" stroke="#0D0D0D" stroke-width="2.8855" stroke-miterlimit="10" stroke-linecap="round"/>
<path d="M52.2018 142.351L35.1994 56.4115L170.473 125.428L203.764 229.666L58.0089 155.672L52.2018 142.351Z" fill="#A1BAA1" stroke="#0D0D0D" stroke-width="2.8855"/>
<path d="M3.33313 43.3857L169.049 127.934L207.115 237.998L54.279 160.241L3.33313 43.3857Z" fill="white" stroke="#0D0D0D" stroke-width="2.8855" stroke-miterlimit="10"/>
<g clip-path="url(#clip0_0_22168)">
<path d="M117.963 133.076C121.988 135.403 125.576 140.758 128.131 147.543C130.023 152.571 131.354 158.418 131.859 164.37L129.586 163.056C129.101 157.59 127.889 152.264 126.166 147.704C124.018 141.985 121.114 137.553 117.963 135.731C117.506 135.466 117.051 135.258 116.604 135.111C118.096 137.422 119.433 140.154 120.564 143.165C122.456 148.193 123.792 154.042 124.292 159.992L122.025 158.681C121.54 153.215 120.328 147.889 118.605 143.329C117.354 140.002 115.847 137.11 114.183 134.91C113.307 135.069 112.517 135.419 111.835 135.949C112.257 136.894 112.649 137.845 113.009 138.8C114.901 143.828 116.236 149.678 116.741 155.629L114.467 154.314C113.979 148.847 112.77 143.523 111.047 138.963C110.839 138.41 110.623 137.872 110.402 137.345C110.182 137.617 109.969 137.907 109.761 138.22C108.045 140.791 106.827 144.712 106.342 149.617L104.067 148.302C104.574 142.935 105.906 138.627 107.797 135.787C108.156 135.247 108.548 134.749 108.971 134.293C109.407 133.816 109.885 133.398 110.402 133.043C110.826 132.749 111.28 132.506 111.761 132.315C111.42 132.029 111.073 131.773 110.723 131.549C110.516 131.417 110.309 131.297 110.102 131.19L110.081 131.178C109.733 130.998 109.387 130.854 109.047 130.746C108.185 130.476 107.364 130.407 106.622 130.542C104.958 130.818 103.451 131.968 102.199 133.848C100.484 136.419 99.2644 140.34 98.7792 145.245L96.5064 143.931C97.0113 138.563 98.3451 134.256 100.239 131.417C101.37 129.715 102.708 128.534 104.199 127.943C103.752 127.573 103.297 127.254 102.84 126.991C99.6929 125.172 96.7865 126.251 94.6367 129.479C92.9211 132.051 91.702 135.971 91.2168 140.876L88.9454 139.563C89.4503 134.195 90.7841 129.888 92.6778 127.049C95.2236 123.215 98.8203 122.012 102.841 124.337L117.963 133.08L117.963 133.076Z" fill="#1A1A1A"/>
</g>
<defs>
<clipPath id="clip0_0_22168">
<rect width="49.5693" height="23.2596" fill="white" transform="matrix(0.865727 0.500516 -2.20002e-08 1 88.9454 116.3)"/>
</clipPath>
</defs>
</svg>
