<svg width="201" height="142" viewBox="0 0 201 142" fill="none" xmlns="http://www.w3.org/2000/svg">
<path d="M198.925 73.1317V42.587C196.697 37.953 193.398 33.4604 189.11 29.2014C180.454 32.2927 167.184 30.8546 157.632 25.434C154.721 23.7869 152.55 21.9432 150.972 20.038V7.58657C143.455 5.15282 135.537 3.28446 127.368 2.02457C125.109 7.68487 113.942 11.9931 100.416 11.987C86.9016 11.9808 75.7099 7.66644 73.4566 2C65.2882 3.25989 57.3701 5.12209 49.8526 7.54969V20.0503C48.2753 21.937 46.1158 23.7685 43.2365 25.3971C33.691 30.8055 20.4212 32.2374 11.7521 29.1461C7.47068 33.4051 4.19078 37.8977 1.96872 42.5255V78.9518C1.96872 78.9518 1.99375 78.9518 2.00001 78.9518V100.401C4.22833 105.035 7.52074 109.527 11.8209 113.786C20.4776 110.701 33.7473 112.139 43.3116 117.56C46.2097 119.207 48.3879 121.051 49.959 122.95V135.407C57.4765 137.841 65.3946 139.709 73.563 140.975C75.8163 135.315 86.9955 131.001 100.516 131.013C114.03 131.013 125.221 135.327 127.481 141C135.649 139.74 143.561 137.872 151.085 135.45V122.956C152.662 121.069 154.815 119.231 157.695 117.603C167.24 112.195 180.51 110.763 189.179 113.854C193.467 109.589 196.74 105.102 198.969 100.468V73.1501C198.969 73.1501 198.944 73.1501 198.931 73.1378L198.925 73.1317ZM147.78 76.0633L147.799 76.0756C147.736 76.1247 147.661 76.18 147.592 76.2353C146.904 76.8007 146.152 77.3539 145.389 77.907C145.101 78.116 144.838 78.3372 144.538 78.5462C143.417 79.3144 142.228 80.0642 140.964 80.7894C118.618 93.4559 82.3824 93.4375 60.024 80.7648C58.7409 80.0396 57.5391 79.2837 56.4187 78.5031C56.137 78.3188 55.8991 78.116 55.6362 77.9193C54.8413 77.3477 54.0401 76.7639 53.3265 76.1616C53.264 76.1124 53.1888 76.0632 53.1262 76.0079C53.1262 76.0079 53.1325 75.9957 53.1388 75.9957C51.4112 74.5391 49.8777 73.0149 48.6008 71.4539C51.3486 68.1044 55.0854 64.9516 59.9677 62.1921C82.301 49.5318 118.536 49.5379 140.901 62.2167C145.802 64.9885 149.558 68.1597 152.312 71.5153C151.035 73.0825 149.507 74.6005 147.774 76.0571L147.78 76.0633Z" fill="#CBE8CA"/>
<path d="M127.908 142C127.202 142 126.559 141.577 126.29 140.915C124.579 136.62 115.138 132.049 101.006 132.043C86.8686 132.043 77.4456 136.608 75.7346 140.897C75.4411 141.645 74.6543 142.086 73.8487 141.957C65.6184 140.689 57.6067 138.795 50.032 136.338C49.3202 136.105 48.8393 135.456 48.8393 134.72V122.925C47.3469 121.246 45.4048 119.726 43.0756 118.403C37.3182 115.143 29.9621 113.274 22.8808 113.274C19.2402 113.274 15.8682 113.788 13.1206 114.769C12.4774 114.989 11.7718 114.842 11.2972 114.364C6.88232 109.989 3.47278 105.345 1.16855 100.553C1.06239 100.326 0.999973 100.075 0.999973 99.8236V78.7508C0.974995 78.6466 0.968719 78.5425 0.968719 78.4322V42.1138C0.968719 41.8626 1.02493 41.6175 1.13733 41.3908C3.44157 36.5928 6.83858 31.9481 11.2347 27.5791C11.7031 27.1073 12.4212 26.948 13.0582 27.1747C15.8183 28.1551 19.1965 28.676 22.8558 28.676C29.9247 28.676 37.2682 26.8132 43.0069 23.5594C45.3112 22.2543 47.2345 20.7469 48.7332 19.074V7.23548C48.7332 6.50016 49.214 5.8445 49.9259 5.61778C57.513 3.17286 65.5247 1.28559 73.7426 0.0171716C74.5419 -0.0931253 75.3287 0.335795 75.6346 1.07724C77.3394 5.37269 86.7874 9.94388 100.913 9.95613C115.031 9.95613 124.467 5.39719 126.19 1.10173C126.49 0.360292 127.277 -0.0686284 128.076 0.0416686C136.319 1.31621 144.331 3.2035 151.893 5.65454C152.605 5.88739 153.086 6.53693 153.086 7.27224V19.0679C154.578 20.753 156.514 22.2665 158.856 23.5901C164.607 26.85 171.969 28.7189 179.05 28.7189C182.685 28.7189 186.063 28.2041 188.811 27.2237C189.441 26.9909 190.159 27.1563 190.634 27.6282C195.055 32.0155 198.458 36.6664 200.763 41.4459C200.875 41.6726 200.931 41.9239 200.931 42.1751V72.2923C200.956 72.4087 200.969 72.519 200.969 72.6416V99.8788C200.969 100.13 200.906 100.375 200.8 100.608C198.496 105.4 195.099 110.045 190.696 114.42C190.216 114.891 189.51 115.051 188.873 114.824C186.119 113.837 182.735 113.323 179.082 113.323C172.007 113.323 164.663 115.186 158.93 118.439C156.632 119.744 154.709 121.252 153.204 122.925V134.757C153.204 135.492 152.723 136.148 152.012 136.375C144.418 138.82 136.413 140.701 128.195 141.969C128.101 141.982 128.014 141.988 127.926 141.988L127.908 142ZM100.969 128.636C114.27 128.636 125.379 132.6 128.888 138.415C136.057 137.245 143.044 135.609 149.72 133.525V122.306C149.72 121.914 149.863 121.528 150.113 121.227C151.937 119.046 154.316 117.122 157.188 115.498C163.433 111.956 171.413 109.928 179.075 109.928C182.678 109.928 186.069 110.394 188.979 111.282C192.632 107.514 195.492 103.555 197.49 99.505V72.9908C197.465 72.8744 197.459 72.7641 197.459 72.6416V42.5734C195.461 38.5353 192.589 34.5769 188.917 30.7961C186.019 31.6785 182.635 32.1381 179.05 32.1381C171.376 32.1381 163.383 30.1037 157.126 26.5558C154.21 24.9075 151.818 22.965 150.007 20.7775C149.757 20.4772 149.62 20.0973 149.62 19.7051V8.52226C142.976 6.43274 135.976 4.79054 128.794 3.62017C125.272 9.42302 114.182 13.3753 100.944 13.3753C87.6553 13.3692 76.5526 9.40465 73.0369 3.59567C65.8744 4.75992 58.8805 6.40211 52.2114 8.48549V19.7113C52.2114 20.1034 52.074 20.4895 51.818 20.7897C49.9946 22.965 47.6217 24.8891 44.7492 26.5191C38.4984 30.0547 30.5241 32.0891 22.8621 32.0891C19.259 32.0891 15.8682 31.6233 12.9582 30.7348C9.31143 34.4972 6.44518 38.4495 4.44693 42.506V78.1196C4.47191 78.2238 4.47815 78.328 4.47815 78.4383V99.4376C6.4764 103.488 9.34892 107.446 13.0207 111.209C15.9182 110.332 19.3089 109.867 22.8933 109.867C30.5678 109.867 38.5546 111.901 44.8241 115.449C47.7278 117.097 50.1257 119.04 51.9366 121.221C52.1926 121.528 52.3238 121.908 52.3238 122.294V133.476C58.9804 135.566 65.9806 137.214 73.1556 138.385C76.6712 132.576 87.7491 128.63 100.987 128.63L100.969 128.636ZM101.025 91.4411C85.4635 91.4411 70.8014 87.9912 59.7423 81.7288C58.4122 80.9813 57.1758 80.1969 56.0143 79.3942C55.8332 79.2778 55.6396 79.1307 55.4585 78.9837C54.3782 78.1993 53.554 77.5865 52.8109 76.9615C52.7484 76.9125 52.686 76.8512 52.6298 76.79C50.7877 75.2458 49.1828 73.6404 47.8777 72.0349C47.3719 71.416 47.3719 70.5276 47.8777 69.9025C50.8813 66.2444 54.8591 63.0028 59.6986 60.2638C70.7265 54.0136 85.3636 50.5699 100.9 50.5699C116.436 50.5699 131.117 54.0198 142.176 60.2883C147.047 63.0457 151.037 66.2995 154.047 69.9699C154.559 70.5888 154.559 71.4773 154.047 72.0962C152.798 73.6281 151.268 75.1661 149.514 76.6674C149.451 76.7409 149.389 76.8022 149.314 76.8635C148.377 77.6233 147.603 78.1993 146.816 78.7692L145.942 79.4248C144.768 80.2275 143.544 81.0057 142.233 81.7472C131.205 87.9973 116.568 91.435 101.031 91.435L101.025 91.4411ZM55.0589 74.3818C55.8582 75.0252 56.5576 75.5338 57.2632 76.0424C57.2757 76.0546 57.6004 76.2997 57.6192 76.312L57.9814 76.5877C59.0866 77.3537 60.2356 78.0768 61.4658 78.7753C72.0066 84.7497 86.0567 88.0341 101.019 88.0341C115.981 88.0341 129.968 84.7558 140.484 78.7998C141.708 78.1074 142.851 77.3843 143.931 76.6429L144.749 76.0301C145.474 75.5032 146.198 74.9762 146.854 74.4369C146.904 74.3818 146.966 74.3267 147.022 74.2715C148.296 73.2053 149.426 72.1146 150.407 71.0361C147.79 68.1255 144.437 65.509 140.428 63.2357C129.893 57.2613 115.843 53.9769 100.888 53.9769C85.9319 53.9769 71.9316 57.2613 61.4283 63.2112C57.4381 65.4661 54.1035 68.0704 51.4933 70.9749C52.4799 72.0595 53.6164 73.144 54.8778 74.2102C54.9403 74.2654 54.9964 74.3205 55.0589 74.3818Z" fill="#292E28"/>
<path d="M157.756 90.5349C167.302 85.1109 180.572 83.6748 189.241 86.7751C193.529 82.4975 196.803 77.998 199.031 73.3506C189.029 72.0686 181.423 65.7077 181.417 58.0216C181.404 50.3355 189.004 43.9869 198.994 42.7049C196.765 38.0575 193.467 33.5518 189.179 29.2804C180.522 32.3807 167.252 30.9384 157.7 25.5021C148.135 20.0719 145.6 12.5276 151.039 7.60279C143.522 5.16198 135.603 3.28823 127.435 2.02468C125.175 7.70142 114.008 12.0221 100.481 12.016C86.9669 12.0098 75.7748 7.6829 73.5214 2C65.3527 3.26355 57.4344 5.13116 49.9167 7.56581C55.375 12.4906 52.8461 20.0411 43.3003 25.4651C33.7546 30.8891 20.4844 32.3253 11.8149 29.225C7.53338 33.4964 4.25338 38.002 2.03125 42.6432C12.0215 43.9314 19.6331 50.2862 19.6456 57.9723C19.6456 65.6522 12.0528 72.007 2.06254 73.289C4.29093 77.9364 7.58345 82.442 11.8837 86.7135C20.5407 83.6193 33.8109 85.0554 43.3755 90.4918C52.9338 95.9282 55.4689 103.466 50.0231 108.391C57.5408 110.832 65.4591 112.712 73.6278 113.975C75.8812 108.299 87.0607 103.972 100.581 103.984C114.096 103.984 125.288 108.317 127.547 114C135.716 112.736 143.628 110.863 151.152 108.434C145.694 103.503 148.216 95.959 157.762 90.5349H157.756ZM60.0884 80.9998C37.7231 68.2841 37.6981 47.679 60.0446 34.9818C82.3786 22.2785 118.615 22.2908 140.98 35.0064C163.352 47.7159 163.364 68.3211 141.037 81.0244C118.69 93.7277 82.4537 93.7093 60.0947 80.9998H60.0884Z" fill="white"/>
<path d="M126.957 115C126.251 115 125.608 114.576 125.34 113.913C123.629 109.608 114.188 105.027 100.058 105.02C85.9221 105.02 76.5001 109.59 74.7893 113.888C74.4958 114.638 73.7091 115.068 72.9036 114.957C64.6742 113.68 56.6633 111.788 49.0895 109.325C48.5026 109.135 48.0655 108.656 47.9406 108.067C47.8095 107.471 48.003 106.863 48.4588 106.451C50.1509 104.922 50.9002 103.141 50.6754 101.164C50.3008 97.7983 47.1913 94.2241 42.1338 91.35C36.3769 88.0829 29.0217 86.2098 21.9411 86.2098C18.3009 86.2098 14.9292 86.7256 12.1819 87.7082C11.5388 87.9293 10.8333 87.7758 10.3587 87.3029C5.9443 82.9181 2.53513 78.263 0.231137 73.4605C-0.00613022 72.9692 0.012606 72.392 0.274849 71.9129C0.543336 71.4339 1.02412 71.1084 1.57359 71.0409C10.8645 69.8495 17.6079 64.1442 17.6079 57.4748C17.5954 50.8054 10.8395 45.0879 1.54237 43.8904C0.986669 43.8228 0.512124 43.4973 0.243637 43.0183C-0.0186058 42.5393 -0.0435859 41.9682 0.199925 41.4707C2.50392 36.6621 5.90057 32.007 10.2963 27.6283C10.7646 27.1554 11.4826 26.9958 12.1195 27.223C14.8793 28.2056 18.2572 28.7276 21.9161 28.7276C28.9842 28.7276 36.327 26.8607 42.0651 23.5997C47.1039 20.7378 50.2196 17.1636 50.588 13.8043C50.8128 11.8207 50.0635 10.0397 48.359 8.50443C47.9031 8.09297 47.7033 7.47884 47.8344 6.88928C47.9593 6.29972 48.4027 5.82071 48.9896 5.63033C56.5759 3.17997 64.5868 1.28845 72.8037 0.0172099C73.603 -0.0933328 74.3897 0.336543 74.6956 1.07964C76.4002 5.38466 85.8472 9.96607 99.9709 9.97835C114.088 9.97835 123.523 5.40925 125.246 1.10422C125.546 0.361132 126.333 -0.0687812 127.132 0.0417614C135.374 1.31914 143.385 3.21067 150.946 5.66718C151.533 5.85755 151.97 6.33657 152.101 6.92613C152.232 7.52183 152.032 8.13596 151.583 8.54128C149.884 10.0705 149.141 11.8514 149.366 13.8289C149.741 17.1943 152.863 20.7747 157.92 23.6427C163.671 26.9098 171.032 28.7829 178.113 28.7829C181.747 28.7829 185.125 28.267 187.872 27.2844C188.503 27.051 189.221 27.2168 189.695 27.6897C194.116 32.0869 197.519 36.7481 199.823 41.5383C200.06 42.0357 200.048 42.6068 199.779 43.0859C199.517 43.5649 199.03 43.8904 198.487 43.9579C189.19 45.1493 182.446 50.8546 182.459 57.524C182.465 64.1995 189.221 69.9109 198.518 71.1023C199.067 71.176 199.548 71.4953 199.817 71.9743C200.085 72.4533 200.104 73.0245 199.86 73.5219C197.556 78.3244 194.16 82.9795 189.758 87.3643C189.277 87.8372 188.571 87.9969 187.935 87.7697C185.181 86.7809 181.797 86.2651 178.144 86.2651C171.07 86.2651 163.727 88.132 157.995 91.393C152.956 94.2548 149.847 97.829 149.472 101.188C149.254 103.172 149.997 104.953 151.701 106.488C152.163 106.9 152.357 107.514 152.226 108.103C152.101 108.693 151.658 109.178 151.077 109.362C143.484 111.813 135.48 113.698 127.263 114.969C127.169 114.982 127.082 114.988 126.994 114.988L126.957 115ZM100.021 101.612C113.32 101.612 124.428 105.585 127.937 111.414C134.649 110.32 141.199 108.803 147.487 106.906C146.257 105.076 145.745 103.012 145.994 100.82C146.494 96.2999 150.128 91.9027 156.228 88.439C162.472 84.8894 170.452 82.8567 178.113 82.8567C181.716 82.8567 185.106 83.3234 188.016 84.2139C191.163 80.959 193.723 77.5629 195.652 74.0869C185.855 72.0173 178.968 65.3234 178.956 57.5301C178.95 49.7369 185.818 43.0429 195.621 40.9794C193.691 37.5157 191.119 34.1135 187.953 30.8525C185.056 31.7368 181.672 32.1974 178.088 32.1974C170.414 32.1974 162.422 30.1585 156.166 26.6027C150.053 23.1329 146.407 18.7358 145.901 14.2097C145.657 12.0234 146.169 9.95993 147.387 8.13597C141.124 6.23218 134.562 4.71526 127.837 3.61598C124.316 9.43175 113.227 13.3929 99.9895 13.3929C86.7026 13.3867 75.601 9.41334 72.0857 3.59143C65.3798 4.68457 58.8175 6.19534 52.5424 8.09913C53.7724 9.92922 54.2781 11.9927 54.0346 14.1851C53.5351 18.7051 49.895 23.1022 43.8009 26.5659C37.5508 30.1094 29.5774 32.1483 21.9161 32.1483C18.3134 32.1483 14.923 31.6815 12.0133 30.791C8.86642 34.0459 6.30644 37.4359 4.37708 40.9119C14.1737 42.9815 21.0607 49.6816 21.0732 57.4687C21.0732 65.2619 14.2049 71.9559 4.40829 74.0194C6.33765 77.4953 8.91014 80.8914 12.0695 84.1463C14.9667 83.262 18.3571 82.8014 21.9411 82.8014C29.6148 82.8014 37.6007 84.8403 43.8696 88.3961C49.9761 91.8659 53.6225 96.2692 54.1283 100.789C54.3718 102.975 53.866 105.033 52.6422 106.863C58.9173 108.773 65.4734 110.29 72.1918 111.383C75.7071 105.561 86.7838 101.606 100.021 101.606V101.612ZM100.077 91.6264C84.5172 91.6264 69.8566 88.1689 58.7987 81.8925C47.4411 75.438 41.1847 66.7665 41.191 57.4625C41.191 48.1769 47.4286 39.5178 58.755 33.0879C69.7817 26.8238 84.4174 23.3724 99.9521 23.3724C115.487 23.3724 130.166 26.83 141.224 33.1125C152.588 39.5608 158.844 48.2323 158.844 57.5363C158.844 66.8403 152.613 75.481 141.28 81.917C130.254 88.1811 115.618 91.6264 100.083 91.6264H100.077ZM99.9459 26.787C85.0043 26.787 70.993 30.0726 60.4908 36.0419C50.2821 41.8392 44.6563 49.4482 44.6563 57.4625C44.6563 65.4953 50.2946 73.1228 60.5345 78.9385C71.0679 84.9263 85.1166 88.218 100.077 88.218C115.037 88.218 129.024 84.9324 139.538 78.9631C149.747 73.1596 155.367 65.5506 155.367 57.5363C155.367 49.5219 149.728 41.8822 139.488 36.0664C128.955 30.0787 114.906 26.787 99.9521 26.787H99.9459Z" fill="#292E28"/>
<path d="M90 26C78.9593 27.1742 68.4055 30.1751 59.8688 35.0211C42.2391 45.0176 38.4577 59.8601 48.3855 72C51.1615 68.614 54.9365 65.4268 59.8688 62.6372C68.4055 57.7912 78.953 54.7904 90 53.6161V26Z" fill="#292E28"/>
<path d="M48.0713 73C47.5456 73 47.0511 72.7661 46.7194 72.3598C41.994 66.5793 40.1415 60.1402 41.3682 53.7256C42.8765 45.8152 48.8224 38.7051 58.5672 33.1709C66.9477 28.4123 77.4874 25.242 89.0723 24.0108C89.548 23.9554 90.0487 24.1155 90.4242 24.4417C90.7935 24.768 91 25.2296 91 25.716V53.0793C91 53.9534 90.3303 54.686 89.4478 54.7783C78.3448 55.9603 68.2683 58.9767 60.3134 63.4952C55.8321 66.0376 52.1708 69.0171 49.4294 72.366C49.0977 72.7661 48.6033 73 48.0776 73H48.0713ZM87.5201 27.6366C77.1744 28.9479 67.8051 31.872 60.3071 36.1319C51.5887 41.0813 46.0748 47.5574 44.7855 54.3597C43.8717 59.1675 45.042 64.0369 48.1714 68.5554C50.9691 65.5574 54.4552 62.8673 58.561 60.5342C66.5596 55.9849 76.5423 52.8946 87.5139 51.5526V27.6366H87.5201Z" fill="#292E28"/>
<path d="M150.5 137C149.669 137 149 136.225 149 135.277V107.723C149 106.775 149.669 106 150.5 106C151.331 106 152 106.775 152 107.723V135.277C152 136.225 151.326 137 150.5 137Z" fill="#292E28"/>
<path d="M126.5 142C125.669 142 125 141.225 125 140.277V112.723C125 111.775 125.669 111 126.5 111C127.331 111 128 111.775 128 112.723V140.277C128 141.225 127.326 142 126.5 142Z" fill="#292E28"/>
<path d="M188.5 115C187.674 115 187 114.231 187 113.277V85.7233C187 84.7749 187.674 84 188.5 84C189.326 84 190 84.7687 190 85.7233V113.277C190 114.225 189.331 115 188.5 115Z" fill="#292E28"/>
<path d="M73.5 142C72.6745 142 72 141.225 72 140.277V112.723C72 111.775 72.6745 111 73.5 111C74.3256 111 75 111.769 75 112.723V140.277C75 141.225 74.331 142 73.5 142Z" fill="#292E28"/>
<path d="M49.5 137C48.6744 137 48 136.225 48 135.277V107.723C48 106.775 48.6744 106 49.5 106C50.3255 106 51 106.775 51 107.723V135.277C51 136.225 50.3309 137 49.5 137Z" fill="#292E28"/>
<path d="M11.5 115C10.669 115 10 114.225 10 113.277V85.7232C10 84.7748 10.669 84 11.5 84C12.3309 84 13 84.7748 13 85.7232V113.277C13 114.225 12.3255 115 11.5 115Z" fill="#292E28"/>
<path d="M181 57.4938C181.006 65.2625 188.346 71.6969 198 73C197.988 73 197.976 73 197.964 72.9875V42C188.322 43.2969 180.988 49.7188 181 57.4938Z" fill="#292E28"/>
<path d="M198.281 73.9938C198.281 73.9938 198.225 73.9938 198.2 73.9938C198.119 73.9938 198.038 73.9939 197.964 73.9754C186.989 72.5546 179.012 65.4076 179 56.9936C178.994 48.5672 186.952 41.4264 197.933 40.0117C198.461 39.9564 198.926 40.0978 199.292 40.4238C199.665 40.7498 199.882 41.2172 199.882 41.7093V71.6566C199.963 71.8534 200 72.0687 200 72.2901C200 73.2312 199.23 74 198.274 74L198.281 73.9938ZM196.437 43.7267C188.218 45.4181 182.439 50.7876 182.451 56.9874C182.458 63.1811 188.231 68.5506 196.437 70.2543V43.7205V43.7267Z" fill="#292E28"/>
<path d="M157.464 90.3522C147.903 95.7566 145.377 103.274 150.844 108.187V123C152.424 121.115 154.58 119.278 157.464 117.651C167.025 112.246 180.317 110.815 189 113.905V86.6059C180.317 83.5168 167.025 84.9477 157.464 90.3522Z" fill="#CBE8CA"/>
<path d="M150.537 123.988C150.345 123.988 150.146 123.958 149.954 123.891C149.266 123.648 148.813 123.009 148.813 122.298V108.35C146.698 106.192 145.743 103.591 146.059 100.777C146.555 96.304 150.165 91.9524 156.224 88.5246C162.426 85.0117 170.352 83 177.962 83C181.987 83 185.752 83.5834 188.865 84.6957C189.547 84.9388 190 85.5709 190 86.282V113.297C190 113.85 189.727 114.361 189.262 114.683C188.809 114.999 188.208 115.072 187.687 114.89C184.952 113.911 181.59 113.401 177.962 113.401C170.935 113.401 163.642 115.248 157.948 118.475C155.455 119.885 153.409 121.532 151.87 123.38C151.529 123.781 151.039 124 150.537 124V123.988ZM177.968 86.3792C170.941 86.3792 163.648 88.2268 157.955 91.454C152.95 94.2862 149.861 97.8235 149.489 101.148C149.272 103.111 150.01 104.874 151.703 106.393C152.063 106.715 152.267 107.165 152.267 107.639V118.232C153.458 117.266 154.785 116.366 156.237 115.546C162.439 112.033 170.365 110.021 177.974 110.021C181.044 110.021 183.972 110.362 186.564 111.018V87.5096C184.052 86.7742 181.113 86.3853 177.974 86.3853L177.968 86.3792Z" fill="#292E28"/>
<path d="M189 86.483V114C193.38 109.704 196.724 105.185 199 100.517V73C196.724 77.6677 193.373 82.1868 189 86.483Z" fill="#292E28"/>
<path d="M188.705 115C188.491 115 188.264 114.957 188.055 114.871C187.417 114.608 187 113.989 187 113.296V86.0539C187 85.6065 187.178 85.1775 187.491 84.8588C191.54 80.7587 194.656 76.4257 196.755 71.9823C197.092 71.2591 197.902 70.8608 198.669 71.0446C199.442 71.2162 200 71.9088 200 72.7055V99.9478C200 100.199 199.939 100.444 199.834 100.677C197.571 105.47 194.233 110.115 189.908 114.491C189.583 114.822 189.141 115 188.699 115H188.705ZM190.411 86.7526V108.92C192.982 105.893 195.049 102.761 196.601 99.5678V79.1407C194.859 81.7454 192.785 84.295 190.411 86.7526Z" fill="#292E28"/>
</svg>
