<svg width="179" height="88" viewBox="0 0 95 74" fill="none" xmlns="http://www.w3.org/2000/svg">
<path d="M66.32 37.4338L66.4249 30.4394L63.3643 30.3869C63.3643 30.3869 63.3119 30.317 63.2769 30.282L60.7235 37.6087H59.6741L57.0507 41.1234L45.5779 45.6523L29.5928 47.1736L17.9625 45.2501L7.22411 36.1748C7.27657 35.8775 7.34654 35.5803 7.43398 35.283L4.26844 29.3727C4.26844 29.3727 4.18099 29.4601 4.14602 29.5126L1.03295 29.4601L0.910522 37.3639C0.910522 37.4688 0.910522 37.5562 0.910522 37.6611V38.0283L0.945495 38.6229C1.33026 43.0993 4.42584 47.5233 10.2847 51.0205C22.9469 58.5745 43.6715 58.8893 56.5436 51.685C62.5074 48.3626 65.7254 44.0261 66.2501 39.5671L66.285 39.4272C66.3375 38.4655 66.3375 38.1158 66.285 37.4163L66.32 37.4338Z" fill="#D0EACF"/>
<path d="M34.2097 57.7701C25.3951 57.7701 16.5281 55.7592 9.88223 51.7899C4.00586 48.2752 0.543013 43.6413 0.123273 38.7102L0.0708008 38.1157L0.210717 28.6033L3.77851 28.6557L4.33816 27.9913L5.05522 28.988L8.37816 35.1956L8.29071 35.5278C8.25573 35.6327 8.23825 35.7376 8.20327 35.86L18.347 44.4282L29.6275 46.2992L45.3678 44.7954L56.4909 40.4064L59.2367 36.7168H60.0936L62.9619 28.5333L63.7664 29.53L67.2992 29.5825L67.1767 37.3988C67.2467 38.1332 67.2292 38.5179 67.1767 39.4971L67.1418 39.6895C66.5646 44.6206 62.9619 49.1495 56.9806 52.4893C50.6495 56.0215 42.4296 57.7876 34.1747 57.7876L34.2097 57.7701ZM1.92466 30.3869L1.81972 38.0807L1.8547 38.5878C2.22197 42.9244 5.38751 47.0861 10.7742 50.3035C23.1915 57.7002 43.5489 57.9974 56.1586 50.968C61.6327 47.9079 64.9206 43.8512 65.4103 39.5146L65.4628 39.3223C65.4978 38.4829 65.4978 38.1682 65.4628 37.5212V37.4338L65.5502 31.3136H63.8713L61.3529 38.5179H60.1286L57.6277 41.8752L45.6825 46.5615L29.575 48.1003L17.5949 46.1069L6.29695 36.5595L6.38439 36.0699C6.41937 35.86 6.47184 35.6502 6.52431 35.4404L3.83097 30.4393L1.92466 30.4043V30.3869Z" fill="#16110D"/>
<path d="M3.53404 30.3694C4.75828 32.0655 6.1749 34.024 7.36416 35.6676C8.13369 32.4502 10.7046 29.3552 15.0419 26.9246C25.5004 21.0842 42.3075 21.329 52.5912 27.4667C56.8235 29.9847 59.272 33.1147 59.9891 36.3321L63.5569 30.6666C63.2071 30.212 62.8398 29.7748 62.4201 29.3202C63.2071 29.6699 63.7318 29.9147 63.9416 30.0196C62.8923 28.9879 54.6024 17.0275 54.6024 17.0275L35.6616 12.3237L18.0151 14.6144L6.47221 23.9345L5.65023 27.5891L4.37352 28.0262C3.32417 28.953 4.21611 29.3727 3.48157 30.3694H3.53404Z" fill="#16110D"/>
<path d="M59.5868 38.5879L59.1321 36.5071C58.45 33.3946 56.019 30.5268 52.1364 28.2012C42.1151 22.2209 25.6578 21.9761 15.4617 27.6766C11.4741 29.8973 8.95568 32.7301 8.20365 35.8601L7.76642 37.6961L6.64711 36.1574C5.45785 34.5137 4.04123 32.5727 2.81698 30.8591L2.44971 30.3345L2.83447 29.8274C2.99187 29.6176 2.99187 29.5126 2.99187 29.2504C2.99187 28.6733 3.04434 28.0613 3.84884 27.3444L4.14616 27.1695L4.95066 26.8897L5.72019 23.41L17.6828 13.7402L35.7316 11.397L55.1446 16.2232L55.337 16.4855C58.52 21.0843 63.8542 28.6383 64.5712 29.3378L65.1134 29.8624L64.6237 30.5443L59.5868 38.5355V38.5879ZM33.1957 21.8362C40.3837 21.8362 47.6067 23.4624 53.0284 26.7149C56.5787 28.8307 59.0447 31.4186 60.2339 34.2689L62.4725 30.7017C62.2452 30.4394 62.0178 30.1596 61.773 29.8973L58.8523 26.7498L61.1609 27.7815C58.7299 24.4417 55.0921 19.2308 54.0952 17.7969L35.6441 13.2156L18.3998 15.4538L7.29421 24.4242L6.43724 28.2711L4.86321 28.7957C4.7233 28.9356 4.7233 29.0055 4.7233 29.2504C4.7233 29.5126 4.7233 29.8799 4.5659 30.317C5.3704 31.4361 6.24486 32.6426 7.06685 33.7792C8.30858 30.8591 10.8795 28.2536 14.6047 26.1728C19.764 23.2876 26.4623 21.8537 33.1957 21.8537V21.8362Z" fill="#16110D"/>
<path d="M61.4581 56.0216L66.425 47.4534L60.6711 43.7114C60.6711 43.7114 60.6011 43.6589 60.5661 43.6414C59.9365 43.2917 59.0795 43.3267 58.1176 43.8688C56.1588 44.9529 54.5498 47.6458 54.5323 49.884C54.5323 50.8632 54.8122 51.5976 55.3194 52.0173C55.4068 52.0872 55.5117 52.1572 55.6167 52.2096L61.4581 56.0041V56.0216Z" fill="#D0EACF"/>
<path d="M51.8214 24.3194C61.7553 30.2472 61.6329 39.6372 51.5241 45.2677C41.4154 50.9157 25.168 50.6709 15.2341 44.7431C5.30026 38.8154 5.42268 29.4253 15.5314 23.7948C25.6402 18.1468 41.8876 18.3916 51.8214 24.3194Z" fill="#D0EACF"/>
<path d="M10.827 16.1183C-2.06251 23.3051 -2.2374 35.2656 10.4422 42.8196C23.1044 50.3736 43.8291 50.6884 56.7011 43.4841C69.5731 36.2798 69.7655 24.3368 57.0859 16.7828C44.4237 9.2288 23.699 8.91406 10.827 16.1183ZM52.3813 40.9136C41.9228 46.754 25.1157 46.5092 14.832 40.3716C4.5484 34.2339 4.68831 24.5292 15.1468 18.7063C25.6054 12.8659 42.4124 13.1107 52.6961 19.2483C62.9797 25.386 62.8398 35.0908 52.3813 40.9136Z" fill="white"/>
<path d="M34.3323 49.5519C25.5178 49.5519 16.6508 47.5409 10.0049 43.5716C3.60388 39.7421 0.10605 34.6887 0.193495 29.3204C0.263452 23.9522 3.9012 18.9861 10.4247 15.349C23.524 8.03984 44.6859 8.33709 57.558 16.031C63.959 19.8604 67.4568 24.9139 67.3694 30.2822C67.2994 35.6504 63.6617 40.6165 57.1382 44.2536C50.8071 47.7858 42.5872 49.5519 34.3323 49.5519ZM33.213 11.7819C25.273 11.7819 17.3504 13.478 11.2466 16.8703C5.30033 20.1927 1.99488 24.6167 1.92492 29.3379C1.85496 34.0592 5.03799 38.5706 10.8794 42.0678C23.2967 49.4644 43.6541 49.7617 56.2638 42.7323C62.2101 39.4099 65.5155 34.9859 65.5855 30.2647C65.6555 25.5434 62.4724 21.032 56.631 17.5348C50.23 13.7053 41.6953 11.7819 33.1956 11.7819H33.213ZM34.2274 45.9847C27.0394 45.9847 19.8163 44.3585 14.3947 41.1236C9.14795 37.9935 6.27972 33.8318 6.34968 29.4079C6.41963 24.9839 9.39279 20.9096 14.727 17.937C25.4129 11.9742 42.6397 12.219 53.1507 18.4965C58.3974 21.6265 61.2657 25.7882 61.1957 30.2122C61.1258 34.6362 58.1526 38.7105 52.8184 41.6831C47.6591 44.5683 40.9607 46.0022 34.2274 46.0022V45.9847ZM33.318 15.349C26.8995 15.349 20.4984 16.713 15.584 19.4583C10.8094 22.1162 8.15106 25.6658 8.09859 29.4253C8.04613 33.1849 10.5995 36.8045 15.2866 39.6197C25.3079 45.6 41.7652 45.8448 51.9614 40.1443C56.736 37.4864 59.3943 33.9368 59.4468 30.1772C59.4993 26.4177 56.9458 22.7981 52.2587 19.9828C47.082 16.8878 40.1912 15.3315 33.3355 15.3315L33.318 15.349Z" fill="#16110D"/>
<path d="M34.1396 29.1279C37.6899 31.2437 37.6374 34.601 34.0347 36.6119C30.4319 38.6228 24.6255 38.5354 21.0752 36.4196C17.5249 34.3037 17.5774 30.9464 21.1801 28.9355C24.7829 26.9246 30.5893 27.012 34.1396 29.1279Z" fill="white"/>
<path d="M27.7563 34.5311C25.1854 34.5311 22.6145 33.9366 20.6207 32.7475C18.627 31.5585 17.5427 29.9498 17.5601 28.2011C17.5776 26.47 18.7144 24.8788 20.7432 23.7422C24.6608 21.5564 30.7295 21.6439 34.5771 23.9345C36.5709 25.1236 37.6552 26.7323 37.6377 28.4809C37.6202 30.212 36.4834 31.8033 34.4547 32.9224C32.5659 33.9716 30.1698 34.4961 27.7563 34.4961V34.5311ZM27.459 23.9345C25.3428 23.9345 23.2441 24.3892 21.6176 25.2984C20.1485 26.1203 19.344 27.1695 19.3266 28.2536C19.3091 29.3377 20.0961 30.4044 21.5302 31.2612C24.8356 33.2371 30.2573 33.3071 33.6152 31.4361C35.0668 30.6142 35.8888 29.5825 35.9063 28.4809C35.9063 27.3968 35.1368 26.3301 33.7027 25.4733C31.9887 24.4591 29.7326 23.9345 27.459 23.9345Z" fill="#16110D"/>
<path d="M55.6688 46.3693L61.3003 49.9015L65.6202 46.9289L59.5514 43.2218L55.6688 46.3693Z" fill="white"/>
<path d="M61.7377 57.2457L55.1268 52.9441C55.0218 52.8916 54.8819 52.8042 54.7595 52.6993C54.0249 52.1048 53.6402 51.0906 53.6577 49.884C53.6927 47.3311 55.4765 44.3584 57.6977 43.1169C58.9044 42.4524 60.0762 42.365 61.0031 42.9071L61.1605 43.012L67.5965 47.1912L61.7377 57.2632V57.2457ZM59.6215 44.306C59.2892 44.306 58.9219 44.4284 58.5372 44.6382C56.8582 45.5824 55.4241 47.978 55.3891 49.9015C55.3891 50.5835 55.5465 51.0906 55.8613 51.3529L56.0712 51.4928L61.143 54.7801L65.2355 47.7332L60.1811 44.4458C60.0237 44.3409 59.8313 44.306 59.6215 44.306Z" fill="#16110D"/>
<path d="M66.425 47.4534C65.7954 47.1211 64.9559 47.1736 64.029 47.6982C62.0702 48.7823 60.4612 51.4752 60.4437 53.7134C60.4437 54.85 60.8285 55.6369 61.4581 56.0041L67.4044 62.5089L74.9947 50.5134L66.425 47.4184V47.4534Z" fill="#D0EACF"/>
<path d="M61.7551 49.9015L69.0831 53.8359L74.1025 50.0239L65.253 47.1737L61.7551 49.9015Z" fill="white"/>
<path d="M67.5967 63.8554L60.8809 56.6861C60.0764 56.249 59.5342 55.1298 59.5517 53.7135C59.5867 51.1605 61.3706 48.1879 63.5917 46.9463C64.746 46.2994 65.8828 46.2119 66.7922 46.6666L76.2713 50.1463L67.5967 63.8554ZM65.5505 48.1179C65.2357 48.1179 64.8509 48.2403 64.4487 48.4676C62.7697 49.4119 61.3356 51.8075 61.3006 53.731C61.3006 54.4829 61.493 55.0424 61.8777 55.2522L67.1945 61.1975L73.6829 50.9332L66.0052 48.2228C65.8653 48.1529 65.7079 48.1179 65.5505 48.1179Z" fill="#16110D"/>
<path d="M80.5037 56.0041C80.3987 55.9341 80.2763 55.8642 80.1539 55.8117L75.7466 50.8632C74.8197 50.2686 73.508 50.3036 72.0564 51.1255C69.2057 52.7167 66.8621 56.6511 66.8096 59.921C66.7922 61.4772 67.2993 62.5963 68.1563 63.1734C68.3312 63.2958 68.5061 63.3832 68.6985 63.4532L74.7322 65.2717C74.7322 65.2717 74.9771 65.4116 75.0995 65.4641L81.7979 68.7864L86.6598 60.1658L80.5212 56.0041H80.5037Z" fill="#D0EACF"/>
<path d="M69.0834 53.8358L81.7805 62.2991L85.6281 59.4664L74.9947 50.5484L69.9054 52.6992L69.0834 53.8358Z" fill="white"/>
<path d="M82.1301 69.9405L68.2961 64.2401C68.1387 64.1876 67.8939 64.0652 67.649 63.9078C66.5122 63.1384 65.9001 61.7221 65.9176 59.921C65.9701 56.3189 68.471 52.1397 71.6191 50.3736C73.298 49.4293 74.977 49.3419 76.2187 50.1463L87.7965 59.9035L82.1301 69.9405ZM74.2949 51.3353C73.7702 51.3353 73.1406 51.5277 72.476 51.8949C69.9226 53.3287 67.719 57.0008 67.6665 59.9385C67.6665 61.1275 67.9813 62.0193 68.6284 62.4565C68.7508 62.5264 68.8558 62.5964 68.9782 62.6313L81.4305 67.6324L85.488 60.4456L75.2218 51.5801C74.9595 51.4228 74.6447 51.3353 74.2949 51.3353Z" fill="#16110D"/>
<path d="M92.3263 63.8904L86.7472 60.2358C86.7472 60.2358 86.6773 60.1833 86.6423 60.1659C86.0127 59.8161 85.1557 59.8511 84.1938 60.3932C82.235 61.4773 80.626 64.1702 80.6085 66.4084C80.591 67.6324 81.0457 68.4543 81.7978 68.7865L87.5342 72.5285L92.3438 63.8904H92.3263Z" fill="#D0EACF"/>
<path d="M82.0953 62.5265L88.0941 66.5308L91.452 63.2784L85.4882 59.956L82.0953 62.5265Z" fill="white"/>
<path d="M87.2545 73.3852L81.3082 69.5033C80.3288 69.0836 79.6992 67.9295 79.7342 66.3732C79.7692 63.8203 81.5531 60.8476 83.7742 59.6061C84.9809 58.9242 86.1527 58.8542 87.0796 59.3788L87.237 59.4837L93.4807 63.5755L87.237 73.3677L87.2545 73.3852ZM85.7155 60.8127C85.3832 60.8127 85.0159 60.9351 84.6311 61.1449C82.9522 62.0717 81.5181 64.4848 81.4831 66.4082C81.4831 67.2126 81.7105 67.7896 82.1477 67.9645L87.2195 71.2694L91.1721 64.1525L86.2751 60.9526C86.1002 60.8476 85.9079 60.8127 85.698 60.8127H85.7155Z" fill="#16110D"/>
<path d="M93.0262 63.2433C92.0992 62.6837 90.8925 62.7537 89.6682 63.4356C87.4296 64.6772 85.6632 67.6498 85.6282 70.2028C85.6108 71.6017 86.1179 72.6858 87.0449 73.2454C87.4646 73.4902 87.9368 73.6126 88.4265 73.6126C89.0386 73.6126 89.7207 73.4202 90.3853 73.0355C92.6064 71.794 94.3903 68.8214 94.4253 66.2684C94.4428 64.8695 93.9356 63.7854 93.0087 63.2258L93.0262 63.2433Z" fill="#16110D"/>
<path d="M52.2064 24.8089C47.9915 24.8089 43.7592 23.8297 40.4887 21.8887C37.1483 19.8953 35.3469 17.185 35.3818 14.2473C35.4168 11.3096 37.3231 8.65176 40.716 6.76326C47.1346 3.17861 57.1209 3.3185 63.4345 7.0955C66.7749 9.08891 68.5938 11.7993 68.5413 14.7369C68.5063 17.6746 66.6 20.3325 63.2071 22.221C60.094 23.9521 56.159 24.8089 52.2064 24.8089ZM51.6992 7.69003C48.3063 7.69003 44.9484 8.38947 42.4125 9.80584C40.1564 11.0648 38.8972 12.6561 38.8797 14.2998C38.8622 15.9435 40.0689 17.5697 42.2901 18.8811C47.4669 21.9587 56.2639 22.0986 61.5107 19.1609C63.7668 17.9019 65.026 16.3107 65.0435 14.667C65.061 13.0233 63.8542 11.3971 61.6331 10.0856C58.9572 8.49438 55.3195 7.69003 51.6992 7.69003Z" fill="#16110D"/>
<path d="M52.2062 21.2416C47.9913 21.2416 43.7589 20.2624 40.4884 18.3215C37.148 16.328 35.3466 13.6177 35.3816 10.68C35.4166 7.74236 37.3229 5.08447 40.7158 3.19597C47.1343 -0.388678 57.1206 -0.248792 63.4342 3.52821C66.7747 5.52162 68.5935 8.23197 68.5411 11.1696C68.5061 14.1073 66.5998 16.7652 63.2069 18.6537C60.0938 20.3848 56.1587 21.2416 52.2062 21.2416ZM51.699 4.12273C48.3061 4.12273 44.9482 4.82218 42.4122 6.23856C40.1561 7.49756 38.8969 9.08879 38.8794 10.7325C38.8619 12.3762 40.0687 14.0024 42.2898 15.3138C47.4666 18.3914 56.2637 18.5313 61.5104 15.5936C63.7665 14.3346 65.0257 12.7434 65.0432 11.0997C65.0607 9.456 63.854 7.82979 61.6328 6.51834C58.957 4.9271 55.3193 4.12273 51.699 4.12273Z" fill="white"/>
</svg>
