<svg width="56" height="56" viewBox="0 0 56 56" fill="none" xmlns="http://www.w3.org/2000/svg">
<rect x="4" y="4" width="48" height="48" rx="24" fill="#F2F4F7"/>
<g clip-path="url(#clip0_61_180)">
<path d="M36.731 28C37.2838 27.5068 37.6346 26.8264 37.7157 26.0899C37.7968 25.3535 37.6025 24.6131 37.1702 24.0113C36.738 23.4096 36.0984 22.9891 35.3746 22.8308C34.6508 22.6725 33.894 22.7877 33.25 23.1541V21.25C33.2494 20.641 33.0633 20.0465 32.7166 19.5458C32.3699 19.045 31.879 18.6616 31.3091 18.4466C30.7393 18.2316 30.1175 18.1951 29.5264 18.342C28.9353 18.4889 28.4029 18.8123 28 19.2691C27.5068 18.7163 26.8264 18.3655 26.0899 18.2844C25.3535 18.2033 24.6131 18.3976 24.0113 18.8299C23.4096 19.2621 22.9891 19.9017 22.8308 20.6255C22.6725 21.3493 22.7877 22.1061 23.1541 22.75H21.25C20.641 22.7507 20.0465 22.9368 19.5458 23.2835C19.045 23.6302 18.6616 24.1211 18.4466 24.691C18.2316 25.2608 18.1951 25.8826 18.342 26.4737C18.4889 27.0648 18.8123 27.5972 19.2691 28C18.7163 28.4933 18.3655 29.1737 18.2844 29.9101C18.2033 30.6466 18.3976 31.387 18.8299 31.9888C19.2621 32.5905 19.9017 33.011 20.6255 33.1693C21.3493 33.3276 22.1061 33.2124 22.75 32.846V34.75C22.7507 35.3591 22.9368 35.9536 23.2835 36.4543C23.6302 36.9551 24.1211 37.3385 24.691 37.5535C25.2608 37.7685 25.8826 37.805 26.4737 37.6581C27.0648 37.5112 27.5972 37.1878 28 36.731C28.4933 37.2838 29.1737 37.6346 29.9101 37.7157C30.6466 37.7968 31.387 37.6025 31.9888 37.1702C32.5905 36.738 33.011 36.0984 33.1693 35.3746C33.3276 34.6508 33.2124 33.894 32.846 33.25H34.75C35.3591 33.2494 35.9536 33.0633 36.4543 32.7166C36.9551 32.3699 37.3385 31.879 37.5535 31.3091C37.7685 30.7393 37.805 30.1175 37.6581 29.5264C37.5112 28.9353 37.1878 28.4029 36.731 28ZM22.75 30.25C22.75 30.5467 22.6621 30.8367 22.4972 31.0834C22.3324 31.3301 22.0982 31.5223 21.8241 31.6359C21.55 31.7494 21.2484 31.7791 20.9574 31.7212C20.6664 31.6633 20.3992 31.5205 20.1894 31.3107C19.9796 31.1009 19.8367 30.8337 19.7789 30.5427C19.721 30.2517 19.7507 29.9501 19.8642 29.676C19.9778 29.4019 20.17 29.1677 20.4167 29.0028C20.6634 28.838 20.9534 28.75 21.25 28.75H22.75V30.25ZM27.25 34.75C27.25 35.1479 27.092 35.5294 26.8107 35.8107C26.5294 36.092 26.1479 36.25 25.75 36.25C25.3522 36.25 24.9707 36.092 24.6894 35.8107C24.4081 35.5294 24.25 35.1479 24.25 34.75V30.25C24.25 29.8522 24.4081 29.4707 24.6894 29.1894C24.9707 28.9081 25.3522 28.75 25.75 28.75H27.25V34.75ZM27.25 27.25H21.25C20.8522 27.25 20.4707 27.092 20.1894 26.8107C19.9081 26.5294 19.75 26.1479 19.75 25.75C19.75 25.3522 19.9081 24.9707 20.1894 24.6894C20.4707 24.4081 20.8522 24.25 21.25 24.25H25.75C26.1479 24.25 26.5294 24.4081 26.8107 24.6894C27.092 24.9707 27.25 25.3522 27.25 25.75V27.25ZM27.25 22.75H25.75C25.4534 22.75 25.1634 22.6621 24.9167 22.4972C24.67 22.3324 24.4778 22.0982 24.3642 21.8241C24.2507 21.55 24.221 21.2484 24.2789 20.9574C24.3367 20.6664 24.4796 20.3992 24.6894 20.1894C24.8992 19.9796 25.1664 19.8367 25.4574 19.7789C25.7484 19.721 26.05 19.7507 26.3241 19.8642C26.5982 19.9778 26.8324 20.17 26.9972 20.4167C27.1621 20.6634 27.25 20.9534 27.25 21.25V22.75ZM28.75 21.25C28.75 20.8522 28.9081 20.4707 29.1894 20.1894C29.4707 19.9081 29.8522 19.75 30.25 19.75C30.6479 19.75 31.0294 19.9081 31.3107 20.1894C31.592 20.4707 31.75 20.8522 31.75 21.25V25.75C31.75 26.1479 31.592 26.5294 31.3107 26.8107C31.0294 27.092 30.6479 27.25 30.25 27.25H28.75V21.25ZM30.25 36.25C29.8522 36.25 29.4707 36.092 29.1894 35.8107C28.9081 35.5294 28.75 35.1479 28.75 34.75V33.25H30.25C30.6479 33.25 31.0294 33.4081 31.3107 33.6894C31.592 33.9707 31.75 34.3522 31.75 34.75C31.75 35.1479 31.592 35.5294 31.3107 35.8107C31.0294 36.092 30.6479 36.25 30.25 36.25ZM34.75 31.75H30.25C29.8522 31.75 29.4707 31.592 29.1894 31.3107C28.9081 31.0294 28.75 30.6479 28.75 30.25V28.75H34.75C35.1479 28.75 35.5294 28.9081 35.8107 29.1894C36.092 29.4707 36.25 29.8522 36.25 30.25C36.25 30.6479 36.092 31.0294 35.8107 31.3107C35.5294 31.592 35.1479 31.75 34.75 31.75ZM34.75 27.25H33.25V25.75C33.25 25.4534 33.338 25.1634 33.5028 24.9167C33.6677 24.67 33.9019 24.4778 34.176 24.3642C34.4501 24.2507 34.7517 24.221 35.0427 24.2789C35.3337 24.3367 35.6009 24.4796 35.8107 24.6894C36.0205 24.8992 36.1633 25.1664 36.2212 25.4574C36.2791 25.7484 36.2494 26.05 36.1359 26.3241C36.0223 26.5982 35.8301 26.8324 35.5834 26.9972C35.3367 27.1621 35.0467 27.25 34.75 27.25Z" fill="#343330"/>
</g>
<rect x="4" y="4" width="48" height="48" rx="24" stroke="#F9FAFB" stroke-width="8"/>
<defs>
<clipPath id="clip0_61_180">
<rect width="24" height="24" fill="white" transform="translate(16 16)"/>
</clipPath>
</defs>
</svg>
