<svg width="48" height="48" viewBox="0 0 48 48" fill="none" xmlns="http://www.w3.org/2000/svg">
<rect width="48" height="48" rx="24" fill="#92E490"/>
<g clip-path="url(#clip0_5415_45515)">
<path d="M32.731 24C33.2838 23.5068 33.6346 22.8264 33.7157 22.0899C33.7968 21.3535 33.6025 20.6131 33.1702 20.0113C32.738 19.4096 32.0984 18.9891 31.3746 18.8308C30.6508 18.6725 29.894 18.7877 29.25 19.1541V17.25C29.2494 16.641 29.0633 16.0465 28.7166 15.5458C28.3699 15.045 27.879 14.6616 27.3091 14.4466C26.7393 14.2316 26.1175 14.1951 25.5264 14.342C24.9353 14.4889 24.4029 14.8123 24 15.2691C23.5068 14.7163 22.8264 14.3655 22.0899 14.2844C21.3535 14.2033 20.6131 14.3976 20.0113 14.8299C19.4096 15.2621 18.9891 15.9017 18.8308 16.6255C18.6725 17.3493 18.7877 18.1061 19.1541 18.75H17.25C16.641 18.7507 16.0465 18.9368 15.5458 19.2835C15.045 19.6302 14.6616 20.1211 14.4466 20.691C14.2316 21.2608 14.1951 21.8826 14.342 22.4737C14.4889 23.0648 14.8123 23.5972 15.2691 24C14.7163 24.4933 14.3655 25.1737 14.2844 25.9101C14.2033 26.6466 14.3976 27.387 14.8299 27.9888C15.2621 28.5905 15.9017 29.011 16.6255 29.1693C17.3493 29.3276 18.1061 29.2124 18.75 28.846V30.75C18.7507 31.3591 18.9368 31.9536 19.2835 32.4543C19.6302 32.9551 20.1211 33.3385 20.691 33.5535C21.2608 33.7685 21.8826 33.805 22.4737 33.6581C23.0648 33.5112 23.5972 33.1878 24 32.731C24.4933 33.2838 25.1737 33.6346 25.9101 33.7157C26.6466 33.7968 27.387 33.6025 27.9888 33.1702C28.5905 32.738 29.011 32.0984 29.1693 31.3746C29.3276 30.6508 29.2124 29.894 28.846 29.25H30.75C31.3591 29.2494 31.9536 29.0633 32.4543 28.7166C32.9551 28.3699 33.3385 27.879 33.5535 27.3091C33.7685 26.7393 33.805 26.1175 33.6581 25.5264C33.5112 24.9353 33.1878 24.4029 32.731 24ZM18.75 26.25C18.75 26.5467 18.6621 26.8367 18.4972 27.0834C18.3324 27.3301 18.0982 27.5223 17.8241 27.6359C17.55 27.7494 17.2484 27.7791 16.9574 27.7212C16.6664 27.6633 16.3992 27.5205 16.1894 27.3107C15.9796 27.1009 15.8367 26.8337 15.7789 26.5427C15.721 26.2517 15.7507 25.9501 15.8642 25.676C15.9778 25.4019 16.17 25.1677 16.4167 25.0028C16.6634 24.838 16.9534 24.75 17.25 24.75H18.75V26.25ZM23.25 30.75C23.25 31.1479 23.092 31.5294 22.8107 31.8107C22.5294 32.092 22.1479 32.25 21.75 32.25C21.3522 32.25 20.9707 32.092 20.6894 31.8107C20.4081 31.5294 20.25 31.1479 20.25 30.75V26.25C20.25 25.8522 20.4081 25.4707 20.6894 25.1894C20.9707 24.9081 21.3522 24.75 21.75 24.75H23.25V30.75ZM23.25 23.25H17.25C16.8522 23.25 16.4707 23.092 16.1894 22.8107C15.9081 22.5294 15.75 22.1479 15.75 21.75C15.75 21.3522 15.9081 20.9707 16.1894 20.6894C16.4707 20.4081 16.8522 20.25 17.25 20.25H21.75C22.1479 20.25 22.5294 20.4081 22.8107 20.6894C23.092 20.9707 23.25 21.3522 23.25 21.75V23.25ZM23.25 18.75H21.75C21.4534 18.75 21.1634 18.6621 20.9167 18.4972C20.67 18.3324 20.4778 18.0982 20.3642 17.8241C20.2507 17.55 20.221 17.2484 20.2789 16.9574C20.3367 16.6664 20.4796 16.3992 20.6894 16.1894C20.8992 15.9796 21.1664 15.8367 21.4574 15.7789C21.7484 15.721 22.05 15.7507 22.3241 15.8642C22.5982 15.9778 22.8324 16.17 22.9972 16.4167C23.1621 16.6634 23.25 16.9534 23.25 17.25V18.75ZM24.75 17.25C24.75 16.8522 24.9081 16.4707 25.1894 16.1894C25.4707 15.9081 25.8522 15.75 26.25 15.75C26.6479 15.75 27.0294 15.9081 27.3107 16.1894C27.592 16.4707 27.75 16.8522 27.75 17.25V21.75C27.75 22.1479 27.592 22.5294 27.3107 22.8107C27.0294 23.092 26.6479 23.25 26.25 23.25H24.75V17.25ZM26.25 32.25C25.8522 32.25 25.4707 32.092 25.1894 31.8107C24.9081 31.5294 24.75 31.1479 24.75 30.75V29.25H26.25C26.6479 29.25 27.0294 29.4081 27.3107 29.6894C27.592 29.9707 27.75 30.3522 27.75 30.75C27.75 31.1479 27.592 31.5294 27.3107 31.8107C27.0294 32.092 26.6479 32.25 26.25 32.25ZM30.75 27.75H26.25C25.8522 27.75 25.4707 27.592 25.1894 27.3107C24.9081 27.0294 24.75 26.6479 24.75 26.25V24.75H30.75C31.1479 24.75 31.5294 24.9081 31.8107 25.1894C32.092 25.4707 32.25 25.8522 32.25 26.25C32.25 26.6479 32.092 27.0294 31.8107 27.3107C31.5294 27.592 31.1479 27.75 30.75 27.75ZM30.75 23.25H29.25V21.75C29.25 21.4534 29.338 21.1634 29.5028 20.9167C29.6677 20.67 29.9019 20.4778 30.176 20.3642C30.4501 20.2507 30.7517 20.221 31.0427 20.2789C31.3337 20.3367 31.6009 20.4796 31.8107 20.6894C32.0205 20.8992 32.1633 21.1664 32.2212 21.4574C32.2791 21.7484 32.2494 22.05 32.1359 22.3241C32.0223 22.5982 31.8301 22.8324 31.5834 22.9972C31.3367 23.1621 31.0467 23.25 30.75 23.25Z" fill="#343330"/>
</g>
<defs>
<clipPath id="clip0_5415_45515">
<rect width="24" height="24" fill="white" transform="translate(12 12)"/>
</clipPath>
</defs>
</svg>
