<svg width="264" height="266" viewBox="0 0 264 266" fill="none" xmlns="http://www.w3.org/2000/svg">
                            <path
                                d="M215.376 7.16724L215.708 7.35895L215.714 7.35278C228.561 14.8729 240.209 27.6574 248.67 42.3126C257.203 57.0938 262.466 73.7311 262.466 88.714C262.466 103.346 257.454 113.601 249.444 118.571L249.029 118.828L248.924 118.881L248.912 118.887L248.901 118.894C248.234 119.276 247.557 119.628 246.862 119.937L246.85 119.943L246.838 119.949L234.432 126.29L236.526 122.754L236.962 122.019L236.107 121.999C230.015 121.86 223.153 119.81 215.876 115.61C202.899 108.117 191.122 95.2403 182.589 80.4601C174.056 65.6798 168.793 49.0425 168.793 34.0561C168.793 24.8152 170.798 17.3209 174.289 11.7975L174.589 11.3226L174.082 11.0796L171.123 9.65936L181.693 4.27662L181.713 4.26655L181.732 4.25476C182.755 3.61396 183.832 3.05798 184.953 2.59259L185.4 2.4177C193.434 -0.729722 203.88 0.532223 215.376 7.16724Z"
                                fill="#C5E5FD" stroke="black" />
                            <path
                                d="M233.056 127.808C233.08 127.814 233.104 127.818 233.129 127.818C233.171 127.818 233.221 127.804 233.263 127.79M233.056 127.808L249.291 119.596C248.648 119.97 247.934 120.338 247.193 120.67L233.263 127.79M233.056 127.808L233.129 127.77L233.228 127.72M233.056 127.808L233.228 127.72M233.263 127.79L233.228 127.72M233.263 127.79L233.238 127.714L234.113 127.267L247.155 120.598C247.155 120.597 247.156 120.597 247.156 120.597L247.159 120.595L247.166 120.592L247.101 120.466L233.228 127.72M235.319 123.263L232.882 127.38C232.844 127.443 232.834 127.519 232.849 127.59L232.95 127.421L232.95 127.42L233.455 126.567L235.407 123.267C235.378 123.265 235.349 123.264 235.319 123.263ZM235.602 122.937L235.608 122.775L235.602 122.937Z"
                                fill="#0D0D0D" stroke="black" />
                            <path
                                d="M155.902 40.6889C155.902 25.6992 161.159 15.3003 169.515 10.4757C177.871 5.65115 189.505 6.2981 202.485 13.7929C215.462 21.2862 227.238 34.1625 235.772 48.9428C244.305 63.7231 249.568 80.3604 249.568 95.3468C249.568 110.337 244.311 120.735 235.955 125.56C227.598 130.385 215.965 129.738 202.985 122.243C190.008 114.75 178.231 101.873 169.698 87.0929C161.165 72.3126 155.902 55.6753 155.902 40.6889Z"
                                fill="white" stroke="black" />
                            <path
                                d="M202.485 22.8837L202.485 22.8838C213.29 29.1197 223.099 39.8434 230.208 52.1567C237.317 64.47 241.699 78.326 241.699 90.7978C241.699 103.273 237.321 111.906 230.388 115.908C223.455 119.909 213.789 119.382 202.985 113.145L202.985 113.145C192.179 106.909 182.37 96.1852 175.261 83.8719C168.152 71.5585 163.77 57.7025 163.77 45.2307C163.77 32.7558 168.148 24.1227 175.081 20.121C182.014 16.1193 191.68 16.6462 202.485 22.8837Z"
                                fill="#A1BAA1" stroke="black" />
                            <path
                                d="M171.583 49.7443C171.583 39.7556 175.085 32.8709 180.603 29.6851C186.122 26.4992 193.835 26.9095 202.485 31.9039C211.132 36.8966 218.988 45.4836 224.684 55.3485C230.379 65.2135 233.887 76.3094 233.887 86.2913C233.887 96.2764 230.385 103.161 224.867 106.348C219.348 109.535 211.635 109.126 202.985 104.132C194.338 99.139 186.482 90.5537 180.786 80.6897C175.091 70.8257 171.583 59.7298 171.583 49.7443Z"
                                fill="white" stroke="black" />
                            <mask id="path-6-inside-1_0_21220" fill="white">
                                <path
                                    d="M202.876 31.2166C194.329 26.2792 186.277 25.4951 180.209 28.9986C174.142 32.5022 170.793 39.8695 170.793 49.7373C170.793 69.9815 185.055 94.6828 202.587 104.805C207.623 107.708 212.483 109.177 216.869 109.177C219.928 109.177 222.76 108.464 225.261 107.023C231.328 103.519 234.676 96.152 234.676 86.2842C234.676 66.04 220.415 41.3387 202.883 31.2166H202.876ZM224.971 106.528C219.087 109.926 211.239 109.135 202.876 104.31C185.507 94.2802 171.373 69.7978 171.373 49.7373C171.373 40.0814 174.615 32.8977 180.499 29.5001C182.907 28.1086 185.641 27.4235 188.601 27.4235C192.881 27.4235 197.649 28.8644 202.594 31.7181C219.963 41.7484 234.097 66.2307 234.097 86.2842C234.097 95.9401 230.855 103.124 224.971 106.528Z" />
                            </mask>
                            <path
                                d="M202.876 31.2166C194.329 26.2792 186.277 25.4951 180.209 28.9986C174.142 32.5022 170.793 39.8695 170.793 49.7373C170.793 69.9815 185.055 94.6828 202.587 104.805C207.623 107.708 212.483 109.177 216.869 109.177C219.928 109.177 222.76 108.464 225.261 107.023C231.328 103.519 234.676 96.152 234.676 86.2842C234.676 66.04 220.415 41.3387 202.883 31.2166H202.876ZM224.971 106.528C219.087 109.926 211.239 109.135 202.876 104.31C185.507 94.2802 171.373 69.7978 171.373 49.7373C171.373 40.0814 174.615 32.8977 180.499 29.5001C182.907 28.1086 185.641 27.4235 188.601 27.4235C192.881 27.4235 197.649 28.8644 202.594 31.7181C219.963 41.7484 234.097 66.2307 234.097 86.2842C234.097 95.9401 230.855 103.124 224.971 106.528Z"
                                fill="#0D0D0D" />
                            <path
                                d="M202.876 31.2166L202.376 32.0825L202.608 32.2166H202.876V31.2166ZM202.587 104.805L202.087 105.671L202.087 105.671L202.587 104.805ZM225.261 107.023L225.76 107.889L225.761 107.889L225.261 107.023ZM202.883 31.2166L203.383 30.3506L203.151 30.2166H202.883V31.2166ZM224.971 106.528L225.471 107.394L225.472 107.394L224.971 106.528ZM202.876 104.31L202.376 105.176L202.376 105.177L202.876 104.31ZM180.499 29.5001L180.999 30.3661L180.999 30.366L180.499 29.5001ZM202.594 31.7181L203.094 30.8521L203.093 30.852L202.594 31.7181ZM203.376 30.3507C194.66 25.3156 186.205 24.3819 179.709 28.1326L180.709 29.8646C186.349 26.6083 193.998 27.2427 202.376 32.0825L203.376 30.3507ZM179.709 28.1326C173.214 31.8833 169.793 39.6744 169.793 49.7373H171.793C171.793 40.0646 175.07 33.1211 180.709 29.8646L179.709 28.1326ZM169.793 49.7373C169.793 60.0767 173.428 71.4845 179.25 81.5669C185.071 91.6492 193.132 100.501 202.087 105.671L203.087 103.939C194.509 98.9865 186.674 90.4268 180.982 80.5669C175.289 70.707 171.793 59.6421 171.793 49.7373H169.793ZM202.087 105.671C207.231 108.636 212.262 110.177 216.869 110.177V108.177C212.703 108.177 208.015 106.78 203.086 103.939L202.087 105.671ZM216.869 110.177C220.087 110.177 223.094 109.425 225.76 107.889L224.761 106.156C222.426 107.502 219.768 108.177 216.869 108.177V110.177ZM225.761 107.889C232.256 104.138 235.676 96.3471 235.676 86.2842H233.676C233.676 95.9569 230.4 102.9 224.761 106.157L225.761 107.889ZM235.676 86.2842C235.676 75.9448 232.041 64.537 226.22 54.4546C220.399 44.3723 212.337 35.5203 203.383 30.3506L202.383 32.0826C210.961 37.035 218.796 45.5947 224.488 55.4546C230.181 65.3145 233.676 76.3794 233.676 86.2842H235.676ZM202.883 30.2166H202.876V32.2166H202.883V30.2166ZM224.471 105.662C219.018 108.811 211.575 108.174 203.376 103.444L202.376 105.177C210.904 110.096 219.156 111.041 225.471 107.394L224.471 105.662ZM203.376 103.444C194.88 98.538 187.117 90.056 181.477 80.2852C175.836 70.5145 172.373 59.5502 172.373 49.7373H170.373C170.373 59.9849 173.976 71.292 179.745 81.2852C185.514 91.2783 193.503 100.053 202.376 105.176L203.376 103.444ZM172.373 49.7373C172.373 40.2719 175.546 33.515 180.999 30.3661L179.999 28.6342C173.684 32.2805 170.373 39.8909 170.373 49.7373H172.373ZM180.999 30.366C183.241 29.0707 185.799 28.4235 188.601 28.4235V26.4235C185.483 26.4235 182.574 27.1465 179.999 28.6343L180.999 30.366ZM188.601 28.4235C192.661 28.4235 197.257 29.7925 202.094 32.5842L203.093 30.852C198.042 27.9363 193.102 26.4235 188.601 26.4235V28.4235ZM202.094 32.5841C210.59 37.4906 218.352 45.9726 223.993 55.7424C229.633 65.5123 233.097 76.4748 233.097 86.2842H235.097C235.097 76.0401 231.494 64.7347 225.725 54.7425C219.956 44.7502 211.967 35.9759 203.094 30.8521L202.094 32.5841ZM233.097 86.2842C233.097 95.7492 229.924 102.507 224.47 105.663L225.472 107.394C231.786 103.741 235.097 96.131 235.097 86.2842H233.097Z"
                                fill="black" mask="url(#path-6-inside-1_0_21220)" />
                            <path
                                d="M180.328 54.7878C180.328 47.5856 182.851 42.6592 186.787 40.3864C190.723 38.1136 196.251 38.3914 202.485 41.9907C208.716 45.5884 214.386 51.7826 218.5 58.9077C222.613 66.0328 225.142 74.042 225.142 81.2409C225.142 88.443 222.619 93.3694 218.683 95.6423C214.746 97.9151 209.219 97.6372 202.985 94.0379C196.753 90.4367 191.083 84.2424 186.97 77.1183C182.857 69.994 180.328 61.9866 180.328 54.7878Z"
                                fill="#A1BAA1" stroke="black" />
                            <path
                                d="M186.621 58.4255C186.621 53.233 188.44 49.7175 191.237 48.1024C194.035 46.4874 197.988 46.6699 202.485 49.2662C206.979 51.8608 211.075 56.3316 214.05 61.4816C217.024 66.6315 218.849 72.4138 218.849 77.6031C218.849 82.7956 217.03 86.3111 214.233 87.9261C211.435 89.5412 207.482 89.3587 202.985 86.7624C198.491 84.1678 194.395 79.697 191.42 74.547C188.446 69.3971 186.621 63.6147 186.621 58.4255Z"
                                fill="white" stroke="black" />
                            <mask id="path-10-inside-2_0_21220" fill="white">
                                <path
                                    d="M202.876 48.586C198.348 45.9725 194.075 45.5557 190.84 47.4205C187.612 49.2853 185.832 53.1915 185.832 58.4256C185.832 69.0916 193.347 82.1097 202.587 87.4427C205.25 88.9826 207.821 89.7596 210.152 89.7596C211.783 89.7596 213.295 89.3781 214.623 88.6082C217.851 86.7434 219.631 82.8373 219.631 77.6032C219.631 66.9372 212.115 53.919 202.876 48.586ZM214.333 88.1067C211.289 89.8655 207.22 89.4558 202.876 86.9412C193.799 81.7 186.411 68.9079 186.411 58.4185C186.411 53.4034 188.085 49.6738 191.129 47.915C192.373 47.2016 193.778 46.8413 195.311 46.8413C197.536 46.8413 200.008 47.5901 202.587 49.0805C211.663 54.3216 219.052 67.1208 219.052 77.6032C219.052 82.6183 217.378 86.3479 214.333 88.1067Z" />
                            </mask>
                            <path
                                d="M202.876 48.586C198.348 45.9725 194.075 45.5557 190.84 47.4205C187.612 49.2853 185.832 53.1915 185.832 58.4256C185.832 69.0916 193.347 82.1097 202.587 87.4427C205.25 88.9826 207.821 89.7596 210.152 89.7596C211.783 89.7596 213.295 89.3781 214.623 88.6082C217.851 86.7434 219.631 82.8373 219.631 77.6032C219.631 66.9372 212.115 53.919 202.876 48.586ZM214.333 88.1067C211.289 89.8655 207.22 89.4558 202.876 86.9412C193.799 81.7 186.411 68.9079 186.411 58.4185C186.411 53.4034 188.085 49.6738 191.129 47.915C192.373 47.2016 193.778 46.8413 195.311 46.8413C197.536 46.8413 200.008 47.5901 202.587 49.0805C211.663 54.3216 219.052 67.1208 219.052 77.6032C219.052 82.6183 217.378 86.3479 214.333 88.1067Z"
                                fill="#0D0D0D" />
                            <path
                                d="M202.876 48.586L202.376 49.4521L202.376 49.4521L202.876 48.586ZM190.84 47.4205L190.34 46.5542L190.34 46.5546L190.84 47.4205ZM202.587 87.4427L203.087 86.577L203.086 86.5767L202.587 87.4427ZM214.623 88.6082L214.123 87.7423L214.121 87.7431L214.623 88.6082ZM202.876 86.9412L203.377 86.0758L203.376 86.0752L202.876 86.9412ZM191.129 47.915L190.632 47.0476L190.629 47.0491L191.129 47.915ZM202.587 49.0805L202.086 49.9462L202.086 49.9465L202.587 49.0805ZM203.376 47.7199C198.678 45.0082 194.002 44.4433 190.34 46.5542L191.339 48.2869C194.147 46.6682 198.019 46.9368 202.376 49.4521L203.376 47.7199ZM190.34 46.5546C186.685 48.6659 184.832 52.9946 184.832 58.4256H186.832C186.832 53.3883 188.539 49.9047 191.34 48.2864L190.34 46.5546ZM184.832 58.4256C184.832 63.9759 186.78 70.0684 189.878 75.434C192.976 80.7997 197.279 85.5336 202.087 88.3088L203.086 86.5767C198.655 84.0188 194.58 79.5772 191.61 74.434C188.641 69.2908 186.832 63.5412 186.832 58.4256H184.832ZM202.086 88.3084C204.858 89.9112 207.601 90.7596 210.152 90.7596V88.7596C208.041 88.7596 205.641 88.054 203.087 86.577L202.086 88.3084ZM210.152 90.7596C211.943 90.7596 213.63 90.3397 215.124 89.4733L214.121 87.7431C212.96 88.4166 211.624 88.7596 210.152 88.7596V90.7596ZM215.123 89.4741C218.778 87.3628 220.631 83.0341 220.631 77.6032H218.631C218.631 82.6404 216.924 86.124 214.123 87.7423L215.123 89.4741ZM220.631 77.6032C220.631 72.0528 218.682 65.9603 215.584 60.5947C212.486 55.2291 208.184 50.4951 203.376 47.7199L202.376 49.4521C206.808 52.0099 210.883 56.4515 213.852 61.5947C216.822 66.7379 218.631 72.4875 218.631 77.6032H220.631ZM213.833 87.2408C211.221 88.75 207.557 88.4955 203.377 86.0758L202.375 87.8067C206.883 90.4162 211.357 90.9811 214.834 88.9726L213.833 87.2408ZM203.376 86.0752C199.026 83.5633 195.023 79.2011 192.106 74.1479C189.188 69.0948 187.411 63.4459 187.411 58.4185H185.411C185.411 63.8805 187.328 69.8724 190.374 75.148C193.42 80.4235 197.65 85.078 202.376 87.8072L203.376 86.0752ZM187.411 58.4185C187.411 53.5911 189.018 50.29 191.63 48.7809L190.629 47.0491C187.153 49.0577 185.411 53.2156 185.411 58.4185H187.411ZM191.627 48.7823C192.708 48.1621 193.94 47.8413 195.311 47.8413V45.8413C193.617 45.8413 192.037 46.241 190.632 47.0476L191.627 48.7823ZM195.311 47.8413C197.315 47.8413 199.615 48.5177 202.086 49.9462L203.087 48.2147C200.402 46.6624 197.757 45.8413 195.311 45.8413V47.8413ZM202.086 49.9465C206.437 52.4583 210.439 56.8222 213.357 61.8763C216.274 66.9304 218.052 72.5794 218.052 77.6032H220.052C220.052 72.1446 218.135 66.1528 215.089 60.8764C212.043 55.6001 207.813 50.9438 203.087 48.2145L202.086 49.9465ZM218.052 77.6032C218.052 82.4305 216.445 85.7317 213.833 87.2408L214.834 88.9726C218.31 86.964 220.052 82.8061 220.052 77.6032H218.052Z"
                                fill="black" mask="url(#path-10-inside-2_0_21220)" />
                            <path
                                d="M202.485 57.4456L202.812 57.6345C205.221 59.1261 207.42 61.5684 209.039 64.3729C210.731 67.3041 211.763 70.5842 211.763 73.5131C211.763 76.4451 210.737 78.3732 209.222 79.2484C207.707 80.1235 205.524 80.0486 202.984 78.5825C200.447 77.1181 198.122 74.5846 196.43 71.6543C194.738 68.724 193.706 65.444 193.706 62.5151C193.706 59.583 194.732 57.655 196.247 56.7798C197.762 55.9046 199.945 55.9796 202.485 57.4456Z"
                                fill="#A1BAA1" stroke="black" />
                            <mask id="path-13-inside-3_0_21220" fill="white">
                                <path
                                    d="M202.876 22.1964C192.245 16.0582 182.229 15.0763 174.685 19.4346C167.141 23.7928 162.981 32.9542 162.981 45.2307C162.981 70.4477 180.746 101.224 202.586 113.832C208.852 117.449 214.898 119.278 220.351 119.278C224.158 119.278 227.676 118.388 230.777 116.601C238.321 112.243 242.481 103.081 242.481 90.8049C242.481 65.5879 224.716 34.812 202.876 22.2035V22.1964ZM230.494 116.092C223.134 120.345 213.33 119.363 202.876 113.331C181.198 100.814 163.56 70.264 163.56 45.2307C163.56 33.1661 167.614 24.1813 174.975 19.9361C177.984 18.1984 181.402 17.3367 185.111 17.3367C190.465 17.3367 196.413 19.1379 202.593 22.705C224.271 35.2216 241.909 65.7716 241.909 90.8049C241.909 102.869 237.855 111.854 230.494 116.1V116.092Z" />
                            </mask>
                            <path
                                d="M202.876 22.1964C192.245 16.0582 182.229 15.0763 174.685 19.4346C167.141 23.7928 162.981 32.9542 162.981 45.2307C162.981 70.4477 180.746 101.224 202.586 113.832C208.852 117.449 214.898 119.278 220.351 119.278C224.158 119.278 227.676 118.388 230.777 116.601C238.321 112.243 242.481 103.081 242.481 90.8049C242.481 65.5879 224.716 34.812 202.876 22.2035V22.1964ZM230.494 116.092C223.134 120.345 213.33 119.363 202.876 113.331C181.198 100.814 163.56 70.264 163.56 45.2307C163.56 33.1661 167.614 24.1813 174.975 19.9361C177.984 18.1984 181.402 17.3367 185.111 17.3367C190.465 17.3367 196.413 19.1379 202.593 22.705C224.271 35.2216 241.909 65.7716 241.909 90.8049C241.909 102.869 237.855 111.854 230.494 116.1V116.092Z"
                                fill="#0D0D0D" />
                            <path
                                d="M202.876 22.1964H203.876V21.6191L203.376 21.3304L202.876 22.1964ZM202.586 113.832L202.086 114.698L202.086 114.698L202.586 113.832ZM230.777 116.601L231.276 117.467L231.277 117.467L230.777 116.601ZM202.876 22.2035H201.876V22.7809L202.376 23.0695L202.876 22.2035ZM230.494 116.092H231.494V114.36L229.994 115.227L230.494 116.092ZM202.876 113.331L202.376 114.197L202.376 114.197L202.876 113.331ZM174.975 19.9361L175.474 20.8023L175.475 20.802L174.975 19.9361ZM202.593 22.705L203.093 21.839L203.093 21.8389L202.593 22.705ZM230.494 116.1H229.494V117.831L230.994 116.966L230.494 116.1ZM203.376 21.3304C192.577 15.095 182.157 13.9628 174.185 18.5687L175.185 20.3004C182.301 16.1898 191.913 17.0213 202.376 23.0624L203.376 21.3304ZM174.185 18.5687C166.213 23.1741 161.981 32.7595 161.981 45.2307H163.981C163.981 33.149 168.069 24.4114 175.185 20.3004L174.185 18.5687ZM161.981 45.2307C161.981 58.0565 166.492 72.2262 173.727 84.7596C180.963 97.293 190.978 108.285 202.086 114.698L203.086 112.966C192.354 106.771 182.566 96.0706 175.459 83.7596C168.352 71.4487 163.981 57.6219 163.981 45.2307H161.981ZM202.086 114.698C208.459 118.377 214.678 120.278 220.351 120.278V118.278C215.118 118.278 209.244 116.52 203.086 112.966L202.086 114.698ZM220.351 120.278C224.318 120.278 228.011 119.349 231.276 117.467L230.278 115.735C227.341 117.427 223.998 118.278 220.351 118.278V120.278ZM231.277 117.467C239.249 112.861 243.481 103.276 243.481 90.8049H241.481C241.481 102.887 237.393 111.624 230.277 115.735L231.277 117.467ZM243.481 90.8049C243.481 77.9791 238.97 63.8094 231.735 51.276C224.499 38.7426 214.484 27.7503 203.376 21.3374L202.376 23.0695C213.108 29.2651 222.896 39.965 230.003 52.276C237.11 64.5869 241.481 78.4137 241.481 90.8049H243.481ZM203.876 22.2035V22.1964H201.876V22.2035H203.876ZM229.994 115.227C223.065 119.23 213.665 118.402 203.376 112.464L202.376 114.197C212.995 120.324 223.203 121.46 230.995 116.958L229.994 115.227ZM203.376 112.465C192.725 106.315 183.01 95.6944 175.955 83.4744C168.9 71.2544 164.56 57.53 164.56 45.2307H162.56C162.56 57.9647 167.039 72.032 174.223 84.4744C181.406 96.9168 191.348 107.83 202.376 114.197L203.376 112.465ZM164.56 45.2307C164.56 33.3567 168.545 24.7988 175.474 20.8023L174.475 19.0698C166.684 23.5637 162.56 32.9756 162.56 45.2307H164.56ZM175.475 20.802C178.318 19.1602 181.561 18.3367 185.111 18.3367V16.3367C181.244 16.3367 177.65 17.2367 174.475 19.0701L175.475 20.802ZM185.111 18.3367C190.244 18.3367 196.02 20.0658 202.093 23.5711L203.093 21.8389C196.805 18.21 190.686 16.3367 185.111 16.3367V18.3367ZM202.093 23.571C212.744 29.7207 222.459 40.3411 229.514 52.5612C236.569 64.7812 240.909 78.5055 240.909 90.8049H242.909C242.909 78.0709 238.43 64.0036 231.246 51.5612C224.063 39.1188 214.12 28.206 203.093 21.839L202.093 23.571ZM240.909 90.8049C240.909 102.679 236.924 111.237 229.995 115.233L230.994 116.966C238.785 112.472 242.909 103.06 242.909 90.8049H240.909ZM231.494 116.1V116.092H229.494V116.1H231.494Z"
                                fill="black" mask="url(#path-13-inside-3_0_21220)" />
                            <mask id="path-15-inside-4_0_21220" fill="white">
                                <path
                                    d="M202.876 41.3103C196.667 37.722 190.811 37.1569 186.39 39.7069C181.968 42.2568 179.538 47.6181 179.538 54.7876C179.538 69.4657 189.879 87.3789 202.594 94.718C206.252 96.83 209.777 97.8966 212.97 97.8966C215.202 97.8966 217.265 97.3739 219.08 96.3285C223.502 93.7785 225.932 88.4243 225.932 81.2478C225.932 66.5697 215.59 48.6564 202.876 41.3174V41.3103ZM218.79 95.827C214.559 98.271 208.901 97.6988 202.876 94.2235C190.324 86.9763 180.11 69.2891 180.11 54.7876C180.11 47.83 182.441 42.6524 186.679 40.2013C188.41 39.2054 190.374 38.7039 192.507 38.7039C195.594 38.7039 199.026 39.7422 202.594 41.8048C215.145 49.052 225.359 66.7392 225.359 81.2336C225.359 88.1912 223.028 93.3688 218.79 95.8199V95.827Z" />
                            </mask>
                            <path
                                d="M202.876 41.3103C196.667 37.722 190.811 37.1569 186.39 39.7069C181.968 42.2568 179.538 47.6181 179.538 54.7876C179.538 69.4657 189.879 87.3789 202.594 94.718C206.252 96.83 209.777 97.8966 212.97 97.8966C215.202 97.8966 217.265 97.3739 219.08 96.3285C223.502 93.7785 225.932 88.4243 225.932 81.2478C225.932 66.5697 215.59 48.6564 202.876 41.3174V41.3103ZM218.79 95.827C214.559 98.271 208.901 97.6988 202.876 94.2235C190.324 86.9763 180.11 69.2891 180.11 54.7876C180.11 47.83 182.441 42.6524 186.679 40.2013C188.41 39.2054 190.374 38.7039 192.507 38.7039C195.594 38.7039 199.026 39.7422 202.594 41.8048C215.145 49.052 225.359 66.7392 225.359 81.2336C225.359 88.1912 223.028 93.3688 218.79 95.8199V95.827Z"
                                fill="#0D0D0D" />
                            <path
                                d="M202.876 41.3103H203.876V40.7333L203.376 40.4445L202.876 41.3103ZM202.594 94.718L202.094 95.5841H202.094L202.594 94.718ZM219.08 96.3285L219.579 97.1951L219.579 97.1948L219.08 96.3285ZM202.876 41.3174H201.876V41.8948L202.376 42.1835L202.876 41.3174ZM218.79 95.827L219.29 96.6929L219.79 96.4042V95.827H218.79ZM202.876 94.2235L202.376 95.0896L202.376 95.0898L202.876 94.2235ZM186.679 40.2013L186.181 39.3346L186.179 39.3357L186.679 40.2013ZM202.594 41.8048L202.093 42.6705L202.094 42.6708L202.594 41.8048ZM218.79 95.8199L218.29 94.9543L217.79 95.243V95.8199H218.79ZM203.376 40.4445C196.997 36.7577 190.739 36.0444 185.89 38.8406L186.889 40.5732C190.884 38.2695 196.337 38.6863 202.376 42.1761L203.376 40.4445ZM185.89 38.8406C181.04 41.6378 178.538 47.4234 178.538 54.7876H180.538C180.538 47.8127 182.896 42.8759 186.889 40.5732L185.89 38.8406ZM178.538 54.7876C178.538 62.344 181.193 70.6633 185.432 78.005C189.671 85.3466 195.548 91.8059 202.094 95.5841L203.093 93.8519C196.924 90.291 191.274 84.1242 187.164 77.0049C183.054 69.8857 180.538 61.9094 180.538 54.7876H178.538ZM202.094 95.5841C205.86 97.7584 209.557 98.8966 212.97 98.8966V96.8966C209.997 96.8966 206.644 95.9016 203.093 93.8519L202.094 95.5841ZM212.97 98.8966C215.362 98.8966 217.599 98.3352 219.579 97.1951L218.581 95.4619C216.93 96.4126 215.042 96.8966 212.97 96.8966V98.8966ZM219.579 97.1948C224.43 94.3977 226.932 88.6192 226.932 81.2478H224.932C224.932 88.2295 222.574 93.1594 218.58 95.4622L219.579 97.1948ZM226.932 81.2478C226.932 73.6914 224.277 65.3721 220.038 58.0304C215.799 50.6887 209.921 44.2295 203.376 40.4513L202.376 42.1835C208.545 45.7443 214.195 51.9112 218.306 59.0304C222.416 66.1497 224.932 74.126 224.932 81.2478H226.932ZM203.876 41.3174V41.3103H201.876V41.3174H203.876ZM218.29 94.961C214.491 97.1556 209.237 96.7383 203.376 93.3573L202.376 95.0898C208.565 98.6593 214.628 99.3863 219.29 96.6929L218.29 94.961ZM203.376 93.3575C197.288 89.8426 191.71 83.7551 187.652 76.7259C183.594 69.6968 181.11 61.8211 181.11 54.7876H179.11C179.11 62.2556 181.733 70.4743 185.92 77.7259C190.107 84.9776 195.912 91.3573 202.376 95.0896L203.376 93.3575ZM181.11 54.7876C181.11 48.0198 183.372 43.269 187.18 41.067L186.179 39.3357C181.51 42.0358 179.11 47.6402 179.11 54.7876H181.11ZM187.178 41.0681C188.745 40.1661 190.535 39.7039 192.507 39.7039V37.7039C190.212 37.7039 188.074 38.2446 186.181 39.3346L187.178 41.0681ZM192.507 39.7039C195.373 39.7039 198.633 40.6701 202.093 42.6705L203.094 40.9391C199.419 38.8143 195.814 37.7039 192.507 37.7039V39.7039ZM202.094 42.6708C208.181 46.1858 213.759 52.2732 217.817 59.3015C221.876 66.3298 224.359 74.2038 224.359 81.2336H226.359C226.359 73.769 223.736 65.5522 219.549 58.3014C215.363 51.0507 209.558 44.671 203.094 40.9388L202.094 42.6708ZM224.359 81.2336C224.359 88.0014 222.097 92.7522 218.29 94.9543L219.291 96.6856C223.96 93.9854 226.359 88.3811 226.359 81.2336H224.359ZM217.79 95.8199V95.827H219.79V95.8199H217.79Z"
                                fill="black" mask="url(#path-15-inside-4_0_21220)" />
                            <mask id="path-17-inside-5_0_21220" fill="white">
                                <path
                                    d="M202.876 56.7656C200.241 55.2399 197.74 55.0068 195.847 56.0946C193.954 57.1895 192.916 59.4639 192.916 62.5154C192.916 68.6748 197.253 76.1905 202.586 79.2702C204.133 80.1672 205.63 80.6123 206.987 80.6123C207.94 80.6123 208.83 80.3862 209.614 79.9342C211.507 78.8393 212.546 76.5648 212.546 73.5134C212.546 67.3539 208.209 59.8383 202.876 56.7586V56.7656ZM209.325 79.4397C207.615 80.4286 205.327 80.1884 202.876 78.7687C197.698 75.7808 193.488 68.4912 193.488 62.5154C193.488 59.6829 194.428 57.578 196.137 56.5961C196.829 56.1935 197.62 55.9957 198.475 55.9957C199.732 55.9957 201.131 56.4195 202.586 57.2601C207.764 60.248 211.974 67.5376 211.974 73.5134C211.974 76.3459 211.034 78.4508 209.325 79.4326V79.4397Z" />
                            </mask>
                            <path
                                d="M202.876 56.7656C200.241 55.2399 197.74 55.0068 195.847 56.0946C193.954 57.1895 192.916 59.4639 192.916 62.5154C192.916 68.6748 197.253 76.1905 202.586 79.2702C204.133 80.1672 205.63 80.6123 206.987 80.6123C207.94 80.6123 208.83 80.3862 209.614 79.9342C211.507 78.8393 212.546 76.5648 212.546 73.5134C212.546 67.3539 208.209 59.8383 202.876 56.7586V56.7656ZM209.325 79.4397C207.615 80.4286 205.327 80.1884 202.876 78.7687C197.698 75.7808 193.488 68.4912 193.488 62.5154C193.488 59.6829 194.428 57.578 196.137 56.5961C196.829 56.1935 197.62 55.9957 198.475 55.9957C199.732 55.9957 201.131 56.4195 202.586 57.2601C207.764 60.248 211.974 67.5376 211.974 73.5134C211.974 76.3459 211.034 78.4508 209.325 79.4326V79.4397Z"
                                fill="#0D0D0D" />
                            <path
                                d="M202.876 56.7656L202.375 57.631L203.876 58.5003V56.7656H202.876ZM195.847 56.0946L195.349 55.2276L195.347 55.229L195.847 56.0946ZM202.586 79.2702L203.088 78.4051L203.086 78.4042L202.586 79.2702ZM209.614 79.9342L210.114 80.8005L210.115 80.7998L209.614 79.9342ZM202.876 56.7586L203.376 55.8926L201.876 55.0263V56.7586H202.876ZM209.325 79.4397L209.825 80.3053L210.325 80.0165V79.4397H209.325ZM202.876 78.7687L203.377 77.9034L203.375 77.9025L202.876 78.7687ZM196.137 56.5961L196.635 57.4633L196.64 57.4605L196.137 56.5961ZM202.586 57.2601L202.086 58.126L202.086 58.1262L202.586 57.2601ZM209.325 79.4326L208.827 78.5655L208.325 78.8538V79.4326H209.325ZM203.377 55.9003C200.567 54.273 197.666 53.8965 195.349 55.2276L196.346 56.9616C197.815 56.1172 199.915 56.2068 202.375 57.631L203.377 55.9003ZM195.347 55.229C193.029 56.5696 191.916 59.2649 191.916 62.5154H193.916C193.916 59.663 194.88 57.8093 196.348 56.9603L195.347 55.229ZM191.916 62.5154C191.916 65.8123 193.07 69.4025 194.885 72.5475C196.7 75.6926 199.231 78.4876 202.086 80.1362L203.086 78.4042C200.608 76.973 198.304 74.4704 196.617 71.5478C194.931 68.6253 193.916 65.3779 193.916 62.5154H191.916ZM202.084 80.1352C203.744 81.0977 205.413 81.6123 206.987 81.6123V79.6123C205.848 79.6123 204.522 79.2368 203.088 78.4051L202.084 80.1352ZM206.987 81.6123C208.102 81.6123 209.166 81.3468 210.114 80.8005L209.115 79.0678C208.494 79.4256 207.779 79.6123 206.987 79.6123V81.6123ZM210.115 80.7998C212.433 79.4592 213.546 76.7639 213.546 73.5134H211.546C211.546 76.3658 210.582 78.2194 209.114 79.0685L210.115 80.7998ZM213.546 73.5134C213.546 70.2165 212.392 66.6263 210.577 63.4812C208.762 60.3362 206.23 57.5412 203.376 55.8926L202.376 57.6246C204.854 59.0557 207.158 61.5584 208.844 64.4809C210.531 67.4035 211.546 70.6508 211.546 73.5134H213.546ZM201.876 56.7586V56.7656H203.876V56.7586H201.876ZM208.824 78.5741C207.55 79.311 205.668 79.2307 203.377 77.9034L202.374 79.634C204.985 81.1462 207.681 81.5462 209.825 80.3053L208.824 78.5741ZM203.375 77.9025C200.975 76.5172 198.742 74.0939 197.106 71.2624C195.471 68.4308 194.488 65.2859 194.488 62.5154H192.488C192.488 65.7206 193.61 69.2085 195.374 72.2626C197.138 75.3168 199.599 78.0323 202.376 79.6348L203.375 77.9025ZM194.488 62.5154C194.488 59.8663 195.363 58.1941 196.635 57.4633L195.639 55.729C193.493 56.9618 192.488 59.4995 192.488 62.5154H194.488ZM196.64 57.4605C197.163 57.156 197.778 56.9957 198.475 56.9957V54.9957C197.463 54.9957 196.495 55.231 195.634 55.7317L196.64 57.4605ZM198.475 56.9957C199.511 56.9957 200.738 57.3472 202.086 58.126L203.086 56.3942C201.524 55.4918 199.954 54.9957 198.475 54.9957V56.9957ZM202.086 58.1262C204.487 59.5116 206.72 61.9348 208.355 64.7664C209.991 67.598 210.974 70.7428 210.974 73.5134H212.974C212.974 70.3081 211.851 66.8203 210.087 63.7661C208.323 60.712 205.863 57.9965 203.086 56.394L202.086 58.1262ZM210.974 73.5134C210.974 76.1625 210.099 77.8346 208.827 78.5655L209.823 80.2998C211.969 79.067 212.974 76.5292 212.974 73.5134H210.974ZM208.325 79.4326V79.4397H210.325V79.4326H208.325Z"
                                fill="black" mask="url(#path-17-inside-5_0_21220)" />
                            <path d="M236.308 126.176C236.308 126.176 236.308 126.176 236.308 126.176Z" fill="#0D0D0D"
                                stroke="black" />
                            <path d="M201.946 120.506L175.3 135.891L148.648 120.506L175.3 105.12L201.946 120.506Z"
                                fill="white" stroke="black" stroke-width="0.5" />
                            <path d="M202.175 120.945L202.245 165.716L175.543 181.095L175.55 136.324L202.175 120.945Z"
                                fill="#E0F1DF" stroke="black" stroke-width="0.5" />
                            <path d="M148.306 121.292L174.958 136.677V181.455L148.306 166.07V121.292Z" fill="white"
                                stroke="black" stroke-width="0.5" />
                            <path
                                d="M202.454 120.53L191.306 126.967L191.266 126.898L201.984 120.708L202.359 120.492L201.984 120.275L175.411 104.933L175.286 104.861L175.161 104.933L148.588 120.275L148.213 120.492L148.588 120.708L175.161 136.05L175.286 136.123L175.411 136.05L186.552 129.62L186.592 129.689L175.318 136.199C175.313 136.201 175.308 136.203 175.303 136.204C175.302 136.204 175.301 136.204 175.3 136.205C175.296 136.205 175.294 136.206 175.293 136.206C175.291 136.206 175.289 136.205 175.287 136.205C175.284 136.205 175.281 136.205 175.279 136.205L175.277 136.204L148.132 120.53C148.132 120.53 148.132 120.53 148.132 120.53C148.125 120.526 148.115 120.51 148.115 120.499C148.115 120.49 148.117 120.483 148.12 120.477C148.123 120.473 148.125 120.472 148.125 120.472L148.125 120.472L148.131 120.468L175.272 104.797C175.283 104.791 175.293 104.789 175.304 104.791L175.309 104.794L202.453 120.468C202.454 120.468 202.454 120.468 202.454 120.468C202.461 120.472 202.471 120.488 202.471 120.499C202.471 120.507 202.468 120.515 202.466 120.52C202.463 120.525 202.461 120.526 202.461 120.526L202.461 120.526L202.454 120.53Z"
                                fill="#0D0D0D" stroke="black" stroke-width="0.5" />
                            <path
                                d="M175.277 136.149L188.149 128.716L188.189 128.785L175.458 136.133L175.333 136.205V136.349V181.041V181.473L175.707 181.257L202.33 165.922L202.455 165.85L202.455 165.705L202.385 121.021L202.384 120.589L202.01 120.805L190.712 127.327L190.673 127.258L202.396 120.485C202.399 120.483 202.402 120.482 202.404 120.481L202.426 120.493C202.429 120.495 202.434 120.499 202.438 120.505C202.442 120.512 202.443 120.518 202.443 120.52V120.52L202.513 165.868C202.513 165.868 202.513 165.868 202.513 165.868C202.513 165.877 202.511 165.884 202.508 165.89C202.505 165.894 202.504 165.895 202.503 165.895L202.503 165.895L202.497 165.899L175.311 181.561C175.306 181.563 175.301 181.565 175.296 181.566C175.291 181.567 175.287 181.568 175.286 181.568C175.28 181.568 175.275 181.567 175.272 181.567L175.271 181.566C175.26 181.56 175.253 181.55 175.253 181.535V136.18C175.253 136.178 175.254 136.172 175.258 136.165C175.262 136.158 175.267 136.155 175.27 136.153L175.27 136.153L175.277 136.149Z"
                                fill="#0D0D0D" stroke="black" stroke-width="0.5" />
                            <path
                                d="M148.125 120.472C148.136 120.465 148.148 120.463 148.159 120.465L148.164 120.468L175.308 136.141C175.308 136.142 175.308 136.142 175.309 136.142C175.319 136.148 175.326 136.158 175.326 136.173V181.528C175.326 181.536 175.323 181.544 175.32 181.549C175.319 181.552 175.318 181.553 175.317 181.554C175.312 181.556 175.308 181.558 175.304 181.559C175.298 181.56 175.294 181.56 175.293 181.56C175.29 181.56 175.287 181.56 175.285 181.56C175.283 181.56 175.281 181.56 175.279 181.56L175.277 181.559L148.132 165.885C148.132 165.885 148.132 165.885 148.132 165.885C148.122 165.879 148.115 165.868 148.115 165.854V120.499C148.115 120.49 148.117 120.482 148.12 120.477C148.123 120.473 148.125 120.472 148.125 120.472C148.125 120.472 148.125 120.472 148.125 120.472ZM174.885 181.25L175.26 181.467V181.034V136.342V136.198L175.135 136.126L148.562 120.784L148.187 120.567V121V165.691V165.836L148.312 165.908L174.885 181.25Z"
                                fill="#0D0D0D" stroke="black" stroke-width="0.5" />
                            <path d="M156.448 132.161L129.796 147.546L103.151 132.161L129.796 116.775L156.448 132.161Z"
                                fill="#E0F1DF" stroke="black" stroke-width="0.5" />
                            <path d="M156.671 132.601L156.741 191.379L130.046 206.757V147.979L156.671 132.601Z" fill="white"
                                stroke="black" stroke-width="0.5" />
                            <path d="M102.809 132.947L129.454 148.332V207.117L102.809 191.732V132.947Z" fill="#E0F1DF"
                                stroke="black" stroke-width="0.5" />
                            <path
                                d="M156.95 132.184L145.801 138.621L145.762 138.553L156.48 132.363L156.855 132.147L156.48 131.93L129.907 116.588L129.782 116.516L129.657 116.588L103.083 131.93L102.708 132.147L103.083 132.363L129.657 147.705L129.781 147.777L129.906 147.705L141.048 141.275L141.088 141.344L129.813 147.854C129.808 147.856 129.804 147.857 129.799 147.859C129.793 147.86 129.79 147.86 129.789 147.86C129.786 147.86 129.784 147.86 129.782 147.86C129.779 147.86 129.777 147.86 129.775 147.86L129.772 147.858L102.628 132.185C102.628 132.185 102.628 132.185 102.628 132.185C102.621 132.18 102.611 132.164 102.611 132.154C102.611 132.145 102.613 132.137 102.616 132.132C102.618 132.128 102.62 132.127 102.621 132.127L102.621 132.127L102.627 132.123L129.768 116.451C129.78 116.446 129.791 116.445 129.799 116.446L129.805 116.449L156.949 132.122C156.949 132.122 156.949 132.122 156.949 132.123C156.957 132.127 156.966 132.143 156.966 132.154C156.966 132.162 156.964 132.17 156.961 132.175C156.959 132.18 156.957 132.181 156.957 132.181L156.957 132.181L156.95 132.184Z"
                                fill="#0D0D0D" stroke="black" stroke-width="0.5" />
                            <path
                                d="M156.888 132.676L156.887 132.244L156.513 132.46L145.215 138.982L145.176 138.913L156.899 132.14C156.908 132.135 156.917 132.133 156.925 132.134L156.942 132.144C156.95 132.148 156.96 132.164 156.96 132.175V132.175L157.03 191.53C157.03 191.53 157.03 191.53 157.03 191.53C157.03 191.532 157.029 191.538 157.025 191.545C157.022 191.551 157.017 191.555 157.013 191.557L157.013 191.557L157.007 191.561L129.821 207.23C129.816 207.232 129.811 207.234 129.807 207.235C129.801 207.236 129.797 207.237 129.796 207.237C129.79 207.237 129.786 207.236 129.782 207.236L129.773 207.231L129.773 207.231C129.773 207.231 129.771 207.23 129.769 207.226C129.766 207.22 129.763 207.213 129.763 207.204V147.842C129.763 147.831 129.773 147.815 129.78 147.811C129.781 147.811 129.781 147.811 129.781 147.811L142.653 140.377L142.69 140.44L129.961 147.788L129.836 147.86V148.004V206.703V207.135L130.21 206.919L156.833 191.584L156.958 191.512L156.958 191.367L156.888 132.676Z"
                                fill="#0D0D0D" stroke="black" stroke-width="0.5" />
                            <path
                                d="M102.621 132.127C102.632 132.12 102.643 132.118 102.654 132.12L102.66 132.123L129.804 147.796C129.804 147.796 129.804 147.797 129.804 147.797C129.814 147.803 129.821 147.813 129.821 147.828V207.19C129.821 207.199 129.814 207.211 129.808 207.218C129.805 207.219 129.802 207.22 129.799 207.221C129.793 207.222 129.79 207.222 129.789 207.222C129.782 207.222 129.778 207.222 129.775 207.222L129.772 207.221L102.628 191.547C102.628 191.547 102.628 191.547 102.628 191.547C102.618 191.541 102.611 191.53 102.611 191.516V132.154C102.611 132.145 102.613 132.137 102.616 132.132C102.618 132.128 102.62 132.127 102.62 132.127C102.621 132.127 102.621 132.127 102.621 132.127ZM129.381 206.912L129.756 207.129V206.695V147.997V147.853L129.631 147.781L103.058 132.439L102.683 132.222V132.655V191.353V191.498L102.808 191.57L129.381 206.912Z"
                                fill="#0D0D0D" stroke="black" stroke-width="0.5" />
                            <path d="M110.946 122.802L84.3001 138.187L57.6479 122.802L84.3001 107.416L110.946 122.802Z"
                                fill="white" stroke="black" stroke-width="0.5" />
                            <path d="M111.174 123.242L111.245 217.041L84.5429 232.42L84.5499 138.62L111.174 123.242Z"
                                fill="#0D0D0D" stroke="black" stroke-width="0.5" />
                            <path d="M57.3061 123.595L83.9584 138.98V232.779L57.3061 217.394V123.595Z" fill="white"
                                stroke="black" stroke-width="0.5" />
                            <path
                                d="M111.461 122.832L100.313 129.269L100.273 129.201L110.991 123.011L111.366 122.794L110.991 122.578L84.4178 107.236L84.2928 107.164L84.1678 107.236L57.5947 122.578L57.2197 122.794L57.5947 123.011L84.1678 138.353L84.2928 138.425L84.4178 138.353L95.5595 131.923L95.5991 131.992L84.3238 138.502C84.3216 138.503 84.3197 138.504 84.3181 138.504C84.3143 138.506 84.3121 138.507 84.3108 138.507C84.3102 138.507 84.3095 138.507 84.3084 138.508C84.3066 138.508 84.3039 138.508 84.2999 138.508C84.2884 138.508 84.2783 138.506 84.2681 138.501L57.1322 122.833C57.1322 122.833 57.1321 122.833 57.132 122.833C57.1248 122.828 57.115 122.812 57.115 122.801C57.115 122.793 57.1172 122.785 57.1201 122.78C57.1226 122.776 57.1244 122.775 57.1247 122.774L57.1248 122.774L57.1248 122.774L57.1313 122.771L84.2722 107.099C84.2886 107.091 84.3042 107.091 84.3205 107.099L111.461 122.77C111.461 122.77 111.461 122.77 111.461 122.77C111.468 122.775 111.478 122.791 111.478 122.801C111.478 122.81 111.475 122.818 111.473 122.823C111.47 122.828 111.468 122.828 111.468 122.829L111.468 122.828L111.461 122.832Z"
                                fill="#0D0D0D" stroke="black" stroke-width="0.5" />
                            <path
                                d="M99.7127 129.623L99.6731 129.554L111.397 122.781C111.401 122.779 111.405 122.777 111.409 122.776L111.433 122.789C111.441 122.793 111.444 122.797 111.446 122.8C111.448 122.803 111.45 122.808 111.45 122.816V122.816L111.521 217.185C111.521 217.185 111.521 217.185 111.521 217.185C111.521 217.194 111.518 217.201 111.515 217.207C111.513 217.211 111.511 217.212 111.511 217.212L111.511 217.212L111.505 217.216L84.318 232.878C84.3131 232.88 84.3082 232.882 84.3038 232.883C84.2979 232.885 84.2944 232.885 84.2933 232.885C84.2871 232.885 84.2826 232.885 84.2793 232.884L84.278 232.883C84.2708 232.879 84.2607 232.863 84.2607 232.852V138.476C84.2607 138.465 84.2706 138.449 84.2778 138.445C84.2779 138.445 84.2779 138.445 84.278 138.445L97.1493 131.012L97.1889 131.081L84.4579 138.429L84.3329 138.501V138.645V232.351V232.783L84.7077 232.567L111.33 217.232L111.456 217.16L111.455 217.015L111.385 123.31L111.385 122.877L111.01 123.094L99.7127 129.623Z"
                                fill="#0D0D0D" stroke="black" stroke-width="0.5" />
                            <path
                                d="M57.1179 122.774C57.1303 122.768 57.1424 122.767 57.151 122.767L57.1569 122.771L84.3012 138.444C84.3013 138.444 84.3013 138.444 84.3014 138.444C84.3086 138.449 84.3185 138.465 84.3185 138.476V232.852C84.3185 232.861 84.3162 232.868 84.3133 232.874C84.312 232.876 84.3107 232.877 84.3099 232.878C84.3052 232.88 84.3006 232.882 84.2964 232.883C84.2906 232.884 84.287 232.885 84.2859 232.885C84.2798 232.885 84.2753 232.884 84.272 232.884L84.2697 232.883L57.1253 217.209C57.1252 217.209 57.1252 217.209 57.1251 217.209C57.115 217.203 57.1081 217.192 57.1081 217.178V122.802C57.1081 122.793 57.1104 122.785 57.1132 122.78C57.1157 122.776 57.1175 122.775 57.1179 122.774C57.1179 122.774 57.1179 122.774 57.1179 122.774ZM83.8784 232.574L84.2534 232.791V232.358V138.645V138.501L84.1284 138.429L57.5552 123.087L57.1802 122.87V123.303V217.016V217.16L57.3052 217.232L83.8784 232.574Z"
                                fill="#0D0D0D" stroke="black" stroke-width="0.5" />
                            <path
                                d="M63.1953 178.34L77.2033 187.127C77.2101 187.204 77.2196 187.317 77.231 187.463C77.2544 187.764 77.2858 188.209 77.3175 188.779C77.3811 189.92 77.446 191.567 77.4514 193.586C77.4623 197.625 77.2352 203.151 76.2839 209.104C74.3788 221.024 69.5817 234.582 58.0586 241.389C47.7808 247.458 37.3046 253.303 29.3974 257.632C25.4439 259.796 22.1328 261.581 19.8103 262.824C18.649 263.446 17.7348 263.933 17.111 264.264C16.7991 264.429 16.5598 264.556 16.3985 264.641L16.2733 264.707L1.55483 256.574C1.70845 256.49 1.90485 256.383 2.14174 256.254C2.78508 255.904 3.72702 255.39 4.92158 254.735C7.3107 253.425 10.7103 251.552 14.7526 249.3C22.8369 244.796 33.4925 238.773 43.7761 232.7C55.4993 225.779 60.3298 212.025 62.2408 200.066C63.1975 194.079 63.4256 188.524 63.4146 184.466C63.4091 182.437 63.3439 180.782 63.2799 179.633C63.2492 179.079 63.2187 178.644 63.1953 178.34Z"
                                fill="#A1BAA1" stroke="black" stroke-width="0.5" />
                            <path
                                d="M77.4564 186.953L77.4808 186.968L77.4819 186.979C77.5019 187.172 78.4343 197.457 76.4764 209.393C74.5166 221.34 69.6738 234.864 58.2069 241.636C38.4196 253.32 17.6415 264.309 16.349 264.992C16.3135 265.011 16.2927 265.022 16.287 265.025L16.2762 265.031L16.2761 265.031C16.2745 265.031 16.2726 265.031 16.2704 265.031C16.2644 265.031 16.26 265.031 16.2567 265.031L16.2501 265.027L1.01396 256.607L1.01157 256.606C1.00505 256.602 0.994705 256.591 0.994705 256.572C0.994705 256.553 1.00507 256.541 1.01156 256.538L1.01325 256.537C1.02039 256.533 1.05102 256.516 1.1043 256.487C2.67629 255.633 23.9679 244.063 43.6276 232.46L43.6277 232.46C55.1353 225.662 59.9411 212.078 61.8759 200.208C63.8127 188.327 62.8856 178.085 62.8631 177.872L62.8632 177.872L62.8626 177.867C62.8619 177.861 62.8628 177.856 62.8655 177.851C62.8685 177.845 62.8735 177.839 62.8798 177.835C62.8911 177.828 62.9095 177.828 62.921 177.835C62.9212 177.835 62.9213 177.835 62.9214 177.835L77.4564 186.953ZM77.4806 186.954C77.4806 186.953 77.4806 186.953 77.4806 186.953V186.954ZM16.2678 265.038L16.2669 265.037L16.2678 265.038ZM16.3872 264.895C18.2478 263.912 38.429 253.221 57.7873 241.802V241.809L58.1644 241.586C69.3376 234.991 74.1925 222.006 76.2365 210.399C78.2824 198.781 77.5248 188.474 77.4146 187.144L77.4043 187.02L77.2983 186.953L63.369 178.216L62.9516 177.954L62.9868 178.445C63.1662 180.954 63.7104 191.316 61.5135 202.639C59.3149 213.971 54.3833 226.201 43.663 232.531C24.9697 243.569 4.79225 254.579 1.50817 256.366L1.10759 256.584L1.50678 256.805L16.1496 264.893L16.2678 264.958L16.3872 264.895Z"
                                fill="#0D0D0D" stroke="black" stroke-width="0.5" />
                            <path d="M1.27753 253.548L16.0137 261.685V264.568L1.27753 256.424V253.548Z" fill="#A1BAA1"
                                stroke="black" stroke-width="0.5" />
                            <path
                                d="M16.4188 265.232L16.2947 265.015C16.2856 265.02 16.2793 265.022 16.2759 265.023C16.2726 265.024 16.271 265.024 16.2704 265.024C16.2644 265.024 16.26 265.024 16.2567 265.024L16.2501 265.02L1.01396 256.6L1.01397 256.6L1.01157 256.599C1.00507 256.595 0.994705 256.584 0.994705 256.565V253.118C0.994705 253.109 0.99698 253.101 0.999867 253.096C1.00232 253.092 1.00417 253.091 1.00448 253.091C1.00449 253.091 1.0045 253.091 1.0045 253.091L1.00457 253.091L1.01194 253.086C1.0159 253.084 1.02867 253.079 1.0492 253.09L16.2837 261.509L16.3066 261.522C16.3088 261.526 16.31 261.531 16.31 261.538V264.985C16.31 264.995 16.3 265.012 16.2928 265.016L16.4188 265.232ZM16.4188 265.232C16.5035 265.182 16.56 265.083 16.56 264.985V261.538C16.56 261.522 16.5588 261.507 16.5565 261.492L1.16852 252.87C1.07669 252.821 0.97074 252.821 0.885977 252.87C0.79415 252.92 0.744705 253.019 0.744705 253.118V256.565C0.744705 256.671 0.801214 256.77 0.89304 256.819L16.1292 265.239C16.1715 265.267 16.221 265.274 16.2704 265.274C16.3199 265.274 16.3693 265.26 16.4188 265.232ZM15.8599 264.723L16.2308 264.928V264.504V261.714V261.567L16.1018 261.495L1.44486 253.393L1.07392 253.188V253.612V256.402V256.55L1.20297 256.621L15.8599 264.723Z"
                                fill="#0D0D0D" stroke="black" stroke-width="0.5" />
                            <path
                                d="M60.2487 175.223L74.2177 183.986C74.226 184.065 74.238 184.183 74.2527 184.338C74.2823 184.648 74.3229 185.104 74.3672 185.69C74.4559 186.862 74.5592 188.55 74.6177 190.615C74.7345 194.745 74.6716 200.377 73.9535 206.387C72.5143 218.432 68.4555 231.896 58.0534 237.934C47.7287 243.926 37.2516 249.772 29.3555 254.12C25.4075 256.294 22.1048 258.093 19.7893 259.349C18.6315 259.977 17.7205 260.469 17.0989 260.804C16.7882 260.972 16.5498 261.1 16.3891 261.186L16.2654 261.253L1.54793 253.12C1.70155 253.036 1.89795 252.929 2.13484 252.8C2.77818 252.45 3.72012 251.936 4.91469 251.281C7.3038 249.971 10.7034 248.098 14.7457 245.846C22.83 241.342 33.4856 235.319 43.7691 229.246C55.5031 222.321 59.5841 208.636 60.7481 196.753C61.3308 190.804 61.1846 185.286 60.893 181.257C60.7471 179.242 60.5649 177.599 60.4189 176.458C60.3523 175.937 60.2932 175.521 60.2487 175.223Z"
                                fill="#A1BAA1" stroke="black" stroke-width="0.5" />
                            <path
                                d="M74.4686 183.81L74.4865 183.821C74.487 183.822 74.4876 183.823 74.4881 183.824C74.4923 183.831 74.4934 183.836 74.4935 183.838L74.4939 183.842C74.5142 184.048 75.4767 194.806 73.9049 206.939C73.1191 213.006 71.701 219.405 69.2217 224.998C66.7423 230.591 63.2096 235.36 58.2038 238.194C37.7458 249.774 16.6733 261.373 16.2976 261.576C16.2918 261.579 16.2861 261.581 16.281 261.583C16.2751 261.584 16.2716 261.584 16.2704 261.584C16.2644 261.584 16.26 261.584 16.2567 261.584L16.2501 261.58L1.01396 253.16L1.01157 253.159C1.00505 253.156 0.994705 253.144 0.994705 253.125C0.994705 253.106 1.00507 253.094 1.01157 253.091L1.01325 253.09C1.02016 253.086 1.04907 253.07 1.09922 253.043C2.62986 252.211 23.9465 240.622 43.6276 228.999C55.139 222.201 59.2023 208.69 60.3954 196.901C61.5898 185.099 59.9172 174.938 59.88 174.725L59.8794 174.723C59.8773 174.712 59.8812 174.698 59.8912 174.689C59.898 174.686 59.9048 174.684 59.9106 174.684C59.9174 174.684 59.9233 174.685 59.9294 174.689L59.9294 174.689L59.9317 174.691L74.4686 183.81ZM16.1425 261.431L16.2632 261.498L16.384 261.432L16.4423 261.399C18.6404 260.188 38.681 249.148 58.1605 238.12L58.0373 237.903L58.1605 238.12C63.0652 235.344 66.54 230.723 68.9925 225.338C71.4451 219.953 72.883 213.786 73.7056 207.891C75.3508 196.099 74.5403 185.347 74.4267 183.987L74.4163 183.862L74.3105 183.796L60.4305 175.087L59.9715 174.799L60.0503 175.335C60.4021 177.727 61.5223 186.661 60.5363 196.733C59.4711 207.61 55.6672 221.98 43.663 229.07C24.9697 240.108 4.79225 251.118 1.50817 252.905L1.10769 253.123L1.50673 253.344L16.1425 261.431Z"
                                fill="#0D0D0D" stroke="black" stroke-width="0.5" />
                            <path
                                d="M67.8974 163.976L70.8471 162.361L76.077 175.834L76.077 175.834L81.3305 189.361L78.4231 190.95L71.16 183.152L71.1345 183.125L71.1021 183.106L60.6626 177.077L67.8974 163.976Z"
                                fill="#A1BAA1" stroke="black" stroke-width="0.5" />
                            <path
                                d="M60.2805 177.154L60.2805 177.154L60.2829 177.15L67.6774 163.774C67.6813 163.767 67.6839 163.764 67.685 163.763C67.6861 163.762 67.6888 163.759 67.6953 163.756L70.9459 161.975C70.9691 161.966 70.9838 161.969 70.9908 161.971C70.998 161.974 71.003 161.977 71.0061 161.979L71.0127 161.996L81.6716 189.467L81.6713 189.467L81.6762 189.478C81.6763 189.478 81.6765 189.478 81.6766 189.48C81.6766 189.482 81.6763 189.485 81.6748 189.489C81.6718 189.498 81.6654 189.506 81.6565 189.511C81.6564 189.511 81.6562 189.511 81.6561 189.511L78.4054 191.291C78.3916 191.297 78.3837 191.299 78.3785 191.301C78.3758 191.301 78.3743 191.302 78.3738 191.302L78.3729 191.302C78.369 191.302 78.3543 191.299 78.3399 191.285L70.9766 183.378L70.9511 183.351L70.9186 183.332L60.2953 177.201C60.2885 177.197 60.2818 177.19 60.2787 177.178C60.2756 177.167 60.2777 177.159 60.2805 177.154ZM78.2464 191.072L78.3206 191.152H78.4294H78.4365H78.5005L78.5567 191.121L81.4033 189.56L81.5954 189.455L81.5161 189.25L71.0691 162.317L70.966 162.051L70.716 162.188L67.8129 163.777L67.7492 163.812L67.7141 163.876L60.4952 176.936L60.3764 177.151L60.589 177.274L70.9755 183.27C70.9853 183.279 70.9947 183.287 71.0017 183.294L71.0163 183.306L78.2464 191.072Z"
                                fill="#0D0D0D" stroke="black" stroke-width="0.5" />
                            <path
                                d="M77.8831 190.691L67.8387 184.893L57.4165 178.877L62.5923 171.515L62.5924 171.515L67.6498 164.318L72.8136 177.614L72.8137 177.614L77.8831 190.691Z"
                                fill="#A1BAA1" stroke="black" stroke-width="0.5" />
                            <path
                                d="M78.3565 191.293L69.8283 186.368L69.8679 186.299L77.6897 190.815L78.3048 191.17L78.0478 190.508L67.8763 164.302L67.7073 163.867L67.4387 164.249L57.2671 178.715L57.1099 178.939L57.3467 179.075L63.7769 182.786L63.7374 182.854L57.0316 178.981L57.0252 178.978C57.0232 178.974 57.0203 178.969 57.0173 178.96C57.017 178.955 57.0174 178.95 57.0182 178.946C57.0186 178.944 57.019 178.942 57.0193 178.942L57.0194 178.942L57.0263 178.932L67.6853 163.766L67.6853 163.766L67.6887 163.761C67.6896 163.76 67.6929 163.756 67.6995 163.753C67.7059 163.75 67.7119 163.75 67.7161 163.75C67.7229 163.751 67.7292 163.754 67.7345 163.757L67.7421 163.777L78.401 191.247L78.4008 191.247L78.4051 191.257C78.4062 191.259 78.4074 191.264 78.4055 191.272C78.4046 191.276 78.4032 191.279 78.4017 191.282C78.3996 191.286 78.3972 191.288 78.3949 191.29L78.387 191.297L78.3837 191.3C78.381 191.301 78.377 191.302 78.3728 191.302C78.3709 191.302 78.3701 191.301 78.3701 191.301L78.3635 191.297L78.3565 191.293Z"
                                fill="#0D0D0D" stroke="black" stroke-width="0.5" />
                            <path
                                d="M100.123 114.048L106.193 117.388L93.7926 117.898L85.4126 122.668L97.2326 126.928L125.023 112.058L112.943 107.198L100.123 114.048Z"
                                fill="#A1BAA1" />
                            <path
                                d="M97.3826 143.198L105.653 138.258L112.213 127.718L112.133 134.648L124.413 126.868L126.133 113.958L99.5026 130.808L97.3826 143.198Z"
                                fill="#A1BAA1" />
                            <path
                                d="M125.183 111.678L113.093 106.818C112.983 106.778 112.853 106.778 112.753 106.838L99.9326 113.688C99.8026 113.758 99.7226 113.898 99.7126 114.048C99.7126 114.198 99.7926 114.338 99.9226 114.408L104.713 117.048L93.7626 117.498C93.7026 117.498 93.6326 117.518 93.5826 117.548L85.2026 122.318C85.0626 122.398 84.9826 122.548 85.0026 122.708C85.0126 122.868 85.1226 122.998 85.2726 123.058L97.0926 127.318C97.0926 127.318 97.1826 127.338 97.2326 127.338C97.3026 127.338 97.3626 127.318 97.4226 127.288L125.213 112.418C125.353 112.338 125.433 112.198 125.423 112.038C125.423 111.878 125.313 111.738 125.173 111.678H125.183ZM97.2126 126.478L86.3926 122.578L93.9126 118.298L106.223 117.798C106.403 117.798 106.563 117.658 106.603 117.488C106.643 117.308 106.563 117.128 106.403 117.038L100.993 114.058L112.983 107.648L124.083 112.108L97.2226 126.478H97.2126Z"
                                fill="#1D335A" />
                            <path
                                d="M125.923 113.618L99.2926 130.468C99.1926 130.528 99.1326 130.628 99.1126 130.748L96.9926 143.138C96.9626 143.298 97.0326 143.448 97.1626 143.548C97.2326 143.598 97.3126 143.618 97.3926 143.618C97.4626 143.618 97.5326 143.598 97.6026 143.558L105.883 138.618C105.943 138.588 105.983 138.538 106.023 138.478L111.803 129.178L111.733 134.648C111.733 134.798 111.813 134.938 111.943 135.008C112.073 135.078 112.233 135.078 112.363 134.998L124.643 127.218C124.743 127.158 124.813 127.048 124.833 126.928L126.563 114.018C126.583 113.858 126.513 113.708 126.383 113.618C126.253 113.528 126.083 113.528 125.943 113.618H125.923ZM124.033 126.628L112.553 133.898L112.623 127.718C112.623 127.538 112.503 127.368 112.333 127.318C112.163 127.268 111.973 127.338 111.873 127.498L105.373 137.958L97.9426 142.388L99.8826 131.048L125.633 114.758L124.043 126.618L124.033 126.628Z"
                                fill="#1D335A" />
                            <path
                                d="M202.733 65.3684L101.543 125.178C100.773 125.638 100.513 126.638 100.973 127.408C101.273 127.918 101.823 128.208 102.373 128.208C102.653 128.208 102.943 128.138 103.203 127.978L204.393 68.1684C205.173 67.7084 205.423 66.7084 204.963 65.9384C204.503 65.1684 203.503 64.9084 202.733 65.3684Z"
                                fill="#1D335A" />
                        </svg>