<svg width="467" height="351" viewBox="0 0 467 351" fill="none" xmlns="http://www.w3.org/2000/svg">
<path d="M220.402 57.7045C220.327 57.7045 220.249 57.6974 220.178 57.6797C216.409 56.8252 210.984 56.8252 207.261 57.6762C206.854 57.7683 206.439 57.6017 206.205 57.2613C205.974 56.9174 205.974 56.4671 206.205 56.1267C206.857 55.1729 207.198 54.0383 207.194 52.847C207.194 51.645 206.85 50.5069 206.198 49.5531C205.967 49.2092 205.967 48.7589 206.198 48.4185C206.432 48.0746 206.843 47.9044 207.254 48.0036C209.119 48.4291 211.328 48.6525 213.64 48.6525C216.094 48.6525 218.303 48.4291 220.175 48.0107C220.575 47.9186 221.001 48.0852 221.231 48.4291C221.465 48.7731 221.462 49.2198 221.231 49.5637C220.582 50.514 220.238 51.6486 220.246 52.847C220.246 53.9639 220.547 55.0276 221.107 55.9388C221.323 56.1232 221.462 56.3997 221.462 56.7082C221.462 57.2755 221.061 57.7293 220.43 57.7187H220.405L220.402 57.7045ZM213.718 55.0098C215.431 55.0098 217.09 55.1233 218.622 55.3431C218.359 54.5489 218.225 53.705 218.225 52.8364C218.225 51.9677 218.356 51.1238 218.618 50.3296C215.494 50.7763 211.761 50.748 208.811 50.3296C209.073 51.1274 209.208 51.9712 209.208 52.8364C209.212 53.7015 209.077 54.5453 208.814 55.3431C210.339 55.1233 212.002 55.0098 213.722 55.0098H213.718Z" fill="white"/>
<path d="M242.812 70.6732L354.442 6.22778L465.938 70.6023V145.628L354.318 210.073L242.812 145.702V70.6732Z" fill="#0D0D0D"/>
<path d="M354.32 211.079C354.146 211.079 353.972 211.033 353.816 210.945L242.31 146.574C242.001 146.393 241.806 146.059 241.806 145.701V70.6757C241.806 70.3176 241.998 69.9808 242.31 69.8035L353.937 5.35803C354.252 5.17721 354.632 5.17721 354.947 5.35803L466.443 69.729C466.752 69.9099 466.947 70.2431 466.947 70.6013V145.627C466.947 145.985 466.755 146.318 466.443 146.499L354.823 210.945C354.667 211.033 354.494 211.079 354.32 211.079ZM243.82 145.12L354.32 208.909L464.933 145.049V71.1863L354.444 7.39677L243.824 71.2572V145.12H243.82Z" fill="#0D0D0D"/>
<path d="M354.318 135.048L465.938 70.6023L354.442 6.22778L242.812 70.6732L354.318 135.048Z" fill="white"/>
<path d="M354.32 136.054C354.146 136.054 353.972 136.008 353.816 135.919L242.31 71.548C242.001 71.3671 241.806 71.0338 241.806 70.6757C241.806 70.3176 241.998 69.9808 242.31 69.8035L353.937 5.35803C354.252 5.17721 354.632 5.17721 354.947 5.35803L466.443 69.729C466.752 69.9099 466.947 70.2431 466.947 70.6012C466.947 70.9594 466.755 71.2927 466.443 71.4735L354.823 135.919C354.667 136.008 354.494 136.054 354.32 136.054ZM244.831 70.6757L354.32 133.884L463.922 70.6012L354.44 7.39322L244.831 70.6757Z" fill="#0D0D0D"/>
<path d="M354.318 210.073V135.047L242.812 70.6726V145.702L354.318 210.073Z" fill="#92E490"/>
<path d="M354.32 211.08C354.146 211.08 353.972 211.034 353.816 210.945L242.31 146.574C242.001 146.393 241.806 146.06 241.806 145.702V70.6763C241.806 70.3182 241.998 69.9814 242.31 69.8041C242.625 69.6233 243.005 69.6233 243.32 69.8041L354.827 134.175C355.139 134.356 355.33 134.689 355.33 135.047V210.073C355.33 210.435 355.139 210.768 354.827 210.945C354.671 211.034 354.497 211.08 354.323 211.08H354.32ZM243.82 145.12L353.313 208.328V135.629L243.82 72.4208V145.12Z" fill="#0D0D0D"/>
<path d="M121.915 167.3L233.539 102.855L345.035 167.226V215.429L233.418 279.874L121.915 215.503V167.3Z" fill="#0D0D0D"/>
<path d="M233.416 280.886C233.239 280.886 233.069 280.839 232.913 280.751L121.41 216.38C121.098 216.199 120.906 215.866 120.906 215.508V167.305C120.906 166.943 121.098 166.61 121.41 166.432L233.03 101.987C233.342 101.806 233.725 101.806 234.037 101.987L345.533 166.354C345.848 166.535 346.036 166.869 346.036 167.227V215.433C346.036 215.791 345.845 216.124 345.533 216.305L233.913 280.751C233.757 280.839 233.587 280.886 233.409 280.886H233.416ZM122.924 214.926L233.416 278.716L344.026 214.855V167.812L233.537 104.026L122.924 167.89V214.93V214.926Z" fill="#0D0D0D"/>
<path d="M233.418 231.671L345.035 167.226L233.539 102.855L121.915 167.3L233.418 231.671Z" fill="white"/>
<path d="M233.416 232.683C233.239 232.683 233.069 232.636 232.913 232.548L121.41 168.177C121.098 167.996 120.906 167.663 120.906 167.305C120.906 166.947 121.098 166.61 121.41 166.432L233.03 101.987C233.342 101.806 233.725 101.806 234.037 101.987L345.533 166.354C345.848 166.535 346.036 166.869 346.036 167.227C346.036 167.585 345.845 167.922 345.533 168.099L233.913 232.548C233.757 232.636 233.587 232.683 233.409 232.683H233.416ZM123.931 167.305L233.416 230.513L343.019 167.23L233.537 104.026L123.931 167.308V167.305Z" fill="#0D0D0D"/>
<path d="M233.418 279.876V231.673L121.915 167.302V215.505L233.418 279.876Z" fill="#92E490"/>
<path d="M233.416 280.885C233.239 280.885 233.069 280.839 232.913 280.75L121.41 216.379C121.098 216.199 120.906 215.865 120.906 215.507V167.304C120.906 166.943 121.098 166.609 121.41 166.432C121.722 166.251 122.105 166.251 122.417 166.432L233.916 230.803C234.232 230.984 234.42 231.317 234.42 231.675V279.878C234.42 280.236 234.228 280.57 233.916 280.75C233.76 280.839 233.59 280.885 233.413 280.885H233.416ZM122.924 214.926L232.409 278.134V232.257L122.924 169.049V214.926Z" fill="#0D0D0D"/>
<path d="M1.01123 269.274L112.635 204.829L224.131 269.2V285.233L112.511 349.678L1.01123 285.307V269.274Z" fill="#0D0D0D"/>
<path d="M112.51 350.689C112.336 350.689 112.163 350.643 112.007 350.554L0.50348 286.183C0.191464 286.003 0 285.669 0 285.311V269.278C0 268.916 0.191464 268.583 0.50348 268.406L112.127 203.96C112.439 203.779 112.826 203.779 113.134 203.96L224.63 268.331C224.946 268.512 225.134 268.845 225.134 269.203V285.237C225.134 285.598 224.942 285.932 224.63 286.109L113.014 350.554C112.858 350.643 112.684 350.689 112.51 350.689ZM2.01392 284.73L112.51 348.519L223.123 284.655V269.785L112.634 205.995L2.01747 269.859V284.73H2.01392Z" fill="#0D0D0D"/>
<path d="M112.511 333.645L224.131 269.2L112.635 204.829L1.01123 269.274L112.511 333.645Z" fill="white"/>
<path d="M112.51 334.656C112.336 334.656 112.163 334.61 112.007 334.521L0.50348 270.15C0.191464 269.969 0 269.636 0 269.278C0 268.92 0.191464 268.583 0.50348 268.406L112.127 203.96C112.439 203.779 112.826 203.779 113.134 203.96L224.63 268.331C224.946 268.512 225.134 268.845 225.134 269.203C225.134 269.561 224.942 269.898 224.63 270.076L113.014 334.521C112.858 334.61 112.684 334.656 112.51 334.656ZM3.02443 269.274L112.51 332.482L222.113 269.2L112.631 205.992L3.02088 269.274H3.02443Z" fill="#0D0D0D"/>
<path d="M112.511 349.678V333.645L1.01123 269.274V285.307L112.511 349.678Z" fill="#92E490"/>
<path d="M112.51 350.689C112.336 350.689 112.163 350.643 112.007 350.554L0.50348 286.183C0.191464 286.002 0 285.669 0 285.311V269.278C0 268.916 0.191464 268.583 0.50348 268.405C0.815495 268.225 1.19842 268.225 1.51044 268.405L113.014 332.776C113.326 332.957 113.517 333.291 113.517 333.649V349.682C113.517 350.044 113.326 350.377 113.014 350.554C112.858 350.643 112.684 350.689 112.51 350.689ZM2.01392 284.73L111.503 347.938V334.23L2.01392 271.022V284.73Z" fill="#0D0D0D"/>
<path d="M394.051 89.7195C399.312 86.6836 406.622 85.8839 411.385 87.6193C413.75 85.2239 415.555 82.7121 416.778 80.1149C411.277 79.3967 407.088 75.8367 407.08 71.5429C407.072 67.2414 411.257 63.6931 416.762 62.9787C415.532 60.3815 413.722 57.862 411.35 55.4705C406.587 57.202 399.273 56.3945 394.016 53.3547C388.752 50.3149 387.354 46.0988 390.348 43.3463C386.209 41.9798 381.845 40.9354 377.35 40.2289C376.107 43.4007 369.95 45.8193 362.508 45.8154C355.066 45.8115 348.905 43.3929 347.659 40.2134C343.163 40.9199 338.803 41.9642 334.661 43.3269C337.666 46.0833 336.28 50.3033 331.019 53.3392C325.759 56.3751 318.456 57.1787 313.677 55.4434C311.321 57.8309 309.516 60.3505 308.293 62.9477C313.794 63.6659 317.983 67.222 317.994 71.5196C317.994 75.8173 313.809 79.3734 308.312 80.0877C309.539 82.6849 311.352 85.2045 313.72 87.5921C318.487 85.8606 325.798 86.6681 331.054 89.7079C336.319 92.7477 337.716 96.9638 334.723 99.7201C338.861 101.087 343.217 102.135 347.721 102.845C348.967 99.6697 355.112 97.2511 362.562 97.2549C370.012 97.2549 376.17 99.6775 377.416 102.857C381.908 102.15 386.267 101.102 390.406 99.7435C387.405 96.9871 388.799 92.7671 394.051 89.7312V89.7195ZM340.259 84.3853C327.948 77.2731 327.937 65.7507 340.236 58.6501C352.538 51.5495 372.493 51.5533 384.811 58.6656C397.122 65.7778 397.138 77.2964 384.835 84.4048C372.532 91.5092 352.573 91.5015 340.259 84.3892V84.3853Z" fill="#0D0D0D"/>
<path d="M377.42 103.943C376.97 103.943 376.558 103.672 376.391 103.245C375.448 100.838 370.017 98.3452 362.567 98.3414C355.113 98.3414 349.693 100.826 348.754 103.233C348.567 103.71 348.078 103.99 347.554 103.92C342.992 103.198 338.563 102.134 334.385 100.752C334.013 100.632 333.733 100.321 333.652 99.937C333.57 99.5565 333.698 99.1566 333.986 98.8926C334.882 98.0657 335.278 97.1107 335.162 96.0508C334.96 94.2068 333.263 92.2385 330.515 90.6506C327.362 88.8299 323.325 87.7856 319.443 87.7856C317.447 87.7856 315.603 88.0728 314.109 88.6164C313.709 88.7639 313.251 88.6629 312.948 88.3562C310.49 85.8794 308.6 83.2511 307.322 80.5452C307.175 80.2269 307.187 79.8542 307.353 79.5436C307.52 79.2369 307.831 79.0234 308.18 78.9807C313.235 78.3246 316.904 75.18 316.904 71.5074C316.892 67.8348 313.22 64.6902 308.161 64.0302C307.812 63.9836 307.505 63.774 307.334 63.4634C307.163 63.1528 307.156 62.784 307.303 62.4657C308.584 59.752 310.467 57.1237 312.905 54.6585C313.208 54.3479 313.658 54.247 314.066 54.3945C315.572 54.9419 317.424 55.2331 319.423 55.2331C323.302 55.2331 327.331 54.1927 330.48 52.3758C333.225 50.7957 334.91 48.8313 335.111 46.9911C335.228 45.9274 334.828 44.9646 333.923 44.1338C333.636 43.8698 333.508 43.4738 333.59 43.0895C333.671 42.709 333.951 42.3984 334.323 42.2742C338.512 40.896 342.946 39.8362 347.492 39.1218C348.012 39.0481 348.505 39.3276 348.691 39.809C349.635 42.2121 355.062 44.7045 362.516 44.7123C369.97 44.7123 375.39 42.2276 376.329 39.8284C376.515 39.347 377.008 39.0636 377.525 39.1413C382.079 39.8595 386.512 40.9232 390.697 42.3014C391.066 42.4256 391.345 42.7323 391.431 43.1167C391.512 43.4971 391.388 43.897 391.101 44.161C390.2 44.9879 389.808 45.9429 389.921 47.0028C390.126 48.8468 391.819 50.8151 394.572 52.4029C397.724 54.2237 401.754 55.2719 405.64 55.2719C407.631 55.2719 409.479 54.9846 410.974 54.4372C411.382 54.2897 411.836 54.3906 412.139 54.6973C414.581 57.1664 416.475 59.7947 417.76 62.5123C417.912 62.8306 417.904 63.2033 417.733 63.5139C417.562 63.8244 417.255 64.0341 416.906 64.0807C411.848 64.7368 408.183 67.8775 408.187 71.5501C408.19 75.2227 411.867 78.3712 416.922 79.0312C417.271 79.0778 417.582 79.2874 417.749 79.598C417.919 79.9047 417.931 80.2773 417.78 80.5957C416.502 83.3055 414.619 85.9337 412.178 88.4067C411.875 88.7134 411.417 88.8144 411.013 88.6707C409.51 88.1233 407.659 87.836 405.659 87.836C401.781 87.836 397.751 88.8765 394.603 90.6933C391.866 92.2773 390.177 94.2417 389.975 96.0819C389.855 97.1456 390.255 98.1045 391.155 98.9353C391.443 99.2032 391.571 99.5992 391.489 99.9797C391.408 100.364 391.128 100.675 390.755 100.795C386.555 102.173 382.121 103.233 377.591 103.947C377.533 103.955 377.474 103.959 377.42 103.959V103.943ZM362.539 96.1362C369.869 96.1362 376.003 98.3569 378.033 101.626C381.624 101.028 385.142 100.201 388.519 99.1722C387.898 98.1589 387.646 97.0214 387.778 95.8218C388.061 93.2362 390.095 90.7322 393.504 88.7639C396.975 86.7607 401.404 85.6115 405.659 85.6115C407.624 85.6115 409.479 85.8678 411.079 86.353C412.733 84.606 414.088 82.7891 415.116 80.9373C409.743 79.7105 405.982 75.9331 405.978 71.5423C405.974 67.1515 409.724 63.3741 415.097 62.1512C414.057 60.2916 412.698 58.4747 411.04 56.7316C409.448 57.213 407.597 57.4693 405.636 57.4693C401.373 57.4693 396.94 56.3162 393.461 54.3052C390.049 52.3369 388.007 49.8252 387.723 47.2396C387.591 46.0439 387.844 44.9103 388.461 43.897C385.091 42.8643 381.57 42.0413 377.963 41.4395C375.937 44.7006 369.815 46.9134 362.52 46.9134C355.202 46.9096 349.068 44.689 347.038 41.424C343.439 42.0258 339.922 42.8488 336.548 43.8776C337.169 44.8908 337.425 46.0283 337.289 47.2318C337.006 49.8174 334.972 52.3214 331.567 54.2858C328.096 56.2891 323.659 57.4382 319.408 57.4382C317.443 57.4382 315.588 57.1859 313.984 56.6967C312.334 58.4398 310.983 60.2567 309.951 62.1124C315.32 63.3392 319.082 67.1166 319.097 71.5074C319.097 75.9021 315.339 79.6795 309.97 80.9024C311.003 82.7542 312.362 84.5711 314.023 86.3181C315.619 85.8367 317.467 85.5844 319.427 85.5844C323.686 85.5844 328.123 86.7335 331.602 88.7445C335.018 90.7166 337.056 93.2285 337.344 95.814C337.476 97.0098 337.223 98.1434 336.606 99.1527C339.972 100.185 343.493 101.012 347.104 101.614C349.13 98.353 355.252 96.1401 362.532 96.1401L362.539 96.1362ZM362.578 90.8254C353.96 90.8254 345.842 88.8765 339.712 85.3398C333.395 81.6905 329.917 76.7756 329.917 71.4996C329.917 66.2237 333.388 61.3282 339.689 57.6905C345.799 54.1616 353.901 52.2205 362.504 52.2205C371.107 52.2205 379.241 54.1694 385.367 57.7061C391.683 61.3515 395.158 66.2664 395.158 71.5423C395.158 76.8183 391.687 81.7176 385.39 85.3553C379.28 88.8842 371.177 90.8254 362.574 90.8254H362.578ZM362.508 54.4256C354.282 54.4256 346.572 56.2658 340.795 59.6006C335.205 62.8267 332.126 67.0506 332.126 71.4957C332.126 75.9409 335.212 80.188 340.818 83.4258C346.618 86.7723 354.344 88.6164 362.582 88.6164C370.82 88.6164 378.515 86.7762 384.291 83.4414C389.878 80.2152 392.957 75.9875 392.957 71.5423C392.957 67.0972 389.87 62.8539 384.268 59.6161C378.472 56.2697 370.746 54.4256 362.512 54.4256H362.508Z" fill="#0D0D0D"/>
<path d="M420.042 44.2682V26.0799C418.734 23.3197 416.812 20.6487 414.301 18.1058C409.238 19.946 401.482 19.088 395.895 15.8619C394.195 14.8797 392.933 13.7849 392.005 12.6513V5.23235C387.606 3.78428 382.983 2.67395 378.204 1.92079C376.88 5.29445 370.354 7.85673 362.45 7.85285C354.545 7.85285 348.004 5.27893 346.684 1.90527C341.909 2.65454 337.281 3.76487 332.89 5.20905V12.6513C331.966 13.7732 330.708 14.8642 329.024 15.8347C323.441 19.057 315.688 19.9072 310.618 18.067C308.11 20.606 306.2 23.277 304.899 26.0333V47.7234C304.899 47.7234 304.907 47.7234 304.915 47.7234V65.9155C306.219 68.6757 308.145 71.3467 310.657 73.8857C315.715 72.0494 323.476 72.9035 329.062 76.1296C330.755 77.1118 332.028 78.2066 332.956 79.3363V86.7591C337.347 88.2072 341.979 89.3214 346.75 90.0707C348.074 86.7009 354.607 84.1348 362.508 84.1386C370.412 84.1386 376.954 86.7087 378.27 90.0862C383.049 89.3331 387.672 88.2228 392.071 86.7825V79.3402C392.987 78.2182 394.253 77.1235 395.934 76.1529C401.513 72.9307 409.273 72.0805 414.339 73.9245C416.843 71.3817 418.765 68.7146 420.066 65.9543V44.2643C420.066 44.2643 420.054 44.2643 420.046 44.2643L420.042 44.2682ZM386.151 48.8259C373.091 56.3652 351.905 56.3613 338.834 48.8103C337.304 47.9291 335.977 46.9819 334.8 45.9841C335.965 44.9942 337.285 44.0546 338.803 43.1772C351.863 35.6379 373.048 35.6418 386.123 43.1928C387.649 44.074 388.981 45.0252 390.153 46.019C388.985 47.009 387.665 47.9485 386.151 48.8259Z" fill="#92E490"/>
<path d="M378.263 91.1971C377.813 91.1971 377.401 90.9214 377.234 90.4944C376.245 87.9554 370.743 85.2534 362.501 85.2495C354.256 85.2495 348.762 87.9477 347.768 90.4789C347.578 90.9603 347.085 91.2476 346.569 91.166C341.743 90.4051 337.042 89.2754 332.604 87.8079C332.154 87.6604 331.843 87.2372 331.843 86.7597V79.7445C330.974 78.7584 329.852 77.8655 328.505 77.0852C325.151 75.1441 320.853 74.0377 316.718 74.0377C314.595 74.0377 312.626 74.3443 311.027 74.9228C310.627 75.0703 310.169 74.9655 309.862 74.6627C307.269 72.0383 305.266 69.2547 303.907 66.3896C303.837 66.2421 303.802 66.083 303.802 65.9199V47.9956C303.79 47.9102 303.783 47.821 303.783 47.7278V26.0378C303.783 25.8747 303.818 25.7155 303.888 25.568C305.242 22.6913 307.242 19.9077 309.82 17.295C310.119 16.9883 310.581 16.8873 310.984 17.0349C312.591 17.6172 314.568 17.9278 316.695 17.9278C320.822 17.9278 325.112 16.8213 328.458 14.888C329.782 14.1232 330.896 13.2381 331.774 12.252V5.21736C331.774 4.73985 332.08 4.3167 332.535 4.16918C336.98 2.70558 341.677 1.57971 346.499 0.822673C347.015 0.737264 347.508 1.02844 347.698 1.50984C348.692 4.04881 354.197 6.75085 362.439 6.75473C370.677 6.75473 376.171 4.06047 377.168 1.52538C377.359 1.04398 377.836 0.764455 378.368 0.838217C383.198 1.59913 387.899 2.72887 392.34 4.19247C392.794 4.33999 393.101 4.76314 393.101 5.24065V12.252C393.975 13.2458 395.097 14.1387 396.44 14.9113C399.798 16.8485 404.096 17.9627 408.226 17.9627C410.35 17.9627 412.322 17.656 413.918 17.0737C414.321 16.9262 414.776 17.0271 415.082 17.3338C417.668 19.9504 419.671 22.734 421.038 25.6069C421.108 25.7544 421.146 25.9174 421.146 26.0805V44.0785C421.154 44.1406 421.162 44.2066 421.162 44.2726V65.9626C421.162 66.1257 421.127 66.2848 421.057 66.4323C419.71 69.2935 417.711 72.081 415.117 74.7054C414.814 75.0121 414.36 75.113 413.953 74.9694C412.349 74.387 410.373 74.0765 408.246 74.0765C404.119 74.0765 399.829 75.1829 396.479 77.1162C395.147 77.8849 394.037 78.7701 393.167 79.7523V86.7869C393.167 87.2644 392.86 87.6875 392.406 87.8351C387.953 89.2948 383.252 90.4206 378.434 91.1815C378.376 91.1893 378.318 91.1932 378.259 91.1932L378.263 91.1971ZM362.478 83.0444C370.266 83.0444 376.776 85.4048 378.888 88.8755C383.038 88.1845 387.095 87.2139 390.962 85.9871V79.3524C390.962 79.0962 391.051 78.8477 391.211 78.6497C392.282 77.3453 393.684 76.1884 395.372 75.2062C399.049 73.0865 403.738 71.8713 408.246 71.8713C410.342 71.8713 412.322 72.147 414.022 72.6633C416.142 70.4311 417.8 68.0939 418.953 65.7103V44.4628C418.945 44.4007 418.937 44.3347 418.937 44.2687V26.3289C417.765 23.9336 416.103 21.5965 413.991 19.372C412.295 19.8922 410.323 20.164 408.23 20.164C403.723 20.164 399.022 18.9449 395.341 16.8175C393.637 15.8353 392.224 14.6706 391.145 13.3506C390.985 13.1526 390.896 12.908 390.896 12.6518V6.03653C387.037 4.80586 382.984 3.83529 378.822 3.14038C376.707 6.60332 370.208 8.95595 362.459 8.95595C354.683 8.95595 348.172 6.59557 346.056 3.12486C341.902 3.81589 337.849 4.78645 333.99 6.01324V12.6518C333.99 12.908 333.897 13.1565 333.734 13.3545C332.655 14.6628 331.249 15.8197 329.568 16.7903C325.896 18.9139 321.206 20.129 316.703 20.129C314.606 20.129 312.626 19.8534 310.922 19.3332C308.81 21.5577 307.156 23.8909 305.999 26.2824V47.456C306.011 47.5414 306.015 47.6307 306.015 47.7239V65.6637C307.18 68.0551 308.841 70.3884 310.965 72.6206C312.657 72.1004 314.63 71.8286 316.722 71.8286C321.233 71.8286 325.931 73.0477 329.611 75.1751C331.323 76.1651 332.729 77.3298 333.804 78.6381C333.963 78.8361 334.052 79.0845 334.052 79.3369V85.9561C337.911 87.1867 341.964 88.1573 346.118 88.8522C348.234 85.3893 354.729 83.0328 362.478 83.0328V83.0444ZM362.513 55.5815C353.374 55.5815 344.767 53.5162 338.276 49.766C336.762 48.8963 335.392 47.9374 334.08 46.8271C333.835 46.6174 333.691 46.3108 333.691 45.9847C333.691 45.6586 333.835 45.3519 334.08 45.1422C335.341 44.0707 336.739 43.0885 338.245 42.2189C344.725 38.4803 353.312 36.4189 362.435 36.4189C371.559 36.4189 380.181 38.4842 386.668 42.2344C388.167 43.0963 389.576 44.0823 390.861 45.1733C391.11 45.3829 391.249 45.6935 391.249 46.0157C391.249 46.3379 391.106 46.6485 390.861 46.8582C389.599 47.9258 388.202 48.9079 386.699 49.7776C380.224 53.52 371.629 55.5776 362.509 55.5776L362.513 55.5815ZM336.556 45.9847C337.446 46.6602 338.377 47.2774 339.379 47.852C345.544 51.412 353.759 53.3725 362.513 53.3725C371.268 53.3725 379.451 51.4198 385.597 47.8714C386.579 47.3007 387.511 46.6796 388.388 46.0157C387.499 45.3402 386.567 44.7229 385.57 44.1483C379.405 40.5883 371.19 38.6278 362.435 38.6278C353.681 38.6278 345.497 40.5806 339.352 44.129C338.366 44.6996 337.43 45.3169 336.556 45.9808V45.9847Z" fill="#0D0D0D"/>
<path d="M395.933 54.4709C401.512 51.2486 409.272 50.3945 414.339 52.2386C416.843 49.7035 418.764 47.0286 420.065 44.2684C414.218 43.5075 409.769 39.7339 409.769 35.1684C409.762 30.6029 414.199 26.8333 420.046 26.0763C418.737 23.316 416.816 20.645 414.304 18.1021C409.241 19.9423 401.485 19.0843 395.898 15.8582C390.308 12.6321 388.825 8.152 392.008 5.22868C387.61 3.78061 382.986 2.67028 378.207 1.91713C376.883 5.29079 370.357 7.85307 362.453 7.84919C354.549 7.84919 348.007 5.27527 346.687 1.90161C341.912 2.65088 337.284 3.7612 332.893 5.20539C336.085 8.13259 334.606 12.6127 329.027 15.8349C323.444 19.0572 315.691 19.9074 310.621 18.0672C308.113 20.6062 306.203 23.2772 304.903 26.0336C310.741 26.7984 315.187 30.5719 315.202 35.1335C315.202 39.6951 310.761 43.4686 304.918 44.2296C306.223 46.9859 308.148 49.6608 310.66 52.1959C315.718 50.3596 323.479 51.2137 329.066 54.4437C334.66 57.6659 336.135 62.146 332.959 65.0693C337.35 66.5213 341.982 67.6355 346.753 68.3848C348.077 65.015 354.611 62.445 362.511 62.4488C370.415 62.4488 376.957 65.0228 378.273 68.3964C383.052 67.6472 387.676 66.5368 392.074 65.0965C388.883 62.1693 390.358 57.6892 395.937 54.467L395.933 54.4709ZM338.833 48.8067C325.754 41.2557 325.742 29.0267 338.802 21.4874C351.862 13.9443 373.047 13.952 386.123 21.503C399.194 29.05 399.21 41.2829 386.15 48.8261C373.09 56.3654 351.905 56.3615 338.833 48.8106V48.8067Z" fill="white"/>
<path d="M378.266 69.5068C377.816 69.5068 377.404 69.2311 377.238 68.8041C376.232 66.2302 370.447 63.5631 362.504 63.5592C354.262 63.5592 348.765 66.2574 347.771 68.7925C347.581 69.2739 347.088 69.5611 346.572 69.4796C341.738 68.7148 337.041 67.5851 332.607 66.1215C332.235 65.9973 331.959 65.6905 331.878 65.3062C331.796 64.9257 331.92 64.5259 332.208 64.2619C333.182 63.369 333.605 62.3324 333.477 61.1833C333.26 59.2033 331.45 57.0992 328.508 55.4065C325.15 53.4654 320.852 52.3551 316.717 52.3551C314.594 52.3551 312.629 52.6618 311.03 53.2403C310.63 53.3878 310.172 53.2868 309.865 52.9801C307.276 50.3635 305.273 47.58 303.91 44.7071C303.759 44.3888 303.77 44.0161 303.941 43.7055C304.108 43.3949 304.415 43.1853 304.768 43.1387C310.168 42.436 314.093 39.0701 314.093 35.1374C314.078 31.2047 310.153 27.8349 304.752 27.1284C304.403 27.0818 304.1 26.8722 303.929 26.5616C303.759 26.251 303.747 25.8822 303.898 25.5638C305.253 22.6871 307.253 19.9036 309.83 17.2908C310.129 16.9841 310.591 16.8832 310.995 17.0307C312.602 17.613 314.578 17.9236 316.706 17.9236C320.833 17.9236 325.122 16.8172 328.469 14.8838C331.4 13.1912 333.205 11.087 333.423 9.11096C333.551 7.95794 333.12 6.92138 332.145 6.02458C331.858 5.76059 331.73 5.36072 331.812 4.98026C331.893 4.59592 332.173 4.28923 332.545 4.165C336.99 2.7014 341.688 1.57556 346.51 0.818524C347.026 0.733115 347.519 1.02427 347.709 1.50566C348.703 4.04464 354.208 6.74668 362.45 6.75056C370.688 6.75056 376.182 4.0563 377.179 1.52121C377.369 1.03981 377.847 0.760282 378.379 0.834044C383.208 1.59496 387.91 2.7247 392.351 4.1883C392.724 4.30864 393.003 4.61921 393.085 5.00355C393.166 5.3879 393.042 5.78388 392.751 6.04787C391.78 6.94079 391.353 7.97734 391.478 9.12648C391.695 11.1064 393.508 13.2145 396.447 14.9071C399.801 16.8444 404.099 17.9585 408.233 17.9585C410.357 17.9585 412.329 17.6518 413.925 17.0695C414.328 16.922 414.783 17.0229 415.089 17.3296C417.675 19.9463 419.678 22.7298 421.045 25.6027C421.196 25.9249 421.184 26.2937 421.014 26.6082C420.847 26.9187 420.54 27.1284 420.187 27.175C414.783 27.8738 410.869 31.2396 410.869 35.1723C410.869 39.105 414.794 42.4748 420.206 43.1775C420.555 43.2241 420.862 43.4338 421.033 43.7443C421.204 44.0549 421.212 44.4237 421.064 44.7459C419.709 47.6149 417.714 50.3985 415.124 53.0229C414.821 53.3296 414.367 53.4266 413.96 53.283C412.356 52.7006 410.388 52.3901 408.257 52.3901C404.126 52.3901 399.836 53.4965 396.486 55.4337C393.558 57.1264 391.753 59.2305 391.536 61.2066C391.412 62.3596 391.842 63.4 392.817 64.2929C393.104 64.5569 393.236 64.9529 393.151 65.3373C393.069 65.7216 392.79 66.0322 392.413 66.1525C387.956 67.6161 383.255 68.7381 378.441 69.4951C378.383 69.5029 378.325 69.5107 378.27 69.5107L378.266 69.5068ZM362.481 61.3541C370.269 61.3541 376.779 63.7145 378.891 67.1852C382.754 66.5447 386.539 65.6595 390.165 64.5453C389.482 63.4622 389.199 62.247 389.338 60.962C389.637 58.2406 391.784 55.5968 395.379 53.5198C399.056 51.3962 403.749 50.1811 408.253 50.1811C410.349 50.1811 412.325 50.4528 414.026 50.973C415.823 49.0824 417.29 47.1102 418.401 45.0992C412.674 43.8297 408.66 39.8271 408.66 35.1723C408.656 30.5214 412.655 26.5189 418.377 25.2494C417.259 23.2306 415.788 21.2585 413.991 19.3717C412.294 19.8919 410.322 20.1637 408.229 20.1637C403.722 20.1637 399.021 18.9447 395.34 16.8172C391.73 14.7363 389.579 12.0925 389.28 9.36718C389.14 8.08216 389.42 6.86703 390.103 5.78777C386.485 4.67357 382.696 3.78843 378.821 3.14398C376.706 6.60692 370.207 8.95955 362.458 8.95955C354.682 8.95955 348.171 6.59914 346.055 3.12843C342.185 3.769 338.407 4.65805 334.785 5.76837C335.472 6.85151 335.756 8.06664 335.612 9.35554C335.313 12.077 333.166 14.7247 329.568 16.7978C325.895 18.9213 321.205 20.1365 316.702 20.1365C314.606 20.1365 312.626 19.8609 310.921 19.3406C309.128 21.2274 307.664 23.1957 306.554 25.2145C312.268 26.4878 316.283 30.4865 316.298 35.1413C316.298 39.7961 312.292 43.7986 306.573 45.0681C307.691 47.083 309.159 49.0513 310.964 50.942C312.657 50.4217 314.625 50.15 316.717 50.15C321.229 50.15 325.93 51.369 329.614 53.4965C333.221 55.5735 335.372 58.2211 335.67 60.9426C335.814 62.2276 335.531 63.4428 334.851 64.5259C338.466 65.6401 342.247 66.5291 346.121 67.1775C348.237 63.7106 354.732 61.358 362.481 61.358V61.3541ZM362.516 55.5812C353.377 55.5812 344.77 53.5159 338.279 49.7657C331.594 45.9067 327.91 40.7084 327.914 35.1335C327.914 29.5664 331.586 24.3836 338.252 20.5325C344.732 16.7939 353.319 14.7324 362.442 14.7324C371.566 14.7324 380.188 16.7978 386.675 20.548C393.36 24.4069 397.041 29.6013 397.041 35.1762C397.041 40.7511 393.372 45.93 386.702 49.7812C380.227 53.5198 371.635 55.5812 362.516 55.5812ZM362.438 16.9414C353.696 16.9414 345.496 18.8942 339.355 22.4464C333.399 25.8822 330.119 30.3894 330.119 35.1335C330.119 39.8854 333.407 44.4043 339.382 47.8556C345.547 51.4156 353.762 53.3761 362.516 53.3761C371.271 53.3761 379.454 51.4234 385.6 47.875C391.555 44.4354 394.836 39.9281 394.836 35.1801C394.836 30.4321 391.547 25.9093 385.573 22.4619C379.408 18.9058 371.193 16.9453 362.438 16.9453V16.9414Z" fill="#0D0D0D"/>
<path d="M392.07 87.8937C391.461 87.8937 390.964 87.4007 390.964 86.7912V65.105C390.964 64.4955 391.461 64.0024 392.07 64.0024C392.68 64.0024 393.173 64.4955 393.173 65.105V86.7912C393.173 87.4007 392.68 87.8937 392.07 87.8937Z" fill="#0D0D0D"/>
<path d="M378.266 91.1969C377.657 91.1969 377.164 90.7039 377.164 90.0944V68.4043C377.164 67.7948 377.657 67.3018 378.266 67.3018C378.876 67.3018 379.373 67.7948 379.373 68.4043V90.0944C379.373 90.7039 378.876 91.1969 378.266 91.1969Z" fill="#0D0D0D"/>
<path d="M414.338 75.036C413.729 75.036 413.232 74.543 413.232 73.9335V52.2435C413.232 51.6339 413.729 51.1409 414.338 51.1409C414.948 51.1409 415.441 51.6339 415.441 52.2435V73.9335C415.441 74.543 414.948 75.036 414.338 75.036Z" fill="#0D0D0D"/>
<path d="M346.745 91.1815C346.136 91.1815 345.643 90.6885 345.643 90.0789V68.3928C345.643 67.7833 346.14 67.2903 346.745 67.2903C347.351 67.2903 347.848 67.7833 347.848 68.3928V90.0789C347.848 90.6885 347.351 91.1815 346.745 91.1815Z" fill="#0D0D0D"/>
<path d="M332.951 87.8709C332.341 87.8709 331.844 87.3779 331.844 86.7684V65.0784C331.844 64.4689 332.341 63.9758 332.951 63.9758C333.56 63.9758 334.053 64.4689 334.053 65.0784V86.7684C334.053 87.3779 333.56 87.8709 332.951 87.8709Z" fill="#0D0D0D"/>
<path d="M310.656 74.9969C310.047 74.9969 309.553 74.5039 309.553 73.8944V52.2043C309.553 51.5948 310.047 51.1018 310.656 51.1018C311.266 51.1018 311.759 51.5987 311.759 52.2043V73.8944C311.759 74.5039 311.262 74.9969 310.656 74.9969Z" fill="#0D0D0D"/>
<path d="M409.768 35.1735C409.768 39.739 414.217 43.5125 420.064 44.2734C420.06 44.2734 420.052 44.2734 420.044 44.2734V26.0852C414.202 26.8422 409.76 30.6157 409.768 35.1774V35.1735Z" fill="#0D0D0D"/>
<path d="M420.114 45.3715C420.114 45.3715 420.079 45.3715 420.06 45.3715C420.013 45.3715 419.963 45.3715 419.916 45.3638C419.916 45.3638 419.916 45.3638 419.913 45.3638C419.913 45.3638 419.901 45.3638 419.897 45.3638C413.387 44.5097 408.658 40.2237 408.658 35.1729C408.654 30.1144 413.379 25.8323 419.897 24.9859C420.204 24.9432 420.53 25.0403 420.771 25.2538C421.007 25.4635 421.147 25.7663 421.147 26.0846V43.8847C421.194 44.005 421.217 44.1409 421.217 44.2768C421.217 44.8863 420.724 45.3793 420.114 45.3793V45.3715ZM418.938 27.3852C414.186 28.4062 410.863 31.543 410.867 35.169C410.867 38.7873 414.194 41.9319 418.942 42.9568V27.3852H418.938Z" fill="#0D0D0D"/>
<path d="M395.931 54.4719C390.353 57.6941 388.877 62.1742 392.069 65.1014V79.3492C392.985 78.2272 394.25 77.1325 395.931 76.1619C401.51 72.9397 409.271 72.0895 414.337 73.9335V52.2435C409.271 50.4033 401.514 51.2535 395.931 54.4758V54.4719Z" fill="#92E490"/>
<path d="M392.069 80.4526C391.945 80.4526 391.816 80.4293 391.696 80.3866C391.257 80.2313 390.966 79.8159 390.966 79.35V65.5643C389.712 64.2521 389.153 62.672 389.343 60.9638C389.642 58.2424 391.789 55.5986 395.384 53.5216C399.061 51.398 403.754 50.1829 408.258 50.1829C410.641 50.1829 412.878 50.5361 414.718 51.2078C415.153 51.3669 415.444 51.7824 415.444 52.2443V73.9344C415.444 74.2954 415.269 74.6293 414.974 74.8389C414.679 75.0447 414.302 75.0951 413.961 74.9709C412.357 74.3885 410.381 74.078 408.254 74.078C404.127 74.078 399.837 75.1844 396.487 77.1178C395.027 77.9602 393.827 78.9502 392.927 80.0489C392.709 80.309 392.395 80.4526 392.073 80.4526H392.069ZM408.254 52.388C404.123 52.388 399.833 53.4944 396.483 55.4316C393.556 57.1243 391.75 59.2285 391.533 61.2045C391.409 62.3575 391.84 63.398 392.814 64.2909C393.043 64.4966 393.171 64.7956 393.171 65.1023V76.7179C393.839 76.1783 394.577 75.6736 395.376 75.2077C399.053 73.088 403.743 71.8729 408.25 71.8729C410.028 71.8729 411.721 72.0709 413.231 72.4474V53.0441C411.775 52.617 410.071 52.3919 408.254 52.3919V52.388Z" fill="#0D0D0D"/>
<path d="M414.336 52.2385V73.9286C416.84 71.3857 418.762 68.7186 420.063 65.9583V44.2683C418.766 47.0286 416.84 49.6996 414.336 52.2385Z" fill="#0D0D0D"/>
<path d="M414.338 75.0352C414.194 75.0352 414.054 75.008 413.919 74.9537C413.499 74.7828 413.231 74.3791 413.231 73.9326V52.2426C413.231 51.9515 413.348 51.6719 413.554 51.4662C415.968 49.0243 417.82 46.4426 419.063 43.8027C419.284 43.3368 419.789 43.0689 420.305 43.197C420.81 43.3096 421.167 43.7561 421.167 44.2724V65.9624C421.167 66.1255 421.132 66.2846 421.062 66.4321C419.715 69.2934 417.715 72.0808 415.122 74.7052C414.912 74.9226 414.625 75.0352 414.338 75.0352ZM415.44 52.6929V71.0792C416.896 69.336 418.076 67.5386 418.958 65.7101V48.3953C417.956 49.8628 416.784 51.2992 415.44 52.689V52.6929Z" fill="#0D0D0D"/>
<path d="M379.607 51.7427V35.1578H379.603C379.603 32.6305 377.926 30.0993 374.58 28.1698C367.887 24.3031 357.048 24.3031 350.363 28.162C347.016 30.0915 345.347 32.6227 345.347 35.1578V51.7232C355.875 55.3609 369.083 55.3648 379.603 51.7466L379.607 51.7427Z" fill="#0D0D0D"/>
<path d="M362.513 55.5589C356.341 55.5589 350.281 54.5923 344.989 52.7637C344.543 52.6085 344.248 52.193 344.248 51.7233V35.1578C344.248 32.0987 346.224 29.2763 349.811 27.2071C353.208 25.2465 357.699 24.1672 362.459 24.1672C367.219 24.1672 371.726 25.2504 375.131 27.2187C378.675 29.2646 380.655 32.0365 380.706 35.0375C380.709 35.0763 380.713 35.119 380.713 35.1578V51.7427C380.713 52.2125 380.414 52.6356 379.968 52.787C374.7 54.6 368.663 55.5589 362.517 55.5589H362.513ZM346.453 50.9275C356.193 54.0954 368.752 54.1031 378.5 50.9507V35.2704C378.497 35.2355 378.493 35.1967 378.493 35.1578C378.493 32.9295 376.905 30.7903 374.024 29.1287C370.95 27.3546 366.842 26.3762 362.459 26.3762C358.076 26.3762 353.976 27.3507 350.913 29.121C348.037 30.7787 346.453 32.9256 346.453 35.1617V50.9313V50.9275Z" fill="#0D0D0D"/>
<path d="M350.37 42.1475C343.681 38.2847 343.677 32.0227 350.363 28.1637C357.048 24.3048 367.887 24.3048 374.58 28.1715C381.277 32.0343 381.281 38.2925 374.595 42.1553C367.91 46.0142 357.063 46.0103 350.37 42.1475Z" fill="white"/>
<path d="M362.498 46.1496C357.727 46.1496 353.224 45.0665 349.823 43.1021C346.232 41.0251 344.252 38.2027 344.252 35.1474C344.252 32.0921 346.228 29.2775 349.811 27.2083C353.208 25.2477 357.7 24.1685 362.46 24.1685C367.219 24.1685 371.726 25.2516 375.131 27.2199C378.726 29.293 380.71 32.1192 380.71 35.1707C380.71 38.2221 378.738 41.0406 375.151 43.1099C371.758 45.0704 367.262 46.1496 362.502 46.1496H362.498ZM362.46 26.3736C358.08 26.3736 353.977 27.348 350.914 29.1183C348.041 30.776 346.457 32.919 346.457 35.1474C346.457 37.3758 348.045 39.5265 350.926 41.192C354 42.9662 358.111 43.9446 362.498 43.9446C366.885 43.9446 370.977 42.9701 374.044 41.1998C376.921 39.5421 378.505 37.3991 378.505 35.1707C378.505 32.9423 376.917 30.7916 374.029 29.13C370.954 27.3558 366.847 26.3775 362.463 26.3775L362.46 26.3736Z" fill="#0D0D0D"/>
<path d="M75.7507 298.663C96.1168 310.42 129.18 310.403 149.599 298.613C170.008 286.824 170.054 267.738 149.684 255.981C129.308 244.216 96.2516 244.241 75.8358 256.027C55.42 267.816 55.3846 286.902 75.7507 298.663Z" fill="#0D0D0D"/>
<path d="M112.597 308.477H112.594C98.4965 308.477 85.2323 305.304 75.2478 299.539C65.0895 293.674 59.491 285.806 59.491 277.393C59.491 268.979 65.1179 261.054 75.3329 255.154C85.3741 249.357 98.695 246.163 112.835 246.163C126.975 246.163 140.2 249.34 150.188 255.108C160.347 260.973 165.942 268.837 165.942 277.251C165.942 285.693 160.318 293.589 150.103 299.489C140.062 305.286 126.741 308.481 112.597 308.481V308.477ZM112.835 248.18C99.039 248.18 86.0797 251.275 76.3398 256.902C66.7737 262.423 61.5049 269.702 61.5049 277.393C61.5049 285.055 66.7453 292.302 76.2547 297.791C85.9378 303.382 98.844 306.46 112.594 306.46H112.597C126.394 306.46 139.353 303.364 149.093 297.737C158.659 292.213 163.924 284.938 163.924 277.247C163.924 269.585 158.687 262.341 149.178 256.853C139.491 251.258 126.585 248.177 112.835 248.177V248.18Z" fill="#0D0D0D"/>
<path d="M150.265 263.06C156.112 252.936 156.689 243.768 152.9 237.116H152.903L152.872 237.057V237.054L149.379 231.009C145.559 224.335 137.339 220.206 125.622 220.209C102.22 220.209 73.7454 236.674 62.0167 256.987C56.1631 267.124 55.5953 276.307 59.3938 282.96L62.9208 289.069C66.744 295.722 74.9643 299.839 86.6591 299.839C110.061 299.839 138.539 283.373 150.265 263.06Z" fill="#0D0D0D"/>
<path d="M86.6579 300.715C75.0125 300.715 66.3139 296.731 62.1605 289.504L58.6336 283.398C54.5018 276.162 55.4306 266.627 61.2564 256.546C73.1055 236.026 101.981 219.329 125.621 219.329C137.288 219.329 145.993 223.322 150.14 230.574L153.63 236.615C153.63 236.615 153.648 236.646 153.655 236.662C153.664 236.68 153.673 236.696 153.679 236.714C157.771 243.935 156.83 253.445 151.022 263.501C139.176 284.021 110.304 300.718 86.6579 300.718V300.715ZM125.63 221.082C102.537 221.082 74.346 237.384 62.7777 257.422C57.279 266.942 56.3502 275.856 60.1548 282.521L63.6818 288.628C67.5111 295.29 75.6697 298.959 86.661 298.959C109.745 298.959 137.939 282.657 149.51 262.619C155 253.112 155.935 244.209 152.143 237.547C152.124 237.52 152.109 237.489 152.099 237.458L148.622 231.441C144.796 224.757 136.631 221.079 125.633 221.079L125.63 221.082Z" fill="#0D0D0D"/>
<path d="M65.8429 251.313C64.442 253.168 63.1306 255.05 62.0167 256.985C56.1631 267.121 55.5953 276.304 59.3938 282.957L62.9208 289.067C66.744 295.719 74.9643 299.836 86.6591 299.836C88.9209 299.836 91.2382 299.638 93.571 299.342L65.8429 251.31V251.313Z" fill="#92E490"/>
<path d="M86.6579 300.714C75.0125 300.714 66.3139 296.731 62.1605 289.504L58.6336 283.398C54.5018 276.162 55.4306 266.627 61.2564 256.546C62.2685 254.787 63.5429 252.905 65.1444 250.785C65.3234 250.55 65.6289 250.424 65.8973 250.436C66.1905 250.455 66.4558 250.618 66.604 250.874L94.3351 298.906C94.4832 299.159 94.4894 299.471 94.3598 299.733C94.2271 299.995 93.9741 300.178 93.684 300.215C91.018 300.551 88.7222 300.714 86.661 300.714H86.6579ZM65.7492 252.908C64.5581 254.54 63.58 256.024 62.7746 257.422C57.2759 266.942 56.3471 275.856 60.1518 282.521L63.6787 288.628C67.5081 295.29 75.6666 298.959 86.6579 298.959C88.2995 298.959 90.1046 298.851 92.1443 298.629L65.7492 252.908Z" fill="#0D0D0D"/>
<path d="M83.1516 293.76C106.55 293.76 135.031 277.295 146.757 256.982C158.483 236.669 149.022 220.203 125.62 220.203C102.218 220.203 73.7433 236.669 62.0145 256.982C50.2858 277.295 59.7527 293.76 83.1516 293.76Z" fill="white"/>
<path d="M83.152 294.636C71.5251 294.636 62.8296 290.665 58.667 283.453C54.4889 276.22 55.4085 266.664 61.2528 256.54C73.1019 236.02 101.978 219.323 125.617 219.323C137.244 219.323 145.937 223.295 150.102 230.503C154.277 237.736 153.358 247.295 147.517 257.416C135.667 277.936 106.795 294.633 83.152 294.633V294.636ZM125.62 221.079C102.536 221.079 74.3454 237.381 62.7771 257.419C57.2599 266.976 56.3404 275.909 60.1882 282.577C64.0268 289.22 72.1792 292.883 83.152 292.883C106.236 292.883 134.43 276.581 145.998 256.543C151.516 246.987 152.435 238.05 148.584 231.382C144.749 224.739 136.593 221.079 125.62 221.079Z" fill="#0D0D0D"/>
<path d="M134.696 256.984C143.086 242.45 136.316 230.672 119.576 230.669C102.836 230.669 82.464 242.45 74.0771 256.984C65.684 271.518 72.454 283.293 89.197 283.296C105.937 283.296 126.312 271.515 134.696 256.984ZM86.1329 256.984C91.1873 248.23 103.453 241.136 113.534 241.139C123.615 241.139 127.691 248.23 122.64 256.984C117.589 265.735 105.32 272.829 95.2388 272.829C85.1579 272.829 81.0786 265.735 86.1329 256.984ZM98.1918 256.984C99.9044 254.016 104.07 251.606 107.489 251.606C110.908 251.606 112.293 254.012 110.578 256.984C108.862 259.952 104.7 262.362 101.278 262.359C97.8586 262.359 96.4731 259.952 98.1888 256.984H98.1918Z" fill="#92E490"/>
<path d="M89.1972 284.172C80.7856 284.172 74.4877 281.284 71.4668 276.047C68.4336 270.792 69.0909 263.868 73.3183 256.545C81.8317 241.796 102.583 229.796 119.576 229.792C127.988 229.792 134.282 232.678 137.306 237.917C140.34 243.172 139.682 250.099 135.455 257.422C126.945 272.168 106.19 284.169 89.1942 284.172H89.1972ZM119.576 231.548C103.142 231.548 83.0721 243.157 74.8364 257.422C70.9361 264.176 70.2758 270.48 72.9819 275.168C75.6788 279.842 81.4367 282.416 89.1972 282.416C105.635 282.416 125.707 270.808 133.94 256.542C137.84 249.785 138.497 243.481 135.791 238.793C133.094 234.122 127.336 231.548 119.579 231.545L119.576 231.548ZM95.239 273.705C90.0458 273.705 86.1424 271.906 84.2601 268.638C82.3686 265.361 82.7667 261.066 85.3772 256.542C90.5581 247.563 103.191 240.259 113.531 240.259H113.534C118.727 240.259 122.628 242.058 124.513 245.323C126.405 248.6 126.01 252.895 123.402 257.419C118.218 266.398 105.582 273.702 95.2421 273.702L95.239 273.705ZM113.531 242.015C103.746 242.015 91.7954 248.927 86.8953 257.422C84.6119 261.378 84.2139 265.05 85.7783 267.762C87.3366 270.465 90.6969 271.949 95.239 271.949C105.024 271.949 116.975 265.037 121.881 256.542C124.164 252.587 124.559 248.911 122.995 246.202C121.437 243.502 118.076 242.015 113.534 242.015H113.531ZM101.287 263.235H101.281C99.3029 263.235 97.8033 262.519 97.0534 261.226C96.3036 259.927 96.4363 258.264 97.433 256.545C99.3152 253.284 103.734 250.729 107.492 250.729C109.47 250.729 110.973 251.442 111.72 252.738C112.47 254.037 112.337 255.7 111.343 257.422C109.461 260.68 105.045 263.235 101.29 263.235H101.287ZM107.492 252.482C104.41 252.482 100.497 254.743 98.9542 257.419C98.2846 258.573 98.1519 259.613 98.5747 260.347C98.9943 261.075 99.954 261.48 101.278 261.48L101.29 262.356V261.48C104.37 261.48 108.279 259.218 109.825 256.542C110.492 255.385 110.627 254.345 110.202 253.611C109.782 252.883 108.819 252.482 107.492 252.482Z" fill="#0D0D0D"/>
<path d="M59.2645 192.47C62.5168 198.105 71.2247 203.909 73.8321 204.054C70.7124 198.651 67.5928 193.251 64.4732 187.848C61.8688 187.7 58.3511 186.515 54.6946 184.555C57.8142 189.962 56.1449 187.067 59.2645 192.467V192.47Z" fill="#92E490"/>
<path d="M73.833 204.934C73.8145 204.934 73.7991 204.934 73.7805 204.934C70.6918 204.761 61.8111 198.633 58.5063 192.912L53.9364 185.001C53.7389 184.661 53.7914 184.232 54.066 183.951C54.3376 183.667 54.7603 183.603 55.109 183.788C58.6329 185.676 62.0611 186.84 64.5204 186.978C64.8166 186.994 65.082 187.16 65.2301 187.414L74.5859 203.62C74.7464 203.897 74.7433 204.243 74.5736 204.518C74.4162 204.777 74.1292 204.937 73.8268 204.937L73.833 204.934ZM56.9018 186.621L60.0276 192.036C62.6227 196.535 68.5626 200.892 71.9291 202.518L63.9464 188.694C61.9315 188.5 59.503 187.784 56.9018 186.624V186.621Z" fill="#0D0D0D"/>
<path d="M104.389 257.861C104.087 257.861 103.791 257.704 103.63 257.423L61.8159 184.998C61.5722 184.579 61.7172 184.042 62.1368 183.801C62.5596 183.557 63.0934 183.705 63.3341 184.122L105.145 256.546C105.389 256.966 105.244 257.503 104.824 257.744C104.689 257.824 104.537 257.861 104.386 257.861H104.389Z" fill="#0D0D0D"/>
<path d="M63.2818 199.469C66.531 205.091 72.5543 206.229 73.9058 204.187C70.7955 198.799 67.682 193.408 64.5716 188.021C63.2232 190.063 61.1218 191.341 58.7273 191.572C61.8438 196.966 60.1776 194.078 63.2818 199.469Z" fill="white"/>
<path d="M71.6068 206.01C68.842 206.01 64.9602 204.122 62.5256 199.91L57.9711 192.014C57.823 191.754 57.8137 191.44 57.9495 191.174C58.0853 190.909 58.3475 190.73 58.6469 190.702C60.7914 190.492 62.6336 189.369 63.8432 187.539C64.0098 187.286 64.3029 187.135 64.6022 187.144C64.9077 187.154 65.1824 187.32 65.3366 187.583L74.6709 203.749C74.8375 204.036 74.8282 204.393 74.6431 204.671C74.0753 205.535 72.9984 206.01 71.6099 206.01H71.6068ZM60.1156 192.22L64.0437 199.034C66.1173 202.622 69.419 204.255 71.6068 204.258C72.0912 204.258 72.5047 204.174 72.7979 204.023L64.4665 189.591C63.297 190.884 61.7881 191.798 60.1156 192.223V192.22Z" fill="#0D0D0D"/>
<path d="M71.177 185.794C74.4231 191.413 75.0834 201.849 73.9016 204.185C70.7912 198.797 67.6778 193.407 64.5674 188.019C65.7461 185.683 66.4805 182.039 66.6194 177.898C69.7328 183.289 68.0666 180.4 71.177 185.794Z" fill="#92E490"/>
<path d="M73.9015 205.061C73.5868 205.061 73.2967 204.894 73.1425 204.623L63.8082 188.457C63.6601 188.201 63.6508 187.886 63.7835 187.624C64.8944 185.424 65.6102 181.869 65.7429 177.87C65.7553 177.481 66.0268 177.145 66.4095 177.049C66.7921 176.953 67.187 177.123 67.3814 177.462L71.9359 185.359C75.2345 191.073 76.08 201.821 74.6822 204.583C74.5372 204.87 74.2471 205.055 73.9231 205.064H73.9015V205.061ZM65.5578 187.978L73.522 201.772C73.8059 198.044 73.0128 190.725 70.4178 186.232L67.2981 180.823C66.9957 183.665 66.4002 186.13 65.5578 187.978Z" fill="#0D0D0D"/>
<path d="M75.0181 192.472C78.2735 198.106 76.2647 203.913 73.8301 204.055C70.7105 198.652 67.5908 193.252 64.4712 187.849C66.9058 187.701 69.0565 186.516 70.4482 184.557C73.5678 189.963 71.8985 187.069 75.0181 192.469V192.472Z" fill="white"/>
<path d="M73.8328 204.935C73.518 204.935 73.2311 204.768 73.0737 204.497L63.7148 188.29C63.5636 188.028 63.5574 187.704 63.7024 187.436C63.8444 187.167 64.119 186.994 64.4214 186.976C66.6061 186.846 68.4914 185.806 69.735 184.054C69.9109 183.81 70.1886 183.662 70.4941 183.683C70.7903 183.696 71.0618 183.862 71.213 184.122L75.7829 192.033C78.1651 196.159 77.9244 200.433 76.6284 202.836C75.9341 204.126 74.9591 204.87 73.8852 204.935C73.8667 204.935 73.8513 204.935 73.8328 204.935ZM65.8871 188.54L74.2401 203.012C74.5363 202.818 74.8295 202.469 75.0794 202.006C76.11 200.096 76.289 196.437 74.2586 192.913L70.3182 186.09C69.1209 187.328 67.5842 188.176 65.8871 188.543V188.54Z" fill="#0D0D0D"/>
<path d="M184.822 31.6023L181.77 33.3647V35.6132C181.77 60.0271 197.999 90.319 211.283 97.9919L214.335 96.2295V95.6226C213.354 93.7532 212.41 91.7768 211.513 89.6865C202.521 81.981 191.091 61.6175 189.047 42.0608L199.592 48.1503L202.645 46.3878C202.628 45.4741 202.612 44.5533 202.614 43.6279V43.607C202.614 43.0303 202.666 42.4816 202.752 41.9585L184.822 31.6023Z" fill="#92E490"/>
<path d="M211.282 98.653C211.168 98.653 211.054 98.6228 210.951 98.5647C197.517 90.8057 181.106 60.2325 181.106 35.6116V33.3655C181.106 33.1283 181.232 32.9098 181.438 32.7935L184.491 31.0311C184.698 30.9125 184.947 30.9125 185.154 31.0311L203.083 41.3872C203.32 41.5244 203.451 41.7941 203.404 42.0662C203.33 42.5266 203.288 42.9683 203.278 43.4101C203.299 43.4729 203.309 43.5403 203.309 43.6101C203.309 43.6845 203.297 43.7519 203.276 43.8193C203.276 44.6889 203.292 45.5353 203.309 46.3793C203.313 46.6188 203.185 46.8443 202.979 46.9629L199.926 48.7254C199.721 48.8439 199.47 48.8439 199.265 48.7254L189.858 43.2938C192.206 61.9972 203.016 81.5354 211.949 89.1897C212.026 89.2548 212.084 89.3385 212.126 89.4315C212.998 91.4567 213.939 93.4401 214.927 95.3188C214.979 95.4141 215.002 95.5187 215.002 95.6257V96.2326C215.002 96.4697 214.876 96.6883 214.672 96.8045L211.619 98.567C211.516 98.6251 211.403 98.6553 211.289 98.6553L211.282 98.653ZM182.429 33.7468V35.6139C182.429 59.621 198.212 89.3362 211.286 97.2277L213.674 95.7861C212.721 93.9632 211.812 92.0473 210.965 90.0895C201.656 82.0213 190.409 61.4648 188.388 42.1313C188.363 41.8848 188.477 41.643 188.686 41.5081C188.895 41.371 189.16 41.3663 189.376 41.4895L199.591 47.3861L201.976 46.0096C201.962 45.2191 201.951 44.4239 201.953 43.6263C201.953 43.1799 201.979 42.7474 202.035 42.3057L184.824 32.3657L182.431 33.7468H182.429Z" fill="#0D0D0D"/>
<path d="M199.698 43.7183C199.612 44.2438 199.559 44.7902 199.559 45.3692V45.3901C199.559 46.3132 199.573 47.2339 199.591 48.15L185.717 40.1399C186.582 60.7639 198.903 83.2596 208.464 91.4511C209.359 93.5414 210.303 95.5177 211.282 97.3871V97.994C197.999 90.3211 181.769 60.0292 181.769 35.6152V33.3645L199.698 43.7207V43.7183Z" fill="white"/>
<path d="M211.281 98.6523C211.167 98.6523 211.053 98.6221 210.951 98.5639C197.517 90.805 181.106 60.2317 181.106 35.6109V33.3648C181.106 33.1276 181.231 32.9091 181.438 32.7928C181.64 32.6742 181.894 32.6742 182.099 32.7928L200.028 43.149C200.267 43.2861 200.395 43.5582 200.349 43.8279C200.263 44.358 200.218 44.8626 200.218 45.3718C200.218 46.3111 200.232 47.2296 200.251 48.1387C200.256 48.3759 200.132 48.5991 199.925 48.72C199.718 48.8409 199.465 48.8432 199.258 48.7223L186.44 41.3191C187.751 62.2802 200.195 83.4971 208.891 90.9491C208.968 91.0142 209.031 91.0956 209.068 91.1909C209.93 93.2068 210.872 95.1878 211.865 97.0782C211.914 97.1735 211.942 97.2781 211.942 97.3851V97.992C211.942 98.2291 211.816 98.4477 211.611 98.5639C211.509 98.6221 211.395 98.6523 211.281 98.6523ZM182.429 34.5087V35.6132C182.429 58.8646 197.231 87.4684 210.04 96.4155C209.296 94.9297 208.582 93.4021 207.917 91.8513C198.874 84.0063 185.965 61.7965 185.058 40.1658C185.047 39.924 185.17 39.6985 185.375 39.5729C185.582 39.4497 185.84 39.445 186.047 39.5659L198.909 46.9947C198.9 46.4623 198.898 45.9275 198.898 45.3927C198.898 44.944 198.926 44.5092 198.979 44.0697L182.429 34.5111V34.5087Z" fill="#0D0D0D"/>
<path d="M266.4 155.208L226.631 132.25L186.913 155.183V172.809L226.679 195.77L266.4 172.837V155.208Z" fill="#92E490"/>
<path d="M226.68 196.43C226.564 196.43 226.452 196.399 226.35 196.341L186.583 173.383C186.378 173.264 186.253 173.046 186.253 172.811V155.184C186.253 154.947 186.378 154.728 186.583 154.612L226.301 131.679C226.508 131.561 226.757 131.561 226.963 131.679L266.733 154.638C266.935 154.756 267.063 154.975 267.063 155.21V172.839C267.063 173.074 266.937 173.295 266.733 173.411L227.01 196.344C226.908 196.404 226.796 196.432 226.68 196.432V196.43ZM187.576 172.427L226.68 195.004L265.74 172.453V155.586L226.631 133.009L187.576 155.561V172.425V172.427Z" fill="#0D0D0D"/>
<path d="M266.4 155.207L226.631 132.249L186.913 155.182L226.679 178.143L266.4 155.207Z" fill="white"/>
<path d="M226.68 178.803C226.564 178.803 226.452 178.776 226.35 178.715L186.583 155.754C186.378 155.636 186.253 155.417 186.253 155.182C186.253 154.948 186.378 154.727 186.583 154.61L226.301 131.678C226.508 131.559 226.757 131.559 226.963 131.678L266.733 154.636C266.935 154.755 267.063 154.973 267.063 155.208C267.063 155.443 266.937 155.664 266.733 155.78L227.01 178.715C226.908 178.776 226.796 178.803 226.68 178.803ZM188.236 155.182L226.68 177.38L265.077 155.208L226.631 133.012L188.236 155.182Z" fill="#0D0D0D"/>
<path d="M226.678 178.142V195.769L266.398 172.836V155.207L226.678 178.142Z" fill="#0D0D0D"/>
<path d="M226.678 196.43C226.562 196.43 226.451 196.399 226.348 196.341C226.141 196.223 226.018 196.006 226.018 195.769V178.142C226.018 177.908 226.144 177.689 226.348 177.57L266.069 154.635C266.275 154.517 266.524 154.517 266.731 154.635C266.933 154.754 267.061 154.972 267.061 155.207V172.837C267.061 173.071 266.936 173.292 266.731 173.408L227.009 196.341C226.906 196.402 226.795 196.43 226.678 196.43ZM227.339 178.524V194.625L265.738 172.455V156.354L227.339 178.524Z" fill="#0D0D0D"/>
<path d="M222.278 188.138L222.276 180.686L191.321 162.815V170.264L222.278 188.138Z" fill="white"/>
<path d="M249.774 155.195C249.774 149.52 245.31 146.127 237.909 142.351L237.864 142.384C231.417 139.156 221.884 139.152 215.445 142.379L215.406 142.354C215.125 142.5 214.86 142.642 214.581 142.784C214.557 142.798 214.529 142.805 214.506 142.819C214.492 142.826 214.485 142.832 214.471 142.839C207.64 146.422 203.552 149.761 203.541 155.181V155.195C203.548 158.613 205.805 162.024 210.323 164.628C219.356 169.848 233.991 169.848 243.015 164.64C247.532 162.033 249.785 158.613 249.776 155.198L249.774 155.195Z" fill="#92E490"/>
<path d="M226.682 169.202C220.388 169.202 214.461 167.779 209.992 165.198C205.414 162.559 202.886 159.006 202.879 155.195C202.891 149.354 207.399 145.799 214.163 142.251L215.103 141.765C215.175 141.726 215.254 141.705 215.333 141.695C218.504 140.149 222.508 139.301 226.638 139.301C230.767 139.301 234.79 140.152 237.973 141.702C238.054 141.707 238.135 141.726 238.205 141.763C245.753 145.613 250.433 149.203 250.433 155.195C250.442 159.011 247.922 162.568 243.341 165.21C238.879 167.783 232.962 169.202 226.679 169.202H226.682ZM215.528 143.032L214.879 143.37C208.255 146.841 204.209 150.001 204.2 155.179C204.205 158.508 206.497 161.657 210.65 164.052C214.921 166.519 220.613 167.879 226.679 167.879C232.734 167.879 238.414 166.523 242.679 164.063C246.834 161.666 249.117 158.515 249.11 155.193C249.11 149.896 244.96 146.706 237.782 143.028C237.705 143.023 237.629 143.004 237.561 142.97C234.531 141.451 230.649 140.617 226.635 140.617C222.622 140.617 218.755 141.449 215.735 142.965C215.668 142.997 215.596 143.021 215.523 143.03L215.528 143.032Z" fill="#0D0D0D"/>
<path d="M237.908 142.351L237.864 142.384C234.641 140.772 230.647 139.963 226.657 139.961C228.763 139.961 230.872 140.768 232.574 142.384L232.6 142.354C236.511 146.132 238.868 149.522 238.868 155.195C239.745 156.832 241.256 161.301 241.824 165.261C242.228 165.058 242.628 164.861 243.009 164.642C247.527 162.036 249.78 158.616 249.771 155.2C249.771 149.524 245.307 146.132 237.906 142.356L237.908 142.351Z" fill="#0D0D0D"/>
<path d="M241.86 165.878C241.757 165.878 241.657 165.859 241.576 165.815C241.388 165.715 241.202 165.562 241.171 165.353C240.609 161.428 239.109 157.038 238.286 155.506C238.235 155.41 238.207 155.303 238.207 155.194C238.207 149.825 236.04 146.626 232.289 142.973C232.227 142.945 232.168 142.91 232.12 142.864C230.597 141.42 228.66 140.625 226.663 140.622H226.653C226.288 140.622 225.993 140.325 225.993 139.962C225.993 139.599 226.291 139.302 226.653 139.302H226.665C230.79 139.306 234.794 140.157 237.974 141.704C238.056 141.708 238.137 141.727 238.207 141.764C245.754 145.615 250.435 149.205 250.435 155.196C250.444 159.012 247.924 162.569 243.343 165.211C242.985 165.418 242.611 165.604 242.234 165.792C242.129 165.846 241.99 165.878 241.86 165.878ZM239.528 155.031C240.36 156.666 241.685 160.516 242.336 164.257C242.453 164.195 242.569 164.132 242.683 164.067C246.838 161.67 249.121 158.519 249.114 155.196C249.114 149.9 244.964 146.71 237.786 143.031C237.709 143.027 237.635 143.008 237.567 142.973C235.963 142.171 234.124 141.559 232.15 141.162C232.396 141.348 232.638 141.546 232.871 141.757C232.94 141.785 233.003 141.825 233.057 141.876C237.014 145.698 239.481 149.242 239.528 155.029V155.031Z" fill="#0D0D0D"/>
<path d="M238.814 156.851C245.516 152.984 245.513 146.699 238.796 142.826C232.085 138.95 221.209 138.952 214.505 142.816C207.799 146.69 207.806 152.97 214.519 156.841C221.232 160.722 232.109 160.72 238.814 156.851Z" fill="#92E490"/>
<path d="M226.673 160.414C221.967 160.414 217.531 159.349 214.187 157.414C210.725 155.419 208.819 152.722 208.816 149.825C208.816 146.932 210.718 144.24 214.174 142.243C217.512 140.315 221.939 139.255 226.641 139.255C231.342 139.255 235.781 140.32 239.127 142.252C242.589 144.249 244.498 146.946 244.498 149.844C244.498 152.741 242.596 155.429 239.143 157.421C235.802 159.351 231.373 160.411 226.676 160.411L226.673 160.414ZM226.639 140.58C222.167 140.58 217.975 141.578 214.832 143.391C211.804 145.14 210.137 147.425 210.137 149.827C210.137 152.231 211.811 154.522 214.845 156.273C217.994 158.093 222.193 159.093 226.671 159.093C231.14 159.093 235.335 158.095 238.476 156.28C241.503 154.533 243.17 152.25 243.17 149.846C243.17 147.442 241.496 145.151 238.46 143.398C235.314 141.58 231.114 140.578 226.636 140.578L226.639 140.58Z" fill="#0D0D0D"/>
<path d="M237.501 145.999H237.513C234.325 142.63 233.469 140.714 233.472 133.388C233.469 133.388 233.469 133.383 233.469 133.381C233.469 132.376 232.8 131.374 231.472 130.602C228.81 129.065 224.501 129.068 221.841 130.6C220.453 131.404 219.809 132.465 219.872 133.513C219.863 140.556 219.028 142.565 216.047 145.762C212.757 148.615 213.292 152.51 217.661 155.03C222.634 157.906 230.7 157.906 235.674 155.037C239.917 152.589 240.519 148.836 237.503 145.999H237.501Z" fill="white"/>
<path d="M226.672 157.849H226.67C223.149 157.849 219.831 157.052 217.327 155.603C214.916 154.21 213.479 152.329 213.284 150.302C213.112 148.504 213.939 146.714 215.614 145.263C218.422 142.243 219.199 140.427 219.211 133.512C219.129 132.21 219.966 130.924 221.508 130.027C224.284 128.429 229.032 128.431 231.799 130.027C233.275 130.882 234.098 132.045 234.126 133.31C234.129 133.333 234.131 133.358 234.131 133.384C234.126 140.508 234.905 142.278 237.993 145.54C238.009 145.556 238.026 145.575 238.037 145.593C239.509 147.014 240.209 148.725 240.011 150.423C239.783 152.406 238.358 154.245 236 155.605C233.499 157.049 230.183 157.844 226.672 157.844V157.849ZM226.653 130.113C224.949 130.113 223.356 130.489 222.17 131.173C221.064 131.817 220.48 132.633 220.534 133.472C220.522 140.773 219.576 142.95 216.532 146.214C215.118 147.444 214.47 148.795 214.602 150.176C214.756 151.767 215.958 153.287 217.99 154.459C220.299 155.794 223.38 156.528 226.672 156.528H226.674C229.957 156.528 233.036 155.796 235.34 154.466C237.326 153.32 238.521 151.832 238.7 150.276C238.853 148.955 238.284 147.644 237.049 146.484C237.012 146.449 236.982 146.412 236.954 146.372C233.701 142.919 232.81 140.871 232.81 133.451C232.808 133.431 232.806 133.407 232.806 133.384C232.806 132.584 232.213 131.801 231.139 131.177C229.953 130.494 228.358 130.115 226.656 130.115L226.653 130.113Z" fill="#0D0D0D"/>
<path d="M237.502 146H237.514C234.326 142.63 233.47 140.715 233.472 133.388C233.47 133.388 233.47 133.383 233.47 133.381C233.47 132.377 232.8 131.374 231.473 130.602C230.141 129.835 228.399 129.449 226.657 129.449C227.622 129.449 228.585 129.835 229.322 130.602C230.059 131.37 230.427 132.377 230.427 133.381V133.39C230.427 140.71 230.901 142.633 232.663 146H232.659C234.298 148.785 235.616 154.819 232.621 156.3C233.705 155.965 234.756 155.565 235.672 155.035C239.915 152.587 240.518 148.834 237.502 145.997V146Z" fill="#0D0D0D"/>
<path d="M232.62 156.961C232.355 156.961 232.109 156.801 232.006 156.545C231.878 156.224 232.018 155.861 232.327 155.708C232.897 155.426 233.301 154.894 233.532 154.129C234.164 152.006 233.294 148.386 232.09 146.337C232.071 146.307 232.057 146.275 232.044 146.242C230.253 142.801 229.765 140.783 229.765 133.389C229.765 132.503 229.437 131.677 228.844 131.059C228.256 130.447 227.479 130.108 226.656 130.108C226.291 130.108 225.996 129.813 225.996 129.448C225.996 129.083 226.291 128.787 226.656 128.787C228.584 128.787 230.411 129.229 231.802 130.029C233.278 130.885 234.101 132.047 234.129 133.312C234.131 133.335 234.134 133.361 234.134 133.386C234.129 140.511 234.908 142.28 237.996 145.542C238.012 145.559 238.028 145.577 238.04 145.596C239.512 147.016 240.212 148.728 240.014 150.425C239.786 152.408 238.361 154.248 236.003 155.608C235.15 156.101 234.108 156.533 232.815 156.931C232.753 156.952 232.685 156.961 232.622 156.961H232.62ZM233.264 145.731C234.413 147.723 235.629 151.711 234.796 154.506C234.766 154.606 234.734 154.706 234.699 154.801C234.924 154.692 235.136 154.58 235.338 154.464C237.324 153.318 238.519 151.829 238.698 150.274C238.852 148.953 238.282 147.642 237.047 146.482C237.01 146.447 236.98 146.41 236.952 146.37C233.699 142.917 232.808 140.869 232.808 133.449C232.806 133.428 232.804 133.405 232.804 133.382C232.804 132.582 232.211 131.798 231.137 131.175C230.876 131.024 230.593 130.889 230.295 130.768C230.807 131.531 231.083 132.435 231.083 133.382C231.083 140.599 231.518 142.392 233.246 145.693C233.253 145.705 233.257 145.719 233.264 145.731Z" fill="#0D0D0D"/>
<path d="M231.476 136.165C234.134 134.63 234.129 132.142 231.469 130.603C228.807 129.066 224.499 129.068 221.839 130.601C219.179 132.135 219.181 134.626 221.843 136.16C224.503 137.697 228.819 137.702 231.476 136.165Z" fill="#92E490"/>
<path d="M226.67 137.976C224.736 137.976 222.904 137.534 221.515 136.732C220.016 135.867 219.188 134.674 219.188 133.379C219.188 132.084 220.011 130.894 221.513 130.026C224.285 128.431 229.035 128.434 231.802 130.029C233.304 130.898 234.132 132.089 234.129 133.389C234.129 134.684 233.306 135.872 231.809 136.737C230.428 137.537 228.6 137.976 226.67 137.976ZM226.656 130.115C224.952 130.115 223.359 130.491 222.173 131.175C221.102 131.794 220.511 132.577 220.511 133.382C220.511 134.186 221.104 134.97 222.178 135.59C223.369 136.279 224.966 136.658 226.673 136.658C228.377 136.658 229.965 136.281 231.148 135.597C232.22 134.979 232.809 134.198 232.809 133.396C232.809 132.589 232.216 131.803 231.142 131.182C229.951 130.496 228.358 130.119 226.654 130.119L226.656 130.115Z" fill="#0D0D0D"/>
<path d="M235.247 125.195C235.247 120.449 231.399 116.601 226.656 116.601C221.91 116.604 218.067 120.449 218.062 125.195C218.062 129.941 221.91 133.789 226.656 133.791C231.404 133.789 235.247 129.941 235.247 125.195Z" fill="#92E490"/>
<path d="M226.652 134.451C221.551 134.447 217.398 130.294 217.398 125.195C217.401 120.096 221.553 115.943 226.652 115.941C231.754 115.941 235.907 120.091 235.907 125.195C235.907 130.299 231.756 134.449 226.652 134.451ZM226.652 117.262C222.281 117.266 218.724 120.824 218.721 125.195C218.721 129.566 222.279 133.126 226.652 133.131C231.026 133.128 234.584 129.566 234.584 125.195C234.584 120.824 231.026 117.264 226.652 117.264V117.262Z" fill="#0D0D0D"/>
<path d="M229.086 116.994C231.237 118.554 232.656 121.075 232.656 123.941C232.656 128.689 228.81 132.537 224.064 132.535C223.213 132.535 222.411 132.372 221.632 132.144C223.048 133.168 224.776 133.791 226.652 133.791C231.4 133.788 235.243 129.94 235.243 125.195C235.243 121.3 232.635 118.05 229.084 116.994H229.086Z" fill="#0D0D0D"/>
<path d="M226.654 134.451C224.717 134.451 222.848 133.837 221.248 132.679C220.988 132.491 220.902 132.142 221.041 131.854C221.181 131.566 221.511 131.419 221.82 131.51C222.669 131.756 223.381 131.873 224.066 131.873C228.442 131.873 231.997 128.313 231.997 123.942C231.997 121.423 230.763 119.026 228.698 117.529C228.438 117.341 228.349 116.989 228.493 116.701C228.635 116.413 228.965 116.264 229.275 116.359C233.241 117.538 235.906 121.089 235.906 125.193C235.906 130.294 231.756 134.447 226.652 134.449L226.654 134.451ZM225.636 133.063C225.973 133.107 226.313 133.131 226.654 133.131C231.026 133.128 234.585 129.566 234.585 125.195C234.585 122.993 233.688 120.975 232.181 119.528C232.916 120.87 233.318 122.386 233.318 123.942C233.318 128.51 229.991 132.317 225.634 133.063H225.636Z" fill="#0D0D0D"/>
<path d="M231.476 122.066C234.133 120.527 234.129 118.039 231.469 116.502C228.806 114.968 224.498 114.965 221.838 116.502C219.18 118.035 219.18 120.523 221.842 122.059C224.502 123.596 228.818 123.596 231.476 122.066Z" fill="white"/>
<path d="M226.668 123.873C224.731 123.873 222.901 123.434 221.513 122.632C220.013 121.767 219.186 120.574 219.188 119.276C219.188 117.981 220.013 116.793 221.511 115.928C224.275 114.326 229.026 114.328 231.8 115.928C233.302 116.795 234.127 117.986 234.129 119.283C234.129 120.578 233.306 121.769 231.809 122.636C230.423 123.431 228.598 123.871 226.668 123.871V123.873ZM226.652 116.012C224.947 116.012 223.357 116.389 222.173 117.074C221.102 117.693 220.511 118.474 220.511 119.279C220.511 120.083 221.102 120.869 222.178 121.49C224.552 122.859 228.775 122.862 231.151 121.497C232.22 120.876 232.811 120.093 232.811 119.29C232.811 118.484 232.218 117.7 231.144 117.077C229.953 116.391 228.358 116.014 226.654 116.014L226.652 116.012Z" fill="#0D0D0D"/>
<path d="M231.469 116.502C230.139 115.734 228.397 115.351 226.656 115.351C227.635 115.351 228.611 115.737 229.36 116.502C230.855 118.039 230.855 120.529 229.362 122.063C228.616 122.831 227.642 123.214 226.66 123.214C228.402 123.214 230.148 122.828 231.476 122.066C234.133 120.527 234.129 118.039 231.469 116.502Z" fill="#0D0D0D"/>
<path d="M226.664 123.876C226.299 123.876 226.004 123.581 226.004 123.215C226.004 122.85 226.297 122.555 226.664 122.553C227.506 122.553 228.298 122.213 228.894 121.602C230.135 120.323 230.133 118.242 228.889 116.961C228.294 116.352 227.501 116.015 226.662 116.012C226.297 116.012 226.001 115.715 226.001 115.35C226.001 114.985 226.299 114.689 226.662 114.689H226.664C228.598 114.689 230.421 115.129 231.805 115.929C233.307 116.796 234.132 117.986 234.135 119.284C234.135 120.579 233.311 121.769 231.814 122.637C230.424 123.434 228.596 123.873 226.669 123.873L226.664 123.876ZM230.361 116.691C231.398 118.247 231.4 120.321 230.363 121.874C230.642 121.76 230.905 121.632 231.151 121.493C232.221 120.872 232.812 120.088 232.812 119.286C232.812 118.479 232.219 117.696 231.144 117.072C230.9 116.931 230.64 116.805 230.363 116.691H230.361Z" fill="#0D0D0D"/>
<path d="M262.122 54.0074V53.9865C262.108 48.7526 258.644 43.5164 251.719 39.5195C237.859 31.514 215.408 31.5163 201.569 39.5009C194.644 43.5024 191.189 48.7479 191.201 53.9865H191.198C191.198 93.5417 208.883 117.518 226.659 117.523C244.432 117.521 262.115 93.551 262.122 54.0097V54.0074Z" fill="#92E490"/>
<path d="M226.656 118.182C208.899 118.18 190.532 94.1659 190.532 53.9875C190.532 53.9643 190.532 53.9434 190.537 53.9201C190.556 48.2282 194.353 42.9059 201.237 38.9276C208.029 35.0098 217.044 32.8521 226.623 32.8521C236.203 32.8521 245.245 35.0168 252.049 38.9462C258.954 42.9338 262.765 48.2724 262.779 53.9852C262.774 94.1752 244.406 118.18 226.656 118.182ZM191.853 54.0526C191.874 93.3661 209.557 116.857 226.656 116.859C243.759 116.857 261.451 93.3451 261.458 54.0061C261.444 48.7653 257.868 43.8313 251.388 40.0902C244.783 36.2747 235.987 34.1727 226.623 34.1727C217.26 34.1727 208.49 36.2677 201.898 40.0716C195.415 43.8197 191.848 48.7606 191.858 53.9829C191.858 54.0061 191.858 54.0294 191.853 54.0526Z" fill="#0D0D0D"/>
<path d="M251.743 68.4788C265.582 60.485 265.573 47.5247 251.715 39.5192C237.855 31.5138 215.403 31.5161 201.564 39.5006C187.725 47.4968 187.739 60.4617 201.597 68.4555C215.45 76.4587 237.906 76.4587 251.745 68.4811L251.743 68.4788Z" fill="white"/>
<path d="M226.699 75.119C217.099 75.119 208.068 72.9543 201.267 69.0248C194.35 65.0349 190.539 59.6871 190.537 53.9672C190.534 48.2544 194.336 42.9135 201.237 38.9259C208.029 35.0081 217.043 32.8503 226.623 32.8503C236.202 32.8503 245.245 35.015 252.048 38.9445C258.968 42.9414 262.779 48.2939 262.779 54.0137C262.779 59.7336 258.977 65.0628 252.076 69.0504C245.287 72.9636 236.277 75.119 226.702 75.119H226.699ZM226.62 34.171C217.269 34.171 208.487 36.266 201.895 40.0699C195.419 43.811 191.855 48.745 191.855 53.9649C191.855 59.1918 195.433 64.1327 201.927 67.8785C208.531 71.6941 217.329 73.796 226.699 73.796C236.047 73.796 244.824 71.7034 251.413 67.9041C257.889 64.1653 261.456 59.2313 261.456 54.0114C261.456 48.7915 257.88 43.8389 251.385 40.0885C244.78 36.2729 235.984 34.171 226.62 34.171Z" fill="#0D0D0D"/>
<path d="M253.304 52.1878C253.09 52.1878 252.883 52.0855 252.755 51.8972C251.371 49.8417 249.277 48.0002 246.535 46.4191C245.401 45.7611 244.133 45.145 242.771 44.5916C242.434 44.4544 242.271 44.0684 242.408 43.7313C242.545 43.3918 242.936 43.2314 243.268 43.3686C244.687 43.9452 246.01 44.5869 247.196 45.2775C250.111 46.9586 252.35 48.9373 253.85 51.1601C254.055 51.4647 253.973 51.8739 253.671 52.0785C253.559 52.1553 253.429 52.1925 253.304 52.1925V52.1878Z" fill="#0D0D0D"/>
<path d="M201.102 65.5697C200.918 65.5697 200.735 65.4929 200.604 65.3418C198.049 62.4098 196.991 59.1081 197.542 55.7948C198.207 51.8025 201.246 48.0614 206.094 45.2596C214.132 40.6186 226.2 39.1096 236.83 41.4068C237.188 41.4836 237.414 41.837 237.337 42.1927C237.26 42.5508 236.902 42.7694 236.551 42.6996C226.22 40.4675 214.525 41.9184 206.754 46.4036C202.253 49.0054 199.444 52.4164 198.847 56.011C198.361 58.9221 199.314 61.8471 201.6 64.4722C201.841 64.7466 201.811 65.1628 201.537 65.4046C201.411 65.5138 201.255 65.5673 201.102 65.5673V65.5697Z" fill="#0D0D0D"/>
<path d="M262.123 53.9852C262.123 53.9433 262.111 53.8968 262.109 53.8503C262.181 59.1424 258.738 64.4437 251.748 68.4778C251.053 68.88 250.323 69.2427 249.588 69.6031C246.961 99.7555 236.837 117.517 226.66 117.522C244.433 117.52 262.116 93.5497 262.123 54.0085V53.9875V53.9852Z" fill="#0D0D0D"/>
<path d="M226.656 118.183C226.291 118.183 225.996 117.887 225.996 117.522C225.996 117.157 226.293 116.862 226.656 116.862C235.675 116.86 246.22 100.607 248.926 69.5478C248.945 69.3176 249.087 69.113 249.294 69.0107C250.017 68.6573 250.733 68.3016 251.414 67.9086C257.953 64.1326 261.515 59.1452 261.443 53.8625C261.438 53.5067 261.717 53.2091 262.075 53.1928C262.433 53.1649 262.738 53.4463 262.763 53.802C262.763 53.8183 262.779 53.9694 262.779 53.9857C262.775 94.1734 244.406 118.178 226.656 118.183ZM250.21 70.0338C248.215 92.3016 241.832 109.277 233.69 115.548C247.403 110.428 259.859 90.5531 261.317 60.0194C259.624 63.4141 256.485 66.5089 252.077 69.0526C251.475 69.399 250.847 69.7199 250.21 70.0338Z" fill="#0D0D0D"/>
<path d="M253.272 71.1262L250.219 72.8887C250.305 73.5118 250.354 74.1187 250.356 74.6976V74.7162C250.356 75.644 250.342 76.5484 250.326 77.4413L264.2 85.4537C263.707 96.6446 259.485 104.127 254.179 107.977C250.984 109.396 247.603 109.656 244.509 108.735L241.456 110.498C240.56 111.556 239.616 112.444 238.631 113.172V113.779C244.155 116.969 250.189 116.824 255.351 113.823L255.36 113.832L258.506 112.014V112.004C265.711 107.759 271.201 97.9234 271.201 83.7215V81.4754L253.272 71.1262Z" fill="#92E490"/>
<path d="M247.058 116.784C244.042 116.784 241.097 115.966 238.299 114.352C238.095 114.234 237.969 114.015 237.969 113.78V113.173C237.969 112.964 238.069 112.767 238.237 112.643C239.19 111.936 240.101 111.071 240.948 110.072C240.997 110.014 241.055 109.965 241.122 109.928L244.175 108.165C244.331 108.074 244.519 108.053 244.694 108.105C247.63 108.979 250.869 108.721 253.906 107.375C257.142 105.01 262.83 98.9808 263.516 85.8275L249.99 78.015C249.783 77.8941 249.655 77.6709 249.66 77.4291C249.679 76.5409 249.693 75.641 249.693 74.718C249.688 74.1692 249.644 73.588 249.56 72.9811C249.523 72.716 249.653 72.4533 249.886 72.3184L252.938 70.556C253.145 70.4374 253.394 70.4374 253.601 70.556L271.53 80.9052C271.735 81.0237 271.86 81.2423 271.86 81.4771V83.7232C271.86 96.9346 267.031 107.686 258.933 112.518C258.902 112.546 258.868 112.569 258.83 112.59L255.684 114.408C255.65 114.429 255.612 114.445 255.575 114.459C252.878 116.003 250.011 116.787 247.056 116.787L247.058 116.784ZM239.371 113.438C244.426 116.189 250.086 116.117 255.017 113.252C255.054 113.232 255.092 113.215 255.129 113.201L258.075 111.499C258.103 111.476 258.133 111.453 258.163 111.434C265.913 106.872 270.537 96.5115 270.537 83.7186V81.8538L253.271 71.886L250.927 73.2392C250.983 73.7437 251.013 74.232 251.016 74.6901C251.016 75.5062 251.004 76.2921 250.99 77.0594L264.527 84.8765C264.741 84.9997 264.869 85.2322 264.857 85.4787C264.401 95.8442 260.744 104.022 254.561 108.509C251.141 110.053 247.758 110.313 244.591 109.446L241.88 111.011C241.092 111.929 240.25 112.743 239.369 113.436L239.371 113.438Z" fill="#0D0D0D"/>
<path d="M250.219 72.8876C250.305 73.5107 250.354 74.1176 250.356 74.6965V74.7151C250.356 75.6429 250.342 76.5473 250.326 77.4402L264.2 85.4526C263.335 105.074 251.014 113.345 241.456 110.497C240.56 111.555 239.616 112.443 238.631 113.171V113.777C251.921 121.448 268.148 109.901 268.148 85.4805V83.2344L250.219 72.8853V72.8876Z" fill="white"/>
<path d="M247.074 116.791C244.054 116.791 241.104 115.971 238.299 114.352C238.095 114.234 237.969 114.015 237.969 113.78V113.174C237.969 112.964 238.069 112.767 238.237 112.643C239.19 111.937 240.101 111.072 240.948 110.072C241.117 109.872 241.389 109.79 241.641 109.865C242.796 110.209 244.003 110.383 245.226 110.383C253.71 110.383 262.669 101.948 263.518 85.823L249.993 78.0105C249.786 77.8896 249.658 77.6664 249.662 77.4246C249.681 76.5364 249.695 75.6365 249.695 74.7135C249.69 74.1647 249.646 73.5834 249.562 72.9766C249.527 72.7278 249.639 72.479 249.848 72.3372C250.058 72.1977 250.33 72.186 250.548 72.3139L268.477 82.6631C268.682 82.7817 268.808 83.0003 268.808 83.2351V85.4812C268.808 94.7375 266.527 102.683 262.213 108.465C258.207 113.832 252.831 116.789 247.077 116.789L247.074 116.791ZM239.371 113.439C241.848 114.785 244.435 115.468 247.074 115.468C252.404 115.468 257.403 112.702 261.153 107.677C265.297 102.127 267.487 94.4516 267.487 85.4835V83.6187L251.002 74.102C251.011 74.3042 251.016 74.4996 251.02 74.6925C251.02 75.5087 251.009 76.2946 250.995 77.0619L264.532 84.879C264.746 85.0022 264.873 85.2347 264.862 85.4812C264.104 102.696 254.41 111.704 245.228 111.704C244.024 111.704 242.833 111.551 241.682 111.246C240.952 112.069 240.18 112.806 239.374 113.439H239.371Z" fill="#0D0D0D"/>
<path d="M254.171 107.978C250.979 109.396 247.601 109.657 244.504 108.736L241.451 110.498C245.557 111.722 250.172 110.88 254.171 107.978Z" fill="#0D0D0D"/>
<path d="M245.206 111.703C243.862 111.703 242.535 111.51 241.263 111.131C241.009 111.057 240.826 110.838 240.795 110.576C240.763 110.313 240.891 110.057 241.121 109.927L244.174 108.164C244.33 108.074 244.518 108.053 244.692 108.104C247.631 108.978 250.87 108.722 253.902 107.376C254.214 107.241 254.574 107.358 254.744 107.651C254.914 107.944 254.832 108.318 254.56 108.515C251.682 110.601 248.447 111.706 245.206 111.706V111.703ZM243.244 110.227C245.008 110.506 246.848 110.401 248.626 109.929C247.259 109.966 245.894 109.804 244.592 109.446L243.241 110.224L243.244 110.227Z" fill="#0D0D0D"/>
<path d="M268.149 83.2369V85.483C268.149 99.7477 262.608 109.611 255.351 113.824L255.361 113.833L258.507 112.015V112.006C265.712 107.76 271.202 97.9248 271.202 83.7229V81.4768L268.149 83.2393V83.2369Z" fill="#0D0D0D"/>
<path d="M255.36 114.495C255.164 114.495 254.971 114.409 254.844 114.246L254.834 114.237C254.716 114.088 254.667 113.893 254.702 113.702C254.737 113.514 254.853 113.349 255.018 113.254C262.826 108.719 267.485 98.3401 267.485 85.4844V83.2383C267.485 83.0035 267.611 82.7849 267.815 82.6663L270.868 80.9039C271.073 80.7853 271.324 80.7853 271.529 80.9039C271.733 81.0225 271.859 81.241 271.859 81.4759V83.7219C271.859 96.9334 267.03 107.685 258.931 112.516C258.901 112.544 258.866 112.568 258.829 112.589L255.683 114.407C255.581 114.467 255.467 114.495 255.353 114.495H255.36ZM268.808 83.6196V85.4844C268.808 94.2734 266.676 101.967 262.868 107.557C267.748 102.132 270.541 93.6619 270.541 83.7219V82.6198L268.808 83.6196Z" fill="#0D0D0D"/>
</svg>
