<svg width="599" height="387" viewBox="0 0 599 387" fill="none" xmlns="http://www.w3.org/2000/svg">
<path d="M57.7333 365.382C55.7549 365.382 53.8757 364.928 52.4468 364.102C50.8406 363.176 49.9578 361.886 49.9578 360.464C49.9578 359.042 50.8406 357.759 52.4397 356.837C55.2869 355.188 60.1515 355.188 63.0092 356.837C64.6119 357.762 65.4947 359.056 65.4947 360.474C65.4947 361.893 64.6154 363.18 63.0163 364.105C61.5874 364.928 59.7118 365.382 57.7369 365.382H57.7333ZM57.7192 357.574C56.113 357.574 54.5529 357.943 53.4467 358.581C52.5071 359.12 51.9717 359.808 51.9717 360.464C51.9717 361.12 52.5106 361.811 53.4502 362.354C55.6698 363.634 59.7863 363.634 62.0023 362.354C62.9383 361.815 63.4773 361.127 63.4773 360.471C63.4773 359.815 62.9383 359.124 61.9987 358.581C60.889 357.939 59.3289 357.571 57.7192 357.571V357.574Z" fill="white"/>
<path d="M98.5334 76.4769C96.5514 76.4769 94.6757 76.023 93.2469 75.1969C91.6407 74.275 90.7578 72.9844 90.7578 71.5661C90.7578 70.1479 91.6371 68.8573 93.2433 67.9354C96.094 66.2902 100.955 66.2867 103.809 67.9354C105.415 68.8644 106.295 70.155 106.295 71.5732C106.295 72.9915 105.415 74.2785 103.813 75.204C102.387 76.0265 100.512 76.4804 98.5369 76.4804L98.5334 76.4769ZM98.5192 68.6729C96.913 68.6729 95.3565 69.0416 94.2467 69.6799C93.3071 70.2188 92.7717 70.9066 92.7717 71.5626C92.7717 72.2185 93.3107 72.9064 94.2503 73.4489C96.4734 74.7359 100.586 74.7359 102.806 73.456C103.738 72.917 104.277 72.2292 104.277 71.5697C104.277 70.9102 103.738 70.2223 102.799 69.6763C101.689 69.0381 100.129 68.6694 98.5228 68.6694L98.5192 68.6729Z" fill="white"/>
<path d="M507.71 296.256C505.728 296.256 503.852 295.802 502.424 294.976C500.817 294.051 499.935 292.757 499.935 291.338C499.935 289.92 500.817 288.633 502.42 287.711C505.267 286.062 510.132 286.062 512.986 287.711C514.592 288.637 515.475 289.927 515.475 291.349C515.475 292.771 514.592 294.054 512.99 294.976C511.564 295.799 509.692 296.253 507.71 296.253V296.256ZM507.699 288.449C506.09 288.449 504.537 288.817 503.427 289.456C502.491 289.995 501.956 290.682 501.956 291.338C501.956 291.994 502.495 292.686 503.434 293.228C505.654 294.512 509.767 294.508 511.986 293.228C512.922 292.689 513.458 292.001 513.458 291.345C513.458 290.689 512.919 289.998 511.979 289.456C510.869 288.814 509.309 288.445 507.699 288.445V288.449Z" fill="white"/>
<path d="M462.883 21.6674C460.904 21.6674 459.025 21.2135 457.596 20.3874C455.99 19.462 455.107 18.1714 455.107 16.7496C455.107 15.3278 455.986 14.0443 457.589 13.1189C460.44 11.4701 465.301 11.4701 468.158 13.1189C469.761 14.0443 470.644 15.3384 470.644 16.7567C470.644 18.1749 469.765 19.462 468.162 20.3839C466.737 21.2065 464.861 21.6603 462.883 21.6603V21.6674ZM462.868 13.8599C461.259 13.8599 459.702 14.2286 458.596 14.8669C457.656 15.4093 457.121 16.0937 457.121 16.7496C457.121 17.4055 457.66 18.0969 458.599 18.6394C460.819 19.9194 464.935 19.9194 467.151 18.6394C468.087 18.0969 468.623 17.4126 468.623 16.7567C468.623 16.1007 468.084 15.4093 467.144 14.8633C466.035 14.2216 464.475 13.8528 462.868 13.8528V13.8599Z" fill="white"/>
<path d="M68.8675 210.462C68.793 210.462 68.7186 210.455 68.6441 210.437C64.8645 209.579 59.4432 209.586 55.7238 210.434C55.3125 210.523 54.9012 210.359 54.6672 210.015C54.4332 209.672 54.4332 209.225 54.6672 208.881C55.3196 207.924 55.66 206.789 55.6565 205.598C55.6565 204.396 55.3125 203.261 54.6601 202.304C54.4261 201.96 54.4261 201.51 54.6601 201.169C54.8941 200.825 55.3161 200.659 55.7167 200.754C59.5141 201.619 64.9602 201.588 68.6299 200.761C69.027 200.669 69.449 200.836 69.683 201.176C69.917 201.52 69.917 201.967 69.683 202.311C69.0341 203.268 68.6937 204.406 68.6973 205.598C68.6973 206.718 68.9951 207.778 69.5624 208.693C69.7787 208.877 69.917 209.154 69.917 209.462C69.917 210.026 69.4525 210.526 68.8852 210.469H68.8604L68.8675 210.462ZM62.1485 207.768C63.8859 207.768 65.5559 207.881 67.0876 208.104C66.8252 207.307 66.6905 206.463 66.6905 205.594C66.6869 204.729 66.8217 203.885 67.084 203.087C64.0064 203.527 60.28 203.513 57.2768 203.087C57.5392 203.885 57.6775 204.729 57.6775 205.594C57.6775 206.456 57.5463 207.303 57.2804 208.101C58.7979 207.885 60.4466 207.771 62.1485 207.771V207.768Z" fill="white"/>
<path d="M381.351 287.902C381.277 287.902 381.202 287.894 381.128 287.877C377.355 287.022 371.938 287.026 368.208 287.873C367.796 287.965 367.385 287.799 367.151 287.458C366.917 287.114 366.917 286.664 367.151 286.324C367.803 285.37 368.14 284.235 368.137 283.044C368.137 281.842 367.793 280.704 367.14 279.75C366.906 279.406 366.906 278.956 367.14 278.616C367.374 278.272 367.789 278.109 368.197 278.201C370.062 278.623 372.271 278.846 374.583 278.846C377.036 278.846 379.245 278.626 381.117 278.204C381.521 278.112 381.94 278.279 382.17 278.623C382.404 278.967 382.404 279.413 382.17 279.757C381.521 280.707 381.181 281.842 381.181 283.041C381.185 284.157 381.482 285.221 382.046 286.132C382.262 286.317 382.401 286.593 382.401 286.902C382.401 287.469 381.975 287.926 381.369 287.909H381.344L381.351 287.902ZM374.668 285.207C376.38 285.207 378.043 285.32 379.571 285.544C379.309 284.749 379.171 283.902 379.171 283.037C379.171 282.168 379.302 281.324 379.564 280.53C376.444 280.977 372.707 280.949 369.757 280.53C370.019 281.328 370.158 282.172 370.158 283.041C370.158 283.906 370.027 284.749 369.764 285.547C371.289 285.327 372.952 285.214 374.668 285.214V285.207Z" fill="white"/>
<path d="M558.898 99.9484C558.824 99.9484 558.753 99.9413 558.675 99.9236C554.909 99.0691 549.481 99.0727 545.758 99.9165C545.347 100.005 544.935 99.8421 544.701 99.5017C544.471 99.1578 544.471 98.7075 544.701 98.3671C545.35 97.4169 545.69 96.2823 545.687 95.0874C545.687 93.8854 545.339 92.7472 544.691 91.7935C544.457 91.4495 544.457 90.9993 544.691 90.6589C544.925 90.315 545.332 90.1483 545.747 90.244C547.612 90.666 549.821 90.8893 552.133 90.8893C554.587 90.8893 556.795 90.6695 558.668 90.2476C559.075 90.1554 559.49 90.322 559.724 90.666C559.958 91.0099 559.955 91.4602 559.724 91.8006C559.075 92.7437 558.735 93.8819 558.735 95.0838C558.738 96.2007 559.036 97.2679 559.604 98.1721C559.82 98.3565 559.958 98.633 559.958 98.9415C559.958 99.5052 559.508 100.03 558.926 99.9484H558.902H558.898ZM552.214 97.2537C553.927 97.2537 555.59 97.3672 557.122 97.5906C556.859 96.7964 556.725 95.9525 556.721 95.0874C556.721 94.2187 556.856 93.3713 557.118 92.5771C553.991 93.0203 550.257 92.9954 547.307 92.5771C547.57 93.3748 547.708 94.2187 547.708 95.0874C547.708 95.9525 547.577 96.7964 547.318 97.5906C548.839 97.3743 550.502 97.2608 552.222 97.2608L552.214 97.2537Z" fill="white"/>
<path d="M262.164 65.8881C262.089 65.8881 262.011 65.881 261.94 65.8633C258.171 65.0088 252.746 65.0088 249.023 65.8597C248.616 65.9519 248.201 65.7853 247.967 65.4449C247.736 65.101 247.736 64.6507 247.967 64.3103C248.619 63.3565 248.96 62.2219 248.956 61.0306C248.956 59.8286 248.612 58.6905 247.96 57.7367C247.729 57.3928 247.729 56.9425 247.96 56.6021C248.194 56.2581 248.605 56.088 249.016 56.1872C250.881 56.6127 253.09 56.8361 255.402 56.8361C257.856 56.8361 260.065 56.6127 261.937 56.1943C262.337 56.1022 262.763 56.2688 262.993 56.6127C263.227 56.9566 263.224 57.4034 262.993 57.7473C262.344 58.6976 262 59.8322 262.008 61.0306C262.008 62.1475 262.309 63.2111 262.869 64.1224C263.085 64.3067 263.224 64.5833 263.224 64.8918C263.224 65.4591 262.823 65.9129 262.192 65.9023H262.167L262.164 65.8881ZM255.48 63.1934C257.193 63.1934 258.852 63.3069 260.384 63.5267C260.121 62.7325 259.987 61.8886 259.987 61.0199C259.987 60.1513 260.118 59.3074 260.38 58.5132C257.256 58.9599 253.523 58.9316 250.573 58.5132C250.835 59.3109 250.97 60.1548 250.97 61.0199C250.974 61.8851 250.839 62.7289 250.576 63.5267C252.101 63.3069 253.764 63.1934 255.484 63.1934H255.48Z" fill="white"/>
<path d="M206.877 386.623C206.32 386.623 205.866 386.173 205.866 385.616L205.859 374.706C205.859 374.15 206.313 373.696 206.866 373.696C207.423 373.696 207.873 374.146 207.873 374.703L207.88 385.613C207.88 386.169 207.43 386.62 206.873 386.62L206.877 386.623Z" fill="white"/>
<path d="M216.322 381.173H197.42C196.863 381.17 196.413 380.716 196.413 380.159C196.413 379.603 196.863 379.152 197.42 379.152L216.322 379.159C216.878 379.159 217.329 379.61 217.329 380.166C217.329 380.723 216.878 381.173 216.322 381.173Z" fill="white"/>
<path d="M588.106 215.918C587.549 215.918 587.095 215.468 587.095 214.911L587.088 204.001C587.088 203.445 587.539 202.991 588.095 202.991C588.652 202.991 589.102 203.441 589.102 203.998L589.109 214.908C589.109 215.464 588.659 215.918 588.102 215.918H588.106Z" fill="white"/>
<path d="M597.554 210.468H578.652C578.096 210.465 577.646 210.011 577.646 209.454C577.646 208.898 578.099 208.447 578.652 208.447L597.554 208.454C598.111 208.454 598.561 208.905 598.561 209.461C598.561 210.018 598.111 210.468 597.554 210.468Z" fill="white"/>
<path d="M337.082 12.9274C336.525 12.9274 336.075 12.4771 336.075 11.9204L336.068 1.01051C336.068 0.453843 336.515 0 337.075 0C337.631 0 338.085 0.450294 338.085 1.00696L338.092 11.9169C338.092 12.4735 337.639 12.9238 337.085 12.9238L337.082 12.9274Z" fill="white"/>
<path d="M346.531 7.47755H327.629C327.072 7.474 326.622 7.02017 326.622 6.4635C326.622 5.90684 327.072 5.45654 327.629 5.45654H346.531C347.087 5.46009 347.538 5.91392 347.538 6.47059C347.538 7.02725 347.087 7.47755 346.531 7.47755Z" fill="white"/>
<path d="M10.4601 191.734C9.90343 191.734 9.45314 191.283 9.45314 190.727L9.44604 179.813C9.44604 179.256 9.89634 178.806 10.453 178.806C11.0097 178.806 11.4635 179.256 11.4635 179.813V190.727C11.4671 191.283 11.0168 191.734 10.4566 191.734H10.4601Z" fill="white"/>
<path d="M19.9123 186.277L1.00696 186.27C0.450294 186.27 0 185.819 0 185.263C0 184.706 0.45384 184.256 1.00696 184.256H19.9123C20.4689 184.259 20.9192 184.713 20.9192 185.27C20.9192 185.827 20.4689 186.277 19.9123 186.277Z" fill="white"/>
<g opacity="0.2">
<path d="M284.574 78.8566L396.205 14.4111L507.701 78.7857V153.811L396.08 218.257L284.574 153.886V78.8566Z" fill="#0D0D0D"/>
<path d="M396.082 219.263C395.908 219.263 395.735 219.217 395.579 219.128L284.072 154.757C283.763 154.576 283.568 154.243 283.568 153.885V78.8591C283.568 78.501 283.76 78.1641 284.072 77.9868L395.699 13.5414C396.015 13.3606 396.394 13.3606 396.71 13.5414L508.206 77.9124C508.514 78.0932 508.709 78.4265 508.709 78.7846V153.81C508.709 154.168 508.518 154.502 508.206 154.682L396.585 219.128C396.429 219.217 396.256 219.263 396.082 219.263ZM285.582 153.303L396.082 217.093L506.695 153.232V79.3696L396.206 15.5801L285.586 79.4406V153.303H285.582Z" fill="#0D0D0D"/>
<path d="M396.08 143.231L507.701 78.7857L396.205 14.4111L284.574 78.8566L396.08 143.231Z" fill="white"/>
<path d="M396.082 144.237C395.908 144.237 395.735 144.191 395.579 144.102L284.072 79.7313C283.763 79.5505 283.568 79.2172 283.568 78.8591C283.568 78.501 283.76 78.1641 284.072 77.9868L395.699 13.5414C396.015 13.3606 396.394 13.3606 396.71 13.5414L508.206 77.9124C508.514 78.0932 508.709 78.4265 508.709 78.7846C508.709 79.1427 508.518 79.476 508.206 79.6568L396.585 144.102C396.429 144.191 396.256 144.237 396.082 144.237ZM286.593 78.8591L396.082 142.067L505.685 78.7846L396.203 15.5766L286.593 78.8591Z" fill="#0D0D0D"/>
<path d="M396.08 218.257V143.231L284.574 78.8564V153.886L396.08 218.257Z" fill="#92E490"/>
<path d="M396.082 219.264C395.908 219.264 395.735 219.217 395.579 219.129L284.072 154.758C283.763 154.577 283.568 154.244 283.568 153.886V78.8599C283.568 78.5018 283.76 78.165 284.072 77.9877C284.387 77.8068 284.767 77.8068 285.082 77.9877L396.589 142.359C396.901 142.54 397.092 142.873 397.092 143.231V218.257C397.092 218.618 396.901 218.951 396.589 219.129C396.433 219.217 396.259 219.264 396.086 219.264H396.082ZM285.582 153.304L395.075 216.512V143.812L285.582 80.6044V153.304Z" fill="#0D0D0D"/>
</g>
<g opacity="0.2">
<path d="M163.677 175.484L275.301 111.039L386.797 175.41V223.612L275.18 288.058L163.677 223.687V175.484Z" fill="#0D0D0D"/>
<path d="M275.179 289.069C275.001 289.069 274.831 289.023 274.675 288.934L163.172 224.563C162.86 224.382 162.668 224.049 162.668 223.691V175.488C162.668 175.126 162.86 174.793 163.172 174.616L274.792 110.17C275.104 109.989 275.487 109.989 275.799 110.17L387.295 174.538C387.611 174.719 387.799 175.052 387.799 175.41V223.616C387.799 223.975 387.607 224.308 387.295 224.489L275.675 288.934C275.519 289.023 275.349 289.069 275.171 289.069H275.179ZM164.686 223.109L275.179 286.899L385.788 223.038V175.995L275.299 112.209L164.686 176.073V223.113V223.109Z" fill="#0D0D0D"/>
<path d="M275.18 239.855L386.797 175.41L275.301 111.039L163.677 175.484L275.18 239.855Z" fill="white"/>
<path d="M275.179 240.866C275.001 240.866 274.831 240.82 274.675 240.731L163.172 176.36C162.86 176.179 162.668 175.846 162.668 175.488C162.668 175.13 162.86 174.793 163.172 174.616L274.792 110.17C275.104 109.989 275.487 109.989 275.799 110.17L387.295 174.538C387.611 174.719 387.799 175.052 387.799 175.41C387.799 175.768 387.607 176.105 387.295 176.282L275.675 240.731C275.519 240.82 275.349 240.866 275.171 240.866H275.179ZM165.693 175.488L275.179 238.696L384.781 175.414L275.299 112.209L165.693 175.492V175.488Z" fill="#0D0D0D"/>
<path d="M275.18 288.059V239.856L163.677 175.485V223.688L275.18 288.059Z" fill="#92E490"/>
<path d="M275.179 289.068C275.001 289.068 274.831 289.022 274.675 288.934L163.172 224.562C162.86 224.382 162.668 224.048 162.668 223.69V175.487C162.668 175.126 162.86 174.792 163.172 174.615C163.484 174.434 163.867 174.434 164.179 174.615L275.678 238.986C275.994 239.167 276.182 239.5 276.182 239.858V288.061C276.182 288.419 275.991 288.753 275.678 288.934C275.522 289.022 275.352 289.068 275.175 289.068H275.179ZM164.686 223.109L274.172 286.317V240.44L164.686 177.232V223.109Z" fill="#0D0D0D"/>
</g>
<path d="M42.7734 277.458L154.397 213.012L265.893 277.383V293.417L154.273 357.862L42.7734 293.491V277.458Z" fill="#0D0D0D"/>
<path d="M154.272 358.872C154.099 358.872 153.925 358.826 153.769 358.738L42.2657 294.367C41.9537 294.186 41.7622 293.853 41.7622 293.494V277.461C41.7622 277.099 41.9537 276.766 42.2657 276.589L153.889 212.143C154.201 211.963 154.588 211.963 154.896 212.143L266.392 276.514C266.708 276.695 266.896 277.029 266.896 277.387V293.42C266.896 293.782 266.704 294.115 266.392 294.292L154.776 358.738C154.62 358.826 154.446 358.872 154.272 358.872ZM43.7761 292.913L154.272 356.703L264.885 292.839V277.968L154.396 214.179L43.7797 278.043V292.913H43.7761Z" fill="#0D0D0D"/>
<path d="M154.273 341.829L265.893 277.383L154.397 213.012L42.7734 277.458L154.273 341.829Z" fill="white"/>
<path d="M154.272 342.839C154.099 342.839 153.925 342.793 153.769 342.704L42.2657 278.333C41.9537 278.153 41.7622 277.819 41.7622 277.461C41.7622 277.103 41.9537 276.766 42.2657 276.589L153.889 212.143C154.201 211.963 154.588 211.963 154.896 212.143L266.392 276.514C266.708 276.695 266.896 277.029 266.896 277.387C266.896 277.745 266.704 278.082 266.392 278.259L154.776 342.704C154.62 342.793 154.446 342.839 154.272 342.839ZM44.7866 277.458L154.272 340.666L263.875 277.383L154.393 214.175L44.7831 277.458H44.7866Z" fill="#0D0D0D"/>
<path d="M154.273 357.862V341.828L42.7734 277.458V293.491L154.273 357.862Z" fill="#92E490"/>
<path d="M154.272 358.872C154.099 358.872 153.925 358.826 153.769 358.738L42.2657 294.367C41.9537 294.186 41.7622 293.852 41.7622 293.494V277.461C41.7622 277.099 41.9537 276.766 42.2657 276.589C42.5777 276.408 42.9606 276.408 43.2726 276.589L154.776 340.96C155.088 341.141 155.279 341.474 155.279 341.832V357.865C155.279 358.227 155.088 358.56 154.776 358.738C154.62 358.826 154.446 358.872 154.272 358.872ZM43.7761 292.913L153.265 356.121V342.413L43.7761 279.205V292.913Z" fill="#0D0D0D"/>
<g opacity="0.2">
<path d="M435.813 97.9026C441.074 94.8667 448.384 94.067 453.148 95.8024C455.512 93.407 457.317 90.8952 458.54 88.298C453.039 87.5798 448.85 84.0198 448.842 79.726C448.834 75.4245 453.019 71.8762 458.524 71.1618C457.294 68.5646 455.485 66.0451 453.113 63.6536C448.349 65.3851 441.035 64.5776 435.778 61.5378C430.514 58.498 429.117 54.2819 432.11 51.5294C427.971 50.1629 423.608 49.1185 419.112 48.412C417.87 51.5838 411.712 54.0024 404.27 53.9985C396.828 53.9946 390.667 51.576 389.421 48.3965C384.925 49.103 380.565 50.1473 376.423 51.51C379.428 54.2664 378.042 58.4864 372.782 61.5223C367.521 64.5582 360.219 65.3618 355.44 63.6265C353.083 66.014 351.278 68.5336 350.055 71.1308C355.556 71.849 359.745 75.4051 359.757 79.7027C359.757 84.0004 355.572 87.5565 350.074 88.2708C351.301 90.868 353.114 93.3876 355.482 95.7752C360.25 94.0437 367.56 94.8512 372.816 97.891C378.081 100.931 379.478 105.147 376.485 107.903C380.624 109.27 384.979 110.318 389.483 111.028C390.729 107.853 396.875 105.434 404.325 105.438C411.775 105.438 417.932 107.861 419.178 111.04C423.67 110.334 428.029 109.285 432.168 107.927C429.167 105.17 430.561 100.95 435.813 97.9143V97.9026ZM382.021 92.5684C369.711 85.4562 369.699 73.9338 381.998 66.8332C394.301 59.7326 414.255 59.7364 426.574 66.8487C438.884 73.9609 438.9 85.4795 426.597 92.5879C414.294 99.6924 394.336 99.6846 382.021 92.5723V92.5684Z" fill="#0D0D0D"/>
<path d="M419.182 112.126C418.732 112.126 418.32 111.855 418.153 111.427C417.21 109.021 411.779 106.528 404.329 106.524C396.875 106.524 391.455 109.009 390.516 111.416C390.329 111.893 389.84 112.173 389.316 112.103C384.755 111.381 380.325 110.317 376.148 108.935C375.775 108.815 375.495 108.504 375.414 108.12C375.332 107.739 375.46 107.339 375.748 107.075C376.645 106.249 377.041 105.294 376.924 104.234C376.722 102.39 375.026 100.421 372.277 98.8335C369.125 97.0127 365.087 95.9684 361.205 95.9684C359.209 95.9684 357.365 96.2557 355.871 96.7992C355.471 96.9468 355.013 96.8458 354.71 96.5391C352.253 94.0622 350.362 91.434 349.085 88.7281C348.937 88.4097 348.949 88.037 349.116 87.7265C349.283 87.4198 349.593 87.2063 349.943 87.1636C354.997 86.5075 358.666 83.3629 358.666 79.6903C358.654 76.0177 354.982 72.8731 349.923 72.2131C349.574 72.1665 349.267 71.9568 349.096 71.6463C348.925 71.3357 348.918 70.9669 349.065 70.6485C350.346 67.9349 352.229 65.3066 354.667 62.8414C354.97 62.5308 355.42 62.4298 355.828 62.5774C357.334 63.1248 359.186 63.4159 361.186 63.4159C365.064 63.4159 369.094 62.3755 372.242 60.5586C374.987 58.9786 376.672 57.0142 376.874 55.174C376.99 54.1103 376.59 53.1475 375.686 52.3167C375.398 52.0527 375.27 51.6567 375.352 51.2723C375.433 50.8919 375.713 50.5813 376.086 50.4571C380.274 49.0789 384.708 48.019 389.254 47.3047C389.774 47.2309 390.267 47.5105 390.454 47.9919C391.397 50.395 396.824 52.8874 404.278 52.8951C411.732 52.8951 417.152 50.4105 418.091 48.0112C418.278 47.5298 418.771 47.2465 419.287 47.3241C423.841 48.0423 428.274 49.1061 432.459 50.4843C432.828 50.6085 433.108 50.9152 433.193 51.2995C433.275 51.68 433.15 52.0798 432.863 52.3438C431.962 53.1707 431.57 54.1258 431.683 55.1856C431.889 57.0297 433.581 58.998 436.334 60.5858C439.486 62.4066 443.516 63.4548 447.402 63.4548C449.394 63.4548 451.242 63.1675 452.736 62.6201C453.144 62.4725 453.598 62.5735 453.901 62.8802C456.343 65.3493 458.237 67.9776 459.522 70.6951C459.674 71.0135 459.666 71.3861 459.495 71.6967C459.324 72.0073 459.018 72.217 458.668 72.2636C453.61 72.9197 449.945 76.0604 449.949 79.733C449.953 83.4056 453.629 86.554 458.684 87.214C459.033 87.2606 459.344 87.4702 459.511 87.7808C459.682 88.0875 459.693 88.4602 459.542 88.7785C458.265 91.4883 456.382 94.1166 453.94 96.5896C453.637 96.8963 453.179 96.9972 452.775 96.8536C451.273 96.3062 449.421 96.0189 447.421 96.0189C443.543 96.0189 439.513 97.0593 436.365 98.8762C433.628 100.46 431.939 102.425 431.737 104.265C431.617 105.328 432.017 106.287 432.917 107.118C433.205 107.386 433.333 107.782 433.251 108.163C433.17 108.547 432.89 108.857 432.518 108.978C428.317 110.356 423.884 111.416 419.353 112.13C419.295 112.138 419.237 112.142 419.182 112.142V112.126ZM404.302 104.319C411.631 104.319 417.765 106.54 419.796 109.809C423.387 109.211 426.904 108.384 430.281 107.355C429.66 106.342 429.408 105.204 429.54 104.005C429.823 101.419 431.858 98.915 435.266 96.9468C438.737 94.9435 443.167 93.7944 447.421 93.7944C449.386 93.7944 451.242 94.0506 452.841 94.5359C454.495 92.7889 455.85 90.972 456.879 89.1202C451.506 87.8934 447.744 84.116 447.74 79.7252C447.736 75.3344 451.486 71.557 456.859 70.3341C455.819 68.4745 454.46 66.6576 452.802 64.9145C451.211 65.3959 449.359 65.6521 447.398 65.6521C443.136 65.6521 438.702 64.4991 435.224 62.4881C431.811 60.5198 429.769 58.008 429.486 55.4225C429.354 54.2267 429.606 53.0931 430.223 52.0799C426.853 51.0472 423.332 50.2241 419.726 49.6224C417.699 52.8834 411.577 55.0963 404.282 55.0963C396.964 55.0924 390.83 52.8718 388.8 49.6069C385.201 50.2086 381.684 51.0316 378.31 52.0604C378.931 53.0737 379.187 54.2112 379.052 55.4147C378.768 58.0002 376.734 60.5043 373.329 62.4687C369.858 64.4719 365.421 65.6211 361.17 65.6211C359.206 65.6211 357.35 65.3687 355.747 64.8796C354.097 66.6227 352.746 68.4395 351.713 70.2952C357.082 71.522 360.844 75.2995 360.859 79.6903C360.859 84.0849 357.101 87.8623 351.732 89.0852C352.765 90.9371 354.124 92.7539 355.785 94.5009C357.381 94.0195 359.229 93.7672 361.189 93.7672C365.448 93.7672 369.886 94.9163 373.364 96.9273C376.78 98.8995 378.819 101.411 379.106 103.997C379.238 105.193 378.986 106.326 378.368 107.336C381.734 108.368 385.255 109.195 388.866 109.797C390.892 106.536 397.015 104.323 404.294 104.323L404.302 104.319ZM404.34 99.0082C395.722 99.0082 387.604 97.0594 381.474 93.5226C375.158 89.8734 371.679 84.9584 371.679 79.6825C371.679 74.4065 375.15 69.511 381.451 65.8734C387.561 62.3444 395.664 60.4033 404.267 60.4033C412.87 60.4033 421.003 62.3522 427.129 65.8889C433.445 69.5343 436.92 74.4492 436.92 79.7252C436.92 85.0011 433.449 89.9005 427.152 93.5381C421.042 97.0671 412.94 99.0082 404.337 99.0082H404.34ZM404.271 62.6085C396.044 62.6085 388.334 64.4486 382.557 67.7835C376.967 71.0096 373.888 75.2335 373.888 79.6786C373.888 84.1238 376.975 88.3709 382.581 91.6087C388.381 94.9552 396.106 96.7992 404.344 96.7992C412.582 96.7992 420.277 94.9591 426.054 91.6242C431.64 88.3981 434.719 84.1703 434.719 79.7252C434.719 75.28 431.632 71.0368 426.03 67.799C420.234 64.4525 412.509 62.6085 404.274 62.6085H404.271Z" fill="#0D0D0D"/>
<path d="M461.805 52.4508V34.2625C460.496 31.5023 458.575 28.8313 456.063 26.2884C451 28.1286 443.244 27.2706 437.657 24.0445C435.957 23.0623 434.695 21.9675 433.767 20.8339V13.415C429.369 11.9669 424.745 10.8566 419.966 10.1034C418.642 13.4771 412.116 16.0394 404.212 16.0355C396.308 16.0355 389.766 13.4615 388.446 10.0879C383.671 10.8372 379.043 11.9475 374.652 13.3917V20.8339C373.729 21.9558 372.471 23.0468 370.786 24.0173C365.203 27.2396 357.45 28.0898 352.38 26.2496C349.872 28.7886 347.962 31.4596 346.662 34.216V55.906C346.662 55.906 346.669 55.906 346.677 55.906V74.0981C347.982 76.8584 349.907 79.5293 352.419 82.0683C357.478 80.232 365.238 81.0861 370.825 84.3122C372.517 85.2944 373.791 86.3892 374.718 87.5189V94.9418C379.109 96.3898 383.741 97.504 388.512 98.2533C389.836 94.8835 396.37 92.3174 404.27 92.3213C412.174 92.3213 418.716 94.8913 420.032 98.2689C424.811 97.5157 429.435 96.4054 433.833 94.9651V87.5228C434.749 86.4009 436.015 85.3061 437.696 84.3355C443.275 81.1133 451.035 80.2631 456.102 82.1071C458.606 79.5643 460.527 76.8972 461.828 74.1369V52.4469C461.828 52.4469 461.816 52.4469 461.809 52.4469L461.805 52.4508ZM427.913 57.0085C414.853 64.5478 393.668 64.5439 380.596 56.993C379.067 56.1117 377.739 55.1645 376.563 54.1667C377.727 53.1768 379.047 52.2372 380.565 51.3598C393.625 43.8206 414.81 43.8245 427.886 51.3754C429.411 52.2567 430.743 53.2078 431.915 54.2017C430.747 55.1916 429.427 56.1311 427.913 57.0085Z" fill="#92E490"/>
<path d="M420.025 99.38C419.575 99.38 419.164 99.1043 418.997 98.6772C418.007 96.1383 412.506 93.4362 404.264 93.4324C396.018 93.4324 390.524 96.1305 389.531 98.6618C389.34 99.1431 388.847 99.4304 388.331 99.3489C383.505 98.588 378.804 97.4583 374.367 95.9908C373.916 95.8432 373.606 95.4201 373.606 94.9425V87.9274C372.736 86.9413 371.614 86.0484 370.267 85.2681C366.913 83.3269 362.615 82.2205 358.481 82.2205C356.357 82.2205 354.389 82.5272 352.789 83.1056C352.389 83.2532 351.931 83.1484 351.624 82.8456C349.031 80.2212 347.028 77.4376 345.669 74.5725C345.599 74.425 345.564 74.2658 345.564 74.1028V56.1785C345.553 56.0931 345.545 56.0038 345.545 55.9106V34.2206C345.545 34.0576 345.58 33.8984 345.65 33.7509C347.005 30.8741 349.004 28.0906 351.582 25.4779C351.881 25.1712 352.343 25.0702 352.746 25.2177C354.354 25.8001 356.33 26.1107 358.457 26.1107C362.584 26.1107 366.874 25.0042 370.22 23.0708C371.544 22.306 372.658 21.4209 373.536 20.4348V13.4002C373.536 12.9227 373.842 12.4996 374.297 12.352C378.742 10.8884 383.439 9.76257 388.261 9.00553C388.777 8.92013 389.27 9.2113 389.461 9.6927C390.455 12.2317 395.96 14.9337 404.202 14.9376C412.44 14.9376 417.933 12.2433 418.931 9.70824C419.121 9.22684 419.598 8.94732 420.13 9.02108C424.96 9.782 429.661 10.9117 434.102 12.3753C434.557 12.5229 434.863 12.946 434.863 13.4235V20.4348C435.737 21.4287 436.859 22.3216 438.202 23.0942C441.56 25.0314 445.858 26.1456 449.989 26.1456C452.112 26.1456 454.084 25.8389 455.68 25.2565C456.084 25.109 456.538 25.21 456.845 25.5167C459.43 28.1333 461.433 30.9169 462.8 33.7897C462.87 33.9372 462.909 34.1003 462.909 34.2633V52.2613C462.916 52.3235 462.924 52.3895 462.924 52.4555V74.1455C462.924 74.3085 462.889 74.4677 462.819 74.6152C461.472 77.4764 459.473 80.2639 456.879 82.8883C456.577 83.1949 456.122 83.2959 455.715 83.1522C454.111 82.5699 452.135 82.2593 450.008 82.2593C445.881 82.2593 441.591 83.3657 438.241 85.2991C436.909 86.0678 435.799 86.9529 434.929 87.9352V94.9697C434.929 95.4473 434.623 95.8704 434.168 96.0179C429.716 97.4776 425.014 98.6035 420.196 99.3644C420.138 99.3722 420.08 99.3761 420.022 99.3761L420.025 99.38ZM404.24 91.2273C412.028 91.2273 418.539 93.5877 420.651 97.0584C424.801 96.3673 428.858 95.3968 432.724 94.17V87.5353C432.724 87.279 432.814 87.0306 432.973 86.8326C434.044 85.5281 435.446 84.3712 437.134 83.389C440.811 81.2693 445.501 80.0542 450.008 80.0542C452.104 80.0542 454.084 80.3299 455.785 80.8462C457.904 78.6139 459.562 76.2768 460.715 73.8931V52.6457C460.707 52.5836 460.7 52.5176 460.7 52.4516V34.5118C459.527 32.1165 457.866 29.7794 455.754 27.5548C454.057 28.0751 452.085 28.3468 449.992 28.3468C445.485 28.3468 440.784 27.1278 437.103 25.0003C435.399 24.0181 433.986 22.8535 432.907 21.5335C432.748 21.3355 432.658 21.0909 432.658 20.8347V14.2194C428.799 12.9887 424.746 12.0182 420.585 11.3232C418.469 14.7862 411.97 17.1388 404.221 17.1388C396.445 17.1388 389.934 14.7784 387.819 11.3077C383.665 11.9988 379.611 12.9693 375.753 14.1961V20.8347C375.753 21.0909 375.659 21.3394 375.496 21.5374C374.417 22.8457 373.012 24.0026 371.331 24.9731C367.658 27.0967 362.968 28.3119 358.465 28.3119C356.369 28.3119 354.389 28.0362 352.684 27.516C350.572 29.7405 348.919 32.0738 347.762 34.4652V55.6389C347.773 55.7243 347.777 55.8136 347.777 55.9068V73.8465C348.942 76.238 350.603 78.5712 352.727 80.8035C354.42 80.2833 356.392 80.0115 358.484 80.0115C362.996 80.0115 367.693 81.2305 371.373 83.358C373.085 84.348 374.491 85.5126 375.566 86.8209C375.725 87.0189 375.815 87.2674 375.815 87.5197V94.1389C379.674 95.3696 383.727 96.3401 387.881 97.0351C389.996 93.5721 396.491 91.2156 404.24 91.2156V91.2273ZM404.275 63.7644C395.137 63.7644 386.53 61.6991 380.039 57.9488C378.524 57.0792 377.154 56.1203 375.842 55.0099C375.597 54.8003 375.454 54.4936 375.454 54.1675C375.454 53.8414 375.597 53.5347 375.842 53.3251C377.104 52.2536 378.501 51.2714 380.007 50.4017C386.487 46.6632 395.074 44.6017 404.198 44.6017C413.321 44.6017 421.943 46.6671 428.431 50.4173C429.929 51.2791 431.338 52.2652 432.623 53.3561C432.872 53.5658 433.012 53.8763 433.012 54.1986C433.012 54.5208 432.868 54.8314 432.623 55.041C431.362 56.1086 429.964 57.0908 428.462 57.9604C421.986 61.7029 413.391 63.7605 404.271 63.7605L404.275 63.7644ZM378.319 54.1675C379.208 54.843 380.139 55.4603 381.141 56.0349C387.306 59.5949 395.521 61.5554 404.275 61.5554C413.03 61.5554 421.213 59.6026 427.359 56.0543C428.341 55.4836 429.273 54.8624 430.15 54.1986C429.261 53.5231 428.33 52.9058 427.332 52.3312C421.167 48.7712 412.952 46.8107 404.198 46.8107C395.443 46.8107 387.259 48.7635 381.114 52.3118C380.128 52.8825 379.192 53.4998 378.319 54.1636V54.1675Z" fill="#0D0D0D"/>
<path d="M437.695 62.6537C443.274 59.4315 451.035 58.5774 456.101 60.4215C458.605 57.8864 460.527 55.2115 461.827 52.4512C455.981 51.6903 451.532 47.9168 451.532 43.3513C451.524 38.7858 455.961 35.0162 461.808 34.2591C460.5 31.4989 458.578 28.8279 456.066 26.285C451.004 28.1252 443.247 27.2672 437.66 24.0411C432.07 20.8149 430.587 16.3349 433.77 13.4115C429.372 11.9635 424.748 10.8531 419.969 10.1C418.645 13.4736 412.119 16.0359 404.215 16.032C396.311 16.032 389.769 13.4581 388.449 10.0845C383.674 10.8337 379.046 11.9441 374.656 13.3883C377.847 16.3155 376.368 20.7955 370.789 24.0178C365.206 27.24 357.454 28.0903 352.383 26.2501C349.875 28.7891 347.965 31.46 346.665 34.2164C352.504 34.9812 356.949 38.7547 356.964 43.3163C356.964 47.878 352.523 51.6515 346.68 52.4124C347.985 55.1688 349.91 57.8437 352.422 60.3788C357.481 58.5425 365.241 59.3965 370.828 62.6265C376.422 65.8488 377.897 70.3289 374.722 73.2522C379.112 74.7041 383.744 75.8184 388.515 76.5676C389.839 73.1979 396.373 70.6278 404.273 70.6317C412.177 70.6317 418.719 73.2056 420.035 76.5793C424.814 75.83 429.438 74.7197 433.836 73.2794C430.645 70.3522 432.12 65.8721 437.699 62.6499L437.695 62.6537ZM380.595 56.9895C367.516 49.4386 367.505 37.2096 380.564 29.6703C393.624 22.1271 414.81 22.1349 427.885 29.6858C440.956 37.2329 440.972 49.4658 427.912 57.009C414.852 64.5483 393.667 64.5444 380.595 56.9934V56.9895Z" fill="white"/>
<path d="M420.029 77.6899C419.578 77.6899 419.167 77.4142 419 76.9872C417.994 74.4133 412.21 71.7462 404.267 71.7423C396.025 71.7423 390.527 74.4405 389.534 76.9756C389.343 77.457 388.85 77.7442 388.334 77.6627C383.501 76.8979 378.803 75.7682 374.37 74.3046C373.997 74.1804 373.721 73.8736 373.64 73.4893C373.558 73.1088 373.682 72.709 373.97 72.445C374.944 71.5521 375.367 70.5155 375.239 69.3664C375.022 67.3864 373.213 65.2823 370.27 63.5896C366.912 61.6485 362.614 60.5382 358.48 60.5382C356.356 60.5382 354.392 60.8449 352.792 61.4234C352.392 61.5709 351.934 61.4699 351.628 61.1632C349.038 58.5466 347.035 55.7631 345.672 52.8902C345.521 52.5719 345.532 52.1992 345.703 51.8886C345.87 51.578 346.177 51.3684 346.53 51.3218C351.93 50.6191 355.855 47.2532 355.855 43.3205C355.84 39.3878 351.915 36.018 346.515 35.3115C346.165 35.2649 345.862 35.0553 345.692 34.7447C345.521 34.4341 345.509 34.0653 345.661 33.7469C347.015 30.8702 349.015 28.0867 351.593 25.4739C351.891 25.1672 352.353 25.0663 352.757 25.2138C354.364 25.7961 356.341 26.1067 358.468 26.1067C362.595 26.1067 366.885 25.0003 370.231 23.0669C373.162 21.3743 374.967 19.2701 375.185 17.2941C375.313 16.141 374.882 15.1045 373.908 14.2077C373.62 13.9437 373.492 13.5438 373.574 13.1634C373.655 12.779 373.935 12.4723 374.307 12.3481C378.753 10.8845 383.45 9.75866 388.272 9.00163C388.788 8.91622 389.281 9.20737 389.471 9.68877C390.465 12.2277 395.97 14.9298 404.212 14.9337C412.45 14.9337 417.944 12.2394 418.941 9.70431C419.132 9.22292 419.609 8.94339 420.141 9.01715C424.971 9.77807 429.672 10.9078 434.113 12.3714C434.486 12.4918 434.765 12.8023 434.847 13.1867C434.928 13.571 434.804 13.967 434.513 14.231C433.543 15.1239 433.115 16.1604 433.24 17.3096C433.457 19.2895 435.27 21.3976 438.209 23.0902C441.563 25.0275 445.861 26.1417 449.995 26.1417C452.119 26.1417 454.091 25.8349 455.687 25.2526C456.091 25.1051 456.545 25.206 456.851 25.5127C459.437 28.1294 461.44 30.9129 462.807 33.7858C462.958 34.108 462.947 34.4768 462.776 34.7913C462.609 35.1019 462.302 35.3115 461.949 35.3581C456.545 36.0569 452.631 39.4227 452.631 43.3554C452.631 47.2881 456.556 50.6579 461.968 51.3606C462.318 51.4072 462.624 51.6169 462.795 51.9274C462.966 52.238 462.974 52.6068 462.826 52.929C461.471 55.798 459.476 58.5816 456.886 61.206C456.584 61.5127 456.129 61.6097 455.722 61.4661C454.118 60.8837 452.15 60.5732 450.019 60.5732C445.888 60.5732 441.598 61.6796 438.248 63.6168C435.321 65.3095 433.515 67.4136 433.298 69.3897C433.174 70.5427 433.605 71.5831 434.579 72.4761C434.866 72.74 434.998 73.1361 434.913 73.5204C434.831 73.9047 434.552 74.2153 434.175 74.3357C429.719 75.7993 425.017 76.9212 420.203 77.6782C420.145 77.686 420.087 77.6938 420.032 77.6938L420.029 77.6899ZM404.243 69.5372C412.031 69.5372 418.542 71.8976 420.654 75.3683C424.516 74.7278 428.302 73.8426 431.928 72.7284C431.244 71.6453 430.961 70.4301 431.101 69.1451C431.4 66.4237 433.546 63.7799 437.141 61.7029C440.818 59.5793 445.511 58.3642 450.015 58.3642C452.111 58.3642 454.087 58.6359 455.788 59.1562C457.585 57.2655 459.053 55.2933 460.163 53.2823C454.437 52.0128 450.422 48.0102 450.422 43.3554C450.419 38.7045 454.417 34.702 460.14 33.4325C459.022 31.4137 457.55 29.4416 455.753 27.5548C454.056 28.075 452.084 28.3468 449.992 28.3468C445.484 28.3468 440.783 27.1278 437.103 25.0003C433.492 22.9194 431.341 20.2756 431.042 17.5503C430.903 16.2653 431.182 15.0501 431.865 13.9709C428.247 12.8567 424.458 11.9715 420.584 11.3271C418.468 14.79 411.969 17.1427 404.22 17.1427C396.444 17.1427 389.933 14.7822 387.818 11.3115C383.947 11.9521 380.17 12.8412 376.548 13.9515C377.235 15.0346 377.518 16.2497 377.374 17.5386C377.076 20.2601 374.929 22.9078 371.33 24.9809C367.657 27.1045 362.968 28.3196 358.464 28.3196C356.368 28.3196 354.388 28.044 352.683 27.5238C350.89 29.4105 349.426 31.3788 348.316 33.3976C354.031 34.6709 358.045 38.6696 358.06 43.3244C358.06 47.9792 354.054 51.9818 348.335 53.2512C349.453 55.2661 350.921 57.2344 352.726 59.1251C354.419 58.6048 356.387 58.3331 358.48 58.3331C362.991 58.3331 367.692 59.5521 371.376 61.6796C374.983 63.7566 377.134 66.4042 377.433 69.1257C377.576 70.4107 377.293 71.6259 376.614 72.709C380.228 73.8232 384.009 74.7122 387.884 75.3606C389.999 71.8937 396.494 69.5411 404.243 69.5411V69.5372ZM404.278 63.7644C395.14 63.7644 386.533 61.699 380.042 57.9488C373.356 54.0898 369.672 48.8915 369.676 43.3166C369.676 37.7495 373.349 32.5667 380.014 28.7156C386.494 24.977 395.081 22.9155 404.205 22.9155C413.328 22.9155 421.95 24.9809 428.437 28.7311C435.123 32.5901 438.803 37.7845 438.803 43.3593C438.803 48.9342 435.134 54.1131 428.465 57.9643C421.989 61.7029 413.398 63.7644 404.278 63.7644ZM404.201 25.1245C395.458 25.1245 387.259 27.0773 381.117 30.6295C375.162 34.0653 371.881 38.5725 371.881 43.3166C371.881 48.0685 375.169 52.5874 381.144 56.0387C387.309 59.5987 395.524 61.5592 404.278 61.5592C413.033 61.5592 421.216 59.6065 427.362 56.0581C433.317 52.6185 436.598 48.1112 436.598 43.3632C436.598 38.6153 433.31 34.0925 427.335 30.645C421.17 27.0889 412.955 25.1284 404.201 25.1284V25.1245Z" fill="#0D0D0D"/>
<path d="M433.832 96.0768C433.223 96.0768 432.726 95.5838 432.726 94.9743V73.2881C432.726 72.6786 433.223 72.1855 433.832 72.1855C434.442 72.1855 434.935 72.6786 434.935 73.2881V94.9743C434.935 95.5838 434.442 96.0768 433.832 96.0768Z" fill="#0D0D0D"/>
<path d="M420.028 99.38C419.419 99.38 418.926 98.887 418.926 98.2775V76.5875C418.926 75.9779 419.419 75.4849 420.028 75.4849C420.638 75.4849 421.135 75.9779 421.135 76.5875V98.2775C421.135 98.887 420.638 99.38 420.028 99.38Z" fill="#0D0D0D"/>
<path d="M456.1 83.2194C455.491 83.2194 454.994 82.7263 454.994 82.1168V60.4268C454.994 59.8173 455.491 59.3242 456.1 59.3242C456.71 59.3242 457.203 59.8173 457.203 60.4268V82.1168C457.203 82.7263 456.71 83.2194 456.1 83.2194Z" fill="#0D0D0D"/>
<path d="M388.507 99.3643C387.898 99.3643 387.405 98.8713 387.405 98.2618V76.5757C387.405 75.9662 387.902 75.4731 388.507 75.4731C389.113 75.4731 389.61 75.9662 389.61 76.5757V98.2618C389.61 98.8713 389.113 99.3643 388.507 99.3643Z" fill="#0D0D0D"/>
<path d="M374.713 96.0538C374.103 96.0538 373.606 95.5608 373.606 94.9512V73.2612C373.606 72.6517 374.103 72.1587 374.713 72.1587C375.322 72.1587 375.815 72.6517 375.815 73.2612V94.9512C375.815 95.5608 375.322 96.0538 374.713 96.0538Z" fill="#0D0D0D"/>
<path d="M352.418 83.1798C351.809 83.1798 351.316 82.6867 351.316 82.0772V60.3872C351.316 59.7777 351.809 59.2847 352.418 59.2847C353.028 59.2847 353.521 59.7816 353.521 60.3872V82.0772C353.521 82.6867 353.024 83.1798 352.418 83.1798Z" fill="#0D0D0D"/>
<path d="M451.53 43.3568C451.53 47.9223 455.979 51.6959 461.825 52.4568C461.822 52.4568 461.814 52.4568 461.806 52.4568V34.2686C455.963 35.0256 451.522 38.7991 451.53 43.3607V43.3568Z" fill="#0D0D0D"/>
<path d="M461.876 53.5546C461.876 53.5546 461.841 53.5546 461.822 53.5546C461.775 53.5546 461.725 53.5546 461.678 53.5469C461.678 53.5469 461.678 53.5469 461.675 53.5469C461.675 53.5469 461.663 53.5469 461.659 53.5469C455.148 52.6928 450.42 48.4068 450.42 43.356C450.416 38.2975 455.141 34.0154 461.659 33.169C461.966 33.1263 462.292 33.2234 462.532 33.4369C462.769 33.6466 462.909 33.9494 462.909 34.2678V52.0678C462.956 52.1881 462.979 52.324 462.979 52.4599C462.979 53.0694 462.486 53.5624 461.876 53.5624V53.5546ZM460.7 35.5683C455.948 36.5893 452.625 39.7261 452.629 43.3521C452.629 46.9704 455.956 50.115 460.704 51.1399V35.5683H460.7Z" fill="#0D0D0D"/>
<path d="M437.694 62.6548C432.115 65.877 430.64 70.3571 433.831 73.2843V87.5321C434.747 86.4101 436.013 85.3153 437.694 84.3448C443.272 81.1225 451.033 80.2723 456.099 82.1164V60.4264C451.033 58.5862 443.276 59.4364 437.694 62.6586V62.6548Z" fill="#92E490"/>
<path d="M433.831 88.6355C433.707 88.6355 433.579 88.6122 433.458 88.5695C433.02 88.4142 432.728 87.9988 432.728 87.5329V73.7471C431.474 72.4349 430.915 70.8549 431.106 69.1467C431.405 66.4252 433.551 63.7814 437.146 61.7044C440.823 59.5809 445.516 58.3657 450.02 58.3657C452.404 58.3657 454.64 58.719 456.48 59.3906C456.915 59.5498 457.206 59.9652 457.206 60.4272V82.1172C457.206 82.4783 457.031 82.8121 456.736 83.0218C456.441 83.2275 456.065 83.278 455.723 83.1537C454.12 82.5714 452.143 82.2609 450.016 82.2609C445.889 82.2609 441.599 83.3673 438.249 85.3006C436.789 86.1431 435.59 87.1331 434.689 88.2317C434.472 88.4918 434.157 88.6355 433.835 88.6355H433.831ZM450.016 60.5708C445.885 60.5708 441.595 61.6773 438.245 63.6145C435.318 65.3072 433.513 67.4113 433.295 69.3874C433.171 70.5404 433.602 71.5808 434.576 72.4737C434.805 72.6795 434.934 72.9785 434.934 73.2851V84.9007C435.601 84.3611 436.339 83.8564 437.139 83.3906C440.815 81.2709 445.505 80.0557 450.012 80.0557C451.79 80.0557 453.483 80.2537 454.993 80.6303V61.2269C453.537 60.7999 451.833 60.5747 450.016 60.5747V60.5708Z" fill="#0D0D0D"/>
<path d="M456.099 60.4219V82.1119C458.603 79.569 460.524 76.9019 461.825 74.1417V52.4517C460.528 55.2119 458.603 57.8829 456.099 60.4219Z" fill="#0D0D0D"/>
<path d="M456.1 83.2183C455.956 83.2183 455.817 83.1911 455.681 83.1368C455.262 82.966 454.994 82.5622 454.994 82.1157V60.4257C454.994 60.1346 455.11 59.855 455.316 59.6493C457.731 57.2074 459.582 54.6257 460.825 51.9858C461.046 51.5199 461.551 51.252 462.067 51.3801C462.572 51.4927 462.929 51.9392 462.929 52.4555V74.1455C462.929 74.3086 462.894 74.4677 462.824 74.6153C461.477 77.4765 459.478 80.2639 456.884 82.8883C456.675 83.1057 456.387 83.2183 456.1 83.2183ZM457.203 60.876V79.2623C458.658 77.5191 459.839 75.7217 460.72 73.8932V56.5784C459.718 58.0459 458.546 59.4823 457.203 60.8722V60.876Z" fill="#0D0D0D"/>
<path d="M421.37 59.926V43.3412H421.366C421.366 40.8138 419.689 38.2826 416.342 36.3531C409.649 32.4864 398.81 32.4864 392.125 36.3454C388.778 38.2748 387.109 40.8061 387.109 43.3412V59.9066C397.637 63.5442 410.845 63.5482 421.366 59.9299L421.37 59.926Z" fill="#0D0D0D"/>
<path d="M404.276 63.7423C398.103 63.7423 392.043 62.7756 386.751 60.9471C386.305 60.7918 386.01 60.3764 386.01 59.9066V43.3412C386.01 40.282 387.986 37.4596 391.573 35.3904C394.97 33.4299 399.462 32.3506 404.221 32.3506C408.981 32.3506 413.488 33.4337 416.893 35.402C420.437 37.4479 422.417 40.2199 422.468 43.2208C422.472 43.2596 422.476 43.3024 422.476 43.3412V59.9261C422.476 60.3958 422.177 60.819 421.73 60.9704C416.462 62.7834 410.425 63.7423 404.28 63.7423H404.276ZM388.215 59.1108C397.955 62.2787 410.514 62.2864 420.263 59.1341V43.4538C420.259 43.4188 420.255 43.38 420.255 43.3412C420.255 41.1128 418.667 38.9737 415.786 37.3121C412.712 35.5379 408.604 34.5596 404.221 34.5596C399.838 34.5596 395.739 35.534 392.676 37.3043C389.799 38.962 388.215 41.1089 388.215 43.3451V59.1147V59.1108Z" fill="#0D0D0D"/>
<path d="M392.133 50.3306C385.443 46.4678 385.44 40.2058 392.125 36.3468C398.81 32.4879 409.649 32.4879 416.342 36.3546C423.039 40.2174 423.043 46.4756 416.358 50.3384C409.672 54.1973 398.825 54.1935 392.133 50.3306Z" fill="white"/>
<path d="M404.261 54.3327C399.489 54.3327 394.986 53.2496 391.585 51.2852C387.994 49.2082 386.014 46.3858 386.014 43.3305C386.014 40.2752 387.99 37.4606 391.574 35.3914C394.97 33.4309 399.462 32.3516 404.222 32.3516C408.981 32.3516 413.489 33.4347 416.893 35.403C420.488 37.4761 422.472 40.3024 422.472 43.3538C422.472 46.4052 420.5 49.2237 416.913 51.293C413.52 53.2535 409.024 54.3327 404.265 54.3327H404.261ZM404.222 34.5567C399.843 34.5567 395.739 35.5311 392.676 37.3014C389.803 38.9591 388.219 41.1021 388.219 43.3305C388.219 45.5589 389.807 47.7097 392.688 49.3751C395.762 51.1493 399.874 52.1277 404.261 52.1277C408.648 52.1277 412.739 51.1532 415.806 49.3829C418.683 47.7252 420.267 45.5822 420.267 43.3538C420.267 41.1254 418.679 38.9747 415.791 37.3131C412.716 35.5389 408.609 34.5606 404.226 34.5606L404.222 34.5567Z" fill="#0D0D0D"/>
</g>
<path d="M117.513 306.846C137.879 318.603 170.942 318.586 191.361 306.796C211.77 295.007 211.816 275.921 191.446 264.164C171.07 252.399 138.014 252.424 117.598 264.21C97.1822 275.999 97.1468 295.085 117.513 306.846Z" fill="#0D0D0D"/>
<path d="M154.36 316.66H154.356C140.259 316.66 126.994 313.487 117.01 307.722C106.852 301.857 101.253 293.989 101.253 285.576C101.253 277.162 106.88 269.237 117.095 263.337C127.136 257.54 140.457 254.346 154.597 254.346C168.737 254.346 181.962 257.523 191.951 263.291C202.109 269.156 207.704 277.02 207.704 285.434C207.704 293.876 202.08 301.772 191.865 307.672C181.824 313.469 168.503 316.664 154.36 316.664V316.66ZM154.597 256.363C140.801 256.363 127.842 259.459 118.102 265.085C108.536 270.606 103.267 277.885 103.267 285.576C103.267 293.238 108.508 300.485 118.017 305.974C127.7 311.565 140.606 314.643 154.356 314.643H154.36C168.156 314.643 181.115 311.547 190.855 305.921C200.421 300.396 205.686 293.121 205.686 285.43C205.686 277.768 200.449 270.524 190.94 265.036C181.253 259.441 168.347 256.36 154.597 256.36V256.363Z" fill="#0D0D0D"/>
<path d="M192.027 271.244C197.874 261.119 198.451 251.952 194.662 245.299H194.665L194.634 245.24V245.237L191.141 239.193C187.321 232.518 179.101 228.389 167.384 228.393C143.982 228.393 115.508 244.858 103.779 265.171C97.9253 275.308 97.3575 284.491 101.156 291.143L104.683 297.253C108.506 303.906 116.726 308.022 128.421 308.022C151.823 308.022 180.301 291.557 192.027 271.244Z" fill="#0D0D0D"/>
<path d="M128.42 308.898C116.775 308.898 108.076 304.914 103.923 297.688L100.396 291.581C96.264 284.345 97.1928 274.81 103.019 264.729C114.868 244.209 143.744 227.513 167.383 227.513C179.05 227.513 187.755 231.506 191.902 238.757L195.392 244.799C195.392 244.799 195.411 244.83 195.417 244.845C195.426 244.864 195.435 244.879 195.441 244.898C199.533 252.118 198.592 261.628 192.785 271.684C180.939 292.204 152.066 308.901 128.42 308.901V308.898ZM167.392 229.265C144.299 229.265 116.108 245.567 104.54 265.606C99.0412 275.125 98.1124 284.04 101.917 290.705L105.444 296.811C109.273 303.473 117.432 307.142 128.423 307.142C151.507 307.142 179.701 290.84 191.273 270.802C196.762 261.295 197.697 252.393 193.905 245.731C193.886 245.703 193.871 245.672 193.862 245.641L190.384 239.624C186.558 232.94 178.393 229.262 167.396 229.262L167.392 229.265Z" fill="#0D0D0D"/>
<path d="M107.605 259.496C106.204 261.35 104.893 263.233 103.779 265.167C97.9253 275.304 97.3575 284.487 101.156 291.14L104.683 297.249C108.506 303.902 116.726 308.018 128.421 308.018C130.683 308.018 133 307.821 135.333 307.525L107.605 259.493V259.496Z" fill="#92E490"/>
<path d="M128.42 308.897C116.775 308.897 108.076 304.914 103.923 297.687L100.396 291.58C96.264 284.344 97.1928 274.81 103.019 264.729C104.031 262.97 105.305 261.088 106.907 258.968C107.086 258.733 107.391 258.607 107.66 258.619C107.953 258.638 108.218 258.801 108.366 259.057L136.097 307.089C136.245 307.342 136.252 307.654 136.122 307.916C135.989 308.178 135.736 308.36 135.446 308.397C132.78 308.734 130.484 308.897 128.423 308.897H128.42ZM107.511 261.091C106.32 262.723 105.342 264.207 104.537 265.605C99.0381 275.124 98.1093 284.039 101.914 290.704L105.441 296.811C109.27 303.473 117.429 307.142 128.42 307.142C130.062 307.142 131.867 307.034 133.906 306.811L107.511 261.091Z" fill="#0D0D0D"/>
<path d="M124.914 301.943C148.313 301.943 176.794 285.478 188.519 265.165C200.245 244.852 190.784 228.386 167.382 228.386C143.98 228.386 115.505 244.852 103.777 265.165C92.048 285.478 101.515 301.943 124.914 301.943Z" fill="white"/>
<path d="M124.914 302.819C113.287 302.819 104.592 298.848 100.429 291.636C96.2511 284.404 97.1707 274.847 103.015 264.723C114.864 244.203 143.74 227.506 167.38 227.506C179.006 227.506 187.699 231.478 191.865 238.686C196.04 245.919 195.12 255.478 189.279 265.599C177.43 286.119 148.557 302.816 124.914 302.816V302.819ZM167.383 229.262C144.299 229.262 116.108 245.564 104.539 265.602C99.0221 275.159 98.1026 284.092 101.95 290.76C105.789 297.404 113.941 301.066 124.914 301.066C147.998 301.066 176.192 284.765 187.761 264.726C193.278 255.17 194.197 246.233 190.346 239.565C186.511 232.922 178.355 229.262 167.383 229.262Z" fill="#0D0D0D"/>
<path d="M176.458 265.167C184.848 250.634 178.078 238.856 161.338 238.853C144.598 238.853 124.226 250.634 115.839 265.167C107.446 279.701 114.216 291.476 130.959 291.479C147.699 291.479 168.074 279.698 176.458 265.167ZM127.895 265.167C132.95 256.413 145.215 249.319 155.296 249.322C165.377 249.322 169.453 256.413 164.402 265.167C159.351 273.918 147.082 281.012 137.001 281.012C126.92 281.012 122.841 273.918 127.895 265.167ZM139.954 265.167C141.667 262.199 145.832 259.789 149.251 259.789C152.67 259.789 154.056 262.196 152.34 265.167C150.624 268.136 146.462 270.546 143.04 270.543C139.621 270.543 138.235 268.136 139.951 265.167H139.954Z" fill="#92E490"/>
<path d="M130.959 292.355C122.548 292.355 116.25 289.467 113.229 284.23C110.196 278.975 110.853 272.051 115.08 264.729C123.594 249.979 144.345 237.979 161.338 237.976C169.75 237.976 176.045 240.861 179.069 246.1C182.102 251.355 181.445 258.283 177.217 265.605C168.707 280.351 147.952 292.352 130.956 292.355H130.959ZM161.338 239.731C144.904 239.731 124.834 251.34 116.599 265.605C112.698 272.36 112.038 278.664 114.744 283.351C117.441 288.026 123.199 290.599 130.959 290.599C147.397 290.599 167.469 278.991 175.702 264.726C179.602 257.968 180.26 251.664 177.553 246.977C174.857 242.305 169.099 239.731 161.341 239.728L161.338 239.731ZM137.001 281.888C131.808 281.888 127.905 280.089 126.022 276.821C124.131 273.544 124.529 269.249 127.139 264.726C132.32 255.746 144.953 248.442 155.293 248.442H155.296C160.49 248.442 164.39 250.241 166.275 253.506C168.167 256.783 167.772 261.078 165.164 265.602C159.98 274.581 147.345 281.885 137.004 281.885L137.001 281.888ZM155.293 250.198C145.509 250.198 133.558 257.11 128.658 265.605C126.374 269.561 125.976 273.233 127.541 275.945C129.099 278.648 132.459 280.132 137.001 280.132C146.786 280.132 158.737 273.22 163.643 264.726C165.927 260.77 166.322 257.095 164.757 254.385C163.199 251.685 159.839 250.198 155.296 250.198H155.293ZM143.049 271.418H143.043C141.065 271.418 139.565 270.702 138.816 269.41C138.066 268.111 138.198 266.447 139.195 264.729C141.077 261.467 145.496 258.912 149.255 258.912C151.232 258.912 152.735 259.625 153.482 260.921C154.232 262.22 154.099 263.883 153.106 265.605C151.223 268.863 146.808 271.418 143.052 271.418H143.049ZM149.255 260.665C146.172 260.665 142.259 262.927 140.716 265.602C140.047 266.756 139.914 267.796 140.337 268.53C140.757 269.258 141.716 269.663 143.04 269.663L143.052 270.539V269.663C146.132 269.663 150.041 267.401 151.587 264.726C152.254 263.568 152.39 262.528 151.964 261.794C151.544 261.066 150.581 260.665 149.255 260.665Z" fill="#0D0D0D"/>
<path d="M101.027 200.653C104.279 206.288 112.987 212.092 115.594 212.237C112.475 206.834 109.355 201.434 106.235 196.031C103.631 195.883 100.113 194.698 96.4568 192.738C99.5764 198.144 97.9071 195.25 101.027 200.65V200.653Z" fill="#92E490"/>
<path d="M115.595 213.117C115.577 213.117 115.561 213.117 115.543 213.117C112.454 212.944 103.573 206.816 100.269 201.095L95.6986 193.183C95.5012 192.844 95.5536 192.415 95.8282 192.134C96.0998 191.85 96.5225 191.786 96.8712 191.971C100.395 193.859 103.823 195.022 106.283 195.161C106.579 195.177 106.844 195.343 106.992 195.596L116.348 211.802C116.509 212.08 116.505 212.426 116.336 212.7C116.178 212.96 115.891 213.12 115.589 213.12L115.595 213.117ZM98.664 194.803L101.79 200.219C104.385 204.718 110.325 209.075 113.691 210.701L105.709 196.877C103.694 196.683 101.265 195.967 98.664 194.806V194.803Z" fill="#0D0D0D"/>
<path d="M146.152 266.044C145.849 266.044 145.553 265.886 145.392 265.606L103.578 193.181C103.334 192.762 103.479 192.225 103.899 191.984C104.322 191.74 104.856 191.888 105.096 192.305L146.908 264.729C147.151 265.149 147.006 265.686 146.587 265.927C146.451 266.007 146.3 266.044 146.148 266.044H146.152Z" fill="#0D0D0D"/>
<path d="M105.044 207.652C108.293 213.274 114.317 214.413 115.668 212.37C112.558 206.982 109.444 201.592 106.334 196.204C104.985 198.247 102.884 199.524 100.49 199.756C103.606 205.15 101.94 202.261 105.044 207.652Z" fill="white"/>
<path d="M113.369 214.193C110.604 214.193 106.722 212.305 104.288 208.093L99.7333 200.197C99.5852 199.938 99.5759 199.623 99.7117 199.357C99.8475 199.092 100.11 198.913 100.409 198.885C102.554 198.676 104.396 197.552 105.605 195.723C105.772 195.469 106.065 195.318 106.364 195.328C106.67 195.337 106.945 195.503 107.099 195.766L116.433 211.932C116.6 212.219 116.59 212.577 116.405 212.854C115.838 213.718 114.761 214.193 113.372 214.193H113.369ZM101.878 200.404L105.806 207.217C107.88 210.805 111.181 212.438 113.369 212.441C113.853 212.441 114.267 212.358 114.56 212.206L106.229 197.775C105.059 199.067 103.55 199.981 101.878 200.407V200.404Z" fill="#0D0D0D"/>
<path d="M112.939 193.977C116.185 199.596 116.846 210.032 115.664 212.368C112.553 206.98 109.44 201.59 106.33 196.202C107.508 193.866 108.243 190.222 108.382 186.081C111.495 191.472 109.829 188.584 112.939 193.977Z" fill="#92E490"/>
<path d="M115.664 213.244C115.349 213.244 115.059 213.077 114.905 212.806L105.57 196.64C105.422 196.384 105.413 196.069 105.546 195.807C106.657 193.607 107.372 190.052 107.505 186.053C107.517 185.664 107.789 185.328 108.172 185.232C108.554 185.136 108.949 185.306 109.144 185.645L113.698 193.542C116.997 199.257 117.842 210.004 116.444 212.766C116.299 213.053 116.009 213.238 115.685 213.247H115.664V213.244ZM107.32 196.162L115.284 209.955C115.568 206.227 114.775 198.908 112.18 194.415L109.06 189.006C108.758 191.848 108.162 194.313 107.32 196.162Z" fill="#0D0D0D"/>
<path d="M116.78 200.655C120.036 206.289 118.027 212.096 115.592 212.238C112.473 206.835 109.353 201.435 106.233 196.032C108.668 195.884 110.819 194.699 112.21 192.74C115.33 198.146 113.661 195.251 116.78 200.651V200.655Z" fill="white"/>
<path d="M115.595 213.118C115.28 213.118 114.993 212.951 114.836 212.679L105.477 196.473C105.326 196.211 105.32 195.887 105.465 195.619C105.607 195.35 105.881 195.177 106.184 195.159C108.368 195.029 110.254 193.989 111.497 192.237C111.673 191.993 111.951 191.845 112.256 191.866C112.552 191.879 112.824 192.045 112.975 192.305L117.545 200.216C119.927 204.342 119.687 208.616 118.391 211.019C117.696 212.309 116.721 213.053 115.647 213.118C115.629 213.118 115.614 213.118 115.595 213.118ZM107.649 196.723L116.002 211.195C116.299 211.001 116.592 210.652 116.842 210.189C117.872 208.279 118.051 204.62 116.021 201.096L112.08 194.273C110.883 195.511 109.346 196.359 107.649 196.726V196.723Z" fill="#0D0D0D"/>
<g opacity="0.2">
<path d="M226.585 39.7856L223.532 41.5481V43.7965C223.532 68.2104 239.761 98.5023 253.045 106.175L256.098 104.413V103.806C255.116 101.937 254.172 99.9602 253.275 97.8699C244.284 90.1644 232.853 69.8008 230.809 50.2441L241.354 56.3336L244.407 54.5712C244.391 53.6574 244.374 52.7367 244.377 51.8113V51.7903C244.377 51.2137 244.428 50.665 244.514 50.1418L226.585 39.7856Z" fill="#92E490"/>
<path d="M253.044 106.836C252.93 106.836 252.816 106.806 252.714 106.748C239.279 98.989 222.868 68.4158 222.868 43.7949V41.5489C222.868 41.3117 222.994 41.0931 223.201 40.9769L226.254 39.2144C226.46 39.0958 226.709 39.0958 226.916 39.2144L244.845 49.5706C245.083 49.7078 245.213 49.9775 245.166 50.2495C245.092 50.7099 245.05 51.1517 245.041 51.5935C245.062 51.6562 245.071 51.7237 245.071 51.7934C245.071 51.8678 245.059 51.9352 245.038 52.0027C245.038 52.8723 245.055 53.7186 245.071 54.5627C245.076 54.8021 244.948 55.0277 244.741 55.1463L241.688 56.9087C241.483 57.0273 241.232 57.0273 241.027 56.9087L231.62 51.4772C233.968 70.1806 244.778 89.7187 253.711 97.3731C253.788 97.4382 253.846 97.5219 253.888 97.6149C254.76 99.6401 255.701 101.623 256.69 103.502C256.741 103.597 256.764 103.702 256.764 103.809V104.416C256.764 104.653 256.638 104.872 256.434 104.988L253.381 106.75C253.279 106.808 253.165 106.839 253.051 106.839L253.044 106.836ZM224.191 41.9302V43.7973C224.191 67.8043 239.974 97.5196 253.048 105.411L255.436 103.969C254.483 102.147 253.574 100.231 252.728 98.2729C243.418 90.2047 232.171 69.6481 230.15 50.3146C230.125 50.0682 230.239 49.8263 230.448 49.6915C230.657 49.5543 230.922 49.5497 231.139 49.6729L241.353 55.5694L243.739 54.193C243.725 53.4024 243.713 52.6072 243.715 51.8097C243.715 51.3633 243.741 50.9308 243.797 50.489L226.586 40.5491L224.193 41.9302H224.191Z" fill="#0D0D0D"/>
<path d="M241.461 51.9017C241.375 52.4272 241.321 52.9736 241.321 53.5525V53.5735C241.321 54.4965 241.335 55.4173 241.354 56.3334L227.48 48.3233C228.345 68.9473 240.665 91.443 250.226 99.6344C251.122 101.725 252.066 103.701 253.044 105.57V106.177C239.761 98.5044 223.531 68.2125 223.531 43.7986V41.5479L241.461 51.904V51.9017Z" fill="white"/>
<path d="M253.044 106.836C252.93 106.836 252.816 106.805 252.713 106.747C239.279 98.9883 222.868 68.4151 222.868 43.7942V41.5481C222.868 41.311 222.993 41.0924 223.2 40.9761C223.403 40.8576 223.656 40.8576 223.861 40.9761L241.79 51.3323C242.029 51.4695 242.157 51.7415 242.111 52.0112C242.025 52.5414 241.981 53.0459 241.981 53.5551C241.981 54.4945 241.994 55.4129 242.013 56.322C242.018 56.5592 241.895 56.7824 241.688 56.9033C241.481 57.0242 241.227 57.0266 241.02 56.9057L228.202 49.5024C229.513 70.4635 241.957 91.6804 250.653 99.1325C250.73 99.1976 250.793 99.2789 250.83 99.3743C251.693 101.39 252.634 103.371 253.627 105.262C253.676 105.357 253.704 105.461 253.704 105.568V106.175C253.704 106.412 253.578 106.631 253.374 106.747C253.271 106.805 253.157 106.836 253.044 106.836ZM224.191 42.6921V43.7965C224.191 67.0479 238.993 95.6517 251.802 104.599C251.058 103.113 250.344 101.585 249.679 100.035C240.637 92.1896 227.727 69.9799 226.821 48.3492C226.809 48.1073 226.932 47.8818 227.137 47.7562C227.344 47.633 227.602 47.6284 227.809 47.7493L240.671 55.1781C240.662 54.6456 240.66 54.1108 240.66 53.5761C240.66 53.1273 240.688 52.6925 240.741 52.2531L224.191 42.6944V42.6921Z" fill="#0D0D0D"/>
<path d="M308.162 163.392L268.393 140.433L228.675 163.366V180.993L268.442 203.954L308.162 181.021V163.392Z" fill="#92E490"/>
<path d="M268.442 204.613C268.326 204.613 268.214 204.583 268.112 204.524L228.345 181.566C228.14 181.447 228.015 181.229 228.015 180.994V163.367C228.015 163.13 228.14 162.911 228.345 162.795L268.063 139.862C268.27 139.744 268.519 139.744 268.726 139.862L308.495 162.821C308.697 162.939 308.825 163.158 308.825 163.393V181.022C308.825 181.257 308.699 181.478 308.495 181.594L268.772 204.527C268.67 204.587 268.558 204.615 268.442 204.615V204.613ZM229.338 180.61L268.442 203.187L307.502 180.636V163.769L268.393 141.192L229.338 163.744V180.608V180.61Z" fill="#0D0D0D"/>
<path d="M308.162 163.391L268.393 140.433L228.675 163.365L268.442 186.326L308.162 163.391Z" fill="white"/>
<path d="M268.442 186.987C268.326 186.987 268.214 186.959 268.112 186.898L228.345 163.938C228.14 163.819 228.015 163.601 228.015 163.366C228.015 163.131 228.14 162.91 228.345 162.794L268.063 139.861C268.27 139.742 268.519 139.742 268.726 139.861L308.495 162.819C308.697 162.938 308.825 163.156 308.825 163.391C308.825 163.626 308.699 163.847 308.495 163.963L268.772 186.898C268.67 186.959 268.558 186.987 268.442 186.987ZM229.998 163.366L268.442 185.564L306.839 163.391L268.393 141.196L229.998 163.366Z" fill="#0D0D0D"/>
<path d="M268.44 186.326V203.953L308.16 181.02V163.391L268.44 186.326Z" fill="#0D0D0D"/>
<path d="M268.441 204.613C268.324 204.613 268.213 204.583 268.11 204.525C267.903 204.406 267.78 204.19 267.78 203.953V186.326C267.78 186.091 267.906 185.873 268.11 185.754L307.831 162.819C308.038 162.7 308.286 162.7 308.493 162.819C308.696 162.937 308.824 163.156 308.824 163.391V181.02C308.824 181.255 308.698 181.476 308.493 181.592L268.771 204.525C268.668 204.585 268.557 204.613 268.441 204.613ZM269.101 186.707V202.809L307.501 180.639V164.537L269.101 186.707Z" fill="#0D0D0D"/>
<path d="M264.04 196.321L264.038 188.869L233.083 170.998V178.448L264.04 196.321Z" fill="white"/>
<path d="M291.536 163.379C291.536 157.703 287.072 154.311 279.671 150.535L279.627 150.567C273.179 147.34 263.646 147.335 257.208 150.563L257.168 150.537C256.887 150.684 256.622 150.825 256.343 150.967C256.319 150.981 256.292 150.988 256.268 151.002C256.254 151.009 256.247 151.016 256.233 151.023C249.402 154.606 245.315 157.945 245.303 163.365V163.379C245.31 166.797 247.568 170.208 252.085 172.812C261.119 178.032 275.753 178.032 284.777 172.824C289.295 170.217 291.548 166.797 291.538 163.381L291.536 163.379Z" fill="#92E490"/>
<path d="M268.444 177.385C262.15 177.385 256.223 175.962 251.754 173.381C247.176 170.742 244.649 167.189 244.642 163.379C244.653 157.538 249.162 153.983 255.925 150.434L256.865 149.949C256.937 149.909 257.016 149.888 257.095 149.879C260.267 148.333 264.27 147.484 268.4 147.484C272.529 147.484 276.552 148.335 279.735 149.886C279.816 149.89 279.898 149.909 279.967 149.946C287.515 153.797 292.195 157.387 292.195 163.379C292.205 167.194 289.684 170.752 285.104 173.393C280.642 175.967 274.724 177.385 268.442 177.385H268.444ZM257.29 151.216L256.642 151.553C250.017 155.024 245.972 158.184 245.962 163.362C245.967 166.692 248.26 169.84 252.412 172.235C256.683 174.702 262.375 176.062 268.442 176.062C274.496 176.062 280.177 174.707 284.441 172.247C288.596 169.849 290.879 166.699 290.872 163.376C290.872 158.08 286.722 154.889 279.544 151.211C279.467 151.206 279.391 151.188 279.323 151.153C276.294 149.635 272.411 148.8 268.398 148.8C264.384 148.8 260.518 149.632 257.497 151.148C257.43 151.181 257.358 151.204 257.286 151.213L257.29 151.216Z" fill="#0D0D0D"/>
<path d="M279.67 150.534L279.626 150.567C276.403 148.956 272.409 148.146 268.419 148.144C270.526 148.144 272.634 148.951 274.336 150.567L274.362 150.537C278.273 154.315 280.631 157.705 280.631 163.378C281.507 165.015 283.018 169.484 283.586 173.444C283.99 173.242 284.39 173.044 284.772 172.825C289.289 170.219 291.542 166.799 291.533 163.383C291.533 157.707 287.069 154.315 279.668 150.539L279.67 150.534Z" fill="#0D0D0D"/>
<path d="M283.622 174.061C283.52 174.061 283.42 174.043 283.338 173.998C283.15 173.898 282.964 173.745 282.934 173.536C282.371 169.611 280.871 165.221 280.048 163.689C279.997 163.593 279.969 163.486 279.969 163.377C279.969 158.008 277.802 154.809 274.052 151.156C273.989 151.128 273.931 151.093 273.882 151.047C272.359 149.603 270.422 148.808 268.425 148.806H268.415C268.05 148.806 267.755 148.508 267.755 148.145C267.755 147.782 268.053 147.485 268.415 147.485H268.427C272.552 147.49 276.556 148.341 279.737 149.887C279.818 149.891 279.899 149.91 279.969 149.947C287.516 153.798 292.197 157.388 292.197 163.38C292.206 167.195 289.686 170.752 285.105 173.394C284.747 173.601 284.373 173.787 283.996 173.975C283.892 174.029 283.752 174.061 283.622 174.061ZM281.29 163.214C282.122 164.849 283.447 168.699 284.098 172.441C284.215 172.378 284.331 172.315 284.445 172.25C288.6 169.853 290.883 166.702 290.876 163.38C290.876 158.083 286.726 154.893 279.548 151.214C279.471 151.21 279.397 151.191 279.33 151.156C277.725 150.354 275.886 149.743 273.912 149.345C274.159 149.531 274.4 149.729 274.633 149.94C274.703 149.968 274.765 150.008 274.819 150.059C278.776 153.881 281.243 157.425 281.29 163.212V163.214Z" fill="#0D0D0D"/>
<path d="M280.577 165.035C287.278 161.168 287.275 154.883 280.558 151.009C273.848 147.133 262.971 147.136 256.267 151C249.562 154.874 249.569 161.154 256.281 165.025C262.994 168.906 273.871 168.904 280.577 165.035Z" fill="#92E490"/>
<path d="M268.436 168.597C263.73 168.597 259.293 167.532 255.95 165.598C252.488 163.603 250.581 160.906 250.579 158.009C250.579 155.116 252.481 152.424 255.936 150.426C259.275 148.499 263.702 147.438 268.403 147.438C273.105 147.438 277.543 148.503 280.889 150.436C284.351 152.433 286.26 155.13 286.26 158.027C286.26 160.924 284.358 163.612 280.905 165.605C277.564 167.535 273.135 168.595 268.438 168.595L268.436 168.597ZM268.401 148.764C263.93 148.764 259.737 149.761 256.594 151.575C253.566 153.323 251.899 155.609 251.899 158.011C251.899 160.415 253.573 162.705 256.608 164.456C259.756 166.277 263.955 167.277 268.433 167.277C272.902 167.277 277.097 166.279 280.238 164.463C283.265 162.717 284.933 160.434 284.933 158.029C284.933 155.625 283.258 153.335 280.222 151.582C277.076 149.764 272.877 148.761 268.398 148.761L268.401 148.764Z" fill="#0D0D0D"/>
<path d="M279.263 154.182H279.275C276.087 150.813 275.232 148.897 275.234 141.571C275.232 141.571 275.232 141.566 275.232 141.564C275.232 140.559 274.562 139.557 273.234 138.785C270.572 137.248 266.264 137.251 263.604 138.783C262.215 139.588 261.571 140.648 261.634 141.696C261.625 148.739 260.79 150.748 257.809 153.945C254.519 156.798 255.054 160.693 259.423 163.213C264.396 166.089 272.462 166.089 277.436 163.22C281.679 160.772 282.281 157.019 279.266 154.182H279.263Z" fill="white"/>
<path d="M268.434 166.032H268.432C264.912 166.032 261.594 165.235 259.089 163.786C256.678 162.394 255.241 160.513 255.046 158.485C254.874 156.688 255.702 154.897 257.376 153.446C260.185 150.426 260.961 148.61 260.973 141.695C260.891 140.393 261.728 139.107 263.27 138.21C266.046 136.612 270.794 136.615 273.561 138.21C275.038 139.066 275.861 140.228 275.889 141.493C275.891 141.516 275.893 141.542 275.893 141.567C275.889 148.692 276.667 150.461 279.755 153.723C279.771 153.739 279.788 153.758 279.799 153.777C281.271 155.197 281.971 156.909 281.773 158.606C281.546 160.589 280.12 162.428 277.763 163.789C275.261 165.233 271.945 166.028 268.434 166.028V166.032ZM268.416 138.296C266.711 138.296 265.118 138.673 263.933 139.356C262.826 140 262.242 140.816 262.296 141.656C262.284 148.957 261.338 151.133 258.294 154.397C256.881 155.627 256.232 156.978 256.364 158.359C256.518 159.95 257.72 161.471 259.752 162.642C262.061 163.977 265.142 164.712 268.434 164.712H268.436C271.72 164.712 274.798 163.979 277.102 162.649C279.088 161.503 280.283 160.015 280.462 158.459C280.615 157.139 280.046 155.827 278.811 154.667C278.774 154.632 278.744 154.595 278.716 154.556C275.463 151.103 274.572 149.054 274.572 141.635C274.57 141.614 274.568 141.591 274.568 141.567C274.568 140.768 273.975 139.984 272.901 139.361C271.715 138.677 270.12 138.298 268.418 138.298L268.416 138.296Z" fill="#0D0D0D"/>
<path d="M279.264 154.183H279.276C276.088 150.814 275.232 148.898 275.235 141.571C275.232 141.571 275.232 141.566 275.232 141.564C275.232 140.56 274.563 139.558 273.235 138.786C271.903 138.018 270.161 137.632 268.42 137.632C269.385 137.632 270.347 138.018 271.084 138.786C271.821 139.553 272.189 140.56 272.189 141.564V141.573C272.189 148.893 272.663 150.816 274.425 154.183H274.421C276.06 156.968 277.378 163.002 274.384 164.483C275.467 164.148 276.518 163.748 277.434 163.218C281.678 160.77 282.28 157.017 279.264 154.18V154.183Z" fill="#0D0D0D"/>
<path d="M274.382 165.144C274.117 165.144 273.871 164.984 273.769 164.728C273.641 164.407 273.78 164.045 274.089 163.891C274.659 163.61 275.064 163.077 275.294 162.312C275.926 160.19 275.057 156.569 273.852 154.521C273.834 154.491 273.82 154.458 273.806 154.426C272.015 150.984 271.527 148.966 271.527 141.572C271.527 140.686 271.199 139.861 270.606 139.242C270.018 138.631 269.241 138.291 268.418 138.291C268.053 138.291 267.758 137.996 267.758 137.631C267.758 137.266 268.053 136.971 268.418 136.971C270.346 136.971 272.173 137.412 273.564 138.212C275.04 139.068 275.863 140.231 275.891 141.495C275.894 141.519 275.896 141.544 275.896 141.57C275.891 148.694 276.67 150.463 279.758 153.726C279.774 153.742 279.791 153.761 279.802 153.779C281.274 155.2 281.974 156.911 281.776 158.608C281.548 160.592 280.123 162.431 277.765 163.791C276.912 164.284 275.87 164.717 274.578 165.114C274.515 165.135 274.447 165.144 274.385 165.144H274.382ZM275.026 153.914C276.175 155.907 277.391 159.894 276.559 162.689C276.528 162.789 276.496 162.889 276.461 162.984C276.687 162.875 276.898 162.763 277.1 162.647C279.086 161.501 280.281 160.013 280.46 158.457C280.614 157.137 280.044 155.825 278.809 154.665C278.772 154.63 278.742 154.593 278.714 154.553C275.461 151.101 274.571 149.052 274.571 141.633C274.568 141.612 274.566 141.588 274.566 141.565C274.566 140.765 273.973 139.982 272.899 139.359C272.639 139.207 272.355 139.073 272.057 138.952C272.569 139.714 272.845 140.619 272.845 141.565C272.845 148.782 273.28 150.575 275.008 153.877C275.015 153.888 275.019 153.902 275.026 153.914Z" fill="#0D0D0D"/>
<path d="M273.239 144.348C275.896 142.814 275.892 140.326 273.232 138.786C270.569 137.249 266.261 137.252 263.601 138.784C260.941 140.319 260.943 142.809 263.606 144.343C266.266 145.88 270.581 145.885 273.239 144.348Z" fill="#92E490"/>
<path d="M268.432 146.159C266.498 146.159 264.666 145.718 263.278 144.915C261.778 144.051 260.95 142.858 260.95 141.563C260.95 140.268 261.773 139.077 263.275 138.21C266.047 136.615 270.797 136.617 273.564 138.212C275.066 139.082 275.894 140.272 275.892 141.572C275.892 142.867 275.068 144.055 273.571 144.92C272.19 145.72 270.362 146.159 268.432 146.159ZM268.419 138.298C266.714 138.298 265.121 138.675 263.936 139.358C262.864 139.977 262.273 140.76 262.273 141.565C262.273 142.369 262.866 143.153 263.94 143.774C265.131 144.462 266.728 144.841 268.435 144.841C270.139 144.841 271.727 144.464 272.911 143.781C273.983 143.162 274.571 142.381 274.571 141.579C274.571 140.772 273.978 139.986 272.904 139.365C271.713 138.679 270.121 138.303 268.416 138.303L268.419 138.298Z" fill="#0D0D0D"/>
<path d="M277.01 133.379C277.01 128.633 273.161 124.785 268.418 124.785C263.673 124.787 259.829 128.633 259.824 133.379C259.824 138.124 263.673 141.973 268.418 141.975C273.166 141.973 277.01 138.124 277.01 133.379Z" fill="#92E490"/>
<path d="M268.415 142.635C263.313 142.63 259.161 138.478 259.161 133.379C259.163 128.28 263.316 124.127 268.415 124.125C273.516 124.125 277.669 128.275 277.669 133.379C277.669 138.482 273.518 142.633 268.415 142.635ZM268.415 125.445C264.043 125.45 260.486 129.007 260.484 133.379C260.484 137.75 264.041 141.31 268.415 141.314C272.788 141.312 276.346 137.75 276.346 133.379C276.346 129.007 272.788 125.448 268.415 125.448V125.445Z" fill="#0D0D0D"/>
<path d="M270.849 125.178C272.999 126.738 274.418 129.258 274.418 132.125C274.418 136.873 270.572 140.721 265.826 140.719C264.975 140.719 264.173 140.556 263.394 140.328C264.81 141.351 266.538 141.975 268.414 141.975C273.162 141.972 277.006 138.124 277.006 133.378C277.006 129.484 274.397 126.233 270.846 125.178H270.849Z" fill="#0D0D0D"/>
<path d="M268.417 142.635C266.48 142.635 264.61 142.021 263.011 140.863C262.75 140.675 262.664 140.326 262.804 140.038C262.943 139.749 263.273 139.603 263.583 139.694C264.431 139.94 265.143 140.056 265.829 140.056C270.205 140.056 273.76 136.496 273.76 132.125C273.76 129.607 272.525 127.21 270.46 125.712C270.2 125.524 270.112 125.173 270.256 124.885C270.398 124.596 270.728 124.448 271.037 124.543C275.004 125.722 277.668 129.272 277.668 133.376C277.668 138.477 273.518 142.63 268.414 142.632L268.417 142.635ZM267.398 141.247C267.735 141.291 268.075 141.314 268.417 141.314C272.788 141.312 276.348 137.75 276.348 133.378C276.348 131.177 275.45 129.158 273.943 127.712C274.678 129.054 275.08 130.57 275.08 132.125C275.08 136.694 271.753 140.5 267.396 141.247H267.398Z" fill="#0D0D0D"/>
<path d="M273.238 130.25C275.895 128.71 275.891 126.222 273.231 124.686C270.568 123.151 266.26 123.149 263.6 124.686C260.942 126.218 260.942 128.706 263.605 130.243C266.265 131.78 270.58 131.78 273.238 130.25Z" fill="white"/>
<path d="M268.43 132.056C266.493 132.056 264.663 131.617 263.275 130.815C261.776 129.95 260.948 128.757 260.95 127.459C260.95 126.164 261.776 124.976 263.273 124.111C266.038 122.509 270.788 122.512 273.562 124.111C275.064 124.979 275.889 126.169 275.892 127.466C275.892 128.762 275.068 129.952 273.571 130.819C272.185 131.615 270.36 132.054 268.43 132.054V132.056ZM268.414 124.195C266.71 124.195 265.119 124.572 263.936 125.258C262.864 125.876 262.273 126.657 262.273 127.462C262.273 128.266 262.864 129.052 263.94 129.673C266.314 131.043 270.537 131.045 272.913 129.68C273.983 129.059 274.573 128.276 274.573 127.473C274.573 126.667 273.98 125.883 272.906 125.26C271.716 124.574 270.121 124.197 268.416 124.197L268.414 124.195Z" fill="#0D0D0D"/>
<path d="M273.231 124.685C271.901 123.918 270.159 123.534 268.418 123.534C269.397 123.534 270.373 123.92 271.122 124.685C272.617 126.222 272.617 128.712 271.124 130.247C270.378 131.014 269.404 131.398 268.423 131.398C270.164 131.398 271.91 131.012 273.238 130.249C275.896 128.71 275.891 126.222 273.231 124.685Z" fill="#0D0D0D"/>
<path d="M268.426 132.059C268.061 132.059 267.766 131.764 267.766 131.399C267.766 131.034 268.059 130.738 268.426 130.736C269.268 130.736 270.061 130.397 270.656 129.785C271.898 128.506 271.895 126.425 270.651 125.144C270.056 124.535 269.263 124.198 268.424 124.196C268.059 124.196 267.763 123.898 267.763 123.533C267.763 123.168 268.061 122.873 268.424 122.873H268.426C270.361 122.873 272.184 123.312 273.567 124.112C275.069 124.979 275.894 126.17 275.897 127.467C275.897 128.762 275.074 129.953 273.576 130.82C272.186 131.617 270.358 132.057 268.431 132.057L268.426 132.059ZM272.123 124.874C273.16 126.43 273.162 128.504 272.125 130.057C272.404 129.943 272.667 129.815 272.914 129.676C273.983 129.055 274.574 128.272 274.574 127.469C274.574 126.663 273.981 125.879 272.907 125.256C272.662 125.114 272.402 124.988 272.125 124.874H272.123Z" fill="#0D0D0D"/>
<path d="M303.884 62.1907V62.1698C303.87 56.9359 300.406 51.6997 293.482 47.7028C279.622 39.6974 257.17 39.6997 243.331 47.6842C236.407 51.6858 232.951 56.9313 232.963 62.1698H232.961C232.961 101.725 250.646 125.702 268.421 125.706C286.195 125.704 303.877 101.734 303.884 62.1931V62.1907Z" fill="#92E490"/>
<path d="M268.418 126.365C250.661 126.363 232.295 102.349 232.295 62.1706C232.295 62.1474 232.295 62.1265 232.299 62.1032C232.318 56.4113 236.115 51.089 243 47.1107C249.791 43.1929 258.806 41.0352 268.385 41.0352C277.965 41.0352 287.007 43.1999 293.811 47.1293C300.716 51.1169 304.527 56.4555 304.541 62.1683C304.537 102.358 286.168 126.363 268.418 126.365ZM233.615 62.2358C233.636 101.549 251.319 125.04 268.418 125.042C285.522 125.04 303.214 101.528 303.221 62.1892C303.207 56.9484 299.631 52.0145 293.15 48.2733C286.545 44.4578 277.749 42.3558 268.385 42.3558C259.022 42.3558 250.252 44.4508 243.66 48.2547C237.177 52.0028 233.611 56.9437 233.62 62.166C233.62 62.1892 233.62 62.2125 233.615 62.2358Z" fill="#0D0D0D"/>
<path d="M293.505 76.6624C307.344 68.6686 307.335 55.7083 293.477 47.7028C279.617 39.6974 257.165 39.6997 243.326 47.6842C229.487 55.6803 229.501 68.6453 243.359 76.6391C257.212 84.6423 279.668 84.6423 293.507 76.6647L293.505 76.6624Z" fill="white"/>
<path d="M268.462 83.3023C258.861 83.3023 249.83 81.1376 243.029 77.2082C236.112 73.2182 232.301 67.8704 232.299 62.1506C232.297 56.4377 236.098 51.0969 242.999 47.1093C249.791 43.1914 258.805 41.0337 268.385 41.0337C277.965 41.0337 287.007 43.1984 293.81 47.1279C300.73 51.1248 304.541 56.4772 304.541 62.1971C304.541 67.9169 300.739 73.2461 293.838 77.2337C287.049 81.1469 278.039 83.3023 268.464 83.3023H268.462ZM268.383 42.3544C259.031 42.3544 250.249 44.4493 243.657 48.2532C237.182 51.9944 233.617 56.9283 233.617 62.1483C233.617 67.3752 237.196 72.3161 243.69 76.0619C250.293 79.8774 259.091 81.9793 268.462 81.9793C277.809 81.9793 286.586 79.8867 293.176 76.0874C299.651 72.3486 303.218 67.4147 303.218 62.1948C303.218 56.9748 299.642 52.0223 293.148 48.2718C286.542 44.4563 277.746 42.3544 268.383 42.3544Z" fill="#0D0D0D"/>
<path d="M295.066 60.3712C294.852 60.3712 294.645 60.2689 294.517 60.0805C293.134 58.0251 291.039 56.1836 288.297 54.6025C287.163 53.9445 285.895 53.3283 284.533 52.7749C284.196 52.6378 284.033 52.2518 284.17 51.9146C284.307 51.5752 284.698 51.4147 285.031 51.5519C286.449 52.1286 287.772 52.7703 288.958 53.4609C291.873 55.1419 294.113 57.1206 295.612 59.3434C295.817 59.648 295.735 60.0573 295.433 60.2619C295.322 60.3386 295.191 60.3758 295.066 60.3758V60.3712Z" fill="#0D0D0D"/>
<path d="M242.864 73.7528C242.681 73.7528 242.497 73.676 242.367 73.5249C239.811 70.5929 238.753 67.2912 239.304 63.9779C239.969 59.9856 243.008 56.2445 247.856 53.4427C255.894 48.8017 267.962 47.2927 278.592 49.5899C278.95 49.6667 279.176 50.0201 279.099 50.3758C279.022 50.7339 278.664 50.9525 278.313 50.8827C267.983 48.6506 256.287 50.1015 248.517 54.5867C244.015 57.1885 241.206 60.5995 240.609 64.1941C240.123 67.1052 241.076 70.0302 243.362 72.6553C243.604 72.9297 243.573 73.3459 243.299 73.5877C243.173 73.697 243.018 73.7504 242.864 73.7504V73.7528Z" fill="#0D0D0D"/>
<path d="M303.885 62.1681C303.885 62.1262 303.873 62.0797 303.871 62.0332C303.943 67.3252 300.5 72.6265 293.51 76.6606C292.815 77.0629 292.085 77.4256 291.35 77.786C288.723 107.938 278.599 125.7 268.422 125.705C286.195 125.702 303.878 101.733 303.885 62.1913V62.1704V62.1681Z" fill="#0D0D0D"/>
<path d="M268.418 126.366C268.053 126.366 267.758 126.071 267.758 125.705C267.758 125.34 268.056 125.045 268.418 125.045C277.438 125.043 287.982 108.79 290.689 77.7309C290.707 77.5008 290.849 77.2961 291.056 77.1938C291.779 76.8404 292.495 76.4847 293.176 76.0917C299.715 72.3157 303.277 67.3283 303.205 62.0456C303.2 61.6898 303.479 61.3922 303.837 61.3759C304.195 61.348 304.5 61.6294 304.525 61.9851C304.525 62.0014 304.542 62.1525 304.542 62.1688C304.537 102.356 286.168 126.361 268.418 126.366ZM291.972 78.2169C289.977 100.485 283.595 117.461 275.452 123.731C289.166 118.611 301.621 98.7362 303.079 68.2025C301.386 71.5972 298.248 74.692 293.839 77.2357C293.237 77.5821 292.609 77.903 291.972 78.2169Z" fill="#0D0D0D"/>
<path d="M295.034 79.3096L291.981 81.072C292.067 81.6952 292.116 82.302 292.118 82.881V82.8996C292.118 83.8273 292.105 84.7318 292.088 85.6246L305.962 93.6371C305.469 104.828 301.247 112.31 295.941 116.161C292.746 117.579 289.366 117.839 286.271 116.919L283.218 118.681C282.323 119.739 281.379 120.627 280.393 121.355V121.962C285.917 125.152 291.951 125.008 297.113 122.006L297.122 122.015L300.268 120.197V120.188C307.474 115.942 312.963 106.107 312.963 91.9048V89.6588L295.034 79.3096Z" fill="#92E490"/>
<path d="M288.82 124.968C285.805 124.968 282.859 124.149 280.062 122.536C279.857 122.417 279.731 122.198 279.731 121.964V121.357C279.731 121.147 279.831 120.95 279.999 120.827C280.952 120.12 281.864 119.255 282.71 118.255C282.759 118.197 282.817 118.148 282.884 118.111L285.937 116.348C286.093 116.258 286.281 116.237 286.456 116.288C289.392 117.162 292.631 116.904 295.668 115.558C298.905 113.193 304.592 107.164 305.278 94.0108L291.752 86.1984C291.545 86.0775 291.418 85.8542 291.422 85.6124C291.441 84.7242 291.455 83.8244 291.455 82.9013C291.45 82.3526 291.406 81.7713 291.322 81.1644C291.285 80.8994 291.415 80.6366 291.648 80.5018L294.701 78.7393C294.908 78.6207 295.156 78.6207 295.363 78.7393L313.292 89.0885C313.497 89.2071 313.623 89.4257 313.623 89.6605V91.9066C313.623 105.118 308.793 115.869 300.695 120.701C300.665 120.729 300.63 120.752 300.593 120.773L297.447 122.591C297.412 122.612 297.375 122.629 297.337 122.643C294.64 124.186 291.773 124.97 288.818 124.97L288.82 124.968ZM281.133 121.622C286.188 124.372 291.848 124.3 296.779 121.436C296.817 121.415 296.854 121.399 296.891 121.385L299.837 119.683C299.865 119.659 299.895 119.636 299.925 119.618C307.675 115.056 312.3 104.695 312.3 91.9019V90.0372L295.033 80.0693L292.689 81.4225C292.745 81.9271 292.775 82.4154 292.778 82.8734C292.778 83.6895 292.766 84.4754 292.752 85.2427L306.289 93.0598C306.503 93.1831 306.631 93.4156 306.619 93.6621C306.164 104.028 302.506 112.205 296.324 116.693C292.903 118.236 289.52 118.497 286.353 117.63L283.642 119.194C282.854 120.113 282.012 120.927 281.131 121.619L281.133 121.622Z" fill="#0D0D0D"/>
<path d="M291.981 81.0712C292.067 81.6943 292.116 82.3012 292.118 82.8801V82.8987C292.118 83.8265 292.105 84.7309 292.088 85.6238L305.962 93.6362C305.097 113.258 292.777 121.529 283.218 118.68C282.323 119.738 281.379 120.626 280.393 121.354V121.961C293.683 129.632 309.91 118.085 309.91 93.6641V91.418L291.981 81.0688V81.0712Z" fill="white"/>
<path d="M288.837 124.975C285.816 124.975 282.866 124.154 280.062 122.536C279.857 122.417 279.731 122.199 279.731 121.964V121.357C279.731 121.148 279.831 120.95 279.999 120.827C280.952 120.12 281.864 119.255 282.71 118.255C282.88 118.055 283.152 117.974 283.403 118.048C284.558 118.392 285.765 118.567 286.988 118.567C295.473 118.567 304.431 110.131 305.28 94.0063L291.755 86.1939C291.548 86.073 291.42 85.8497 291.425 85.6079C291.443 84.7197 291.457 83.8199 291.457 82.8968C291.452 82.3481 291.408 81.7668 291.325 81.1599C291.29 80.9111 291.401 80.6624 291.611 80.5205C291.82 80.381 292.092 80.3694 292.31 80.4973L310.24 90.8465C310.444 90.965 310.57 91.1836 310.57 91.4184V93.6645C310.57 102.921 308.289 110.866 303.976 116.649C299.969 122.015 294.594 124.972 288.839 124.972L288.837 124.975ZM281.133 121.622C283.61 122.968 286.198 123.652 288.837 123.652C294.166 123.652 299.165 120.885 302.915 115.86C307.059 110.31 309.249 102.635 309.249 93.6668V91.8021L292.764 82.2853C292.773 82.4876 292.778 82.6829 292.782 82.8759C292.782 83.692 292.771 84.4779 292.757 85.2452L306.294 93.0623C306.508 93.1855 306.636 93.4181 306.624 93.6645C305.866 110.88 296.172 119.887 286.991 119.887C285.786 119.887 284.596 119.734 283.445 119.429C282.715 120.252 281.943 120.99 281.136 121.622H281.133Z" fill="#0D0D0D"/>
<path d="M295.934 116.162C292.741 117.58 289.363 117.84 286.266 116.92L283.213 118.682C287.319 119.905 291.934 119.063 295.934 116.162Z" fill="#0D0D0D"/>
<path d="M286.968 119.887C285.624 119.887 284.297 119.694 283.025 119.315C282.771 119.24 282.588 119.022 282.558 118.759C282.525 118.496 282.653 118.241 282.883 118.11L285.936 116.348C286.092 116.257 286.28 116.236 286.454 116.288C289.393 117.162 292.632 116.906 295.664 115.56C295.976 115.425 296.336 115.541 296.506 115.834C296.676 116.127 296.594 116.501 296.322 116.699C293.444 118.785 290.21 119.889 286.968 119.889V119.887ZM285.006 118.41C286.771 118.689 288.61 118.585 290.389 118.113C289.021 118.15 287.657 117.987 286.354 117.629L285.004 118.408L285.006 118.41Z" fill="#0D0D0D"/>
<path d="M309.911 91.4203V93.6664C309.911 107.931 304.37 117.794 297.114 122.007L297.123 122.017L300.269 120.198V120.189C307.474 115.943 312.964 106.108 312.964 91.9062V89.6602L309.911 91.4226V91.4203Z" fill="#0D0D0D"/>
<path d="M297.122 122.678C296.927 122.678 296.734 122.592 296.606 122.429L296.596 122.42C296.478 122.271 296.429 122.076 296.464 121.885C296.499 121.697 296.615 121.532 296.78 121.437C304.588 116.903 309.248 106.523 309.248 93.6675V91.4214C309.248 91.1866 309.373 90.968 309.578 90.8494L312.631 89.087C312.835 88.9684 313.086 88.9684 313.291 89.087C313.496 89.2056 313.621 89.4241 313.621 89.659V91.905C313.621 105.116 308.792 115.868 300.693 120.7C300.663 120.727 300.628 120.751 300.591 120.772L297.445 122.59C297.343 122.65 297.229 122.678 297.115 122.678H297.122ZM310.571 91.8027V93.6675C310.571 102.457 308.438 110.15 304.63 115.74C309.51 110.315 312.303 101.845 312.303 91.905V90.8029L310.571 91.8027Z" fill="#0D0D0D"/>
</g>
</svg>
