<svg width="599" height="387" viewBox="0 0 599 387" fill="none" xmlns="http://www.w3.org/2000/svg">
<path d="M57.7333 365.382C55.7549 365.382 53.8757 364.928 52.4468 364.102C50.8406 363.176 49.9578 361.886 49.9578 360.464C49.9578 359.042 50.8406 357.759 52.4397 356.837C55.2869 355.188 60.1515 355.188 63.0092 356.837C64.6119 357.762 65.4947 359.056 65.4947 360.475C65.4947 361.893 64.6154 363.18 63.0163 364.105C61.5874 364.928 59.7118 365.382 57.7369 365.382H57.7333ZM57.7192 357.574C56.113 357.574 54.5529 357.943 53.4467 358.581C52.5071 359.12 51.9717 359.808 51.9717 360.464C51.9717 361.12 52.5106 361.811 53.4502 362.354C55.6698 363.634 59.7863 363.634 62.0023 362.354C62.9383 361.815 63.4773 361.127 63.4773 360.471C63.4773 359.815 62.9383 359.124 61.9987 358.581C60.889 357.939 59.3289 357.571 57.7192 357.571V357.574Z" fill="white"/>
<path d="M98.5334 76.4766C96.5514 76.4766 94.6757 76.0227 93.2469 75.1966C91.6407 74.2748 90.7578 72.9841 90.7578 71.5659C90.7578 70.1476 91.6371 68.857 93.2433 67.9352C96.094 66.29 100.955 66.2864 103.809 67.9352C105.415 68.8641 106.295 70.1547 106.295 71.573C106.295 72.9912 105.415 74.2783 103.813 75.2037C102.387 76.0263 100.512 76.4801 98.5369 76.4801L98.5334 76.4766ZM98.5192 68.6727C96.913 68.6727 95.3565 69.0414 94.2467 69.6796C93.3071 70.2185 92.7717 70.9064 92.7717 71.5623C92.7717 72.2183 93.3107 72.9061 94.2503 73.4486C96.4734 74.7357 100.586 74.7357 102.806 73.4557C103.738 72.9168 104.277 72.2289 104.277 71.5694C104.277 70.91 103.738 70.2221 102.799 69.6761C101.689 69.0378 100.129 68.6691 98.5228 68.6691L98.5192 68.6727Z" fill="white"/>
<path d="M507.71 296.256C505.728 296.256 503.852 295.802 502.424 294.976C500.817 294.051 499.935 292.756 499.935 291.338C499.935 289.92 500.817 288.633 502.42 287.711C505.267 286.062 510.132 286.062 512.986 287.711C514.592 288.636 515.475 289.927 515.475 291.349C515.475 292.771 514.592 294.054 512.99 294.976C511.564 295.799 509.692 296.252 507.71 296.252V296.256ZM507.699 288.449C506.09 288.449 504.537 288.817 503.427 289.455C502.491 289.994 501.956 290.682 501.956 291.338C501.956 291.994 502.495 292.686 503.434 293.228C505.654 294.512 509.767 294.508 511.986 293.228C512.922 292.689 513.458 292.001 513.458 291.345C513.458 290.689 512.919 289.998 511.979 289.455C510.869 288.814 509.309 288.445 507.699 288.445V288.449Z" fill="white"/>
<path d="M462.883 21.6672C460.904 21.6672 459.025 21.2133 457.596 20.3872C455.99 19.4618 455.107 18.1712 455.107 16.7494C455.107 15.3276 455.986 14.044 457.589 13.1186C460.44 11.4699 465.301 11.4699 468.158 13.1186C469.761 14.044 470.644 15.3382 470.644 16.7564C470.644 18.1747 469.765 19.4618 468.162 20.3836C466.737 21.2062 464.861 21.6601 462.883 21.6601V21.6672ZM462.868 13.8597C461.259 13.8597 459.702 14.2284 458.596 14.8666C457.656 15.4091 457.121 16.0934 457.121 16.7494C457.121 17.4053 457.66 18.0967 458.599 18.6392C460.819 19.9192 464.935 19.9192 467.151 18.6392C468.087 18.0967 468.623 17.4124 468.623 16.7564C468.623 16.1005 468.084 15.4091 467.144 14.8631C466.035 14.2213 464.475 13.8526 462.868 13.8526V13.8597Z" fill="white"/>
<path d="M68.8675 210.462C68.793 210.462 68.7186 210.455 68.6441 210.437C64.8645 209.579 59.4432 209.586 55.7238 210.434C55.3125 210.522 54.9012 210.359 54.6672 210.015C54.4332 209.671 54.4332 209.225 54.6672 208.881C55.3196 207.923 55.66 206.789 55.6565 205.598C55.6565 204.396 55.3125 203.261 54.6601 202.304C54.4261 201.96 54.4261 201.509 54.6601 201.169C54.8941 200.825 55.3161 200.658 55.7167 200.754C59.5141 201.619 64.9602 201.587 68.6299 200.761C69.027 200.669 69.449 200.836 69.683 201.176C69.917 201.52 69.917 201.967 69.683 202.311C69.0341 203.268 68.6937 204.406 68.6973 205.598C68.6973 206.718 68.9951 207.778 69.5624 208.693C69.7787 208.877 69.917 209.154 69.917 209.462C69.917 210.026 69.4525 210.526 68.8852 210.469H68.8604L68.8675 210.462ZM62.1485 207.767C63.8859 207.767 65.5559 207.881 67.0876 208.104C66.8252 207.307 66.6905 206.463 66.6905 205.594C66.6869 204.729 66.8217 203.885 67.084 203.087C64.0064 203.527 60.28 203.513 57.2768 203.087C57.5392 203.885 57.6775 204.729 57.6775 205.594C57.6775 206.456 57.5463 207.303 57.2804 208.101C58.7979 207.884 60.4466 207.771 62.1485 207.771V207.767Z" fill="white"/>
<path d="M381.351 287.902C381.277 287.902 381.202 287.895 381.128 287.877C377.355 287.022 371.938 287.026 368.208 287.873C367.796 287.966 367.385 287.799 367.151 287.458C366.917 287.115 366.917 286.664 367.151 286.324C367.803 285.37 368.14 284.235 368.137 283.044C368.137 281.842 367.793 280.704 367.14 279.75C366.906 279.406 366.906 278.956 367.14 278.616C367.374 278.272 367.789 278.109 368.197 278.201C370.062 278.623 372.271 278.846 374.583 278.846C377.036 278.846 379.245 278.626 381.117 278.204C381.521 278.112 381.94 278.279 382.17 278.623C382.404 278.967 382.404 279.413 382.17 279.757C381.521 280.708 381.181 281.842 381.181 283.041C381.185 284.158 381.482 285.221 382.046 286.132C382.262 286.317 382.401 286.593 382.401 286.902C382.401 287.469 381.975 287.927 381.369 287.909H381.344L381.351 287.902ZM374.668 285.207C376.38 285.207 378.043 285.32 379.571 285.544C379.309 284.75 379.171 283.902 379.171 283.037C379.171 282.168 379.302 281.325 379.564 280.53C376.444 280.977 372.707 280.949 369.757 280.53C370.019 281.328 370.158 282.172 370.158 283.041C370.158 283.906 370.027 284.75 369.764 285.547C371.289 285.328 372.952 285.214 374.668 285.214V285.207Z" fill="white"/>
<path d="M558.898 99.9482C558.824 99.9482 558.753 99.9411 558.675 99.9234C554.909 99.0689 549.481 99.0724 545.758 99.9163C545.347 100.005 544.935 99.8418 544.701 99.5014C544.471 99.1575 544.471 98.7072 544.701 98.3668C545.35 97.4166 545.69 96.282 545.687 95.0871C545.687 93.8852 545.339 92.747 544.691 91.7932C544.457 91.4493 544.457 90.999 544.691 90.6586C544.925 90.3147 545.332 90.148 545.747 90.2438C547.612 90.6657 549.821 90.8891 552.133 90.8891C554.587 90.8891 556.795 90.6693 558.668 90.2473C559.075 90.1551 559.49 90.3218 559.724 90.6657C559.958 91.0096 559.955 91.4599 559.724 91.8003C559.075 92.7435 558.735 93.8816 558.735 95.0836C558.738 96.2005 559.036 97.2677 559.604 98.1718C559.82 98.3562 559.958 98.6328 559.958 98.9412C559.958 99.505 559.508 100.03 558.926 99.9482H558.902H558.898ZM552.214 97.2535C553.927 97.2535 555.59 97.367 557.122 97.5903C556.859 96.7961 556.725 95.9523 556.721 95.0871C556.721 94.2184 556.856 93.371 557.118 92.5768C553.991 93.02 550.257 92.9952 547.307 92.5768C547.57 93.3746 547.708 94.2184 547.708 95.0871C547.708 95.9523 547.577 96.7961 547.318 97.5903C548.839 97.3741 550.502 97.2606 552.222 97.2606L552.214 97.2535Z" fill="white"/>
<path d="M262.164 65.8879C262.089 65.8879 262.011 65.8808 261.94 65.863C258.171 65.0085 252.746 65.0085 249.023 65.8595C248.616 65.9517 248.201 65.785 247.967 65.4446C247.736 65.1007 247.736 64.6504 247.967 64.3101C248.619 63.3563 248.96 62.2217 248.956 61.0303C248.956 59.8284 248.612 58.6902 247.96 57.7364C247.729 57.3925 247.729 56.9422 247.96 56.6018C248.194 56.2579 248.605 56.0877 249.016 56.187C250.881 56.6125 253.09 56.8359 255.402 56.8359C257.856 56.8359 260.065 56.6125 261.937 56.1941C262.337 56.1019 262.763 56.2686 262.993 56.6125C263.227 56.9564 263.224 57.4032 262.993 57.7471C262.344 58.6973 262 59.8319 262.008 61.0303C262.008 62.1472 262.309 63.2109 262.869 64.1221C263.085 64.3065 263.224 64.5831 263.224 64.8915C263.224 65.4588 262.823 65.9127 262.192 65.902H262.167L262.164 65.8879ZM255.48 63.1932C257.193 63.1932 258.852 63.3066 260.384 63.5265C260.121 62.7322 259.987 61.8884 259.987 61.0197C259.987 60.151 260.118 59.3072 260.38 58.5129C257.256 58.9597 253.523 58.9313 250.573 58.5129C250.835 59.3107 250.97 60.1546 250.97 61.0197C250.974 61.8848 250.839 62.7287 250.576 63.5265C252.101 63.3066 253.764 63.1932 255.484 63.1932H255.48Z" fill="white"/>
<path d="M206.877 386.623C206.32 386.623 205.866 386.173 205.866 385.616L205.859 374.707C205.859 374.15 206.313 373.696 206.866 373.696C207.423 373.696 207.873 374.146 207.873 374.703L207.88 385.613C207.88 386.17 207.43 386.62 206.873 386.62L206.877 386.623Z" fill="white"/>
<path d="M216.322 381.173H197.42C196.863 381.17 196.413 380.716 196.413 380.159C196.413 379.603 196.863 379.152 197.42 379.152L216.322 379.16C216.878 379.16 217.329 379.61 217.329 380.167C217.329 380.723 216.878 381.173 216.322 381.173Z" fill="white"/>
<path d="M588.106 215.919C587.549 215.919 587.095 215.468 587.095 214.912L587.088 204.002C587.088 203.445 587.538 202.991 588.095 202.991C588.652 202.991 589.102 203.442 589.102 203.998L589.109 214.908C589.109 215.465 588.659 215.919 588.102 215.919H588.106Z" fill="white"/>
<path d="M597.554 210.469H578.652C578.096 210.465 577.646 210.011 577.646 209.455C577.646 208.898 578.099 208.448 578.652 208.448L597.554 208.455C598.111 208.455 598.561 208.905 598.561 209.462C598.561 210.018 598.111 210.469 597.554 210.469Z" fill="white"/>
<path d="M337.082 12.9274C336.525 12.9274 336.075 12.4771 336.075 11.9204L336.068 1.01051C336.068 0.453843 336.514 0 337.075 0C337.631 0 338.085 0.450294 338.085 1.00696L338.092 11.9169C338.092 12.4735 337.638 12.9238 337.085 12.9238L337.082 12.9274Z" fill="white"/>
<path d="M346.53 7.47743H327.629C327.072 7.47388 326.622 7.02004 326.622 6.46338C326.622 5.90672 327.072 5.45642 327.629 5.45642H346.53C347.087 5.45997 347.537 5.9138 347.537 6.47047C347.537 7.02713 347.087 7.47743 346.53 7.47743Z" fill="white"/>
<path d="M10.4601 191.734C9.90343 191.734 9.45314 191.283 9.45314 190.727L9.44604 179.813C9.44604 179.256 9.89634 178.806 10.453 178.806C11.0097 178.806 11.4635 179.256 11.4635 179.813V190.727C11.4671 191.283 11.0168 191.734 10.4566 191.734H10.4601Z" fill="white"/>
<path d="M19.9123 186.277L1.00696 186.27C0.450294 186.27 0 185.82 0 185.263C0 184.706 0.45384 184.256 1.00696 184.256H19.9123C20.4689 184.26 20.9192 184.713 20.9192 185.27C20.9192 185.827 20.4689 186.277 19.9123 186.277Z" fill="white"/>
<g opacity="0.2">
<path d="M284.574 78.8566L396.205 14.4111L507.701 78.7857V153.811L396.08 218.257L284.574 153.886V78.8566Z" fill="#0D0D0D"/>
<path d="M396.082 219.263C395.908 219.263 395.735 219.217 395.579 219.128L284.072 154.757C283.763 154.576 283.568 154.243 283.568 153.885V78.8591C283.568 78.501 283.76 78.1641 284.072 77.9868L395.699 13.5414C396.015 13.3606 396.394 13.3606 396.71 13.5414L508.206 77.9124C508.514 78.0932 508.709 78.4265 508.709 78.7846V153.81C508.709 154.168 508.518 154.502 508.206 154.682L396.585 219.128C396.429 219.217 396.256 219.263 396.082 219.263ZM285.582 153.303L396.082 217.093L506.695 153.232V79.3696L396.206 15.5801L285.586 79.4406V153.303H285.582Z" fill="#0D0D0D"/>
<path d="M396.08 143.231L507.701 78.7857L396.205 14.4111L284.574 78.8566L396.08 143.231Z" fill="white"/>
<path d="M396.082 144.237C395.908 144.237 395.735 144.191 395.579 144.102L284.072 79.7313C283.763 79.5505 283.568 79.2172 283.568 78.8591C283.568 78.501 283.76 78.1641 284.072 77.9868L395.699 13.5414C396.015 13.3606 396.394 13.3606 396.71 13.5414L508.206 77.9124C508.514 78.0932 508.709 78.4265 508.709 78.7846C508.709 79.1427 508.518 79.476 508.206 79.6568L396.585 144.102C396.429 144.191 396.256 144.237 396.082 144.237ZM286.593 78.8591L396.082 142.067L505.685 78.7846L396.203 15.5766L286.593 78.8591Z" fill="#0D0D0D"/>
<path d="M396.08 218.256V143.231L284.574 78.856V153.885L396.08 218.256Z" fill="#CBE8CA"/>
<path d="M396.082 219.263C395.908 219.263 395.735 219.217 395.579 219.129L284.072 154.758C283.763 154.577 283.568 154.243 283.568 153.885V78.8597C283.568 78.5016 283.76 78.1647 284.072 77.9874C284.387 77.8066 284.767 77.8066 285.082 77.9874L396.589 142.358C396.901 142.539 397.092 142.873 397.092 143.231V218.256C397.092 218.618 396.901 218.951 396.589 219.129C396.433 219.217 396.259 219.263 396.086 219.263H396.082ZM285.582 153.304L395.075 216.512V143.812L285.582 80.6041V153.304Z" fill="#0D0D0D"/>
</g>
<g opacity="0.2">
<path d="M163.677 175.484L275.301 111.038L386.797 175.409V223.612L275.18 288.058L163.677 223.687V175.484Z" fill="#0D0D0D"/>
<path d="M275.179 289.069C275.001 289.069 274.831 289.023 274.675 288.934L163.172 224.563C162.86 224.382 162.668 224.049 162.668 223.691V175.488C162.668 175.126 162.86 174.793 163.172 174.616L274.792 110.17C275.104 109.989 275.487 109.989 275.799 110.17L387.295 174.538C387.611 174.718 387.799 175.052 387.799 175.41V223.616C387.799 223.974 387.607 224.308 387.295 224.489L275.675 288.934C275.519 289.023 275.349 289.069 275.171 289.069H275.179ZM164.686 223.109L275.179 286.899L385.788 223.038V175.995L275.299 112.209L164.686 176.073V223.113V223.109Z" fill="#0D0D0D"/>
<path d="M275.18 239.855L386.797 175.409L275.301 111.038L163.677 175.484L275.18 239.855Z" fill="white"/>
<path d="M275.179 240.866C275.001 240.866 274.831 240.82 274.675 240.731L163.172 176.36C162.86 176.179 162.668 175.846 162.668 175.488C162.668 175.13 162.86 174.793 163.172 174.616L274.792 110.17C275.104 109.989 275.487 109.989 275.799 110.17L387.295 174.538C387.611 174.718 387.799 175.052 387.799 175.41C387.799 175.768 387.607 176.105 387.295 176.282L275.675 240.731C275.519 240.82 275.349 240.866 275.171 240.866H275.179ZM165.693 175.488L275.179 238.696L384.781 175.413L275.299 112.209L165.693 175.491V175.488Z" fill="#0D0D0D"/>
<path d="M275.18 288.059V239.856L163.677 175.485V223.688L275.18 288.059Z" fill="#CBE8CA"/>
<path d="M275.179 289.068C275.001 289.068 274.831 289.022 274.675 288.934L163.172 224.562C162.86 224.382 162.668 224.048 162.668 223.69V175.487C162.668 175.126 162.86 174.792 163.172 174.615C163.484 174.434 163.867 174.434 164.179 174.615L275.678 238.986C275.994 239.167 276.182 239.5 276.182 239.858V288.061C276.182 288.419 275.991 288.753 275.678 288.934C275.522 289.022 275.352 289.068 275.175 289.068H275.179ZM164.686 223.109L274.172 286.317V240.44L164.686 177.232V223.109Z" fill="#0D0D0D"/>
</g>
<path d="M42.7734 277.457L154.397 213.012L265.893 277.383V293.416L154.273 357.862L42.7734 293.491V277.457Z" fill="#0D0D0D"/>
<path d="M154.272 358.872C154.099 358.872 153.925 358.826 153.769 358.738L42.2657 294.367C41.9537 294.186 41.7622 293.853 41.7622 293.494V277.461C41.7622 277.099 41.9537 276.766 42.2657 276.589L153.889 212.143C154.201 211.963 154.588 211.963 154.896 212.143L266.392 276.514C266.708 276.695 266.896 277.029 266.896 277.387V293.42C266.896 293.782 266.704 294.115 266.392 294.292L154.776 358.738C154.62 358.826 154.446 358.872 154.272 358.872ZM43.7761 292.913L154.272 356.703L264.885 292.839V277.968L154.396 214.179L43.7797 278.043V292.913H43.7761Z" fill="#0D0D0D"/>
<path d="M154.273 341.828L265.893 277.383L154.397 213.012L42.7734 277.457L154.273 341.828Z" fill="white"/>
<path d="M154.272 342.839C154.099 342.839 153.925 342.793 153.769 342.704L42.2657 278.333C41.9537 278.153 41.7622 277.819 41.7622 277.461C41.7622 277.103 41.9537 276.766 42.2657 276.589L153.889 212.143C154.201 211.963 154.588 211.963 154.896 212.143L266.392 276.514C266.708 276.695 266.896 277.029 266.896 277.387C266.896 277.745 266.704 278.082 266.392 278.259L154.776 342.704C154.62 342.793 154.446 342.839 154.272 342.839ZM44.7866 277.458L154.272 340.666L263.875 277.383L154.393 214.175L44.7831 277.458H44.7866Z" fill="#0D0D0D"/>
<path d="M154.273 357.862V341.828L42.7734 277.457V293.491L154.273 357.862Z" fill="#CBE8CA"/>
<path d="M154.272 358.872C154.099 358.872 153.925 358.826 153.769 358.738L42.2657 294.367C41.9537 294.186 41.7622 293.852 41.7622 293.494V277.461C41.7622 277.099 41.9537 276.766 42.2657 276.589C42.5777 276.408 42.9606 276.408 43.2726 276.589L154.776 340.96C155.088 341.141 155.279 341.474 155.279 341.832V357.865C155.279 358.227 155.088 358.56 154.776 358.738C154.62 358.826 154.446 358.872 154.272 358.872ZM43.7761 292.913L153.265 356.121V342.413L43.7761 279.205V292.913Z" fill="#0D0D0D"/>
<g opacity="0.2">
<path d="M435.813 97.9027C441.074 94.8668 448.384 94.0671 453.148 95.8025C455.512 93.4072 457.317 90.8953 458.54 88.2981C453.039 87.5799 448.85 84.0199 448.842 79.7262C448.834 75.4247 453.019 71.8763 458.524 71.162C457.294 68.5647 455.485 66.0452 453.113 63.6537C448.349 65.3852 441.035 64.5777 435.778 61.5379C430.514 58.4982 429.117 54.282 432.11 51.5295C427.971 50.163 423.608 49.1187 419.112 48.4121C417.87 51.5839 411.712 54.0025 404.27 53.9986C396.828 53.9948 390.667 51.5762 389.421 48.3966C384.925 49.1032 380.565 50.1475 376.423 51.5101C379.428 54.2665 378.042 58.4865 372.782 61.5224C367.521 64.5583 360.219 65.3619 355.44 63.6266C353.083 66.0142 351.278 68.5337 350.055 71.1309C355.556 71.8491 359.745 75.4052 359.757 79.7029C359.757 84.0005 355.572 87.5566 350.074 88.271C351.301 90.8682 353.114 93.3877 355.482 95.7753C360.25 94.0438 367.56 94.8513 372.816 97.8911C378.081 100.931 379.478 105.147 376.485 107.903C380.624 109.27 384.979 110.318 389.483 111.029C390.729 107.853 396.875 105.434 404.325 105.438C411.775 105.438 417.932 107.861 419.178 111.04C423.67 110.334 428.029 109.285 432.168 107.927C429.167 105.17 430.561 100.95 435.813 97.9144V97.9027ZM382.021 92.5686C369.711 85.4563 369.699 73.9339 381.998 66.8333C394.301 59.7327 414.255 59.7366 426.574 66.8488C438.884 73.961 438.9 85.4796 426.597 92.588C414.294 99.6925 394.336 99.6847 382.021 92.5725V92.5686Z" fill="#0D0D0D"/>
<path d="M419.182 112.127C418.732 112.127 418.32 111.855 418.153 111.428C417.21 109.021 411.779 106.528 404.329 106.525C396.875 106.525 391.455 109.009 390.516 111.416C390.329 111.894 389.84 112.173 389.316 112.103C384.755 111.381 380.325 110.318 376.148 108.935C375.775 108.815 375.495 108.505 375.414 108.12C375.332 107.74 375.46 107.34 375.748 107.076C376.645 106.249 377.041 105.294 376.924 104.234C376.722 102.39 375.026 100.422 372.277 98.8339C369.125 97.0131 365.087 95.9688 361.205 95.9688C359.209 95.9688 357.365 96.2561 355.871 96.7996C355.471 96.9471 355.013 96.8462 354.71 96.5395C352.253 94.0626 350.362 91.4343 349.085 88.7284C348.937 88.4101 348.949 88.0374 349.116 87.7268C349.283 87.4201 349.593 87.2066 349.943 87.1639C354.997 86.5078 358.666 83.3632 358.666 79.6906C358.654 76.018 354.982 72.8734 349.923 72.2135C349.574 72.1669 349.267 71.9572 349.096 71.6466C348.925 71.336 348.918 70.9672 349.065 70.6489C350.346 67.9352 352.229 65.307 354.667 62.8418C354.97 62.5312 355.42 62.4302 355.828 62.5777C357.334 63.1251 359.186 63.4163 361.186 63.4163C365.064 63.4163 369.094 62.3759 372.242 60.559C374.987 58.9789 376.672 57.0145 376.874 55.1743C376.99 54.1106 376.59 53.1478 375.686 52.317C375.398 52.053 375.27 51.657 375.352 51.2727C375.433 50.8922 375.713 50.5817 376.086 50.4574C380.274 49.0792 384.708 48.0194 389.254 47.3051C389.774 47.2313 390.267 47.5108 390.454 47.9922C391.397 50.3953 396.824 52.8877 404.278 52.8955C411.732 52.8955 417.152 50.4108 418.091 48.0116C418.278 47.5302 418.771 47.2468 419.287 47.3245C423.841 48.0427 428.274 49.1064 432.459 50.4846C432.828 50.6089 433.108 50.9156 433.193 51.2999C433.275 51.6804 433.15 52.0802 432.863 52.3442C431.962 53.1711 431.57 54.1262 431.683 55.186C431.889 57.0301 433.581 58.9983 436.334 60.5862C439.486 62.4069 443.516 63.4551 447.402 63.4551C449.394 63.4551 451.242 63.1678 452.736 62.6204C453.144 62.4729 453.598 62.5739 453.901 62.8806C456.343 65.3497 458.237 67.9779 459.522 70.6955C459.674 71.0138 459.666 71.3865 459.495 71.6971C459.324 72.0077 459.018 72.2173 458.668 72.2639C453.61 72.92 449.945 76.0607 449.949 79.7333C449.953 83.4059 453.629 86.5544 458.684 87.2144C459.033 87.261 459.344 87.4706 459.511 87.7812C459.682 88.0879 459.693 88.4606 459.542 88.7789C458.265 91.4887 456.382 94.117 453.94 96.5899C453.637 96.8966 453.179 96.9976 452.775 96.8539C451.273 96.3066 449.421 96.0193 447.421 96.0193C443.543 96.0193 439.513 97.0597 436.365 98.8766C433.628 100.461 431.939 102.425 431.737 104.265C431.617 105.329 432.017 106.288 432.917 107.119C433.205 107.386 433.333 107.782 433.251 108.163C433.17 108.547 432.89 108.858 432.518 108.978C428.317 110.356 423.884 111.416 419.353 112.131C419.295 112.138 419.237 112.142 419.182 112.142V112.127ZM404.302 104.319C411.631 104.319 417.765 106.54 419.796 109.809C423.387 109.211 426.904 108.384 430.281 107.355C429.66 106.342 429.408 105.205 429.54 104.005C429.823 101.419 431.858 98.9154 435.266 96.9471C438.737 94.9439 443.167 93.7948 447.421 93.7948C449.386 93.7948 451.242 94.051 452.841 94.5363C454.495 92.7893 455.85 90.9724 456.879 89.1205C451.506 87.8937 447.744 84.1164 447.74 79.7256C447.736 75.3348 451.486 71.5573 456.859 70.3344C455.819 68.4748 454.46 66.658 452.802 64.9148C451.211 65.3962 449.359 65.6525 447.398 65.6525C443.136 65.6525 438.702 64.4994 435.224 62.4885C431.811 60.5202 429.769 58.0084 429.486 55.4228C429.354 54.2271 429.606 53.0935 430.223 52.0802C426.853 51.0476 423.332 50.2245 419.726 49.6227C417.699 52.8838 411.577 55.0967 404.282 55.0967C396.964 55.0928 390.83 52.8722 388.8 49.6072C385.201 50.209 381.684 51.032 378.31 52.0608C378.931 53.0741 379.187 54.2116 379.052 55.415C378.768 58.0006 376.734 60.5047 373.329 62.4691C369.858 64.4723 365.421 65.6214 361.17 65.6214C359.206 65.6214 357.35 65.3691 355.747 64.8799C354.097 66.623 352.746 68.4399 351.713 70.2956C357.082 71.5224 360.844 75.2998 360.859 79.6906C360.859 84.0853 357.101 87.8627 351.732 89.0856C352.765 90.9374 354.124 92.7543 355.785 94.5013C357.381 94.0199 359.229 93.7676 361.189 93.7676C365.448 93.7676 369.886 94.9167 373.364 96.9277C376.78 98.8999 378.819 101.412 379.106 103.997C379.238 105.193 378.986 106.327 378.368 107.336C381.734 108.369 385.255 109.196 388.866 109.797C390.892 106.536 397.015 104.323 404.294 104.323L404.302 104.319ZM404.34 99.0086C395.722 99.0086 387.604 97.0597 381.474 93.523C375.158 89.8737 371.679 84.9588 371.679 79.6829C371.679 74.4069 375.15 69.5114 381.451 65.8737C387.561 62.3448 395.664 60.4037 404.267 60.4037C412.87 60.4037 421.003 62.3526 427.129 65.8893C433.445 69.5347 436.92 74.4496 436.92 79.7256C436.92 85.0015 433.449 89.9009 427.152 93.5385C421.042 97.0675 412.94 99.0086 404.337 99.0086H404.34ZM404.271 62.6088C396.044 62.6088 388.334 64.449 382.557 67.7838C376.967 71.01 373.888 75.2338 373.888 79.679C373.888 84.1241 376.975 88.3713 382.581 91.6091C388.381 94.9555 396.106 96.7996 404.344 96.7996C412.582 96.7996 420.277 94.9594 426.054 91.6246C431.64 88.3985 434.719 84.1707 434.719 79.7256C434.719 75.2804 431.632 71.0371 426.03 67.7994C420.234 64.4529 412.509 62.6088 404.274 62.6088H404.271Z" fill="#0D0D0D"/>
<path d="M461.805 52.4514V34.2632C460.496 31.5029 458.575 28.8319 456.063 26.289C451 28.1292 443.244 27.2712 437.657 24.0451C435.957 23.0629 434.695 21.9681 433.767 20.8345V13.4156C429.369 11.9675 424.745 10.8572 419.966 10.104C418.642 13.4777 412.116 16.04 404.212 16.0361C396.308 16.0361 389.766 13.4622 388.446 10.0885C383.671 10.8378 379.043 11.9481 374.652 13.3923V20.8345C373.729 21.9564 372.471 23.0474 370.786 24.0179C365.203 27.2402 357.45 28.0904 352.38 26.2502C349.872 28.7892 347.962 31.4602 346.662 34.2166V55.9066C346.662 55.9066 346.669 55.9066 346.677 55.9066V74.0987C347.982 76.859 349.907 79.53 352.419 82.0689C357.478 80.2326 365.238 81.0867 370.825 84.3128C372.517 85.295 373.791 86.3898 374.718 87.5195V94.9424C379.109 96.3904 383.741 97.5046 388.512 98.2539C389.836 94.8841 396.37 92.318 404.27 92.3219C412.174 92.3219 418.716 94.8919 420.032 98.2695C424.811 97.5163 429.435 96.406 433.833 94.9657V87.5234C434.749 86.4015 436.015 85.3067 437.696 84.3361C443.275 81.1139 451.035 80.2637 456.102 82.1077C458.606 79.5649 460.527 76.8978 461.828 74.1375V52.4475C461.828 52.4475 461.816 52.4475 461.809 52.4475L461.805 52.4514ZM427.913 57.0091C414.853 64.5484 393.668 64.5445 380.596 56.9936C379.067 56.1123 377.739 55.1651 376.563 54.1673C377.727 53.1774 379.047 52.2378 380.565 51.3605C393.625 43.8212 414.81 43.8251 427.886 51.376C429.411 52.2573 430.743 53.2084 431.915 54.2023C430.747 55.1922 429.427 56.1317 427.913 57.0091Z" fill="#CBE8CA"/>
<path d="M420.025 99.3803C419.575 99.3803 419.164 99.1047 418.997 98.6776C418.007 96.1386 412.506 93.4366 404.264 93.4327C396.018 93.4327 390.524 96.1309 389.531 98.6621C389.34 99.1435 388.847 99.4308 388.331 99.3493C383.505 98.5884 378.804 97.4586 374.367 95.9911C373.916 95.8436 373.606 95.4204 373.606 94.9429V87.9277C372.736 86.9417 371.614 86.0488 370.267 85.2684C366.913 83.3273 362.615 82.2209 358.481 82.2209C356.357 82.2209 354.389 82.5275 352.789 83.106C352.389 83.2535 351.931 83.1487 351.624 82.8459C349.031 80.2215 347.028 77.438 345.669 74.5729C345.599 74.4253 345.564 74.2662 345.564 74.1031V56.1789C345.553 56.0935 345.545 56.0042 345.545 55.911V34.221C345.545 34.058 345.58 33.8987 345.65 33.7512C347.005 30.8745 349.004 28.091 351.582 25.4782C351.881 25.1715 352.343 25.0706 352.746 25.2181C354.354 25.8004 356.33 26.111 358.457 26.111C362.584 26.111 366.874 25.0046 370.22 23.0712C371.544 22.3064 372.658 21.4213 373.536 20.4352V13.4006C373.536 12.9231 373.842 12.4999 374.297 12.3524C378.742 10.8888 383.439 9.76294 388.261 9.0059C388.777 8.92049 389.27 9.21167 389.461 9.69306C390.455 12.232 395.96 14.9341 404.202 14.938C412.44 14.938 417.933 12.2437 418.931 9.70861C419.121 9.22721 419.598 8.94768 420.13 9.02144C424.96 9.78236 429.661 10.9121 434.102 12.3757C434.557 12.5232 434.863 12.9464 434.863 13.4239V20.4352C435.737 21.4291 436.859 22.322 438.202 23.0945C441.56 25.0318 445.858 26.146 449.989 26.146C452.112 26.146 454.084 25.8392 455.68 25.2569C456.084 25.1094 456.538 25.2103 456.845 25.517C459.43 28.1337 461.433 30.9172 462.8 33.7901C462.87 33.9376 462.909 34.1007 462.909 34.2637V52.2617C462.916 52.3238 462.924 52.3898 462.924 52.4558V74.1458C462.924 74.3089 462.889 74.468 462.819 74.6156C461.472 77.4768 459.473 80.2642 456.879 82.8886C456.577 83.1953 456.122 83.2962 455.715 83.1526C454.111 82.5702 452.135 82.2597 450.008 82.2597C445.881 82.2597 441.591 83.3661 438.241 85.2995C436.909 86.0681 435.799 86.9533 434.929 87.9355V94.9701C434.929 95.4476 434.623 95.8708 434.168 96.0183C429.716 97.478 425.014 98.6039 420.196 99.3648C420.138 99.3725 420.08 99.3764 420.022 99.3764L420.025 99.3803ZM404.24 91.2276C412.028 91.2276 418.539 93.588 420.651 97.0588C424.801 96.3677 428.858 95.3971 432.724 94.1703V87.5356C432.724 87.2794 432.814 87.0309 432.973 86.8329C434.044 85.5285 435.446 84.3716 437.134 83.3894C440.811 81.2697 445.501 80.0546 450.008 80.0546C452.104 80.0546 454.084 80.3302 455.785 80.8466C457.904 78.6143 459.562 76.2772 460.715 73.8935V52.646C460.707 52.5839 460.7 52.5179 460.7 52.4519V34.5122C459.527 32.1168 457.866 29.7797 455.754 27.5552C454.057 28.0754 452.085 28.3472 449.992 28.3472C445.485 28.3472 440.784 27.1282 437.103 25.0007C435.399 24.0185 433.986 22.8538 432.907 21.5339C432.748 21.3359 432.658 21.0913 432.658 20.835V14.2198C428.799 12.9891 424.746 12.0185 420.585 11.3236C418.469 14.7866 411.97 17.1392 404.221 17.1392C396.445 17.1392 389.934 14.7788 387.819 11.3081C383.665 11.9991 379.611 12.9697 375.753 14.1965V20.835C375.753 21.0913 375.659 21.3398 375.496 21.5377C374.417 22.8461 373.012 24.003 371.331 24.9735C367.658 27.0971 362.968 28.3122 358.465 28.3122C356.369 28.3122 354.389 28.0366 352.684 27.5164C350.572 29.7409 348.919 32.0741 347.762 34.4656V55.6392C347.773 55.7246 347.777 55.814 347.777 55.9071V73.8469C348.942 76.2383 350.603 78.5716 352.727 80.8039C354.42 80.2836 356.392 80.0119 358.484 80.0119C362.996 80.0119 367.693 81.2309 371.373 83.3584C373.085 84.3483 374.491 85.513 375.566 86.8213C375.725 87.0193 375.815 87.2677 375.815 87.5201V94.1393C379.674 95.37 383.727 96.3405 387.881 97.0354C389.996 93.5725 396.491 91.216 404.24 91.216V91.2276ZM404.275 63.7648C395.137 63.7648 386.53 61.6994 380.039 57.9492C378.524 57.0796 377.154 56.1206 375.842 55.0103C375.597 54.8007 375.454 54.494 375.454 54.1679C375.454 53.8418 375.597 53.5351 375.842 53.3254C377.104 52.2539 378.501 51.2717 380.007 50.4021C386.487 46.6635 395.074 44.6021 404.198 44.6021C413.321 44.6021 421.943 46.6674 428.431 50.4177C429.929 51.2795 431.338 52.2656 432.623 53.3565C432.872 53.5661 433.012 53.8767 433.012 54.1989C433.012 54.5212 432.868 54.8318 432.623 55.0414C431.362 56.109 429.964 57.0912 428.462 57.9608C421.986 61.7033 413.391 63.7609 404.271 63.7609L404.275 63.7648ZM378.319 54.1679C379.208 54.8434 380.139 55.4607 381.141 56.0352C387.306 59.5952 395.521 61.5557 404.275 61.5557C413.03 61.5557 421.213 59.603 427.359 56.0547C428.341 55.484 429.273 54.8628 430.15 54.1989C429.261 53.5234 428.33 52.9061 427.332 52.3316C421.167 48.7716 412.952 46.811 404.198 46.811C395.443 46.811 387.259 48.7638 381.114 52.3122C380.128 52.8829 379.192 53.5002 378.319 54.164V54.1679Z" fill="#0D0D0D"/>
<path d="M437.695 62.6541C443.274 59.4319 451.035 58.5778 456.101 60.4218C458.605 57.8867 460.527 55.2119 461.827 52.4516C455.981 51.6907 451.532 47.9171 451.532 43.3516C451.524 38.7861 455.961 35.0165 461.808 34.2595C460.5 31.4992 458.578 28.8282 456.066 26.2854C451.004 28.1255 443.247 27.2676 437.66 24.0414C432.07 20.8153 430.587 16.3352 433.77 13.4119C429.372 11.9638 424.748 10.8535 419.969 10.1004C418.645 13.474 412.119 16.0363 404.215 16.0324C396.311 16.0324 389.769 13.4585 388.449 10.0848C383.674 10.8341 379.046 11.9444 374.656 13.3886C377.847 16.3158 376.368 20.7959 370.789 24.0182C365.206 27.2404 357.454 28.0906 352.383 26.2504C349.875 28.7894 347.965 31.4604 346.665 34.2168C352.504 34.9816 356.949 38.7551 356.964 43.3167C356.964 47.8783 352.523 51.6519 346.68 52.4128C347.985 55.1692 349.91 57.844 352.422 60.3791C357.481 58.5428 365.241 59.3969 370.828 62.6269C376.422 65.8492 377.897 70.3292 374.722 73.2526C379.112 74.7045 383.744 75.8187 388.515 76.568C389.839 73.1982 396.373 70.6282 404.273 70.6321C412.177 70.6321 418.719 73.206 420.035 76.5797C424.814 75.8304 429.438 74.7201 433.836 73.2798C430.645 70.3526 432.12 65.8725 437.699 62.6502L437.695 62.6541ZM380.595 56.9899C367.516 49.439 367.505 37.2099 380.564 29.6707C393.624 22.1275 414.81 22.1353 427.885 29.6862C440.956 37.2333 440.972 49.4662 427.912 57.0093C414.852 64.5486 393.667 64.5447 380.595 56.9938V56.9899Z" fill="white"/>
<path d="M420.029 77.69C419.578 77.69 419.167 77.4144 419 76.9873C417.994 74.4134 412.21 71.7463 404.267 71.7424C396.025 71.7424 390.527 74.4406 389.534 76.9757C389.343 77.4571 388.85 77.7444 388.334 77.6628C383.501 76.898 378.803 75.7683 374.37 74.3047C373.997 74.1805 373.721 73.8738 373.64 73.4894C373.558 73.109 373.682 72.7091 373.97 72.4451C374.944 71.5522 375.367 70.5156 375.239 69.3665C375.022 67.3866 373.213 65.2824 370.27 63.5897C366.912 61.6486 362.614 60.5383 358.48 60.5383C356.356 60.5383 354.392 60.845 352.792 61.4235C352.392 61.571 351.934 61.4701 351.628 61.1634C349.038 58.5467 347.035 55.7632 345.672 52.8903C345.521 52.572 345.532 52.1993 345.703 51.8887C345.87 51.5782 346.177 51.3685 346.53 51.3219C351.93 50.6192 355.855 47.2533 355.855 43.3206C355.84 39.3879 351.915 36.0182 346.515 35.3116C346.165 35.265 345.862 35.0554 345.692 34.7448C345.521 34.4342 345.509 34.0654 345.661 33.7471C347.015 30.8703 349.015 28.0868 351.593 25.474C351.891 25.1673 352.353 25.0664 352.757 25.2139C354.364 25.7963 356.341 26.1069 358.468 26.1069C362.595 26.1069 366.885 25.0004 370.231 23.067C373.162 21.3744 374.967 19.2702 375.185 17.2942C375.313 16.1412 374.882 15.1046 373.908 14.2078C373.62 13.9438 373.492 13.5439 373.574 13.1635C373.655 12.7791 373.935 12.4725 374.307 12.3482C378.753 10.8846 383.45 9.75879 388.272 9.00175C388.788 8.91634 389.281 9.20749 389.471 9.68889C390.465 12.2279 395.97 14.9299 404.212 14.9338C412.45 14.9338 417.944 12.2395 418.941 9.70443C419.132 9.22304 419.609 8.94351 420.141 9.01727C424.971 9.77819 429.672 10.9079 434.113 12.3715C434.486 12.4919 434.765 12.8024 434.847 13.1868C434.928 13.5711 434.804 13.9671 434.513 14.2311C433.543 15.124 433.115 16.1606 433.24 17.3097C433.457 19.2896 435.27 21.3977 438.209 23.0904C441.563 25.0276 445.861 26.1418 449.995 26.1418C452.119 26.1418 454.091 25.8351 455.687 25.2527C456.091 25.1052 456.545 25.2062 456.851 25.5129C459.437 28.1295 461.44 30.9131 462.807 33.7859C462.958 34.1081 462.947 34.4769 462.776 34.7914C462.609 35.102 462.302 35.3116 461.949 35.3582C456.545 36.057 452.631 39.4229 452.631 43.3556C452.631 47.2883 456.556 50.658 461.968 51.3607C462.318 51.4073 462.624 51.617 462.795 51.9276C462.966 52.2381 462.974 52.6069 462.826 52.9292C461.471 55.7981 459.476 58.5817 456.886 61.2061C456.584 61.5128 456.129 61.6098 455.722 61.4662C454.118 60.8838 452.15 60.5733 450.019 60.5733C445.888 60.5733 441.598 61.6797 438.248 63.6169C435.321 65.3096 433.515 67.4138 433.298 69.3898C433.174 70.5428 433.605 71.5833 434.579 72.4762C434.866 72.7402 434.998 73.1362 434.913 73.5205C434.831 73.9049 434.552 74.2154 434.175 74.3358C429.719 75.7994 425.017 76.9213 420.203 77.6784C420.145 77.6861 420.087 77.6939 420.032 77.6939L420.029 77.69ZM404.243 69.5373C412.031 69.5373 418.542 71.8978 420.654 75.3685C424.516 74.7279 428.302 73.8427 431.928 72.7285C431.244 71.6454 430.961 70.4303 431.101 69.1452C431.4 66.4238 433.546 63.78 437.141 61.703C440.818 59.5794 445.511 58.3643 450.015 58.3643C452.111 58.3643 454.087 58.6361 455.788 59.1563C457.585 57.2656 459.053 55.2934 460.163 53.2825C454.437 52.013 450.422 48.0104 450.422 43.3556C450.419 38.7047 454.417 34.7021 460.14 33.4326C459.022 31.4139 457.55 29.4417 455.753 27.5549C454.056 28.0751 452.084 28.3469 449.992 28.3469C445.484 28.3469 440.783 27.1279 437.103 25.0004C433.492 22.9196 431.341 20.2757 431.042 17.5504C430.903 16.2654 431.182 15.0503 431.865 13.971C428.247 12.8568 424.458 11.9717 420.584 11.3272C418.468 14.7902 411.969 17.1428 404.22 17.1428C396.444 17.1428 389.933 14.7824 387.818 11.3117C383.947 11.9522 380.17 12.8413 376.548 13.9516C377.235 15.0347 377.518 16.2499 377.374 17.5388C377.076 20.2602 374.929 22.9079 371.33 24.981C367.657 27.1046 362.968 28.3197 358.464 28.3197C356.368 28.3197 354.388 28.0441 352.683 27.5239C350.89 29.4106 349.426 31.3789 348.316 33.3977C354.031 34.6711 358.045 38.6697 358.06 43.3245C358.06 47.9793 354.054 51.9819 348.335 53.2514C349.453 55.2662 350.921 57.2345 352.726 59.1252C354.419 58.605 356.387 58.3332 358.48 58.3332C362.991 58.3332 367.692 59.5523 371.376 61.6797C374.983 63.7567 377.134 66.4044 377.433 69.1258C377.576 70.4108 377.293 71.626 376.614 72.7091C380.228 73.8233 384.009 74.7124 387.884 75.3607C389.999 71.8939 396.494 69.5412 404.243 69.5412V69.5373ZM404.278 63.7645C395.14 63.7645 386.533 61.6991 380.042 57.9489C373.356 54.09 369.672 48.8916 369.676 43.3168C369.676 37.7496 373.349 32.5669 380.014 28.7157C386.494 24.9771 395.081 22.9157 404.205 22.9157C413.328 22.9157 421.95 24.981 428.437 28.7312C435.123 32.5902 438.803 37.7846 438.803 43.3595C438.803 48.9343 435.134 54.1132 428.465 57.9644C421.989 61.703 413.398 63.7645 404.278 63.7645ZM404.201 25.1246C395.458 25.1246 387.259 27.0774 381.117 30.6297C375.162 34.0654 371.881 38.5727 371.881 43.3168C371.881 48.0686 375.169 52.5875 381.144 56.0388C387.309 59.5988 395.524 61.5593 404.278 61.5593C413.033 61.5593 421.216 59.6066 427.362 56.0583C433.317 52.6186 436.598 48.1113 436.598 43.3633C436.598 38.6154 433.31 34.0926 427.335 30.6452C421.17 27.089 412.955 25.1285 404.201 25.1285V25.1246Z" fill="#0D0D0D"/>
<path d="M433.832 96.0768C433.223 96.0768 432.726 95.5838 432.726 94.9743V73.2881C432.726 72.6786 433.223 72.1855 433.832 72.1855C434.442 72.1855 434.935 72.6786 434.935 73.2881V94.9743C434.935 95.5838 434.442 96.0768 433.832 96.0768Z" fill="#0D0D0D"/>
<path d="M420.028 99.38C419.419 99.38 418.926 98.887 418.926 98.2775V76.5875C418.926 75.9779 419.419 75.4849 420.028 75.4849C420.638 75.4849 421.135 75.9779 421.135 76.5875V98.2775C421.135 98.887 420.638 99.38 420.028 99.38Z" fill="#0D0D0D"/>
<path d="M456.1 83.2194C455.491 83.2194 454.994 82.7263 454.994 82.1168V60.4268C454.994 59.8173 455.491 59.3242 456.1 59.3242C456.71 59.3242 457.203 59.8173 457.203 60.4268V82.1168C457.203 82.7263 456.71 83.2194 456.1 83.2194Z" fill="#0D0D0D"/>
<path d="M388.507 99.3647C387.898 99.3647 387.405 98.8717 387.405 98.2622V76.5761C387.405 75.9665 387.902 75.4735 388.507 75.4735C389.113 75.4735 389.61 75.9665 389.61 76.5761V98.2622C389.61 98.8717 389.113 99.3647 388.507 99.3647Z" fill="#0D0D0D"/>
<path d="M374.713 96.0541C374.103 96.0541 373.606 95.5611 373.606 94.9516V73.2616C373.606 72.6521 374.103 72.1591 374.713 72.1591C375.322 72.1591 375.815 72.6521 375.815 73.2616V94.9516C375.815 95.5611 375.322 96.0541 374.713 96.0541Z" fill="#0D0D0D"/>
<path d="M352.418 83.1802C351.809 83.1802 351.316 82.6871 351.316 82.0776V60.3876C351.316 59.7781 351.809 59.285 352.418 59.285C353.028 59.285 353.521 59.7819 353.521 60.3876V82.0776C353.521 82.6871 353.024 83.1802 352.418 83.1802Z" fill="#0D0D0D"/>
<path d="M451.53 43.3566C451.53 47.9221 455.979 51.6956 461.826 52.4565C461.822 52.4565 461.814 52.4565 461.807 52.4565V34.2683C455.964 35.0253 451.523 38.7988 451.53 43.3605V43.3566Z" fill="#0D0D0D"/>
<path d="M461.877 53.5546C461.877 53.5546 461.842 53.5546 461.822 53.5546C461.776 53.5546 461.725 53.5546 461.679 53.5469C461.679 53.5469 461.679 53.5469 461.675 53.5469C461.675 53.5469 461.663 53.5469 461.659 53.5469C455.149 52.6928 450.42 48.4068 450.42 43.356C450.416 38.2975 455.141 34.0154 461.659 33.169C461.966 33.1263 462.292 33.2234 462.533 33.4369C462.77 33.6466 462.909 33.9494 462.909 34.2678V52.0678C462.956 52.1881 462.979 52.324 462.979 52.4599C462.979 53.0694 462.486 53.5624 461.877 53.5624V53.5546ZM460.7 35.5683C455.948 36.5893 452.625 39.7261 452.629 43.3521C452.629 46.9704 455.956 50.115 460.704 51.1399V35.5683H460.7Z" fill="#0D0D0D"/>
<path d="M437.694 62.655C432.115 65.8773 430.64 70.3573 433.831 73.2845V87.5323C434.747 86.4103 436.013 85.3156 437.694 84.345C443.272 81.1228 451.033 80.2726 456.099 82.1166V60.4266C451.033 58.5864 443.276 59.4366 437.694 62.6589V62.655Z" fill="#CBE8CA"/>
<path d="M433.831 88.6357C433.707 88.6357 433.579 88.6124 433.458 88.5697C433.02 88.4144 432.728 87.999 432.728 87.5332V73.7474C431.474 72.4352 430.915 70.8551 431.106 69.1469C431.405 66.4255 433.551 63.7817 437.146 61.7047C440.823 59.5811 445.516 58.366 450.02 58.366C452.404 58.366 454.64 58.7193 456.48 59.3909C456.915 59.5501 457.206 59.9655 457.206 60.4275V82.1175C457.206 82.4785 457.031 82.8124 456.736 83.022C456.441 83.2278 456.065 83.2782 455.723 83.154C454.12 82.5717 452.143 82.2611 450.016 82.2611C445.889 82.2611 441.599 83.3675 438.249 85.3009C436.789 86.1433 435.59 87.1333 434.689 88.232C434.472 88.4921 434.157 88.6357 433.835 88.6357H433.831ZM450.016 60.5711C445.885 60.5711 441.595 61.6775 438.245 63.6147C435.318 65.3074 433.513 67.4116 433.295 69.3876C433.171 70.5406 433.602 71.5811 434.576 72.474C434.805 72.6797 434.934 72.9787 434.934 73.2854V84.901C435.601 84.3614 436.339 83.8567 437.139 83.3908C440.815 81.2711 445.505 80.056 450.012 80.056C451.79 80.056 453.483 80.254 454.993 80.6305V61.2272C453.537 60.8001 451.833 60.575 450.016 60.575V60.5711Z" fill="#0D0D0D"/>
<path d="M456.099 60.4218V82.1118C458.603 79.5689 460.524 76.9018 461.825 74.1416V52.4515C460.528 55.2118 458.603 57.8828 456.099 60.4218Z" fill="#0D0D0D"/>
<path d="M456.1 83.2184C455.956 83.2184 455.817 83.1912 455.681 83.1369C455.262 82.9661 454.994 82.5623 454.994 82.1159V60.4259C454.994 60.1347 455.11 59.8552 455.316 59.6494C457.731 57.2075 459.582 54.6258 460.825 51.9859C461.046 51.52 461.551 51.2521 462.067 51.3802C462.572 51.4928 462.929 51.9393 462.929 52.4556V74.1456C462.929 74.3087 462.894 74.4678 462.824 74.6154C461.477 77.4766 459.478 80.264 456.884 82.8884C456.675 83.1058 456.387 83.2184 456.1 83.2184ZM457.203 60.8762V79.2624C458.658 77.5193 459.839 75.7218 460.72 73.8933V56.5786C459.718 58.046 458.546 59.4824 457.203 60.8723V60.8762Z" fill="#0D0D0D"/>
<path d="M421.37 59.9258V43.3409H421.366C421.366 40.8136 419.689 38.2824 416.342 36.3529C409.649 32.4862 398.81 32.4862 392.125 36.3451C388.778 38.2746 387.109 40.8058 387.109 43.3409V59.9064C397.637 63.544 410.845 63.5479 421.366 59.9297L421.37 59.9258Z" fill="#0D0D0D"/>
<path d="M404.276 63.7422C398.103 63.7422 392.043 62.7755 386.751 60.947C386.305 60.7917 386.01 60.3763 386.01 59.9065V43.3411C386.01 40.2819 387.986 37.4595 391.573 35.3903C394.97 33.4298 399.462 32.3505 404.221 32.3505C408.981 32.3505 413.488 33.4336 416.893 35.4019C420.437 37.4478 422.417 40.2197 422.468 43.2207C422.472 43.2595 422.476 43.3023 422.476 43.3411V59.9259C422.476 60.3957 422.177 60.8188 421.73 60.9702C416.462 62.7832 410.425 63.7422 404.28 63.7422H404.276ZM388.215 59.1107C397.955 62.2786 410.514 62.2863 420.263 59.134V43.4536C420.259 43.4187 420.255 43.3799 420.255 43.3411C420.255 41.1127 418.667 38.9736 415.786 37.312C412.712 35.5378 408.604 34.5595 404.221 34.5595C399.838 34.5595 395.739 35.5339 392.676 37.3042C389.799 38.9619 388.215 41.1088 388.215 43.345V59.1146V59.1107Z" fill="#0D0D0D"/>
<path d="M392.133 50.3306C385.443 46.4678 385.44 40.2058 392.125 36.3468C398.81 32.4879 409.649 32.4879 416.342 36.3546C423.039 40.2174 423.043 46.4756 416.358 50.3384C409.672 54.1973 398.825 54.1935 392.133 50.3306Z" fill="white"/>
<path d="M404.261 54.3327C399.489 54.3327 394.986 53.2496 391.585 51.2852C387.994 49.2082 386.014 46.3858 386.014 43.3305C386.014 40.2752 387.99 37.4606 391.574 35.3914C394.97 33.4309 399.462 32.3516 404.222 32.3516C408.981 32.3516 413.489 33.4347 416.893 35.403C420.488 37.4761 422.472 40.3024 422.472 43.3538C422.472 46.4052 420.5 49.2237 416.913 51.293C413.52 53.2535 409.024 54.3327 404.265 54.3327H404.261ZM404.222 34.5567C399.843 34.5567 395.739 35.5311 392.676 37.3014C389.803 38.9591 388.219 41.1021 388.219 43.3305C388.219 45.5589 389.807 47.7097 392.688 49.3751C395.762 51.1493 399.874 52.1277 404.261 52.1277C408.648 52.1277 412.739 51.1532 415.806 49.3829C418.683 47.7252 420.267 45.5822 420.267 43.3538C420.267 41.1254 418.679 38.9747 415.791 37.3131C412.716 35.5389 408.609 34.5606 404.226 34.5606L404.222 34.5567Z" fill="#0D0D0D"/>
</g>
<path d="M117.513 306.846C137.879 318.604 170.942 318.586 191.361 306.797C211.77 295.007 211.816 275.921 191.446 264.164C171.07 252.399 138.014 252.424 117.598 264.21C97.1822 275.999 97.1468 295.085 117.513 306.846Z" fill="#0D0D0D"/>
<path d="M154.36 316.66H154.356C140.259 316.66 126.994 313.487 117.01 307.722C106.852 301.857 101.253 293.99 101.253 285.576C101.253 277.162 106.88 269.238 117.095 263.338C127.136 257.54 140.457 254.346 154.597 254.346C168.737 254.346 181.962 257.523 191.951 263.291C202.109 269.156 207.704 277.02 207.704 285.434C207.704 293.876 202.08 301.772 191.865 307.672C181.824 313.469 168.503 316.664 154.36 316.664V316.66ZM154.597 256.363C140.801 256.363 127.842 259.459 118.102 265.086C108.536 270.606 103.267 277.885 103.267 285.576C103.267 293.238 108.508 300.485 118.017 305.974C127.7 311.565 140.606 314.643 154.356 314.643H154.36C168.156 314.643 181.115 311.548 190.855 305.921C200.421 300.397 205.686 293.121 205.686 285.43C205.686 277.768 200.449 270.525 190.94 265.036C181.253 259.441 168.347 256.36 154.597 256.36V256.363Z" fill="#0D0D0D"/>
<path d="M192.027 271.243C197.874 261.119 198.451 251.952 194.662 245.299H194.665L194.634 245.24V245.237L191.141 239.192C187.321 232.518 179.101 228.389 167.384 228.392C143.982 228.392 115.508 244.857 103.779 265.171C97.9253 275.307 97.3575 284.49 101.156 291.143L104.683 297.253C108.506 303.905 116.726 308.022 128.421 308.022C151.823 308.022 180.301 291.556 192.027 271.243Z" fill="#0D0D0D"/>
<path d="M128.42 308.898C116.775 308.898 108.076 304.914 103.923 297.687L100.396 291.581C96.264 284.345 97.1928 274.81 103.019 264.729C114.868 244.209 143.744 227.512 167.383 227.512C179.05 227.512 187.755 231.505 191.902 238.757L195.392 244.799C195.392 244.799 195.411 244.829 195.417 244.845C195.426 244.863 195.435 244.879 195.441 244.897C199.533 252.118 198.592 261.628 192.785 271.684C180.939 292.204 152.066 308.901 128.42 308.901V308.898ZM167.392 229.265C144.299 229.265 116.108 245.567 104.54 265.605C99.0412 275.125 98.1124 284.039 101.917 290.704L105.444 296.811C109.273 303.473 117.432 307.142 128.423 307.142C151.507 307.142 179.701 290.84 191.273 270.802C196.762 261.295 197.697 252.392 193.905 245.73C193.886 245.703 193.871 245.672 193.862 245.641L190.384 239.624C186.558 232.94 178.393 229.262 167.396 229.262L167.392 229.265Z" fill="#0D0D0D"/>
<path d="M107.605 259.496C106.204 261.351 104.893 263.233 103.779 265.168C97.9253 275.304 97.3575 284.487 101.156 291.14L104.683 297.25C108.506 303.902 116.726 308.019 128.421 308.019C130.683 308.019 133 307.821 135.333 307.525L107.605 259.493V259.496Z" fill="#CBE8CA"/>
<path d="M128.42 308.897C116.775 308.897 108.076 304.914 103.923 297.687L100.396 291.581C96.264 284.345 97.1928 274.81 103.019 264.729C104.031 262.97 105.305 261.088 106.907 258.968C107.086 258.733 107.391 258.607 107.66 258.619C107.953 258.638 108.218 258.801 108.366 259.057L136.097 307.089C136.245 307.342 136.252 307.654 136.122 307.916C135.989 308.178 135.736 308.361 135.446 308.398C132.78 308.734 130.484 308.897 128.423 308.897H128.42ZM107.511 261.091C106.32 262.723 105.342 264.207 104.537 265.605C99.0381 275.124 98.1093 284.039 101.914 290.704L105.441 296.811C109.27 303.473 117.429 307.142 128.42 307.142C130.062 307.142 131.867 307.034 133.906 306.812L107.511 261.091Z" fill="#0D0D0D"/>
<path d="M124.914 301.943C148.313 301.943 176.794 285.478 188.519 265.165C200.245 244.852 190.784 228.386 167.382 228.386C143.98 228.386 115.505 244.852 103.777 265.165C92.048 285.478 101.515 301.943 124.914 301.943Z" fill="white"/>
<path d="M124.914 302.819C113.287 302.819 104.592 298.848 100.429 291.636C96.2511 284.404 97.1707 274.847 103.015 264.723C114.864 244.203 143.74 227.506 167.38 227.506C179.006 227.506 187.699 231.478 191.865 238.686C196.04 245.919 195.12 255.478 189.279 265.599C177.43 286.119 148.557 302.816 124.914 302.816V302.819ZM167.383 229.262C144.299 229.262 116.108 245.564 104.539 265.602C99.0221 275.159 98.1026 284.092 101.95 290.76C105.789 297.404 113.941 301.066 124.914 301.066C147.998 301.066 176.192 284.765 187.761 264.726C193.278 255.17 194.197 246.233 190.346 239.565C186.511 232.922 178.355 229.262 167.383 229.262Z" fill="#0D0D0D"/>
<path d="M176.458 265.167C184.848 250.633 178.078 238.855 161.338 238.852C144.598 238.852 124.226 250.633 115.839 265.167C107.446 279.701 114.216 291.476 130.959 291.479C147.699 291.479 168.074 279.698 176.458 265.167ZM127.895 265.167C132.95 256.413 145.215 249.319 155.296 249.322C165.377 249.322 169.453 256.413 164.402 265.167C159.351 273.918 147.082 281.012 137.001 281.012C126.92 281.012 122.841 273.918 127.895 265.167ZM139.954 265.167C141.667 262.199 145.832 259.789 149.251 259.789C152.67 259.789 154.056 262.196 152.34 265.167C150.624 268.136 146.462 270.545 143.04 270.542C139.621 270.542 138.235 268.136 139.951 265.167H139.954Z" fill="#CBE8CA"/>
<path d="M130.959 292.355C122.548 292.355 116.25 289.467 113.229 284.23C110.196 278.975 110.853 272.051 115.08 264.729C123.594 249.979 144.345 237.979 161.338 237.976C169.75 237.976 176.045 240.861 179.069 246.1C182.102 251.355 181.445 258.283 177.217 265.605C168.707 280.351 147.952 292.352 130.956 292.355H130.959ZM161.338 239.731C144.904 239.731 124.834 251.34 116.599 265.605C112.698 272.36 112.038 278.664 114.744 283.351C117.441 288.026 123.199 290.599 130.959 290.599C147.397 290.599 167.469 278.991 175.702 264.726C179.602 257.968 180.26 251.664 177.553 246.977C174.857 242.305 169.099 239.731 161.341 239.728L161.338 239.731ZM137.001 281.888C131.808 281.888 127.905 280.089 126.022 276.821C124.131 273.544 124.529 269.249 127.139 264.726C132.32 255.746 144.953 248.442 155.293 248.442H155.296C160.49 248.442 164.39 250.241 166.275 253.506C168.167 256.783 167.772 261.078 165.164 265.602C159.98 274.581 147.345 281.885 137.004 281.885L137.001 281.888ZM155.293 250.198C145.509 250.198 133.558 257.11 128.658 265.605C126.374 269.561 125.976 273.233 127.541 275.945C129.099 278.648 132.459 280.132 137.001 280.132C146.786 280.132 158.737 273.22 163.643 264.726C165.927 260.77 166.322 257.095 164.757 254.385C163.199 251.685 159.839 250.198 155.296 250.198H155.293ZM143.049 271.418H143.043C141.065 271.418 139.565 270.702 138.816 269.41C138.066 268.111 138.198 266.447 139.195 264.729C141.077 261.467 145.496 258.912 149.255 258.912C151.232 258.912 152.735 259.625 153.482 260.921C154.232 262.22 154.099 263.883 153.106 265.605C151.223 268.863 146.808 271.418 143.052 271.418H143.049ZM149.255 260.665C146.172 260.665 142.259 262.927 140.716 265.602C140.047 266.756 139.914 267.796 140.337 268.53C140.757 269.258 141.716 269.663 143.04 269.663L143.052 270.539V269.663C146.132 269.663 150.041 267.401 151.587 264.726C152.254 263.568 152.39 262.528 151.964 261.794C151.544 261.066 150.581 260.665 149.255 260.665Z" fill="#0D0D0D"/>
<path d="M101.027 200.653C104.279 206.288 112.987 212.092 115.594 212.237C112.475 206.834 109.355 201.434 106.235 196.031C103.631 195.883 100.113 194.698 96.4568 192.739C99.5764 198.145 97.9071 195.25 101.027 200.65V200.653Z" fill="#CBE8CA"/>
<path d="M115.595 213.117C115.577 213.117 115.561 213.117 115.543 213.117C112.454 212.944 103.573 206.816 100.269 201.095L95.6986 193.184C95.5012 192.844 95.5536 192.415 95.8282 192.134C96.0998 191.85 96.5225 191.786 96.8712 191.971C100.395 193.859 103.823 195.023 106.283 195.161C106.579 195.177 106.844 195.343 106.992 195.597L116.348 211.803C116.509 212.08 116.505 212.426 116.336 212.701C116.178 212.96 115.891 213.12 115.589 213.12L115.595 213.117ZM98.664 194.803L101.79 200.219C104.385 204.718 110.325 209.075 113.691 210.701L105.709 196.877C103.694 196.683 101.265 195.967 98.664 194.807V194.803Z" fill="#0D0D0D"/>
<path d="M146.152 266.044C145.849 266.044 145.553 265.887 145.392 265.606L103.578 193.181C103.334 192.762 103.479 192.225 103.899 191.984C104.322 191.74 104.856 191.888 105.096 192.305L146.908 264.729C147.151 265.149 147.006 265.686 146.587 265.927C146.451 266.007 146.3 266.044 146.148 266.044H146.152Z" fill="#0D0D0D"/>
<path d="M105.044 207.652C108.293 213.274 114.317 214.413 115.668 212.37C112.558 206.982 109.444 201.591 106.334 196.204C104.985 198.247 102.884 199.524 100.49 199.755C103.606 205.149 101.94 202.261 105.044 207.652Z" fill="white"/>
<path d="M113.369 214.193C110.604 214.193 106.722 212.305 104.288 208.093L99.7333 200.197C99.5852 199.937 99.5759 199.623 99.7117 199.357C99.8475 199.092 100.11 198.913 100.409 198.885C102.554 198.675 104.396 197.552 105.605 195.722C105.772 195.469 106.065 195.318 106.364 195.327C106.67 195.337 106.945 195.503 107.099 195.766L116.433 211.932C116.6 212.219 116.59 212.576 116.405 212.854C115.838 213.718 114.761 214.193 113.372 214.193H113.369ZM101.878 200.403L105.806 207.217C107.88 210.805 111.181 212.438 113.369 212.441C113.853 212.441 114.267 212.357 114.56 212.206L106.229 197.774C105.059 199.067 103.55 199.981 101.878 200.406V200.403Z" fill="#0D0D0D"/>
<path d="M112.939 193.977C116.185 199.596 116.846 210.032 115.664 212.368C112.553 206.98 109.44 201.59 106.33 196.202C107.508 193.866 108.243 190.222 108.382 186.081C111.495 191.472 109.829 188.584 112.939 193.977Z" fill="#CBE8CA"/>
<path d="M115.664 213.244C115.349 213.244 115.059 213.077 114.905 212.806L105.57 196.64C105.422 196.384 105.413 196.069 105.546 195.807C106.657 193.607 107.372 190.052 107.505 186.053C107.517 185.664 107.789 185.328 108.172 185.232C108.554 185.136 108.949 185.306 109.144 185.645L113.698 193.542C116.997 199.257 117.842 210.004 116.444 212.766C116.299 213.053 116.009 213.238 115.685 213.247H115.664V213.244ZM107.32 196.162L115.284 209.955C115.568 206.227 114.775 198.908 112.18 194.415L109.06 189.006C108.758 191.848 108.162 194.313 107.32 196.162Z" fill="#0D0D0D"/>
<path d="M116.78 200.655C120.036 206.289 118.027 212.097 115.592 212.239C112.473 206.835 109.353 201.435 106.233 196.032C108.668 195.884 110.819 194.699 112.21 192.74C115.33 198.146 113.661 195.252 116.78 200.652V200.655Z" fill="white"/>
<path d="M115.595 213.118C115.28 213.118 114.993 212.951 114.836 212.68L105.477 196.474C105.326 196.211 105.32 195.887 105.465 195.619C105.607 195.35 105.881 195.178 106.184 195.159C108.368 195.029 110.254 193.99 111.497 192.237C111.673 191.993 111.951 191.845 112.256 191.867C112.552 191.879 112.824 192.046 112.975 192.305L117.545 200.216C119.927 204.342 119.687 208.616 118.391 211.02C117.696 212.309 116.721 213.053 115.647 213.118C115.629 213.118 115.614 213.118 115.595 213.118ZM107.649 196.723L116.002 211.195C116.299 211.001 116.592 210.652 116.842 210.189C117.872 208.279 118.051 204.62 116.021 201.096L112.08 194.273C110.883 195.511 109.346 196.359 107.649 196.727V196.723Z" fill="#0D0D0D"/>
<g opacity="0.2">
<path d="M226.584 39.7855L223.531 41.548V43.7964C223.531 68.2103 239.761 98.5022 253.044 106.175L256.097 104.413V103.806C255.116 101.936 254.172 99.9601 253.275 97.8698C244.283 90.1643 232.853 69.8007 230.809 50.244L241.354 56.3335L244.407 54.5711C244.39 53.6573 244.374 52.7365 244.376 51.8111V51.7902C244.376 51.2136 244.427 50.6648 244.514 50.1417L226.584 39.7855Z" fill="#CBE8CA"/>
<path d="M253.044 106.836C252.93 106.836 252.816 106.806 252.713 106.748C239.279 98.9888 222.868 68.4156 222.868 43.7947V41.5486C222.868 41.3115 222.993 41.0929 223.2 40.9766L226.253 39.2142C226.46 39.0956 226.709 39.0956 226.916 39.2142L244.845 49.5703C245.082 49.7075 245.212 49.9772 245.166 50.2493C245.092 50.7097 245.05 51.1514 245.04 51.5932C245.061 51.656 245.071 51.7234 245.071 51.7932C245.071 51.8676 245.059 51.935 245.038 52.0024C245.038 52.872 245.054 53.7184 245.071 54.5624C245.075 54.8019 244.947 55.0274 244.74 55.146L241.688 56.9085C241.483 57.0271 241.232 57.0271 241.027 56.9085L231.62 51.477C233.968 70.1804 244.778 89.7185 253.711 97.3728C253.788 97.4379 253.846 97.5216 253.888 97.6146C254.76 99.6398 255.701 101.623 256.689 103.502C256.741 103.597 256.764 103.702 256.764 103.809V104.416C256.764 104.653 256.638 104.871 256.434 104.988L253.381 106.75C253.278 106.808 253.164 106.838 253.051 106.838L253.044 106.836ZM224.191 41.9299V43.797C224.191 67.8041 239.974 97.5193 253.048 105.411L255.436 103.969C254.483 102.146 253.574 100.23 252.727 98.2727C243.417 90.2044 232.171 69.6479 230.15 50.3144C230.125 50.0679 230.239 49.8261 230.448 49.6912C230.657 49.5541 230.922 49.5494 231.138 49.6726L241.353 55.5692L243.738 54.1927C243.724 53.4022 243.713 52.607 243.715 51.8094C243.715 51.363 243.741 50.9305 243.796 50.4888L226.586 40.5488L224.193 41.9299H224.191Z" fill="#0D0D0D"/>
<path d="M241.46 51.9014C241.374 52.4269 241.321 52.9733 241.321 53.5523V53.5732C241.321 54.4963 241.335 55.417 241.353 56.3331L227.479 48.3231C228.344 68.947 240.665 91.4427 250.226 99.6342C251.121 101.724 252.065 103.701 253.044 105.57V106.177C239.761 98.5042 223.531 68.2123 223.531 43.7983V41.5476L241.46 51.9038V51.9014Z" fill="white"/>
<path d="M253.043 106.836C252.929 106.836 252.815 106.805 252.713 106.747C239.278 98.9882 222.868 68.415 222.868 43.7941V41.548C222.868 41.3108 222.993 41.0923 223.2 40.976C223.402 40.8574 223.656 40.8574 223.861 40.976L241.79 51.3322C242.029 51.4694 242.157 51.7414 242.111 52.0111C242.024 52.5413 241.98 53.0458 241.98 53.555C241.98 54.4944 241.994 55.4128 242.013 56.3219C242.017 56.5591 241.894 56.7823 241.687 56.9032C241.48 57.0241 241.227 57.0264 241.02 56.9055L228.202 49.5023C229.513 70.4634 241.957 91.6803 250.653 99.1323C250.73 99.1974 250.793 99.2788 250.83 99.3742C251.692 101.39 252.634 103.371 253.627 105.261C253.676 105.357 253.704 105.461 253.704 105.568V106.175C253.704 106.412 253.578 106.631 253.373 106.747C253.271 106.805 253.157 106.836 253.043 106.836ZM224.191 42.692V43.7964C224.191 67.0478 238.993 95.6516 251.802 104.599C251.058 103.113 250.344 101.585 249.679 100.034C240.636 92.1895 227.727 69.9798 226.82 48.349C226.809 48.1072 226.932 47.8817 227.137 47.7561C227.344 47.6329 227.602 47.6282 227.809 47.7491L240.671 55.178C240.662 54.6455 240.66 54.1107 240.66 53.5759C240.66 53.1272 240.688 52.6924 240.741 52.2529L224.191 42.6943V42.692Z" fill="#0D0D0D"/>
<path d="M308.162 163.391L268.393 140.433L228.675 163.366V180.993L268.441 203.953L308.162 181.02V163.391Z" fill="#CBE8CA"/>
<path d="M268.442 204.613C268.326 204.613 268.214 204.583 268.112 204.524L228.345 181.566C228.14 181.447 228.015 181.229 228.015 180.994V163.367C228.015 163.13 228.14 162.911 228.345 162.795L268.063 139.862C268.27 139.744 268.519 139.744 268.725 139.862L308.495 162.821C308.697 162.939 308.825 163.158 308.825 163.393V181.022C308.825 181.257 308.699 181.478 308.495 181.594L268.772 204.527C268.67 204.587 268.558 204.615 268.442 204.615V204.613ZM229.338 180.61L268.442 203.187L307.502 180.636V163.769L268.393 141.192L229.338 163.744V180.608V180.61Z" fill="#0D0D0D"/>
<path d="M308.162 163.391L268.393 140.432L228.675 163.365L268.441 186.326L308.162 163.391Z" fill="white"/>
<path d="M268.442 186.987C268.326 186.987 268.214 186.959 268.112 186.898L228.345 163.937C228.14 163.819 228.015 163.6 228.015 163.365C228.015 163.131 228.14 162.91 228.345 162.793L268.063 139.861C268.27 139.742 268.519 139.742 268.725 139.861L308.495 162.819C308.697 162.938 308.825 163.156 308.825 163.391C308.825 163.626 308.699 163.847 308.495 163.963L268.772 186.898C268.67 186.959 268.558 186.987 268.442 186.987ZM229.998 163.365L268.442 185.564L306.839 163.391L268.393 141.195L229.998 163.365Z" fill="#0D0D0D"/>
<path d="M268.44 186.325V203.952L308.16 181.019V163.39L268.44 186.325Z" fill="#0D0D0D"/>
<path d="M268.44 204.613C268.324 204.613 268.212 204.583 268.11 204.524C267.903 204.406 267.78 204.19 267.78 203.952V186.326C267.78 186.091 267.906 185.872 268.11 185.754L307.831 162.818C308.037 162.7 308.286 162.7 308.493 162.818C308.695 162.937 308.823 163.156 308.823 163.39V181.02C308.823 181.254 308.698 181.475 308.493 181.592L268.771 204.524C268.668 204.585 268.557 204.613 268.44 204.613ZM269.101 186.707V202.808L307.5 180.638V164.537L269.101 186.707Z" fill="#0D0D0D"/>
<path d="M264.04 196.321L264.038 188.869L233.083 170.998V178.448L264.04 196.321Z" fill="white"/>
<path d="M291.536 163.378C291.536 157.703 287.072 154.31 279.671 150.534L279.626 150.567C273.179 147.34 263.646 147.335 257.207 150.562L257.168 150.537C256.887 150.683 256.621 150.825 256.342 150.967C256.319 150.981 256.291 150.988 256.268 151.002C256.254 151.009 256.247 151.016 256.233 151.023C249.402 154.606 245.314 157.945 245.303 163.365V163.378C245.31 166.796 247.567 170.207 252.085 172.812C261.118 178.031 275.753 178.031 284.777 172.823C289.294 170.217 291.547 166.796 291.538 163.381L291.536 163.378Z" fill="#CBE8CA"/>
<path d="M268.444 177.385C262.15 177.385 256.223 175.962 251.754 173.381C247.176 170.742 244.648 167.189 244.641 163.378C244.653 157.538 249.161 153.982 255.925 150.434L256.865 149.948C256.937 149.909 257.016 149.888 257.095 149.879C260.266 148.332 264.27 147.484 268.4 147.484C272.529 147.484 276.552 148.335 279.735 149.886C279.816 149.89 279.897 149.909 279.967 149.946C287.515 153.796 292.195 157.386 292.195 163.378C292.204 167.194 289.684 170.751 285.103 173.393C280.641 175.967 274.724 177.385 268.441 177.385H268.444ZM257.29 151.215L256.641 151.553C250.017 155.024 245.971 158.184 245.962 163.362C245.967 166.692 248.259 169.84 252.412 172.235C256.683 174.702 262.375 176.062 268.441 176.062C274.496 176.062 280.176 174.706 284.441 172.246C288.596 169.849 290.879 166.699 290.872 163.376C290.872 158.079 286.722 154.889 279.544 151.211C279.467 151.206 279.391 151.188 279.323 151.153C276.293 149.634 272.41 148.8 268.397 148.8C264.384 148.8 260.517 149.632 257.497 151.148C257.43 151.181 257.358 151.204 257.285 151.213L257.29 151.215Z" fill="#0D0D0D"/>
<path d="M279.67 150.534L279.626 150.567C276.403 148.956 272.409 148.146 268.419 148.144C270.525 148.144 272.634 148.951 274.336 150.567L274.362 150.537C278.273 154.315 280.63 157.705 280.63 163.378C281.507 165.015 283.018 169.484 283.586 173.444C283.99 173.242 284.39 173.044 284.771 172.825C289.289 170.219 291.542 166.799 291.533 163.383C291.533 157.707 287.069 154.315 279.668 150.539L279.67 150.534Z" fill="#0D0D0D"/>
<path d="M283.622 174.061C283.519 174.061 283.419 174.043 283.338 173.998C283.15 173.898 282.964 173.745 282.933 173.536C282.371 169.611 280.871 165.221 280.048 163.689C279.997 163.593 279.969 163.486 279.969 163.377C279.969 158.008 277.802 154.809 274.051 151.156C273.989 151.128 273.93 151.093 273.882 151.047C272.359 149.603 270.422 148.808 268.425 148.806H268.415C268.05 148.806 267.755 148.508 267.755 148.145C267.755 147.782 268.052 147.485 268.415 147.485H268.427C272.552 147.49 276.556 148.341 279.736 149.887C279.818 149.891 279.899 149.91 279.969 149.947C287.516 153.798 292.197 157.388 292.197 163.38C292.206 167.195 289.686 170.752 285.105 173.394C284.747 173.601 284.373 173.787 283.996 173.975C283.891 174.029 283.752 174.061 283.622 174.061ZM281.289 163.214C282.122 164.849 283.447 168.699 284.098 172.441C284.215 172.378 284.331 172.315 284.445 172.25C288.6 169.853 290.883 166.702 290.876 163.38C290.876 158.083 286.726 154.893 279.548 151.214C279.471 151.21 279.397 151.191 279.329 151.156C277.725 150.354 275.886 149.743 273.912 149.345C274.158 149.531 274.4 149.729 274.633 149.94C274.702 149.968 274.765 150.008 274.819 150.059C278.776 153.881 281.243 157.425 281.289 163.212V163.214Z" fill="#0D0D0D"/>
<path d="M280.576 165.034C287.277 161.167 287.275 154.883 280.558 151.009C273.847 147.133 262.97 147.135 256.267 151C249.561 154.873 249.568 161.153 256.281 165.025C262.994 168.905 273.871 168.903 280.576 165.034Z" fill="#CBE8CA"/>
<path d="M268.435 168.597C263.729 168.597 259.293 167.532 255.949 165.597C252.487 163.602 250.581 160.905 250.578 158.008C250.578 155.116 252.48 152.423 255.935 150.426C259.274 148.498 263.701 147.438 268.403 147.438C273.104 147.438 277.543 148.503 280.889 150.435C284.351 152.433 286.26 155.13 286.26 158.027C286.26 160.924 284.358 163.612 280.905 165.604C277.564 167.534 273.135 168.595 268.438 168.595L268.435 168.597ZM268.401 148.763C263.929 148.763 259.737 149.761 256.593 151.575C253.566 153.323 251.899 155.609 251.899 158.011C251.899 160.415 253.573 162.705 256.607 164.456C259.756 166.276 263.955 167.276 268.433 167.276C272.902 167.276 277.097 166.279 280.238 164.463C283.265 162.717 284.932 160.433 284.932 158.029C284.932 155.625 283.258 153.335 280.222 151.582C277.076 149.763 272.876 148.761 268.398 148.761L268.401 148.763Z" fill="#0D0D0D"/>
<path d="M279.263 154.182H279.275C276.087 150.813 275.231 148.897 275.234 141.571C275.231 141.571 275.231 141.566 275.231 141.564C275.231 140.559 274.562 139.557 273.234 138.785C270.572 137.248 266.263 137.251 263.603 138.783C262.215 139.588 261.571 140.648 261.634 141.696C261.625 148.739 260.79 150.748 257.809 153.945C254.519 156.798 255.054 160.693 259.423 163.213C264.396 166.089 272.462 166.089 277.436 163.22C281.679 160.772 282.281 157.019 279.265 154.182H279.263Z" fill="white"/>
<path d="M268.434 166.032H268.432C264.911 166.032 261.593 165.235 259.089 163.786C256.678 162.393 255.241 160.512 255.046 158.485C254.874 156.687 255.701 154.897 257.376 153.446C260.184 150.426 260.961 148.61 260.973 141.695C260.891 140.393 261.728 139.107 263.27 138.21C266.046 136.612 270.794 136.615 273.561 138.21C275.037 139.065 275.86 140.228 275.888 141.493C275.891 141.516 275.893 141.542 275.893 141.567C275.888 148.691 276.667 150.461 279.755 153.723C279.771 153.739 279.788 153.758 279.799 153.776C281.271 155.197 281.971 156.908 281.773 158.606C281.545 160.589 280.12 162.428 277.762 163.788C275.26 165.232 271.945 166.028 268.434 166.028V166.032ZM268.415 138.296C266.711 138.296 265.118 138.672 263.932 139.356C262.826 140 262.242 140.816 262.296 141.655C262.284 148.956 261.338 151.133 258.294 154.397C256.88 155.627 256.232 156.978 256.364 158.359C256.518 159.95 257.72 161.47 259.752 162.642C262.061 163.977 265.141 164.712 268.434 164.712H268.436C271.719 164.712 274.798 163.979 277.102 162.649C279.088 161.503 280.283 160.015 280.462 158.459C280.615 157.139 280.046 155.827 278.811 154.667C278.774 154.632 278.744 154.595 278.716 154.555C275.463 151.102 274.572 149.054 274.572 141.635C274.57 141.614 274.568 141.59 274.568 141.567C274.568 140.767 273.975 139.984 272.9 139.361C271.715 138.677 270.12 138.298 268.418 138.298L268.415 138.296Z" fill="#0D0D0D"/>
<path d="M279.264 154.183H279.275C276.088 150.814 275.232 148.898 275.234 141.571C275.232 141.571 275.232 141.566 275.232 141.564C275.232 140.56 274.562 139.558 273.235 138.786C271.902 138.018 270.161 137.632 268.419 137.632C269.384 137.632 270.347 138.018 271.084 138.786C271.821 139.553 272.188 140.56 272.188 141.564V141.573C272.188 148.893 272.663 150.816 274.425 154.183H274.421C276.06 156.968 277.378 163.002 274.383 164.483C275.467 164.148 276.518 163.748 277.434 163.218C281.677 160.77 282.28 157.017 279.264 154.18V154.183Z" fill="#0D0D0D"/>
<path d="M274.382 165.144C274.117 165.144 273.871 164.984 273.768 164.728C273.64 164.407 273.78 164.044 274.089 163.891C274.659 163.61 275.063 163.077 275.294 162.312C275.926 160.189 275.056 156.569 273.852 154.521C273.833 154.49 273.819 154.458 273.805 154.425C272.015 150.984 271.527 148.966 271.527 141.572C271.527 140.686 271.199 139.861 270.606 139.242C270.018 138.631 269.241 138.291 268.418 138.291C268.053 138.291 267.758 137.996 267.758 137.631C267.758 137.266 268.053 136.971 268.418 136.971C270.346 136.971 272.173 137.412 273.564 138.212C275.04 139.068 275.863 140.23 275.891 141.495C275.893 141.519 275.896 141.544 275.896 141.57C275.891 148.694 276.67 150.463 279.758 153.726C279.774 153.742 279.79 153.76 279.802 153.779C281.274 155.2 281.974 156.911 281.776 158.608C281.548 160.592 280.123 162.431 277.765 163.791C276.912 164.284 275.87 164.716 274.577 165.114C274.515 165.135 274.447 165.144 274.384 165.144H274.382ZM275.026 153.914C276.175 155.906 277.391 159.894 276.558 162.689C276.528 162.789 276.496 162.889 276.461 162.984C276.686 162.875 276.898 162.763 277.1 162.647C279.086 161.501 280.281 160.013 280.46 158.457C280.613 157.136 280.044 155.825 278.809 154.665C278.772 154.63 278.742 154.593 278.714 154.553C275.461 151.1 274.57 149.052 274.57 141.632C274.568 141.612 274.566 141.588 274.566 141.565C274.566 140.765 273.973 139.982 272.899 139.358C272.638 139.207 272.355 139.073 272.057 138.952C272.569 139.714 272.845 140.619 272.845 141.565C272.845 148.782 273.28 150.575 275.008 153.877C275.015 153.888 275.019 153.902 275.026 153.914Z" fill="#0D0D0D"/>
<path d="M273.238 144.348C275.896 142.813 275.891 140.325 273.231 138.786C270.569 137.249 266.261 137.251 263.601 138.784C260.941 140.318 260.943 142.809 263.605 144.343C266.265 145.88 270.581 145.885 273.238 144.348Z" fill="#CBE8CA"/>
<path d="M268.432 146.159C266.498 146.159 264.666 145.717 263.277 144.915C261.778 144.05 260.95 142.857 260.95 141.562C260.95 140.267 261.773 139.077 263.275 138.21C266.047 136.614 270.797 136.617 273.564 138.212C275.066 139.081 275.894 140.272 275.891 141.572C275.891 142.867 275.068 144.055 273.571 144.92C272.19 145.72 270.362 146.159 268.432 146.159ZM268.418 138.298C266.714 138.298 265.121 138.675 263.935 139.358C262.864 139.977 262.273 140.76 262.273 141.565C262.273 142.369 262.866 143.153 263.94 143.774C265.131 144.462 266.728 144.841 268.435 144.841C270.139 144.841 271.727 144.464 272.91 143.781C273.982 143.162 274.571 142.381 274.571 141.579C274.571 140.772 273.978 139.986 272.903 139.365C271.713 138.679 270.12 138.303 268.416 138.303L268.418 138.298Z" fill="#0D0D0D"/>
<path d="M277.009 133.378C277.009 128.633 273.161 124.784 268.418 124.784C263.672 124.787 259.829 128.633 259.824 133.378C259.824 138.124 263.672 141.972 268.418 141.974C273.166 141.972 277.009 138.124 277.009 133.378Z" fill="#CBE8CA"/>
<path d="M268.414 142.634C263.313 142.63 259.16 138.477 259.16 133.378C259.163 128.279 263.315 124.126 268.414 124.124C273.516 124.124 277.669 128.274 277.669 133.378C277.669 138.482 273.518 142.632 268.414 142.634ZM268.414 125.445C264.043 125.449 260.486 129.007 260.483 133.378C260.483 137.749 264.041 141.309 268.414 141.314C272.788 141.311 276.345 137.749 276.345 133.378C276.345 129.007 272.788 125.447 268.414 125.447V125.445Z" fill="#0D0D0D"/>
<path d="M270.848 125.177C272.999 126.737 274.417 129.258 274.417 132.125C274.417 136.873 270.572 140.721 265.826 140.718C264.975 140.718 264.173 140.556 263.394 140.328C264.81 141.351 266.538 141.974 268.414 141.974C273.162 141.972 277.005 138.124 277.005 133.378C277.005 129.483 274.397 126.233 270.846 125.177H270.848Z" fill="#0D0D0D"/>
<path d="M268.416 142.634C266.479 142.634 264.61 142.021 263.01 140.863C262.75 140.674 262.664 140.326 262.803 140.037C262.943 139.749 263.273 139.602 263.582 139.693C264.431 139.94 265.142 140.056 265.828 140.056C270.204 140.056 273.759 136.496 273.759 132.125C273.759 129.607 272.525 127.209 270.46 125.712C270.2 125.524 270.111 125.173 270.255 124.884C270.397 124.596 270.727 124.447 271.037 124.543C275.003 125.721 277.668 129.272 277.668 133.376C277.668 138.477 273.518 142.63 268.414 142.632L268.416 142.634ZM267.398 141.246C267.735 141.291 268.074 141.314 268.416 141.314C272.788 141.311 276.347 137.749 276.347 133.378C276.347 131.176 275.45 129.158 273.943 127.712C274.678 129.053 275.08 130.569 275.08 132.125C275.08 136.694 271.753 140.5 267.396 141.246H267.398Z" fill="#0D0D0D"/>
<path d="M273.238 130.249C275.895 128.71 275.89 126.222 273.231 124.685C270.568 123.151 266.26 123.148 263.6 124.685C260.942 126.218 260.942 128.706 263.604 130.242C266.264 131.779 270.58 131.779 273.238 130.249Z" fill="white"/>
<path d="M268.43 132.056C266.493 132.056 264.663 131.617 263.275 130.815C261.775 129.95 260.948 128.757 260.95 127.459C260.95 126.164 261.775 124.976 263.273 124.111C266.037 122.509 270.788 122.511 273.561 124.111C275.064 124.978 275.889 126.169 275.891 127.466C275.891 128.761 275.068 129.952 273.571 130.819C272.185 131.614 270.36 132.054 268.43 132.054V132.056ZM268.414 124.195C266.709 124.195 265.119 124.572 263.935 125.257C262.864 125.876 262.273 126.657 262.273 127.462C262.273 128.266 262.864 129.052 263.94 129.673C266.314 131.042 270.536 131.045 272.913 129.68C273.982 129.059 274.573 128.275 274.573 127.473C274.573 126.666 273.98 125.883 272.906 125.26C271.715 124.574 270.12 124.197 268.416 124.197L268.414 124.195Z" fill="#0D0D0D"/>
<path d="M273.231 124.685C271.901 123.918 270.159 123.534 268.418 123.534C269.397 123.534 270.373 123.92 271.122 124.685C272.617 126.222 272.617 128.712 271.124 130.247C270.378 131.014 269.404 131.398 268.422 131.398C270.164 131.398 271.91 131.012 273.238 130.249C275.895 128.71 275.891 126.222 273.231 124.685Z" fill="#0D0D0D"/>
<path d="M268.426 132.059C268.061 132.059 267.766 131.764 267.766 131.399C267.766 131.034 268.058 130.738 268.426 130.736C269.268 130.736 270.06 130.397 270.656 129.785C271.897 128.506 271.895 126.425 270.651 125.144C270.056 124.535 269.263 124.198 268.424 124.195C268.058 124.195 267.763 123.898 267.763 123.533C267.763 123.168 268.061 122.872 268.424 122.872H268.426C270.36 122.872 272.183 123.312 273.567 124.112C275.069 124.979 275.894 126.169 275.897 127.467C275.897 128.762 275.073 129.952 273.576 130.82C272.186 131.617 270.358 132.057 268.43 132.057L268.426 132.059ZM272.123 124.874C273.16 126.43 273.162 128.504 272.125 130.057C272.404 129.943 272.667 129.815 272.913 129.676C273.983 129.055 274.574 128.271 274.574 127.469C274.574 126.662 273.981 125.879 272.906 125.256C272.662 125.114 272.402 124.988 272.125 124.874H272.123Z" fill="#0D0D0D"/>
<path d="M303.884 62.1905V62.1696C303.87 56.9357 300.406 51.6995 293.481 47.7026C279.621 39.6971 257.17 39.6994 243.331 47.684C236.406 51.6855 232.951 56.931 232.963 62.1696H232.96C232.96 101.725 250.645 125.702 268.421 125.706C286.194 125.704 303.877 101.734 303.884 62.1928V62.1905Z" fill="#CBE8CA"/>
<path d="M268.418 126.365C250.661 126.363 232.294 102.349 232.294 62.1706C232.294 62.1474 232.294 62.1265 232.299 62.1032C232.318 56.4113 236.115 51.089 242.999 47.1107C249.791 43.1929 258.806 41.0352 268.385 41.0352C277.965 41.0352 287.007 43.1999 293.811 47.1293C300.716 51.1169 304.527 56.4555 304.541 62.1683C304.536 102.358 286.168 126.363 268.418 126.365ZM233.615 62.2358C233.636 101.549 251.319 125.04 268.418 125.042C285.521 125.04 303.213 101.528 303.22 62.1892C303.206 56.9484 299.63 52.0145 293.15 48.2733C286.545 44.4578 277.749 42.3558 268.385 42.3558C259.022 42.3558 250.251 44.4508 243.66 48.2547C237.177 52.0028 233.61 56.9437 233.62 62.166C233.62 62.1892 233.62 62.2125 233.615 62.2358Z" fill="#0D0D0D"/>
<path d="M293.505 76.6619C307.344 68.6681 307.335 55.7078 293.477 47.7023C279.617 39.6969 257.165 39.6992 243.326 47.6837C229.487 55.6799 229.501 68.6448 243.358 76.6386C257.212 84.6418 279.668 84.6418 293.507 76.6642L293.505 76.6619Z" fill="white"/>
<path d="M268.461 83.3021C258.861 83.3021 249.83 81.1374 243.029 77.2079C236.112 73.218 232.301 67.8702 232.299 62.1503C232.296 56.4375 236.098 51.0966 242.999 47.109C249.791 43.1912 258.805 41.0334 268.385 41.0334C277.964 41.0334 287.007 43.1981 293.81 47.1276C300.73 51.1245 304.541 56.477 304.541 62.1968C304.541 67.9167 300.739 73.2459 293.838 77.2335C287.049 81.1467 278.039 83.3021 268.464 83.3021H268.461ZM268.382 42.3541C259.031 42.3541 250.249 44.4491 243.657 48.253C237.181 51.9941 233.617 56.9281 233.617 62.148C233.617 67.3749 237.195 72.3158 243.689 76.0616C250.293 79.8772 259.091 81.9791 268.461 81.9791C277.808 81.9791 286.586 79.8865 293.175 76.0872C299.651 72.3484 303.218 67.4144 303.218 62.1945C303.218 56.9746 299.642 52.022 293.147 48.2716C286.542 44.456 277.746 42.3541 268.382 42.3541Z" fill="#0D0D0D"/>
<path d="M295.066 60.3709C294.852 60.3709 294.645 60.2686 294.517 60.0803C293.133 58.0249 291.038 56.1833 288.297 54.6023C287.162 53.9442 285.895 53.3281 284.533 52.7747C284.196 52.6375 284.033 52.2515 284.17 51.9144C284.307 51.5749 284.698 51.4145 285.03 51.5517C286.449 52.1283 287.772 52.77 288.957 53.4606C291.873 55.1417 294.112 57.1204 295.612 59.3432C295.817 59.6478 295.735 60.057 295.433 60.2616C295.321 60.3384 295.191 60.3756 295.066 60.3756V60.3709Z" fill="#0D0D0D"/>
<path d="M242.864 73.7528C242.68 73.7528 242.497 73.676 242.366 73.5249C239.811 70.5929 238.753 67.2912 239.304 63.9779C239.969 59.9856 243.008 56.2445 247.856 53.4427C255.894 48.8017 267.962 47.2927 278.592 49.5899C278.95 49.6667 279.176 50.0201 279.099 50.3758C279.022 50.7339 278.664 50.9525 278.313 50.8827C267.982 48.6506 256.287 50.1015 248.516 54.5867C244.015 57.1885 241.206 60.5995 240.609 64.1941C240.123 67.1052 241.076 70.0302 243.362 72.6553C243.603 72.9297 243.573 73.3459 243.299 73.5877C243.173 73.697 243.017 73.7504 242.864 73.7504V73.7528Z" fill="#0D0D0D"/>
<path d="M303.885 62.1683C303.885 62.1265 303.873 62.0799 303.871 62.0334C303.943 67.3255 300.499 72.6268 293.51 76.6609C292.815 77.0631 292.085 77.4259 291.35 77.7862C288.723 107.939 278.599 125.7 268.422 125.705C286.195 125.703 303.878 101.733 303.885 62.1916V62.1706V62.1683Z" fill="#0D0D0D"/>
<path d="M268.418 126.366C268.053 126.366 267.758 126.071 267.758 125.705C267.758 125.34 268.055 125.045 268.418 125.045C277.437 125.043 287.982 108.79 290.688 77.7309C290.707 77.5008 290.849 77.2961 291.056 77.1938C291.779 76.8404 292.495 76.4847 293.176 76.0917C299.714 72.3157 303.277 67.3283 303.205 62.0456C303.2 61.6898 303.479 61.3922 303.837 61.3759C304.195 61.348 304.5 61.6294 304.525 61.9851C304.525 62.0014 304.541 62.1525 304.541 62.1688C304.537 102.356 286.168 126.361 268.418 126.366ZM291.972 78.2169C289.977 100.485 283.594 117.461 275.452 123.731C289.165 118.611 301.621 98.7362 303.079 68.2025C301.386 71.5972 298.247 74.692 293.839 77.2357C293.237 77.5821 292.609 77.903 291.972 78.2169Z" fill="#0D0D0D"/>
<path d="M295.034 79.3093L291.981 81.0718C292.067 81.6949 292.116 82.3018 292.118 82.8807V82.8993C292.118 83.8271 292.104 84.7315 292.088 85.6244L305.962 93.6368C305.469 104.828 301.247 112.31 295.941 116.16C292.746 117.579 289.365 117.839 286.271 116.918L283.218 118.681C282.322 119.739 281.378 120.627 280.393 121.355V121.962C285.917 125.152 291.951 125.008 297.113 122.006L297.122 122.015L300.268 120.197V120.188C307.473 115.942 312.963 106.107 312.963 91.9046V89.6585L295.034 79.3093Z" fill="#CBE8CA"/>
<path d="M288.82 124.967C285.804 124.967 282.858 124.149 280.061 122.535C279.857 122.417 279.731 122.198 279.731 121.963V121.357C279.731 121.147 279.831 120.95 279.999 120.826C280.952 120.12 281.863 119.255 282.71 118.255C282.759 118.197 282.817 118.148 282.884 118.111L285.937 116.348C286.093 116.257 286.281 116.237 286.455 116.288C289.392 117.162 292.631 116.904 295.668 115.558C298.904 113.193 304.592 107.164 305.277 94.0106L291.752 86.1981C291.545 86.0772 291.417 85.854 291.422 85.6122C291.441 84.724 291.455 83.8242 291.455 82.9011C291.45 82.3523 291.406 81.7711 291.322 81.1642C291.285 80.8991 291.415 80.6364 291.648 80.5015L294.7 78.7391C294.907 78.6205 295.156 78.6205 295.363 78.7391L313.292 89.0883C313.497 89.2068 313.622 89.4254 313.622 89.6602V91.9063C313.622 105.118 308.793 115.869 300.695 120.701C300.664 120.729 300.63 120.752 300.592 120.773L297.446 122.591C297.412 122.612 297.374 122.628 297.337 122.642C294.64 124.186 291.773 124.97 288.818 124.97L288.82 124.967ZM281.133 121.622C286.188 124.372 291.847 124.3 296.779 121.436C296.816 121.415 296.853 121.398 296.891 121.384L299.837 119.682C299.865 119.659 299.895 119.636 299.925 119.617C307.675 115.055 312.299 104.695 312.299 91.9017V90.0369L295.033 80.0691L292.689 81.4223C292.745 81.9268 292.775 82.4151 292.778 82.8732C292.778 83.6893 292.766 84.4752 292.752 85.2425L306.289 93.0596C306.503 93.1828 306.631 93.4153 306.619 93.6618C306.163 104.027 302.506 112.205 296.323 116.692C292.903 118.236 289.52 118.497 286.353 117.629L283.642 119.194C282.854 120.113 282.012 120.926 281.131 121.619L281.133 121.622Z" fill="#0D0D0D"/>
<path d="M291.981 81.0707C292.067 81.6938 292.116 82.3007 292.118 82.8796V82.8982C292.118 83.826 292.104 84.7305 292.088 85.6233L305.962 93.6357C305.097 113.258 292.776 121.528 283.218 118.68C282.322 119.738 281.378 120.626 280.393 121.354V121.961C293.683 129.631 309.91 118.085 309.91 93.6636V91.4175L291.981 81.0684V81.0707Z" fill="white"/>
<path d="M288.836 124.975C285.816 124.975 282.865 124.154 280.061 122.535C279.857 122.417 279.731 122.198 279.731 121.964V121.357C279.731 121.147 279.831 120.95 279.999 120.827C280.952 120.12 281.863 119.255 282.71 118.255C282.879 118.055 283.151 117.974 283.403 118.048C284.558 118.392 285.765 118.566 286.988 118.566C295.472 118.566 304.431 110.131 305.28 94.0061L291.754 86.1936C291.548 86.0727 291.42 85.8495 291.424 85.6077C291.443 84.7195 291.457 83.8196 291.457 82.8966C291.452 82.3478 291.408 81.7666 291.324 81.1597C291.289 80.9109 291.401 80.6621 291.61 80.5203C291.82 80.3808 292.092 80.3691 292.31 80.497L310.239 90.8462C310.444 90.9648 310.569 91.1834 310.569 91.4182V93.6643C310.569 102.921 308.289 110.866 303.975 116.648C299.969 122.015 294.593 124.972 288.839 124.972L288.836 124.975ZM281.133 121.622C283.61 122.968 286.197 123.652 288.836 123.652C294.166 123.652 299.165 120.885 302.915 115.86C307.059 110.31 309.249 102.635 309.249 93.6666V91.8018L292.764 82.2851C292.773 82.4873 292.778 82.6827 292.782 82.8756C292.782 83.6918 292.771 84.4777 292.757 85.245L306.294 93.0621C306.507 93.1853 306.635 93.4178 306.624 93.6643C305.866 110.88 296.172 119.887 286.99 119.887C285.786 119.887 284.595 119.734 283.444 119.429C282.714 120.252 281.942 120.989 281.136 121.622H281.133Z" fill="#0D0D0D"/>
<path d="M295.933 116.161C292.741 117.58 289.363 117.84 286.266 116.919L283.213 118.682C287.319 119.905 291.934 119.063 295.933 116.161Z" fill="#0D0D0D"/>
<path d="M286.968 119.886C285.624 119.886 284.296 119.693 283.025 119.314C282.771 119.24 282.587 119.022 282.557 118.759C282.525 118.496 282.653 118.24 282.883 118.11L285.936 116.348C286.091 116.257 286.28 116.236 286.454 116.287C289.393 117.161 292.632 116.906 295.664 115.559C295.976 115.425 296.336 115.541 296.506 115.834C296.675 116.127 296.594 116.501 296.322 116.699C293.444 118.784 290.209 119.889 286.968 119.889V119.886ZM285.006 118.41C286.77 118.689 288.61 118.584 290.388 118.112C289.021 118.15 287.656 117.987 286.354 117.629L285.003 118.408L285.006 118.41Z" fill="#0D0D0D"/>
<path d="M309.911 91.4199V93.666C309.911 107.931 304.37 117.794 297.113 122.007L297.123 122.016L300.268 120.198V120.189C307.474 115.943 312.964 106.108 312.964 91.9059V89.6598L309.911 91.4222V91.4199Z" fill="#0D0D0D"/>
<path d="M297.122 122.678C296.926 122.678 296.733 122.592 296.605 122.429L296.596 122.42C296.478 122.271 296.429 122.076 296.464 121.885C296.499 121.697 296.615 121.532 296.78 121.436C304.588 116.902 309.247 106.523 309.247 93.6674V91.4213C309.247 91.1865 309.373 90.9679 309.577 90.8493L312.63 89.0869C312.835 88.9683 313.086 88.9683 313.291 89.0869C313.495 89.2054 313.621 89.424 313.621 89.6588V91.9049C313.621 105.116 308.792 115.868 300.693 120.699C300.663 120.727 300.628 120.751 300.591 120.771L297.445 122.59C297.343 122.65 297.229 122.678 297.115 122.678H297.122ZM310.57 91.8026V93.6674C310.57 102.456 308.438 110.15 304.63 115.74C309.51 110.315 312.302 101.845 312.302 91.9049V90.8028L310.57 91.8026Z" fill="#0D0D0D"/>
</g>
</svg>
