            <svg width="72" height="62" viewBox="0 0 72 62" fill="none"
                xmlns="http://www.w3.org/2000/svg">
                <path
                    d="M43.9399 6.63793C43.9399 5.38895 43.1149 4.13939 41.4626 3.18669C38.1627 1.28071 32.8147 1.27898 29.5176 3.18209C27.8682 4.13421 27.045 5.38377 27.0484 6.63275H27.0473V19.7473H27.0484C27.0513 20.994 27.8763 22.2413 29.5257 23.1934C32.8262 25.0994 38.1736 25.1011 41.4695 23.198C43.1189 22.2453 43.9422 20.9963 43.9393 19.7473V6.6385L43.9399 6.63793Z"
                    fill="#CBE8CA" />
                <path
                    d="M35.5051 24.9692C33.277 24.9692 31.0465 24.4785 29.3494 23.4988C27.6505 22.5173 26.7082 21.1941 26.6955 19.7696C26.6943 19.7616 26.6943 19.7524 26.6943 19.7438V6.63204C26.6915 5.19666 27.6309 3.86253 29.3407 2.87531C32.7298 0.918706 38.2476 0.923309 41.6384 2.87991C43.3494 3.86771 44.2923 5.20183 44.2923 6.63721V19.7461C44.2952 21.1803 43.3557 22.515 41.6459 23.5028C39.9533 24.4797 37.7298 24.9687 35.5051 24.9687V24.9692ZM35.4832 2.10613C33.3863 2.10613 31.2904 2.56637 29.694 3.48801C28.212 4.34233 27.3974 5.45899 27.4014 6.63146L27.4002 19.7432C27.4037 20.9168 28.2206 22.0323 29.702 22.8866C32.899 24.7334 38.0997 24.7362 41.2932 22.8912C42.7746 22.0358 43.5898 20.9191 43.587 19.7478V6.63779C43.587 5.46532 42.77 4.34808 41.2857 3.49261C39.6858 2.5681 37.5842 2.10613 35.4827 2.10613H35.4832Z"
                    fill="#292E28" />
                <path
                    d="M43.9377 19.7468V6.63799C43.9377 5.38901 43.1127 4.13945 41.4604 3.18675C40.716 2.757 39.8576 2.43771 38.9509 2.20068V24.1836C39.8605 23.9483 40.7206 23.6284 41.4679 23.1975C43.1173 22.2448 43.9405 20.9958 43.9377 19.7468Z"
                    fill="#292E28" />
                <path
                    d="M38.9505 24.5358C38.8734 24.5358 38.7968 24.5099 38.7347 24.4621C38.6484 24.3948 38.5978 24.2918 38.5978 24.1825V2.20021C38.5978 2.09091 38.6484 1.98793 38.7347 1.92062C38.821 1.85446 38.9332 1.83144 39.0396 1.85791C40.043 2.12082 40.9168 2.46428 41.6365 2.8808C43.3475 3.86744 44.2904 5.20214 44.2904 6.63752V19.7458C44.2933 21.1812 43.3538 22.5153 41.644 23.5031C40.918 23.9219 40.0412 24.2659 39.039 24.5248C39.0097 24.5323 38.9804 24.5358 38.951 24.5358H38.9505ZM39.3031 2.66506V23.7188C40.0602 23.4945 40.7264 23.216 41.2908 22.891C42.7722 22.0355 43.5874 20.9188 43.5845 19.7475V6.63752C43.5845 5.46506 42.7676 4.34782 41.2833 3.49234C40.7247 3.16902 40.0602 2.8923 39.3031 2.66506Z"
                    fill="#292E28" />
                <path
                    d="M41.4686 10.0832C44.7656 8.17953 44.7622 5.09188 41.4611 3.18705C38.1612 1.28108 32.8132 1.27935 29.5161 3.18245C26.2202 5.08555 26.2236 8.1732 29.5242 10.0786C32.8247 11.9846 38.1721 11.9863 41.468 10.0832H41.4686Z"
                    fill="white" />
                <path
                    d="M35.5045 11.8541C33.2764 11.8541 31.0459 11.3633 29.3488 10.3836C27.6367 9.39464 26.6943 8.06051 26.6943 6.62513C26.6943 5.18975 27.6344 3.86138 29.3407 2.87531C32.7298 0.918706 38.2476 0.923308 41.6384 2.87991C43.3493 3.86771 44.2923 5.20183 44.2928 6.63721C44.2928 8.06972 43.3528 9.40212 41.6453 10.3882C39.9528 11.3651 37.7292 11.8541 35.5045 11.8541ZM35.4827 2.10555C33.3857 2.10555 31.2899 2.5658 29.6934 3.48743C28.2149 4.34118 27.3997 5.45554 27.3997 6.62571C27.3997 7.79587 28.2177 8.91541 29.7014 9.77204C32.8984 11.6188 38.0991 11.6216 41.2926 9.77664C42.7723 8.92289 43.5869 7.80738 43.5869 6.63779C43.5858 5.46532 42.7689 4.34866 41.2852 3.49261C39.6852 2.5681 37.5837 2.10613 35.4821 2.10613L35.4827 2.10555Z"
                    fill="#292E28" />
                <path
                    d="M57.793 5.22728C57.793 3.9783 56.968 2.72874 55.3157 1.77604C52.0158 -0.129934 46.6678 -0.13166 43.3707 1.77144C41.7213 2.72357 40.8981 3.97312 40.9015 5.22211H40.9004V27.7464H40.9015C40.9044 28.993 41.7294 30.2403 43.3788 31.1924C46.6793 33.0984 52.0267 33.1001 55.3226 31.197C56.972 30.2443 57.7953 28.9953 57.7924 27.7464V5.22728H57.793Z"
                    fill="#CBE8CA" />
                <path
                    d="M49.3579 32.9679C47.1298 32.9679 44.8993 32.4772 43.2022 31.4975C41.5033 30.516 40.561 29.1928 40.5483 27.7684C40.5472 27.7603 40.5472 27.7511 40.5472 27.7425V5.22166C40.5443 3.78628 41.4838 2.45216 43.1936 1.46494C46.5815 -0.490516 52.0998 -0.487639 55.4912 1.46954C57.2022 2.45733 58.1451 3.79146 58.1451 5.22684V27.7453C58.148 29.1796 57.2085 30.5143 55.4987 31.5021C53.8062 32.4789 51.5826 32.9679 49.3579 32.9679ZM49.3361 0.695182C47.2391 0.695182 45.1433 1.15542 43.5468 2.07706C42.0648 2.93138 41.2508 4.04805 41.2542 5.22051L41.2531 27.7419C41.2565 28.9155 42.0734 30.031 43.5548 30.8853C46.7518 32.7332 51.9525 32.7344 55.146 30.8899C56.6275 30.0345 57.4427 28.9178 57.4398 27.7465V5.22684C57.4398 4.05438 56.6228 2.93714 55.1386 2.08166C53.5387 1.15715 51.4371 0.695182 49.3355 0.695182H49.3361Z"
                    fill="#292E28" />
                <path
                    d="M57.7933 27.7462V5.22711C57.7933 3.97812 56.9683 2.72856 55.316 1.77586C54.5716 1.34611 53.7132 1.02682 52.8065 0.789795V32.1823C53.7161 31.947 54.5762 31.6272 55.3235 31.1963C56.9729 30.2436 57.7962 28.9946 57.7933 27.7456V27.7462Z"
                    fill="#292E28" />
                <path
                    d="M52.8061 32.5352C52.729 32.5352 52.6525 32.5094 52.5903 32.4616C52.504 32.3943 52.4534 32.2913 52.4534 32.182V0.790048C52.4534 0.680741 52.504 0.577762 52.5903 0.510451C52.6766 0.444291 52.79 0.42243 52.8952 0.447743C53.8986 0.710657 54.7724 1.05411 55.4921 1.47063C57.2031 2.45728 58.146 3.79198 58.146 5.22736V27.7453C58.1489 29.1807 57.2094 30.5148 55.4996 31.5026C54.7736 31.9214 53.8968 32.2654 52.8947 32.5243C52.8653 32.5318 52.836 32.5352 52.8066 32.5352H52.8061ZM53.1587 1.25489V31.7189C53.9158 31.4945 54.582 31.2161 55.1464 30.891C56.6278 30.0356 57.443 28.9189 57.4401 27.7476V5.22736C57.4401 4.05489 56.6232 2.93765 55.1389 2.08218C54.5803 1.75886 53.9158 1.48214 53.1587 1.25489Z"
                    fill="#292E28" />
                <path
                    d="M55.3225 8.6722C58.6196 6.76852 58.6161 3.68087 55.315 1.77604C52.0151 -0.129934 46.6671 -0.13166 43.37 1.77144C40.0741 3.67454 40.0776 6.76219 43.3781 8.66759C46.6786 10.5736 52.026 10.5753 55.3219 8.6722H55.3225Z"
                    fill="white" />
                <path
                    d="M49.3573 10.4437C47.1292 10.4437 44.8987 9.95295 43.2016 8.97321C41.4895 7.98427 40.5472 6.65014 40.5472 5.21476C40.5472 3.77938 41.4872 2.45101 43.1935 1.46494C46.5815 -0.490516 52.0998 -0.487639 55.4912 1.46954C57.2022 2.45733 58.1451 3.79146 58.1457 5.22684C58.1457 6.65935 57.2056 7.99175 55.4981 8.97781C53.8056 9.95468 51.582 10.4437 49.3573 10.4437ZM49.3355 0.695182C47.2385 0.695182 45.1427 1.15542 43.5462 2.07706C42.0677 2.93081 41.2525 4.04517 41.2525 5.21534C41.2525 6.3855 42.0706 7.50504 43.5543 8.36167C46.7512 10.2084 51.952 10.2113 55.1455 8.36627C56.6251 7.51252 57.4398 6.39701 57.4398 5.22742C57.4386 4.05495 56.6217 2.93829 55.138 2.08224C53.5381 1.15773 51.4365 0.695758 49.3349 0.695758L49.3355 0.695182Z"
                    fill="#292E28" />
                <path
                    d="M71.6427 16.0492C71.6427 14.8002 70.8166 13.5506 69.1654 12.5979C65.8649 10.692 60.5169 10.6902 57.2204 12.5933C55.5699 13.5455 54.7478 14.795 54.7506 16.044V35.7452C54.7535 36.9919 55.5797 38.2392 57.2279 39.1913C60.5284 41.0973 65.8759 41.099 69.1718 39.1959C70.8223 38.2432 71.6444 36.9942 71.6427 35.7452V16.0492Z"
                    fill="#CBE8CA" />
                <path
                    d="M63.2072 40.9663C60.9791 40.9663 58.7486 40.4756 57.0515 39.4959C55.3434 38.5092 54.4005 37.1768 54.3976 35.7449V16.0431C54.3947 14.6077 55.3342 13.2736 57.044 12.2863C60.4319 10.3309 65.9479 10.3338 69.3417 12.291C71.0526 13.2787 71.9955 14.6129 71.9955 16.0483V35.7437C71.9972 37.1791 71.0572 38.5132 69.348 39.5005C67.6554 40.4773 65.4319 40.9663 63.2072 40.9663ZM63.1859 11.5166C61.0878 11.5166 58.992 11.9768 57.3966 12.8985C55.9152 13.7528 55.1 14.8695 55.1029 16.0419V35.7403C55.1058 36.9139 55.9227 38.0294 57.4041 38.8837C60.6011 40.7305 65.8018 40.7333 68.9953 38.8883C70.4767 38.034 71.2919 36.9162 71.2896 35.7449V16.0488C71.2896 14.8764 70.4727 13.7591 68.989 12.9036C67.3885 11.9791 65.2869 11.5172 63.1859 11.5172V11.5166Z"
                    fill="#292E28" />
                <path
                    d="M71.6434 35.7438V16.0483C71.6434 14.7993 70.8172 13.5497 69.1661 12.597C68.4211 12.1673 67.5627 11.848 66.6566 11.611V40.1805C67.5656 39.9452 68.4263 39.6253 69.1724 39.1944C70.823 38.2417 71.6451 36.9927 71.6434 35.7438Z"
                    fill="#292E28" />
                <path
                    d="M66.6562 40.5333C66.5791 40.5333 66.5026 40.5074 66.4404 40.4596C66.3541 40.3923 66.3035 40.2894 66.3035 40.18V11.6111C66.3035 11.5018 66.3541 11.3988 66.4404 11.3315C66.5267 11.2665 66.64 11.2412 66.7453 11.2699C67.7487 11.5317 68.622 11.8757 69.3422 12.2911C71.0532 13.2789 71.9961 14.613 71.9961 16.0484V35.7439C71.9978 37.1793 71.0578 38.5134 69.3486 39.5006C68.6243 39.9189 67.7481 40.2623 66.7442 40.5224C66.7148 40.5298 66.6855 40.5333 66.6562 40.5333ZM67.0088 12.0759V39.7164C67.7659 39.4914 68.4333 39.2135 68.9953 38.8885C70.4767 38.0342 71.2919 36.9164 71.2896 35.745V16.0484C71.2896 14.8759 70.4727 13.7587 68.989 12.9032C68.4304 12.5799 67.7648 12.3032 67.0088 12.0759Z"
                    fill="#292E28" />
                <path
                    d="M69.1725 19.4941C72.4696 17.5904 72.4667 14.5028 69.1662 12.5979C65.8657 10.692 60.5177 10.6902 57.2212 12.5933C53.9241 14.4964 53.9276 17.5841 57.2287 19.4895C60.5292 21.3955 65.8766 21.3972 69.1725 19.4941Z"
                    fill="white" />
                <path
                    d="M63.2078 21.2651C60.9796 21.2651 58.7492 20.7744 57.052 19.7946C55.3399 18.8057 54.3976 17.4715 54.3976 16.0362C54.3987 14.6037 55.3388 13.2718 57.0451 12.2863C60.4331 10.3309 65.9491 10.3338 69.3428 12.291C71.0537 13.2787 71.9967 14.6129 71.9967 16.0477C71.9967 17.4825 71.0566 18.8137 69.3491 19.7998C67.6566 20.7767 65.433 21.2657 63.2083 21.2657L63.2078 21.2651ZM63.1865 11.5166C61.0884 11.5166 58.9925 11.9768 57.3972 12.8985C55.9175 13.7522 55.1035 14.8666 55.1029 16.0367C55.1029 17.2092 55.921 18.3264 57.4047 19.1831C60.6016 21.0298 65.8024 21.0327 68.9959 19.1877C70.4756 18.3334 71.2902 17.2184 71.2902 16.0477C71.2902 14.8769 70.4733 13.7585 68.9896 12.9031C67.3891 11.9786 65.2875 11.5166 63.1865 11.5166Z"
                    fill="#292E28" />
                <path d="M64.5897 47.5345L23.7087 16.314L0.353149 26.4939V29.86L41.2347 61.0806L64.5897 50.9V47.5345Z"
                    fill="#CBE8CA" />
                <path
                    d="M41.2348 61.4336C41.1583 61.4336 41.0829 61.4088 41.0208 61.3611L0.138648 30.14C0.0512021 30.0738 0 29.9703 0 29.8598V26.4937C0 26.3533 0.083419 26.2262 0.212287 26.1704L23.5678 15.9898C23.6846 15.9392 23.8216 15.9547 23.9228 16.033L64.8038 47.2535C64.8913 47.3197 64.9425 47.4232 64.9425 47.5337V50.8998C64.9425 51.0401 64.859 51.1673 64.7302 51.2231L41.3752 61.4036C41.3303 61.4232 41.2826 61.433 41.2348 61.433V61.4336ZM0.705897 29.6855L41.2849 60.6747L64.2371 50.6691V47.7091L23.6593 16.7193L0.705897 26.725V29.6849V29.6855Z"
                    fill="#292E28" />
                <path d="M64.5897 47.5345L23.7087 16.314L0.353149 26.4939L41.2347 57.715L64.5897 47.5345Z" fill="white" />
                <path
                    d="M41.2348 58.0675C41.1583 58.0675 41.0829 58.0427 41.0208 57.995L0.13865 26.7744C0.0391224 26.6991 -0.0132302 26.576 0.00287832 26.4517C0.0178362 26.3274 0.0978032 26.2199 0.212288 26.1704L23.5678 15.9898C23.6846 15.9392 23.8216 15.9547 23.9228 16.033L64.8038 47.2535C64.9033 47.3289 64.9557 47.452 64.9396 47.5762C64.9246 47.7005 64.8447 47.8081 64.7302 47.8576L41.3752 58.0381C41.3303 58.0577 41.2826 58.0675 41.2348 58.0675ZM1.04418 26.5777L41.2849 57.3086L63.8989 47.4508L23.6593 16.7193L1.04418 26.5771V26.5777Z"
                    fill="#292E28" />
                <path d="M41.2354 57.7144V61.0799L64.5903 50.8993V47.5338L41.2354 57.7144Z" fill="#292E28" />
                <path
                    d="M41.2349 61.4328C41.167 61.4328 41.0997 61.4133 41.0421 61.3747C40.942 61.3097 40.8822 61.1992 40.8822 61.0796V57.7135C40.8822 57.5731 40.9656 57.446 41.0945 57.3902L64.4495 47.2096C64.5588 47.163 64.6836 47.1716 64.7832 47.2378C64.8833 47.3028 64.9431 47.4133 64.9431 47.5329V50.899C64.9431 51.0394 64.8597 51.1665 64.7308 51.2224L41.3758 61.4029C41.331 61.4225 41.2832 61.4322 41.2355 61.4322L41.2349 61.4328ZM41.5875 57.9453V60.5411L64.2366 50.6678V48.072L41.5875 57.9453Z"
                    fill="#292E28" />
                <path
                    d="M45.1052 53.5429L56.5813 48.5406C55.7891 47.4562 56.0889 46.2084 57.358 45.2913L25.4741 20.9405C23.5987 21.3944 21.4355 21.2201 19.8448 20.4849L8.36751 25.4865C9.15855 26.571 8.85997 27.8177 7.59028 28.7364L39.4753 53.0867C41.3519 52.6316 43.515 52.8082 45.1052 53.5435V53.5429Z"
                    fill="#CBE8CA" />
                <path
                    d="M45.1048 53.8955C45.0542 53.8955 45.0036 53.8846 44.957 53.8633C43.4318 53.1585 41.3642 52.9911 39.5578 53.4289C39.4577 53.4531 39.3466 53.4318 39.2609 53.3662L7.3759 29.016C7.28673 28.9481 7.23553 28.8422 7.23726 28.7312C7.23898 28.6201 7.29306 28.5154 7.38338 28.4499C7.98515 28.0144 8.34816 27.5023 8.43273 26.9702C8.50177 26.5353 8.38326 26.1055 8.08238 25.693C8.01909 25.6067 7.99896 25.4963 8.02657 25.3933C8.05534 25.2897 8.1284 25.2052 8.22678 25.162L19.7041 20.1603C19.7961 20.1201 19.9008 20.1218 19.9929 20.1632C21.5163 20.8668 23.5851 21.0354 25.3915 20.597C25.4951 20.5728 25.6026 20.5941 25.6884 20.6597L57.5722 45.0105C57.6614 45.0784 57.7126 45.1843 57.7109 45.2953C57.7091 45.4075 57.6551 45.511 57.5647 45.5766C56.963 46.011 56.6005 46.523 56.5165 47.0551C56.4475 47.4901 56.5654 47.9198 56.8669 48.3317C56.9302 48.4192 56.9503 48.5291 56.9227 48.632C56.8945 48.7356 56.8209 48.8202 56.7225 48.8633L45.2464 53.8656C45.2015 53.8851 45.1537 53.8949 45.106 53.8949L45.1048 53.8955ZM41.6196 52.4843C42.8565 52.4843 44.0831 52.7138 45.1071 53.1568L56.0666 48.3795C55.8279 47.9198 55.7422 47.4314 55.8187 46.9453C55.913 46.3481 56.245 45.7855 56.7864 45.2987L25.3921 21.3219C23.535 21.7326 21.4415 21.5623 19.8427 20.8708L8.88205 25.6476C9.1208 26.1072 9.20652 26.5957 9.12943 27.0818C9.03508 27.679 8.70313 28.2422 8.16177 28.7295L39.5572 52.7052C40.2251 52.5573 40.9247 52.4849 41.6202 52.4849L41.6196 52.4843Z"
                    fill="#292E28" />
                <path
                    d="M36.1976 39.8605C32.7354 41.3695 28.259 41.3194 26.2011 39.7466C24.141 38.1731 25.2806 35.6746 28.7428 34.165C32.2061 32.6554 36.682 32.7066 38.7421 34.2789C40.8011 35.8529 39.6626 38.3509 36.1976 39.8605ZM27.9909 28.1151L22.8109 24.1593L20.1386 25.3237L25.3192 29.2795L27.9903 28.1151H27.9909ZM51.2613 45.8873L46.0813 41.9315L43.4107 43.0965L48.5907 47.0517L51.2613 45.8873Z"
                    fill="white" />
                <path
                    d="M48.5901 47.4047C48.5136 47.4047 48.4382 47.38 48.3761 47.3322L43.1961 43.377C43.0971 43.3016 43.0442 43.1785 43.0603 43.0543C43.0753 42.93 43.1547 42.823 43.2691 42.7729L45.9397 41.6079C46.0582 41.5573 46.1934 41.5729 46.2952 41.6511L51.4753 45.6069C51.5748 45.6822 51.6271 45.8054 51.611 45.9296C51.5961 46.0539 51.5167 46.1609 51.4016 46.2109L48.7311 47.3754C48.6862 47.3949 48.6384 47.4047 48.5907 47.4047H48.5901ZM44.101 43.1803L48.6396 46.6453L50.5692 45.8036L46.0306 42.3374L44.101 43.1803ZM30.8311 41.3036C28.8768 41.3036 27.0968 40.8756 25.9859 40.0264C25.1241 39.3683 24.7277 38.5358 24.8393 37.6171C25.0102 36.2059 26.4162 34.7941 28.6012 33.8414C32.1618 32.2886 36.8091 32.36 38.9555 33.9984C39.8173 34.6571 40.2137 35.4896 40.1021 36.4089C39.9301 37.8202 38.5235 39.2319 36.3373 40.1835C34.62 40.9325 32.6496 41.3036 30.8311 41.3036ZM34.1333 33.4128C32.4115 33.4128 30.5296 33.77 28.882 34.488C26.9294 35.34 25.6798 36.5407 25.5389 37.7022C25.4601 38.3581 25.7621 38.9673 26.4139 39.4655C28.3774 40.9653 32.7003 40.9964 36.056 39.5363C38.0097 38.6854 39.2604 37.4836 39.4008 36.3226C39.4808 35.6668 39.1782 35.0564 38.5269 34.5582C37.5271 33.7953 35.9156 33.4122 34.1339 33.4122L34.1333 33.4128ZM25.3186 29.6313C25.242 29.6313 25.1667 29.6066 25.1045 29.5588L19.9239 25.603C19.8244 25.5277 19.7721 25.4046 19.7882 25.2803C19.8031 25.156 19.8831 25.049 19.9976 24.999L22.6699 23.8345C22.7866 23.7839 22.9236 23.7995 23.0248 23.8777L28.2048 27.8335C28.3038 27.9088 28.3567 28.032 28.3406 28.1562C28.3257 28.2805 28.2463 28.3881 28.1312 28.4375L25.4601 29.602C25.4152 29.6215 25.3675 29.6313 25.3197 29.6313H25.3186ZM20.8289 25.4063L25.368 28.8725L27.2987 28.0308L22.7602 24.5646L20.8289 25.4063Z"
                    fill="#292E28" />
                <path
                    d="M45.0444 49.9445C44.9691 49.9445 44.8949 49.9204 44.8304 49.872L38.3364 44.9152C38.1811 44.7979 38.1517 44.5764 38.2703 44.421C38.3888 44.2646 38.6103 44.2381 38.7644 44.3549L45.2585 49.3117C45.4138 49.4291 45.4431 49.6505 45.3246 49.8059C45.2556 49.8968 45.1503 49.9445 45.0444 49.9445ZM47.2312 48.9918C47.1558 48.9918 47.0816 48.9682 47.0172 48.9193L39.2132 42.9592C39.0578 42.8407 39.0285 42.6192 39.147 42.465C39.2644 42.3085 39.487 42.2815 39.6412 42.3989L47.4452 48.359C47.6005 48.4775 47.6299 48.699 47.5113 48.8532C47.4423 48.9441 47.337 48.9918 47.2312 48.9918ZM24.9278 31.9571C24.8525 31.9571 24.7783 31.933 24.7138 31.8846L16.9087 25.9256C16.7534 25.8083 16.724 25.5868 16.8425 25.4315C16.9599 25.275 17.1825 25.2485 17.3367 25.3653L25.1419 31.3243C25.2972 31.4416 25.3265 31.6631 25.208 31.8185C25.139 31.9094 25.0337 31.9571 24.9278 31.9571ZM21.426 31.9094C21.3506 31.9094 21.2752 31.8852 21.212 31.8369L14.722 26.8783C14.5666 26.7598 14.5373 26.5383 14.6558 26.3842C14.7743 26.2277 14.9987 26.2012 15.15 26.318L21.64 31.2765C21.7953 31.395 21.8247 31.6165 21.7061 31.7707C21.6371 31.8616 21.5318 31.9094 21.426 31.9094Z"
                    fill="#292E28" />
                <path d="M71.6454 40.6219L23.7088 12.9458L3.01693 24.8925V28.2581L50.9534 55.9353L71.6454 43.988V40.6219Z"
                    fill="#CBE8CA" />
                <path
                    d="M50.9535 56.2887C50.8931 56.2887 50.8316 56.2731 50.7769 56.2421L2.8404 28.5643C2.73109 28.501 2.66378 28.3842 2.66378 28.2582V24.8921C2.66378 24.7661 2.73109 24.6493 2.8404 24.5861L23.5323 12.6393C23.6405 12.5766 23.7768 12.5766 23.885 12.6393L71.8215 40.316C71.9308 40.3793 71.9981 40.496 71.9981 40.622V43.9881C71.9981 44.1141 71.9308 44.2309 71.8215 44.2942L51.1296 56.2415C51.0755 56.2726 51.0139 56.2881 50.953 56.2881L50.9535 56.2887ZM3.36968 28.0545L50.953 55.5287L71.2922 43.7845V40.8263L23.7089 13.3527L3.36968 25.0963V28.0545Z"
                    fill="#292E28" />
                <path d="M71.6454 40.6219L23.7088 12.9458L3.01693 24.8925L50.9534 52.5686L71.6454 40.6219Z" fill="white" />
                <path
                    d="M50.9535 52.922C50.8931 52.922 50.8316 52.9065 50.7769 52.8754L2.8404 25.1982C2.73109 25.1349 2.66378 25.0181 2.66378 24.8921C2.66378 24.7661 2.73109 24.6493 2.8404 24.5861L23.5323 12.6393C23.6405 12.5766 23.7768 12.5766 23.885 12.6393L71.8215 40.316C71.9308 40.3793 71.9981 40.496 71.9981 40.622C71.9981 40.748 71.9308 40.8648 71.8215 40.9281L51.1296 52.8748C51.0755 52.9059 51.0139 52.9214 50.953 52.9214L50.9535 52.922ZM3.72291 24.8927L50.9535 52.162L70.9396 40.6226L23.7089 13.3527L3.72291 24.8921V24.8927Z"
                    fill="#292E28" />
                <path d="M50.9533 52.5687V55.9354L71.6452 43.988V40.6219L50.9533 52.5687Z" fill="#292E28" />
                <path
                    d="M50.9534 56.2888C50.893 56.2888 50.8314 56.2733 50.7768 56.2422C50.6675 56.1789 50.6002 56.0621 50.6002 55.9362V52.5695C50.6002 52.4435 50.6675 52.3267 50.7768 52.2634L71.4687 40.3167C71.5768 40.254 71.7132 40.254 71.8214 40.3167C71.9307 40.38 71.998 40.4968 71.998 40.6227V43.9888C71.998 44.1148 71.9307 44.2316 71.8214 44.2949L51.1294 56.2422C51.0754 56.2733 51.0138 56.2888 50.9528 56.2888H50.9534ZM51.3061 52.7731V55.3252L71.2921 43.7846V41.2337L51.3061 52.7731Z"
                    fill="#292E28" />
                <path
                    d="M53.7873 48.128L63.9558 42.2588C62.9127 41.2468 62.9099 39.9875 63.9477 38.9767L26.5582 17.3896C24.8093 17.9902 22.6272 17.9896 20.876 17.3867L10.7092 23.2565C11.7511 24.2673 11.7534 25.5273 10.715 26.5381L48.1039 48.1251C49.8528 47.5245 52.0366 47.5268 53.7873 48.128Z"
                    fill="#CBE8CA" />
                <path
                    d="M53.7872 48.4807C53.7487 48.4807 53.7102 48.4744 53.6722 48.4611C51.9871 47.883 49.8965 47.8824 48.2183 48.4583C48.1188 48.4905 48.0152 48.4813 47.9272 48.4306L10.5377 26.8441C10.4422 26.7883 10.3778 26.6917 10.364 26.5824C10.3502 26.4719 10.3887 26.3626 10.4681 26.2855C10.9071 25.8581 11.1389 25.3788 11.1389 24.899C11.1389 24.4192 10.9048 23.9389 10.4635 23.5108C10.3835 23.4337 10.345 23.3233 10.3588 23.214C10.3726 23.1035 10.437 23.0074 10.5325 22.9511L20.6993 17.0813C20.7867 17.0301 20.8932 17.0197 20.9904 17.0536C22.6732 17.6335 24.7627 17.6347 26.4431 17.0565C26.5403 17.0214 26.645 17.0329 26.7342 17.0841L64.1237 38.6712C64.2192 38.727 64.2836 38.8237 64.2975 38.933C64.3113 39.0434 64.2727 39.1527 64.1939 39.2298C63.7555 39.6573 63.5242 40.1359 63.5242 40.6157C63.5254 41.0961 63.7595 41.5771 64.2014 42.0062C64.2813 42.0833 64.3199 42.1938 64.3061 42.3031C64.2923 42.4136 64.2278 42.5096 64.1323 42.566L53.9639 48.4353C53.9098 48.4663 53.8488 48.4818 53.7872 48.4818V48.4807ZM50.9389 47.3226C51.9054 47.3226 52.8731 47.4624 53.7481 47.7426L63.4011 42.1714C63.0197 41.691 62.8195 41.1588 62.8184 40.6146C62.8184 40.0726 63.0157 39.5434 63.3937 39.0636L26.5185 17.7745C24.7742 18.3325 22.6593 18.3314 20.915 17.7716L11.2637 23.344C11.644 23.8244 11.8437 24.3548 11.8442 24.899C11.8454 25.441 11.6469 25.9714 11.2684 26.4512L48.1429 47.7403C49.0111 47.463 49.9741 47.3232 50.9384 47.3232L50.9389 47.3226Z"
                    fill="#292E28" />
                <path
                    d="M41.7017 35.28C38.6336 37.052 34.1894 37.358 31.7748 35.9635C29.3597 34.5684 29.8901 32.0037 32.9576 30.2323C36.0257 28.4616 40.4705 28.1549 42.8856 29.5495C45.3008 30.9434 44.7703 33.5093 41.7022 35.2795L41.7017 35.28ZM30.7669 24.2981L24.694 20.7916L22.3278 22.158L28.4001 25.6644L30.7669 24.2981ZM58.0546 40.0516L51.9817 36.5457L49.6155 37.9132L55.6878 41.4191L58.0546 40.0516Z"
                    fill="white" />
                <path
                    d="M55.6879 41.7726C55.6275 41.7726 55.566 41.757 55.5113 41.726L49.439 38.2201C49.3297 38.1568 49.2624 38.04 49.2624 37.914C49.2624 37.788 49.3297 37.6712 49.439 37.6091L51.8052 36.2416C51.9134 36.1772 52.0497 36.1783 52.1579 36.2405L58.2308 39.7463C58.3401 39.8096 58.4074 39.9264 58.4074 40.0524C58.4074 40.1784 58.3401 40.2952 58.2308 40.3585L55.8634 41.726C55.8093 41.757 55.7478 41.7726 55.6868 41.7726H55.6879ZM50.3215 37.914L55.6879 41.0126L57.3494 40.0524L51.9818 36.9538L50.3215 37.914ZM35.6605 37.1834C34.1083 37.1834 32.6637 36.8848 31.5989 36.2698C30.5081 35.6393 29.908 34.7332 29.908 33.7177C29.908 32.3635 30.9557 30.981 32.7817 29.9265C35.9435 28.1022 40.5546 27.7973 43.0623 29.2436C44.1531 29.873 44.7532 30.7791 44.7532 31.7945C44.7532 33.1499 43.7055 34.5312 41.8789 35.5858C40.0616 36.6351 37.7632 37.1828 35.6605 37.1828V37.1834ZM38.9978 29.0244C37.0274 29.0244 34.8574 29.5445 33.1343 30.5386C31.5557 31.4499 30.6139 32.6385 30.6139 33.7183C30.6139 34.4817 31.0759 35.1526 31.9521 35.6582C34.266 36.9952 38.5606 36.6886 41.5263 34.9748C43.1049 34.0641 44.0478 32.8749 44.0478 31.7951C44.0478 31.0317 43.5859 30.3609 42.7097 29.8563C41.7403 29.296 40.4205 29.025 38.9984 29.025L38.9978 29.0244ZM28.4002 26.0179C28.3398 26.0179 28.2782 26.0024 28.2236 25.9713L22.1512 22.4648C22.0419 22.4015 21.9746 22.2848 21.9746 22.1588C21.9746 22.0328 22.0419 21.916 22.1512 21.8527L24.5175 20.4864C24.6256 20.4237 24.762 20.4237 24.8701 20.4864L30.943 23.9928C31.0523 24.0561 31.1196 24.1729 31.1196 24.2989C31.1196 24.4249 31.0523 24.5417 30.943 24.605L28.5762 25.9713C28.5221 26.0024 28.4606 26.0179 28.3996 26.0179H28.4002ZM23.0337 22.1588L28.4002 25.2585L30.0616 24.2989L24.6941 21.1992L23.0337 22.1588Z"
                    fill="#292E28" />
                <path
                    d="M52.7832 44.5727C52.7228 44.5727 52.6618 44.5571 52.6066 44.5261L44.9942 40.1308C44.825 40.0335 44.7669 39.8172 44.8647 39.6481C44.9631 39.4778 45.1805 39.4237 45.3474 39.5186L52.9598 43.9139C53.1289 44.0112 53.187 44.2275 53.0892 44.3966C53.0231 44.5094 52.9046 44.5732 52.7832 44.5732V44.5727ZM54.7219 43.4525C54.6615 43.4525 54.6006 43.437 54.5453 43.4059L45.3951 38.1229C45.226 38.0257 45.1685 37.8094 45.2657 37.6403C45.3641 37.47 45.5815 37.417 45.7484 37.5108L54.8986 42.7938C55.0677 42.8911 55.1252 43.1074 55.028 43.2765C54.9618 43.3893 54.8433 43.4531 54.7219 43.4531V43.4525ZM25.0893 28.5839C25.0289 28.5839 24.9679 28.5683 24.9126 28.5373L17.3025 24.1419C17.1334 24.0436 17.0759 23.8284 17.1731 23.6593C17.272 23.489 17.4901 23.4349 17.6558 23.5298L25.2659 27.9251C25.435 28.0235 25.4931 28.2387 25.3953 28.4078C25.3292 28.5206 25.2106 28.5844 25.0893 28.5844V28.5839ZM28.5681 28.3532C28.5077 28.3532 28.4467 28.3376 28.3915 28.3066L19.2413 23.023C19.0722 22.9246 19.0141 22.7094 19.1119 22.5403C19.2102 22.37 19.4277 22.3159 19.5945 22.4109L28.7447 27.6944C28.9139 27.7928 28.972 28.008 28.8742 28.1771C28.808 28.2899 28.6895 28.3537 28.5681 28.3537V28.3532Z"
                    fill="#292E28" />
            </svg>