            <svg width="88" height="55"  viewBox="0 0 88 55" fill="none"
                xmlns="http://www.w3.org/2000/svg">
                <path
                    d="M86.7499 35.2491L26.4664 0.444458L0.444813 15.4683V19.7007L60.7284 54.5068L86.7499 39.4822V35.2491Z"
                    fill="#CBE8CA" />
                <path
                    d="M60.7278 54.9513C60.6518 54.9513 60.5744 54.9318 60.5057 54.8927L0.222109 20.0859C0.084647 20.0063 0 19.8594 0 19.701V15.4679C0 15.3095 0.084647 15.1626 0.222109 15.083L26.2436 0.0591448C26.3797 -0.0197149 26.5511 -0.0197149 26.6871 0.0591448L86.9707 34.8645C87.1082 34.9441 87.1928 35.091 87.1928 35.2494V39.4825C87.1928 39.6409 87.1082 39.7878 86.9707 39.8674L60.9492 54.892C60.8812 54.931 60.8037 54.9506 60.7271 54.9506L60.7278 54.9513ZM0.887714 19.4449L60.7271 53.9956L86.3051 39.2264V35.5062L26.4658 0.956264L0.887714 15.7247V19.4449Z"
                    fill="#292E28" />
                <path d="M86.7499 35.2491L26.4664 0.444458L0.444813 15.4683L60.7284 50.273L86.7499 35.2491Z" fill="white" />
                <path
                    d="M60.7278 50.7175C60.6518 50.7175 60.5744 50.6979 60.5057 50.6589L0.222109 15.8528C0.084647 15.7732 0 15.6263 0 15.4679C0 15.3095 0.084647 15.1626 0.222109 15.083L26.2436 0.0591448C26.3797 -0.0197149 26.5511 -0.0197149 26.6871 0.0591448L86.9707 34.8645C87.1082 34.9441 87.1928 35.0909 87.1928 35.2494C87.1928 35.4078 87.1082 35.5547 86.9707 35.6343L60.9492 50.6581C60.8812 50.6972 60.8037 50.7167 60.7271 50.7167L60.7278 50.7175ZM1.33193 15.4686L60.7278 49.7617L85.8616 35.2501L26.4658 0.956264L1.33193 15.4679V15.4686Z"
                    fill="#292E28" />
                <path d="M60.7265 50.2706V54.5045L86.7481 39.4799V35.2468L60.7265 50.2706Z" fill="#292E28" />
                <path
                    d="M60.7259 54.9502C60.65 54.9502 60.5726 54.9306 60.5038 54.8916C60.3664 54.812 60.2817 54.6651 60.2817 54.5067V50.2728C60.2817 50.1144 60.3664 49.9675 60.5038 49.8879L86.5254 34.8641C86.6614 34.7852 86.8329 34.7852 86.9689 34.8641C87.1063 34.9437 87.191 35.0905 87.191 35.249V39.4821C87.191 39.6405 87.1063 39.7874 86.9689 39.867L60.9473 54.8916C60.8793 54.9306 60.8019 54.9502 60.7252 54.9502H60.7259ZM61.1694 50.5289V53.7383L86.3033 39.2252V36.0173L61.1694 50.5289Z"
                    fill="#292E28" />
                <path
                    d="M64.2937 44.6888L77.0813 37.3078C75.7696 36.0352 75.766 34.4515 77.0712 33.1803L30.0512 6.03304C27.8519 6.78835 25.1077 6.78763 22.9054 6.02942L10.12 13.4111C11.4302 14.6823 11.4331 16.2667 10.1272 17.5379L57.1464 44.6852C59.3458 43.9298 62.0922 43.9327 64.2937 44.6888Z"
                    fill="#CBE8CA" />
                <path
                    d="M64.2928 45.1322C64.2443 45.1322 64.1958 45.1243 64.1481 45.1076C62.029 44.3805 59.3998 44.3798 57.2894 45.104C57.1643 45.1445 57.034 45.1329 56.9234 45.0693L9.90342 17.9227C9.78332 17.8525 9.70229 17.731 9.68493 17.5935C9.66757 17.4546 9.71604 17.3172 9.81588 17.2202C10.3679 16.6827 10.6595 16.08 10.6595 15.4766C10.6595 14.8732 10.365 14.2691 9.81009 13.7309C9.70953 13.6339 9.66106 13.495 9.67842 13.3575C9.69578 13.2186 9.77681 13.0978 9.89691 13.0269L22.6823 5.6452C22.7923 5.58081 22.9261 5.56779 23.0484 5.61047C25.1646 6.33975 27.7923 6.34119 29.9056 5.61409C30.0278 5.56996 30.1595 5.58443 30.2717 5.64882L77.2916 32.7961C77.4117 32.8663 77.4927 32.9878 77.5101 33.1253C77.5275 33.2642 77.479 33.4017 77.3799 33.4986C76.8286 34.0361 76.5377 34.6381 76.5377 35.2415C76.5392 35.8456 76.8336 36.4504 77.3893 36.9901C77.4898 37.0871 77.5383 37.226 77.5209 37.3635C77.5036 37.5024 77.4226 37.6232 77.3024 37.6941L64.5149 45.0751C64.4469 45.1141 64.3702 45.1337 64.2928 45.1337V45.1322ZM60.7108 43.6758C61.9262 43.6758 63.1432 43.8517 64.2436 44.204L76.3829 37.1978C75.9032 36.5937 75.6515 35.9244 75.65 35.24C75.65 34.5585 75.8982 33.8929 76.3735 33.2895L30.0004 6.517C27.8068 7.21878 25.1472 7.21733 22.9536 6.51338L10.8165 13.521C11.2947 14.1252 11.5457 14.7922 11.5465 15.4766C11.5479 16.1581 11.2983 16.8252 10.8222 17.4286L57.1947 44.2011C58.2864 43.8524 59.4975 43.6766 60.7101 43.6766L60.7108 43.6758Z"
                    fill="#292E28" />
                <path
                    d="M49.0954 28.5303C45.2371 30.7587 39.6482 31.1436 36.6117 29.3898C33.5745 27.6354 34.2416 24.4101 38.0992 22.1825C41.9575 19.9556 47.5472 19.57 50.5843 21.3237C53.6215 23.0767 52.9545 26.3035 49.0961 28.5296L49.0954 28.5303ZM35.3442 14.7198L27.7071 10.3101L24.7314 12.0284L32.3677 16.438L35.3442 14.7198ZM69.6604 34.5309L62.0233 30.122L59.0477 31.8417L66.684 36.2506L69.6604 34.5309Z"
                    fill="white" />
                <path
                    d="M66.6837 36.6961C66.6077 36.6961 66.5303 36.6765 66.4616 36.6375L58.8252 32.2286C58.6877 32.149 58.6031 32.0021 58.6031 31.8437C58.6031 31.6852 58.6877 31.5384 58.8252 31.4602L61.8009 29.7405C61.9369 29.6595 62.1084 29.6609 62.2444 29.7391L69.8815 34.148C70.0189 34.2276 70.1036 34.3744 70.1036 34.5329C70.1036 34.6913 70.0189 34.8382 69.8815 34.9178L66.9043 36.6375C66.8363 36.6765 66.7589 36.6961 66.6822 36.6961H66.6837ZM59.935 31.8437L66.6837 35.7404L68.7731 34.5329L62.023 30.6362L59.935 31.8437ZM41.4978 30.9249C39.5458 30.9249 37.7291 30.5494 36.39 29.776C35.0182 28.983 34.2636 27.8435 34.2636 26.5666C34.2636 24.8635 35.5811 23.125 37.8774 21.7988C41.8537 19.5047 47.6524 19.1212 50.8061 20.9401C52.1778 21.7315 52.9324 22.871 52.9324 24.148C52.9324 25.8525 51.615 27.5896 49.3179 28.9157C47.0324 30.2354 44.1421 30.9241 41.4978 30.9241V30.9249ZM45.6947 20.6644C43.2168 20.6644 40.4878 21.3184 38.3209 22.5686C36.3357 23.7146 35.1514 25.2093 35.1514 26.5673C35.1514 27.5274 35.7323 28.371 36.8342 29.0069C39.744 30.6883 45.1448 30.3027 48.8744 28.1474C50.8596 27.0021 52.0454 25.5067 52.0454 24.1487C52.0454 23.1886 51.4645 22.3451 50.3626 21.7106C49.1435 21.0059 47.4839 20.6651 45.6954 20.6651L45.6947 20.6644ZM32.3674 16.8835C32.2914 16.8835 32.214 16.8639 32.1453 16.8249L24.5089 12.4152C24.3715 12.3357 24.2868 12.1888 24.2868 12.0304C24.2868 11.8719 24.3715 11.725 24.5089 11.6455L27.4846 9.92719C27.6206 9.84833 27.7921 9.84833 27.9281 9.92719L35.5652 14.3368C35.7027 14.4164 35.7873 14.5633 35.7873 14.7217C35.7873 14.8802 35.7027 15.027 35.5652 15.1066L32.5888 16.8249C32.5208 16.8639 32.4434 16.8835 32.3667 16.8835H32.3674ZM25.6187 12.0304L32.3674 15.9285L34.4568 14.7217L27.7067 10.8236L25.6187 12.0304Z"
                    fill="#292E28" />
                <path
                    d="M63.031 40.2168C62.955 40.2168 62.8783 40.1973 62.8089 40.1582L53.2357 34.6308C53.023 34.5085 52.9499 34.2365 53.0729 34.0238C53.1967 33.8096 53.4701 33.7416 53.6799 33.861L63.2531 39.3884C63.4658 39.5107 63.5389 39.7827 63.4159 39.9954C63.3327 40.1372 63.1836 40.2175 63.031 40.2175V40.2168ZM65.4691 38.8082C65.3931 38.8082 65.3165 38.7887 65.247 38.7496L53.74 32.1058C53.5273 31.9836 53.4549 31.7115 53.5772 31.4988C53.7009 31.2847 53.9744 31.2181 54.1842 31.3361L65.6912 37.9798C65.9039 38.1021 65.9763 38.3741 65.854 38.5868C65.7708 38.7286 65.6218 38.8089 65.4691 38.8089V38.8082ZM28.2039 20.1098C28.1279 20.1098 28.0513 20.0902 27.9818 20.0512L18.4116 14.5237C18.1989 14.4 18.1265 14.1294 18.2488 13.9167C18.3732 13.7026 18.6474 13.6346 18.8558 13.754L28.426 19.2814C28.6387 19.4051 28.7118 19.6757 28.5888 19.8884C28.5056 20.0302 28.3566 20.1105 28.2039 20.1105V20.1098ZM32.5788 19.8196C32.5029 19.8196 32.4262 19.8001 32.3567 19.761L20.8497 13.1166C20.637 12.9928 20.5639 12.7223 20.6869 12.5096C20.8106 12.2954 21.0841 12.2274 21.2939 12.3468L32.8009 18.9912C33.0136 19.115 33.0867 19.3855 32.9637 19.5983C32.8805 19.7401 32.7315 19.8204 32.5788 19.8204V19.8196Z"
                    fill="#292E28" />
            </svg>