            <svg width="61" height="71"  viewBox="0 0 61 71" fill="none"
                xmlns="http://www.w3.org/2000/svg">
                <path
                    d="M42.6913 68.1075C38.2751 70.645 32.173 70.2713 25.4396 66.3824C11.9573 58.5978 1.02271 39.6789 1.02441 24.1251C1.02441 16.3507 3.76319 10.8851 8.18617 8.3426L18.0492 2.64664C18.0492 2.64664 18.0543 2.64664 18.0577 2.64152L18.0662 2.6364C22.4841 0.104105 28.5811 0.477803 35.3179 4.36157C48.8036 12.1462 59.7331 31.065 59.7331 46.6189C59.7331 54.3983 56.9943 59.8588 52.5713 62.4013L42.6913 68.1075Z"
                    fill="#D0EACF" />
                <path
                    d="M36.3548 70.7563C32.826 70.7563 28.9388 69.5875 24.9271 67.2702C11.1803 59.3337 -0.00341202 39.978 7.80873e-07 24.1256C7.80873e-07 16.2215 2.72683 10.3003 7.67709 7.45233L17.5367 1.75807C17.5589 1.74613 17.5759 1.73589 17.5981 1.72395C22.5944 -1.07796 29.0395 -0.443179 35.831 3.47301C49.576 11.4078 60.7581 30.7618 60.7581 46.6176C60.7581 54.5234 58.0312 60.4446 53.081 63.2909L43.2043 68.9953C43.2043 68.9953 43.2043 68.9953 43.2009 68.9953C41.1567 70.1711 38.8445 70.7546 36.3531 70.7546L36.3548 70.7563ZM18.5622 3.53444L8.69923 9.2304C4.41104 11.6961 2.04939 16.986 2.04939 24.1256C2.04597 39.3262 12.7707 57.8833 25.9509 65.4938C32.1332 69.0653 37.8957 69.6762 42.1805 67.219L52.0571 61.5145C56.3453 59.0487 58.707 53.7589 58.707 46.6193C58.707 31.4153 47.984 12.8582 34.8054 5.25107C28.6317 1.69323 22.8794 1.07552 18.5998 3.51396C18.5895 3.52249 18.5759 3.52932 18.5622 3.53614V3.53444Z"
                    fill="#2E2E2E" />
                <path
                    d="M52.5719 62.4012L42.6919 68.1074C38.2757 70.6448 32.1736 70.2711 25.4402 66.3822C22.8175 64.8652 20.2971 62.9251 17.9286 60.6709L58.5341 37.2267C59.3037 40.4159 59.7371 43.5796 59.7337 46.6187C59.7337 54.3982 56.9949 59.8587 52.5719 62.4012Z"
                    fill="#2E2E2E" />
                <path
                    d="M36.3523 70.7559C32.8251 70.7559 28.9363 69.5853 24.9262 67.2697C22.3001 65.751 19.708 63.7801 17.2184 61.4133C16.9863 61.1898 16.8686 60.8707 16.9078 60.5499C16.9454 60.2291 17.1331 59.9441 17.4129 59.7837L58.0184 36.3395C58.2966 36.1791 58.6361 36.1552 58.9348 36.2849C59.2334 36.4129 59.4535 36.6739 59.5286 36.9879C60.346 40.3768 60.7606 43.619 60.7572 46.6223C60.7572 54.5263 58.0321 60.4458 53.0818 63.2921L43.2035 68.9983C41.1575 70.1757 38.8436 70.7593 36.3506 70.7593L36.3523 70.7559ZM19.6483 60.8622C21.7045 62.7034 23.8205 64.2596 25.9535 65.4933C32.1409 69.0648 37.8983 69.6757 42.183 67.2185L52.0597 61.514C52.0597 61.514 52.0597 61.514 52.0631 61.514C56.3479 59.05 58.7095 53.7601 58.7095 46.6205C58.7129 44.1753 58.4211 41.5559 57.841 38.8138L19.65 60.8656L19.6483 60.8622Z"
                    fill="#2E2E2E" />
                <path
                    d="M49.8565 52.322C49.853 67.8759 38.9218 74.1691 25.4396 66.3845C11.9573 58.5999 1.02271 39.681 1.02441 24.1272C1.02783 8.57847 11.9556 2.28527 25.4396 10.0699C38.9253 17.8545 49.8565 36.7733 49.8565 52.322Z"
                    fill="white" />
                <path
                    d="M36.3548 70.7583C32.8277 70.7583 28.9388 69.5895 24.9271 67.2722C11.1803 59.3357 -0.00341202 39.98 7.80873e-07 24.1276C0.00341358 16.232 2.72 10.3142 7.6532 7.46627C12.5984 4.61658 19.0946 5.22065 25.9526 9.1812C39.6994 17.116 50.8831 36.4682 50.8831 52.3207C50.8797 60.2196 48.1631 66.1374 43.2265 68.9871C41.1754 70.1713 38.8564 70.7583 36.3548 70.7583ZM14.5283 7.74783C12.3799 7.74783 10.409 8.24268 8.67704 9.24263C4.40593 11.7101 2.04939 16.9948 2.04939 24.1258C2.04597 39.3265 12.7707 57.8836 25.9509 65.4941C32.1486 69.0741 37.9162 69.6799 42.1993 67.2073C46.4738 64.7399 48.8303 59.4534 48.8303 52.319C48.8303 37.1201 38.1073 18.563 24.9254 10.9559C21.2327 8.82456 17.6937 7.74612 14.5283 7.74612V7.74783Z"
                    fill="#2E2E2E" />
                <path
                    d="M46.4246 36.9654C46.0714 36.9654 45.7267 36.7811 45.5356 36.4518C45.2523 35.9604 45.4213 35.3341 45.9127 35.0509L55.7911 29.3498C56.2876 29.0665 56.9071 29.2354 57.1937 29.7252C57.477 30.2166 57.3081 30.8429 56.8166 31.1261L46.9383 36.8272C46.7745 36.9211 46.5987 36.9654 46.4246 36.9654ZM43.3531 30.4623C42.9999 30.4623 42.6552 30.2781 42.4641 29.9487C42.1808 29.459 42.3498 28.831 42.8412 28.5478L52.7196 22.8416C53.2008 22.56 53.8338 22.7238 54.1222 23.217C54.4055 23.7067 54.2365 24.3347 53.7451 24.6179L43.8667 30.3241C43.7063 30.418 43.5306 30.4623 43.3531 30.4623ZM39.5308 24.3876C39.1776 24.3876 38.8329 24.2033 38.6418 23.8739C38.3585 23.3825 38.5274 22.7562 39.0189 22.473L48.8972 16.7719C49.3921 16.4921 50.0115 16.6576 50.2999 17.1473C50.5831 17.6388 50.4142 18.265 49.9228 18.5483L40.0444 24.2493C39.8806 24.3432 39.7048 24.3876 39.5308 24.3876ZM34.9218 18.7718C34.5686 18.7718 34.2239 18.5875 34.0328 18.2582C33.7495 17.7684 33.9184 17.1405 34.4099 16.8572L44.2882 11.151C44.7694 10.8712 45.4025 11.0316 45.6909 11.5264C45.9742 12.0162 45.8052 12.6441 45.3138 12.9274L35.4354 18.6336C35.275 18.7274 35.0993 18.7718 34.9218 18.7718ZM29.3487 13.7123C28.9955 13.7123 28.6508 13.528 28.4614 13.1987C28.1747 12.709 28.3436 12.081 28.8351 11.7977L38.7117 6.09154C39.1895 5.80999 39.826 5.9738 40.111 6.46695C40.3976 6.95669 40.2287 7.58464 39.7373 7.86791L29.8606 13.5741C29.7002 13.668 29.5245 13.7123 29.347 13.7123H29.3487ZM22.2825 9.50775C21.9293 9.50775 21.5846 9.32347 21.3935 8.99413C21.1102 8.50269 21.2791 7.87643 21.7706 7.59317L31.6489 1.8921C32.1438 1.61054 32.7649 1.77776 33.0516 2.2675C33.3348 2.75894 33.1659 3.38519 32.6745 3.66845L22.7961 9.36954C22.634 9.46339 22.4566 9.50775 22.2825 9.50775Z"
                    fill="#2E2E2E" />
                <path
                    d="M27.8286 46.2889C27.8321 45.1832 27.5556 44.1355 27.001 43.1423C26.4499 42.1543 25.4704 40.9411 24.0575 39.5043C21.404 36.9396 19.4366 34.6052 18.1585 32.4995C16.8736 30.3887 16.2371 28.097 16.232 25.6074C16.232 23.3259 16.8736 21.8192 18.1551 21.1025C19.4349 20.3858 21.1703 20.5308 23.3664 21.541L23.3715 17.1965L26.1717 18.8108V23.2184C28.2911 24.7832 29.9412 26.6909 31.1442 28.9468C32.3438 31.2061 32.924 33.5797 32.8915 36.0693L32.854 36.1444L27.8286 33.2486C27.8286 31.7692 27.5369 30.4655 26.9584 29.3376C26.3782 28.2096 25.5643 27.3445 24.5199 26.7404C23.4142 26.1039 22.6156 25.9708 22.1207 26.3497C21.6259 26.7285 21.3836 27.4827 21.3785 28.5987C21.3819 29.6515 21.6395 30.6293 22.1668 31.5593C22.6907 32.4842 23.6889 33.7333 25.1701 35.3049C27.7809 37.7894 29.7296 40.1135 31.0196 42.2721C32.3148 44.4358 32.9598 46.7497 32.9598 49.212C32.9598 51.6743 32.3216 53.0855 31.0469 53.7647C29.7722 54.4489 28.03 54.2834 25.8219 53.263V57.2645L23.02 55.6503L23.0234 51.6487C20.7693 50.1147 18.9144 48.1813 17.464 45.847C16.0135 43.5126 15.3088 40.9001 15.3566 38.03L15.4078 37.9395L20.416 40.8302C20.4126 42.5673 20.7795 44.0143 21.5167 45.1798C22.2521 46.3384 23.2026 47.2582 24.3783 47.9373C25.5318 48.6045 26.3953 48.782 26.9703 48.4561C27.542 48.1353 27.8304 47.4152 27.8338 46.2924L27.8286 46.2889Z"
                    fill="#2E2E2E" />
            </svg>