            <svg width="112" height="78" viewBox="0 0 112 78" fill="none"
                xmlns="http://www.w3.org/2000/svg">
                <path
                    d="M47.5266 6.35203L47.5266 6.352C48.7161 5.6591 50.187 5.65817 51.3784 6.34861C51.3784 6.34862 51.3784 6.34863 51.3784 6.34863L110.34 40.5324C111.153 41.0037 111.448 41.9198 111.228 42.7245L111.209 42.7927L111.228 42.8608C111.45 43.6606 111.159 44.5741 110.351 45.0479L106.135 47.5212L105.756 47.7438L106.136 47.9642L107.091 48.5168C107.903 48.9873 108.197 49.903 107.975 50.7062L107.956 50.7748L107.975 50.8434C108.197 51.6433 107.907 52.5567 107.099 53.0304L107.228 53.2516L107.098 53.0305L66.0165 77.1245C64.6122 77.9478 62.8728 77.9504 61.4659 77.1305L1.89345 42.4105L1.89331 42.4104C1.3066 42.069 1.1319 41.3763 1.36695 40.8107L1.40782 40.7123L1.36695 40.6139C1.13187 40.0482 1.30667 39.3547 1.89331 39.0133L1.89336 39.0133L7.07597 35.9956L7.45623 35.7741L7.07608 35.5525L5.14537 34.4271L5.1452 34.427C4.55851 34.0856 4.38385 33.3929 4.6189 32.8272L4.65978 32.7289L4.6189 32.6305C4.38381 32.0647 4.55858 31.3712 5.1452 31.0298L5.14526 31.0298L47.5266 6.35203Z"
                    fill="#EAF6EA" stroke="#1A1A1A" stroke-width="0.512713" />
                <path
                    d="M48.1273 10.9402L48.1274 10.9403L107.09 45.1241C108.368 45.8655 108.372 47.7085 107.099 48.4565C107.099 48.4565 107.098 48.4565 107.098 48.4566L66.0165 72.5505C64.6122 73.3738 62.8729 73.3764 61.466 72.5565L1.89354 37.8366C1.89353 37.8365 1.89351 37.8365 1.89349 37.8365C1.04489 37.3417 1.0456 36.1156 1.89429 35.6215L1.7653 35.3999L1.8943 35.6215L44.2756 10.9437C44.2756 10.9437 44.2756 10.9437 44.2756 10.9437C45.4662 10.2507 46.9361 10.249 48.1273 10.9402Z"
                    fill="#CBE8CA" stroke="#1A1A1A" stroke-width="0.512713" />
                <path
                    d="M107.228 48.6776L66.1462 72.7716C64.6621 73.6418 62.8238 73.6445 61.3369 72.778L1.76441 38.058C0.746005 37.4642 0.746899 35.9928 1.7653 35.3999L44.1466 10.7221C45.4167 9.98282 46.985 9.98099 48.256 10.7185L107.218 44.9023C108.667 45.7423 108.671 47.8303 107.228 48.6776Z"
                    stroke="#1A1A1A" stroke-width="0.512713" stroke-miterlimit="10" stroke-linejoin="round" />
                <path
                    d="M48.1264 9.75687L48.1265 9.75692L107.089 43.9407C108.367 44.6822 108.371 46.5261 107.098 47.2731L66.0156 71.3671C64.6114 72.1905 62.872 72.1931 61.4652 71.3732L1.89267 36.6532C1.89266 36.6532 1.89264 36.6532 1.89263 36.6532C1.04402 36.1583 1.04474 34.9322 1.89342 34.4381L1.76443 34.2166L1.89343 34.4381L44.2747 9.76034C44.2748 9.76034 44.2748 9.76034 44.2748 9.76033C45.4653 9.06731 46.9353 9.06566 48.1264 9.75687Z"
                    fill="#CBE8CA" stroke="#1A1A1A" stroke-width="0.512713" />
                <path
                    d="M107.227 47.4943L66.1453 71.5883C64.6612 72.4584 62.823 72.4612 61.3361 71.5947L1.76354 36.8747C0.745135 36.2808 0.746029 34.8095 1.76443 34.2166L44.1458 9.53879C45.4158 8.79947 46.9842 8.79764 48.2551 9.53514L107.217 43.7189C108.666 44.5589 108.67 46.6479 107.227 47.4943Z"
                    stroke="#1A1A1A" stroke-width="0.512713" stroke-miterlimit="10" stroke-linejoin="round" />
                <path d="M74.8311 55.4552L28.1144 28.2529" stroke="#1A1A1A" stroke-width="0.512713" stroke-miterlimit="10"
                    stroke-linecap="round" stroke-linejoin="round" />
                <path d="M71.2829 57.8204L24.5671 30.6181" stroke="#1A1A1A" stroke-width="0.512713" stroke-miterlimit="10"
                    stroke-linecap="round" stroke-linejoin="round" />
                <path d="M66.5512 60.1856L19.8346 32.9833" stroke="#1A1A1A" stroke-width="0.512713" stroke-miterlimit="10"
                    stroke-linecap="round" stroke-linejoin="round" />
                <path
                    d="M84.414 50.4415L84.4138 50.4414L74.7267 44.5909C74.4885 44.447 74.4909 44.1006 74.7309 43.9601L74.7311 43.96L84.5783 38.1899L84.5785 38.1899C85.0254 37.9276 85.5796 37.9275 86.0277 38.1892C86.0277 38.1892 86.0278 38.1892 86.0278 38.1892L95.6266 43.8034C95.6268 43.8035 95.6269 43.8036 95.627 43.8036C96.0332 44.0426 96.0289 44.6311 95.6197 44.8637L85.7652 50.4599C85.7652 50.4599 85.7652 50.4599 85.7651 50.4599C85.3443 50.6987 84.8277 50.6917 84.414 50.4415Z"
                    fill="white" stroke="#1A1A1A" stroke-width="0.512713" />
                <path
                    d="M95.7464 45.0866L85.8917 50.6828C85.3903 50.9674 84.7745 50.9591 84.2813 50.6608L74.5941 44.8103C74.1897 44.566 74.1934 43.9776 74.6015 43.7388L84.4487 37.9688C84.9758 37.6595 85.6291 37.6595 86.1571 37.9678L95.7564 43.5824C96.3329 43.9209 96.3274 44.7563 95.7464 45.0866Z"
                    stroke="#1A1A1A" stroke-width="0.512713" stroke-miterlimit="10" stroke-linejoin="round" />
                <path d="M94.3207 45.9689L82.7898 39.1676" stroke="#1A1A1A" stroke-width="0.512713" stroke-miterlimit="10"
                    stroke-linejoin="round" />
                <path d="M88.3313 49.2207L76.8004 42.4203" stroke="#1A1A1A" stroke-width="0.512713" stroke-miterlimit="10"
                    stroke-linejoin="round" />
                <path d="M94.2954 42.5931L82.6656 49.5911" stroke="#1A1A1A" stroke-width="0.512713" stroke-miterlimit="10"
                    stroke-linejoin="round" />
                <path d="M89.4405 43.0577L83.6942 46.5155" stroke="#1A1A1A" stroke-width="0.512713" stroke-miterlimit="10"
                    stroke-linejoin="round" />
                <path d="M86.8148 41.3579L81.0686 44.8157" stroke="#1A1A1A" stroke-width="0.512713" stroke-miterlimit="10"
                    stroke-linejoin="round" />
                <path d="M87.1007 38.6016C87.0019 38.7498 75.6677 45.5007 75.6677 45.5007" stroke="#1A1A1A"
                    stroke-width="0.512713" stroke-miterlimit="10" stroke-linejoin="round" />
                <path
                    d="M110.347 40.473L110.347 40.4731L69.2652 64.5671C67.8609 65.3904 66.1215 65.393 64.7146 64.5731L5.14311 29.8532C4.29425 29.3582 4.29447 28.1321 5.14377 27.6381L5.14386 27.6381L47.5252 2.9603C47.5252 2.96029 47.5252 2.96029 47.5252 2.96028C48.7157 2.26726 50.1857 2.26561 51.3769 2.95682L51.377 2.95687L110.339 37.1406C110.339 37.1406 110.339 37.1406 110.339 37.1406C111.617 37.8822 111.622 39.7261 110.347 40.473Z"
                    fill="white" stroke="#1A1A1A" stroke-width="0.512713" />
                <path
                    d="M110.477 40.6942L69.3949 64.7882C67.9107 65.6584 66.0725 65.6611 64.5856 64.7946L5.01397 30.0746C3.99557 29.4808 3.99555 28.0094 5.01487 27.4165L47.3962 2.73875C48.6662 1.99942 50.2346 1.99759 51.5055 2.73509L110.468 36.9189C111.915 37.7588 111.921 39.8478 110.477 40.6942Z"
                    stroke="#1A1A1A" stroke-width="0.512713" stroke-miterlimit="10" stroke-linejoin="round" />
                <path
                    d="M110.348 39.2899L110.348 39.29L69.2661 63.384C67.8618 64.2073 66.1224 64.2099 64.7155 63.39L5.14398 28.6701C4.29512 28.1751 4.29534 26.949 5.14464 26.455L5.14473 26.4549L47.5261 1.77719C47.5261 1.77719 47.5261 1.77718 47.5261 1.77718C48.7166 1.08415 50.1866 1.08251 51.3777 1.77371L51.3778 1.77376L110.34 35.9574C111.618 36.6999 111.622 38.543 110.348 39.2899Z"
                    fill="white" stroke="#1A1A1A" stroke-width="0.512713" />
                <path
                    d="M110.478 39.5111L69.3958 63.6051C67.9116 64.4753 66.0733 64.478 64.5864 63.6115L5.01484 28.8915C3.99644 28.2977 3.99642 26.8263 5.01574 26.2334L47.3971 1.55564C48.6671 0.816313 50.2355 0.814485 51.5064 1.55198L110.469 35.7358C111.916 36.5766 111.922 38.6647 110.478 39.5111Z"
                    stroke="#1A1A1A" stroke-width="0.512713" stroke-miterlimit="10" stroke-linejoin="round" />
                <path d="M78.0822 47.4723L31.3665 20.2709" stroke="#1A1A1A" stroke-width="0.512713" stroke-miterlimit="10"
                    stroke-linecap="round" stroke-linejoin="round" />
                <path d="M74.5338 49.8375L27.8171 22.6362" stroke="#1A1A1A" stroke-width="0.512713" stroke-miterlimit="10"
                    stroke-linecap="round" stroke-linejoin="round" />
                <path d="M69.8024 52.2027L23.0867 25.0013" stroke="#1A1A1A" stroke-width="0.512713" stroke-miterlimit="10"
                    stroke-linecap="round" stroke-linejoin="round" />
                <path
                    d="M87.6637 42.4576L87.6639 42.4577C88.0776 42.7079 88.5942 42.7149 89.0151 42.476L98.8695 36.8799C98.8696 36.8799 98.8696 36.8799 98.8696 36.8799C99.279 36.647 99.2827 36.0585 98.8769 35.8207L87.6637 42.4576ZM87.6637 42.4576L77.9765 36.607C77.9765 36.607 77.9765 36.607 77.9765 36.607C77.7383 36.4631 77.7407 36.1167 77.9808 35.9762L77.9809 35.9762L87.8282 30.2061L87.8284 30.206C88.2752 29.9438 88.8295 29.9437 89.2777 30.2054L98.8768 35.8206L87.6637 42.4576Z"
                    fill="white" stroke="#1A1A1A" stroke-width="0.512713" />
                <path
                    d="M98.9962 37.1028L89.1416 42.699C88.6402 42.9836 88.0244 42.9753 87.5312 42.677L77.844 36.8265C77.4395 36.5822 77.4432 35.9938 77.8513 35.755L87.6986 29.9849C88.2257 29.6757 88.879 29.6757 89.4069 29.984L99.0063 35.5994C99.5828 35.9371 99.5772 36.7725 98.9962 37.1028Z"
                    stroke="#1A1A1A" stroke-width="0.512713" stroke-miterlimit="10" stroke-linejoin="round" />
                <path d="M97.5706 37.9854L86.0397 31.1851" stroke="#1A1A1A" stroke-width="0.512713" stroke-miterlimit="10"
                    stroke-linejoin="round" />
                <path d="M91.584 41.2371L80.053 34.4367" stroke="#1A1A1A" stroke-width="0.512713" stroke-miterlimit="10"
                    stroke-linejoin="round" />
                <path d="M97.5459 34.6106L85.9162 41.6077" stroke="#1A1A1A" stroke-width="0.512713" stroke-miterlimit="10"
                    stroke-linejoin="round" />
                <path d="M92.691 35.0742L86.9448 38.532" stroke="#1A1A1A" stroke-width="0.512713" stroke-miterlimit="10"
                    stroke-linejoin="round" />
                <path d="M90.0666 33.3743L84.3212 36.8321" stroke="#1A1A1A" stroke-width="0.512713" stroke-miterlimit="10"
                    stroke-linejoin="round" />
                <path d="M90.3519 30.618C90.2531 30.7662 78.9189 37.5172 78.9189 37.5172" stroke="#1A1A1A"
                    stroke-width="0.512713" stroke-miterlimit="10" stroke-linejoin="round" />
            </svg>