<svg width="76" height="73" viewBox="0 0 76 73" fill="none"
                xmlns="http://www.w3.org/2000/svg">
                <path
                    d="M74.5216 5.50577L74.5167 5.53637L74.5167 5.56736L74.5677 64.2391L74.5677 64.2504L74.5684 64.2618C74.5715 64.3153 74.5769 64.3705 74.5814 64.4164C74.5826 64.4289 74.5837 64.4407 74.5847 64.4515C74.59 64.5076 74.5931 64.5517 74.5931 64.5925C74.5931 66.6793 73.3709 68.6102 71.3101 70.0359C69.2509 71.4605 66.385 72.3541 63.2008 72.3541C60.0166 72.3541 57.1506 71.4605 55.0914 70.0359C53.0307 68.6102 51.8084 66.6793 51.8084 64.5925V4.66283C51.8084 2.57603 53.0307 0.645146 55.0914 -0.780519C57.1506 -2.20511 60.0166 -3.09869 63.2008 -3.09869C66.385 -3.09869 69.2509 -2.20511 71.3101 -0.780519C73.3709 0.645146 74.5931 2.57603 74.5931 4.66283C74.5931 4.94374 74.5665 5.22397 74.5216 5.50577Z"
                    fill="#EAF6EA" stroke="#1A1A1A" stroke-width="0.77881" />
                <path
                    d="M48.4691 49.4598L48.4691 49.471L48.4698 49.4822C48.4729 49.5358 48.4783 49.5909 48.4828 49.6369C48.484 49.6493 48.4851 49.6611 48.4861 49.672C48.4914 49.7281 48.4945 49.7722 48.4945 49.813C48.4945 51.8998 47.2723 53.8307 45.2115 55.2563C43.1523 56.6809 40.2864 57.5745 37.1022 57.5745C33.918 57.5745 31.0521 56.6809 28.9929 55.2563C26.9321 53.8307 25.7099 51.8998 25.7099 49.813V15.0392C25.7099 12.9524 26.9321 11.0215 28.9929 9.59588C31.0521 8.17129 33.918 7.27771 37.1022 7.27771C40.2864 7.27771 43.1523 8.17129 45.2115 9.59589C47.2723 11.0216 48.4945 12.9524 48.4945 15.0392C48.4945 15.3199 48.4687 15.5993 48.4239 15.8794L48.419 15.9102L48.419 15.9414L48.4691 49.4598Z"
                    fill="#EAF6EA" stroke="#1A1A1A" stroke-width="0.77881" />
                <path
                    d="M24.1507 34.7442L24.1507 34.7336L24.1032 23.8446L24.1031 23.8135L24.1079 23.7828C24.1511 23.506 24.177 23.2298 24.177 22.9528L24.1507 34.7442ZM24.1507 34.7442L24.1513 34.7549M24.1507 34.7442L24.1513 34.7549M24.1513 34.7549C24.1545 34.8084 24.1599 34.8636 24.1643 34.9095C24.1655 34.922 24.1667 34.9338 24.1677 34.9447C24.173 35.0008 24.1761 35.0448 24.1761 35.0857C24.1761 37.1725 22.9539 39.1033 20.8931 40.529C18.8339 41.9536 15.968 42.8472 12.7838 42.8472C9.59953 42.8472 6.73362 41.9536 4.6744 40.529C2.61365 39.1033 1.39139 37.1725 1.39139 35.0857V22.9527C1.39139 20.8659 2.61365 18.9351 4.6744 17.5094M24.1513 34.7549L4.6744 17.5094M4.6744 17.5094C6.73362 16.0848 9.59953 15.1912 12.7838 15.1912M4.6744 17.5094L12.7838 15.1912M12.7838 15.1912C15.968 15.1912 18.8339 16.0848 20.8932 17.5094M12.7838 15.1912L20.8932 17.5094M20.8932 17.5094C22.954 18.9351 24.1765 20.8659 24.177 22.9527L20.8932 17.5094Z"
                    fill="#EAF6EA" stroke="#1A1A1A" stroke-width="0.77881" />
                <path
                    d="M52.8261 1.54095H53.0163L53.1333 1.39096C55.0311 -1.04353 58.8012 -2.74652 63.2015 -2.74652C67.6009 -2.74652 71.372 -1.04269 73.2699 1.39101L73.3868 1.54095H73.577H74.517L74.5675 60.7278L74.5676 60.7392L74.5682 60.7505C74.5715 60.8056 74.5772 60.8622 74.5819 60.9087C74.5831 60.9204 74.5842 60.9315 74.5852 60.9418C74.5907 60.998 74.5939 61.0413 74.5939 61.0813C74.5939 63.168 73.3716 65.0989 71.3109 66.5246C69.2517 67.9492 66.3858 68.8428 63.2015 68.8428C60.0173 68.8428 57.1514 67.9492 55.0922 66.5246C53.0314 65.0989 51.8092 63.168 51.8092 61.0813V1.54095H52.8261Z"
                    fill="white" stroke="#1A1A1A" stroke-width="0.77881" />
                <path
                    d="M52.8261 1.15154C54.8163 -1.40127 58.7148 -3.13593 63.2015 -3.13593C67.6874 -3.13593 71.5869 -1.4004 73.577 1.15154H74.906L74.9569 60.7275C74.964 60.846 74.9833 60.9619 74.9833 61.0812C74.9833 65.5829 69.7082 69.2322 63.2015 69.2322C56.6948 69.2322 51.4198 65.5829 51.4198 61.0812V1.15154H52.8261Z"
                    stroke="#1A1A1A" stroke-width="0.77881" stroke-miterlimit="10" stroke-linejoin="round" />
                <path
                    d="M74.5937 1.15111C74.5937 3.2379 73.3715 5.16878 71.3107 6.59445C69.2516 8.01904 66.3856 8.91263 63.2013 8.91263C60.017 8.91263 57.1511 8.01904 55.0919 6.59445C53.0312 5.16878 51.809 3.2379 51.809 1.15111C51.809 -0.935677 53.0312 -2.86656 55.0919 -4.29223C57.1511 -5.71682 60.017 -6.61041 63.2013 -6.61041C66.3856 -6.61041 69.2516 -5.71682 71.3107 -4.29223C73.3715 -2.86656 74.5937 -0.935677 74.5937 1.15111Z"
                    fill="white" stroke="#1A1A1A" stroke-width="0.77881" />
                <path
                    d="M63.2013 9.30204C69.7082 9.30204 74.9831 5.65274 74.9831 1.15111C74.9831 -3.35052 69.7082 -6.99982 63.2013 -6.99982C56.6944 -6.99982 51.4196 -3.35052 51.4196 1.15111C51.4196 5.65274 56.6944 9.30204 63.2013 9.30204Z"
                    stroke="#1A1A1A" stroke-width="0.77881" stroke-miterlimit="10" stroke-linejoin="round" />
                <path
                    d="M26.7288 11.9183H26.919L27.0359 11.7683C28.9337 9.33378 32.7038 7.6308 37.1042 7.6308C41.5044 7.6308 45.2746 9.33463 47.1725 11.7683L47.2895 11.9183H47.4796H48.4198L48.4711 45.9494L48.4711 45.9607L48.4718 45.9719C48.4749 46.0254 48.4803 46.0806 48.4848 46.1265C48.486 46.139 48.4871 46.1507 48.4881 46.1616C48.4934 46.2177 48.4965 46.2618 48.4965 46.3026C48.4965 48.3894 47.2743 50.3203 45.2135 51.746C43.1543 53.1706 40.2884 54.0641 37.1042 54.0641C33.9199 54.0641 31.054 53.1706 28.9948 51.746C26.9341 50.3203 25.7119 48.3894 25.7119 46.3026V11.9183H26.7288Z"
                    fill="white" stroke="#1A1A1A" stroke-width="0.77881" />
                <path
                    d="M26.7288 11.5289C28.7189 8.97605 32.6174 7.24139 37.1042 7.24139C41.5909 7.24139 45.4895 8.97692 47.4796 11.5289H48.8087L48.8605 45.9488C48.8675 46.0673 48.8859 46.1832 48.8859 46.3026C48.8859 50.8043 43.6109 54.4536 37.1042 54.4536C30.5975 54.4536 25.3224 50.8043 25.3224 46.3026V11.5289H26.7288Z"
                    stroke="#1A1A1A" stroke-width="0.77881" stroke-miterlimit="10" stroke-linejoin="round" />
                <path
                    d="M48.4969 11.529C48.4969 13.6158 47.2747 15.5467 45.2139 16.9724C43.1548 18.397 40.2888 19.2906 37.1045 19.2906C33.9202 19.2906 31.0543 18.397 28.9951 16.9724C26.9344 15.5467 25.7122 13.6158 25.7122 11.529C25.7122 9.44225 26.9344 7.51137 28.9951 6.0857C31.0543 4.66111 33.9202 3.76752 37.1045 3.76752C40.2888 3.76752 43.1548 4.66111 45.2139 6.0857C47.2747 7.51137 48.4969 9.44225 48.4969 11.529Z"
                    fill="white" stroke="#1A1A1A" stroke-width="0.77881" />
                <path
                    d="M37.1045 19.68C43.6114 19.68 48.8863 16.0307 48.8863 11.529C48.8863 7.02741 43.6114 3.37811 37.1045 3.37811C30.5976 3.37811 25.3228 7.02741 25.3228 11.529C25.3228 16.0307 30.5976 19.68 37.1045 19.68Z"
                    stroke="#1A1A1A" stroke-width="0.77881" stroke-miterlimit="10" stroke-linejoin="round" />
                <path
                    d="M2.40662 19.8315H2.5968L2.71373 19.6815C4.6116 17.247 8.38168 15.544 12.782 15.544C17.1814 15.544 20.9525 17.2478 22.8504 19.6815L22.9673 19.8315H23.1575H24.0988L24.1489 31.2229L24.149 31.2336L24.1496 31.2442C24.1528 31.2977 24.1581 31.3529 24.1626 31.3989C24.1638 31.4113 24.165 31.4231 24.166 31.434C24.1712 31.4901 24.1744 31.5341 24.1744 31.575C24.1744 33.6618 22.9521 35.5927 20.8914 37.0183C18.8321 38.4429 15.9662 39.3365 12.782 39.3365C9.59779 39.3365 6.73188 38.4429 4.67266 37.0183C2.61191 35.5927 1.38965 33.6618 1.38965 31.575V19.8315H2.40662Z"
                    fill="white" stroke="#1A1A1A" stroke-width="0.77881" />
                <path
                    d="M2.40662 19.4421C4.39673 16.8893 8.29527 15.1546 12.782 15.1546C17.2679 15.1546 21.1674 16.8901 23.1575 19.4421H24.4865L24.5383 31.2212C24.5454 31.3397 24.5638 31.4556 24.5638 31.575C24.5638 36.0766 19.2887 39.7259 12.782 39.7259C6.27532 39.7259 1.00024 36.0766 1.00024 31.575V19.4421H2.40662Z"
                    stroke="#1A1A1A" stroke-width="0.77881" stroke-miterlimit="10" stroke-linejoin="round" />
                <path
                    d="M24.1741 19.4418C24.1741 21.5286 22.9519 23.4595 20.8912 24.8852C18.832 26.3098 15.9661 27.2033 12.7818 27.2033C9.59745 27.2033 6.73154 26.3098 4.67235 24.8852C2.61162 23.4595 1.3894 21.5286 1.3894 19.4418C1.3894 17.355 2.61162 15.4241 4.67235 13.9985C6.73154 12.5739 9.59745 11.6803 12.7818 11.6803C15.9661 11.6803 18.832 12.5739 20.8912 13.9985C22.9519 15.4241 24.1741 17.355 24.1741 19.4418Z"
                    fill="white" stroke="#1A1A1A" stroke-width="0.77881" />
                <path
                    d="M12.7818 27.5927C19.2887 27.5927 24.5635 23.9435 24.5635 19.4418C24.5635 14.9402 19.2887 11.2909 12.7818 11.2909C6.27489 11.2909 1 14.9402 1 19.4418C1 23.9435 6.27489 27.5927 12.7818 27.5927Z"
                    stroke="#1A1A1A" stroke-width="0.77881" stroke-miterlimit="10" stroke-linejoin="round" />
            </svg>