                <svg width="142" height="212"
                    viewBox="0 0 142 212" fill="none" xmlns="http://www.w3.org/2000/svg">
                    <path
                        d="M89.7849 123.796L100.125 117.697C107.91 113.101 114.463 106.693 119.195 99.0482L131.873 78.6023C133.26 76.3687 132.551 73.4517 130.292 72.0905L94.0915 50.3417C91.8327 48.9805 88.8738 49.691 87.4862 51.9245L74.8086 72.3705C70.0767 80.0151 63.5379 86.4078 55.7385 91.0197L45.3986 97.1183C36.485 102.389 29.0013 109.689 23.5979 118.442L12.5998 136.175C11.2122 138.409 11.9219 141.326 14.1807 142.687L50.3809 164.436C52.6397 165.797 55.5986 165.087 56.9862 162.853L67.9843 145.12C73.4029 136.381 80.8861 129.052 89.7849 123.796Z"
                        fill="white" />
                    <path
                        d="M31.344 106.758C35.3395 102.666 39.884 99.0964 44.8297 96.1697L55.1668 90.0705C62.7561 85.5809 69.2188 79.2634 73.8468 71.8134L86.5181 51.3675C87.3504 50.0333 88.6544 49.0893 90.1933 48.718C91.7322 48.3466 93.3265 48.581 94.6757 49.3977L130.875 71.1424C132.224 71.9591 133.177 73.2426 133.548 74.7599C133.919 76.2772 133.676 77.8512 132.844 79.1854L120.172 99.6313C115.355 107.396 108.641 113.97 100.725 118.644L90.388 124.743C81.6848 129.892 74.2627 137.131 68.9637 145.69L57.9711 163.423C56.2634 166.196 52.6025 167.054 49.8135 165.393L13.614 143.648C10.8397 141.972 9.95263 138.363 11.6456 135.605L22.6382 117.872C25.105 113.871 28.0415 110.14 31.3293 106.773L31.344 106.758ZM68.1222 82.6754C64.6132 86.269 60.6462 89.398 56.2944 91.9575L45.9572 98.0567C37.2393 103.22 29.832 110.445 24.533 119.004L13.5404 136.737C12.4748 138.46 13.0233 140.7 14.7513 141.731L50.9507 163.475C52.6787 164.506 54.935 163.973 56.0158 162.263L67.0084 144.531C72.4824 135.672 80.1698 128.161 89.1852 122.843L99.5223 116.744C107.126 112.239 113.574 105.937 118.202 98.4866L130.874 78.0407C131.385 77.2163 131.548 76.236 131.322 75.2931C131.095 74.3503 130.496 73.5481 129.663 73.0467L93.4632 51.3021C92.6295 50.8007 91.6366 50.643 90.6803 50.8694C89.724 51.0959 88.9238 51.6745 88.3981 52.514L75.7268 72.9599C73.5666 76.4672 70.9971 79.731 68.1074 82.6905L68.1222 82.6754Z"
                        fill="#0D0D0D" />
                    <path
                        d="M53.8699 147.293C54.0974 147.422 54.2652 147.582 54.463 147.741L59.068 140.337C64.6558 131.359 72.4162 123.897 81.6682 118.616L91.6502 112.922C99.725 108.299 106.523 101.789 111.407 93.9198L118.358 82.7385C115.536 81.0413 114.653 77.3973 116.384 74.6095L98.9826 64.124C97.2669 66.8967 93.613 67.7636 90.8074 66.1402L83.8703 77.2768C78.9721 85.1607 72.1444 91.7015 64.0242 96.3099L54.1014 101.944C44.8193 107.226 37.0141 114.703 31.412 123.726L26.8805 131.025C29.7023 132.722 30.5852 136.366 28.8547 139.154L45.6037 149.251C47.3342 146.464 51.0329 145.581 53.8547 147.278L53.8699 147.293Z"
                        fill="#CBE8CA" />
                    <path
                        d="M39.2054 112.061C43.4355 107.746 48.2757 104.012 53.563 100.996L63.4827 95.3605C71.4064 90.8585 78.1273 84.3932 82.9206 76.704L90.425 64.6236L91.3805 65.1838C93.6553 66.5051 96.6343 65.7835 98.0269 63.5501L98.6129 62.5911L117.925 74.2221L117.323 75.1666C115.901 77.4301 116.624 80.3949 118.93 81.7749L119.886 82.3648L112.337 94.4904C107.368 102.479 100.41 109.156 92.1889 113.871L82.2101 119.567C73.1549 124.742 65.4865 132.113 60.0193 140.911L54.7426 149.395L53.5865 148.497C53.495 148.41 53.3882 148.308 53.2671 148.251C50.9761 146.856 47.9823 147.593 46.5601 149.857L45.9741 150.816L27.2994 139.558L27.9007 138.614C29.3075 136.336 28.6001 133.385 26.2944 132.005L25.3384 131.415L30.4538 123.187C32.9454 119.17 35.8776 115.456 39.1758 112.092L39.2054 112.061ZM77.1855 87.5813C73.4731 91.3686 69.2416 94.6321 64.6097 97.2807L54.6901 102.916C45.6048 108.091 37.8916 115.479 32.3948 124.307L28.4081 130.722C30.7379 132.679 31.5253 135.939 30.3519 138.731L45.3401 147.76C47.4653 145.291 51.1803 144.541 54.1507 146.146L58.1375 139.731C63.795 130.618 71.7449 122.99 81.1279 117.631L91.1067 111.935C99.0004 107.434 105.692 100.999 110.47 93.3246L116.89 83.0126C114.561 81.0552 113.773 77.7953 114.947 75.0029L99.3208 65.571C97.3426 67.8299 94.0793 68.6309 91.2822 67.5415L84.8917 77.8234C82.7079 81.3455 80.1441 84.5931 77.2452 87.5506L77.1855 87.5813Z"
                        fill="#0D0D0D" />
                    <path d="M114.939 88.8724L116.048 86.9856L88.6826 69.9228L87.5737 71.8096L114.939 88.8724Z"
                        fill="#0D0D0D" />
                    <path d="M111.867 93.7486L112.976 91.8618L85.6104 74.799L84.5016 76.6858L111.867 93.7486Z"
                        fill="#0D0D0D" />
                    <path d="M93.5392 112.515L94.648 110.628L67.2825 93.5657L66.1737 95.4525L93.5392 112.515Z"
                        fill="#0D0D0D" />
                    <path d="M56.7486 143.472L57.8574 141.585L30.4919 124.523L29.3831 126.409L56.7486 143.472Z"
                        fill="#0D0D0D" />
                    <path d="M62.2261 134.835L63.335 132.948L35.9695 115.885L34.8607 117.772L62.2261 134.835Z"
                        fill="#0D0D0D" />
                    <path
                        d="M87.513 101.11L83.2488 98.5426C79.5141 96.304 74.8304 96.2919 71.0774 98.5229L57.0518 106.877C54.4469 108.431 54.4417 112.16 57.0427 113.729L61.3367 116.295C65.0866 118.548 69.7849 118.545 73.5227 116.3L87.5032 107.932C90.1081 106.378 90.1133 102.649 87.4978 101.095L87.513 101.11Z"
                        fill="white" />
                    <path
                        d="M55.4133 106.793C55.7337 106.46 56.0853 106.185 56.4972 105.939L70.5177 97.5863C74.6223 95.1404 79.7225 95.1435 83.8349 97.596L88.0991 100.163C89.6563 101.09 90.5886 102.727 90.5703 104.533C90.5666 106.323 89.6499 107.972 88.0903 108.895L74.1149 117.262C69.9957 119.723 64.8955 119.72 60.7679 117.253L56.4739 114.686C54.9167 113.759 53.9844 112.123 54.0027 110.317C54.002 108.985 54.5254 107.745 55.4139 106.822L55.4133 106.793ZM87.5585 106.51C88.0683 105.98 88.3654 105.278 88.363 104.523C88.3545 103.502 87.8413 102.582 86.9494 102.054L82.6852 99.4867C79.2832 97.4473 75.0627 97.4391 71.6647 99.4842L57.6443 107.837C56.7615 108.36 56.2459 109.29 56.2246 110.311C56.233 111.332 56.7462 112.253 57.6382 112.78L61.9321 115.347C65.3342 117.387 69.5547 117.395 72.9526 115.35L86.9281 106.983C87.1486 106.845 87.3539 106.692 87.5432 106.495L87.5585 106.51Z"
                        fill="#0D0D0D" />
                    <path
                        d="M122.385 79.8066C120.95 78.9347 120.486 77.0782 121.342 75.6665C122.212 74.2397 124.073 73.7836 125.493 74.641C126.913 75.4984 127.392 77.3694 126.536 78.7811C125.68 80.1927 123.804 80.664 122.385 79.8066Z"
                        fill="#CBE8CA" />
                    <path
                        d="M120.939 74.3567C121.474 73.7967 122.148 73.3965 122.931 73.2162C123.995 72.9555 125.114 73.1233 126.065 73.68C127.001 74.2518 127.678 75.1553 127.943 76.2161C128.209 77.2768 128.044 78.3916 127.489 79.3373C126.918 80.2685 126.014 80.9404 124.95 81.2011C123.887 81.4617 122.767 81.294 121.817 80.7373C119.854 79.566 119.224 77.0318 120.393 75.0799C120.55 74.8246 120.736 74.5686 120.939 74.3567ZM125.327 78.526C125.429 78.42 125.515 78.3292 125.586 78.1943C126.128 77.2934 125.83 76.1148 124.924 75.572C124.486 75.3002 123.964 75.2377 123.477 75.3522C122.975 75.4819 122.566 75.7873 122.295 76.2229C121.753 77.1238 122.051 78.3024 122.957 78.8453C123.727 79.3171 124.719 79.1617 125.327 78.526Z"
                        fill="#0D0D0D" />
                    <path
                        d="M92.682 61.172C91.2472 60.3001 90.7832 58.4436 91.6388 57.0319C92.509 55.6051 94.3705 55.149 95.79 56.0064C97.2096 56.8638 97.6889 58.7348 96.8332 60.1464C95.9775 61.5581 94.1015 62.0294 92.682 61.172Z"
                        fill="#CBE8CA" />
                    <path
                        d="M91.2354 55.7203C91.7709 55.1602 92.4444 54.7601 93.2276 54.5797C94.2911 54.3191 95.4103 54.4868 96.3611 55.0435C97.2974 55.6153 97.9747 56.5188 98.2399 57.5796C98.505 58.6404 98.3405 59.7552 97.7851 60.7009C97.2145 61.6321 96.3102 62.304 95.2466 62.5646C94.1831 62.8253 93.0639 62.6575 92.1131 62.1009C91.1768 61.529 90.4995 60.6255 90.2343 59.5647C89.9692 58.504 90.1337 57.3892 90.6891 56.4435C90.8461 56.1882 91.0327 55.9322 91.2354 55.7203ZM95.6237 59.8896C95.725 59.7836 95.8119 59.6928 95.8827 59.5579C96.4244 58.657 96.1265 57.4784 95.2206 56.9355C94.7826 56.6638 94.2607 56.6013 93.7731 56.7158C93.271 56.8455 92.8627 57.1508 92.5915 57.5865C92.0498 58.4874 92.3477 59.666 93.2536 60.2089C93.6916 60.4806 94.2135 60.5431 94.7011 60.4286C95.0554 60.3318 95.3776 60.1469 95.6237 59.8896Z"
                        fill="#0D0D0D" />
                    <path
                        d="M48.9038 157.641C47.469 156.769 47.005 154.912 47.8606 153.501C48.7163 152.089 50.5923 151.618 52.0118 152.475C53.4466 153.347 53.9107 155.203 53.055 156.615C52.1993 158.027 50.3233 158.498 48.9038 157.641Z"
                        fill="#CBE8CA" />
                    <path
                        d="M47.4556 152.191C47.9912 151.631 48.6646 151.23 49.4478 151.05C50.5114 150.789 51.6305 150.957 52.5813 151.514C53.5177 152.086 54.195 152.989 54.4601 154.05C54.7253 155.111 54.5607 156.226 54.0053 157.171C52.8367 159.123 50.2959 159.742 48.3334 158.571C46.3708 157.4 45.7552 154.851 46.9238 152.899C47.0808 152.643 47.2674 152.387 47.4701 152.175L47.4556 152.191ZM51.8439 156.36C51.9453 156.254 52.0321 156.163 52.103 156.028C52.3742 155.593 52.4351 155.073 52.3186 154.586C52.1867 154.086 51.8789 153.678 51.4409 153.406C51.0028 153.134 50.4954 153.056 49.9933 153.186C49.4913 153.316 49.0829 153.621 48.8117 154.057C48.2701 154.958 48.568 156.136 49.4738 156.679C50.2441 157.151 51.236 156.996 51.8439 156.36Z"
                        fill="#0D0D0D" />
                    <path
                        d="M18.9606 138.854C17.5258 137.982 17.0617 136.126 17.9174 134.714C18.7731 133.302 20.649 132.831 22.0686 133.688C23.4881 134.546 23.9674 136.417 23.1117 137.828C22.2416 139.255 20.3801 139.711 18.9606 138.854Z"
                        fill="#CBE8CA" />
                    <path
                        d="M17.5126 133.404C18.0482 132.844 18.7216 132.443 19.5048 132.263C20.5684 132.002 21.6875 132.17 22.6384 132.727C23.5747 133.299 24.252 134.202 24.5171 135.263C24.7823 136.324 24.6177 137.439 24.0624 138.384C22.8937 140.336 20.3377 140.941 18.3903 139.784C16.4278 138.613 15.7969 136.049 16.9663 134.127C17.1233 133.872 17.3099 133.616 17.5126 133.404ZM21.901 137.573C22.0023 137.467 22.0891 137.376 22.16 137.241C22.4312 136.806 22.4921 136.286 22.3756 135.799C22.2437 135.299 21.936 134.891 21.4979 134.619C21.0598 134.347 20.5524 134.27 20.0503 134.399C19.5628 134.514 19.1399 134.834 18.8687 135.27C18.3271 136.171 18.625 137.349 19.5308 137.892C20.3011 138.364 21.293 138.209 21.901 137.573Z"
                        fill="#0D0D0D" />
                    <path d="M73.5873 116.84L74.6987 114.95L58.6296 104.973L57.5183 106.863L73.5873 116.84Z"
                        fill="#0D0D0D" />
                    <path d="M79.7633 113.335L80.875 111.446L64.8077 101.466L63.6959 103.355L79.7633 113.335Z"
                        fill="#0D0D0D" />
                    <path
                        d="M87.5632 30.4128L89.6968 31.0668C89.594 31.381 79.4295 63.1 58.2726 81.1739L56.8219 79.4973C77.5018 61.8473 87.4605 30.7568 87.5634 30.4425L87.5632 30.4128Z"
                        fill="white" />
                    <path
                        d="M36.9652 88.4966C54.2256 78.0767 66.0312 60.6935 66.1504 60.5131L68.0183 61.7446C67.8991 61.925 55.8254 79.7289 38.1157 90.3928L36.9652 88.4966Z"
                        fill="white" />
                    <path
                        d="M28.6494 88.0569C36.1985 83.5958 41.263 79.559 41.3227 79.5283L42.7151 81.2647C42.7151 81.2647 37.4569 85.4384 29.7734 89.976L28.6345 88.072L28.6494 88.0569Z"
                        fill="white" />
                    <path
                        d="M72.503 146.383L74.5336 147.323C74.0598 148.342 62.4921 172.352 49.9644 181.599L48.6486 179.816C60.7435 170.917 72.3995 146.638 72.5181 146.398L72.503 146.383Z"
                        fill="white" />
                    <path
                        d="M42.7406 189.761C55.5755 186.675 63.4397 172.831 63.5139 172.696L65.4703 173.77C65.144 174.371 57.0873 188.619 43.249 191.943L42.7408 189.791L42.7406 189.761Z"
                        fill="white" />
                </svg>