                <svg  width="194" height="170"
                    viewBox="0 0 194 170" fill="none" xmlns="http://www.w3.org/2000/svg">
                    <path
                        d="M90.186 112.75L99.8221 122.264C107.083 129.426 115.96 134.73 125.657 137.7L151.599 145.666C154.433 146.539 157.406 144.935 158.235 142.088L171.45 96.4857C172.279 93.6391 170.649 90.6214 167.814 89.7483L141.872 81.7824C132.175 78.8128 123.319 73.5197 116.037 66.3467L106.401 56.8326C98.0799 48.6349 87.9619 42.5721 76.8625 39.1881L54.3622 32.2763C51.5275 31.4032 48.5552 33.0076 47.7261 35.8542L34.511 81.4565C33.6819 84.3032 35.3122 87.3209 38.1469 88.194L60.6472 95.1058C71.7353 98.5106 81.8854 104.564 90.186 112.75Z"
                        fill="white" />
                    <path
                        d="M91.8319 44.2853C97.4458 47.4668 102.65 51.3946 107.27 55.9425L116.906 65.4535C123.993 72.4328 132.746 77.6647 142.201 80.5766L168.141 88.5358C169.836 89.061 171.241 90.211 172.091 91.78C172.941 93.3489 173.147 95.151 172.648 96.8525L159.437 142.454C158.938 144.155 157.815 145.557 156.27 146.394C154.724 147.231 152.939 147.415 151.245 146.89L125.304 138.931C115.451 135.902 106.347 130.471 98.964 123.188L89.328 113.677C81.2005 105.674 71.1657 99.6607 60.3081 96.3347L37.8091 89.4287C34.2941 88.361 32.2999 84.6213 33.3023 81.112L46.5135 35.511C47.5366 32.0134 51.2114 30.0185 54.7056 31.0744L77.2046 37.9804C82.2782 39.5237 87.1916 41.6557 91.8111 44.2736L91.8319 44.2853ZM128.711 77.4444C123.781 74.6503 119.224 71.2253 115.176 67.2189L105.54 57.708C97.3921 49.6925 87.378 43.6913 76.5205 40.3653L54.0214 33.4594C51.8352 32.7913 49.5548 34.0269 48.9316 36.2018L35.7205 81.8028C35.0973 83.9776 36.3318 86.281 38.5067 86.9698L61.0057 93.8758C72.2402 97.3067 82.6479 103.531 91.05 111.826L100.686 121.337C107.794 128.328 116.526 133.548 125.981 136.46L151.922 144.419C152.968 144.74 154.083 144.638 155.044 144.123C156.006 143.608 156.707 142.727 157.011 141.677L170.223 96.076C170.527 95.0255 170.412 93.8999 169.888 92.9237C169.365 91.9475 168.503 91.2416 167.436 90.9089L141.496 82.9498C137.05 81.5991 132.751 79.7336 128.691 77.4326L128.711 77.4444Z"
                        fill="#0D0D0D" />
                    <path
                        d="M54.1999 80.3642C54.1249 80.6485 53.9993 80.8767 53.8829 81.1375L63.2801 84.0372C74.6758 87.5574 85.0487 93.8744 93.478 102.437L102.569 111.675C109.94 119.144 118.999 124.685 128.982 127.755L143.172 132.131C144.204 128.577 147.918 126.577 151.455 127.665L157.84 105.738C154.323 104.662 152.322 100.933 153.278 97.4166L139.141 93.0435C129.136 89.9615 120.037 84.3968 112.667 76.8746L103.659 67.6831C95.2208 59.0884 84.8179 52.727 73.3694 49.204L64.1079 46.3543C63.076 49.909 59.3625 51.9091 55.8254 50.821L49.6746 71.9272C53.2117 73.0153 55.2432 76.7887 54.2113 80.3434L54.1999 80.3642Z"
                        fill="#CBE8CA" />
                    <path
                        d="M88.3296 54.3576C94.2541 57.7302 99.7219 61.9326 104.537 66.8263L113.546 76.0141C120.742 83.3532 129.729 88.8232 139.491 91.8466L154.821 96.5679L154.487 97.7675C153.706 100.62 155.354 103.656 158.19 104.534L159.404 104.899L152.324 129.232L151.121 128.847C148.245 127.945 145.224 129.577 144.389 132.479L144.023 133.688L128.631 128.931C118.492 125.802 109.206 120.134 101.691 112.533L92.5997 103.298C84.3429 94.9191 74.0945 88.6764 62.9296 85.236L52.1625 81.9131L52.8053 80.3991C52.8738 80.2746 52.9537 80.1293 52.9808 79.9813C53.8373 77.0903 52.1685 74.0424 49.2916 73.1403L48.0774 72.7761L54.9348 49.2428L56.1376 49.6278C59.026 50.5092 62.0347 48.8979 62.8705 45.9951L63.2363 44.7866L73.6792 48.0067C78.7752 49.5726 83.6687 51.7043 88.2881 54.334L88.3296 54.3576ZM125.984 88.7076C120.785 85.7477 116.006 82.0735 111.78 77.7883L102.772 68.6004C94.5058 60.1894 84.2274 53.9024 73.021 50.4384L64.8802 47.9293C63.4225 51.0229 60.0996 52.8096 56.7186 52.329L51.2218 71.2148C54.5261 72.8233 56.418 76.6522 55.5297 80.3424L63.6706 82.8515C75.2333 86.4094 85.8432 92.8851 94.3951 101.568L103.486 110.803C110.674 118.109 119.619 123.556 129.361 126.567L142.45 130.613C143.908 127.519 147.231 125.733 150.612 126.213L156.363 106.519C153.33 105.01 151.514 101.688 151.891 98.3329L138.842 94.3108C134.374 92.9388 130.095 91.075 126.035 88.7637L125.984 88.7076Z"
                        fill="#0D0D0D" />
                    <path d="M135.425 130.18L137.81 130.848L148.533 96.1319L146.149 95.4634L135.425 130.18Z"
                        fill="#0D0D0D" />
                    <path d="M129.228 128.233L131.612 128.901L142.336 94.1851L139.951 93.5166L129.228 128.233Z"
                        fill="#0D0D0D" />
                    <path d="M103.512 113.652L105.896 114.321L116.62 79.6046L114.236 78.936L103.512 113.652Z"
                        fill="#0D0D0D" />
                    <path d="M59.2073 82.4555L61.5918 83.124L72.3154 48.4078L69.931 47.7393L59.2073 82.4555Z"
                        fill="#0D0D0D" />
                    <path d="M70.1937 85.9428L72.5781 86.6113L83.3018 51.8951L80.9173 51.2265L70.1937 85.9428Z"
                        fill="#0D0D0D" />
                    <path
                        d="M114.246 103.812L115.809 98.436C117.168 93.7307 115.825 88.6276 112.307 85.1779L99.1405 72.2909C96.6927 69.898 92.6264 70.9567 91.6696 74.2364L90.1157 79.6442C88.7458 84.3702 90.1094 89.4849 93.639 92.9138L106.807 105.748C109.255 108.141 113.321 107.082 114.258 103.791L114.246 103.812Z"
                        fill="white" />
                    <path
                        d="M98.7575 70.4823C99.2131 70.7362 99.6139 71.0408 100.001 71.4191L113.165 84.3011C117.02 88.0723 118.493 93.6264 117.011 98.8041L115.447 104.18C114.888 106.14 113.374 107.622 111.4 108.117C109.447 108.625 107.385 108.097 105.927 106.662L92.761 93.8332C88.8859 90.0505 87.4126 84.4964 88.9063 79.298L90.4608 73.89C91.02 71.9299 92.5338 70.4478 94.5075 69.9523C95.9591 69.5715 97.4623 69.7874 98.7255 70.4915L98.7575 70.4823ZM108.373 105.402C109.098 105.806 109.949 105.929 110.771 105.711C111.882 105.411 112.737 104.589 113.053 103.468L114.617 98.0919C115.855 93.8056 114.642 89.2078 111.429 86.0917L98.2648 73.2096C97.439 72.3977 96.2769 72.1016 95.1572 72.3699C94.0468 72.6705 93.1918 73.4921 92.8752 74.6137L91.3207 80.0217C90.0829 84.308 91.296 88.9058 94.509 92.0219L107.675 104.851C107.889 105.052 108.115 105.232 108.384 105.382L108.373 105.402Z"
                        fill="#0D0D0D" />
                    <path
                        d="M147.441 135.69C147.976 133.879 149.865 132.844 151.652 133.373C153.459 133.913 154.496 135.81 153.972 137.6C153.448 139.391 151.547 140.447 149.761 139.918C147.974 139.389 146.917 137.481 147.441 135.69Z"
                        fill="#CBE8CA" />
                    <path
                        d="M152.964 132.559C153.729 132.982 154.361 133.601 154.784 134.403C155.376 135.487 155.518 136.753 155.186 137.948C154.834 139.131 154.045 140.126 152.965 140.718C151.885 141.31 150.622 141.449 149.43 141.114C148.25 140.758 147.255 139.965 146.663 138.881C146.071 137.797 145.93 136.53 146.261 135.336C146.97 132.864 149.551 131.455 152.017 132.17C152.341 132.268 152.674 132.398 152.964 132.559ZM149.689 138.528C149.834 138.608 149.958 138.677 150.126 138.716C151.265 139.048 152.463 138.387 152.793 137.246C152.962 136.691 152.879 136.105 152.613 135.607C152.327 135.097 151.875 134.739 151.322 134.568C150.183 134.236 148.984 134.896 148.655 136.038C148.363 137.012 148.82 138.048 149.689 138.528Z"
                        fill="#0D0D0D" />
                    <path
                        d="M159.212 97.9671C159.747 96.1558 161.636 95.1205 163.423 95.6494C165.231 96.1897 166.267 98.0866 165.743 99.8772C165.22 101.668 163.319 102.724 161.532 102.195C159.745 101.666 158.688 99.7577 159.212 97.9671Z"
                        fill="#CBE8CA" />
                    <path
                        d="M164.736 94.835C165.502 95.2584 166.133 95.8776 166.557 96.6791C167.149 97.763 167.29 99.0297 166.959 100.224C166.606 101.407 165.817 102.403 164.738 102.994C163.658 103.586 162.395 103.725 161.203 103.39C160.022 103.034 159.028 102.241 158.436 101.157C157.844 100.074 157.702 98.8069 158.034 97.6124C158.386 96.4295 159.175 95.4339 160.255 94.8423C161.335 94.2507 162.598 94.1117 163.79 94.4466C164.113 94.5446 164.447 94.6748 164.736 94.835ZM161.461 100.804C161.606 100.885 161.73 100.953 161.898 100.992C163.037 101.325 164.236 100.664 164.565 99.5222C164.735 98.9675 164.652 98.3813 164.386 97.883C164.099 97.3732 163.648 97.0157 163.094 96.8447C161.955 96.512 160.756 97.1729 160.427 98.3144C160.258 98.869 160.341 99.4552 160.607 99.9536C160.815 100.312 161.11 100.61 161.461 100.804Z"
                        fill="#0D0D0D" />
                    <path
                        d="M41.5109 77.9788C42.046 76.1675 43.9354 75.1322 45.7222 75.6611C47.5089 76.19 48.566 78.0983 48.0423 79.8889C47.5073 81.7002 45.6178 82.7355 43.8311 82.2066C42.0443 81.6777 40.9873 79.7694 41.5109 77.9788Z"
                        fill="#CBE8CA" />
                    <path
                        d="M47.0329 74.8456C47.7986 75.269 48.4299 75.8882 48.8533 76.6897C49.4455 77.7736 49.5867 79.0403 49.2551 80.2347C48.9029 81.4177 48.114 82.4133 47.0342 83.0049C45.9544 83.5964 44.6914 83.7355 43.4995 83.4006C41.033 82.6851 39.6219 80.0948 40.3305 77.6231C41.0391 75.1513 43.6403 73.7531 46.1068 74.4686C46.4307 74.5666 46.7638 74.6969 47.0536 74.8571L47.0329 74.8456ZM43.7581 80.8151C43.9029 80.8952 44.0271 80.9639 44.1947 81.0025C44.7482 81.1735 45.3327 81.0915 45.8291 80.8257C46.337 80.5392 46.6926 80.0875 46.8621 79.5328C47.0315 78.9781 46.9692 78.4034 46.6824 77.8936C46.3957 77.3839 45.9445 77.0263 45.3909 76.8553C44.2518 76.5226 43.0531 77.1835 42.7236 78.325C42.4323 79.2985 42.8889 80.3345 43.7581 80.8151Z"
                        fill="#0D0D0D" />
                    <path
                        d="M53.3792 39.9519C53.9143 38.1406 55.8038 37.1053 57.5905 37.6342C59.3773 38.1631 60.4343 40.0714 59.9106 41.862C59.387 43.6526 57.4861 44.7085 55.6994 44.1797C53.8919 43.6394 52.8556 41.7425 53.3792 39.9519Z"
                        fill="#CBE8CA" />
                    <path
                        d="M58.9024 36.8188C59.6681 37.2422 60.2994 37.8614 60.7229 38.6629C61.3151 39.7467 61.4563 41.0135 61.1247 42.2079C60.7724 43.3909 59.9835 44.3864 58.9038 44.978C57.824 45.5696 56.5609 45.7087 55.3691 45.3738C52.9025 44.6583 51.5028 42.0472 52.2001 39.5962C52.9087 37.1245 55.5213 35.7055 57.9557 36.4303C58.2796 36.5284 58.6127 36.6586 58.9024 36.8188ZM55.6277 42.7883C55.7725 42.8684 55.8967 42.937 56.0643 42.9757C56.6178 43.1467 57.2023 43.0646 57.6987 42.7988C58.2065 42.5123 58.5622 42.0606 58.7316 41.506C58.9011 40.9513 58.8387 40.3765 58.552 39.8668C58.2859 39.3685 57.814 38.9995 57.2605 38.8285C56.1214 38.4957 54.9227 39.1566 54.5932 40.2982C54.3018 41.2717 54.7585 42.3076 55.6277 42.7883Z"
                        fill="#0D0D0D" />
                    <path d="M93.067 93.1537L95.4551 93.8242L101.704 73.4534L99.3156 72.7829L93.067 93.1537Z"
                        fill="#0D0D0D" />
                    <path d="M98.6599 98.8764L101.048 99.5473L107.3 79.1777L104.912 78.5068L98.6599 98.8764Z"
                        fill="#0D0D0D" />
                    <path
                        d="M191.273 83.586L191.178 86.0938C190.806 86.0715 153.327 84.056 127.526 66.1904L128.932 64.134C154.134 81.6015 190.869 83.5724 191.241 83.5947L191.273 83.586Z"
                        fill="white" />
                    <path
                        d="M113.42 45.1098C129.753 60.9131 152.088 68.7991 152.318 68.8773L151.518 71.2599C151.288 71.1816 128.418 63.1239 111.689 46.9015L113.42 45.1098Z"
                        fill="white" />
                    <path
                        d="M111.511 35.9219C118.554 42.8645 124.416 47.2243 124.466 47.2806L122.978 49.291C122.978 49.291 116.911 44.7593 109.746 37.6923L111.49 35.91L111.511 35.9219Z"
                        fill="white" />
                    <path
                        d="M60.5683 100.484L60.1328 102.961C58.8857 102.736 29.3988 96.9961 15.7063 86.0034L17.2676 84.0635C30.4553 94.6846 60.2611 100.444 60.5566 100.504L60.5683 100.484Z"
                        fill="white" />
                    <path
                        d="M4.7266 80.4995C11.7996 93.5829 29.1474 98.1918 29.3159 98.234L28.712 100.669C27.964 100.485 10.1197 95.782 2.49769 81.6746L4.69422 80.5081L4.7266 80.4995Z"
                        fill="white" />
                </svg>