                <svg width="240"
                    height="211" viewBox="0 0 240 211" fill="none" xmlns="http://www.w3.org/2000/svg">
                    <path
                        d="M103.093 44.6498L82.5834 47.6159C67.1192 49.8496 52.4095 55.8113 39.7716 64.9889L5.85105 89.5236C2.15132 92.1928 1.2931 97.3832 3.98445 101.074L46.7166 160.275C49.3714 163.966 54.5572 164.805 58.2571 162.1L92.1776 137.565C104.852 128.387 119.562 122.426 134.989 120.192L155.499 117.226C173.193 114.663 189.989 107.86 204.495 97.3659L233.909 76.0854C237.609 73.4162 238.467 68.2257 235.776 64.5348L193.044 5.33372C190.389 1.64278 185.203 0.80349 181.503 3.50924L152.088 24.7897C137.583 35.2836 120.787 42.0865 103.093 44.6498Z"
                        fill="white" />
                    <path
                        d="M53.3821 165.648C52.834 165.649 52.286 165.612 51.7383 165.503C49.0358 165.065 46.7021 163.64 45.102 161.411L2.36983 102.21C0.769566 100.017 0.157648 97.3123 0.568864 94.6074C1.01662 91.9025 2.4497 89.5629 4.68418 87.954L38.6047 63.4193C51.4624 54.0954 66.5746 47.9874 82.2948 45.717L102.804 42.7509C120.096 40.2608 136.745 33.4945 150.922 23.2565L180.337 1.97597C182.571 0.367129 185.277 -0.291508 187.943 0.146393C190.646 0.584285 192.979 2.04571 194.58 4.23834L237.312 63.4396C240.585 68.0075 239.576 74.4042 234.997 77.695L205.583 98.9755C190.893 109.616 173.659 116.602 155.745 119.165L135.236 122.131C120.137 124.328 105.647 130.18 93.2656 139.138L59.345 163.673C57.5867 164.953 55.5016 165.611 53.3457 165.612L53.3821 165.648ZM103.339 46.5886L82.8297 49.5547C67.7309 51.7518 53.2409 57.6038 40.8595 66.5621L6.9389 91.0968C5.54698 92.0841 4.66501 93.5464 4.36692 95.2278C4.10538 96.9092 4.50155 98.5904 5.48351 99.9425L48.2157 159.144C49.1975 160.532 50.6561 161.409 52.336 161.701C54.016 161.957 55.6982 161.554 57.0536 160.567L90.9742 136.032C103.832 126.708 118.944 120.6 134.664 118.33L155.174 115.364C172.466 112.874 189.115 106.107 203.291 95.8693L232.706 74.5888C235.563 72.5412 236.198 68.557 234.162 65.7065L191.429 6.50533C190.448 5.11665 188.989 4.23983 187.309 3.94787C185.629 3.69246 183.947 4.09496 182.592 5.08219L153.177 26.3627C138.487 37.0029 121.253 43.9888 103.339 46.5521L103.339 46.5886Z"
                        fill="#0D0D0D" />
                    <path
                        d="M175.743 30.6724C175.489 30.307 175.307 29.9415 175.09 29.5395L162.819 38.424C147.947 49.2097 130.604 56.0852 112.435 58.4653L92.8051 61.0284C76.9034 63.1156 61.7556 69.1499 48.752 78.5463L30.2173 91.9644C33.5632 96.5689 32.4814 103.038 27.8661 106.366L48.3771 134.796C52.9559 131.469 59.3104 132.455 62.693 136.986L81.1545 123.604C94.2314 114.135 109.416 108.101 125.391 106.05L144.875 103.523C163.152 101.18 180.532 94.2677 195.477 83.4455L207.565 74.7072C204.219 70.1027 205.301 63.6332 209.916 60.3061L190.169 32.9351C185.553 36.2987 179.089 35.2403 175.78 30.6359L175.743 30.6724Z"
                        fill="#CBE8CA" />
                    <path
                        d="M62.2454 139.726L61.1179 138.191C58.39 134.537 53.2041 133.734 49.5045 136.403L47.9294 137.536L25.1635 105.999L26.7386 104.866C30.4749 102.16 31.3333 96.8969 28.6422 93.1329L27.5149 91.5615L47.6248 77.0098C60.8482 67.4305 76.3986 61.2498 92.5928 59.126L112.223 56.5627C130.026 54.2192 147.15 47.4168 161.728 36.8868L175.794 26.7226L176.992 28.9153C177.101 29.1345 177.21 29.3538 177.356 29.5365C180.047 33.264 185.306 34.1033 189.079 31.3977L190.654 30.2643L212.656 60.7781L211.081 61.9115C207.344 64.6171 206.486 69.8805 209.177 73.6445L210.304 75.2159L196.641 85.0877C181.477 96.0563 163.694 103.115 145.161 105.495L125.677 108.022C110.067 110.036 95.1023 115.997 82.3186 125.211L62.282 139.689L62.2454 139.726ZM54.3827 130.992C57.5251 130.992 60.6269 132.197 62.9576 134.462L80.0272 122.104C93.3239 112.489 108.911 106.308 125.141 104.221L144.626 101.694C162.501 99.387 179.698 92.548 194.313 81.9815L204.973 74.2669C202.614 69.5525 203.547 63.7774 207.287 60.0484L189.612 35.5643C184.525 38.124 178.208 36.8828 174.569 32.3515L163.946 40.0296C148.855 50.9617 131.109 58.0201 112.648 60.4369L93.018 63.0001C77.4818 65.0507 62.5534 70.9754 49.8427 80.1891L32.7366 92.5471C35.0955 97.2614 34.1623 103.037 30.4226 106.766L48.8608 132.309C50.6177 131.432 52.4827 130.993 54.3462 130.992L54.3827 130.992Z"
                        fill="#0D0D0D" />
                    <path d="M40.0248 84.9217L36.864 87.2351L69.3408 132.245L72.5016 129.932L40.0248 84.9217Z"
                        fill="#0D0D0D" />
                    <path d="M48.0435 79.1356L44.8827 81.4491L77.3595 126.459L80.5203 124.146L48.0435 79.1356Z"
                        fill="#0D0D0D" />
                    <path d="M89.3608 60.8621L86.2 63.1756L118.677 108.186L121.838 105.872L89.3608 60.8621Z"
                        fill="#0D0D0D" />
                    <path d="M167.945 34.9183L164.784 37.2318L197.261 82.2422L200.421 79.9287L167.945 34.9183Z"
                        fill="#0D0D0D" />
                    <path d="M153.655 45.2762L150.494 47.5896L182.971 92.6L186.132 90.2865L153.655 45.2762Z"
                        fill="#0D0D0D" />
                    <path
                        d="M91.1569 82.6286L96.2118 89.6448C100.649 95.784 108.092 98.9622 115.586 97.8641L143.661 93.8743C148.852 93.1423 151.43 87.1112 148.375 82.8722L143.284 75.8194C138.847 69.6801 131.367 66.502 123.873 67.6001L95.8714 71.6264C90.6804 72.3585 88.1022 78.3896 91.1935 82.6286L91.1569 82.6286Z"
                        fill="white" />
                    <path
                        d="M112.69 100.024C105.602 100.025 98.8901 96.6642 94.6352 90.7808L89.5803 83.7645C87.7256 81.2065 87.3713 77.9537 88.6235 75.0661C89.8756 72.1784 92.4768 70.1676 95.5841 69.7283L123.586 65.7016C131.848 64.5301 139.985 67.9639 144.858 74.6878L149.949 81.7407C151.804 84.2987 152.158 87.5514 150.906 90.4391C149.654 93.3268 147.053 95.3376 143.945 95.7769L115.87 99.7671C114.81 99.9135 113.75 99.9868 112.69 99.9871L112.69 100.024ZM92.7304 81.4978L97.7853 88.5141C101.822 94.0686 108.535 96.9545 115.335 95.9661L143.41 91.9758C145.165 91.7196 146.667 90.5862 147.367 88.9414C148.067 87.2965 147.854 85.4691 146.836 84.0074L141.744 76.9545C137.708 71.3634 130.994 68.5142 124.158 69.5025L96.1557 73.5293C94.401 73.7856 92.899 74.9189 92.2357 76.5637C91.5724 78.2086 91.7488 80.036 92.7669 81.4978L92.7304 81.4978Z"
                        fill="#0D0D0D" />
                    <path
                        d="M22.3029 94.7274C24.0123 97.0663 23.4526 100.393 21.108 102.075C18.7633 103.794 15.4763 103.247 13.7669 100.908C12.0574 98.5689 12.6171 95.2423 14.9617 93.5601C17.3065 91.8413 20.5935 92.3885 22.3029 94.7274Z"
                        fill="#CBE8CA" />
                    <path
                        d="M17.9906 105.038C17.6252 105.038 17.2232 105.039 16.858 104.966C14.9588 104.674 13.2813 103.651 12.1905 102.079C11.0631 100.508 10.6311 98.6072 10.9301 96.7063C11.229 94.8054 12.2581 93.1235 13.8333 92.0264C15.4086 90.8927 17.3104 90.4535 19.2096 90.7453C21.1089 91.0371 22.7863 92.0601 23.8772 93.6316C26.2048 96.8476 25.4583 101.344 22.2344 103.684C20.9887 104.599 19.5253 105.074 18.0271 105.075L17.9906 105.038ZM18.0271 94.5107C17.3328 94.5109 16.6377 94.7305 16.0882 95.1328C15.3555 95.6447 14.8778 96.4126 14.7286 97.2899C14.5794 98.1673 14.7956 99.0445 15.3047 99.7754C15.8138 100.506 16.5795 100.981 17.4561 101.127C18.3326 101.273 19.2104 101.054 19.943 100.542C21.445 99.481 21.7813 97.3607 20.69 95.8989C20.181 95.168 19.4152 94.6931 18.5021 94.5472C18.3194 94.5472 18.1368 94.5107 17.9541 94.5107L18.0271 94.5107Z"
                        fill="#0D0D0D" />
                    <path
                        d="M57.593 143.733C59.3024 146.072 58.7427 149.398 56.398 151.081C54.0534 152.763 50.7663 152.252 49.0569 149.913C47.3474 147.574 47.9072 144.248 50.2518 142.565C52.5965 140.847 55.8835 141.394 57.593 143.733Z"
                        fill="#CBE8CA" />
                    <path
                        d="M53.283 154.006C51.0538 154.007 48.8648 152.984 47.4463 151.047C46.3189 149.476 45.887 147.575 46.1859 145.674C46.4849 143.773 47.5139 142.091 49.0891 140.994C50.6644 139.861 52.5662 139.421 54.4654 139.713C56.3647 140.005 58.0421 141.028 59.133 142.599C61.4606 145.815 60.7141 150.312 57.4902 152.652C56.208 153.566 54.7447 154.006 53.283 154.006ZM53.3195 143.478C52.6252 143.479 51.9667 143.698 51.3806 144.101C50.6479 144.613 50.1702 145.38 50.0208 146.294C49.8716 147.172 50.0878 148.049 50.5969 148.78C51.6515 150.278 53.7699 150.606 55.2354 149.509C56.7374 148.449 57.0736 146.329 55.9824 144.867C55.4733 144.136 54.7076 143.661 53.7945 143.515C53.6118 143.515 53.4291 143.478 53.2464 143.479L53.3195 143.478Z"
                        fill="#0D0D0D" />
                    <path
                        d="M189.594 17.417C191.303 19.7559 190.743 23.0825 188.399 24.7647C186.054 26.4835 182.731 25.9363 181.058 23.5974C179.385 21.2585 179.908 17.9685 182.253 16.2497C184.597 14.5309 187.884 15.0781 189.594 17.417Z"
                        fill="#CBE8CA" />
                    <path
                        d="M185.283 27.6888C184.918 27.689 184.516 27.6891 184.151 27.5795C182.251 27.2877 180.574 26.2647 179.483 24.6933C177.156 21.4773 177.902 16.9809 181.126 14.6404C184.35 12.2999 188.879 13.0295 191.17 16.2456C193.497 19.4616 192.751 23.9579 189.527 26.2984C188.281 27.2127 186.818 27.6883 185.32 27.6888L185.283 27.6888ZM185.32 17.1613C184.625 17.1615 183.967 17.381 183.381 17.7833C182.648 18.2953 182.17 19.0631 182.058 19.9404C181.908 20.8178 182.125 21.695 182.634 22.4259C183.143 23.1568 183.909 23.6318 184.785 23.7777C185.662 23.9237 186.539 23.704 187.272 23.192C188.774 22.1315 189.11 20.0113 188.019 18.5495C187.365 17.6358 186.343 17.161 185.32 17.1613Z"
                        fill="#0D0D0D" />
                    <path
                        d="M225.177 66.7863C226.886 69.1252 226.326 72.4518 223.982 74.1341C221.637 75.8529 218.35 75.3056 216.641 72.9667C214.931 70.6278 215.491 67.3012 217.836 65.619C220.18 63.9002 223.467 64.4474 225.177 66.7863Z"
                        fill="#CBE8CA" />
                    <path
                        d="M220.863 77.0945C220.498 77.0946 220.096 77.0947 219.731 77.0217C217.832 76.7299 216.154 75.7069 215.063 74.1355C213.936 72.564 213.504 70.6633 213.803 68.7624C214.102 66.8615 215.131 65.1797 216.706 64.0826C219.93 61.7421 224.422 62.4718 226.75 65.6878C227.877 67.2592 228.309 69.1598 228.01 71.0607C227.711 72.9616 226.682 74.6435 225.107 75.7406C223.862 76.6549 222.398 77.1305 220.9 77.131L220.863 77.0945ZM220.9 66.5669C220.206 66.5671 219.547 66.7867 218.961 67.1889C217.459 68.286 217.123 70.3697 218.214 71.8315C218.723 72.5625 219.489 73.0374 220.402 73.1468C221.279 73.2927 222.156 73.0731 222.889 72.5611C223.622 72.0491 224.099 71.2814 224.249 70.3675C224.398 69.4901 224.182 68.6129 223.673 67.882C223.018 66.9683 221.997 66.4934 220.973 66.4938L220.9 66.5669Z"
                        fill="#0D0D0D" />
                    <path d="M123.905 66.7665L120.748 69.0729L139.802 95.4643L142.958 93.158L123.905 66.7665Z"
                        fill="#0D0D0D" />
                    <path d="M111.802 68.3726L108.645 70.679L127.699 97.0705L130.856 94.7641L111.802 68.3726Z"
                        fill="#0D0D0D" />
                    <path
                        d="M190.945 47.9319L188.91 44.6427C199.53 38.0236 214.548 27.4921 225.847 14.9147L228.725 17.4726C217.133 30.4156 201.785 41.1665 190.945 47.9319Z"
                        fill="white" />
                    <path
                        d="M85.5157 210.268C76.4543 210.27 70.9496 206.616 70.5851 206.36L72.7883 203.18C73.4079 203.619 88.3552 213.301 110.699 196.887C136.01 178.279 152.707 167.824 168.243 165.811L168.704 169.648C154.047 171.515 137.166 182.19 112.954 199.993C102.075 207.999 92.677 210.267 85.5157 210.268Z"
                        fill="white" />
                    <path
                        d="M87.7859 201.345C64.4377 201.351 58.0954 186.148 57.842 185.453L61.4277 184.027C61.6815 184.612 67.5898 198.499 90.2839 197.434L90.4534 201.308C89.5398 201.345 88.6627 201.382 87.7857 201.382L87.7859 201.345Z"
                        fill="white" />
                </svg>