                <svg  width="132" height="115"
                    viewBox="0 0 132 115" fill="none" xmlns="http://www.w3.org/2000/svg">
                    <path
                        d="M61.3879 76.6314L67.8913 83.0525C72.7914 87.8856 78.7825 91.4658 85.3271 93.47L102.835 98.8461C104.748 99.4354 106.754 98.3526 107.314 96.4314L116.233 65.6545C116.792 63.7333 115.692 61.6967 113.779 61.1074L96.2707 55.7313C89.7261 53.7271 83.749 50.1548 78.8349 45.3138L72.3316 38.8927C66.7155 33.3601 59.8869 29.2684 52.3959 26.9845L37.2105 22.3198C35.2974 21.7305 33.2914 22.8133 32.7319 24.7345L23.813 55.5113C23.2534 57.4325 24.3538 59.4692 26.2669 60.0584L41.4523 64.7232C48.9356 67.0211 55.7858 71.1067 61.3879 76.6314Z"
                        fill="white" />
                    <path
                        d="M62.4987 30.4246C66.2875 32.5717 69.7999 35.2226 72.9176 38.292L79.4209 44.7109C84.2042 49.4213 90.1112 52.9522 96.4926 54.9175L114 60.2891C115.143 60.6436 116.092 61.4197 116.666 62.4786C117.239 63.5375 117.378 64.7537 117.041 65.902L108.125 96.678C107.788 97.8263 107.031 98.7728 105.988 99.3375C104.944 99.9022 103.74 100.027 102.596 99.6722L85.0892 94.3006C78.4394 92.2566 72.2947 88.591 67.3122 83.676L60.8089 77.2571C55.3236 71.8554 48.5512 67.7973 41.2234 65.5526L26.0389 60.8917C23.6667 60.1712 22.3207 57.6472 22.9973 55.2788L31.9135 24.5028C32.604 22.1423 35.0841 20.796 37.4423 21.5086L52.6269 26.1694C56.051 27.211 59.367 28.6499 62.4847 30.4167L62.4987 30.4246ZM87.3885 52.8035C84.0611 50.9179 80.9857 48.6063 78.2539 45.9024L71.7505 39.4835C66.2513 34.0739 59.4928 30.0237 52.1651 27.779L36.9806 23.1182C35.5051 22.6673 33.966 23.5013 33.5455 24.969L24.6293 55.745C24.2087 57.2128 25.0419 58.7674 26.5097 59.2323L41.6942 63.8931C49.2764 66.2086 56.3005 70.4093 61.971 76.0077L68.4743 82.4266C73.2716 87.1449 79.1646 90.6679 85.546 92.6332L103.053 98.0048C103.759 98.2214 104.512 98.1526 105.161 97.8049C105.81 97.4572 106.282 96.8629 106.488 96.154L115.404 65.378C115.61 64.669 115.532 63.9094 115.179 63.2505C114.826 62.5917 114.244 62.1153 113.524 61.8907L96.0169 56.5191C93.0163 55.6076 90.1148 54.3485 87.3745 52.7956L87.3885 52.8035Z"
                        fill="#0D0D0D" />
                    <path
                        d="M37.1004 54.7738C37.0499 54.9657 36.965 55.1197 36.8865 55.2957L43.2286 57.2527C50.9196 59.6285 57.9202 63.8918 63.6091 69.6704L69.7445 75.9056C74.7193 80.9463 80.8329 84.686 87.5708 86.7581L97.1476 89.7114C97.844 87.3123 100.35 85.9625 102.737 86.6968L107.047 71.8986C104.673 71.1722 103.323 68.6555 103.968 66.2825L94.4268 63.3311C87.675 61.2511 81.5334 57.4954 76.56 52.4187L70.4806 46.2154C64.7854 40.4149 57.7645 36.1216 50.0379 33.7439L43.7874 31.8207C43.0909 34.2197 40.5847 35.5696 38.1975 34.8352L34.0463 49.0797C36.4335 49.8141 37.8046 52.3607 37.1081 54.7598L37.1004 54.7738Z"
                        fill="#CBE8CA" />
                    <path
                        d="M60.1346 37.2222C64.133 39.4983 67.8232 42.3345 71.0731 45.6372L77.1528 51.8381C82.0098 56.7912 88.075 60.4829 94.6635 62.5234L105.009 65.7098L104.784 66.5194C104.257 68.4444 105.369 70.4935 107.283 71.0864L108.103 71.3322L103.324 87.7544L102.513 87.4946C100.571 86.8858 98.5327 87.9873 97.9687 89.9463L97.7217 90.762L87.3339 87.5516C80.4909 85.4399 74.2237 81.6148 69.1522 76.4844L63.0165 70.2517C57.444 64.597 50.5273 60.3838 42.9922 58.0619L35.7255 55.8193L36.1593 54.7975C36.2056 54.7135 36.2595 54.6154 36.2778 54.5155C36.8558 52.5644 35.7296 50.5074 33.7879 49.8986L32.9685 49.6527L37.5965 33.7702L38.4083 34.03C40.3576 34.6249 42.3882 33.5374 42.9523 31.5784L43.1992 30.7627L50.247 32.9359C53.6864 33.9928 56.9889 35.4315 60.1066 37.2062L60.1346 37.2222ZM85.5475 60.4049C82.0384 58.4073 78.813 55.9276 75.9614 53.0355L69.8816 46.8346C64.3029 41.158 57.366 36.9149 49.8029 34.5771L44.3086 32.8837C43.3248 34.9716 41.0822 36.1774 38.8004 35.8531L35.0906 48.599C37.3207 49.6846 38.5975 52.2687 37.998 54.7593L43.4923 56.4526C51.2959 58.8538 58.4565 63.2243 64.2281 69.0842L70.3638 75.3169C75.2145 80.248 81.2518 83.9239 87.8263 85.9563L96.6605 88.6868C97.6443 86.5989 99.8869 85.3931 102.169 85.7174L106.05 72.4257C104.003 71.4076 102.777 69.165 103.032 66.901L94.2256 64.1865C91.21 63.2605 88.322 62.0026 85.5818 60.4427L85.5475 60.4049Z"
                        fill="#0D0D0D" />
                    <path d="M91.9195 88.3943L93.5287 88.8455L100.766 65.4156L99.1568 64.9644L91.9195 88.3943Z"
                        fill="#0D0D0D" />
                    <path d="M87.7369 87.0804L89.3462 87.5316L96.5835 64.1018L94.9743 63.6506L87.7369 87.0804Z"
                        fill="#0D0D0D" />
                    <path d="M70.3814 77.24L71.9907 77.6912L79.228 54.2614L77.6187 53.8102L70.3814 77.24Z" fill="#0D0D0D" />
                    <path d="M40.4803 56.1854L42.0895 56.6366L49.3269 33.2067L47.7176 32.7555L40.4803 56.1854Z"
                        fill="#0D0D0D" />
                    <path d="M47.8949 58.539L49.5042 58.9902L56.7415 35.5603L55.1323 35.1091L47.8949 58.539Z"
                        fill="#0D0D0D" />
                    <path
                        d="M77.6258 70.5986L78.6808 66.9707C79.5977 63.7951 78.6914 60.351 76.3169 58.0229L67.431 49.3254C65.779 47.7105 63.0347 48.425 62.3889 50.6385L61.3402 54.2882C60.4156 57.4777 61.3359 60.9296 63.7181 63.2438L72.6053 71.9055C74.2573 73.5204 77.0016 72.8059 77.6334 70.5847L77.6258 70.5986Z"
                        fill="white" />
                    <path
                        d="M67.1725 48.1047C67.4799 48.2761 67.7505 48.4816 68.012 48.7369L76.8963 57.4309C79.4976 59.9761 80.492 63.7246 79.4915 67.219L78.4361 70.847C78.0587 72.1699 77.037 73.1701 75.705 73.5045C74.3869 73.8467 72.995 73.4907 72.0111 72.5225L63.1254 63.8642C60.5102 61.3112 59.5158 57.5627 60.524 54.0543L61.573 50.4045C61.9505 49.0817 62.9721 48.0814 64.3042 47.747C65.2838 47.49 66.2984 47.6357 67.1509 48.1109L67.1725 48.1047ZM73.662 71.6722C74.1511 71.9448 74.7258 72.0278 75.2805 71.8807C76.0299 71.6779 76.6069 71.1234 76.8206 70.3664L77.876 66.7383C78.7114 63.8455 77.8927 60.7425 75.7243 58.6394L66.8399 49.9454C66.2826 49.3974 65.4983 49.1975 64.7426 49.3786C63.9932 49.5815 63.4162 50.136 63.2025 50.893L62.1534 54.5428C61.318 57.4356 62.1367 60.5386 64.3051 62.6417L73.1908 71.3C73.3356 71.4355 73.488 71.5569 73.6696 71.6582L73.662 71.6722Z"
                        fill="#0D0D0D" />
                    <path
                        d="M100.029 92.1136C100.39 90.8911 101.665 90.1924 102.871 90.5494C104.091 90.914 104.79 92.1942 104.437 93.4027C104.084 94.6112 102.801 95.3238 101.595 94.9669C100.389 94.61 99.6755 93.3221 100.029 92.1136Z"
                        fill="#CBE8CA" />
                    <path
                        d="M103.757 90C104.273 90.2858 104.699 90.7037 104.985 91.2446C105.385 91.9761 105.48 92.8311 105.256 93.6372C105.019 94.4356 104.486 95.1075 103.758 95.5067C103.029 95.906 102.176 95.9998 101.372 95.7738C100.575 95.5338 99.9041 94.9985 99.5044 94.267C99.1048 93.5355 99.0094 92.6806 99.2332 91.8745C99.7115 90.2063 101.453 89.2549 103.118 89.7379C103.336 89.804 103.561 89.8919 103.757 90ZM101.546 94.0288C101.644 94.0829 101.728 94.1292 101.841 94.1553C102.61 94.3799 103.419 93.9338 103.641 93.1634C103.756 92.7891 103.7 92.3935 103.52 92.0571C103.327 91.7131 103.022 91.4718 102.648 91.3564C101.88 91.1318 101.071 91.5778 100.848 92.3482C100.652 93.0053 100.96 93.7044 101.546 94.0288Z"
                        fill="#0D0D0D" />
                    <path
                        d="M107.973 66.6543C108.334 65.4318 109.61 64.7331 110.816 65.0901C112.035 65.4547 112.735 66.7349 112.381 67.9434C112.028 69.1518 110.745 69.8645 109.539 69.5076C108.333 69.1507 107.62 67.8627 107.973 66.6543Z"
                        fill="#CBE8CA" />
                    <path
                        d="M111.702 64.5404C112.219 64.8262 112.645 65.2441 112.93 65.785C113.33 66.5165 113.425 67.3714 113.202 68.1775C112.964 68.9759 112.431 69.6478 111.703 70.0471C110.974 70.4463 110.121 70.5402 109.317 70.3142C108.52 70.0742 107.849 69.5389 107.45 68.8074C107.05 68.0759 106.955 67.221 107.178 66.4149C107.416 65.6165 107.949 64.9446 108.677 64.5454C109.406 64.1461 110.258 64.0523 111.063 64.2783C111.281 64.3444 111.506 64.4323 111.702 64.5404ZM109.492 68.5692C109.589 68.6233 109.673 68.6696 109.786 68.6957C110.555 68.9202 111.364 68.4742 111.586 67.7038C111.701 67.3294 111.645 66.9338 111.465 66.5975C111.272 66.2535 110.967 66.0122 110.594 65.8968C109.825 65.6722 109.016 66.1182 108.793 66.8886C108.679 67.263 108.735 67.6586 108.915 67.9949C109.055 68.2367 109.254 68.4379 109.492 68.5692Z"
                        fill="#0D0D0D" />
                    <path
                        d="M28.5375 53.1642C28.8986 51.9417 30.1738 51.243 31.3796 51.5999C32.5855 51.9569 33.2989 53.2448 32.9455 54.4533C32.5844 55.6757 31.3092 56.3744 30.1033 56.0175C28.8975 55.6606 28.1841 54.3726 28.5375 53.1642Z"
                        fill="#CBE8CA" />
                    <path
                        d="M32.2643 51.0495C32.7811 51.3352 33.2072 51.7532 33.4929 52.2941C33.8926 53.0256 33.9879 53.8805 33.7641 54.6866C33.5264 55.485 32.9939 56.1569 32.2652 56.5561C31.5365 56.9554 30.684 57.0493 29.8797 56.8232C28.215 56.3403 27.2627 54.5922 27.7409 52.924C28.2192 51.2558 29.9747 50.3122 31.6393 50.7951C31.8579 50.8612 32.0827 50.9491 32.2783 51.0572L32.2643 51.0495ZM30.0542 55.0783C30.1519 55.1323 30.2357 55.1787 30.3489 55.2048C30.7224 55.3202 31.1169 55.2648 31.4519 55.0854C31.7947 54.8921 32.0347 54.5872 32.149 54.2129C32.2634 53.8385 32.2213 53.4506 32.0278 53.1066C31.8343 52.7625 31.5298 52.5212 31.1562 52.4058C30.3874 52.1813 29.5784 52.6273 29.356 53.3977C29.1594 54.0548 29.4676 54.7539 30.0542 55.0783Z"
                        fill="#0D0D0D" />
                    <path
                        d="M36.5466 27.5001C36.9077 26.2776 38.1829 25.579 39.3888 25.9359C40.5947 26.2928 41.3081 27.5807 40.9546 28.7892C40.6012 29.9977 39.3184 30.7103 38.1125 30.3534C36.8926 29.9888 36.1932 28.7086 36.5466 27.5001Z"
                        fill="#CBE8CA" />
                    <path
                        d="M40.2744 25.3855C40.7912 25.6712 41.2172 26.0891 41.503 26.63C41.9027 27.3615 41.998 28.2165 41.7742 29.0226C41.5365 29.821 41.004 30.4929 40.2753 30.8921C39.5466 31.2914 38.6942 31.3852 37.8898 31.1592C36.2251 30.6763 35.2804 28.9141 35.751 27.26C36.2293 25.5918 37.9925 24.6341 39.6355 25.1233C39.854 25.1895 40.0789 25.2773 40.2744 25.3855ZM38.0643 29.4143C38.162 29.4683 38.2458 29.5147 38.359 29.5407C38.7325 29.6561 39.127 29.6008 39.462 29.4214C39.8047 29.228 40.0448 28.9232 40.1591 28.5488C40.2735 28.1745 40.2314 27.7866 40.0379 27.4426C39.8583 27.1062 39.5398 26.8572 39.1663 26.7418C38.3975 26.5172 37.5885 26.9633 37.3661 27.7337C37.1695 28.3907 37.4777 29.0899 38.0643 29.4143Z"
                        fill="#0D0D0D" />
                    <path d="M63.3321 63.4057L64.9438 63.8582L69.1609 50.11L67.5492 49.6575L63.3321 63.4057Z"
                        fill="#0D0D0D" />
                    <path d="M67.1067 67.2679L68.7183 67.7207L72.9379 53.9732L71.3263 53.5204L67.1067 67.2679Z"
                        fill="#0D0D0D" />
                    <path
                        d="M129.611 56.9482L129.547 58.6408C129.296 58.6257 104.002 57.2654 86.5884 45.208L87.5372 43.8201C104.546 55.6089 129.338 56.939 129.589 56.9541L129.611 56.9482Z"
                        fill="white" />
                    <path
                        d="M77.0685 30.9807C88.0917 41.6464 103.165 46.9686 103.321 47.0214L102.781 48.6294C102.625 48.5766 87.1903 43.1384 75.9002 32.19L77.0685 30.9807Z"
                        fill="white" />
                    <path
                        d="M75.7798 24.7798C80.5331 29.4654 84.4893 32.4078 84.5235 32.4458L83.5192 33.8026C83.5192 33.8026 79.4245 30.7442 74.5887 25.9747L75.7658 24.7718L75.7798 24.7798Z"
                        fill="white" />
                    <path
                        d="M41.3989 68.3525L41.105 70.0242C40.2634 69.8725 20.3628 65.9986 11.1217 58.5797L12.1754 57.2705C21.0758 64.4386 41.1916 68.3256 41.3911 68.3664L41.3989 68.3525Z"
                        fill="white" />
                    <path
                        d="M3.71153 54.8651C8.48507 63.6951 20.1931 66.8057 20.3068 66.8341L19.8992 68.4773C19.3944 68.3533 7.3513 65.1793 2.20724 55.6583L3.68968 54.871L3.71153 54.8651Z"
                        fill="white" />
                </svg>