                <svg  width="109" height="108"
                    viewBox="0 0 109 108" fill="none" xmlns="http://www.w3.org/2000/svg">
                    <path
                        d="M46.7448 68.418L50.6612 75.1026C53.6131 80.1351 57.7333 84.3812 62.6524 87.4581L75.8089 95.7016C77.2461 96.6039 79.1262 96.1574 80.0059 94.707L94.0615 71.4629C94.9412 70.0126 94.4871 68.1035 93.0499 67.2013L79.8933 58.9578C74.9742 55.8808 70.8637 51.6444 67.9021 46.6022L63.9858 39.9177C60.6011 34.1552 55.9074 29.3066 50.2747 25.7929L38.8639 18.6416C37.4267 17.7393 35.5466 18.1858 34.6669 19.6362L20.6114 42.8803C19.7317 44.3306 20.1858 46.2397 21.623 47.1419L33.0337 54.2933C38.6571 57.8167 43.3699 62.6651 46.7448 68.418Z"
                        fill="white" />
                    <path
                        d="M57.7929 30.8261C60.4242 33.4155 62.7186 36.3567 64.5981 39.554L68.5148 46.2368C71.398 51.1433 75.4601 55.3305 80.2541 58.3398L93.4109 66.5794C94.2694 67.1205 94.876 67.9642 95.1133 68.9571C95.3507 69.95 95.1977 70.9764 94.6699 71.8427L80.6168 95.0867C80.089 95.953 79.2609 96.5618 78.2829 96.7953C77.305 97.0288 76.2912 96.8665 75.4327 96.3253L62.2759 88.0858C57.2794 84.9532 53.0522 80.6034 50.0508 75.4857L46.134 68.8029C42.8277 63.1764 38.1726 58.3676 32.665 54.9218L21.2541 47.7739C19.4697 46.6634 18.9214 44.3014 19.995 42.5106L34.0482 19.2666C35.1315 17.4853 37.4576 16.927 39.2323 18.0279L50.6432 25.1759C53.2184 26.78 55.618 28.6857 57.7832 30.8165L57.7929 30.8261ZM73.2633 54.6114C70.9524 52.3373 68.9414 49.7698 67.2977 46.9564L63.381 40.2736C60.065 34.6375 55.4196 29.8383 49.9119 26.3925L38.501 19.2446C37.3918 18.5517 35.9486 18.8969 35.2822 20.0064L21.2291 43.2504C20.5627 44.36 20.9038 45.8157 22.0037 46.5184L33.4146 53.6663C39.115 57.2258 43.9448 62.2066 47.3597 68.0349L51.2765 74.7177C54.1694 79.6337 58.2218 83.8114 63.0158 86.8207L76.1726 95.0602C76.7031 95.3925 77.3344 95.5012 77.9421 95.359C78.5498 95.2167 79.0674 94.8337 79.3914 94.2984L93.4445 71.0544C93.7686 70.5191 93.8714 69.8799 93.7266 69.263C93.5819 68.646 93.2102 68.1283 92.6699 67.7865L79.5132 59.5469C77.2563 58.1422 75.1567 56.4746 73.2536 54.6018L73.2633 54.6114Z"
                        fill="#0D0D0D" />
                    <path
                        d="M31.6551 45.1923C31.5716 45.3384 31.4684 45.4459 31.3654 45.5727L36.1291 48.5666C41.9054 52.1994 46.7023 57.2263 50.0927 63.2061L53.7485 69.6578C56.7161 74.8768 60.9015 79.2803 65.9641 82.4552L73.1578 86.9747C74.2544 85.163 76.6028 84.6076 78.3964 85.7327L85.1716 74.5609C83.3877 73.4455 82.8338 71.0883 83.8829 69.2869L76.7179 64.7768C71.6457 61.5923 67.4408 57.1696 64.4823 51.9215L60.8654 45.5082C57.4746 39.509 52.6677 34.4532 46.8627 30.811L42.1665 27.8648C41.0699 29.6764 38.7216 30.2319 36.928 29.1068L30.4036 39.8598C32.1972 40.9848 32.7611 43.3709 31.6645 45.1825L31.6551 45.1923Z"
                        fill="#CBE8CA" />
                    <path
                        d="M54.3667 35.8743C57.1413 38.6154 59.5407 41.7474 61.4771 45.1647L65.0949 51.5761C67.9852 56.6974 72.1416 61.0511 77.0887 64.1674L84.8611 69.0464L84.499 69.6599C83.6452 71.1206 84.1064 73.0424 85.5433 73.9478L86.1603 74.3289L78.6447 86.7274L78.037 86.3366C76.5807 85.4121 74.6701 85.8668 73.7784 87.3471L73.3972 87.9608L65.5957 83.053C60.4559 79.8225 56.1633 75.3153 53.1363 70.0017L49.4797 63.552C46.1574 57.6992 41.4183 52.7318 35.7578 49.1774L30.2997 45.7467L30.8791 45.0052C30.9354 44.9465 31.001 44.8781 31.0379 44.8003C31.9393 43.3295 31.4684 41.398 30.0122 40.4735L29.3951 40.0925L36.6694 28.1029L37.2771 28.4937C38.7427 29.4085 40.644 28.9635 41.5357 27.4832L41.9168 26.8695L47.211 30.1953C49.7953 31.8153 52.1839 33.7179 54.3473 35.8551L54.3667 35.8743ZM70.0891 60.4326C67.6541 58.027 65.5571 55.2889 63.8567 52.2951L60.2389 45.8838C56.9163 40.0116 52.1671 35.0153 46.4872 31.4416L42.3599 28.8496C41.0962 30.3434 38.9954 30.8387 37.1982 30.0725L31.364 39.6953C32.9518 41.0735 33.4304 43.4695 32.3931 45.3773L36.5203 47.9693C42.3834 51.6477 47.2877 56.7973 50.728 62.8619L54.3846 69.3116C57.2745 74.4136 61.4115 78.7481 66.3489 81.8548L72.9836 86.0288C74.2472 84.535 76.3481 84.0397 78.1453 84.8059L84.24 74.774C82.7873 73.4912 82.2754 71.3859 82.9805 69.5879L76.3653 65.4331C74.0992 64.0132 72.0104 62.3496 70.1089 60.4711L70.0891 60.4326Z"
                        fill="#0D0D0D" />
                    <path d="M69.1651 84.7486L70.3839 85.4711L81.4506 67.874L80.2319 67.1515L69.1651 84.7486Z"
                        fill="#0D0D0D" />
                    <path d="M66.0292 82.7552L67.2479 83.4778L78.3146 65.8807L77.0959 65.1581L66.0292 82.7552Z"
                        fill="#0D0D0D" />
                    <path d="M53.9768 70.8898L55.1956 71.6123L66.2623 54.0153L65.0436 53.2927L53.9768 70.8898Z"
                        fill="#0D0D0D" />
                    <path d="M34.1124 47.0893L35.3311 47.8118L46.3978 30.2147L45.1791 29.4922L34.1124 47.0893Z"
                        fill="#0D0D0D" />
                    <path d="M39.6669 50.6433L40.8856 51.3658L51.9523 33.7687L50.7336 33.0462L39.6669 50.6433Z"
                        fill="#0D0D0D" />
                    <path
                        d="M61.3652 67.0411L63.0251 64.3019C64.4726 61.9028 64.4861 58.8839 63.0526 56.4566L57.6849 47.3853C56.6865 45.7005 54.2826 45.6834 53.2682 47.3541L51.6087 50.1125C50.1518 52.5214 50.1481 55.5498 51.5909 57.9673L56.9676 67.0096C57.966 68.6944 60.3699 68.7115 61.3746 67.0313L61.3652 67.0411Z"
                        fill="white" />
                    <path
                        d="M57.7415 46.3293C57.9556 46.537 58.132 46.7647 58.2902 47.0311L63.6574 56.0993C65.229 58.7541 65.2208 62.0416 63.6349 64.6834L61.9747 67.4226C61.3754 68.4229 60.3194 69.0178 59.1553 68.9994C58.0009 68.9904 56.9393 68.3935 56.3461 67.3848L50.97 58.3456C49.3886 55.6814 49.3969 52.3938 50.9921 49.7423L52.6519 46.9839C53.2512 45.9835 54.3072 45.3886 55.4713 45.4071C56.3299 45.4115 57.1286 45.7534 57.7224 46.3296L57.7415 46.3293ZM57.8845 67.0507C58.2252 67.3813 58.6775 67.5754 59.164 67.5766C59.8221 67.5749 60.4162 67.2475 60.7573 66.6745L62.4175 63.9353C63.7363 61.7499 63.7467 59.0295 62.4326 56.8316L57.0653 47.7635C56.7292 47.1925 56.1309 46.8568 55.4723 46.8393C54.8142 46.841 54.2201 47.1684 53.879 47.7414L52.2192 50.4998C50.9004 52.6852 50.89 55.4056 52.2042 57.6034L57.5803 66.6426C57.6691 66.7853 57.7673 66.9182 57.8938 67.041L57.8845 67.0507Z"
                        fill="#0D0D0D" />
                    <path
                        d="M74.9886 89.5732C75.5525 88.6515 76.7499 88.3592 77.659 88.916C78.5778 89.4822 78.8697 90.6839 78.3151 91.5959C77.7606 92.5079 76.5538 92.81 75.6447 92.2532C74.7356 91.6963 74.434 90.4852 74.9886 89.5732Z"
                        fill="#CBE8CA" />
                    <path
                        d="M78.5046 88.6604C78.8651 89.0078 79.1223 89.4435 79.2376 89.9491C79.4044 90.6358 79.2948 91.3567 78.9347 91.9677C78.5649 92.5693 77.9815 93.0026 77.2972 93.1696C76.6129 93.3367 75.8943 93.2265 75.2853 92.8649C74.6856 92.4936 74.2534 91.9081 74.0867 91.2214C73.9199 90.5347 74.0294 89.8138 74.3895 89.2028C75.1471 87.9418 76.7819 87.5449 78.039 88.3056C78.2034 88.4077 78.3683 88.529 78.5046 88.6604ZM75.811 91.4744C75.8792 91.5401 75.9377 91.5964 76.0246 91.6426C76.6048 91.9952 77.3651 91.8074 77.7162 91.2254C77.892 90.944 77.9329 90.6077 77.8597 90.2929C77.7767 89.9688 77.5803 89.7044 77.2997 89.5279C76.7195 89.1754 75.9592 89.3631 75.6081 89.9451C75.3029 90.44 75.4019 91.0801 75.811 91.4744Z"
                        fill="#0D0D0D" />
                    <path
                        d="M87.0807 70.4699C87.6446 69.5482 88.8421 69.2558 89.7512 69.8127C90.67 70.3789 90.9618 71.5806 90.4073 72.4926C89.8528 73.4046 88.6459 73.7067 87.7369 73.1498C86.8278 72.593 86.5262 71.3819 87.0807 70.4699Z"
                        fill="#CBE8CA" />
                    <path
                        d="M90.5971 69.5568C90.9576 69.9041 91.2148 70.3398 91.3301 70.8454C91.4969 71.5321 91.3873 72.253 91.0272 72.864C90.6574 73.4656 90.074 73.8989 89.3897 74.066C88.7054 74.233 87.9868 74.1228 87.3777 73.7613C86.778 73.3899 86.3459 72.8044 86.1791 72.1178C86.0124 71.4311 86.1219 70.7102 86.482 70.0992C86.8518 69.4976 87.4352 69.0643 88.1195 68.8972C88.8038 68.7302 89.5224 68.8404 90.1315 69.2019C90.2959 69.3041 90.4608 69.4253 90.5971 69.5568ZM87.9035 72.3707C87.9717 72.4364 88.0301 72.4928 88.117 72.539C88.6973 72.8915 89.4576 72.7038 89.8087 72.1217C89.9845 71.8403 90.0254 71.5041 89.9521 71.1893C89.8692 70.8651 89.6728 70.6007 89.3922 70.4242C88.812 70.0717 88.0517 70.2594 87.7005 70.8415C87.5248 71.1229 87.4838 71.4591 87.5571 71.7739C87.619 72.0027 87.7379 72.2111 87.9035 72.3707Z"
                        fill="#0D0D0D" />
                    <path
                        d="M24.9953 41.9953C25.5592 41.0735 26.7566 40.7812 27.6657 41.338C28.5748 41.8949 28.8764 43.106 28.3218 44.018C27.758 44.9397 26.5605 45.232 25.6514 44.6752C24.7423 44.1184 24.4407 42.9073 24.9953 41.9953Z"
                        fill="#CBE8CA" />
                    <path
                        d="M28.5109 41.0815C28.8714 41.4288 29.1285 41.8645 29.2439 42.3701C29.4106 43.0568 29.3011 43.7777 28.941 44.3887C28.5712 44.9903 27.9878 45.4236 27.3035 45.5906C26.6192 45.7577 25.9006 45.6475 25.2915 45.286C24.0344 44.5253 23.6382 42.8849 24.3958 41.6239C25.1534 40.3629 26.7979 39.9754 28.055 40.736C28.2194 40.8381 28.3843 40.9594 28.5207 41.0909L28.5109 41.0815ZM25.8173 43.8954C25.8855 43.9611 25.9439 44.0175 26.0308 44.0636C26.3114 44.2401 26.6465 44.2813 26.9602 44.2079C27.2833 44.1248 27.5467 43.9279 27.7225 43.6464C27.8982 43.365 27.9489 43.0381 27.8659 42.714C27.7829 42.3898 27.5865 42.1254 27.306 41.9489C26.7257 41.5964 25.9654 41.7841 25.6143 42.3662C25.3092 42.861 25.4081 43.5011 25.8173 43.8954Z"
                        fill="#0D0D0D" />
                    <path
                        d="M37.1858 22.7373C37.7497 21.8155 38.9472 21.5232 39.8563 22.08C40.7654 22.6369 41.0669 23.848 40.5124 24.7599C39.9579 25.6719 38.751 25.974 37.842 25.4172C36.9231 24.851 36.6313 23.6492 37.1858 22.7373Z"
                        fill="#CBE8CA" />
                    <path
                        d="M40.7017 21.8236C41.0621 22.1709 41.3193 22.6066 41.4346 23.1122C41.6014 23.7989 41.4919 24.5198 41.1318 25.1308C40.7619 25.7324 40.1786 26.1657 39.4942 26.3328C38.8099 26.4998 38.0914 26.3896 37.4823 26.0281C36.2252 25.2674 35.8383 23.6172 36.5865 22.366C37.3442 21.105 38.998 20.7077 40.236 21.4687C40.4005 21.5709 40.5653 21.6921 40.7017 21.8236ZM38.008 24.6375C38.0762 24.7032 38.1347 24.7596 38.2216 24.8058C38.5022 24.9822 38.8373 25.0234 39.151 24.9501C39.474 24.8669 39.7375 24.67 39.9132 24.3885C40.089 24.1071 40.1397 23.7802 40.0567 23.4561C39.9834 23.1413 39.7773 22.8675 39.4967 22.691C38.9165 22.3385 38.1562 22.5262 37.8051 23.1083C37.4999 23.6031 37.5989 24.2432 38.008 24.6375Z"
                        fill="#0D0D0D" />
                    <path d="M51.2397 58.0149L52.4601 58.739L58.9297 48.4069L57.7092 47.6827L51.2397 58.0149Z"
                        fill="#0D0D0D" />
                    <path d="M53.4834 62.0058L54.7037 62.7301L61.175 52.3991L59.9547 51.6748L53.4834 62.0058Z"
                        fill="#0D0D0D" />
                    <path
                        d="M106.927 67.2702L106.504 68.6421C106.301 68.5747 85.8881 61.9111 74.275 48.2177L75.3565 47.2894C86.6971 60.6741 106.706 67.2028 106.908 67.2702L106.927 67.2702Z"
                        fill="white" />
                    <path
                        d="M69.6013 34.4794C76.2873 45.6312 87.462 53.2964 87.578 53.3738L86.7831 54.572C86.6671 54.4946 75.2219 46.6552 68.3794 35.2132L69.6013 34.4794Z"
                        fill="white" />
                    <path
                        d="M69.907 29.1191C72.7712 33.9987 75.365 37.276 75.3847 37.3146L74.2646 38.2052C74.2646 38.2052 71.5828 34.8025 68.6696 29.8362L69.8973 29.1095L69.907 29.1191Z"
                        fill="white" />
                    <path
                        d="M32.1946 57.254L31.5872 58.5583C30.9313 58.2495 15.4861 50.7112 9.54702 42.6088L10.6971 41.768C16.4122 49.5903 32.0307 57.1865 32.1851 57.2637L32.1946 57.254Z"
                        fill="white" />
                    <path
                        d="M4.29482 37.9418C6.26619 46.2193 15.1705 51.3351 15.2574 51.3833L14.5632 52.6394C14.177 52.4271 5.0122 47.1858 2.88906 38.2612L4.27564 37.9418L4.29482 37.9418Z"
                        fill="white" />
                </svg>