                <svg width="119" height="71"
                    viewBox="0 0 119 71" fill="none" xmlns="http://www.w3.org/2000/svg">
                    <path
                        d="M65.1126 54.8871L74.4194 57.3174C81.4293 59.1441 88.7742 59.2546 95.7943 57.6373L114.582 53.324C116.636 52.8543 117.895 50.8117 117.394 48.7661L109.327 16.0195C108.826 13.9739 106.751 12.6966 104.697 13.1662L85.9093 17.4796C78.8892 19.0969 71.5612 18.9862 64.5344 17.1597L55.2276 14.7294C47.197 12.6419 38.8194 12.5058 30.7895 14.3662L14.4933 18.1057C12.4394 18.5753 11.1808 20.6179 11.6818 22.6636L19.7487 55.4101C20.2497 57.4558 22.3244 58.7331 24.3783 58.2634L40.6745 54.524C48.7048 52.6804 57.0989 52.7995 65.1126 54.8871Z"
                        fill="white" />
                    <path
                        d="M41.8086 12.1846C46.392 12.1478 50.9886 12.7157 55.4457 13.8727L64.7514 16.3012C71.5901 18.0774 78.8325 18.1873 85.6833 16.6204L104.468 12.3034C105.697 12.0248 106.97 12.233 108.05 12.8963C109.13 13.5596 109.897 14.595 110.194 15.8189L118.263 48.5633C118.56 49.7872 118.368 51.0487 117.714 52.1123C117.06 53.1759 116.028 53.9234 114.799 54.202L96.0146 58.519C88.8777 60.1554 81.3478 60.0478 74.2197 58.1899L64.914 55.7615C57.0716 53.7245 48.7629 53.5895 40.9025 55.3997L24.6091 59.1423C22.0676 59.7339 19.5126 58.1417 18.8829 55.6268L10.8139 22.8825C10.2011 20.3675 11.7532 17.8352 14.2778 17.2437L30.5712 13.5011C34.2404 12.6485 38.0201 12.215 41.7917 12.1848L41.8086 12.1846ZM76.2725 19.4846C72.2472 19.5169 68.2276 19.0284 64.3146 18.0014L55.0089 15.573C47.1495 13.5361 38.8578 13.4011 30.9974 15.2113L14.7039 18.9538C13.1218 19.3193 12.1578 20.8894 12.5469 22.4486L20.6158 55.1929C21.0049 56.7521 22.5824 57.7306 24.1649 57.382L40.4583 53.6394C48.5879 51.7598 57.201 51.8923 65.3159 54.0111L74.6216 56.4395C81.4772 58.2156 88.7027 58.3257 95.5535 56.7588L114.338 52.4418C115.095 52.2677 115.745 51.8089 116.154 51.1505C116.562 50.492 116.681 49.7015 116.495 48.947L108.426 16.2027C108.241 15.4482 107.77 14.7968 107.101 14.3822C106.432 13.9676 105.651 13.8395 104.877 14.0137L86.0926 18.3306C82.8778 19.0788 79.5706 19.4581 76.2556 19.4847L76.2725 19.4846Z"
                        fill="#0D0D0D" />
                    <path
                        d="M31.4746 47.744C31.5295 47.9456 31.5332 48.1306 31.5542 48.3323L38.3649 46.7786C46.6254 44.8967 55.2501 45.0986 63.4764 47.372L72.3501 49.8265C79.5374 51.8031 87.0779 51.9946 94.3098 50.3374L104.593 47.9895C103.966 45.4363 105.54 42.887 108.102 42.3001L104.242 26.5439C101.697 27.1307 99.141 25.5475 98.4804 23.045L88.2306 25.3758C80.9817 27.0331 73.4073 26.8418 66.2024 24.8317L57.3965 22.3767C49.1528 20.0867 40.494 19.8681 32.1999 21.767L25.4905 23.3033C26.1183 25.8566 24.5442 28.4059 21.9818 28.9928L25.6942 44.1611C28.2566 43.5742 30.8465 45.174 31.4742 47.7272L31.4746 47.744Z"
                        fill="#CBE8CA" />
                    <path
                        d="M43.2331 19.6243C48.0755 19.5948 52.9316 20.2381 57.6319 21.5382L66.4368 23.9907C73.4705 25.9495 80.9417 26.1226 88.0209 24.5153L99.128 21.9752L99.3487 22.8316C99.8814 24.8636 101.974 26.146 104.03 25.6793L104.906 25.4721L109.193 42.9555L108.316 43.1459C106.226 43.6127 104.948 45.6893 105.465 47.7718L105.669 48.6452L94.5111 51.1857C87.1625 52.862 79.4369 52.6735 72.1144 50.6661L63.2418 48.2139C55.1867 45.9923 46.665 45.7919 38.5748 47.6409L30.7711 49.4208L30.6288 48.2611C30.6267 48.1602 30.6243 48.0425 30.5884 47.9418C30.0885 45.8592 27.9794 44.5769 25.8892 45.0438L25.0129 45.2509L20.8732 28.3386L21.7498 28.1482C23.8397 27.6645 25.1183 25.6047 24.6014 23.5222L24.3973 22.6488L31.965 20.9208C35.6561 20.0741 39.4235 19.6475 43.1992 19.6245L43.2331 19.6243ZM78.5968 27.3816C74.3471 27.4075 70.1021 26.8446 65.981 25.7091L57.1761 23.2566C49.1037 21.0182 40.5479 20.8012 32.4238 22.6504L26.5247 23.9983C26.7267 26.4191 25.3171 28.6984 23.0666 29.6035L26.3928 43.1737C28.9967 42.9896 31.5205 44.6731 32.2847 47.2587L38.1838 45.9108C46.5604 43.9928 55.3872 44.2082 63.7318 46.5122L72.6044 48.9643C79.6208 50.9063 87.0582 51.0797 94.1204 49.4724L103.61 47.3122C103.408 44.8914 104.817 42.6121 107.068 41.7069L103.611 27.5489C101.21 27.698 98.9118 26.2992 97.9523 24.1016L88.4969 26.2617C85.2609 27.0046 81.9665 27.3779 78.648 27.3981L78.5968 27.3816Z"
                        fill="#0D0D0D" />
                    <path d="M99.1339 49.5404L100.838 49.1048L95.105 23.9399L93.4007 24.3755L99.1339 49.5404Z"
                        fill="#0D0D0D" />
                    <path d="M94.6305 50.544L96.3348 50.1084L90.6016 24.9435L88.8973 25.3791L94.6305 50.544Z"
                        fill="#0D0D0D" />
                    <path d="M73.6324 50.7078L75.3367 50.2722L69.6035 25.1073L67.8992 25.5429L73.6324 50.7078Z"
                        fill="#0D0D0D" />
                    <path d="M35.2972 47.2522L37.0015 46.8166L31.2683 21.6517L29.564 22.0873L35.2972 47.2522Z"
                        fill="#0D0D0D" />
                    <path d="M43.294 45.4957L44.9983 45.0601L39.2651 19.8952L37.5608 20.3308L43.294 45.4957Z"
                        fill="#0D0D0D" />
                    <path
                        d="M76.7397 40.8419L75.7922 36.9799C74.9568 33.6028 72.3182 30.9405 68.9287 30.068L56.2521 26.8165C53.8965 26.2139 51.7711 28.3094 52.3473 30.6668L53.312 34.5453C54.1478 37.9392 56.8032 40.6012 60.1924 41.457L72.8513 44.6751C75.2069 45.2777 77.3324 43.1822 76.7393 40.8251L76.7397 40.8419Z"
                        fill="white" />
                    <path
                        d="M55.375 25.8397C55.7454 25.8342 56.1001 25.8791 56.4729 25.9742L69.1462 29.2234C72.8567 30.1744 75.7357 33.0678 76.6627 36.7794L77.6099 40.6418C77.962 42.0462 77.5572 43.4956 76.519 44.5014C75.4977 45.5069 74.0416 45.9149 72.6353 45.5501L59.9796 42.3342C56.2523 41.3835 53.3733 38.4901 52.4459 34.7616L51.4814 30.8828C51.1293 29.4784 51.5341 28.029 52.5723 27.0232C53.33 26.2734 54.3314 25.8723 55.3585 25.8568L55.375 25.8397ZM73.6926 43.9063C74.2819 43.8974 74.8494 43.6707 75.2776 43.2447C75.8539 42.6654 76.0881 41.8563 75.8844 41.0538L74.9372 37.1915C74.1763 34.115 71.7971 31.7175 68.7138 30.9417L56.0405 27.6925C55.2442 27.4864 54.4241 27.7169 53.8306 28.2797C53.2543 28.8589 53.0201 29.668 53.2237 30.4705L54.1882 34.3494C54.9491 37.4258 57.3283 39.8233 60.4116 40.5991L73.0673 43.815C73.2705 43.8623 73.4733 43.8928 73.6922 43.8895L73.6926 43.9063Z"
                        fill="#0D0D0D" />
                    <path
                        d="M108.482 48.6633C108.168 47.359 108.962 46.051 110.249 45.7418C111.553 45.4322 112.864 46.231 113.178 47.5185C113.492 48.806 112.698 50.1308 111.411 50.44C110.124 50.7493 108.796 49.9508 108.482 48.6633Z"
                        fill="#CBE8CA" />
                    <path
                        d="M110.768 44.7751C111.389 44.7636 111.997 44.9203 112.542 45.2629C113.292 45.7194 113.828 46.4485 114.049 47.301C114.252 48.1538 114.12 49.0465 113.666 49.7939C113.212 50.5413 112.485 51.0754 111.632 51.2927C110.78 51.4932 109.886 51.3586 109.137 50.9021C108.388 50.4457 107.851 49.7166 107.631 48.8641C107.189 47.0918 108.276 45.3082 110.047 44.8723C110.281 44.8176 110.532 44.7794 110.768 44.7751ZM110.873 49.6103C110.991 49.6082 111.092 49.6063 111.208 49.5706C112.027 49.3707 112.53 48.5384 112.327 47.7191C112.234 47.3177 111.975 46.9866 111.635 46.7746C111.277 46.5628 110.873 46.5031 110.471 46.5945C109.652 46.7944 109.15 47.6267 109.352 48.4459C109.519 49.1483 110.168 49.6234 110.873 49.6103Z"
                        fill="#0D0D0D" />
                    <path
                        d="M102.326 21.2762C102.012 19.9719 102.807 18.664 104.094 18.3548C105.397 18.0452 106.709 18.844 107.022 20.1315C107.336 21.419 106.542 22.7437 105.255 23.053C103.968 23.3622 102.64 22.5637 102.326 21.2762Z"
                        fill="#CBE8CA" />
                    <path
                        d="M104.612 17.3872C105.233 17.3757 105.842 17.5324 106.387 17.875C107.136 18.3315 107.673 19.0606 107.893 19.9131C108.097 20.7659 107.965 21.6585 107.511 22.406C107.057 23.1534 106.329 23.6875 105.477 23.9048C104.624 24.1053 103.731 23.9707 102.982 23.5143C102.232 23.0578 101.696 22.3287 101.475 21.4762C101.272 20.6234 101.404 19.7307 101.858 18.9833C102.312 18.2359 103.04 17.7018 103.892 17.4845C104.126 17.4297 104.377 17.3915 104.612 17.3872ZM104.718 22.2225C104.835 22.2203 104.936 22.2184 105.053 22.1827C105.872 21.9828 106.374 21.1505 106.172 20.3312C106.079 19.9298 105.82 19.5987 105.479 19.3867C105.122 19.1749 104.717 19.1152 104.316 19.2066C103.497 19.4065 102.994 20.2388 103.197 21.0581C103.29 21.4595 103.549 21.7906 103.89 22.0026C104.145 22.1491 104.432 22.2277 104.718 22.2225Z"
                        fill="#0D0D0D" />
                    <path
                        d="M22.8208 50.7845C22.5067 49.4802 23.3013 48.1723 24.5883 47.863C25.8753 47.5538 27.2033 48.3523 27.5171 49.6398C27.8313 50.9441 27.0367 52.252 25.7497 52.5613C24.4627 52.8705 23.1347 52.072 22.8208 50.7845Z"
                        fill="#CBE8CA" />
                    <path
                        d="M25.1054 46.8952C25.7268 46.8837 26.3351 47.0404 26.8802 47.3831C27.6295 47.8395 28.1663 48.5686 28.3865 49.4211C28.5899 50.274 28.4582 51.1666 28.0041 51.914C27.55 52.6614 26.8224 53.1956 25.9702 53.4129C24.1988 53.8488 22.4108 52.7565 21.9688 50.9843C21.5269 49.2121 22.6304 47.4281 24.4018 46.9922C24.6359 46.9375 24.8871 46.8993 25.1222 46.8949L25.1054 46.8952ZM25.211 51.7305C25.3286 51.7284 25.4294 51.7265 25.5462 51.6907C25.9474 51.5993 26.2778 51.3413 26.4888 51.0015C26.6995 50.6449 26.7578 50.2407 26.665 49.8393C26.5723 49.4379 26.3298 49.1064 25.9724 48.8947C25.6149 48.683 25.2104 48.6233 24.8091 48.7147C23.9902 48.9146 23.4875 49.7469 23.6902 50.5661C23.8568 51.2685 24.5056 51.7436 25.211 51.7305Z"
                        fill="#0D0D0D" />
                    <path
                        d="M16.6161 23.1749C16.3019 21.8706 17.0966 20.5626 18.3835 20.2534C19.6705 19.9441 20.9985 20.7426 21.3124 22.0301C21.6262 23.3176 20.8319 24.6424 19.5449 24.9516C18.2411 25.2612 16.9299 24.4624 16.6161 23.1749Z"
                        fill="#CBE8CA" />
                    <path
                        d="M18.9006 19.2856C19.5221 19.2741 20.1303 19.4308 20.6755 19.7734C21.4247 20.2299 21.9615 20.959 22.1817 21.8115C22.3852 22.6643 22.2535 23.5569 21.7993 24.3044C21.3452 25.0518 20.6176 25.5859 19.7655 25.8032C17.994 26.2391 16.2056 25.13 15.764 23.3746C15.3221 21.6024 16.4253 19.8016 18.1803 19.3828C18.4143 19.3281 18.6655 19.2899 18.9006 19.2856ZM19.0063 24.1209C19.1238 24.1187 19.2246 24.1168 19.3414 24.0811C19.7427 23.9897 20.0731 23.7316 20.2841 23.3918C20.4947 23.0352 20.5531 22.631 20.4603 22.2296C20.3675 21.8282 20.1251 21.4968 19.7676 21.285C19.4269 21.073 19.0056 21.0136 18.6043 21.105C17.7854 21.3049 17.2828 22.1372 17.4855 22.9565C17.652 23.6588 18.3009 24.1339 19.0063 24.1209Z"
                        fill="#0D0D0D" />
                    <path d="M59.9259 41.8077L61.6331 41.3719L58.242 26.6213L56.5348 27.057L59.9259 41.8077Z"
                        fill="#0D0D0D" />
                    <path d="M65.3997 43.3414L67.1069 42.906L63.7184 28.1548L62.0112 28.5902L65.3997 43.3414Z"
                        fill="#0D0D0D" />
                    <path
                        d="M116.941 1.04335L117.774 2.61978C117.537 2.73814 93.7652 14.8096 71.5477 12.9831L71.6823 11.2187C93.3894 13.0133 116.688 1.17855 116.924 1.06019L116.941 1.04335Z"
                        fill="white" />
                    <path
                        d="M55.3832 5.02453C71.0436 8.94522 87.5837 5.86403 87.7535 5.83019L88.1076 7.58001C87.9378 7.61386 71.0072 10.7796 54.9547 6.74156L55.3832 5.02453Z"
                        fill="white" />
                    <path
                        d="M50.9455 0.0503916C57.744 1.81981 62.8985 2.41986 62.9497 2.43645L62.7482 4.20174C62.7482 4.20174 57.4064 3.56884 50.4887 1.76632L50.9286 0.050463L50.9455 0.0503916Z"
                        fill="white" />
                    <path
                        d="M42.5375 57.8599L43.1493 59.5383C42.3023 59.8429 22.1244 66.7847 9.79697 64.8855L10.0685 63.1376C21.9533 64.9875 42.3343 57.9445 42.5376 57.8767L42.5375 57.8599Z"
                        fill="white" />
                    <path
                        d="M1.08792 65.3992C10.0858 70.9356 22.3945 67.6095 22.5131 67.5756L23.0064 69.2878C22.4809 69.4404 9.83338 72.885 0.134144 66.9138L1.07108 65.416L1.08792 65.3992Z"
                        fill="white" />
                </svg>