                <svg width="88" height="89"
                    viewBox="0 0 88 89" fill="none" xmlns="http://www.w3.org/2000/svg">
                    <path
                        d="M54.1741 30.4329L49.9882 26.4428C46.8325 23.4338 42.9888 21.233 38.7963 20.0412L27.5651 16.8252C26.3416 16.4733 25.0545 17.1796 24.7083 18.4064L19.0804 37.9888C18.728 39.2076 19.4376 40.4904 20.6691 40.8361L31.9003 44.052C36.0991 45.2519 39.9429 47.4527 43.0922 50.4537L47.2782 54.4437C50.8905 57.8854 55.2784 60.399 60.0818 61.7739L69.8222 64.5619C71.0457 64.9138 72.3328 64.2075 72.679 62.9807L78.3068 43.3983C78.6593 42.1795 77.9497 40.8967 76.7181 40.551L66.9777 37.7631C62.1743 36.3881 57.7864 33.8745 54.1741 30.4329Z"
                        fill="white" />
                    <path
                        d="M19.0504 40.378C18.9559 40.2578 18.8694 40.1312 18.7991 39.9921C18.4294 39.3235 18.3399 38.5658 18.5533 37.8304L24.1812 18.248C24.3866 17.5188 24.8747 16.9184 25.5392 16.5424C26.21 16.1745 26.9705 16.0857 27.7088 16.2988L38.94 19.5148C43.2025 20.7296 47.1477 22.9936 50.3555 26.0524L54.5415 30.0424C58.0684 33.4084 62.4231 35.8962 67.1135 37.2429L76.8539 40.0309C77.5921 40.244 78.2031 40.7244 78.5665 41.385C78.9362 42.0536 79.0177 42.8176 78.8123 43.5468L73.1844 63.1292C72.746 64.6349 71.1682 65.516 69.6568 65.0783L59.9164 62.2904C55.0493 60.9004 50.5456 58.322 46.8954 54.8322L42.7095 50.8422C39.6249 47.9071 35.8431 45.7355 31.7429 44.5622L20.5117 41.3463C19.9278 41.1809 19.4239 40.8368 19.0522 40.3638L19.0504 40.378ZM53.7914 30.8213L49.6055 26.8313C46.5209 23.8962 42.739 21.7247 38.6389 20.5513L27.4076 17.3354C26.9511 17.2001 26.4781 17.2585 26.0577 17.4829C25.6436 17.7153 25.3429 18.092 25.2154 18.5406L19.5875 38.123C19.452 38.5778 19.5109 39.0491 19.7364 39.4681C19.9699 39.8808 20.3482 40.1807 20.7985 40.308L32.0297 43.5239C36.2922 44.7388 40.2374 47.0027 43.4452 50.0615L47.6312 54.0516C51.1581 57.4176 55.5128 59.9054 60.2032 61.2521L69.9436 64.04C70.8854 64.3142 71.8693 63.7668 72.1439 62.8285L77.7717 43.2461C77.9073 42.7913 77.8483 42.32 77.6229 41.901C77.3894 41.4883 77.0111 41.1885 76.5608 41.0611L66.8204 38.2732C61.9533 36.8833 57.4496 34.3048 53.7994 30.815L53.7914 30.8213Z"
                        fill="#0D0D0D" />
                    <path
                        d="M69.7634 43.9691C69.7998 43.8502 69.8487 43.7474 69.8994 43.6303L65.8345 42.4685C60.904 41.0635 56.4058 38.4422 52.752 34.865L48.806 30.9984C45.6071 27.8681 41.6719 25.5837 37.3684 24.3493L31.2288 22.5941C30.7949 24.1221 29.1886 24.9997 27.6629 24.5603L24.9583 33.9622C26.4777 34.3936 27.3567 35.9581 26.9452 37.4815L33.0641 39.2269C37.3964 40.4648 41.3379 42.7573 44.5413 45.9099L48.4541 49.7507C52.1187 53.3582 56.6313 55.9812 61.5824 57.3959L65.5837 58.5428C66.0175 57.0148 67.6239 56.1372 69.1496 56.5767L71.7532 47.525C70.2194 47.0918 69.3376 45.4908 69.7778 43.9708L69.7634 43.9691Z"
                        fill="#CBE8CA" />
                    <path
                        d="M26.2669 37.8555L26.4094 37.3435C26.7412 36.1149 26.0236 34.8384 24.8002 34.4864L24.2799 34.3361L27.2776 23.9039L27.7978 24.0542C29.0356 24.4079 30.3387 23.6891 30.701 22.4498L30.8516 21.9315L37.5114 23.837C41.893 25.0881 45.9297 27.4357 49.187 30.6238L53.1331 34.4904C56.7159 37.9937 61.1602 40.5794 65.984 41.9642L70.6392 43.2994L70.3645 43.9403C70.3351 44.002 70.3058 44.0637 70.2908 44.1271C69.9365 45.3602 70.6587 46.659 71.9028 47.0207L72.423 47.1711L69.5183 57.2592L68.9981 57.1089C67.7603 56.7552 66.4571 57.474 66.0949 58.7134L65.9443 59.2316L61.4228 57.9345C56.4017 56.4968 51.7876 53.8106 48.0708 50.1532L44.158 46.3124C41.0256 43.2338 37.1379 40.9768 32.9123 39.7592L26.2812 37.8572L26.2669 37.8555ZM26.8284 34.6245C27.3702 35.314 27.6403 36.2026 27.5448 37.1046L33.1991 38.7209C37.6014 39.9818 41.6444 42.3374 44.9 45.5399L48.8128 49.3806C52.4001 52.9062 56.8651 55.5017 61.7033 56.8882L65.2337 57.898C65.8618 56.5677 67.2901 55.7771 68.7531 55.9552L71.0804 47.856C69.6416 47.1806 68.8253 45.5802 69.1926 44.0007L65.6766 42.9927C60.6761 41.5647 56.0684 38.8866 52.3561 35.2515L48.41 31.3849C45.2822 28.3286 41.4089 26.0733 37.1959 24.8717L31.5353 23.2474C30.9072 24.5777 29.4788 25.3683 28.0158 25.1902L25.5876 33.6396C26.083 33.8739 26.5009 34.2076 26.8222 34.6165L26.8284 34.6245Z"
                        fill="#0D0D0D" />
                    <path d="M34.4649 23.5321L33.4124 23.2372L29.1315 38.1229L30.184 38.4178L34.4649 23.5321Z"
                        fill="#0D0D0D" />
                    <path d="M37.1167 24.2949L36.0641 23.9999L31.7832 38.8856L32.8357 39.1806L37.1167 24.2949Z"
                        fill="#0D0D0D" />
                    <path d="M48.2488 30.2129L47.1963 29.9179L42.9153 44.8036L43.9679 45.0986L48.2488 30.2129Z"
                        fill="#0D0D0D" />
                    <path d="M67.4872 42.9885L66.4347 42.6935L62.1538 57.5792L63.2063 57.8742L67.4872 42.9885Z"
                        fill="#0D0D0D" />
                    <path d="M62.7509 41.6374L61.6984 41.3425L57.4174 56.2282L58.47 56.5232L62.7509 41.6374Z"
                        fill="#0D0D0D" />
                    <path
                        d="M43.7812 34.3591L43.1126 36.6778C42.5299 38.7097 43.1152 40.891 44.6479 42.3465L50.3625 47.8206C51.4179 48.8337 53.1859 48.36 53.5897 46.9589L54.2601 44.6259C54.8428 42.594 54.2512 40.4047 52.7185 38.9492L47.0084 33.4975C45.9531 32.4844 44.185 32.958 43.7875 34.3671L43.7812 34.3591Z"
                        fill="white" />
                    <path
                        d="M43.6752 42.0829C42.4531 40.5274 42.0339 38.4751 42.5918 36.5272L43.2605 34.2084C43.5022 33.3605 44.155 32.7221 45.0046 32.4992C45.8542 32.2763 46.7439 32.5006 47.3758 33.1068L53.086 38.5586C54.7671 40.1699 55.4159 42.5474 54.7801 44.7759L54.1097 47.1089C53.868 47.9569 53.2151 48.5953 52.3655 48.8182C51.516 49.0411 50.6263 48.8168 49.9943 48.2105L44.2796 42.7365C44.0647 42.5291 43.8659 42.3091 43.6832 42.0766L43.6752 42.0829ZM44.3009 34.5091L43.6323 36.8278C43.109 38.6712 43.6327 40.642 45.0215 41.9639L50.7363 47.438C51.095 47.7789 51.6026 47.9132 52.0843 47.7833C52.5659 47.6534 52.9302 47.2917 53.0756 46.8163L53.746 44.4833C54.2773 42.6337 53.7455 40.6691 52.3503 39.3392L46.6401 33.8874C46.2815 33.5465 45.7738 33.4122 45.2985 33.5501C44.8232 33.688 44.4525 34.0417 44.3072 34.5171L44.3009 34.5091Z"
                        fill="#0D0D0D" />
                    <path
                        d="M29.2583 21.3326C29.0396 22.1109 28.213 22.5615 27.4397 22.3368C26.6584 22.1185 26.2119 21.3027 26.4306 20.5244C26.6493 19.7461 27.4759 19.2956 28.2492 19.5202C29.0306 19.7386 29.477 20.5543 29.2583 21.3326Z"
                        fill="#CBE8CA" />
                    <path
                        d="M26.252 22.1634C26.189 22.0832 26.1196 21.995 26.0727 21.9023C25.8094 21.4351 25.7448 20.8907 25.9017 20.3804C26.0523 19.8621 26.395 19.4397 26.8637 19.1777C27.3324 18.9157 27.8789 18.8516 28.3912 19.0083C28.9115 19.1586 29.3357 19.5003 29.599 19.9674C29.8623 20.4345 29.9269 20.979 29.77 21.4893C29.4654 22.5544 28.3499 23.1656 27.2805 22.8614C26.8652 22.7456 26.5086 22.5064 26.2502 22.1777L26.252 22.1634ZM28.5688 20.3569C28.4491 20.2045 28.2811 20.0898 28.0981 20.0386C27.8594 19.966 27.6086 19.9935 27.3903 20.112C27.172 20.2304 27.0168 20.4291 26.9441 20.6668C26.8714 20.9045 26.8992 21.1544 27.0182 21.3719C27.1373 21.5895 27.3367 21.7443 27.5754 21.8168C28.067 21.9637 28.5903 21.672 28.7231 21.1806C28.7958 20.9429 28.768 20.693 28.6426 20.4674C28.6111 20.4273 28.5877 20.381 28.5562 20.3409L28.5688 20.3569Z"
                        fill="#0D0D0D" />
                    <path
                        d="M24.5862 37.5249C24.3675 38.3032 23.5409 38.7538 22.7676 38.5291C21.9943 38.3045 21.5398 37.495 21.7585 36.7167C21.9772 35.9384 22.8038 35.4879 23.5771 35.7125C24.3584 35.9309 24.8049 36.7466 24.5862 37.5249Z"
                        fill="#CBE8CA" />
                    <path
                        d="M21.5888 38.3494C21.2045 37.8603 21.0516 37.2036 21.2322 36.5584C21.3828 36.0401 21.7255 35.6177 22.1943 35.3557C22.663 35.0937 23.2094 35.0296 23.7217 35.1863C24.2421 35.3366 24.6663 35.6783 24.9296 36.1454C25.1929 36.6125 25.2575 37.157 25.1006 37.6673C24.7959 38.7324 23.6804 39.3436 22.6111 39.0394C22.1894 38.9156 21.8409 38.6701 21.5888 38.3494ZM23.9056 36.5429C23.7859 36.3906 23.6242 36.2839 23.4349 36.2246C23.1963 36.152 22.9454 36.1795 22.7191 36.3042C22.5008 36.4227 22.3456 36.6214 22.2729 36.8591C22.1258 37.3488 22.4189 37.8703 22.9123 38.0029C23.4039 38.1497 23.9272 37.8581 24.0599 37.3666C24.1326 37.1289 24.1049 36.879 23.9795 36.6534C23.948 36.6133 23.9245 36.567 23.893 36.5269L23.9056 36.5429Z"
                        fill="#0D0D0D" />
                    <path
                        d="M75.0605 44.7233C74.8418 45.5016 74.0153 45.9522 73.2419 45.7275C72.4606 45.5092 72.0078 44.6854 72.2328 43.9151C72.4578 43.1448 73.27 42.6926 74.0514 42.9109C74.8328 43.1293 75.2792 43.945 75.0605 44.7233Z"
                        fill="#CBE8CA" />
                    <path
                        d="M72.063 45.5479C71.9999 45.4677 71.9306 45.3795 71.8918 45.2805C71.6284 44.8134 71.5638 44.2689 71.7207 43.7586C72.0254 42.6935 73.1409 42.0823 74.2102 42.3865C75.2796 42.6906 75.9 43.8104 75.5891 44.8675C75.2844 45.9327 74.1689 46.5438 73.0996 46.2397C72.6842 46.1238 72.3276 45.8847 72.0693 45.5559L72.063 45.5479ZM74.3798 43.7414C74.26 43.589 74.0984 43.4823 73.9091 43.423C73.6704 43.3505 73.4196 43.378 73.2076 43.5045C72.9893 43.6229 72.8341 43.8216 72.7614 44.0593C72.6887 44.297 72.7165 44.5469 72.8355 44.7645C72.9546 44.982 73.1541 45.1368 73.3927 45.2093C73.8843 45.3562 74.4076 45.0646 74.5404 44.5731C74.6281 44.272 74.5562 43.9659 74.3798 43.7414Z"
                        fill="#0D0D0D" />
                    <path
                        d="M70.3581 61.0419C70.1394 61.8202 69.3128 62.2708 68.5395 62.0461C67.7581 61.8278 67.3117 61.012 67.5304 60.2337C67.7491 59.4554 68.5757 59.0049 69.349 59.2295C70.1304 59.4479 70.5768 60.2636 70.3581 61.0419Z"
                        fill="#CBE8CA" />
                    <path
                        d="M67.3523 61.8723C67.2893 61.7921 67.22 61.7039 67.173 61.6112C66.9097 61.144 66.8451 60.5996 67.002 60.0893C67.1526 59.571 67.4953 59.1486 67.964 58.8866C68.4327 58.6246 68.9792 58.5605 69.4915 58.7172C70.5609 59.0213 71.175 60.133 70.8704 61.1982C70.7198 61.7165 70.3771 62.1389 69.9084 62.4009C69.4397 62.6629 68.8932 62.7269 68.3809 62.5703C67.9655 62.4545 67.6089 62.2153 67.3506 61.8866L67.3523 61.8723ZM69.6691 60.0658C69.5494 59.9134 69.3877 59.8068 69.1984 59.7475C68.6987 59.6069 68.1835 59.8922 68.0507 60.3837C67.978 60.6214 68.0058 60.8713 68.1392 61.0906C68.2582 61.3081 68.4577 61.4629 68.6964 61.5355C68.935 61.608 69.1859 61.5806 69.4122 61.4558C69.6305 61.3374 69.7857 61.1387 69.8584 60.901C69.9461 60.5999 69.8742 60.2938 69.6978 60.0693L69.6691 60.0658Z"
                        fill="#0D0D0D" />
                    <path d="M52.9074 38.8122L51.8571 38.5169L49.349 47.2476L50.3993 47.5428L52.9074 38.8122Z"
                        fill="#0D0D0D" />
                    <path d="M50.4685 36.4329L49.4182 36.1376L46.9101 44.8682L47.9604 45.1635L50.4685 36.4329Z"
                        fill="#0D0D0D" />
                    <path
                        d="M68.5944 50.2801L68.9655 49.2665C72.2487 50.4565 77.1487 51.9374 81.8564 52.2493L81.7911 53.3218C76.9525 53.0085 71.9475 51.4931 68.5944 50.2801Z"
                        fill="white" />
                    <path
                        d="M14.7944 55.1209C13.2323 53.1324 13.0854 51.2946 13.0787 51.1705L14.1564 51.1059C14.1669 51.3175 14.6182 56.2668 22.0719 58.3416C30.5183 60.6896 35.6909 62.552 38.8104 65.6146L38.0478 66.3774C35.1117 63.4821 29.8593 61.6173 21.7788 59.3719C18.1466 58.3641 16.0291 56.6924 14.7944 55.1209Z"
                        fill="white" />
                    <path
                        d="M17.1433 54.0814C13.118 48.958 15.3615 44.9457 15.4702 44.7704L16.4012 45.3115C16.3166 45.468 14.2871 49.1583 18.4323 53.9556L17.6112 54.6605C17.4457 54.4663 17.2865 54.2801 17.1353 54.0877L17.1433 54.0814Z"
                        fill="white" />
                </svg>