                <svg width="126"
                    height="128" viewBox="0 0 126 128" fill="none" xmlns="http://www.w3.org/2000/svg">
                    <path
                        d="M77.7087 44.0804L71.6982 38.3511C67.1671 34.0306 61.6479 30.8705 55.628 29.1591L39.5013 24.5415C37.7445 24.0361 35.8964 25.0502 35.3993 26.8118L27.3184 54.9298C26.8123 56.6799 27.8312 58.5218 29.5996 59.0182L45.7262 63.6358C51.7552 65.3587 57.2744 68.5188 61.7965 72.8279L67.807 78.5571C72.9938 83.4989 79.2943 87.1081 86.1914 89.0824L100.177 93.0855C101.934 93.5908 103.782 92.5767 104.279 90.8151L112.36 62.6972C112.866 60.9471 111.848 59.1051 110.079 58.6088L96.0931 54.6056C89.1961 52.6314 82.8956 49.0222 77.7087 44.0804Z"
                        fill="white" />
                    <path
                        d="M27.2751 58.3604C27.1394 58.1878 27.0152 58.0061 26.9142 57.8063C26.3834 56.8463 26.2548 55.7583 26.5613 54.7023L34.6422 26.5843C34.9372 25.5374 35.6381 24.6752 36.5922 24.1353C37.5555 23.607 38.6474 23.4796 39.7075 23.7856L55.8341 28.4033C61.9545 30.1477 67.6195 33.3984 72.2255 37.7906L78.236 43.5198C83.3003 48.3529 89.553 51.9251 96.2878 53.8588L110.274 57.862C111.334 58.168 112.211 58.8578 112.733 59.8063C113.264 60.7663 113.381 61.8634 113.086 62.9104L105.005 91.0284C104.375 93.1903 102.11 94.4556 99.9398 93.8271L85.9537 89.8239C78.9652 87.8281 72.4984 84.1257 67.2572 79.1149L61.2467 73.3857C56.8176 69.1712 51.3873 66.0531 45.5 64.3684L29.3733 59.7507C28.5349 59.5133 27.8113 59.0192 27.2776 58.3399L27.2751 58.3604ZM77.159 44.6381L71.1485 38.9089C66.7193 34.6945 61.2891 31.5764 55.4017 29.8916L39.2751 25.2739C38.6195 25.0796 37.9404 25.1636 37.3367 25.4858C36.7421 25.8195 36.3103 26.3604 36.1273 27.0045L28.0463 55.1225C27.8517 55.7756 27.9364 56.4523 28.2601 57.0539C28.5954 57.6465 29.1385 58.077 29.7851 58.2598L45.9118 62.8775C52.0322 64.6219 57.6971 67.8726 62.3031 72.2648L68.3136 77.994C73.3779 82.8272 79.6307 86.3994 86.3655 88.3331L100.352 92.3362C101.704 92.7298 103.117 91.9439 103.511 90.5966L111.592 62.4787C111.786 61.8256 111.702 61.1489 111.378 60.5472C111.043 59.9546 110.5 59.5241 109.853 59.3413L95.867 55.3382C88.8785 53.3423 82.4117 49.64 77.1705 44.6291L77.159 44.6381Z"
                        fill="#0D0D0D" />
                    <path
                        d="M100.093 63.5167C100.145 63.3461 100.215 63.1985 100.288 63.0303L94.4515 61.3621C87.3719 59.3447 80.913 55.5808 75.6666 50.4444L70.0007 44.8925C65.4075 40.3978 59.7569 37.1175 53.5776 35.3451L44.7619 32.8249C44.139 35.0189 41.8324 36.2791 39.6417 35.648L35.7583 49.1481C37.94 49.7676 39.2021 52.014 38.6112 54.2014L47.3973 56.7076C53.6178 58.485 59.2774 61.7768 63.8771 66.3036L69.4954 71.8184C74.7574 76.9984 81.2369 80.7648 88.3461 82.7961L94.0914 84.4429C94.7144 82.2489 97.0209 80.9887 99.2116 81.6198L102.95 68.6227C100.748 68.0006 99.4816 65.7017 100.114 63.5193L100.093 63.5167Z"
                        fill="#CBE8CA" />
                    <path
                        d="M37.637 54.7384L37.8417 54.0032C38.3182 52.2391 37.2877 50.4062 35.531 49.9009L34.784 49.685L39.0883 34.7056L39.8353 34.9215C41.6126 35.4293 43.4837 34.3972 44.0039 32.6177L44.2201 31.8735L53.7828 34.6095C60.0742 36.406 65.8705 39.7769 70.5476 44.3547L76.2137 49.9066C81.3581 54.9369 87.7397 58.6497 94.6661 60.638L101.35 62.5552L100.956 63.4755C100.914 63.564 100.872 63.6526 100.85 63.7437C100.341 65.5143 101.378 67.3793 103.165 67.8986L103.912 68.1145L99.7409 82.5999L98.9939 82.384C97.2166 81.8762 95.3454 82.9083 94.8253 84.6879L94.6091 85.432L88.1167 83.5695C80.907 81.5051 74.2817 77.648 68.9448 72.3965L63.3265 66.8816C58.8288 62.461 53.2465 59.2203 47.1791 57.4719L37.6576 54.7409L37.637 54.7384ZM38.4434 50.0991C39.2213 51.0892 39.6091 52.365 39.472 53.6602L47.5909 55.9811C53.912 57.7916 59.7173 61.174 64.3919 65.7723L70.0102 71.2871C75.1612 76.3495 81.5725 80.0763 88.5195 82.0671L93.5887 83.517C94.4905 81.6069 96.5414 80.4717 98.6421 80.7274L101.984 69.098C99.918 68.1282 98.7458 65.8303 99.2733 63.5622L94.2247 62.1148C87.0446 60.0644 80.4284 56.2189 75.098 50.9994L69.432 45.4475C64.9408 41.0589 59.3791 37.8207 53.3298 36.0953L45.2018 33.763C44.2999 35.6731 42.249 36.8083 40.1483 36.5526L36.6617 48.6849C37.3731 49.0214 37.973 49.5005 38.4343 50.0876L38.4434 50.0991Z"
                        fill="#0D0D0D" />
                    <path d="M49.4087 34.172L47.8974 33.7485L41.7505 55.1226L43.2618 55.5461L49.4087 34.172Z"
                        fill="#0D0D0D" />
                    <path d="M53.2163 35.2673L51.705 34.8437L45.5581 56.2178L47.0694 56.6414L53.2163 35.2673Z"
                        fill="#0D0D0D" />
                    <path d="M69.2007 43.7648L67.6894 43.3413L61.5425 64.7154L63.0538 65.1389L69.2007 43.7648Z"
                        fill="#0D0D0D" />
                    <path d="M96.8247 62.1091L95.3134 61.6855L89.1665 83.0596L90.6778 83.4832L96.8247 62.1091Z"
                        fill="#0D0D0D" />
                    <path d="M90.0239 60.1691L88.5126 59.7456L82.3657 81.1197L83.877 81.5432L90.0239 60.1691Z"
                        fill="#0D0D0D" />
                    <path
                        d="M62.7861 49.7184L61.826 53.0478C60.9893 55.9654 61.8298 59.0975 64.0305 61.1874L72.236 69.0475C73.7514 70.5022 76.2901 69.8221 76.87 67.8103L77.8325 64.4604C78.6692 61.5428 77.8197 58.3992 75.619 56.3093L67.42 48.4812C65.9046 47.0266 63.3659 47.7067 62.7951 49.7299L62.7861 49.7184Z"
                        fill="white" />
                    <path
                        d="M62.6337 60.8091C60.8788 58.5756 60.277 55.6287 61.0781 52.8318L62.0381 49.5024C62.3853 48.2848 63.3226 47.3681 64.5425 47.0481C65.7625 46.728 67.0399 47.0501 67.9473 47.9206L76.1465 55.7487C78.5603 58.0623 79.4919 61.4762 78.5789 64.676L77.6164 68.026C77.2693 69.2435 76.3319 70.1602 75.112 70.4802C73.8921 70.8003 72.6146 70.4782 71.7072 69.6077L63.5015 61.7477C63.193 61.4498 62.9075 61.1339 62.6452 60.8001L62.6337 60.8091ZM63.5321 49.9341L62.572 53.2635C61.8206 55.9103 62.5726 58.7401 64.5669 60.6383L72.7726 68.4984C73.2876 68.988 74.0165 69.1808 74.7081 68.9943C75.3996 68.8077 75.9228 68.2883 76.1315 67.6058L77.0941 64.2558C77.857 61.6 77.0935 58.7792 75.0901 56.8695L66.891 49.0415C66.3759 48.5519 65.6471 48.359 64.9646 48.5571C64.282 48.7551 63.7498 49.263 63.5411 49.9456L63.5321 49.9341Z"
                        fill="#0D0D0D" />
                    <path
                        d="M41.9322 31.0141C41.6182 32.1317 40.4313 32.7786 39.3209 32.456C38.199 32.1425 37.558 30.9712 37.872 29.8536C38.186 28.7361 39.3729 28.0892 40.4833 28.4117C41.6052 28.7253 42.2462 29.8966 41.9322 31.0141Z"
                        fill="#CBE8CA" />
                    <path
                        d="M37.6156 32.2069C37.5251 32.0918 37.4256 31.9651 37.3582 31.832C36.9801 31.1613 36.8873 30.3795 37.1126 29.6468C37.3288 28.9026 37.8209 28.2961 38.4939 27.9198C39.1669 27.5436 39.9516 27.4517 40.6872 27.6765C41.4343 27.8924 42.0434 28.383 42.4215 29.0538C42.7996 29.7245 42.8923 30.5063 42.6671 31.239C42.2297 32.7684 40.6279 33.646 39.0925 33.2092C38.4961 33.0429 37.984 32.6995 37.6131 32.2275L37.6156 32.2069ZM40.9422 29.613C40.7703 29.3943 40.5291 29.2295 40.2663 29.1559C39.9237 29.0517 39.5635 29.0912 39.2501 29.2613C38.9367 29.4314 38.7137 29.7167 38.6094 30.058C38.505 30.3993 38.5449 30.7582 38.7158 31.0705C38.8867 31.3829 39.1732 31.6051 39.5158 31.7093C40.2218 31.9202 40.9732 31.5014 41.1638 30.7958C41.2681 30.4544 41.2283 30.0956 41.0483 29.7717C41.0031 29.7141 40.9694 29.6476 40.9241 29.59L40.9422 29.613Z"
                        fill="#0D0D0D" />
                    <path
                        d="M35.2234 54.2641C34.9094 55.3816 33.7225 56.0285 32.6121 55.706C31.5018 55.3834 30.8492 54.2211 31.1632 53.1036C31.4772 51.986 32.6641 51.3391 33.7745 51.6617C34.8964 51.9752 35.5374 53.1465 35.2234 54.2641Z"
                        fill="#CBE8CA" />
                    <path
                        d="M30.9195 55.4479C30.3676 54.7456 30.1482 53.8026 30.4075 52.8763C30.6237 52.1321 31.1158 51.5256 31.7888 51.1493C32.4619 50.7731 33.2465 50.6811 33.9821 50.906C34.7292 51.1219 35.3383 51.6125 35.7164 52.2832C36.0945 52.954 36.1873 53.7358 35.962 54.4685C35.5246 55.9979 33.9228 56.8755 32.3874 56.4387C31.7819 56.2609 31.2814 55.9085 30.9195 55.4479ZM34.2462 52.854C34.0743 52.6353 33.8421 52.4821 33.5703 52.3969C33.2276 52.2927 32.8674 52.3322 32.5425 52.5113C32.2291 52.6814 32.0061 52.9667 31.9018 53.308C31.6906 54.0111 32.1114 54.76 32.8198 54.9503C33.5257 55.1612 34.2771 54.7424 34.4677 54.0367C34.5721 53.6954 34.5323 53.3366 34.3523 53.0127C34.307 52.9551 34.2733 52.8885 34.2281 52.831L34.2462 52.854Z"
                        fill="#0D0D0D" />
                    <path
                        d="M107.699 64.6004C107.385 65.718 106.198 66.3649 105.088 66.0423C103.966 65.7288 103.316 64.546 103.639 63.4399C103.962 62.3339 105.128 61.6845 106.25 61.998C107.372 62.3116 108.013 63.4829 107.699 64.6004Z"
                        fill="#CBE8CA" />
                    <path
                        d="M103.395 65.7844C103.304 65.6692 103.205 65.5426 103.149 65.4004C102.771 64.7297 102.678 63.9479 102.903 63.2152C103.341 61.6858 104.943 60.8082 106.478 61.245C108.013 61.6817 108.904 63.2895 108.458 64.8074C108.02 66.3369 106.419 67.2144 104.883 66.7777C104.287 66.6114 103.775 66.2679 103.404 65.7959L103.395 65.7844ZM106.721 63.1905C106.55 62.9717 106.317 62.8185 106.046 62.7334C105.703 62.6292 105.343 62.6687 105.038 62.8503C104.725 63.0204 104.502 63.3056 104.398 63.647C104.293 63.9883 104.333 64.3471 104.504 64.6595C104.675 64.9718 104.961 65.1941 105.304 65.2983C106.01 65.5091 106.761 65.0904 106.952 64.3847C107.078 63.9523 106.975 63.5128 106.721 63.1905Z"
                        fill="#0D0D0D" />
                    <path
                        d="M100.947 88.0317C100.633 89.1493 99.4461 89.7962 98.3357 89.4736C97.2137 89.1601 96.5727 87.9888 96.8867 86.8713C97.2007 85.7537 98.3876 85.1068 99.498 85.4294C100.62 85.7429 101.261 86.9142 100.947 88.0317Z"
                        fill="#CBE8CA" />
                    <path
                        d="M96.631 89.2239C96.5405 89.1088 96.441 88.9821 96.3736 88.849C95.9956 88.1782 95.9028 87.3965 96.128 86.6638C96.3443 85.9196 96.8363 85.3131 97.5094 84.9368C98.1824 84.5606 98.9671 84.4687 99.7027 84.6935C101.238 85.1303 102.12 86.7266 101.683 88.256C101.466 89.0002 100.974 89.6067 100.301 89.9829C99.6282 90.3592 98.8435 90.4511 98.1079 90.2262C97.5115 90.0599 96.9995 89.7165 96.6285 89.2444L96.631 89.2239ZM99.9577 86.63C99.7858 86.4113 99.5536 86.2581 99.2818 86.1729C98.5643 85.9711 97.8245 86.3808 97.6339 87.0865C97.5295 87.4278 97.5694 87.7867 97.7609 88.1015C97.9318 88.4139 98.2183 88.6362 98.5609 88.7403C98.9036 88.8445 99.2638 88.8051 99.5888 88.6259C99.9022 88.4558 100.125 88.1706 100.229 87.8293C100.355 87.3969 100.252 86.9574 99.9989 86.635L99.9577 86.63Z"
                        fill="#0D0D0D" />
                    <path d="M75.8898 56.1125L74.3818 55.6885L70.7804 68.2246L72.2885 68.6486L75.8898 56.1125Z"
                        fill="#0D0D0D" />
                    <path d="M72.3879 52.696L70.8798 52.272L67.2784 64.8081L68.7865 65.2321L72.3879 52.696Z"
                        fill="#0D0D0D" />
                    <path
                        d="M98.4154 72.5789L98.9483 71.1236C103.663 72.8322 110.698 74.9586 117.458 75.4064L117.364 76.9464C110.417 76.4966 103.23 74.3206 98.4154 72.5789Z"
                        fill="white" />
                    <path
                        d="M21.1651 79.5297C18.922 76.6745 18.7111 74.0355 18.7015 73.8574L20.2489 73.7647C20.2641 74.0684 20.9121 81.1751 31.6146 84.1543C43.7427 87.5257 51.17 90.1999 55.6491 94.5974L54.5541 95.6927C50.3382 91.5354 42.7965 88.8577 31.1938 85.6336C25.9784 84.1865 22.9379 81.7862 21.1651 79.5297Z"
                        fill="white" />
                    <path
                        d="M24.5379 78.0372C18.7579 70.6805 21.9794 64.9193 22.1355 64.6676L23.4723 65.4447C23.3508 65.6693 20.4367 70.9682 26.3887 77.8564L25.2098 78.8686C24.9721 78.5898 24.7434 78.3225 24.5263 78.0462L24.5379 78.0372Z"
                        fill="white" />
                </svg>