                <svg width="100" height="88"
                    viewBox="0 0 100 88" fill="none" xmlns="http://www.w3.org/2000/svg">
                    <path
                        d="M42.8687 19.3224L34.4292 20.543C28.0657 21.4621 22.0128 23.9153 16.8123 27.6919L2.85414 37.7878C1.33172 38.8862 0.978563 41.022 2.08604 42.5408L19.6701 66.9018C20.7626 68.4207 22.8965 68.766 24.419 67.6526L38.3772 57.5567C43.5927 53.7801 49.6456 51.3269 55.9941 50.4078L64.4336 49.1872C71.7147 48.1325 78.626 45.3331 84.5951 41.0149L96.6992 32.2581C98.2216 31.1597 98.5748 29.0238 97.4673 27.505L79.8832 3.14404C78.7908 1.62524 76.6568 1.27987 75.1344 2.39327L63.0302 11.1501C57.0611 15.4683 50.1499 18.2677 42.8687 19.3224Z"
                        fill="white" />
                    <path
                        d="M22.4135 69.113C22.1879 69.113 21.9624 69.098 21.737 69.053C20.625 68.8728 19.6647 68.2864 19.0062 67.3691L1.42213 43.0081C0.763625 42.1058 0.511823 40.9929 0.681037 39.8799C0.865287 38.7668 1.45499 37.804 2.37447 37.142L16.3326 27.0461C21.6235 23.2093 27.8421 20.6959 34.3109 19.7617L42.7504 18.5411C49.8661 17.5165 56.7171 14.7321 62.5506 10.5192L74.6547 1.7624C75.5742 1.10037 76.6878 0.82934 77.7848 1.00953C78.8969 1.18973 79.8572 1.7911 80.5157 2.69336L98.0998 27.0544C99.4466 28.9341 99.0316 31.5663 97.1474 32.9205L85.0433 41.6773C78.9988 46.0557 71.9068 48.9304 64.5354 49.9852L56.0959 51.2057C49.8828 52.1098 43.9202 54.5179 38.8253 58.2042L24.8672 68.3001C24.1436 68.8267 23.2856 69.0977 22.3985 69.0979L22.4135 69.113ZM42.9705 20.1203L34.531 21.3409C28.318 22.2449 22.3554 24.653 17.2605 28.3393L3.30228 38.4353C2.72951 38.8415 2.36658 39.4432 2.24392 40.1351C2.1363 40.827 2.29932 41.5188 2.70339 42.0752L20.2875 66.4363C20.6915 67.0077 21.2917 67.3685 21.983 67.4887C22.6743 67.5938 23.3665 67.4282 23.9243 67.0219L37.8825 56.926C43.1733 53.0892 49.3919 50.5758 55.8607 49.6415L64.3002 48.421C71.4159 47.3964 78.2669 44.612 84.1004 40.3991L96.2045 31.6423C97.3802 30.7997 97.6415 29.1602 96.8035 27.9873L79.2194 3.62621C78.8153 3.05477 78.2151 2.69397 77.5239 2.57382C76.8326 2.46872 76.1403 2.63435 75.5826 3.0406L63.4785 11.7974C57.4339 16.1758 50.342 19.0505 42.9706 20.1053L42.9705 20.1203Z"
                        fill="#0D0D0D" />
                    <path
                        d="M72.764 13.5711C72.6592 13.4207 72.5846 13.2703 72.4949 13.1049L67.4454 16.7608C61.3258 21.1991 54.1891 24.0283 46.713 25.0077L38.6352 26.0625C32.0917 26.9213 25.8584 29.4044 20.5075 33.271L12.8806 38.7925C14.2574 40.6872 13.8123 43.3494 11.9131 44.7185L20.3533 56.4177C22.2374 55.0486 24.8523 55.454 26.2442 57.3187L33.841 51.8122C39.2221 47.9155 45.4705 45.4324 52.044 44.5886L60.0616 43.5489C67.5828 42.5846 74.7345 39.7403 80.8843 35.287L85.8583 31.6912C84.4815 29.7965 84.9267 27.1343 86.8258 25.7652L78.6999 14.5021C76.8007 15.8863 74.1408 15.4508 72.7791 13.556L72.764 13.5711Z"
                        fill="#CBE8CA" />
                    <path
                        d="M26.0599 58.4461L25.596 57.8145C24.4734 56.3108 22.3395 55.9804 20.8171 57.0787L20.169 57.5451L10.8009 44.5678L11.449 44.1014C12.9865 42.988 13.3397 40.8222 12.2324 39.2733L11.7685 38.6267L20.0436 32.6387C25.485 28.6969 31.8839 26.1535 38.5478 25.2796L46.6256 24.2248C53.9513 23.2605 60.9977 20.4613 66.9967 16.1283L72.7848 11.9457L73.2779 12.848C73.3227 12.9383 73.3675 13.0285 73.4274 13.1037C74.5348 14.6375 76.6988 14.9829 78.2513 13.8695L78.8994 13.4031L87.9532 25.9594L87.305 26.4258C85.7675 27.5392 85.4143 29.7051 86.5217 31.2539L86.9856 31.9005L81.3633 35.9627C75.1231 40.4763 67.8057 43.3808 60.1792 44.3603L52.1616 45.4C45.7385 46.2287 39.5804 48.6818 34.32 52.4732L26.075 58.4311L26.0599 58.4461ZM22.8245 54.8523C24.1176 54.852 25.3939 55.348 26.353 56.2803L33.3771 51.195C38.8486 47.2381 45.2626 44.6948 51.9414 43.8359L59.9591 42.7961C67.3148 41.8468 74.3913 39.0326 80.4054 34.6846L84.7917 31.51C83.821 29.5701 84.205 27.1936 85.7439 25.6592L78.4709 15.5841C76.3774 16.6374 73.7779 16.1266 72.2807 14.262L67.9095 17.4215C61.6994 21.92 54.3971 24.8246 46.8006 25.819L38.7227 26.8738C32.3296 27.7176 26.1867 30.1556 20.9563 33.947L13.9172 39.0323C14.8879 40.9722 14.5039 43.3486 12.965 44.8831L20.5522 55.3943C21.2752 55.0331 22.0426 54.8525 22.8095 54.8523L22.8245 54.8523Z"
                        fill="#0D0D0D" />
                    <path d="M16.9167 35.8945L15.616 36.8464L28.9801 55.368L30.2807 54.416L16.9167 35.8945Z"
                        fill="#0D0D0D" />
                    <path d="M20.2158 33.5137L18.9152 34.4656L32.2792 52.9872L33.5799 52.0352L20.2158 33.5137Z"
                        fill="#0D0D0D" />
                    <path d="M37.2174 25.9939L35.9167 26.9459L49.2808 45.4675L50.5815 44.5155L37.2174 25.9939Z"
                        fill="#0D0D0D" />
                    <path d="M69.5544 15.318L68.2538 16.27L81.6178 34.7916L82.9185 33.8396L69.5544 15.318Z"
                        fill="#0D0D0D" />
                    <path d="M63.6739 19.5803L62.3733 20.5323L75.7374 39.0539L77.038 38.1019L63.6739 19.5803Z"
                        fill="#0D0D0D" />
                    <path
                        d="M37.957 34.9505L40.0371 37.8376C41.8628 40.3639 44.9255 41.6717 48.0093 41.2198L59.5621 39.578C61.6981 39.2768 62.759 36.795 61.502 35.0507L59.407 32.1485C57.5813 29.6222 54.5035 28.3144 51.4197 28.7663L39.897 30.4231C37.7609 30.7244 36.7 33.2061 37.972 34.9504L37.957 34.9505Z"
                        fill="white" />
                    <path
                        d="M46.8179 42.1086C43.901 42.1093 41.1392 40.7262 39.3883 38.3052L37.3083 35.4181C36.5451 34.3654 36.3993 33.0269 36.9145 31.8387C37.4298 30.6504 38.5002 29.823 39.7788 29.6422L51.3017 27.9852C54.7013 27.5032 58.0494 28.9162 60.0547 31.683L62.1498 34.5852C62.913 35.6379 63.0588 36.9764 62.5435 38.1646C62.0282 39.3529 60.9579 40.1803 59.6792 40.3611L48.1264 42.003C47.6901 42.0633 47.254 42.0935 46.818 42.0936L46.8179 42.1086ZM38.6045 34.4853L40.6846 37.3725C42.3457 39.6581 45.1082 40.8457 47.9062 40.439L59.4591 38.797C60.1811 38.6915 60.7992 38.2252 61.0872 37.5483C61.3751 36.8714 61.2875 36.1195 60.8686 35.518L58.7735 32.6158C57.1124 30.3151 54.3499 29.1426 51.5369 29.5493L40.014 31.2063C39.292 31.3118 38.6739 31.7781 38.401 32.455C38.128 33.1318 38.2006 33.8838 38.6195 34.4853L38.6045 34.4853Z"
                        fill="#0D0D0D" />
                    <path
                        d="M9.62334 39.929C10.3268 40.8914 10.0965 42.2603 9.13166 42.9526C8.16681 43.6598 6.81422 43.4346 6.1108 42.4722C5.40738 41.5097 5.63768 40.1409 6.60249 39.4486C7.56734 38.7414 8.91992 38.9665 9.62334 39.929Z"
                        fill="#CBE8CA" />
                    <path
                        d="M7.84888 44.1721C7.6985 44.1722 7.53309 44.1722 7.38282 44.1422C6.60129 44.0221 5.91103 43.6012 5.46215 42.9545C4.99823 42.3079 4.82049 41.5257 4.9435 40.7435C5.06651 39.9613 5.48998 39.2693 6.13816 38.8178C6.78639 38.3513 7.56897 38.1705 8.3505 38.2906C9.13203 38.4107 9.82229 38.8317 10.2712 39.4783C11.229 40.8017 10.9218 42.6519 9.59516 43.615C9.08258 43.9912 8.48041 44.187 7.86388 44.1872L7.84888 44.1721ZM7.86391 39.8401C7.5782 39.8402 7.29217 39.9305 7.06604 40.096C6.76456 40.3067 6.56798 40.6227 6.50658 40.9837C6.44517 41.3447 6.53415 41.7057 6.74363 42.0065C6.95311 42.3072 7.26822 42.5027 7.62891 42.5627C7.9896 42.6228 8.3508 42.5324 8.65228 42.3217C9.27034 41.8853 9.40872 41.0128 8.95968 40.4113C8.7502 40.1105 8.43508 39.9151 8.05935 39.8551C7.98417 39.8551 7.90904 39.8401 7.83385 39.8401L7.86391 39.8401Z"
                        fill="#0D0D0D" />
                    <path
                        d="M24.1462 60.0951C24.8497 61.0575 24.6193 62.4264 23.6545 63.1186C22.6897 63.8109 21.3371 63.6007 20.6337 62.6383C19.9303 61.6758 20.1606 60.3069 21.1254 59.6147C22.0902 58.9074 23.4428 59.1326 24.1462 60.0951Z"
                        fill="#CBE8CA" />
                    <path
                        d="M22.3722 64.3226C21.4549 64.3229 20.5541 63.902 19.9704 63.105C19.5065 62.4583 19.3288 61.6762 19.4518 60.894C19.5748 60.1118 19.9983 59.4197 20.6464 58.9682C21.2947 58.5017 22.0772 58.321 22.8588 58.4411C23.6403 58.5611 24.3306 58.9821 24.7795 59.6288C25.7373 60.9521 25.4301 62.8024 24.1034 63.7655C23.5758 64.1417 22.9737 64.3224 22.3722 64.3226ZM22.3872 59.9905C22.1015 59.9906 21.8305 60.0809 21.5894 60.2465C21.2879 60.4572 21.0913 60.7731 21.0298 61.1492C20.9684 61.5102 21.0574 61.8712 21.2669 62.1719C21.7008 62.7885 22.5726 62.9236 23.1756 62.4722C23.7937 62.0358 23.932 61.1633 23.483 60.5618C23.2735 60.261 22.9584 60.0656 22.5827 60.0055C22.5075 60.0055 22.4323 59.9905 22.3572 59.9905L22.3872 59.9905Z"
                        fill="#0D0D0D" />
                    <path
                        d="M78.4636 8.11589C79.167 9.07834 78.9367 10.4472 77.9719 11.1394C77.0071 11.8467 75.6394 11.6215 74.951 10.6591C74.2627 9.69663 74.4779 8.34281 75.4428 7.63553C76.4076 6.92825 77.7602 7.15344 78.4636 8.11589Z"
                        fill="#CBE8CA" />
                    <path
                        d="M76.6901 12.343C76.5398 12.3431 76.3743 12.3431 76.2241 12.298C75.4426 12.178 74.7523 11.757 74.3034 11.1104C73.3456 9.78699 73.6528 7.93675 74.9795 6.97364C76.3061 6.01054 78.1697 6.31078 79.1125 7.63416C80.0703 8.95753 79.7631 10.8078 78.4365 11.7709C77.9239 12.1471 77.3217 12.3428 76.7052 12.343L76.6901 12.343ZM76.7052 8.01098C76.4194 8.01107 76.1485 8.10141 75.9073 8.26694C75.6058 8.47762 75.4092 8.79356 75.3629 9.15458C75.3015 9.5156 75.3904 9.87658 75.5999 10.1773C75.8094 10.4781 76.1245 10.6736 76.4852 10.7336C76.8459 10.7937 77.2071 10.7033 77.5086 10.4926C78.1266 10.0562 78.265 9.18373 77.816 8.58221C77.5466 8.20625 77.1262 8.01084 76.7052 8.01098Z"
                        fill="#0D0D0D" />
                    <path
                        d="M93.1042 28.4316C93.8077 29.3941 93.5773 30.763 92.6125 31.4552C91.6477 32.1625 90.2951 31.9373 89.5917 30.9748C88.8882 30.0124 89.1185 28.6435 90.0834 27.9513C91.0482 27.244 92.4008 27.4692 93.1042 28.4316Z"
                        fill="#CBE8CA" />
                    <path
                        d="M91.3297 32.6734C91.1793 32.6734 91.0139 32.6735 90.8636 32.6434C90.0821 32.5234 89.3918 32.1024 88.9429 31.4558C88.479 30.8091 88.3013 30.027 88.4243 29.2448C88.5473 28.4626 88.9708 27.7705 89.6189 27.319C90.9456 26.3559 92.7941 26.6562 93.752 27.9796C94.2159 28.6262 94.3936 29.4083 94.2706 30.1905C94.1476 30.9727 93.7241 31.6648 93.0759 32.1163C92.5634 32.4925 91.9612 32.6882 91.3447 32.6884L91.3297 32.6734ZM91.3447 28.3413C91.059 28.3414 90.788 28.4317 90.5468 28.5973C89.9287 29.0487 89.7904 29.9062 90.2394 30.5077C90.4489 30.8085 90.764 31.0039 91.1398 31.0489C91.5005 31.109 91.8617 31.0186 92.1632 30.8079C92.4647 30.5972 92.6613 30.2813 92.7227 29.9052C92.7841 29.5442 92.6952 29.1832 92.4857 28.8825C92.2163 28.5065 91.7959 28.3111 91.3749 28.3112L91.3447 28.3413Z"
                        fill="#0D0D0D" />
                    <path d="M51.4323 28.4239L50.1334 29.373L57.974 40.233L59.2729 39.2839L51.4323 28.4239Z"
                        fill="#0D0D0D" />
                    <path d="M46.4526 29.0848L45.1536 30.0339L52.9942 40.8939L54.2932 39.9448L46.4526 29.0848Z"
                        fill="#0D0D0D" />
                    <path
                        d="M79.019 20.6732L78.1816 19.3197C82.5517 16.596 88.7317 12.2623 93.3809 7.08676L94.5652 8.13931C89.7952 13.4653 83.4795 17.8893 79.019 20.6732Z"
                        fill="white" />
                    <path
                        d="M35.6347 87.4738C31.906 87.4745 29.6409 85.971 29.4909 85.8658L30.3974 84.5572C30.6524 84.7376 36.8032 88.7218 45.9977 81.9675C56.4131 74.3106 63.2838 70.0081 69.6765 69.1797L69.8666 70.7588C63.8349 71.5269 56.8887 75.9197 46.9255 83.2456C42.4488 86.5401 38.5816 87.4732 35.6347 87.4738Z"
                        fill="white" />
                    <path
                        d="M36.569 83.8021C26.9613 83.8041 24.3515 77.5482 24.2472 77.2625L25.7227 76.6756C25.8271 76.9162 28.2584 82.6308 37.5969 82.1926L37.6666 83.7868C37.2907 83.8019 36.9298 83.817 36.5689 83.8171L36.569 83.8021Z"
                        fill="white" />
                </svg>