                <svg width="141"
                    height="143" viewBox="0 0 141 143" fill="none" xmlns="http://www.w3.org/2000/svg">
                    <path
                        d="M86.913 48.4229L80.1905 42.015C75.1227 37.1826 68.9497 33.6482 62.2167 31.7341L44.1797 26.5695C42.2148 26.0043 40.1478 27.1385 39.5918 29.1088L30.5537 60.5574C29.9876 62.5148 31.1272 64.575 33.1051 65.1301L51.142 70.2948C57.8852 72.2217 64.0581 75.7562 69.1159 80.5757L75.8384 86.9835C81.6397 92.5107 88.6865 96.5475 96.4005 98.7556L112.043 103.233C114.008 103.798 116.075 102.664 116.631 100.694L125.669 69.245C126.235 67.2876 125.096 65.2274 123.118 64.6723L107.475 60.1949C99.7611 57.9868 92.7143 53.95 86.913 48.4229Z"
                        fill="white" />
                    <path
                        d="M30.5043 64.3944C30.3525 64.2013 30.2137 63.998 30.1007 63.7747C29.5069 62.7009 29.3632 61.484 29.706 60.3029L38.7441 28.8542C39.074 27.6832 39.8579 26.7189 40.9251 26.1151C42.0025 25.5242 43.2238 25.3817 44.4094 25.724L62.4463 30.8886C69.2917 32.8396 75.6277 36.4755 80.7793 41.3879L87.5018 47.7957C93.166 53.2014 100.159 57.1968 107.692 59.3595L123.335 63.8369C124.52 64.1791 125.502 64.9506 126.085 66.0115C126.679 67.0853 126.81 68.3123 126.48 69.4833L117.442 100.932C116.738 103.35 114.204 104.765 111.777 104.062L96.1338 99.5849C88.3174 97.3527 81.0846 93.2117 75.2225 87.6073L68.5001 81.1994C63.5463 76.4858 57.4728 72.9983 50.888 71.114L32.8511 65.9493C31.9133 65.6838 31.1041 65.1312 30.5071 64.3715L30.5043 64.3944ZM86.2972 49.0466L79.5747 42.6387C74.621 37.925 68.5474 34.4376 61.9627 32.5533L43.9257 27.3886C43.1925 27.1713 42.4329 27.2652 41.7578 27.6255C41.0927 27.9988 40.6098 28.6038 40.4051 29.3241L31.3669 60.7729C31.1492 61.5033 31.2439 62.2602 31.606 62.9331C31.981 63.5959 32.5885 64.0774 33.3116 64.2819L51.3486 69.4465C58.1941 71.3976 64.53 75.0334 69.6816 79.9458L76.4041 86.3537C82.0683 91.7593 89.0617 95.7547 96.5943 97.9174L112.237 102.395C113.75 102.835 115.33 101.956 115.771 100.449L124.809 69.0004C125.027 68.27 124.932 67.5132 124.57 66.8402C124.195 66.1774 123.587 65.6959 122.864 65.4914L107.221 61.0141C99.405 58.7819 92.1722 54.641 86.3101 49.0365L86.2972 49.0466Z"
                        fill="#0D0D0D" />
                    <path
                        d="M111.949 70.1611C112.007 69.9703 112.086 69.8052 112.167 69.6171L105.639 67.7512C97.7209 65.4949 90.4969 61.2851 84.629 55.5403L78.2918 49.3307C73.1546 44.3036 66.8347 40.6348 59.9234 38.6524L50.0634 35.8337C49.3667 38.2875 46.7869 39.697 44.3367 38.9912L39.9932 54.0904C42.4334 54.7833 43.845 57.2958 43.1842 59.7424L53.0109 62.5454C59.9683 64.5334 66.2983 68.2151 71.4429 73.278L77.7267 79.4462C83.612 85.2398 90.859 89.4523 98.8104 91.7243L105.236 93.5661C105.933 91.1122 108.513 89.7028 110.963 90.4085L115.144 75.8719C112.681 75.1762 111.265 72.6049 111.972 70.1639L111.949 70.1611Z"
                        fill="#CBE8CA" />
                    <path
                        d="M42.0947 60.3432L42.3236 59.5209C42.8565 57.5479 41.704 55.4978 39.7392 54.9326L38.9037 54.6912L43.7178 37.9374L44.5533 38.1788C46.5412 38.7468 48.6339 37.5925 49.2157 35.6021L49.4575 34.7698L60.153 37.8299C67.1897 39.8392 73.6726 43.6094 78.9037 48.7294L85.2409 54.939C90.9948 60.5652 98.1323 64.7178 105.879 66.9416L113.355 69.0859L112.914 70.1152C112.867 70.2142 112.82 70.3133 112.796 70.4152C112.227 72.3955 113.387 74.4814 115.385 75.0623L116.22 75.3037L111.555 91.505L110.72 91.2636C108.732 90.6956 106.639 91.8499 106.057 93.8403L105.815 94.6726L98.554 92.5894C90.4902 90.2805 83.0801 85.9666 77.111 80.0929L70.8272 73.9248C65.7967 68.9805 59.5532 65.356 52.7671 63.4005L42.1177 60.3459L42.0947 60.3432ZM42.9965 55.1543C43.8666 56.2617 44.3003 57.6887 44.147 59.1373L53.2277 61.733C60.2975 63.758 66.7905 67.541 72.0189 72.684L78.3027 78.8522C84.0639 84.5142 91.2345 88.6825 99.0044 90.9091L104.674 92.5308C105.683 90.3944 107.977 89.1247 110.326 89.4107L114.064 76.4038C111.753 75.319 110.442 72.7489 111.032 70.2122L105.385 68.5933C97.3548 66.3001 89.9549 61.9991 83.9931 56.1613L77.6559 49.9517C72.6327 45.0432 66.4122 41.4214 59.6464 39.4917L50.5555 36.8831C49.5468 39.0195 47.253 40.2891 44.9035 40.0032L41.0038 53.5726C41.7995 53.9489 42.4704 54.4848 42.9864 55.1415L42.9965 55.1543Z"
                        fill="#0D0D0D" />
                    <path d="M55.2603 37.3412L53.57 36.8675L46.695 60.7735L48.3853 61.2472L55.2603 37.3412Z"
                        fill="#0D0D0D" />
                    <path d="M59.5189 38.566L57.8286 38.0923L50.9536 61.9983L52.6439 62.472L59.5189 38.566Z"
                        fill="#0D0D0D" />
                    <path d="M77.3975 48.0704L75.7072 47.5967L68.8321 71.5027L70.5224 71.9764L77.3975 48.0704Z"
                        fill="#0D0D0D" />
                    <path d="M108.293 68.5878L106.603 68.1141L99.728 92.0201L101.418 92.4938L108.293 68.5878Z"
                        fill="#0D0D0D" />
                    <path d="M100.687 66.4174L98.9966 65.9437L92.1215 89.8497L93.8119 90.3234L100.687 66.4174Z"
                        fill="#0D0D0D" />
                    <path
                        d="M70.2226 54.7292L69.1488 58.453C68.213 61.7162 69.153 65.2193 71.6145 67.5568L80.7919 76.3479C82.4868 77.9749 85.3263 77.2143 85.9748 74.9642L87.0514 71.2175C87.9872 67.9543 87.037 64.4383 84.5756 62.1008L75.4054 53.3455C73.7105 51.7185 70.8711 52.4792 70.2327 54.7421L70.2226 54.7292Z"
                        fill="white" />
                    <path
                        d="M70.0518 67.134C68.0891 64.6359 67.416 61.34 68.312 58.2117L69.3858 54.4879C69.774 53.1261 70.8224 52.1008 72.1868 51.7429C73.5512 51.3849 74.98 51.7451 75.9949 52.7188L85.1653 61.4741C87.8651 64.0618 88.907 67.8801 87.8859 71.4589L86.8093 75.2057C86.4211 76.5675 85.3727 77.5927 84.0082 77.9507C82.6438 78.3087 81.2151 77.9484 80.2001 76.9748L71.0224 68.1837C70.6774 67.8506 70.3581 67.4973 70.0647 67.1239L70.0518 67.134ZM71.0567 54.9707L69.9829 58.6945C69.1425 61.6549 69.9835 64.8199 72.214 66.943L81.3918 75.7341C81.9678 76.2817 82.783 76.4973 83.5565 76.2887C84.33 76.0801 84.9151 75.4992 85.1485 74.7357L86.2251 70.989C87.0785 68.0185 86.2245 64.8636 83.9838 62.7277L74.8134 53.9724C74.2374 53.4248 73.4222 53.2091 72.6588 53.4306C71.8954 53.6521 71.3002 54.2202 71.0668 54.9836L71.0567 54.9707Z"
                        fill="#0D0D0D" />
                    <path
                        d="M46.8986 33.8096C46.5473 35.0595 45.2199 35.7831 43.978 35.4223C42.7231 35.0716 42.0062 33.7616 42.3574 32.5116C42.7086 31.2617 44.036 30.5382 45.278 30.8989C46.5328 31.2496 47.2498 32.5597 46.8986 33.8096Z"
                        fill="#CBE8CA" />
                    <path
                        d="M42.0707 35.1433C41.9695 35.0146 41.8582 34.8729 41.7829 34.724C41.36 33.9738 41.2562 33.0994 41.5082 32.2799C41.75 31.4476 42.3004 30.7692 43.0531 30.3484C43.8059 29.9276 44.6835 29.8248 45.5062 30.0763C46.3419 30.3177 47.0231 30.8665 47.446 31.6167C47.8688 32.3669 47.9726 33.2413 47.7206 34.0608C47.2314 35.7714 45.4399 36.7529 43.7226 36.2644C43.0555 36.0784 42.4828 35.6943 42.0679 35.1663L42.0707 35.1433ZM45.7915 32.2422C45.5992 31.9975 45.3294 31.8133 45.0355 31.7309C44.6523 31.6144 44.2494 31.6586 43.8988 31.8488C43.5483 32.0391 43.299 32.3581 43.1823 32.7399C43.0656 33.1216 43.1101 33.523 43.3013 33.8723C43.4925 34.2217 43.8129 34.4703 44.1961 34.5868C44.9857 34.8226 45.8261 34.3543 46.0393 33.565C46.156 33.1833 46.1114 32.7819 45.9101 32.4197C45.8595 32.3553 45.8218 32.2808 45.7712 32.2164L45.7915 32.2422Z"
                        fill="#0D0D0D" />
                    <path
                        d="M39.3943 59.8131C39.0431 61.063 37.7157 61.7865 36.4738 61.4257C35.2318 61.065 34.5019 59.765 34.8532 58.5151C35.2044 57.2652 36.5318 56.5416 37.7738 56.9024C39.0286 57.2531 39.7456 58.5631 39.3943 59.8131Z"
                        fill="#CBE8CA" />
                    <path
                        d="M34.5804 61.137C33.9631 60.3514 33.7177 59.2968 34.0078 58.2606C34.2496 57.4283 34.8 56.75 35.5527 56.3292C36.3055 55.9083 37.1831 55.8055 38.0058 56.057C38.8414 56.2985 39.5227 56.8472 39.9455 57.5974C40.3684 58.3476 40.4721 59.222 40.2202 60.0415C39.7309 61.7521 37.9395 62.7336 36.2222 62.2451C35.545 62.0462 34.9852 61.652 34.5804 61.137ZM38.3012 58.2358C38.1089 57.9911 37.8492 57.8198 37.5452 57.7245C37.1619 57.608 36.7591 57.6522 36.3956 57.8525C36.0451 58.0427 35.7957 58.3618 35.679 58.7435C35.4428 59.53 35.9134 60.3675 36.7058 60.5804C37.4954 60.8162 38.3357 60.3479 38.5489 59.5586C38.6656 59.1769 38.6211 58.7755 38.4198 58.4133C38.3692 58.3489 38.3315 58.2744 38.2809 58.21L38.3012 58.2358Z"
                        fill="#0D0D0D" />
                    <path
                        d="M120.455 71.373C120.103 72.6229 118.776 73.3465 117.534 72.9857C116.279 72.635 115.552 71.3121 115.913 70.0751C116.275 68.838 117.579 68.1117 118.834 68.4624C120.089 68.8131 120.806 70.1231 120.455 71.373Z"
                        fill="#CBE8CA" />
                    <path
                        d="M115.641 72.6977C115.54 72.5689 115.429 72.4272 115.366 72.2682C114.943 71.518 114.84 70.6436 115.091 69.8242C115.581 68.1136 117.372 67.1321 119.09 67.6205C120.807 68.109 121.803 69.9073 121.304 71.605C120.815 73.3156 119.023 74.2971 117.306 73.8086C116.639 73.6226 116.066 73.2385 115.651 72.7105L115.641 72.6977ZM119.362 69.7965C119.17 69.5518 118.91 69.3805 118.606 69.2852C118.223 69.1687 117.82 69.2129 117.479 69.416C117.129 69.6063 116.879 69.9253 116.763 70.307C116.646 70.6888 116.691 71.0902 116.882 71.4395C117.073 71.7889 117.393 72.0375 117.777 72.154C118.566 72.3898 119.407 71.9214 119.62 71.1322C119.761 70.6486 119.645 70.157 119.362 69.7965Z"
                        fill="#0D0D0D" />
                    <path
                        d="M112.904 97.5815C112.553 98.8315 111.226 99.555 109.984 99.1942C108.729 98.8436 108.012 97.5335 108.363 96.2836C108.714 95.0337 110.042 94.3101 111.284 94.6709C112.538 95.0216 113.255 96.3316 112.904 97.5815Z"
                        fill="#CBE8CA" />
                    <path
                        d="M108.078 98.915C107.976 98.7862 107.865 98.6446 107.79 98.4956C107.367 97.7454 107.263 96.871 107.515 96.0516C107.757 95.2192 108.307 94.5409 109.06 94.1201C109.813 93.6993 110.69 93.5964 111.513 93.8479C113.23 94.3364 114.217 96.1218 113.727 97.8324C113.486 98.6648 112.935 99.3431 112.182 99.7639C111.43 100.185 110.552 100.288 109.729 100.036C109.062 99.85 108.49 99.4659 108.075 98.9379L108.078 98.915ZM111.798 96.0138C111.606 95.7692 111.346 95.5978 111.042 95.5026C110.24 95.2768 109.412 95.7351 109.199 96.5244C109.082 96.9061 109.127 97.3075 109.341 97.6597C109.532 98.009 109.853 98.2576 110.236 98.3741C110.619 98.4906 111.022 98.4465 111.386 98.2462C111.736 98.0559 111.986 97.7369 112.102 97.3551C112.243 96.8715 112.128 96.38 111.844 96.0194L111.798 96.0138Z"
                        fill="#0D0D0D" />
                    <path d="M84.8779 61.8807L83.1912 61.4065L79.1632 75.4276L80.8499 75.9018L84.8779 61.8807Z"
                        fill="#0D0D0D" />
                    <path d="M80.9617 58.0594L79.275 57.5852L75.247 71.6063L76.9337 72.0805L80.9617 58.0594Z"
                        fill="#0D0D0D" />
                    <path
                        d="M110.073 80.2975L110.669 78.6698C115.941 80.5808 123.811 82.9592 131.371 83.46L131.266 85.1824C123.496 84.6793 115.458 82.2455 110.073 80.2975Z"
                        fill="white" />
                    <path
                        d="M23.6717 88.0719C21.1629 84.8785 20.927 81.9269 20.9163 81.7277L22.6469 81.624C22.6639 81.9637 23.3887 89.9122 35.359 93.2443C48.9237 97.0151 57.2307 100.006 62.2405 104.925L61.0158 106.15C56.3005 101.5 47.8654 98.5049 34.8883 94.8988C29.0551 93.2804 25.6544 90.5957 23.6717 88.0719Z"
                        fill="white" />
                    <path
                        d="M27.4453 86.4027C20.9807 78.1746 24.5837 71.7309 24.7583 71.4494L26.2535 72.3185C26.1176 72.5698 22.8582 78.4963 29.5153 86.2005L28.1967 87.3326C27.9309 87.0207 27.6752 86.7218 27.4323 86.4127L27.4453 86.4027Z"
                        fill="white" />
                </svg>