                <svg width="89" height="77"
                    viewBox="0 0 89 77" fill="none" xmlns="http://www.w3.org/2000/svg">
                    <path
                        d="M38.5823 16.3488L31.0726 17.4349C25.4102 18.2528 20.0241 20.4357 15.3966 23.7962L2.9762 32.7799C1.6215 33.7572 1.30726 35.6578 2.29272 37.0092L17.9395 58.6864C18.9116 60.0378 20.8105 60.3451 22.1652 59.3544L34.5856 50.3708C39.2265 47.0103 44.6126 44.8273 50.2616 44.0094L57.7714 42.9234C64.2503 41.9848 70.4001 39.4939 75.7117 35.6514L86.4822 27.8593C87.8369 26.882 88.1512 24.9814 87.1657 23.63L71.5189 1.95283C70.5468 0.601354 68.648 0.294037 67.2932 1.28478L56.5226 9.07684C51.2111 12.9193 45.0613 15.4103 38.5823 16.3488Z"
                        fill="white" />
                    <path
                        d="M20.3803 60.654C20.1796 60.6541 19.979 60.6407 19.7784 60.6006C18.7889 60.4403 17.9344 59.9186 17.3485 59.1023L1.70163 37.4252C1.11567 36.6223 0.891613 35.632 1.04218 34.6416C1.20614 33.6511 1.73087 32.7944 2.54905 32.2054L14.9694 23.2217C19.6774 19.8076 25.2109 17.5711 30.967 16.7398L38.4767 15.6537C44.8085 14.742 50.9047 12.2644 56.0955 8.51563L66.8661 0.723545C67.6843 0.134451 68.6752 -0.106716 69.6514 0.0536265C70.6409 0.213965 71.4954 0.749083 72.0814 1.55194L87.7282 23.2291C88.9266 24.9017 88.5574 27.2439 86.8808 28.4489L76.1102 36.241C70.7316 40.137 64.4209 42.695 57.8617 43.6335L50.3519 44.7196C44.8234 45.5241 39.5177 47.6669 34.9841 50.9471L22.5637 59.9307C21.9199 60.3993 21.1564 60.6404 20.367 60.6406L20.3803 60.654ZM38.6726 17.059L31.1629 18.145C25.6343 18.9495 20.3286 21.0923 15.795 24.3725L3.37464 33.3561C2.86498 33.7176 2.54203 34.253 2.43288 34.8687C2.33712 35.4844 2.48218 36.1 2.84174 36.5951L18.4886 58.2722C18.8481 58.7807 19.3822 59.1018 19.9973 59.2087C20.6124 59.3022 21.2284 59.1548 21.7247 58.7933L34.1451 49.8097C38.853 46.3956 44.3865 44.1591 50.1426 43.3278L57.6524 42.2417C63.9841 41.33 70.0803 38.8524 75.2711 35.1036L86.0417 27.3115C87.0879 26.5618 87.3204 25.1029 86.5747 24.0592L70.9278 2.38202C70.5683 1.87354 70.0342 1.55248 69.4191 1.44558C68.804 1.35206 68.188 1.49944 67.6917 1.86092L56.9212 9.65301C51.5425 13.549 45.2319 16.107 38.6727 17.0456L38.6726 17.059Z"
                        fill="#0D0D0D" />
                    <path
                        d="M65.1836 11.2313C65.0904 11.0975 65.0239 10.9637 64.9442 10.8165L60.451 14.0697C55.0055 18.019 48.6551 20.5365 42.0027 21.408L34.8148 22.3465C28.9922 23.1107 23.4457 25.3203 18.6843 28.7609L11.8976 33.6741C13.1227 35.36 12.7266 37.7289 11.0367 38.9472L18.547 49.3574C20.2236 48.1392 22.5504 48.5 23.789 50.1592L30.5488 45.2594C35.3371 41.792 40.897 39.5825 46.7463 38.8316L53.8806 37.9065C60.5732 37.0484 66.937 34.5174 72.4092 30.5548L76.8353 27.3551C75.6102 25.6692 76.0063 23.3003 77.6962 22.082L70.4655 12.0598C68.7755 13.2915 66.4087 12.9039 65.197 11.2179L65.1836 11.2313Z"
                        fill="#CBE8CA" />
                    <path
                        d="M23.6255 51.1624L23.2127 50.6004C22.2138 49.2623 20.3149 48.9684 18.9603 49.9457L18.3835 50.3607L10.0476 38.8131L10.6243 38.398C11.9924 37.4074 12.3067 35.4801 11.3213 34.1019L10.9085 33.5265L18.272 28.1982C23.1139 24.6907 28.8078 22.4276 34.7375 21.6499L41.9254 20.7113C48.4441 19.8532 54.7141 17.3624 60.0522 13.5068L65.2026 9.78504L65.6414 10.5879C65.6812 10.6682 65.7211 10.7485 65.7744 10.8154C66.7598 12.1802 68.6854 12.4876 70.0668 11.4969L70.6436 11.0819L78.6998 22.2548L78.1231 22.6699C76.755 23.6605 76.4407 25.5878 77.4261 26.966L77.8389 27.5414L72.836 31.1561C67.2833 35.1723 60.7721 37.7569 53.9858 38.6284L46.8515 39.5536C41.136 40.291 35.6564 42.4738 30.9755 45.8475L23.6389 51.149L23.6255 51.1624ZM20.7465 47.9645C21.8971 47.9642 23.0328 48.4056 23.8863 49.2352L30.1365 44.7102C35.0052 41.1892 40.7125 38.9261 46.6556 38.1618L53.7899 37.2366C60.3353 36.3919 66.6321 33.8877 71.9837 30.0187L75.8867 27.1939C75.0229 25.4677 75.3646 23.3531 76.734 21.9877L70.2623 13.0225C68.3994 13.9598 66.0863 13.5053 64.7541 11.8461L60.8644 14.6576C55.3385 18.6605 48.8407 21.245 42.0811 22.1299L34.8932 23.0685C29.2044 23.8193 23.7383 25.9887 19.0841 29.3624L12.8205 33.8874C13.6843 35.6136 13.3426 37.7282 11.9732 39.0936L18.7246 48.4468C19.3679 48.1255 20.0508 47.9647 20.7331 47.9645L20.7465 47.9645Z"
                        fill="#0D0D0D" />
                    <path d="M15.4896 31.0948L14.3322 31.9419L26.2239 48.4229L27.3813 47.5758L15.4896 31.0948Z"
                        fill="#0D0D0D" />
                    <path d="M18.4255 28.9763L17.2682 29.8234L29.1599 46.3044L30.3173 45.4573L18.4255 28.9763Z"
                        fill="#0D0D0D" />
                    <path d="M33.5548 22.2852L32.3975 23.1323L44.2892 39.6134L45.4465 38.7663L33.5548 22.2852Z"
                        fill="#0D0D0D" />
                    <path d="M62.3289 12.7858L61.1716 13.6329L73.0633 30.1139L74.2207 29.2668L62.3289 12.7858Z"
                        fill="#0D0D0D" />
                    <path d="M57.0966 16.5784L55.9393 17.4255L67.831 33.9066L68.9884 33.0595L57.0966 16.5784Z"
                        fill="#0D0D0D" />
                    <path
                        d="M34.2127 30.255L36.0636 32.824C37.6882 35.072 40.4135 36.2357 43.1575 35.8336L53.4375 34.3727C55.3382 34.1047 56.2823 31.8963 55.1637 30.3442L53.2995 27.7617C51.6749 25.5138 48.9362 24.35 46.1922 24.7521L35.9389 26.2264C34.0382 26.4945 33.0942 28.7028 34.2261 30.255L34.2127 30.255Z"
                        fill="white" />
                    <path
                        d="M42.0972 36.624C39.5017 36.6245 37.0441 35.3939 35.4861 33.2396L33.6352 30.6705C32.9561 29.7338 32.8264 28.5428 33.2849 27.4855C33.7434 26.4281 34.6958 25.6918 35.8336 25.531L46.087 24.0566C49.1121 23.6276 52.0913 24.8849 53.8757 27.347L55.7399 29.9294C56.419 30.8661 56.5488 32.0571 56.0903 33.1145C55.6318 34.1718 54.6793 34.9081 53.5416 35.0689L43.2615 36.53C42.8733 36.5836 42.4852 36.6105 42.0972 36.6106L42.0972 36.624ZM34.7887 29.8405L36.6396 32.4096C38.1177 34.4434 40.5758 35.5001 43.0656 35.1382L53.3456 33.6772C53.9882 33.5833 54.5381 33.1683 54.7944 32.566C55.0506 31.9638 54.9726 31.2947 54.5999 30.7594L52.7356 28.1769C51.2575 26.1297 48.7994 25.0864 46.2963 25.4483L36.0429 26.9228C35.4004 27.0166 34.8504 27.4316 34.6075 28.0338C34.3647 28.6361 34.4293 29.3053 34.802 29.8405L34.7887 29.8405Z"
                        fill="#0D0D0D" />
                    <path
                        d="M8.99975 34.6855C9.62567 35.5419 9.42074 36.76 8.56223 37.376C7.70368 38.0053 6.50011 37.8049 5.87418 36.9485C5.24826 36.0921 5.45319 34.874 6.3117 34.2581C7.17025 33.6287 8.37382 33.8291 8.99975 34.6855Z"
                        fill="#CBE8CA" />
                    <path
                        d="M7.42068 38.4608C7.28687 38.4609 7.13968 38.4609 7.00597 38.4342C6.31054 38.3273 5.69632 37.9528 5.2969 37.3774C4.88409 36.802 4.72593 36.106 4.83539 35.41C4.94485 34.7139 5.32166 34.0981 5.89843 33.6964C6.47525 33.2813 7.17161 33.1204 7.86704 33.2273C8.56247 33.3341 9.17668 33.7087 9.57611 34.2841C10.4284 35.4617 10.1551 37.1081 8.97458 37.9651C8.51847 38.2999 7.98264 38.474 7.43403 38.4742L7.42068 38.4608ZM7.43406 34.606C7.17982 34.6061 6.92531 34.6865 6.72409 34.8338C6.45582 35.0213 6.2809 35.3024 6.22626 35.6237C6.17162 35.9449 6.2508 36.2661 6.4372 36.5338C6.6236 36.8014 6.90399 36.9753 7.22494 37.0287C7.5459 37.0822 7.86731 37.0018 8.13557 36.8143C8.68553 36.426 8.80867 35.6496 8.4091 35.1144C8.2227 34.8467 7.9423 34.6728 7.60797 34.6194C7.54106 34.6194 7.47421 34.606 7.40731 34.6061L7.43406 34.606Z"
                        fill="#0D0D0D" />
                    <path
                        d="M21.9229 52.6289C22.5488 53.4853 22.3438 54.7034 21.4853 55.3194C20.6268 55.9353 19.4232 55.7484 18.7973 54.8919C18.1713 54.0355 18.3763 52.8174 19.2348 52.2015C20.0934 51.5721 21.2969 51.7725 21.9229 52.6289Z"
                        fill="#CBE8CA" />
                    <path
                        d="M20.3443 56.3909C19.528 56.3912 18.7265 56.0167 18.2071 55.3075C17.7943 54.7321 17.6361 54.0361 17.7456 53.3401C17.8551 52.644 18.2319 52.0282 18.8086 51.6265C19.3854 51.2114 20.0818 51.0506 20.7772 51.1574C21.4727 51.2643 22.0869 51.6388 22.4863 52.2143C23.3386 53.3918 23.0653 55.0382 21.8848 55.8952C21.4153 56.23 20.8795 56.3908 20.3443 56.3909ZM20.3576 52.5362C20.1034 52.5362 19.8623 52.6166 19.6477 52.7639C19.3794 52.9514 19.2045 53.2325 19.1498 53.5672C19.0951 53.8884 19.1743 54.2096 19.3607 54.4772C19.7469 55.0259 20.5225 55.1461 21.0592 54.7444C21.6091 54.3561 21.7322 53.5797 21.3327 53.0445C21.1463 52.7768 20.8659 52.6029 20.5316 52.5495C20.4647 52.5495 20.3978 52.5361 20.3309 52.5362L20.3576 52.5362Z"
                        fill="#0D0D0D" />
                    <path
                        d="M70.2568 6.37739C70.8828 7.23381 70.6778 8.45187 69.8193 9.06784C68.9608 9.69719 67.7438 9.49682 67.1313 8.6404C66.5187 7.78398 66.7102 6.57931 67.5688 5.94995C68.4273 5.3206 69.6309 5.52098 70.2568 6.37739Z"
                        fill="#CBE8CA" />
                    <path
                        d="M68.6788 10.1383C68.545 10.1383 68.3978 10.1384 68.2641 10.0982C67.5687 9.9914 66.9545 9.61682 66.5551 9.04141C65.7028 7.86384 65.9761 6.21744 67.1566 5.36044C68.3371 4.50345 69.9954 4.77061 70.8343 5.94819C71.6866 7.12577 71.4132 8.77216 70.2327 9.62916C69.7766 9.96392 69.2408 10.1381 68.6922 10.1383L68.6788 10.1383ZM68.6922 6.28349C68.4379 6.28358 68.1968 6.36396 67.9822 6.51126C67.7139 6.69873 67.539 6.97986 67.4977 7.3011C67.4431 7.62235 67.5223 7.94356 67.7087 8.21119C67.8951 8.47882 68.1755 8.65274 68.4964 8.70617C68.8174 8.75961 69.1388 8.67919 69.4071 8.49172C69.957 8.10339 70.0802 7.32705 69.6806 6.79179C69.4409 6.45725 69.0668 6.28337 68.6922 6.28349Z"
                        fill="#0D0D0D" />
                    <path
                        d="M83.2852 24.455C83.9112 25.3114 83.7062 26.5295 82.8477 27.1454C81.9891 27.7748 80.7856 27.5744 80.1596 26.718C79.5337 25.8616 79.7387 24.6435 80.5972 24.0275C81.4557 23.3982 82.6593 23.5985 83.2852 24.455Z"
                        fill="#CBE8CA" />
                    <path
                        d="M81.7061 28.2291C81.5723 28.2292 81.4251 28.2292 81.2914 28.2025C80.596 28.0956 79.9818 27.7211 79.5823 27.1457C79.1695 26.5703 79.0114 25.8743 79.1208 25.1783C79.2303 24.4822 79.6071 23.8664 80.1839 23.4647C81.3644 22.6077 83.0093 22.8749 83.8615 24.0524C84.2744 24.6278 84.4325 25.3238 84.3231 26.0198C84.2136 26.7159 83.8368 27.3317 83.26 27.7334C82.8039 28.0682 82.2681 28.2423 81.7195 28.2425L81.7061 28.2291ZM81.7195 24.3743C81.4653 24.3744 81.2241 24.4548 81.0095 24.6021C80.4595 25.0038 80.3364 25.7668 80.736 26.3021C80.9224 26.5697 81.2028 26.7436 81.5372 26.7836C81.8582 26.8371 82.1796 26.7567 82.4478 26.5692C82.7161 26.3817 82.891 26.1006 82.9457 25.766C83.0004 25.4447 82.9212 25.1235 82.7348 24.8559C82.4951 24.5213 82.121 24.3474 81.7464 24.3476L81.7195 24.3743Z"
                        fill="#0D0D0D" />
                    <path d="M46.2029 24.4473L45.0471 25.2918L52.0239 34.9553L53.1797 34.1108L46.2029 24.4473Z"
                        fill="#0D0D0D" />
                    <path d="M41.7715 25.0353L40.6157 25.8798L47.5925 35.5433L48.7483 34.6988L41.7715 25.0353Z"
                        fill="#0D0D0D" />
                    <path
                        d="M70.7512 17.5508L70.0061 16.3465C73.8947 13.9228 79.3938 10.0666 83.5308 5.46121L84.5846 6.39779C80.3401 11.137 74.7203 15.0736 70.7512 17.5508Z"
                        fill="white" />
                    <path
                        d="M32.1462 76.9922C28.8283 76.9928 26.8127 75.6549 26.6793 75.5613L27.486 74.3969C27.7129 74.5574 33.186 78.1027 41.3675 72.0925C50.6354 65.2792 56.7492 61.4507 62.4376 60.7136L62.6067 62.1187C57.2396 62.8022 51.0586 66.711 42.1931 73.2298C38.2096 76.1613 34.7685 76.9917 32.1462 76.9922Z"
                        fill="white" />
                    <path
                        d="M32.978 73.725C24.4288 73.7268 22.1065 68.1601 22.0137 67.9058L23.3266 67.3836C23.4196 67.5977 25.583 72.6827 33.8927 72.2928L33.9547 73.7114C33.6202 73.7248 33.299 73.7383 32.9779 73.7384L32.978 73.725Z"
                        fill="white" />
                </svg>