                <svg width="168" height="146"
                    viewBox="0 0 168 146" fill="none" xmlns="http://www.w3.org/2000/svg">
                    <path
                        d="M72.3413 30.9525L58.1101 33.0111C47.3796 34.5614 37.1797 38.6934 28.4239 45.0523L4.92292 62.0516C2.35964 63.901 1.77344 67.4959 3.64844 70.0516L33.4199 111.044C35.2696 113.599 38.8709 114.18 41.4342 112.305L64.9352 95.3057C73.7164 88.9468 83.9162 84.8147 94.6213 83.2645L108.853 81.2059C121.13 79.4269 132.777 74.7119 142.827 67.4409L163.206 52.6964C165.769 50.847 166.355 47.252 164.48 44.6963L134.709 3.70415C132.859 1.14846 129.258 0.568277 126.695 2.44299L106.315 17.1875C96.2652 24.4584 84.6192 29.1735 72.3413 30.9525Z"
                        fill="white" />
                    <path
                        d="M38.0554 114.764C37.6749 114.764 37.2945 114.739 36.9141 114.663C35.0373 114.361 33.4147 113.374 32.2999 111.831L2.52793 70.8385C1.41305 69.3202 0.983312 67.4472 1.26379 65.5738C1.56964 63.7003 2.56013 62.0796 4.10827 60.9649L27.6096 43.9655C36.5178 37.5053 46.9969 33.2718 57.9051 31.6961L72.1365 29.6375C84.1356 27.9093 95.6803 23.2195 105.502 16.1259L125.882 1.38128C127.43 0.266565 129.307 -0.190165 131.159 0.112552C133.036 0.415255 134.658 1.42691 135.773 2.94514L165.545 43.9375C167.825 47.1006 167.137 51.531 163.965 53.8111L143.585 68.5557C133.408 75.928 121.457 80.7698 109.027 82.5489L94.7953 84.6075C84.3183 86.1323 74.2706 90.1884 65.6923 96.3953L42.191 113.395C40.9728 114.281 39.5266 114.738 38.0301 114.739L38.0554 114.764ZM72.5149 32.2953L58.2835 34.3539C47.8065 35.8787 37.7588 39.9348 29.1806 46.1417L5.67919 63.141C4.71479 63.8251 4.10524 64.838 3.90141 66.0026C3.72294 67.1672 4.00104 68.3315 4.68517 69.2677L34.4571 110.26C35.1412 111.222 36.1553 111.829 37.322 112.03C38.4886 112.207 39.6556 111.928 40.5947 111.244L64.096 94.2445C73.0042 87.7842 83.4833 83.5508 94.3915 81.975L108.623 79.9165C120.622 78.1883 132.167 73.4985 141.989 66.4049L162.368 51.6602C164.348 50.2415 164.781 47.482 163.362 45.5083L133.59 4.51587C132.906 3.55431 131.892 2.94735 130.726 2.7455C129.559 2.56897 128.392 2.84808 127.453 3.53211L107.073 18.2767C96.896 25.649 84.9452 30.4909 72.5149 32.27L72.5149 32.2953Z"
                        fill="#0D0D0D" />
                    <path
                        d="M122.736 21.2605C122.558 21.0074 122.432 20.7544 122.28 20.4761L113.78 26.6314C103.479 34.1038 91.456 38.8688 78.852 40.5208L65.2335 42.2999C54.2018 43.7485 43.7005 47.9306 34.6935 54.4405L21.8553 63.7368C24.1857 66.9248 23.4469 71.4054 20.25 73.7105L34.5365 93.3956C37.708 91.0905 42.1198 91.7716 44.4756 94.909L57.263 85.6381C66.3208 79.0775 76.8475 74.8954 87.9299 73.4721L101.447 71.7184C114.127 70.0917 126.176 65.3013 136.527 57.8035L144.9 51.7495C142.57 48.5614 143.309 44.0809 146.505 41.7758L132.751 22.8245C129.554 25.1549 125.066 24.4232 122.761 21.2352L122.736 21.2605Z"
                        fill="#CBE8CA" />
                    <path
                        d="M44.169 96.8065L43.3837 95.7437C41.4838 93.2135 37.8832 92.6586 35.3206 94.5078L34.2296 95.293L18.372 73.457L19.463 72.6718C22.051 70.7973 22.6371 67.152 20.7626 64.5459L19.9773 63.4578L33.907 53.3761C43.0667 46.7394 53.8474 42.4558 65.0824 40.9817L78.7014 39.2026C91.0523 37.576 102.924 32.8615 113.022 25.5662L122.765 18.5242L123.601 20.0425C123.677 20.1943 123.753 20.3461 123.854 20.4726C125.729 23.0535 129.38 23.6337 131.993 21.7592L133.084 20.9739L148.41 42.1015L147.319 42.8867C144.731 44.7612 144.145 48.4065 146.019 51.0127L146.805 52.1007L137.341 58.9401C126.836 66.5394 114.508 71.4312 101.65 73.0834L88.1326 74.8372C77.3033 76.2351 66.9284 80.3666 58.0733 86.7501L44.1944 96.7811L44.169 96.8065ZM38.6962 90.7597C40.877 90.7586 43.0319 91.5928 44.6536 93.1612L56.4774 84.5994C65.6877 77.9373 76.4938 73.6537 87.7542 72.2049L101.272 70.4511C113.673 68.8498 125.596 64.11 135.719 56.7894L143.103 51.4445C141.457 48.1801 142.094 44.1805 144.683 41.5972L132.372 24.6446C128.845 26.4183 124.459 25.5601 121.926 22.4227L114.567 27.7422C104.114 35.3162 91.811 40.208 79.0036 41.8855L65.3846 43.6646C54.6061 45.0879 44.2566 49.194 35.4522 55.5774L23.6031 64.1393C25.2488 67.4037 24.6118 71.4034 22.0232 73.9867L34.8663 91.673C36.084 91.0649 37.3776 90.7604 38.6709 90.7598L38.6962 90.7597Z"
                        fill="#0D0D0D" />
                    <path d="M28.7232 58.8421L26.5422 60.4453L49.0518 91.6295L51.2329 90.0264L28.7232 58.8421Z"
                        fill="#0D0D0D" />
                    <path d="M34.2789 54.8328L32.0978 56.436L54.6075 87.6202L56.7886 86.0171L34.2789 54.8328Z"
                        fill="#0D0D0D" />
                    <path d="M62.9068 42.1712L60.7258 43.7744L83.2354 74.9586L85.4165 73.3555L62.9068 42.1712Z"
                        fill="#0D0D0D" />
                    <path d="M117.357 24.1951L115.176 25.7983L137.686 56.9826L139.867 55.3794L117.357 24.1951Z"
                        fill="#0D0D0D" />
                    <path d="M107.454 31.3724L105.273 32.9755L127.782 64.1598L129.963 62.5567L107.454 31.3724Z"
                        fill="#0D0D0D" />
                    <path
                        d="M64.1336 57.2572L67.654 62.1147C70.7438 66.365 75.9142 68.5643 81.1122 67.8025L100.586 65.0341C104.186 64.5262 105.964 60.3494 103.837 57.4146L100.291 52.5318C97.2013 48.2815 92.0055 46.0822 86.8075 46.844L67.3847 49.6377C63.7841 50.1456 62.0061 54.3224 64.1589 57.2572L64.1336 57.2572Z"
                        fill="white" />
                    <path
                        d="M79.1075 69.2984C74.1885 69.301 69.5248 66.9748 66.5613 62.9015L63.0406 58.0438C61.7488 56.2728 61.4969 54.0204 62.3606 52.0205C63.2242 50.0206 65.0256 48.6276 67.1811 48.3228L86.606 45.5289C92.3371 44.716 97.9896 47.0922 101.384 51.7475L104.93 56.6305C106.222 58.4015 106.473 60.6539 105.61 62.6538C104.746 64.6537 102.945 66.0466 100.789 66.3515L81.3137 69.1201C80.5783 69.2217 79.8429 69.2727 79.1076 69.2731L79.1075 69.2984ZM65.2224 56.4735L68.7431 61.3312C71.5546 65.1768 76.2186 67.1739 80.9353 66.4881L100.411 63.7194C101.628 63.5416 102.668 62.7565 103.151 61.6173C103.634 60.4781 103.482 59.2128 102.773 58.2007L99.2272 53.3178C96.4157 49.4468 91.7517 47.4751 87.0096 48.1609L67.5848 50.9548C66.3676 51.1326 65.3273 51.9177 64.8701 53.0569C64.4128 54.1961 64.5385 55.4615 65.2477 56.4735L65.2224 56.4735Z"
                        fill="#0D0D0D" />
                    <path
                        d="M16.4536 65.6348C17.6456 67.2545 17.2629 69.5589 15.6371 70.7246C14.0113 71.9157 11.7267 71.5374 10.5348 69.9177C9.34292 68.298 9.72559 65.9937 11.3514 64.8279C12.9771 63.6368 15.2617 64.0151 16.4536 65.6348Z"
                        fill="#CBE8CA" />
                    <path
                        d="M13.4774 72.7781C13.2234 72.7783 12.9441 72.7784 12.6903 72.728C11.37 72.5263 10.2026 71.8181 9.44171 70.7299C8.65545 69.6417 8.3518 68.3253 8.556 67.0086C8.76021 65.6919 9.47215 64.5268 10.5646 63.7665C11.6571 62.9809 12.9777 62.6762 14.298 62.8779C15.6182 63.0796 16.7856 63.7878 17.5465 64.876C19.1698 67.103 18.6594 70.2176 16.4236 71.8394C15.5598 72.4729 14.5438 72.8027 13.5028 72.8034L13.4774 72.7781ZM13.4833 65.4863C13.0008 65.4866 12.5183 65.6388 12.1372 65.9176C11.629 66.2724 11.2985 66.8043 11.1965 67.412C11.0944 68.0197 11.2463 68.6273 11.6013 69.1334C11.9564 69.6396 12.4894 69.9684 13.0987 70.0692C13.708 70.1701 14.3175 70.0178 14.8257 69.663C15.8673 68.9281 16.0971 67.4595 15.3361 66.4472C14.9811 65.9411 14.4481 65.6123 13.8134 65.5114C13.6864 65.5115 13.5595 65.4862 13.4325 65.4863L13.4833 65.4863Z"
                        fill="#0D0D0D" />
                    <path
                        d="M40.9068 99.5914C42.0987 101.211 41.716 103.515 40.0902 104.681C38.4644 105.847 36.1798 105.494 34.9879 103.874C33.796 102.255 34.1787 99.9502 35.8045 98.7845C37.4303 97.5934 39.7149 97.9717 40.9068 99.5914Z"
                        fill="#CBE8CA" />
                    <path
                        d="M37.9324 106.707C36.3835 106.708 34.8606 106 33.8714 104.659C33.0851 103.571 32.7815 102.255 32.9857 100.938C33.1899 99.6211 33.9018 98.456 34.9943 97.6957C36.0868 96.9101 37.4074 96.6054 38.7276 96.8071C40.0478 97.0088 41.2152 97.717 41.9761 98.8052C43.5994 101.032 43.089 104.147 40.8532 105.769C39.964 106.402 38.9481 106.707 37.9324 106.707ZM37.9383 99.4155C37.4559 99.4158 36.9987 99.568 36.5922 99.8468C36.0841 100.202 35.7536 100.733 35.6515 101.367C35.5494 101.974 35.7013 102.582 36.0564 103.088C36.7919 104.125 38.2644 104.352 39.2807 103.592C40.3224 102.857 40.5521 101.389 39.7911 100.376C39.4361 99.8702 38.9031 99.5415 38.2684 99.4406C38.1415 99.4407 38.0145 99.4154 37.8875 99.4155L37.9383 99.4155Z"
                        fill="#0D0D0D" />
                    <path
                        d="M132.368 12.0679C133.56 13.6876 133.178 15.992 131.552 17.1577C129.926 18.3488 127.616 17.9705 126.45 16.3508C125.283 14.7311 125.64 12.4521 127.266 11.261C128.892 10.07 131.177 10.4483 132.368 12.0679Z"
                        fill="#CBE8CA" />
                    <path
                        d="M129.394 19.1839C129.14 19.184 128.861 19.1842 128.607 19.1084C127.287 18.9067 126.119 18.1986 125.358 17.1104C123.735 14.8834 124.245 11.7688 126.481 10.147C128.717 8.52512 131.865 9.02945 133.463 11.2565C135.086 13.4835 134.576 16.598 132.34 18.2199C131.476 18.8534 130.46 19.1832 129.419 19.1839L129.394 19.1839ZM129.4 11.8921C128.917 11.8924 128.46 12.0446 128.054 12.3234C127.546 12.6782 127.215 13.2101 127.138 13.8178C127.036 14.4255 127.188 15.033 127.543 15.5392C127.898 16.0453 128.431 16.3741 129.041 16.475C129.65 16.5759 130.26 16.4236 130.768 16.0688C131.809 15.3338 132.039 13.8652 131.278 12.853C130.822 12.2203 130.111 11.8916 129.4 11.8921Z"
                        fill="#0D0D0D" />
                    <path
                        d="M157.021 46.2754C158.213 47.8951 157.83 50.1995 156.204 51.3653C154.579 52.5564 152.294 52.178 151.102 50.5583C149.91 48.9387 150.293 46.6343 151.919 45.4686C153.545 44.2775 155.829 44.6558 157.021 46.2754Z"
                        fill="#CBE8CA" />
                    <path
                        d="M154.045 53.4164C153.791 53.4165 153.512 53.4167 153.258 53.3662C151.937 53.1645 150.77 52.4564 150.009 51.3682C149.223 50.28 148.919 48.9636 149.123 47.6469C149.328 46.3302 150.04 45.1651 151.132 44.4048C153.368 42.7829 156.491 43.2873 158.114 45.5143C158.9 46.6025 159.204 47.9188 159 49.2355C158.795 50.5522 158.083 51.7174 156.991 52.4777C156.127 53.1112 155.111 53.441 154.07 53.4417L154.045 53.4164ZM154.051 46.1245C153.568 46.1249 153.111 46.2771 152.705 46.5558C151.663 47.3161 151.433 48.7594 152.194 49.7717C152.549 50.2778 153.082 50.6066 153.717 50.6821C154.326 50.783 154.936 50.6307 155.444 50.2759C155.952 49.9211 156.283 49.3892 156.385 48.7562C156.487 48.1485 156.335 47.5409 155.98 47.0348C155.523 46.4021 154.812 46.0734 154.102 46.0739L154.051 46.1245Z"
                        fill="#0D0D0D" />
                    <path d="M86.8432 46.2624L84.6642 47.8608L97.874 66.1459L100.053 64.5476L86.8432 46.2624Z"
                        fill="#0D0D0D" />
                    <path d="M78.4575 47.3752L76.2785 48.9736L89.4883 67.2587L91.6672 65.6604L78.4575 47.3752Z"
                        fill="#0D0D0D" />
                    <path
                        d="M133.303 33.2111L131.889 30.9321C139.25 26.3458 149.659 19.0487 157.485 10.334L159.484 12.1063C151.454 21.0743 140.817 28.5235 133.303 33.2111Z"
                        fill="white" />
                    <path
                        d="M60.2573 145.692C53.975 145.693 50.1555 143.162 49.9026 142.984L51.4273 140.781C51.8573 141.085 62.2286 147.793 77.7059 136.42C95.2385 123.528 106.806 116.283 117.575 114.888L117.898 117.547C107.737 118.84 96.0431 126.237 79.2718 138.573C71.7361 144.12 65.2224 145.691 60.2573 145.692Z"
                        fill="white" />
                    <path
                        d="M61.8374 139.51C45.6491 139.513 41.2389 128.98 41.0626 128.498L43.5475 127.51C43.7239 127.915 47.8322 137.538 63.5661 136.8L63.6869 139.484C63.0535 139.51 62.4454 139.535 61.8374 139.535L61.8374 139.51Z"
                        fill="white" />
                </svg>