                <svg width="160" height="155"
                    viewBox="0 0 160 155" fill="none" xmlns="http://www.w3.org/2000/svg">
                    <path
                        d="M56.9043 54.8225L48.5542 61.4002C42.2574 66.3587 37.252 72.7797 33.9917 80.098L25.2158 99.6968C24.2569 101.831 25.2069 104.357 27.3491 105.307L61.5155 120.646C63.6414 121.604 66.1604 120.647 67.11 118.496L75.8859 98.8975C79.1624 91.5699 84.1679 85.1488 90.4484 80.1997L98.7985 73.622C106.001 67.9452 111.718 60.6155 115.47 52.2334L123.079 35.2359C124.038 33.1012 123.088 30.5754 120.946 29.626L86.7795 14.287C84.6535 13.3282 82.1346 14.2855 81.1849 16.4363L73.5759 33.4339C69.8234 41.816 64.1072 49.1457 56.9043 54.8225Z"
                        fill="white" />
                    <path
                        d="M65.8543 121.323C65.6108 121.464 65.3581 121.588 65.0867 121.68C63.7738 122.179 62.3717 122.144 61.0892 121.564L26.9227 106.225C25.6495 105.662 24.684 104.617 24.1729 103.31C23.6781 101.994 23.7146 100.587 24.2946 99.299L33.0705 79.7002C36.3909 72.2606 41.5376 65.6714 47.9387 60.631L56.2888 54.0532C63.3318 48.512 68.9924 41.2361 72.6641 33.0523L80.2731 16.0547C80.8531 14.7669 81.8864 13.7802 83.183 13.291C84.4958 12.7924 85.9073 12.8431 87.1805 13.4067L121.347 28.7458C123.972 29.9356 125.165 33.0358 123.975 35.672L116.366 52.6696C112.57 61.1637 106.705 68.6872 99.4049 74.4204L91.0548 80.9981C84.911 85.8466 79.975 92.1626 76.7725 99.3176L67.9965 118.916C67.5437 119.936 66.7863 120.763 65.8287 121.316L65.8543 121.323ZM57.5107 55.6208L49.1606 62.1986C43.0168 67.047 38.0808 73.363 34.8782 80.518L26.1023 100.117C25.7372 100.912 25.7204 101.788 26.0192 102.612C26.3343 103.426 26.9415 104.071 27.7245 104.42L61.8909 119.759C62.6832 120.124 63.5561 120.139 64.3772 119.838C65.189 119.521 65.8331 118.91 66.182 118.124L74.9579 98.5254C78.2783 91.0858 83.4249 84.4965 89.826 79.4562L98.1761 72.8784C105.219 67.3372 110.88 60.0613 114.551 51.8774L122.16 34.8798C122.905 33.2374 122.165 31.3047 120.529 30.5608L86.3625 15.2217C85.5702 14.8566 84.6973 14.8412 83.8762 15.1424C83.0644 15.4598 82.4204 16.07 82.0715 16.8562L74.4624 33.8538C70.666 42.3479 64.8017 49.8714 57.5014 55.6045L57.5107 55.6208Z"
                        fill="#0D0D0D" />
                    <path
                        d="M85.5926 29.9807C85.3858 29.8836 85.2115 29.7678 85.0116 29.6451L81.8391 36.7391C77.9989 45.3446 72.058 52.847 64.5976 58.5639L56.5347 64.7373C50.006 69.7428 44.8245 76.3085 41.4579 83.8177L36.6657 94.5321C39.333 95.7194 40.5117 98.8708 39.3148 101.533L55.7182 108.902C56.8989 106.249 59.9744 105.057 62.6393 106.203L67.4083 95.5233C70.7887 87.9628 75.9864 81.3877 82.5569 76.3797L90.5643 70.2601C98.0827 64.5313 104.03 57.0033 107.894 48.3627L111.022 41.3807C108.355 40.1934 107.176 37.0421 108.373 34.3804L92.581 27.2861C91.3934 29.9641 88.2506 31.1517 85.5995 29.955L85.5926 29.9807Z"
                        fill="#CBE8CA" />
                    <path
                        d="M63.1431 107.534L62.2486 107.142C60.0995 106.218 57.5899 107.191 56.6309 109.326L56.222 110.233L38.0202 102.063L38.4292 101.155C39.3951 98.995 38.4265 96.4367 36.2657 95.4549L35.3618 95.0459L40.5631 83.424C43.9805 75.7771 49.3032 69.0432 55.9524 63.9463L64.0153 57.7729C71.3227 52.1659 77.1849 44.7523 80.9605 36.3355L84.6021 28.2127L85.6968 28.8794C85.8014 28.9489 85.906 29.0184 86.0175 29.0622C88.169 30.0279 90.7204 29.052 91.7024 26.8824L92.1114 25.975L109.711 33.8871L109.302 34.7945C108.337 36.9547 109.305 39.513 111.466 40.4949L112.37 40.9038L108.832 48.7933C104.909 57.5553 98.8197 65.2516 91.197 71.0624L83.1896 77.182C76.7721 82.08 71.6532 88.5664 68.3374 95.938L63.15 107.509L63.1431 107.534ZM57.4103 105.671C58.806 104.865 60.4931 104.605 62.1095 105.014L66.5228 95.1459C69.9633 87.464 75.3023 80.7207 81.977 75.6307L89.9844 69.5111C97.3336 63.9016 103.219 56.4529 107.001 48.0105L109.758 41.8496C107.501 40.3604 106.434 37.5556 107.139 34.9399L93.0082 28.5964C91.4046 31.0384 88.2801 32.1072 85.5016 31.0274L82.7519 37.1627C78.8516 45.8897 72.7788 53.5766 65.1979 59.3849L57.1349 65.5582C50.7592 70.4538 45.6471 76.9145 42.3638 84.2674L37.9343 94.1445C40.1913 95.6337 41.2579 98.4386 40.553 101.054L55.2951 107.673C55.8505 106.832 56.5664 106.159 57.3941 105.681L57.4103 105.671Z"
                        fill="#0D0D0D" />
                    <path d="M39.217 88.8877L38.4063 90.7261L64.3774 102.391L65.1882 100.553L39.217 88.8877Z"
                        fill="#0D0D0D" />
                    <path d="M41.2952 84.2608L40.4844 86.0991L66.4555 97.7645L67.2663 95.9261L41.2952 84.2608Z"
                        fill="#0D0D0D" />
                    <path d="M54.9622 65.5464L54.1514 67.3848L80.1225 79.0501L80.9333 77.2118L54.9622 65.5464Z"
                        fill="#0D0D0D" />
                    <path d="M83.2173 33.8663L82.4065 35.7047L108.378 47.3701L109.188 45.5317L83.2173 33.8663Z"
                        fill="#0D0D0D" />
                    <path d="M79.5257 42.1328L78.715 43.9711L104.686 55.6365L105.497 53.7981L79.5257 42.1328Z"
                        fill="#0D0D0D" />
                    <path
                        d="M61.3426 74.7549L65.3876 76.5752C68.9331 78.1645 73.0546 77.6674 76.102 75.2576L87.5504 66.2847C89.6686 64.6281 89.2671 61.2877 86.8229 60.1881L82.7524 58.3608C79.2069 56.7715 75.0691 57.278 72.0217 59.6878L60.6151 68.6583C58.4969 70.3148 58.8984 73.6553 61.3588 74.7455L61.3426 74.7549Z"
                        fill="white" />
                    <path
                        d="M75.3695 76.9594C72.221 78.7782 68.3775 79.0064 64.9784 77.4841L60.9334 75.6638C59.4534 75.0031 58.4617 73.649 58.2774 72.0451C58.093 70.4412 58.7328 68.8808 60.0005 67.8887L71.4071 58.918C74.7768 56.2787 79.2718 55.7173 83.1612 57.4544L87.2318 59.2816C88.7118 59.9423 89.7034 61.2964 89.8878 62.9003C90.0721 64.5042 89.4323 66.0646 88.1647 67.0567L76.7162 76.0299C76.2829 76.3668 75.8308 76.6713 75.3602 76.9431L75.3695 76.9594ZM61.7513 73.8489L65.7964 75.6693C69.0142 77.1014 72.7366 76.6616 75.5037 74.4786L86.9521 65.5054C87.6659 64.9416 88.0424 64.0529 87.9314 63.1427C87.8205 62.2325 87.2572 61.4754 86.43 61.0871L82.3594 59.2598C79.1323 57.8114 75.4192 58.2675 72.6359 60.4599L61.2293 69.4306C60.5155 69.9945 60.1389 70.8831 60.2661 71.7839C60.3933 72.6848 60.9404 73.4513 61.7676 73.8395L61.7513 73.8489Z"
                        fill="#0D0D0D" />
                    <path
                        d="M33.8591 97.7892C35.2183 98.3898 35.8229 100.011 35.2128 101.36C34.612 102.725 33.0115 103.325 31.6522 102.724C30.293 102.123 29.6884 100.502 30.2985 99.1535C30.8993 97.7886 32.4998 97.1886 33.8591 97.7892Z"
                        fill="#CBE8CA" />
                    <path
                        d="M34.5874 103.475C34.4251 103.569 34.2465 103.672 34.0656 103.733C33.147 104.091 32.1395 104.067 31.2519 103.648C30.348 103.239 29.6687 102.506 29.3139 101.585C28.9592 100.664 28.985 99.6526 29.4034 98.7613C29.8124 97.8536 30.5445 97.1707 31.4631 96.8132C32.3816 96.4558 33.3892 96.48 34.2768 96.8983C36.1356 97.73 36.9572 99.9188 36.1253 101.785C35.8065 102.511 35.2784 103.098 34.6129 103.482L34.5874 103.475ZM31.9035 98.7892C31.5952 98.9674 31.3427 99.2432 31.2017 99.5628C31.0076 99.9782 30.9923 100.442 31.151 100.87C31.3098 101.298 31.6308 101.632 32.0444 101.826C32.458 102.02 32.92 102.035 33.3468 101.875C33.7736 101.715 34.1072 101.392 34.3014 100.977C34.6966 100.121 34.3022 99.0925 33.4425 98.7229C33.0289 98.5288 32.5669 98.5142 32.1239 98.6836C32.0427 98.7305 31.9522 98.7611 31.8711 98.808L31.9035 98.7892Z"
                        fill="#0D0D0D" />
                    <path
                        d="M62.1042 110.507C63.4635 111.108 64.068 112.729 63.4579 114.078C62.8478 115.426 61.2566 116.042 59.8974 115.442C58.5381 114.841 57.9336 113.22 58.5437 111.871C59.1444 110.506 60.745 109.906 62.1042 110.507Z"
                        fill="#CBE8CA" />
                    <path
                        d="M62.8243 116.176C61.8342 116.748 60.5995 116.855 59.4726 116.359C58.5687 115.95 57.8894 115.216 57.5346 114.295C57.1799 113.374 57.2057 112.363 57.624 111.472C58.0331 110.564 58.7652 109.881 59.6838 109.524C60.6023 109.166 61.6099 109.19 62.4975 109.609C64.3563 110.44 65.1779 112.629 64.346 114.496C64.0109 115.231 63.4735 115.801 62.8243 116.176ZM60.1405 111.49C59.8321 111.668 59.5958 111.935 59.4387 112.264C59.2445 112.679 59.2292 113.143 59.3972 113.587C59.556 114.015 59.877 114.349 60.2906 114.544C61.1434 114.939 62.1686 114.541 62.5383 113.678C62.9335 112.822 62.5391 111.794 61.6794 111.424C61.2658 111.23 60.8038 111.215 60.3608 111.385C60.2796 111.432 60.1892 111.462 60.108 111.509L60.1405 111.49Z"
                        fill="#0D0D0D" />
                    <path
                        d="M88.3463 20.5388C89.7055 21.1394 90.3101 22.7607 89.7 24.1093C89.0992 25.4742 87.4824 26.0836 86.1394 25.4736C84.7964 24.8636 84.185 23.268 84.7857 21.9031C85.3865 20.5382 86.9871 19.9382 88.3463 20.5388Z"
                        fill="#CBE8CA" />
                    <path
                        d="M89.066 26.2075C88.9037 26.3013 88.7252 26.4045 88.5349 26.4494C87.6164 26.8069 86.6088 26.7827 85.7212 26.3644C83.8624 25.5327 83.0408 23.3438 83.8727 21.4773C84.7046 19.6107 86.9036 18.7733 88.7461 19.6143C90.605 20.446 91.4266 22.6349 90.5947 24.5014C90.2758 25.227 89.7477 25.8137 89.0823 26.1981L89.066 26.2075ZM86.3822 21.5215C86.0738 21.6997 85.8376 21.9661 85.6804 22.2952C85.4862 22.7105 85.4709 23.1741 85.6459 23.5927C85.8046 24.0207 86.1257 24.355 86.5393 24.5491C86.9529 24.7432 87.4149 24.7578 87.8417 24.5978C88.2685 24.4379 88.6021 24.1152 88.7963 23.6998C89.1915 22.8435 88.7971 21.8154 87.9374 21.4459C87.4123 21.2079 86.8367 21.259 86.3822 21.5215Z"
                        fill="#0D0D0D" />
                    <path
                        d="M116.814 33.3449C118.173 33.9454 118.778 35.5668 118.168 36.9154C117.567 38.2803 115.966 38.8802 114.607 38.2796C113.248 37.6791 112.643 36.0578 113.253 34.7091C113.854 33.3442 115.455 32.7443 116.814 33.3449Z"
                        fill="#CBE8CA" />
                    <path
                        d="M117.542 39.0301C117.38 39.1239 117.202 39.227 117.021 39.2883C116.102 39.6457 115.095 39.6215 114.207 39.2032C113.303 38.7943 112.624 38.0607 112.269 37.1396C111.914 36.2185 111.94 35.2075 112.358 34.3161C113.19 32.4495 115.373 31.6215 117.232 32.4532C118.136 32.8621 118.815 33.5956 119.17 34.5167C119.524 35.4378 119.499 36.4489 119.08 37.3403C118.761 38.0659 118.233 38.6525 117.568 39.037L117.542 39.0301ZM114.859 34.3441C114.55 34.5222 114.314 34.7887 114.157 35.1177C113.771 35.9903 114.156 37.0022 115.016 37.3717C115.429 37.5658 115.891 37.5804 116.325 37.3947C116.752 37.2348 117.085 36.9121 117.28 36.4967C117.474 36.0814 117.489 35.6178 117.321 35.1735C117.162 34.7455 116.841 34.4112 116.428 34.2171C115.902 33.9791 115.327 34.0302 114.872 34.2928L114.859 34.3441Z"
                        fill="#0D0D0D" />
                    <path d="M71.8215 59.3094L71.0108 61.1436L86.2438 67.9805L87.0546 66.1464L71.8215 59.3094Z"
                        fill="#0D0D0D" />
                    <path d="M66.8567 63.1267L66.0459 64.9609L81.279 71.7979L82.0897 69.9637L66.8567 63.1267Z"
                        fill="#0D0D0D" />
                    <path
                        d="M96.773 33.7484L95.0254 32.8092C98.0455 27.145 102.016 18.6148 103.809 10.1298L105.744 10.528C103.914 19.2506 99.8532 27.9629 96.773 33.7484Z"
                        fill="white" />
                    <path
                        d="M91.5731 132.903C87.5482 135.228 84.1658 135.016 83.9383 134.996L84.1014 133.018C84.4891 133.054 93.6123 133.522 99.3284 120.5C105.8 105.742 110.535 96.8149 116.92 91.9362L118.11 93.5224C112.077 98.111 107.316 107.183 101.127 121.301C98.3472 127.648 94.754 131.066 91.5731 132.903Z"
                        fill="white" />
                    <path
                        d="M90.294 128.357C79.9234 134.347 73.2068 129.22 72.9162 128.977L74.1432 127.424C74.4059 127.618 80.5923 132.272 90.4006 125.979L91.4695 127.656C91.0731 127.907 90.6929 128.148 90.3034 128.373L90.294 128.357Z"
                        fill="white" />
                </svg>